<svg width="254" height="170" viewBox="0 0 254 170" fill="none" xmlns="http://www.w3.org/2000/svg">
<g clip-path="url(#clip0_1012_1745)">
<rect width="254" height="169.203" fill="#131313"/>
<path d="M-0.202153 65.234H0.00551069L1.04383 65.8861M-0.202153 65.234C-1.06742 64.1401 -3.72413 61.9523 -7.42885 61.9523C-11.1336 61.9523 -13.7903 64.1401 -14.6556 65.234M-0.202153 65.234H-14.6556M-14.6556 65.234H-14.8217L-15.9223 65.8861M-15.9223 65.8861H1.04383M-15.9223 65.8861V67.9477H1.04383V65.8861" stroke="#23C865" stroke-width="0.333077"/>
<path d="M16.764 65.234H16.9716L18.01 65.8861M16.764 65.234C15.8987 64.1401 13.242 61.9523 9.53727 61.9523C5.83255 61.9523 3.17584 64.1401 2.31057 65.234M16.764 65.234H2.31057M2.31057 65.234H2.14444L1.04382 65.8861M1.04382 65.8861H18.01M1.04382 65.8861V67.9477H18.01V65.8861" stroke="#23C865" stroke-width="0.333077"/>
<path d="M33.73 65.234H33.9377L34.976 65.8861M33.73 65.234C32.8648 64.1401 30.2081 61.9523 26.5033 61.9523C22.7986 61.9523 20.1419 64.1401 19.2766 65.234M33.73 65.234H19.2766M19.2766 65.234H19.1105L18.0099 65.8861M18.0099 65.8861H34.976M18.0099 65.8861V67.9477H34.976V65.8861" stroke="#23C865" stroke-width="0.333077"/>
<path d="M50.6962 65.234H50.9038L51.9421 65.8861M50.6962 65.234C49.8309 64.1401 47.1742 61.9523 43.4695 61.9523C39.7647 61.9523 37.108 64.1401 36.2428 65.234M50.6962 65.234H36.2428M36.2428 65.234H36.0766L34.976 65.8861M34.976 65.8861H51.9421M34.976 65.8861V67.9477H51.9421V65.8861" stroke="#23C865" stroke-width="0.333077"/>
<path d="M67.6624 65.234H67.8701L68.9084 65.8861M67.6624 65.234C66.7971 64.1401 64.1404 61.9523 60.4357 61.9523C56.731 61.9523 54.0743 64.1401 53.209 65.234M67.6624 65.234H53.209M53.209 65.234H53.0429L51.9423 65.8861M51.9423 65.8861H68.9084M51.9423 65.8861V67.9477H68.9084V65.8861" stroke="#23C865" stroke-width="0.333077"/>
<path d="M84.6285 65.234H84.8362L85.8745 65.8861M84.6285 65.234C83.7633 64.1401 81.1066 61.9523 77.4018 61.9523C73.6971 61.9523 71.0404 64.1401 70.1751 65.234M84.6285 65.234H70.1751M70.1751 65.234H70.009L68.9084 65.8861M68.9084 65.8861H85.8745M68.9084 65.8861V67.9477H85.8745V65.8861" stroke="#23C865" stroke-width="0.333077"/>
<path d="M-15.9223 67.9686V82.27H1.04383V67.9477" stroke="#23C865" stroke-width="0.666154"/>
<path d="M1.04382 67.9686V82.27H18.01V67.9477" stroke="#23C865" stroke-width="0.666154"/>
<path d="M18.0099 67.9686V82.27H34.976V67.9477" stroke="#23C865" stroke-width="0.666154"/>
<path d="M34.976 67.9686V82.27H51.9421V67.9477" stroke="#23C865" stroke-width="0.666154"/>
<path d="M51.9423 67.9686V82.27H68.9084V67.9477" stroke="#23C865" stroke-width="0.666154"/>
<path d="M68.9084 67.9686V82.27H85.8745V67.9477" stroke="#23C865" stroke-width="0.666154"/>
<path d="M-49.8547 -45.7981V67.9477H85.8744V-45.9646" stroke="#23C865" stroke-width="0.666154"/>
<path d="M-35.0508 -45.7981V-32.8081M-35.0508 -32.8081H14.5169M-35.0508 -32.8081L-32.7221 -31.4758M14.5169 -32.8081V-35.8058H21.503V-32.8081M14.5169 -32.8081V-31.6423M14.5169 -32.8081V-26.1465M21.503 -32.8081H70.5717M21.503 -32.8081V-31.6423M70.5717 -32.8081V-45.7981M70.5717 -32.8081L68.742 -31.6423M68.742 -31.6423H21.503M68.742 -31.6423L70.5717 -28.145M21.503 -31.6423V-28.145M21.503 -28.145H70.5717M21.503 -28.145V-26.1465M21.503 -28.145H14.5169M70.5717 -28.145V-26.1465H37.1384M21.503 -26.1465H14.5169M21.503 -26.1465H37.1384M14.5169 -28.145V-26.1465M14.5169 -28.145H-35.0508M14.5169 -28.145V-31.6423M14.5169 -26.1465H-1.11852M-35.0508 -28.145V-26.1465H-1.11852M-35.0508 -28.145L-32.7221 -31.4758M14.5169 -31.6423L-32.7221 -31.4758M-1.11852 -26.1465V-23.6484M-1.11852 -23.6484H-2.4492V6.16193M-1.11852 -23.6484H37.1384M-1.11852 -23.6484V6.16193M-2.4492 6.16193H-1.11852M-2.4492 6.16193L-1.11852 7.16117H37.1384L38.3028 6.16193M38.3028 6.16193V-23.6484H37.1384M38.3028 6.16193H37.1384M37.1384 -23.6484V-26.1465M37.1384 -23.6484V6.16193M37.1384 6.16193H-1.11852M14.5169 -24.6477V-6.9946M21.503 -24.6477V-6.9946" stroke="#23C865" stroke-width="0.333077"/>
<path d="M-2.72375 13.6562L-2.72375 24.9808L38.5778 24.9808L38.5778 13.7926" stroke="#23C865" stroke-width="0.333077" stroke-dasharray="6.66 6.66"/>
<path d="M-50.0207 85.6008L-50.0207 102.255L85.8747 102.255L85.8747 85.8014" stroke="#23C865" stroke-width="0.333077" stroke-dasharray="6.66 6.66"/>
<rect width="11.3246" height="8.99308" transform="translate(12.2646 20.3177)" fill="#131313"/>
<path d="M18.4199 21.5555C18.7175 21.5555 18.9817 21.6043 19.2127 21.702C19.4436 21.7953 19.6235 21.9352 19.7522 22.1217C19.8855 22.3082 19.9521 22.5436 19.9521 22.8278C19.9521 23.1476 19.8655 23.4007 19.6923 23.5872C19.5191 23.7738 19.2682 23.8937 18.9395 23.947V23.9736C19.3437 24.018 19.6479 24.149 19.8522 24.3666C20.0609 24.5842 20.1653 24.8951 20.1653 25.2992C20.1653 25.7567 20.0209 26.1075 19.7323 26.3518C19.448 26.596 19.0506 26.7182 18.5398 26.7182C18.2823 26.7182 18.0647 26.6982 17.887 26.6582C17.7138 26.6182 17.5562 26.5627 17.414 26.4917V28.2503H16.8278V23.0876C16.8278 22.7279 16.8967 22.437 17.0343 22.215C17.172 21.9885 17.3608 21.8219 17.6006 21.7153C17.8404 21.6087 18.1135 21.5555 18.4199 21.5555ZM18.4066 22.0418C18.229 22.0418 18.0647 22.0728 17.9137 22.135C17.7627 22.1972 17.6405 22.306 17.5473 22.4614C17.4585 22.6169 17.414 22.8345 17.414 23.1143V25.9654C17.5695 26.0453 17.7294 26.112 17.8937 26.1652C18.0624 26.2141 18.2601 26.2385 18.4866 26.2385C18.8685 26.2385 19.146 26.1541 19.3192 25.9854C19.4924 25.8122 19.579 25.5701 19.579 25.2593C19.579 24.9084 19.4725 24.6531 19.2593 24.4932C19.0461 24.3289 18.7663 24.2467 18.4199 24.2467H18.0669V23.7538H18.3533C18.6997 23.7538 18.9529 23.6716 19.1127 23.5073C19.2726 23.343 19.3526 23.1254 19.3526 22.8545C19.3526 22.5791 19.266 22.3748 19.0928 22.2416C18.924 22.1084 18.6953 22.0418 18.4066 22.0418Z" fill="#23C865"/>
<rect width="11.3246" height="8.99308" transform="translate(12.2646 97.5916)" fill="#131313"/>
<path d="M18.0536 99.5288C18.36 99.5288 18.622 99.5665 18.8396 99.642C19.0572 99.7175 19.2526 99.7997 19.4258 99.8885L19.1727 100.348C19.0084 100.255 18.833 100.175 18.6464 100.108C18.4599 100.042 18.2534 100.008 18.0269 100.008C17.8271 100.008 17.6805 100.055 17.5873 100.148C17.494 100.237 17.4474 100.344 17.4474 100.468C17.4474 100.575 17.4762 100.67 17.534 100.755C17.5917 100.839 17.685 100.928 17.8137 101.021C17.947 101.11 18.1224 101.214 18.34 101.334C18.7441 101.552 19.0528 101.791 19.266 102.054C19.4836 102.311 19.5924 102.633 19.5924 103.019C19.5924 103.552 19.4392 103.959 19.1327 104.238C18.8307 104.518 18.4288 104.658 17.927 104.658C17.6117 104.658 17.3297 104.6 17.081 104.485C16.8323 104.37 16.6369 104.201 16.4948 103.979C16.3571 103.752 16.2883 103.481 16.2883 103.166C16.2883 102.882 16.3482 102.633 16.4681 102.42C16.5925 102.207 16.759 102.029 16.9677 101.887C17.1809 101.74 17.4185 101.629 17.6805 101.554C17.4318 101.412 17.232 101.256 17.081 101.088C16.93 100.914 16.8545 100.706 16.8545 100.461C16.8545 100.155 16.9677 99.924 17.1942 99.7686C17.4252 99.6087 17.7116 99.5288 18.0536 99.5288ZM18.1468 101.807C18.0091 101.838 17.867 101.887 17.7205 101.954C17.5784 102.016 17.4451 102.1 17.3208 102.207C17.1964 102.309 17.0943 102.44 17.0144 102.6C16.9389 102.755 16.9011 102.946 16.9011 103.173C16.9011 103.466 16.9899 103.706 17.1676 103.892C17.3497 104.079 17.6028 104.172 17.927 104.172C18.2689 104.172 18.531 104.074 18.7131 103.879C18.8951 103.679 18.9862 103.395 18.9862 103.026C18.9862 102.724 18.9107 102.48 18.7597 102.293C18.6131 102.107 18.4088 101.945 18.1468 101.807Z" fill="#23C865"/>
<path d="M289.37 82.1035H291.033L299.35 87.2662M289.37 82.1035C282.439 73.4435 261.16 56.1235 231.486 56.1235C201.811 56.1235 180.532 73.4435 173.601 82.1035M289.37 82.1035H173.601M173.601 82.1035H172.27L163.455 87.2662M163.455 87.2662H299.35M163.455 87.2662V103.587H299.35V87.2662" stroke="#23C865" stroke-width="0.666154"/>
<path d="M163.621 103.753V217.499H299.35V103.587" stroke="#23C865" stroke-width="0.666154"/>
<path d="M178.425 103.753V116.743M178.425 116.743H227.993M178.425 116.743L180.753 118.076M227.993 116.743V113.746H234.979V116.743M227.993 116.743V117.909M227.993 116.743V123.405M234.979 116.743H284.047M234.979 116.743V117.909M284.047 116.743V103.753M284.047 116.743L282.218 117.909M282.218 117.909H234.979M282.218 117.909L284.047 121.407M234.979 117.909V121.407M234.979 121.407H284.047M234.979 121.407V123.405M234.979 121.407H227.993M284.047 121.407V123.405H250.614M234.979 123.405H227.993M234.979 123.405H250.614M227.993 121.407V123.405M227.993 121.407H178.425M227.993 121.407V117.909M227.993 123.405H212.357M178.425 121.407V123.405H212.357M178.425 121.407L180.753 118.076M227.993 117.909L180.753 118.076M212.357 123.405V125.903M212.357 125.903H211.026V155.713M212.357 125.903H250.614M212.357 125.903V155.713M211.026 155.713H212.357M211.026 155.713L212.357 156.713H250.614L251.778 155.713M251.778 155.713V125.903H250.614M251.778 155.713H250.614M250.614 125.903V123.405M250.614 125.903V155.713M250.614 155.713H212.357M227.993 124.904V142.557M234.979 124.904V142.557" stroke="#23C865" stroke-width="0.333077"/>
<path d="M158.459 103.587H144.802V217.499H158.294" stroke="#23C865" stroke-width="0.333077" stroke-dasharray="6.66 6.66"/>
<rect width="7.66077" height="22.3162" transform="translate(140.805 149.552)" fill="#131313"/>
<path d="M144.303 162.947C143.867 162.947 143.514 162.793 143.243 162.487C142.972 162.176 142.837 161.716 142.837 161.108C142.837 160.504 142.97 160.042 143.237 159.722C143.503 159.403 143.876 159.243 144.356 159.243C144.618 159.243 144.835 159.289 145.009 159.383C145.186 159.472 145.333 159.607 145.448 159.789H145.488C145.51 159.714 145.539 159.631 145.575 159.543C145.61 159.454 145.653 159.376 145.701 159.309H146.161C146.13 159.407 146.101 159.536 146.074 159.696C146.048 159.856 146.028 160.024 146.015 160.202C146.001 160.38 145.995 160.548 145.995 160.708V162.094C145.995 162.232 146.021 162.329 146.074 162.387C146.128 162.44 146.192 162.467 146.268 162.467C146.303 162.467 146.341 162.463 146.381 162.454C146.421 162.445 146.45 162.438 146.468 162.434V162.86C146.436 162.878 146.385 162.896 146.314 162.913C146.243 162.936 146.17 162.947 146.094 162.947C145.93 162.947 145.795 162.907 145.688 162.827C145.586 162.747 145.51 162.605 145.462 162.4H145.415C145.313 162.551 145.177 162.68 145.009 162.787C144.84 162.893 144.604 162.947 144.303 162.947ZM144.402 162.46C144.771 162.46 145.031 162.356 145.182 162.147C145.337 161.934 145.415 161.599 145.415 161.141V161.101C145.415 160.657 145.342 160.32 145.195 160.089C145.053 159.853 144.787 159.736 144.396 159.736C144.072 159.736 143.832 159.853 143.676 160.089C143.521 160.324 143.443 160.666 143.443 161.115C143.443 161.559 143.519 161.894 143.67 162.121C143.825 162.347 144.069 162.46 144.402 162.46Z" fill="#23C865"/>
<path d="M210.752 163.208L210.752 174.532L252.053 174.532L252.053 163.344" stroke="#23C865" stroke-width="0.333077" stroke-dasharray="6.66 6.66"/>
</g>
<defs>
<clipPath id="clip0_1012_1745">
<rect width="254" height="169.203" fill="white"/>
</clipPath>
</defs>
</svg>
