<svg width="254" height="170" viewBox="0 0 254 170" fill="none" xmlns="http://www.w3.org/2000/svg">
<g clip-path="url(#clip0_1012_1811)">
<rect width="254" height="169.203" fill="#131313"/>
<path d="M170.62 -101.877L-72.17 38.2978L-95.9843 52.047M-49.1256 131.867L-25.3113 118.118L216.898 -21.7215" stroke="#23C865" stroke-width="1.05778"/>
<path d="M193.845 -38.6159L184.552 -33.2504M35.073 44.5324L45.151 47.2328L57.639 40.0229M35.073 44.5324L22.3298 22.4606M35.073 44.5324L47.8514 37.1548M22.3298 22.4606L25.0302 12.3826L37.5182 5.17261M22.3298 22.4606L35.1082 15.083M174.305 -73.8015L164.431 -68.1006M176.833 -66.7416L165.797 -60.37M188.995 -44.3344L178.54 -38.2982M164.431 -68.1006L165.797 -60.37M164.431 -68.1006L151.653 -60.723M165.797 -60.37L178.54 -38.2982M165.797 -60.37L152.437 -52.6571M178.54 -38.2982L184.552 -33.2504M178.54 -38.2982L165.181 -30.5852M184.552 -33.2504L171.774 -25.8728M151.653 -60.723L152.437 -52.6571M151.653 -60.723L139.455 -53.6807M152.437 -52.6571L165.181 -30.5852M152.437 -52.6571L139.659 -45.2794M165.181 -30.5852L171.774 -25.8728M165.181 -30.5852L152.402 -23.2076M171.774 -25.8728L159.576 -18.8305M159.576 -18.8305L152.402 -23.2076M159.576 -18.8305L144.474 -10.1115M152.402 -23.2076L139.659 -45.2794M152.402 -23.2076L136.72 -14.1532M139.659 -45.2794L139.455 -53.6807M139.659 -45.2794L123.976 -36.2251M139.455 -53.6807L124.353 -44.9617M124.353 -44.9617L123.976 -36.2251M124.353 -44.9617L110.994 -37.2487M123.976 -36.2251L136.72 -14.1532M123.976 -36.2251L109.455 -27.8414M136.72 -14.1532L144.474 -10.1115M136.72 -14.1532L122.199 -5.76958M144.474 -10.1115L131.115 -2.39849M131.115 -2.39849L122.199 -5.76958M131.115 -2.39849L116.013 6.32053M122.199 -5.76958L109.455 -27.8414M122.199 -5.76958L107.097 2.94943M109.455 -27.8414L110.994 -37.2487M109.455 -27.8414L94.3536 -19.1224M110.994 -37.2487L95.8924 -28.5297M95.8924 -28.5297L94.3536 -19.1224M95.8924 -28.5297L82.5331 -20.8168M94.3536 -19.1224L107.097 2.94943M94.3536 -19.1224L80.4135 -11.0741M107.097 2.94943L116.013 6.32053M107.097 2.94943L93.1567 10.9978M116.013 6.32053L102.654 14.0335M102.654 14.0335L93.1567 10.9978M102.654 14.0335L87.5521 22.7525M93.1567 10.9978L80.4135 -11.0741M93.1567 10.9978L77.4741 20.0521M80.4135 -11.0741L82.5331 -20.8168M80.4135 -11.0741L64.7309 -2.01972M82.5331 -20.8168L67.4313 -12.0977M67.4313 -12.0977L64.7309 -2.01972M67.4313 -12.0977L50.0062 -2.03734M64.7309 -2.01972L77.4741 20.0521M64.7309 -2.01972L47.8866 7.70534M77.4741 20.0521L87.5521 22.7525M77.4741 20.0521L60.6298 29.7772M87.5521 22.7525L70.127 32.8129M70.127 32.8129L60.6298 29.7772M70.127 32.8129L57.639 40.0229M60.6298 29.7772L47.8866 7.70534M60.6298 29.7772L47.8514 37.1548M47.8866 7.70534L50.0062 -2.03734M47.8866 7.70534L35.1082 15.083M50.0062 -2.03734L37.5182 5.17261M37.5182 5.17261L35.1082 15.083M35.1082 15.083L47.8514 37.1548M47.8514 37.1548L57.639 40.0229" stroke="#23C865" stroke-width="0.52889"/>
<path d="M-36.0377 44.5426L-45.3343 39.8421M-36.0377 44.5426L-13.0946 31.2964M-36.0377 44.5426L-58.9808 57.7888M-45.3343 39.8421L-22.5365 26.6798M-45.3343 39.8421L-68.1322 53.0045M-22.5365 26.6798L0.261416 13.5174L9.84846 18.0502L-13.0946 31.2964M-22.5365 26.6798L-13.0946 31.2964M-58.9808 57.7888L-81.9238 71.0349L-90.9301 66.1668L-68.1322 53.0045M-58.9808 57.7888L-68.1322 53.0045" stroke="#23C865" stroke-width="1.05778"/>
<path d="M205.994 -15.1208L182.761 -1.70694M205.994 -15.1208L217.001 7.1794M205.994 -15.1208L212.384 -18.8096L227.115 1.33999L217.001 7.1794M182.761 -1.70694L195.283 26.6883M182.761 -1.70694L158.947 12.0423M195.283 26.6883L219.678 12.6038L217.001 7.1794M195.283 26.6883L172.194 40.0184M149.106 53.3484L135.132 25.7915M149.106 53.3484L172.194 40.0184M149.106 53.3484L126.018 66.6784M135.132 25.7915L158.947 12.0423M135.132 25.7915L111.318 39.5407M158.947 12.0423L172.194 40.0184M126.018 66.6784L102.929 80.0084L87.5035 53.2899L111.318 39.5407M126.018 66.6784L111.318 39.5407M31.7431 85.4832L46.2978 112.705M31.7431 85.4832L57.5904 70.5603M31.7431 85.4832L5.89583 100.406M46.2978 112.705L72.5807 97.5303M46.2978 112.705L20.0149 127.879M72.5807 97.5303L98.8636 82.3559L83.4376 55.6373L57.5904 70.5603M72.5807 97.5303L57.5904 70.5603M5.89583 100.406L-19.9514 115.329L-6.268 143.054L20.0149 127.879M5.89583 100.406L20.0149 127.879" stroke="#23C865" stroke-width="1.05778"/>
<path d="M159.804 -95.1241L136.571 -81.7103M159.804 -95.1241L145.995 -115.806M159.804 -95.1241L166.194 -98.813L156.109 -121.645L145.995 -115.806M136.571 -81.7103L118.241 -106.752M136.571 -81.7103L112.757 -67.9611M118.241 -106.752L142.636 -120.837L145.995 -115.806M118.241 -106.752L95.1525 -93.422M72.0642 -80.092L88.9422 -54.2119M72.0642 -80.092L95.1525 -93.422M72.0642 -80.092L48.9759 -66.762M88.9422 -54.2119L112.757 -67.9611M88.9422 -54.2119L65.1279 -40.4626M112.757 -67.9611L95.1525 -93.422M48.9759 -66.762L25.8876 -53.432L41.3136 -26.7134L65.1279 -40.4626M48.9759 -66.762L65.1279 -40.4626M-14.4468 5.47985L-30.744 -20.7357M-14.4468 5.47985L11.4004 -9.44307M-14.4468 5.47985L-40.2941 20.4028M-30.744 -20.7357L-4.46115 -35.9101M-30.744 -20.7357L-57.0269 -5.56122M-4.46115 -35.9101L21.8217 -51.0845L37.2477 -24.366L11.4004 -9.44307M-4.46115 -35.9101L11.4004 -9.44307M-40.2941 20.4028L-66.1414 35.3257L-83.3098 9.61322L-57.0269 -5.56122M-40.2941 20.4028L-57.0269 -5.56122" stroke="#23C865" stroke-width="1.05778"/>
<path d="M32.832 60.5411L55.4846 47.4626L57.1854 55.774L34.5328 68.8525M32.832 60.5411L34.5328 68.8525M32.832 60.5411L10.1793 73.6196M34.5328 68.8525L11.5897 82.0987M-12.4734 86.6981L-11.3534 95.3449M-12.4734 86.6981L10.1793 73.6196M-12.4734 86.6981L-35.126 99.7767M-11.3534 95.3449L11.5897 82.0987M-11.3534 95.3449L-34.2965 108.591M11.5897 82.0987L10.1793 73.6196M-35.126 99.7767L-57.7787 112.855L-57.2396 121.837L-34.2965 108.591M-35.126 99.7767L-34.2965 108.591" stroke="#23C865" stroke-width="1.05778"/>
<path d="M162.358 -14.2412L185.011 -27.3197L186.712 -19.0082L164.059 -5.92973M162.358 -14.2412L164.059 -5.92973M162.358 -14.2412L139.706 -1.16264M164.059 -5.92973L141.116 7.31647M117.053 11.9159L118.173 20.5627M117.053 11.9159L139.706 -1.16264M117.053 11.9159L94.4004 24.9944M118.173 20.5627L141.116 7.31647M118.173 20.5627L95.23 33.8089M141.116 7.31647L139.706 -1.16264M94.4004 24.9944L71.7478 38.0729L72.2869 47.0551L95.23 33.8089M94.4004 24.9944L95.23 33.8089" stroke="#23C865" stroke-width="1.05778"/>
</g>
<defs>
<clipPath id="clip0_1012_1811">
<rect width="254" height="169.203" fill="white"/>
</clipPath>
</defs>
</svg>
