<svg width="254" height="170" viewBox="0 0 254 170" fill="none" xmlns="http://www.w3.org/2000/svg">
<g clip-path="url(#clip0_1549_187)">
<path d="M170.622 -101.877L-72.1685 38.2978L-95.9829 52.0471M-49.1242 131.867L-25.3098 118.118L216.899 -21.7215" stroke="#23C865" stroke-width="1.05778"/>
<path d="M193.846 -38.6159L184.552 -33.2504M35.0732 44.5324L45.1512 47.2328L57.6392 40.0229M35.0732 44.5324L22.33 22.4606M35.0732 44.5324L47.8516 37.1548M22.33 22.4606L25.0304 12.3826L37.5184 5.17263M22.33 22.4606L35.1084 15.083M174.306 -73.8015L164.431 -68.1006M176.833 -66.7416L165.797 -60.37M188.995 -44.3344L178.54 -38.2982M164.431 -68.1006L165.797 -60.37M164.431 -68.1006L151.653 -60.723M165.797 -60.37L178.54 -38.2982M165.797 -60.37L152.438 -52.657M178.54 -38.2982L184.552 -33.2504M178.54 -38.2982L165.181 -30.5852M184.552 -33.2504L171.774 -25.8727M151.653 -60.723L152.438 -52.657M151.653 -60.723L139.455 -53.6807M152.438 -52.657L165.181 -30.5852M152.438 -52.657L139.659 -45.2794M165.181 -30.5852L171.774 -25.8727M165.181 -30.5852L152.402 -23.2076M171.774 -25.8727L159.576 -18.8305M159.576 -18.8305L152.402 -23.2076M159.576 -18.8305L144.474 -10.1114M152.402 -23.2076L139.659 -45.2794M152.402 -23.2076L136.72 -14.1532M139.659 -45.2794L139.455 -53.6807M139.659 -45.2794L123.977 -36.2251M139.455 -53.6807L124.354 -44.9617M124.354 -44.9617L123.977 -36.2251M124.354 -44.9617L110.994 -37.2487M123.977 -36.2251L136.72 -14.1532M123.977 -36.2251L109.456 -27.8414M136.72 -14.1532L144.474 -10.1114M136.72 -14.1532L122.199 -5.76956M144.474 -10.1114L131.115 -2.39847M131.115 -2.39847L122.199 -5.76956M131.115 -2.39847L116.013 6.32054M122.199 -5.76956L109.456 -27.8414M122.199 -5.76956L107.097 2.94945M109.456 -27.8414L110.994 -37.2487M109.456 -27.8414L94.3539 -19.1224M110.994 -37.2487L95.8926 -28.5297M95.8926 -28.5297L94.3539 -19.1224M95.8926 -28.5297L82.5333 -20.8167M94.3539 -19.1224L107.097 2.94945M94.3539 -19.1224L80.4138 -11.0741M107.097 2.94945L116.013 6.32054M107.097 2.94945L93.1569 10.9978M116.013 6.32054L102.654 14.0335M102.654 14.0335L93.1569 10.9978M102.654 14.0335L87.5524 22.7525M93.1569 10.9978L80.4138 -11.0741M93.1569 10.9978L77.4743 20.0521M80.4138 -11.0741L82.5333 -20.8167M80.4138 -11.0741L64.7312 -2.0197M82.5333 -20.8167L67.4316 -12.0977M67.4316 -12.0977L64.7312 -2.0197M67.4316 -12.0977L50.0064 -2.03733M64.7312 -2.0197L77.4743 20.0521M64.7312 -2.0197L47.8869 7.70535M77.4743 20.0521L87.5524 22.7525M77.4743 20.0521L60.63 29.7772M87.5524 22.7525L70.1272 32.8129M70.1272 32.8129L60.63 29.7772M70.1272 32.8129L57.6392 40.0229M60.63 29.7772L47.8869 7.70535M60.63 29.7772L47.8516 37.1548M47.8869 7.70535L50.0064 -2.03733M47.8869 7.70535L35.1084 15.083M50.0064 -2.03733L37.5184 5.17263M37.5184 5.17263L35.1084 15.083M35.1084 15.083L47.8516 37.1548M47.8516 37.1548L57.6392 40.0229" stroke="#23C865" stroke-width="0.52889"/>
<path d="M-36.0376 44.5425L-45.3343 39.8421M-36.0376 44.5425L-13.0946 31.2964M-36.0376 44.5425L-58.9807 57.7887M-45.3343 39.8421L-22.5364 26.6797M-45.3343 39.8421L-68.1321 53.0044M-22.5364 26.6797L0.261477 13.5174L9.84852 18.0502L-13.0946 31.2964M-22.5364 26.6797L-13.0946 31.2964M-58.9807 57.7887L-81.9238 71.0349L-90.93 66.1668L-68.1321 53.0044M-58.9807 57.7887L-68.1321 53.0044" stroke="#23C865" stroke-width="1.05778"/>
<path d="M205.994 -15.1208L182.761 -1.70694M205.994 -15.1208L217.001 7.17941M205.994 -15.1208L212.384 -18.8096L227.115 1.34L217.001 7.17941M182.761 -1.70694L195.283 26.6883M182.761 -1.70694L158.947 12.0423M195.283 26.6883L219.678 12.6038L217.001 7.17941M195.283 26.6883L172.194 40.0184M149.106 53.3484L135.132 25.7915M149.106 53.3484L172.194 40.0184M149.106 53.3484L126.018 66.6784M135.132 25.7915L158.947 12.0423M135.132 25.7915L111.318 39.5407M158.947 12.0423L172.194 40.0184M126.018 66.6784L102.93 80.0085L87.5036 53.2899L111.318 39.5407M126.018 66.6784L111.318 39.5407M31.7432 85.4832L46.2979 112.705M31.7432 85.4832L57.5905 70.5603M31.7432 85.4832L5.89595 100.406M46.2979 112.705L72.5808 97.5303M46.2979 112.705L20.015 127.879M72.5808 97.5303L98.8637 82.3559L83.4378 55.6373L57.5905 70.5603M72.5808 97.5303L57.5905 70.5603M5.89595 100.406L-19.9513 115.329L-6.26788 143.054L20.015 127.879M5.89595 100.406L20.015 127.879" stroke="#23C865" stroke-width="1.05778"/>
<path d="M159.805 -95.1241L136.571 -81.7102M159.805 -95.1241L145.995 -115.806M159.805 -95.1241L166.194 -98.8129L156.109 -121.645L145.995 -115.806M136.571 -81.7102L118.241 -106.752M136.571 -81.7102L112.757 -67.961M118.241 -106.752L142.636 -120.837L145.995 -115.806M118.241 -106.752L95.1526 -93.422M72.0643 -80.092L88.9424 -54.2118M72.0643 -80.092L95.1526 -93.422M72.0643 -80.092L48.976 -66.7619M88.9424 -54.2118L112.757 -67.961M88.9424 -54.2118L65.128 -40.4626M112.757 -67.961L95.1526 -93.422M48.976 -66.7619L25.8877 -53.4319L41.3137 -26.7134L65.128 -40.4626M48.976 -66.7619L65.128 -40.4626M-14.4467 5.4799L-30.7439 -20.7356M-14.4467 5.4799L11.4005 -9.44303M-14.4467 5.4799L-40.294 20.4028M-30.7439 -20.7356L-4.46103 -35.91M-30.7439 -20.7356L-57.0268 -5.56117M-4.46103 -35.91L21.8219 -51.0845L37.2478 -24.366L11.4005 -9.44303M-4.46103 -35.91L11.4005 -9.44303M-40.294 20.4028L-66.1413 35.3257L-83.3097 9.61326L-57.0268 -5.56117M-40.294 20.4028L-57.0268 -5.56117" stroke="#23C865" stroke-width="1.05778"/>
<path d="M32.8322 60.5412L55.4849 47.4626L57.1857 55.7741L34.533 68.8526M32.8322 60.5412L34.533 68.8526M32.8322 60.5412L10.1795 73.6197M34.533 68.8526L11.5899 82.0988M-12.4731 86.6982L-11.3532 95.345M-12.4731 86.6982L10.1795 73.6197M-12.4731 86.6982L-35.1258 99.7767M-11.3532 95.345L11.5899 82.0988M-11.3532 95.345L-34.2963 108.591M11.5899 82.0988L10.1795 73.6197M-35.1258 99.7767L-57.7785 112.855L-57.2393 121.837L-34.2963 108.591M-35.1258 99.7767L-34.2963 108.591" stroke="#23C865" stroke-width="1.05778"/>
<path d="M162.36 -14.2419L185.012 -27.3204L186.713 -19.009L164.06 -5.93048M162.36 -14.2419L164.06 -5.93048M162.36 -14.2419L139.707 -1.16339M164.06 -5.93048L141.117 7.31571M117.054 11.9151L118.174 20.5619M117.054 11.9151L139.707 -1.16339M117.054 11.9151L94.4015 24.9937M118.174 20.5619L141.117 7.31571M118.174 20.5619L95.2311 33.8081M141.117 7.31571L139.707 -1.16339M94.4015 24.9937L71.7489 38.0722L72.288 47.0543L95.2311 33.8081M94.4015 24.9937L95.2311 33.8081" stroke="#23C865" stroke-width="1.05778"/>
</g>
<defs>
<clipPath id="clip0_1549_187">
<rect width="254" height="169.203" fill="white"/>
</clipPath>
</defs>
</svg>
