<svg width="254" height="169" viewBox="0 0 254 169" fill="none" xmlns="http://www.w3.org/2000/svg">
<g clip-path="url(#clip0_1549_211)">
<g clip-path="url(#clip1_1549_211)">
<rect x="0.0171491" y="0.254349" width="99.2569" height="99.2569" transform="matrix(0.94753 0.319667 -0.896043 0.443967 11.0452 152.685)" fill="#F7F7F7"/>
<line x1="-43.9943" y1="164.676" x2="106.473" y2="154.531" stroke="#23C865" stroke-width="0.333077"/>
<line x1="-43.7851" y1="167.793" x2="106.683" y2="157.648" stroke="#23C865" stroke-width="0.333077"/>
<line x1="-43.3649" y1="174.026" x2="107.103" y2="163.881" stroke="#23C865" stroke-width="0.333077"/>
<line x1="-43.1545" y1="177.143" x2="107.313" y2="166.998" stroke="#23C865" stroke-width="0.333077"/>
</g>
<rect x="0.0171491" y="0.254349" width="99.2569" height="99.2569" transform="matrix(0.94753 0.319667 -0.896043 0.443967 11.0452 152.685)" stroke="#23C865" stroke-width="0.666154"/>
<rect x="0.0112362" y="0.254678" width="99.2569" height="99.2569" transform="matrix(0.939849 0.34159 -0.906114 0.423033 12.0471 111.724)" fill="#F7F7F7"/>
<line y1="-0.166538" x2="99.9231" y2="-0.166538" transform="matrix(0.906114 -0.423033 0.939849 0.34159 -76.2273 154.633)" stroke="#23C865" stroke-width="0.333077" stroke-dasharray="3.33 1.67 6.66 1.67"/>
<line y1="-0.166538" x2="86.2669" y2="-0.166538" transform="matrix(0.906114 -0.423033 0.939849 0.34159 -71.5281 156.467)" stroke="#23C865" stroke-width="0.333077" stroke-dasharray="3.33 1.67 6.66 1.67"/>
<line y1="-0.166538" x2="73.9431" y2="-0.166538" transform="matrix(0.906114 -0.423033 0.939849 0.34159 -66.8289 158.174)" stroke="#23C865" stroke-width="0.333077" stroke-dasharray="3.33 1.67 6.66 1.67"/>
<line y1="-0.166538" x2="73.9431" y2="-0.166538" transform="matrix(0.906114 -0.423033 0.939849 0.34159 -62.135 159.881)" stroke="#23C865" stroke-width="0.333077" stroke-dasharray="3.33 1.67 6.66 1.67"/>
<line y1="-0.166538" x2="59.6208" y2="-0.166538" transform="matrix(0.906114 -0.423033 0.939849 0.34159 -43.3525 166.708)" stroke="#23C865" stroke-width="0.333077" stroke-dasharray="3.33 1.67 6.66 1.67"/>
<line y1="-0.166538" x2="59.6208" y2="-0.166538" transform="matrix(0.906114 -0.423033 0.939849 0.34159 -38.657 168.415)" stroke="#23C865" stroke-width="0.333077" stroke-dasharray="3.33 1.67 6.66 1.67"/>
<line y1="-0.166538" x2="77.6069" y2="-0.166538" transform="matrix(0.906114 -0.423033 0.939849 0.34159 -33.9614 170.121)" stroke="#23C865" stroke-width="0.333077" stroke-dasharray="3.33 1.67 6.66 1.67"/>
<line y1="-0.166538" x2="91.2631" y2="-0.166538" transform="matrix(0.906114 -0.423033 0.939849 0.34159 -29.2664 171.829)" stroke="#23C865" stroke-width="0.333077" stroke-dasharray="3.33 1.67 6.66 1.67"/>
<line y1="-0.166538" x2="91.2631" y2="-0.166538" transform="matrix(0.906114 -0.423033 0.939849 0.34159 -24.571 173.534)" stroke="#23C865" stroke-width="0.333077" stroke-dasharray="3.33 1.67 6.66 1.67"/>
<line y1="-0.166538" x2="36.9715" y2="-0.166538" transform="matrix(0.906114 -0.423033 0.939849 0.34159 -19.8757 175.241)" stroke="#23C865" stroke-width="0.333077" stroke-dasharray="3.33 1.67 6.66 1.67"/>
<line y1="-0.166538" x2="80.2715" y2="-0.166538" transform="matrix(0.906114 -0.423033 0.939849 0.34159 -5.78589 180.362)" stroke="#23C865" stroke-width="0.333077" stroke-dasharray="3.33 1.67 6.66 1.67"/>
<line y1="-0.166538" x2="89.5977" y2="-0.166538" transform="matrix(0.906114 -0.423033 0.939849 0.34159 -1.09058 182.067)" stroke="#23C865" stroke-width="0.333077" stroke-dasharray="3.33 1.67 6.66 1.67"/>
<line y1="-0.166538" x2="48.6292" y2="-0.166538" transform="matrix(0.906114 -0.423033 0.939849 0.34159 8.29956 185.481)" stroke="#23C865" stroke-width="0.333077" stroke-dasharray="3.33 1.67 6.66 1.67"/>
<line y1="-0.166538" x2="80.2715" y2="-0.166538" transform="matrix(0.906114 -0.423033 0.939849 0.34159 3.60376 183.774)" stroke="#23C865" stroke-width="0.333077" stroke-dasharray="3.33 1.67 6.66 1.67"/>
<line y1="-0.166538" x2="99.9231" y2="-0.166538" transform="matrix(0.906114 -0.423033 0.939849 0.34159 12.9875 187.061)" stroke="#23C865" stroke-width="0.333077" stroke-dasharray="3.33 1.67 6.66 1.67"/>
<rect x="0.0112362" y="0.254678" width="99.2569" height="99.2569" transform="matrix(0.939849 0.34159 -0.906114 0.423033 12.0471 111.724)" stroke="#23C865" stroke-width="0.666154"/>
<rect x="0.0110634" y="0.250648" width="99.2569" height="99.2569" transform="matrix(0.942071 0.335413 -0.908855 0.417111 12.0441 72.087)" fill="#F7F7F7"/>
<line y1="-0.166538" x2="99.9231" y2="-0.166538" transform="matrix(0.942071 0.335413 -0.908855 0.417111 9.69458 72.9172)" stroke="#23C865" stroke-width="0.333077"/>
<line y1="-0.166538" x2="99.9231" y2="-0.166538" transform="matrix(0.942071 0.335413 -0.908855 0.417111 5.15576 75.001)" stroke="#23C865" stroke-width="0.333077"/>
<line y1="-0.166538" x2="99.9231" y2="-0.166538" transform="matrix(0.942071 0.335413 -0.908855 0.417111 0.616455 77.0852)" stroke="#23C865" stroke-width="0.333077"/>
<line y1="-0.166538" x2="99.9231" y2="-0.166538" transform="matrix(0.942071 0.335413 -0.908855 0.417111 -3.92578 79.1689)" stroke="#23C865" stroke-width="0.333077"/>
<line y1="-0.166538" x2="99.9231" y2="-0.166538" transform="matrix(0.942071 0.335413 -0.908855 0.417111 -8.46558 81.2532)" stroke="#23C865" stroke-width="0.333077"/>
<line y1="-0.166538" x2="99.9231" y2="-0.166538" transform="matrix(0.942071 0.335413 -0.908855 0.417111 -13.0076 83.3368)" stroke="#23C865" stroke-width="0.333077"/>
<line y1="-0.166538" x2="99.9231" y2="-0.166538" transform="matrix(0.942071 0.335413 -0.908855 0.417111 -17.5483 85.4208)" stroke="#23C865" stroke-width="0.333077"/>
<line y1="-0.166538" x2="99.9231" y2="-0.166538" transform="matrix(0.942071 0.335413 -0.908855 0.417111 -22.0906 87.5051)" stroke="#23C865" stroke-width="0.333077"/>
<line y1="-0.166538" x2="99.9231" y2="-0.166538" transform="matrix(0.942071 0.335413 -0.908855 0.417111 -26.6299 89.5887)" stroke="#23C865" stroke-width="0.333077"/>
<line y1="-0.166538" x2="99.9231" y2="-0.166538" transform="matrix(0.942071 0.335413 -0.908855 0.417111 -31.1687 91.6731)" stroke="#23C865" stroke-width="0.333077"/>
<line y1="-0.166538" x2="99.9231" y2="-0.166538" transform="matrix(0.942071 0.335413 -0.908855 0.417111 -35.7114 93.7566)" stroke="#23C865" stroke-width="0.333077"/>
<line y1="-0.166538" x2="99.9231" y2="-0.166538" transform="matrix(0.942071 0.335413 -0.908855 0.417111 -40.2507 95.8411)" stroke="#23C865" stroke-width="0.333077"/>
<line y1="-0.166538" x2="99.9231" y2="-0.166538" transform="matrix(0.942071 0.335413 -0.908855 0.417111 -44.7937 97.925)" stroke="#23C865" stroke-width="0.333077"/>
<line y1="-0.166538" x2="99.9231" y2="-0.166538" transform="matrix(0.942071 0.335413 -0.908855 0.417111 -49.3328 100.009)" stroke="#23C865" stroke-width="0.333077"/>
<line y1="-0.166538" x2="99.9231" y2="-0.166538" transform="matrix(0.942071 0.335413 -0.908855 0.417111 -53.8757 102.093)" stroke="#23C865" stroke-width="0.333077"/>
<line y1="-0.166538" x2="99.9231" y2="-0.166538" transform="matrix(0.942071 0.335413 -0.908855 0.417111 -58.4148 104.177)" stroke="#23C865" stroke-width="0.333077"/>
<line y1="-0.166538" x2="99.9231" y2="-0.166538" transform="matrix(0.942071 0.335413 -0.908855 0.417111 -62.9578 106.261)" stroke="#23C865" stroke-width="0.333077"/>
<line y1="-0.166538" x2="99.9231" y2="-0.166538" transform="matrix(0.942071 0.335413 -0.908855 0.417111 -72.0359 110.429)" stroke="#23C865" stroke-width="0.333077"/>
<line y1="-0.166538" x2="99.9231" y2="-0.166538" transform="matrix(0.942071 0.335413 -0.908855 0.417111 -67.4968 108.344)" stroke="#23C865" stroke-width="0.333077"/>
<line y1="-0.166538" x2="99.9231" y2="-0.166538" transform="matrix(0.942071 0.335413 -0.908855 0.417111 -76.5789 112.513)" stroke="#23C865" stroke-width="0.333077"/>
<rect x="0.0110634" y="0.250648" width="99.2569" height="99.2569" transform="matrix(0.942071 0.335413 -0.908855 0.417111 12.0441 72.087)" stroke="#23C865" stroke-width="0.666154"/>
<g clip-path="url(#clip2_1549_211)">
<rect x="0.0155804" y="0.254449" width="99.2569" height="99.2569" transform="matrix(0.945541 0.325503 -0.898764 0.438433 237.537 28.1166)" fill="#F7F7F7"/>
<line y1="-0.166538" x2="99.9231" y2="-0.166538" transform="matrix(0.945541 0.325503 -0.898764 0.438433 207.874 45.7438)" stroke="#23C865" stroke-width="0.333077" stroke-dasharray="6.66 13.32 16.65 9.99"/>
<line y1="-0.166538" x2="103.92" y2="-0.166538" transform="matrix(0.945541 0.325503 -0.898764 0.438433 188.897 42.9475)" stroke="#23C865" stroke-width="0.333077" stroke-dasharray="6.66 13.32 16.65 9.99"/>
<line y1="-0.166538" x2="99.9231" y2="-0.166538" transform="matrix(0.945541 0.325503 -0.898764 0.438433 198.893 50.1248)" stroke="#23C865" stroke-width="0.333077" stroke-dasharray="6.66 13.32 16.65 9.99"/>
<line y1="-0.166538" x2="107.251" y2="-0.166538" transform="matrix(0.945541 0.325503 -0.898764 0.438433 179.917 47.3284)" stroke="#23C865" stroke-width="0.333077" stroke-dasharray="6.66 13.32 16.65 9.99"/>
<line y1="-0.166538" x2="99.9231" y2="-0.166538" transform="matrix(0.945541 0.325503 -0.898764 0.438433 192.432 55.373)" stroke="#23C865" stroke-width="0.333077" stroke-dasharray="6.66 13.32 16.65 9.99"/>
<line y1="-0.166538" x2="99.9231" y2="-0.166538" transform="matrix(0.945541 0.325503 -0.898764 0.438433 198.019 61.0334)" stroke="#23C865" stroke-width="0.333077" stroke-dasharray="6.66 13.32 16.65 9.99"/>
<line y1="-0.166538" x2="99.9231" y2="-0.166538" transform="matrix(0.945541 0.325503 -0.898764 0.438433 166.444 53.8987)" stroke="#23C865" stroke-width="0.333077" stroke-dasharray="6.66 13.32 16.65 9.99"/>
<line y1="-0.166538" x2="99.9231" y2="-0.166538" transform="matrix(0.945541 0.325503 -0.898764 0.438433 176.44 61.0764)" stroke="#23C865" stroke-width="0.333077" stroke-dasharray="6.66 13.32 16.65 9.99"/>
<line y1="-0.166538" x2="99.9231" y2="-0.166538" transform="matrix(0.945541 0.325503 -0.898764 0.438433 159.983 59.1487)" stroke="#23C865" stroke-width="0.333077" stroke-dasharray="6.66 13.32 16.65 9.99"/>
<line y1="-0.166538" x2="90.5969" y2="-0.166538" transform="matrix(0.945541 0.325503 -0.898764 0.438433 165.569 64.8069)" stroke="#23C865" stroke-width="0.333077" stroke-dasharray="6.66 13.32 16.65 9.99"/>
<line y1="-0.166538" x2="99.9231" y2="-0.166538" transform="matrix(0.945541 0.325503 -0.898764 0.438433 158.479 69.8381)" stroke="#23C865" stroke-width="0.333077" stroke-dasharray="6.66 13.32 16.65 9.99"/>
<line y1="-0.166538" x2="99.9231" y2="-0.166538" transform="matrix(0.945541 0.325503 -0.898764 0.438433 145.649 61.6855)" stroke="#23C865" stroke-width="0.333077" stroke-dasharray="6.66 13.32 16.65 9.99"/>
<line y1="-0.166538" x2="99.9231" y2="-0.166538" transform="matrix(0.945541 0.325503 -0.898764 0.438433 143.28 68.344)" stroke="#23C865" stroke-width="0.333077" stroke-dasharray="6.66 13.32 16.65 9.99"/>
</g>
<rect x="0.0155804" y="0.254449" width="99.2569" height="99.2569" transform="matrix(0.945541 0.325503 -0.898764 0.438433 237.537 28.1166)" stroke="#23C865" stroke-width="0.666154"/>
<g clip-path="url(#clip3_1549_211)">
<rect x="0.0171491" y="0.254349" width="99.2569" height="99.2569" transform="matrix(0.94753 0.319667 -0.896043 0.443967 237.204 -12.5209)" fill="#F7F7F7"/>
<line x1="182.374" y1="2.58732" x2="332.842" y2="-7.55772" stroke="#23C865" stroke-width="0.333077"/>
<line x1="182.794" y1="8.81986" x2="333.262" y2="-1.32518" stroke="#23C865" stroke-width="0.333077"/>
<line x1="183.005" y1="11.9368" x2="333.472" y2="1.79176" stroke="#23C865" stroke-width="0.333077"/>
<line x1="167.484" y1="19.2434" x2="333.892" y2="8.02365" stroke="#23C865" stroke-width="0.333077"/>
<line x1="159.098" y1="22.9388" x2="334.103" y2="11.1393" stroke="#23C865" stroke-width="0.333077"/>
<line x1="150.305" y1="29.7923" x2="334.521" y2="17.3718" stroke="#23C865" stroke-width="0.333077"/>
<line x1="148.059" y1="33.0755" x2="334.731" y2="20.4894" stroke="#23C865" stroke-width="0.333077"/>
<line x1="157.692" y1="38.6863" x2="335.153" y2="26.7213" stroke="#23C865" stroke-width="0.333077"/>
<line x1="168.341" y1="41.0988" x2="335.363" y2="29.8376" stroke="#23C865" stroke-width="0.333077"/>
<line x1="185.317" y1="46.2161" x2="335.785" y2="36.0711" stroke="#23C865" stroke-width="0.333077"/>
<line x1="185.524" y1="49.3313" x2="335.992" y2="39.1863" stroke="#23C865" stroke-width="0.333077"/>
<line x1="185.946" y1="55.5641" x2="336.413" y2="45.4191" stroke="#23C865" stroke-width="0.333077"/>
<line x1="186.157" y1="58.6809" x2="336.625" y2="48.5359" stroke="#23C865" stroke-width="0.333077"/>
</g>
<rect x="0.0171491" y="0.254349" width="99.2569" height="99.2569" transform="matrix(0.94753 0.319667 -0.896043 0.443967 237.204 -12.5209)" stroke="#23C865" stroke-width="0.666154"/>
<rect x="0.0112362" y="0.254678" width="99.2569" height="99.2569" transform="matrix(0.939849 0.34159 -0.906114 0.423033 238.206 -53.4823)" fill="#F7F7F7"/>
<line y1="-0.166538" x2="59.6208" y2="-0.166538" transform="matrix(0.906114 -0.423033 0.939849 0.34159 182.807 1.50208)" stroke="#23C865" stroke-width="0.333077" stroke-dasharray="3.33 1.67 6.66 1.67"/>
<line y1="-0.166538" x2="59.6208" y2="-0.166538" transform="matrix(0.906114 -0.423033 0.939849 0.34159 187.502 3.20874)" stroke="#23C865" stroke-width="0.333077" stroke-dasharray="3.33 1.67 6.66 1.67"/>
<line y1="-0.166538" x2="77.6069" y2="-0.166538" transform="matrix(0.906114 -0.423033 0.939849 0.34159 192.198 4.91528)" stroke="#23C865" stroke-width="0.333077" stroke-dasharray="3.33 1.67 6.66 1.67"/>
<line y1="-0.166538" x2="91.2631" y2="-0.166538" transform="matrix(0.906114 -0.423033 0.939849 0.34159 196.893 6.62268)" stroke="#23C865" stroke-width="0.333077" stroke-dasharray="3.33 1.67 6.66 1.67"/>
<line y1="-0.166538" x2="91.2631" y2="-0.166538" transform="matrix(0.906114 -0.423033 0.939849 0.34159 201.588 8.32776)" stroke="#23C865" stroke-width="0.333077" stroke-dasharray="3.33 1.67 6.66 1.67"/>
<line y1="-0.166538" x2="36.9715" y2="-0.166538" transform="matrix(0.906114 -0.423033 0.939849 0.34159 206.283 10.0348)" stroke="#23C865" stroke-width="0.333077" stroke-dasharray="3.33 1.67 6.66 1.67"/>
<line y1="-0.166538" x2="80.2715" y2="-0.166538" transform="matrix(0.906114 -0.423033 0.939849 0.34159 220.373 15.1559)" stroke="#23C865" stroke-width="0.333077" stroke-dasharray="3.33 1.67 6.66 1.67"/>
<line y1="-0.166538" x2="89.5977" y2="-0.166538" transform="matrix(0.906114 -0.423033 0.939849 0.34159 225.069 16.861)" stroke="#23C865" stroke-width="0.333077" stroke-dasharray="3.33 1.67 6.66 1.67"/>
<line y1="-0.166538" x2="48.6292" y2="-0.166538" transform="matrix(0.906114 -0.423033 0.939849 0.34159 234.459 20.275)" stroke="#23C865" stroke-width="0.333077" stroke-dasharray="3.33 1.67 6.66 1.67"/>
<line y1="-0.166538" x2="80.2715" y2="-0.166538" transform="matrix(0.906114 -0.423033 0.939849 0.34159 229.763 18.5684)" stroke="#23C865" stroke-width="0.333077" stroke-dasharray="3.33 1.67 6.66 1.67"/>
<line y1="-0.166538" x2="99.9231" y2="-0.166538" transform="matrix(0.906114 -0.423033 0.939849 0.34159 239.147 21.8551)" stroke="#23C865" stroke-width="0.333077" stroke-dasharray="3.33 1.67 6.66 1.67"/>
<rect x="0.0112362" y="0.254678" width="99.2569" height="99.2569" transform="matrix(0.939849 0.34159 -0.906114 0.423033 238.206 -53.4823)" stroke="#23C865" stroke-width="0.666154"/>
</g>
<defs>
<clipPath id="clip0_1549_211">
<rect width="254" height="169" fill="white"/>
</clipPath>
<clipPath id="clip1_1549_211">
</clipPath>
<clipPath id="clip2_1549_211">
</clipPath>
<clipPath id="clip3_1549_211">
</clipPath>
</defs>
</svg>
