<svg width="254" height="170" viewBox="0 0 254 170" fill="none" xmlns="http://www.w3.org/2000/svg">
<g clip-path="url(#clip0_1549_121)">
<path d="M-0.201726 65.2349H0.00593793L1.04426 65.8871M-0.201726 65.2349C-1.06699 64.141 -3.7237 61.9532 -7.42843 61.9532C-11.1331 61.9532 -13.7899 64.141 -14.6551 65.2349M-0.201726 65.2349H-14.6551M-14.6551 65.2349H-14.8213L-15.9219 65.8871M-15.9219 65.8871H1.04426M-15.9219 65.8871V67.9486H1.04426V65.8871" stroke="#23C865" stroke-width="0.333077"/>
<path d="M16.7631 65.2349H16.9708L18.0091 65.8871M16.7631 65.2349C15.8979 64.141 13.2411 61.9532 9.53642 61.9532C5.8317 61.9532 3.17498 64.141 2.30972 65.2349M16.7631 65.2349H2.30972M2.30972 65.2349H2.14359L1.04297 65.8871M1.04297 65.8871H18.0091M1.04297 65.8871V67.9486H18.0091V65.8871" stroke="#23C865" stroke-width="0.333077"/>
<path d="M33.728 65.2349H33.9356L34.9739 65.8871M33.728 65.2349C32.8627 64.141 30.206 61.9532 26.5013 61.9532C22.7965 61.9532 20.1398 64.141 19.2746 65.2349M33.728 65.2349H19.2746M19.2746 65.2349H19.1084L18.0078 65.8871M18.0078 65.8871H34.9739M18.0078 65.8871V67.9486H34.9739V65.8871" stroke="#23C865" stroke-width="0.333077"/>
<path d="M50.6967 65.2349H50.9044L51.9427 65.8871M50.6967 65.2349C49.8314 64.141 47.1747 61.9532 43.47 61.9532C39.7653 61.9532 37.1086 64.141 36.2433 65.2349M50.6967 65.2349H36.2433M36.2433 65.2349H36.0772L34.9766 65.8871M34.9766 65.8871H51.9427M34.9766 65.8871V67.9486H51.9427V65.8871" stroke="#23C865" stroke-width="0.333077"/>
<path d="M67.6616 65.2349H67.8692L68.9075 65.8871M67.6616 65.2349C66.7963 64.141 64.1396 61.9532 60.4349 61.9532C56.7301 61.9532 54.0734 64.141 53.2082 65.2349M67.6616 65.2349H53.2082M53.2082 65.2349H53.042L51.9414 65.8871M51.9414 65.8871H68.9075M51.9414 65.8871V67.9486H68.9075V65.8871" stroke="#23C865" stroke-width="0.333077"/>
<path d="M84.6264 65.2349H84.8341L85.8724 65.8871M84.6264 65.2349C83.7611 64.141 81.1044 61.9532 77.3997 61.9532C73.695 61.9532 71.0383 64.141 70.173 65.2349M84.6264 65.2349H70.173M70.173 65.2349H70.0069L68.9062 65.8871M68.9062 65.8871H85.8724M68.9062 65.8871V67.9486H85.8724V65.8871" stroke="#23C865" stroke-width="0.333077"/>
<path d="M-15.9219 67.9703V82.2716H1.04426V67.9493" stroke="#23C865" stroke-width="0.666154"/>
<path d="M1.04297 67.9695V82.2709H18.0091V67.9486" stroke="#23C865" stroke-width="0.666154"/>
<path d="M18.0078 67.9703V82.2716H34.9739V67.9493" stroke="#23C865" stroke-width="0.666154"/>
<path d="M34.9766 67.9703V82.2716H51.9427V67.9493" stroke="#23C865" stroke-width="0.666154"/>
<path d="M51.9414 67.9695V82.2709H68.9075V67.9486" stroke="#23C865" stroke-width="0.666154"/>
<path d="M68.9062 67.9703V82.2716H85.8724V67.9493" stroke="#23C865" stroke-width="0.666154"/>
<path d="M-49.8555 -45.7982V67.9476H85.8736V-45.9647" stroke="#23C865" stroke-width="0.666154"/>
<path d="M-35.0508 -45.7968V-32.8068M-35.0508 -32.8068H14.5169M-35.0508 -32.8068L-32.7221 -31.4744M14.5169 -32.8068V-35.8044H21.503V-32.8068M14.5169 -32.8068V-31.641M14.5169 -32.8068V-26.1452M21.503 -32.8068H70.5717M21.503 -32.8068V-31.641M70.5717 -32.8068V-45.7968M70.5717 -32.8068L68.742 -31.641M68.742 -31.641H21.503M68.742 -31.641L70.5717 -28.1437M21.503 -31.641V-28.1437M21.503 -28.1437H70.5717M21.503 -28.1437V-26.1452M21.503 -28.1437H14.5169M70.5717 -28.1437V-26.1452H37.1384M21.503 -26.1452H14.5169M21.503 -26.1452H37.1384M14.5169 -28.1437V-26.1452M14.5169 -28.1437H-35.0508M14.5169 -28.1437V-31.641M14.5169 -26.1452H-1.11852M-35.0508 -28.1437V-26.1452H-1.11852M-35.0508 -28.1437L-32.7221 -31.4744M14.5169 -31.641L-32.7221 -31.4744M-1.11852 -26.1452V-23.6471M-1.11852 -23.6471H-2.4492V6.16325M-1.11852 -23.6471H37.1384M-1.11852 -23.6471V6.16325M-2.4492 6.16325H-1.11852M-2.4492 6.16325L-1.11852 7.16248H37.1384L38.3028 6.16325M38.3028 6.16325V-23.6471H37.1384M38.3028 6.16325H37.1384M37.1384 -23.6471V-26.1452M37.1384 -23.6471V6.16325M37.1384 6.16325H-1.11852M14.5169 -24.6464V-6.99329M21.503 -24.6464V-6.99329" stroke="#23C865" stroke-width="0.333077"/>
<path d="M-2.72266 13.656L-2.72266 24.9806L38.5789 24.9806L38.5789 13.7924" stroke="#23C865" stroke-width="0.333077" stroke-dasharray="6.66 6.66"/>
<path d="M-50.0195 85.6002L-50.0195 102.254L85.8759 102.254L85.8759 85.8008" stroke="#23C865" stroke-width="0.333077" stroke-dasharray="6.66 6.66"/>
<rect width="11.3246" height="8.99308" transform="translate(12.2646 20.3177)" fill="#F7F7F7"/>
<path d="M18.4201 21.5555C18.7176 21.5555 18.9818 21.6044 19.2128 21.7021C19.4437 21.7953 19.6236 21.9352 19.7524 22.1218C19.8856 22.3083 19.9522 22.5437 19.9522 22.8279C19.9522 23.1476 19.8656 23.4008 19.6924 23.5873C19.5192 23.7738 19.2683 23.8937 18.9397 23.947V23.9737C19.3438 24.0181 19.648 24.1491 19.8523 24.3667C20.061 24.5843 20.1654 24.8952 20.1654 25.2993C20.1654 25.7567 20.021 26.1076 19.7324 26.3518C19.4482 26.5961 19.0507 26.7182 18.54 26.7182C18.2824 26.7182 18.0648 26.6982 17.8871 26.6583C17.7139 26.6183 17.5563 26.5628 17.4142 26.4917V28.2504H16.8279V23.0877C16.8279 22.728 16.8968 22.4371 17.0345 22.215C17.1721 21.9885 17.3609 21.822 17.6007 21.7154C17.8405 21.6088 18.1136 21.5555 18.4201 21.5555ZM18.4067 22.0418C18.2291 22.0418 18.0648 22.0729 17.9138 22.1351C17.7628 22.1973 17.6407 22.3061 17.5474 22.4615C17.4586 22.6169 17.4142 22.8345 17.4142 23.1143V25.9655C17.5696 26.0454 17.7295 26.112 17.8938 26.1653C18.0626 26.2142 18.2602 26.2386 18.4867 26.2386C18.8686 26.2386 19.1462 26.1542 19.3194 25.9855C19.4926 25.8123 19.5792 25.5702 19.5792 25.2593C19.5792 24.9085 19.4726 24.6531 19.2594 24.4933C19.0462 24.329 18.7665 24.2468 18.4201 24.2468H18.067V23.7538H18.3534C18.6998 23.7538 18.953 23.6717 19.1129 23.5074C19.2727 23.343 19.3527 23.1254 19.3527 22.8545C19.3527 22.5792 19.2661 22.3749 19.0929 22.2417C18.9241 22.1084 18.6954 22.0418 18.4067 22.0418Z" fill="#23C865"/>
<rect width="11.3246" height="8.99308" transform="translate(12.2646 97.5916)" fill="#F7F7F7"/>
<path d="M18.0535 99.5288C18.3599 99.5288 18.6219 99.5665 18.8396 99.642C19.0572 99.7175 19.2526 99.7997 19.4258 99.8885L19.1726 100.348C19.0083 100.255 18.8329 100.175 18.6464 100.108C18.4599 100.042 18.2533 100.008 18.0269 100.008C17.827 100.008 17.6805 100.055 17.5872 100.148C17.4939 100.237 17.4473 100.344 17.4473 100.468C17.4473 100.575 17.4762 100.67 17.5339 100.755C17.5916 100.839 17.6849 100.928 17.8137 101.021C17.9469 101.11 18.1223 101.214 18.3399 101.334C18.7441 101.552 19.0527 101.791 19.2659 102.054C19.4835 102.311 19.5923 102.633 19.5923 103.019C19.5923 103.552 19.4391 103.959 19.1327 104.238C18.8307 104.518 18.4288 104.658 17.9269 104.658C17.6116 104.658 17.3296 104.6 17.0809 104.485C16.8322 104.37 16.6368 104.201 16.4947 103.979C16.357 103.752 16.2882 103.481 16.2882 103.166C16.2882 102.882 16.3481 102.633 16.4681 102.42C16.5924 102.207 16.7589 102.029 16.9677 101.887C17.1808 101.74 17.4184 101.629 17.6805 101.554C17.4318 101.412 17.2319 101.256 17.0809 101.088C16.9299 100.914 16.8544 100.706 16.8544 100.461C16.8544 100.155 16.9677 99.924 17.1942 99.7686C17.4251 99.6087 17.7115 99.5288 18.0535 99.5288ZM18.1468 101.807C18.0091 101.838 17.867 101.887 17.7204 101.954C17.5783 102.016 17.4451 102.1 17.3207 102.207C17.1964 102.309 17.0942 102.44 17.0143 102.6C16.9388 102.755 16.9011 102.946 16.9011 103.173C16.9011 103.466 16.9899 103.706 17.1675 103.892C17.3496 104.079 17.6027 104.172 17.9269 104.172C18.2689 104.172 18.5309 104.074 18.713 103.879C18.8951 103.679 18.9861 103.395 18.9861 103.026C18.9861 102.724 18.9106 102.48 18.7596 102.293C18.6131 102.107 18.4088 101.945 18.1468 101.807Z" fill="#23C865"/>
<path d="M289.371 82.1039H291.035L299.351 87.2666M289.371 82.1039C282.441 73.4439 261.161 56.1239 231.487 56.1239C201.813 56.1239 180.533 73.4439 173.602 82.1039M289.371 82.1039H173.602M173.602 82.1039H172.272L163.456 87.2666M163.456 87.2666H299.351M163.456 87.2666V103.587H299.351V87.2666" stroke="#23C865" stroke-width="0.666154"/>
<path d="M163.624 103.753V217.499H299.353V103.587" stroke="#23C865" stroke-width="0.666154"/>
<path d="M178.425 103.755V116.745M178.425 116.745H227.993M178.425 116.745L180.753 118.077M227.993 116.745V113.747H234.979V116.745M227.993 116.745V117.911M227.993 116.745V123.406M234.979 116.745H284.047M234.979 116.745V117.911M284.047 116.745V103.755M284.047 116.745L282.218 117.911M282.218 117.911H234.979M282.218 117.911L284.047 121.408M234.979 117.911V121.408M234.979 121.408H284.047M234.979 121.408V123.406M234.979 121.408H227.993M284.047 121.408V123.406H250.614M234.979 123.406H227.993M234.979 123.406H250.614M227.993 121.408V123.406M227.993 121.408H178.425M227.993 121.408V117.911M227.993 123.406H212.357M178.425 121.408V123.406H212.357M178.425 121.408L180.753 118.077M227.993 117.911L180.753 118.077M212.357 123.406V125.904M212.357 125.904H211.026V155.715M212.357 125.904H250.614M212.357 125.904V155.715M211.026 155.715H212.357M211.026 155.715L212.357 156.714H250.614L251.778 155.715M251.778 155.715V125.904H250.614M251.778 155.715H250.614M250.614 125.904V123.406M250.614 125.904V155.715M250.614 155.715H212.357M227.993 124.905V142.558M234.979 124.905V142.558" stroke="#23C865" stroke-width="0.333077"/>
<path d="M158.46 103.587H144.804V217.499H158.295" stroke="#23C865" stroke-width="0.333077" stroke-dasharray="6.66 6.66"/>
<rect width="7.66077" height="22.3162" transform="translate(140.804 149.552)" fill="#F7F7F7"/>
<path d="M144.3 162.946C143.864 162.946 143.511 162.793 143.241 162.487C142.97 162.176 142.834 161.716 142.834 161.108C142.834 160.504 142.967 160.042 143.234 159.722C143.5 159.402 143.873 159.243 144.353 159.243C144.615 159.243 144.833 159.289 145.006 159.382C145.183 159.471 145.33 159.607 145.445 159.789H145.485C145.508 159.713 145.537 159.631 145.572 159.542C145.608 159.454 145.65 159.376 145.699 159.309H146.158C146.127 159.407 146.098 159.536 146.072 159.696C146.045 159.855 146.025 160.024 146.012 160.202C145.998 160.379 145.992 160.548 145.992 160.708V162.094C145.992 162.231 146.018 162.329 146.072 162.387C146.125 162.44 146.189 162.467 146.265 162.467C146.3 162.467 146.338 162.462 146.378 162.453C146.418 162.445 146.447 162.438 146.465 162.433V162.86C146.434 162.878 146.383 162.895 146.311 162.913C146.24 162.935 146.167 162.946 146.092 162.946C145.927 162.946 145.792 162.906 145.685 162.826C145.583 162.747 145.508 162.604 145.459 162.4H145.412C145.31 162.551 145.175 162.68 145.006 162.786C144.837 162.893 144.602 162.946 144.3 162.946ZM144.4 162.46C144.768 162.46 145.028 162.356 145.179 162.147C145.334 161.934 145.412 161.599 145.412 161.141V161.101C145.412 160.657 145.339 160.32 145.192 160.089C145.05 159.853 144.784 159.736 144.393 159.736C144.069 159.736 143.829 159.853 143.674 160.089C143.518 160.324 143.44 160.666 143.44 161.114C143.44 161.559 143.516 161.894 143.667 162.12C143.822 162.347 144.067 162.46 144.4 162.46Z" fill="#23C865"/>
<path d="M210.753 163.207L210.753 174.532L252.054 174.532L252.054 163.344" stroke="#23C865" stroke-width="0.333077" stroke-dasharray="6.66 6.66"/>
</g>
<defs>
<clipPath id="clip0_1549_121">
<rect width="254" height="169.203" fill="white"/>
</clipPath>
</defs>
</svg>
