<svg width="254" height="169" viewBox="0 0 254 169" fill="none" xmlns="http://www.w3.org/2000/svg">
<g clip-path="url(#clip0_1012_1835)">
<rect width="254" height="169" fill="#131313"/>
<g clip-path="url(#clip1_1012_1835)">
<rect x="0.0171491" y="0.254349" width="99.2569" height="99.2569" transform="matrix(0.94753 0.319667 -0.896043 0.443967 11.0453 152.685)" fill="#131313"/>
<line x1="-43.9954" y1="164.677" x2="106.472" y2="154.532" stroke="#23C865" stroke-width="0.333077"/>
<line x1="-43.785" y1="167.793" x2="106.683" y2="157.648" stroke="#23C865" stroke-width="0.333077"/>
<line x1="-43.3648" y1="174.026" x2="107.103" y2="163.881" stroke="#23C865" stroke-width="0.333077"/>
<line x1="-43.1549" y1="177.142" x2="107.313" y2="166.997" stroke="#23C865" stroke-width="0.333077"/>
</g>
<rect x="0.0171491" y="0.254349" width="99.2569" height="99.2569" transform="matrix(0.94753 0.319667 -0.896043 0.443967 11.0453 152.685)" stroke="#23C865" stroke-width="0.666154"/>
<rect x="0.0112362" y="0.254678" width="99.2569" height="99.2569" transform="matrix(0.939849 0.34159 -0.906114 0.423033 12.0471 111.724)" fill="#131313"/>
<line y1="-0.166538" x2="99.9231" y2="-0.166538" transform="matrix(0.906114 -0.423033 0.939849 0.34159 -76.2275 154.634)" stroke="#23C865" stroke-width="0.333077" stroke-dasharray="3.33 1.67 6.66 1.67"/>
<line y1="-0.166538" x2="86.2669" y2="-0.166538" transform="matrix(0.906114 -0.423033 0.939849 0.34159 -71.5262 156.468)" stroke="#23C865" stroke-width="0.333077" stroke-dasharray="3.33 1.67 6.66 1.67"/>
<line y1="-0.166538" x2="73.9431" y2="-0.166538" transform="matrix(0.906114 -0.423033 0.939849 0.34159 -66.8307 158.175)" stroke="#23C865" stroke-width="0.333077" stroke-dasharray="3.33 1.67 6.66 1.67"/>
<line y1="-0.166538" x2="73.9431" y2="-0.166538" transform="matrix(0.906114 -0.423033 0.939849 0.34159 -62.1351 159.882)" stroke="#23C865" stroke-width="0.333077" stroke-dasharray="3.33 1.67 6.66 1.67"/>
<line y1="-0.166538" x2="59.6208" y2="-0.166538" transform="matrix(0.906114 -0.423033 0.939849 0.34159 -43.3525 166.708)" stroke="#23C865" stroke-width="0.333077" stroke-dasharray="3.33 1.67 6.66 1.67"/>
<line y1="-0.166538" x2="59.6208" y2="-0.166538" transform="matrix(0.906114 -0.423033 0.939849 0.34159 -38.6569 168.415)" stroke="#23C865" stroke-width="0.333077" stroke-dasharray="3.33 1.67 6.66 1.67"/>
<line y1="-0.166538" x2="77.6069" y2="-0.166538" transform="matrix(0.906114 -0.423033 0.939849 0.34159 -33.9613 170.121)" stroke="#23C865" stroke-width="0.333077" stroke-dasharray="3.33 1.67 6.66 1.67"/>
<line y1="-0.166538" x2="91.2631" y2="-0.166538" transform="matrix(0.906114 -0.423033 0.939849 0.34159 -29.2657 171.828)" stroke="#23C865" stroke-width="0.333077" stroke-dasharray="3.33 1.67 6.66 1.67"/>
<line y1="-0.166538" x2="91.2631" y2="-0.166538" transform="matrix(0.906114 -0.423033 0.939849 0.34159 -24.5699 173.535)" stroke="#23C865" stroke-width="0.333077" stroke-dasharray="3.33 1.67 6.66 1.67"/>
<line y1="-0.166538" x2="36.9715" y2="-0.166538" transform="matrix(0.906114 -0.423033 0.939849 0.34159 -19.8743 175.241)" stroke="#23C865" stroke-width="0.333077" stroke-dasharray="3.33 1.67 6.66 1.67"/>
<line y1="-0.166538" x2="80.2715" y2="-0.166538" transform="matrix(0.906114 -0.423033 0.939849 0.34159 -5.78748 180.361)" stroke="#23C865" stroke-width="0.333077" stroke-dasharray="3.33 1.67 6.66 1.67"/>
<line y1="-0.166538" x2="89.5977" y2="-0.166538" transform="matrix(0.906114 -0.423033 0.939849 0.34159 -1.09192 182.068)" stroke="#23C865" stroke-width="0.333077" stroke-dasharray="3.33 1.67 6.66 1.67"/>
<line y1="-0.166538" x2="48.6292" y2="-0.166538" transform="matrix(0.906114 -0.423033 0.939849 0.34159 8.29944 185.481)" stroke="#23C865" stroke-width="0.333077" stroke-dasharray="3.33 1.67 6.66 1.67"/>
<line y1="-0.166538" x2="80.2715" y2="-0.166538" transform="matrix(0.906114 -0.423033 0.939849 0.34159 3.60388 183.775)" stroke="#23C865" stroke-width="0.333077" stroke-dasharray="3.33 1.67 6.66 1.67"/>
<line y1="-0.166538" x2="99.9231" y2="-0.166538" transform="matrix(0.906114 -0.423033 0.939849 0.34159 12.9894 187.061)" stroke="#23C865" stroke-width="0.333077" stroke-dasharray="3.33 1.67 6.66 1.67"/>
<rect x="0.0112362" y="0.254678" width="99.2569" height="99.2569" transform="matrix(0.939849 0.34159 -0.906114 0.423033 12.0471 111.724)" stroke="#23C865" stroke-width="0.666154"/>
<rect x="0.0110634" y="0.250648" width="99.2569" height="99.2569" transform="matrix(0.942071 0.335413 -0.908855 0.417111 12.0441 72.087)" fill="#131313"/>
<line y1="-0.166538" x2="99.9231" y2="-0.166538" transform="matrix(0.942071 0.335413 -0.908855 0.417111 9.69653 72.9171)" stroke="#23C865" stroke-width="0.333077"/>
<line y1="-0.166538" x2="99.9231" y2="-0.166538" transform="matrix(0.942071 0.335413 -0.908855 0.417111 5.15576 75.0011)" stroke="#23C865" stroke-width="0.333077"/>
<line y1="-0.166538" x2="99.9231" y2="-0.166538" transform="matrix(0.942071 0.335413 -0.908855 0.417111 0.61499 77.085)" stroke="#23C865" stroke-width="0.333077"/>
<line y1="-0.166538" x2="99.9231" y2="-0.166538" transform="matrix(0.942071 0.335413 -0.908855 0.417111 -3.92578 79.169)" stroke="#23C865" stroke-width="0.333077"/>
<line y1="-0.166538" x2="99.9231" y2="-0.166538" transform="matrix(0.942071 0.335413 -0.908855 0.417111 -8.4668 81.2529)" stroke="#23C865" stroke-width="0.333077"/>
<line y1="-0.166538" x2="99.9231" y2="-0.166538" transform="matrix(0.942071 0.335413 -0.908855 0.417111 -13.0076 83.3369)" stroke="#23C865" stroke-width="0.333077"/>
<line y1="-0.166538" x2="99.9231" y2="-0.166538" transform="matrix(0.942071 0.335413 -0.908855 0.417111 -17.5483 85.4209)" stroke="#23C865" stroke-width="0.333077"/>
<line y1="-0.166538" x2="99.9231" y2="-0.166538" transform="matrix(0.942071 0.335413 -0.908855 0.417111 -22.0891 87.5048)" stroke="#23C865" stroke-width="0.333077"/>
<line y1="-0.166538" x2="99.9231" y2="-0.166538" transform="matrix(0.942071 0.335413 -0.908855 0.417111 -26.6299 89.5887)" stroke="#23C865" stroke-width="0.333077"/>
<line y1="-0.166538" x2="99.9231" y2="-0.166538" transform="matrix(0.942071 0.335413 -0.908855 0.417111 -31.1707 91.6727)" stroke="#23C865" stroke-width="0.333077"/>
<line y1="-0.166538" x2="99.9231" y2="-0.166538" transform="matrix(0.942071 0.335413 -0.908855 0.417111 -35.7114 93.7566)" stroke="#23C865" stroke-width="0.333077"/>
<line y1="-0.166538" x2="99.9231" y2="-0.166538" transform="matrix(0.942071 0.335413 -0.908855 0.417111 -40.2522 95.8406)" stroke="#23C865" stroke-width="0.333077"/>
<line y1="-0.166538" x2="99.9231" y2="-0.166538" transform="matrix(0.942071 0.335413 -0.908855 0.417111 -44.793 97.9245)" stroke="#23C865" stroke-width="0.333077"/>
<line y1="-0.166538" x2="99.9231" y2="-0.166538" transform="matrix(0.942071 0.335413 -0.908855 0.417111 -49.3337 100.008)" stroke="#23C865" stroke-width="0.333077"/>
<line y1="-0.166538" x2="99.9231" y2="-0.166538" transform="matrix(0.942071 0.335413 -0.908855 0.417111 -53.8745 102.092)" stroke="#23C865" stroke-width="0.333077"/>
<line y1="-0.166538" x2="99.9231" y2="-0.166538" transform="matrix(0.942071 0.335413 -0.908855 0.417111 -58.4153 104.176)" stroke="#23C865" stroke-width="0.333077"/>
<line y1="-0.166538" x2="99.9231" y2="-0.166538" transform="matrix(0.942071 0.335413 -0.908855 0.417111 -62.9561 106.26)" stroke="#23C865" stroke-width="0.333077"/>
<line y1="-0.166538" x2="99.9231" y2="-0.166538" transform="matrix(0.942071 0.335413 -0.908855 0.417111 -72.0376 110.428)" stroke="#23C865" stroke-width="0.333077"/>
<line y1="-0.166538" x2="99.9231" y2="-0.166538" transform="matrix(0.942071 0.335413 -0.908855 0.417111 -67.4968 108.344)" stroke="#23C865" stroke-width="0.333077"/>
<line y1="-0.166538" x2="99.9231" y2="-0.166538" transform="matrix(0.942071 0.335413 -0.908855 0.417111 -76.5784 112.512)" stroke="#23C865" stroke-width="0.333077"/>
<rect x="0.0110634" y="0.250648" width="99.2569" height="99.2569" transform="matrix(0.942071 0.335413 -0.908855 0.417111 12.0441 72.087)" stroke="#23C865" stroke-width="0.666154"/>
<g clip-path="url(#clip2_1012_1835)">
<rect x="0.0155804" y="0.254449" width="99.2569" height="99.2569" transform="matrix(0.945541 0.325503 -0.898764 0.438433 237.538 28.1163)" fill="#131313"/>
<line y1="-0.166538" x2="99.9231" y2="-0.166538" transform="matrix(0.945541 0.325503 -0.898764 0.438433 207.875 45.7435)" stroke="#23C865" stroke-width="0.333077" stroke-dasharray="6.66 13.32 16.65 9.99"/>
<line y1="-0.166538" x2="103.92" y2="-0.166538" transform="matrix(0.945541 0.325503 -0.898764 0.438433 188.898 42.9468)" stroke="#23C865" stroke-width="0.333077" stroke-dasharray="6.66 13.32 16.65 9.99"/>
<line y1="-0.166538" x2="99.9231" y2="-0.166538" transform="matrix(0.945541 0.325503 -0.898764 0.438433 198.894 50.1244)" stroke="#23C865" stroke-width="0.333077" stroke-dasharray="6.66 13.32 16.65 9.99"/>
<line y1="-0.166538" x2="107.251" y2="-0.166538" transform="matrix(0.945541 0.325503 -0.898764 0.438433 179.917 47.3277)" stroke="#23C865" stroke-width="0.333077" stroke-dasharray="6.66 13.32 16.65 9.99"/>
<line y1="-0.166538" x2="99.9231" y2="-0.166538" transform="matrix(0.945541 0.325503 -0.898764 0.438433 192.433 55.3727)" stroke="#23C865" stroke-width="0.333077" stroke-dasharray="6.66 13.32 16.65 9.99"/>
<line y1="-0.166538" x2="99.9231" y2="-0.166538" transform="matrix(0.945541 0.325503 -0.898764 0.438433 198.021 61.0326)" stroke="#23C865" stroke-width="0.333077" stroke-dasharray="6.66 13.32 16.65 9.99"/>
<line y1="-0.166538" x2="99.9231" y2="-0.166538" transform="matrix(0.945541 0.325503 -0.898764 0.438433 166.446 53.8991)" stroke="#23C865" stroke-width="0.333077" stroke-dasharray="6.66 13.32 16.65 9.99"/>
<line y1="-0.166538" x2="99.9231" y2="-0.166538" transform="matrix(0.945541 0.325503 -0.898764 0.438433 176.443 61.0768)" stroke="#23C865" stroke-width="0.333077" stroke-dasharray="6.66 13.32 16.65 9.99"/>
<line y1="-0.166538" x2="99.9231" y2="-0.166538" transform="matrix(0.945541 0.325503 -0.898764 0.438433 159.985 59.1475)" stroke="#23C865" stroke-width="0.333077" stroke-dasharray="6.66 13.32 16.65 9.99"/>
<line y1="-0.166538" x2="90.5969" y2="-0.166538" transform="matrix(0.945541 0.325503 -0.898764 0.438433 165.572 64.8073)" stroke="#23C865" stroke-width="0.333077" stroke-dasharray="6.66 13.32 16.65 9.99"/>
<line y1="-0.166538" x2="99.9231" y2="-0.166538" transform="matrix(0.945541 0.325503 -0.898764 0.438433 158.481 69.8387)" stroke="#23C865" stroke-width="0.333077" stroke-dasharray="6.66 13.32 16.65 9.99"/>
<line y1="-0.166538" x2="99.9231" y2="-0.166538" transform="matrix(0.945541 0.325503 -0.898764 0.438433 145.65 61.6853)" stroke="#23C865" stroke-width="0.333077" stroke-dasharray="6.66 13.32 16.65 9.99"/>
<line y1="-0.166538" x2="99.9231" y2="-0.166538" transform="matrix(0.945541 0.325503 -0.898764 0.438433 143.283 68.343)" stroke="#23C865" stroke-width="0.333077" stroke-dasharray="6.66 13.32 16.65 9.99"/>
</g>
<rect x="0.0155804" y="0.254449" width="99.2569" height="99.2569" transform="matrix(0.945541 0.325503 -0.898764 0.438433 237.538 28.1163)" stroke="#23C865" stroke-width="0.666154"/>
<g clip-path="url(#clip3_1012_1835)">
<rect x="0.0171491" y="0.254349" width="99.2569" height="99.2569" transform="matrix(0.94753 0.319667 -0.896043 0.443967 237.205 -12.521)" fill="#131313"/>
<line x1="182.374" y1="2.58725" x2="332.842" y2="-7.55779" stroke="#23C865" stroke-width="0.333077"/>
<line x1="182.794" y1="8.81976" x2="333.262" y2="-1.32529" stroke="#23C865" stroke-width="0.333077"/>
<line x1="183.004" y1="11.9361" x2="333.472" y2="1.79101" stroke="#23C865" stroke-width="0.333077"/>
<line x1="167.484" y1="19.2434" x2="333.892" y2="8.02358" stroke="#23C865" stroke-width="0.333077"/>
<line x1="159.098" y1="22.9394" x2="334.103" y2="11.14" stroke="#23C865" stroke-width="0.333077"/>
<line x1="150.307" y1="29.7928" x2="334.523" y2="17.3724" stroke="#23C865" stroke-width="0.333077"/>
<line x1="148.061" y1="33.0748" x2="334.733" y2="20.4887" stroke="#23C865" stroke-width="0.333077"/>
<line x1="157.692" y1="38.6863" x2="335.153" y2="26.7212" stroke="#23C865" stroke-width="0.333077"/>
<line x1="168.341" y1="41.0987" x2="335.363" y2="29.8375" stroke="#23C865" stroke-width="0.333077"/>
<line x1="185.316" y1="46.2152" x2="335.783" y2="36.0702" stroke="#23C865" stroke-width="0.333077"/>
<line x1="185.526" y1="49.3315" x2="335.993" y2="39.1865" stroke="#23C865" stroke-width="0.333077"/>
<line x1="185.946" y1="55.564" x2="336.413" y2="45.419" stroke="#23C865" stroke-width="0.333077"/>
<line x1="186.156" y1="58.6803" x2="336.623" y2="48.5353" stroke="#23C865" stroke-width="0.333077"/>
</g>
<rect x="0.0171491" y="0.254349" width="99.2569" height="99.2569" transform="matrix(0.94753 0.319667 -0.896043 0.443967 237.205 -12.521)" stroke="#23C865" stroke-width="0.666154"/>
<rect x="0.0112362" y="0.254678" width="99.2569" height="99.2569" transform="matrix(0.939849 0.34159 -0.906114 0.423033 238.206 -53.4823)" fill="#131313"/>
<line y1="-0.166538" x2="59.6208" y2="-0.166538" transform="matrix(0.906114 -0.423033 0.939849 0.34159 182.807 1.50202)" stroke="#23C865" stroke-width="0.333077" stroke-dasharray="3.33 1.67 6.66 1.67"/>
<line y1="-0.166538" x2="59.6208" y2="-0.166538" transform="matrix(0.906114 -0.423033 0.939849 0.34159 187.502 3.20867)" stroke="#23C865" stroke-width="0.333077" stroke-dasharray="3.33 1.67 6.66 1.67"/>
<line y1="-0.166538" x2="77.6069" y2="-0.166538" transform="matrix(0.906114 -0.423033 0.939849 0.34159 192.198 4.91529)" stroke="#23C865" stroke-width="0.333077" stroke-dasharray="3.33 1.67 6.66 1.67"/>
<line y1="-0.166538" x2="91.2631" y2="-0.166538" transform="matrix(0.906114 -0.423033 0.939849 0.34159 196.894 6.62194)" stroke="#23C865" stroke-width="0.333077" stroke-dasharray="3.33 1.67 6.66 1.67"/>
<line y1="-0.166538" x2="91.2631" y2="-0.166538" transform="matrix(0.906114 -0.423033 0.939849 0.34159 201.589 8.32855)" stroke="#23C865" stroke-width="0.333077" stroke-dasharray="3.33 1.67 6.66 1.67"/>
<line y1="-0.166538" x2="36.9715" y2="-0.166538" transform="matrix(0.906114 -0.423033 0.939849 0.34159 206.285 10.0352)" stroke="#23C865" stroke-width="0.333077" stroke-dasharray="3.33 1.67 6.66 1.67"/>
<line y1="-0.166538" x2="80.2715" y2="-0.166538" transform="matrix(0.906114 -0.423033 0.939849 0.34159 220.372 15.1551)" stroke="#23C865" stroke-width="0.333077" stroke-dasharray="3.33 1.67 6.66 1.67"/>
<line y1="-0.166538" x2="89.5977" y2="-0.166538" transform="matrix(0.906114 -0.423033 0.939849 0.34159 225.067 16.8618)" stroke="#23C865" stroke-width="0.333077" stroke-dasharray="3.33 1.67 6.66 1.67"/>
<line y1="-0.166538" x2="48.6292" y2="-0.166538" transform="matrix(0.906114 -0.423033 0.939849 0.34159 234.459 20.275)" stroke="#23C865" stroke-width="0.333077" stroke-dasharray="3.33 1.67 6.66 1.67"/>
<line y1="-0.166538" x2="80.2715" y2="-0.166538" transform="matrix(0.906114 -0.423033 0.939849 0.34159 229.763 18.5684)" stroke="#23C865" stroke-width="0.333077" stroke-dasharray="3.33 1.67 6.66 1.67"/>
<line y1="-0.166538" x2="99.9231" y2="-0.166538" transform="matrix(0.906114 -0.423033 0.939849 0.34159 239.149 21.8544)" stroke="#23C865" stroke-width="0.333077" stroke-dasharray="3.33 1.67 6.66 1.67"/>
<rect x="0.0112362" y="0.254678" width="99.2569" height="99.2569" transform="matrix(0.939849 0.34159 -0.906114 0.423033 238.206 -53.4823)" stroke="#23C865" stroke-width="0.666154"/>
</g>
<defs>
<clipPath id="clip0_1012_1835">
<rect width="254" height="169" fill="white"/>
</clipPath>
<clipPath id="clip1_1012_1835">
</clipPath>
<clipPath id="clip2_1012_1835">
</clipPath>
<clipPath id="clip3_1012_1835">
</clipPath>
</defs>
</svg>
