<svg width="254" height="170" viewBox="0 0 254 170" fill="none" xmlns="http://www.w3.org/2000/svg">
<g clip-path="url(#clip0_1549_112)">
<circle cx="127.389" cy="-40.482" r="109.964" transform="rotate(-10 127.389 -40.482)" fill="url(#paint0_radial_1549_112)"/>
<path d="M40.9733 105.682H43.6476C44.3084 105.682 44.8866 105.803 45.3822 106.044C45.8847 106.285 46.2702 106.629 46.5387 107.076C46.814 107.517 46.9517 108.037 46.9517 108.635C46.9517 109.234 46.814 109.757 46.5387 110.205C46.2702 110.645 45.8847 110.986 45.3822 111.227C44.8866 111.468 44.3084 111.589 43.6476 111.589H40.9733V105.682ZM43.6063 110.535C44.2395 110.535 44.7352 110.37 45.0931 110.04C45.4579 109.702 45.6404 109.234 45.6404 108.635C45.6404 108.037 45.4579 107.572 45.0931 107.242C44.7352 106.911 44.2395 106.746 43.6063 106.746H42.2743V110.535H43.6063ZM52.848 110.546V111.589H48.2636V105.682H52.7345V106.736H49.5646V108.088H52.3834V109.1H49.5646V110.546H52.848ZM56.9192 111.692C56.3066 111.692 55.7525 111.561 55.2568 111.299C54.7681 111.031 54.3826 110.666 54.1004 110.205C53.8182 109.737 53.6771 109.214 53.6771 108.635C53.6771 108.057 53.8182 107.538 54.1004 107.076C54.3826 106.615 54.7681 106.254 55.2568 105.992C55.7525 105.724 56.3066 105.589 56.9192 105.589C57.9931 105.589 58.8053 105.923 59.356 106.591L58.5093 107.396C58.0894 106.928 57.5732 106.694 56.9605 106.694C56.5819 106.694 56.2412 106.777 55.9383 106.942C55.6423 107.107 55.4083 107.338 55.2362 107.634C55.071 107.93 54.9884 108.264 54.9884 108.635C54.9884 109.014 55.071 109.351 55.2362 109.647C55.4083 109.943 55.6423 110.174 55.9383 110.339C56.2412 110.504 56.5819 110.587 56.9605 110.587C57.5801 110.587 58.0963 110.349 58.5093 109.874L59.356 110.69C58.7916 111.358 57.9793 111.692 56.9192 111.692ZM65.1195 110.546V111.589H60.535V105.682H65.0059V106.736H61.836V108.088H64.6549V109.1H61.836V110.546H65.1195ZM71.9056 105.682V111.589H70.8317L67.7651 107.871V111.589H66.4641V105.682H67.5482L70.6149 109.41V105.682H71.9056ZM74.7881 106.746H72.8469V105.682H78.0303V106.746H76.0891V111.589H74.7881V106.746ZM82.8085 111.589L81.6211 109.916H81.5178H80.2685V111.589H78.9675V105.682H81.5178C82.3163 105.682 82.9462 105.872 83.4074 106.25C83.8686 106.622 84.0992 107.142 84.0992 107.809C84.0992 108.25 83.9925 108.632 83.7791 108.956C83.5657 109.272 83.2594 109.513 82.8601 109.678L84.2128 111.589H82.8085ZM82.7879 107.809C82.7879 107.458 82.6708 107.193 82.4368 107.014C82.2096 106.828 81.8723 106.736 81.4249 106.736H80.2685V108.894H81.4249C81.8723 108.894 82.2096 108.801 82.4368 108.615C82.6708 108.429 82.7879 108.16 82.7879 107.809ZM89.4035 110.308H86.4195L85.8619 111.589H84.5919L87.2765 105.682H88.5672L91.2415 111.589H89.9508L89.4035 110.308ZM88.9802 109.317L87.9167 106.859L86.8532 109.317H88.9802ZM92.086 105.682H93.387V110.535H96.4226V111.589H92.086V105.682ZM97.3999 105.682H98.7009V111.589H97.3999V105.682ZM105.194 110.535V111.589H99.9999V110.742L103.366 106.746H100.062V105.682H105.07V106.539L101.693 110.535H105.194ZM110.918 110.546V111.589H106.334V105.682H110.805V106.736H107.635V108.088H110.454V109.1H107.635V110.546H110.918ZM112.263 105.682H114.937C115.598 105.682 116.176 105.803 116.672 106.044C117.174 106.285 117.56 106.629 117.828 107.076C118.104 107.517 118.241 108.037 118.241 108.635C118.241 109.234 118.104 109.757 117.828 110.205C117.56 110.645 117.174 110.986 116.672 111.227C116.176 111.468 115.598 111.589 114.937 111.589H112.263V105.682ZM114.896 110.535C115.529 110.535 116.025 110.37 116.383 110.04C116.747 109.702 116.93 109.234 116.93 108.635C116.93 108.037 116.747 107.572 116.383 107.242C116.025 106.911 115.529 106.746 114.896 106.746H113.564V110.535H114.896ZM126.991 110.546V111.589H122.407V105.682H126.878V106.736H123.708V108.088H126.527V109.1H123.708V110.546H126.991ZM133.777 105.682V111.589H132.703L129.637 107.871V111.589H128.336V105.682H129.42L132.487 109.41V105.682H133.777ZM140.16 110.546V111.589H135.576V105.682H140.046V106.736H136.877V108.088H139.695V109.1H136.877V110.546H140.16ZM145.346 111.589L144.158 109.916H144.055H142.806V111.589H141.505V105.682H144.055C144.853 105.682 145.483 105.872 145.945 106.25C146.406 106.622 146.636 107.142 146.636 107.809C146.636 108.25 146.53 108.632 146.316 108.956C146.103 109.272 145.797 109.513 145.397 109.678L146.75 111.589H145.346ZM145.325 107.809C145.325 107.458 145.208 107.193 144.974 107.014C144.747 106.828 144.409 106.736 143.962 106.736H142.806V108.894H143.962C144.409 108.894 144.747 108.801 144.974 108.615C145.208 108.429 145.325 108.16 145.325 107.809ZM152.013 108.584H153.242V110.938C152.939 111.172 152.577 111.358 152.158 111.496C151.744 111.626 151.321 111.692 150.887 111.692C150.254 111.692 149.686 111.561 149.184 111.299C148.688 111.031 148.299 110.666 148.017 110.205C147.735 109.737 147.594 109.214 147.594 108.635C147.594 108.057 147.735 107.538 148.017 107.076C148.299 106.608 148.688 106.243 149.184 105.982C149.679 105.72 150.237 105.589 150.857 105.589C151.958 105.589 152.784 105.92 153.335 106.581L152.488 107.396C152.068 106.928 151.531 106.694 150.877 106.694C150.499 106.694 150.158 106.777 149.855 106.942C149.559 107.107 149.325 107.338 149.153 107.634C148.988 107.93 148.905 108.264 148.905 108.635C148.905 109.007 148.991 109.344 149.163 109.647C149.335 109.943 149.573 110.174 149.876 110.339C150.178 110.504 150.526 110.587 150.918 110.587C151.318 110.587 151.683 110.504 152.013 110.339V108.584ZM157.622 109.647V111.589H156.311V109.627L153.915 105.682H155.299L157.003 108.46L158.706 105.682H160.028L157.622 109.647ZM166.289 105.682C167.087 105.682 167.717 105.872 168.178 106.25C168.64 106.622 168.87 107.142 168.87 107.809C168.87 108.477 168.636 109 168.168 109.379C167.707 109.757 167.08 109.947 166.289 109.947H165.039V111.589H163.738V105.682H166.289ZM166.196 108.894C166.643 108.894 166.981 108.801 167.208 108.615C167.442 108.429 167.559 108.16 167.559 107.809C167.559 107.458 167.442 107.193 167.208 107.014C166.981 106.828 166.643 106.736 166.196 106.736H165.039V108.894H166.196ZM170.232 105.682H171.533V110.535H174.569V111.589H170.232V105.682ZM179.458 110.308H176.474L175.917 111.589H174.647L177.331 105.682H178.622L181.296 111.589H180.005L179.458 110.308ZM179.035 109.317L177.971 106.859L176.908 109.317H179.035ZM182.862 106.746H180.921V105.682H186.104V106.746H184.163V111.589H182.862V106.746ZM188.342 106.736V108.367H191.161V109.41H188.342V111.589H187.041V105.682H191.512V106.736H188.342ZM195.395 111.692C194.782 111.692 194.228 111.561 193.732 111.299C193.237 111.031 192.848 110.666 192.565 110.205C192.283 109.737 192.142 109.214 192.142 108.635C192.142 108.057 192.283 107.538 192.565 107.076C192.848 106.608 193.237 106.243 193.732 105.982C194.228 105.72 194.782 105.589 195.395 105.589C196.014 105.589 196.572 105.72 197.067 105.982C197.563 106.243 197.952 106.608 198.234 107.076C198.516 107.538 198.657 108.057 198.657 108.635C198.657 109.214 198.516 109.737 198.234 110.205C197.952 110.666 197.563 111.031 197.067 111.299C196.572 111.561 196.014 111.692 195.395 111.692ZM195.395 110.587C195.766 110.587 196.1 110.504 196.396 110.339C196.692 110.167 196.923 109.933 197.088 109.637C197.253 109.341 197.336 109.007 197.336 108.635C197.336 108.264 197.253 107.93 197.088 107.634C196.923 107.338 196.692 107.107 196.396 106.942C196.1 106.777 195.766 106.694 195.395 106.694C195.03 106.694 194.699 106.78 194.403 106.952C194.107 107.118 193.873 107.348 193.701 107.644C193.536 107.933 193.453 108.264 193.453 108.635C193.453 109.007 193.536 109.341 193.701 109.637C193.873 109.933 194.107 110.167 194.403 110.339C194.699 110.504 195.03 110.587 195.395 110.587ZM203.799 111.589L202.612 109.916H202.508H201.259V111.589H199.958V105.682H202.508C203.307 105.682 203.937 105.872 204.398 106.25C204.859 106.622 205.09 107.142 205.09 107.809C205.09 108.25 204.983 108.632 204.77 108.956C204.556 109.272 204.25 109.513 203.851 109.678L205.203 111.589H203.799ZM203.778 107.809C203.778 107.458 203.661 107.193 203.427 107.014C203.2 106.828 202.863 106.736 202.415 106.736H201.259V108.894H202.415C202.863 108.894 203.2 108.801 203.427 108.615C203.661 108.429 203.778 108.16 203.778 107.809ZM211.984 111.589L211.974 107.954L210.167 110.928H209.578L207.771 108.047V111.589H206.532V105.682H207.648L209.888 109.379L212.098 105.682H213.213L213.223 111.589H211.984Z" fill="#F7F7F7"/>
</g>
<defs>
<radialGradient id="paint0_radial_1549_112" cx="0" cy="0" r="1" gradientUnits="userSpaceOnUse" gradientTransform="translate(127.389 -40.482) rotate(90) scale(109.964)">
<stop stop-color="white"/>
<stop offset="0.463442" stop-color="white"/>
<stop offset="0.463542" stop-color="#23C865"/>
<stop offset="0.510417" stop-color="#24C866"/>
<stop offset="1" stop-color="#23C865" stop-opacity="0"/>
</radialGradient>
<clipPath id="clip0_1549_112">
<rect width="254" height="169.203" fill="white"/>
</clipPath>
</defs>
</svg>
