<svg width="254" height="169" viewBox="0 0 254 169" fill="none" xmlns="http://www.w3.org/2000/svg">
<g clip-path="url(#clip0_1012_1722)">
<rect width="254" height="169" fill="#131313"/>
<path d="M367 -17.32V147.425M367 147.425L457.837 202.765M367 147.425L156.795 180.203" stroke="white" stroke-opacity="0.32" stroke-width="0.333077"/>
<path d="M185.908 175.946C194.758 45.8534 310.323 3.68102 366.998 -1.14354C432.68 56.0701 437.843 148.418 432.215 187.44C362.806 219.793 239.09 193.258 185.908 175.946Z" stroke="#23C865" stroke-width="0.666154"/>
<path d="M408.573 172.411C365.251 196.931 278.723 178.938 240.875 166.877C247.862 80.0349 328.411 46.4049 367.813 40.4451C405.545 65.7299 410.708 138.958 408.573 172.411Z" stroke="#23C865" stroke-width="0.666154"/>
<path d="M-115.336 194.771L-115.336 30.0267M-115.336 30.0267L-206.173 -25.3138M-115.336 30.0267L94.8693 -2.7519" stroke="white" stroke-opacity="0.32" stroke-width="0.333077"/>
<path d="M65.7569 1.50507C56.9061 131.598 -58.6582 173.77 -115.334 178.595C-181.016 121.381 -186.179 29.0334 -180.55 -9.98875C-111.142 -42.3417 12.5747 -15.8066 65.7569 1.50507Z" stroke="#23C865" stroke-width="0.666154"/>
<path d="M-156.909 5.04027C-113.587 -19.4798 -27.0591 -1.48707 10.7895 10.5743C3.80202 97.4164 -76.7475 131.046 -116.149 137.006C-153.881 111.721 -159.044 38.4936 -156.909 5.04027Z" stroke="#23C865" stroke-width="0.666154"/>
</g>
<defs>
<clipPath id="clip0_1012_1722">
<rect width="254" height="169" fill="white"/>
</clipPath>
</defs>
</svg>
