<svg width="254" height="169" viewBox="0 0 254 169" fill="none" xmlns="http://www.w3.org/2000/svg">
<g clip-path="url(#clip0_1549_98)">
<path d="M367.002 -17.3203V147.424M367.002 147.424L457.839 202.765M367.002 147.424L156.797 180.203" stroke="white" stroke-opacity="0.32" stroke-width="0.333077"/>
<path d="M185.909 175.946C194.76 45.8531 310.325 3.68076 367 -1.1438C432.682 56.0698 437.845 148.418 432.216 187.44C362.808 219.793 239.092 193.258 185.909 175.946Z" stroke="#23C865" stroke-width="0.666154"/>
<path d="M408.576 172.41C365.254 196.93 278.727 178.937 240.878 166.876C247.866 80.0339 328.415 46.4038 367.816 40.4441C405.549 65.7289 410.712 138.957 408.576 172.41Z" stroke="#23C865" stroke-width="0.666154"/>
<path d="M-115.334 194.771L-115.334 30.0269M-115.334 30.0269L-206.171 -25.3137M-115.334 30.0269L94.8711 -2.75174" stroke="white" stroke-opacity="0.32" stroke-width="0.333077"/>
<path d="M65.7586 1.50529C56.9078 131.598 -58.6565 173.771 -115.332 178.595C-181.014 121.381 -186.177 29.0337 -180.548 -9.98853C-111.14 -42.3415 12.5765 -15.8064 65.7586 1.50529Z" stroke="#23C865" stroke-width="0.666154"/>
<path d="M-156.909 5.04125C-113.586 -19.4789 -27.0588 -1.48609 10.7898 10.5753C3.80237 97.4174 -76.7472 131.047 -116.149 137.007C-153.881 111.722 -159.044 38.4946 -156.909 5.04125Z" stroke="#23C865" stroke-width="0.666154"/>
</g>
<defs>
<clipPath id="clip0_1549_98">
<rect width="254" height="169" fill="white"/>
</clipPath>
</defs>
</svg>
