<svg id="Layer_1" data-name="Layer 1" xmlns="http://www.w3.org/2000/svg" xmlns:xlink="http://www.w3.org/1999/xlink" viewBox="0 0 1850.6 911.7"><defs><style>.cls-1{fill:none;stroke:#231f20;stroke-miterlimit:10;}.cls-2{fill:url(#linear-gradient);}.cls-3{fill:url(#linear-gradient-2);}</style><linearGradient id="linear-gradient" x1="1741.92" y1="52.26" x2="2376.44" y2="52.26" gradientTransform="matrix(-1, 0, 0, 1, 2376.54, 401.89)" gradientUnits="userSpaceOnUse"><stop offset="0.07" stop-color="#fff" stop-opacity="0"/><stop offset="0.18" stop-color="#fff" stop-opacity="0.22"/><stop offset="0.32" stop-color="#fff" stop-opacity="0.45"/><stop offset="0.45" stop-color="#fff" stop-opacity="0.65"/><stop offset="0.57" stop-color="#fff" stop-opacity="0.8"/><stop offset="0.68" stop-color="#fff" stop-opacity="0.91"/><stop offset="0.78" stop-color="#fff" stop-opacity="0.98"/><stop offset="0.85" stop-color="#fff"/></linearGradient><linearGradient id="linear-gradient-2" x1="1340.3" y1="52.26" x2="1850.6" y2="52.26" gradientTransform="translate(0 401.89)" gradientUnits="userSpaceOnUse"><stop offset="0.01" stop-color="#fff" stop-opacity="0"/><stop offset="0.23" stop-color="#fff" stop-opacity="0.31"/><stop offset="0.46" stop-color="#fff" stop-opacity="0.6"/><stop offset="0.65" stop-color="#fff" stop-opacity="0.82"/><stop offset="0.8" stop-color="#fff" stop-opacity="0.95"/><stop offset="0.87" stop-color="#fff"/></linearGradient></defs><title>contact</title><path class="cls-1" d="M1848.9,60.4s-184.3,235.1-310,147.1c-53.7-37.6-109.2,12.7-115.8,44.7s-184.6,85.9-335.1,90.1c-74.2,2.1-141.2,26.3-159.5,32.8-30.9,11-258.2,103.9-365.3,201.5-109.4,99.8-239.6,53.2-244,51.5,0,0-71.3-15.1-161.9,23.3S-19,736.4-53.2,764"/><path class="cls-1" d="M-51.3,759.6c33-26.7,122.5-71.9,212.1-110.4,88.3-37.7,159.3-23.7,161.6-23.7,7.4.2,136.6,45.9,243.7-52.3,68.3-62.7,181.3-118.7,263.2-156.3,49.5-22.8,89.4-38.4,102.5-42.9,19.1-6.6,85.7-30.6,159.3-33.2,89.7-3.3,189.4-24.1,257-47.5,44.2-15.2,74.1-31.2,77.5-43.8,8.4-31.4,63.5-79.7,116.9-43.7C1666.7,290.3,1849,59.4,1849,59.4"/><path class="cls-1" d="M-49.4,755.2C-17.5,729.5,74.9,685.6,163.9,647c86.1-37.3,156.8-23.9,161.5-24.1,10.3-.2,138.8,43.6,243.4-53.2C638.9,504.9,752,451.7,832.3,415c48.3-22.1,88.1-37.4,102.7-42.3,20-6.7,86-30.4,159.1-33.6,89.1-4,188.1-25.3,256.3-49.2,43.7-15.3,73.7-31,77.8-43.3,10.3-30.7,65-77.3,117.9-42.7,123.1,80.6,303.2-145.8,303.2-145.8"/><path class="cls-1" d="M-47.5,750.8c30.7-24.8,126.3-67.3,214.4-106,83.9-36.8,154.3-24.1,161.3-24.4,13.1-.6,140.8,41.2,243.1-54,71.9-66.9,185-117.3,264-153.1,47.1-21.5,86.9-36.5,102.9-41.8,20.8-6.8,86.3-30.2,158.9-34,88.5-4.7,186.6-26.8,255.5-50.8,43.3-15.1,73.2-30.7,78.1-42.8,12.1-30,66.4-74.9,118.9-41.8C1671.5,279.1,1849.3,57,1849.3,57"/><path class="cls-1" d="M-45.7,746.4c29.4-23.8,128.3-65,215.6-103.8,81.7-36.3,151.8-24.2,161.1-24.8,16-1,142.8,38.9,242.7-54.8C647.2,494.1,760.6,446.6,838,411.5c45.9-20.7,85.5-35.6,103-41.1,21.7-7,86.7-30,158.6-34.4,87.9-5.5,185.3-28.1,254.7-52.5,42.9-15.1,72.7-30.5,78.3-42.4,14-29.3,67.8-72.4,119.9-40.8C1673.4,273.6,1849,55.9,1849,55.9"/><path class="cls-1" d="M-39.9,733.2c26-20.9,134.2-57.9,219.1-97.1,75-34.6,144.3-24.5,160.5-25.9,24.8-2.1,148.6,31.6,241.7-57.2,78.9-75.2,192.4-114.2,265.4-146.6,42.2-18.7,81.7-32.7,103.4-39.4,24.2-7.4,87.8-29.4,158-35.6,86.1-7.6,181.6-31,252.5-57.4,41.4-15.5,71.2-29.8,79.2-40.9,19.4-27.3,72-64.9,123-37.9,117,62,286.2-142.6,286.2-142.6"/><path class="cls-1" d="M-38,728.7c24.8-20,136.2-55.5,220.3-94.8,72.9-34,141.8-24.6,160.3-26.3,27.7-2.5,150.5,29.2,241.5-58,80.7-77.3,194.2-113.4,265.7-145a948.79,948.79,0,0,1,103.7-38.8c25.1-7.5,88.1-29.2,157.8-36,85.5-8.4,180.4-32.1,251.8-59.1,41-15.5,70.7-29.5,79.4-40.5,21.2-26.6,73.4-62.4,124-36.9,115.6,58.3,282.8-142,282.8-142"/><path class="cls-1" d="M-34.2,719.9c22.4-18.1,140.1-50.8,222.6-90.4,68.4-32.8,136.8-24.7,160-27,33.6-3.3,154.3,24.2,240.9-59.7,84.1-81.6,197.9-111.9,266.5-141.7a925.7,925.7,0,0,1,104-37.6c26.8-7.8,88.8-28.9,157.3-36.7,84.3-9.8,177.9-34.3,250.3-62.4,40.1-15.5,69.7-29,80-39.5,24.8-25.2,76.2-57.4,126.1-34.9,113.2,50.9,276.1-140.7,276.1-140.7"/><path class="cls-1" d="M-32.2,715.5c21.2-17.1,142.1-48.4,223.9-88.1C257.9,595.2,326,602.6,351.6,600c36.4-3.7,156.2,21.8,240.5-60.5C678,455.8,791.8,428.4,858.9,399.4a911.84,911.84,0,0,1,104.1-37c27.6-8,89.1-28.7,157.1-37.1,83.7-10.6,176.6-35.4,249.5-64,39.7-15.5,69.2-28.7,80.3-39,26.4-24.5,77.5-54.9,127.1-34,111.9,47.2,272.7-140.1,272.7-140.1"/><path class="cls-1" d="M-30.3,711.1c20-16.2,144.1-46,225-85.9,64.1-31.6,131.8-24.9,159.6-27.8,39.3-4.1,158.1,19.2,240.2-61.3C682,450.2,796,425.7,861.6,397.6c36-15.4,75.2-28.1,104.2-36.4,28.4-8.1,89.4-28.5,157-37.5,83.1-11.3,175.4-36.5,248.8-65.7,39.2-15.6,68.7-28.5,80.5-38.5,28.2-23.9,79-52.4,128.1-33C1690.8,230,1849.6,47,1849.6,47"/><path class="cls-1" d="M-28.4,706.7c18.9-15.2,146-43.6,226.2-83.7,61.9-31,129.3-24.9,159.4-28.1,42.2-4.5,160,16.7,239.9-62.1,89.3-88,203.4-109.7,267.5-136.9,34.8-14.7,73.9-27.2,104.4-35.8,29.3-8.3,89.8-28.3,156.8-37.9,82.5-12,174.1-37.7,248.1-67.4,38.8-15.6,68.2-28.2,80.9-38.1,30-23.2,80.3-49.8,129.2-32,109.1,39.9,265.8-138.8,265.8-138.8"/><path class="cls-1" d="M-26.6,702.3c17.7-14.3,148-41.1,227.3-81.5,59.8-30.4,126.8-25,159.3-28.5,45.1-4.9,161.8,14.2,239.6-62.9,91-90.2,205.3-108.9,268-135.2,33.4-14.1,72.5-26.3,104.5-35.2,30.1-8.5,90.1-28.1,156.5-38.3,81.9-12.8,172.9-38.7,247.3-69,38.3-15.6,67.7-28,81.1-37.6,31.8-22.6,81.7-47.3,130.2-31C1695.2,219.3,1849.8,45,1849.8,45"/><path class="cls-1" d="M-24.7,697.8c16.6-13.3,150-38.7,228.5-79.2,57.5-29.7,124.3-25.1,159.1-28.9,48.1-5.3,163.6,11.7,239.3-63.7,92.5-92.3,207.1-108.2,268.2-133.6,32.2-13.4,71.3-25.4,104.8-34.6,31-8.6,90.4-27.9,156.3-38.7,81.3-13.5,171.5-39.8,246.6-70.6,37.9-15.6,67.1-27.8,81.4-37.1,33.4-21.9,83.1-44.8,131.2-30.1,106.4,32.5,259.2-137.6,259.2-137.6"/><path class="cls-1" d="M-22.8,693.5c15.3-12.4,152-36.3,229.7-77,55.4-29.1,121.8-25.1,158.9-29.2,51-5.7,165.4,9.2,239-64.5,94.3-94.5,209-107.4,268.6-132,31-12.7,70-24.4,104.9-34.1,31.9-8.8,90.9-27.8,156.1-39.1,80.7-14.2,170.3-40.9,245.9-72.3,37.4-15.5,66.7-27.5,81.7-36.6,35.2-21.3,84.3-42.3,132.2-29.1,105.1,28.9,255.7-136.9,255.7-136.9"/><path class="cls-1" d="M-20.9,689c14.1-11.4,154.1-33.8,230.9-74.8,53.2-28.4,119.3-25.2,158.6-29.6,53.9-6,167.2,6.6,238.6-65.3,96-96.7,210.7-106.7,269-130.4,29.8-12.1,68.8-23.5,105.1-33.5,32.7-8.9,91.2-27.6,155.9-39.5,80.1-14.9,169.2-42,245.1-73.9,37-15.6,66.1-27.3,81.9-36.2,37-20.6,85.8-39.7,133.3-28.1C1701.3,203,1849.9,41.4,1849.9,41.4"/><path class="cls-1" d="M-18.9,684.6c13-10.5,156.1-31.4,232.1-72.5,51.1-27.7,116.8-25.3,158.5-30,56.9-6.4,169,4.1,238.3-66.2,97.5-98.9,212.6-106,269.4-128.7,28.4-11.4,67.4-22.6,105.2-32.9,33.6-9.1,91.5-27.4,155.6-39.9,79.5-15.7,167.9-43,244.4-75.6,36.5-15.6,65.5-27.1,82.2-35.7,38.7-20,87-37.2,134.3-27.1,102.3,21.7,249-135.7,249-135.7"/><path class="cls-1" d="M-13.2,671.4c9.4-7.6,162.2-23.8,235.5-65.9,44.8-25.6,109.3-25.5,158-31.1,65.5-7.6,174.4-3.6,237.4-68.6C720,400.3,835.8,402.1,888.2,382c24.8-9.5,63.5-19.9,105.7-31.1,36.1-9.6,92.5-26.8,155-41,77.7-17.8,164.2-46.2,242.1-80.6,35.2-15.5,64-26.4,83-34.2,43.9-18.1,91.1-29.4,137.4-24.2,98.1,11.1,238.9-133.8,238.9-133.8"/><path class="cls-1" d="M-11.3,667c8.2-6.7,164.2-21.3,236.7-63.6,42.7-24.9,106.9-25.5,157.8-31.5,68.5-8,176.2-6.2,237.1-69.4,104-107.8,219.9-103.1,270.8-122.3,23.4-8.8,62.1-19,105.9-30.5,36.9-9.8,92.9-26.6,154.8-41.4a1437.33,1437.33,0,0,0,241.4-82.2c34.8-15.5,63.4-26.2,83.3-33.8,45.7-17.5,92.4-26.8,138.4-23.2C1711.7,176.7,1850.4,36,1850.4,36"/><path class="cls-1" d="M-9.4,662.6c7-5.7,166.3-18.7,237.9-61.4C269,577,332.8,575.6,386.1,569.4c71.4-8.4,177.9-8.8,236.7-70.2C728.2,389.1,844.4,396.8,894,378.6c22.2-8.2,60.9-18.1,106-29.9,37.8-9.9,93.2-26.5,154.5-41.8A1488.9,1488.9,0,0,0,1395.1,223c34.3-15.5,63-25.8,83.5-33.3,47.2-17.4,93.8-24.2,139.4-22.3,95.4,4.1,232.1-132.5,232.1-132.5"/><path class="cls-1" d="M-7.6,658.2c5.9-4.8,168.4-16.1,239.1-59.2,38.4-23.4,101.9-25.7,157.4-32.2,74.3-8.8,179.6-11.4,236.4-71,107-112.4,223.9-100.9,271.5-119,20.8-7.9,59.5-17.2,106.1-29.3,38.5-10.2,93.7-26.3,154.4-42.2a1536.18,1536.18,0,0,0,239.9-85.5,810.45,810.45,0,0,1,83.9-32.8c49.1-16.3,95.1-21.6,140.4-21.3,94.1.7,228.7-131.9,228.7-131.9"/><path class="cls-1" d="M-5.6,653.7c4.7-3.8,170.5-13.5,240.3-56.9,36.3-22.7,99.3-25.7,157.2-32.5,77.2-9.2,181.4-14,236.1-71.8C736.4,377.8,853.6,392.2,900,375.1c19.6-7.2,58.3-16.3,106.3-28.7,39.4-10.3,94-26.1,154.2-42.6a1599,1599,0,0,0,239.2-87.2,660.71,660.71,0,0,1,84.1-32.3c50.9-15.7,96.4-19,141.5-20.3,92.7-2.7,225.3-131.2,225.3-131.2"/><path class="cls-1" d="M-3.7,649.3c3.6-2.9,172.8-10.9,241.4-54.7,34.2-21.9,96.9-25.7,157-33,80.2-9.4,183.1-16.6,235.7-72.6,110-117.1,227.2-100.3,272.4-115.8,18.4-6.3,57-15.4,106.4-28.1,40.2-10.5,94.3-25.9,154-43,74.7-21.5,158.1-51.3,238.4-88.8a574.67,574.67,0,0,1,84.4-31.9c52.7-15,97.8-16.3,142.5-19.3,91.3-6.1,222-130.6,222-130.6"/><path class="cls-1" d="M-1.8,644.9c2.3-1.9,175-8.2,242.6-52.5,32.2-21.1,94.3-25.8,156.9-33.3,83.1-9.9,184.9-19.2,235.5-73.4C744.6,366.3,862.1,386,905.9,371.5c17.2-5.7,55.7-14.5,106.6-27.5,41.1-10.6,94.7-25.7,153.8-43.4,74.1-22.2,156.9-52.3,237.6-90.5,32.7-15.4,60.9-25.1,84.7-31.4,54.3-14.5,99.2-13.7,143.5-18.4,90-9.5,218.5-130,218.5-130"/><path class="cls-1" d="M2,100.23S373.54,230.48,804.15,261.6c487.66,35.23,170.55,336.27,497.36,313.8,247.11-17,394.2-155,547.39-91.68"/><path class="cls-1" d="M2,108.12c1,.4,382.09,121.86,807.53,155.67,477.2,37.92,156.13,338,483.23,316.12,249.67-16.5,401.54-159.17,556.19-94.74"/><path class="cls-1" d="M2,116c1.89.8,392.63,113.45,812.9,150C1281.63,306.54,956.61,605.6,1284,584.42c252.25-16,408.89-163.34,565-97.81"/><path class="cls-1" d="M2,123.9c2.84,1.19,403.14,105,818.28,144.27,456.25,43.15,127.29,341.3,455,320.76,254.81-15.53,416.24-167.52,573.8-100.87"/><path class="cls-1" d="M2,131.78c3.79,1.6,413.64,96.57,823.65,138.59,445.76,45.67,112.87,343,440.85,323.07,257.38-15.05,423.58-171.69,582.61-103.94"/><path class="cls-1" d="M2,139.67c4.73,2,424.11,88.09,829,132.89C1266.28,320.72,929.47,617.2,1257.74,598c260-14.57,430.93-175.87,591.42-107"/><path class="cls-1" d="M2,147.56c5.68,2.4,434.57,79.58,834.41,127.19,424.73,50.58,84,346.32,412.58,327.7,262.52-14.07,438.27-180,600.22-110.06"/><path class="cls-1" d="M2,155.45c6.63,2.79,445,71,839.78,121.5,414.21,52.94,69.6,348,398.45,330,265.09-13.59,445.63-184.21,609-113.13"/><path class="cls-1" d="M2,163.33c7.57,3.2,455.43,62.48,845.16,115.81,403.68,55.24,55.18,349.66,384.32,332.33,267.66-13.1,453-188.38,617.83-116.19"/><path class="cls-1" d="M2,171.22c8.52,3.6,465.84,53.87,850.54,110.11,393.13,57.48,40.75,351.34,370.19,334.65C1493,603.36,1683,423.42,1849.36,496.72"/><path class="cls-1" d="M2,179.11c9.47,4,476.22,45.22,855.91,104.41,382.59,59.65,26.3,352.33,356.06,337,272.77-12.71,467.66-196.73,635.44-122.32"/><path class="cls-1" d="M2,187c10.41,4.39,486.6,36.53,861.29,98.72,372,61.74,11.88,354,341.93,339.28,275.34-12.25,475-200.9,644.25-125.39"/><path class="cls-1" d="M2,194.89c11.36,4.79,497,27.8,866.66,93,361.48,63.77-2.54,355.61,327.81,341.59,277.9-11.79,482.35-205.07,653.05-128.44"/><path class="cls-1" d="M2,202.77c12.3,5.19,507.29,19,872,87.33,350.91,65.72-17,357.27,313.67,343.91,280.48-11.33,489.7-209.24,661.86-131.51"/><path class="cls-1" d="M2,210.66c13.25,5.59,517.62,10.19,877.42,81.64C1219.76,359.88,848,651.22,1179,638.52c283-10.86,497-213.42,670.66-134.58"/><path class="cls-1" d="M2,218.55c14.2,6,527.94,1.29,882.79,75.94C1214.57,363.86,839,655.08,1170.2,643c285.62-10.39,504.4-217.59,679.47-137.64"/><path class="cls-1" d="M2,226.44c15.14,6.38,538.25-7.67,888.17,70.24,319.21,71.08-60.23,362.26,271.28,350.86,288.19-9.91,511.74-221.77,688.27-140.71"/><path class="cls-1" d="M2,234.32c16.09,6.79,548.56-16.69,893.55,64.56,308.65,72.68-74.65,363.93,257.15,353.17,290.75-9.43,519.08-225.94,697.07-143.77"/><path class="cls-1" d="M2,242.21c17,7.19,558.86-25.79,898.92,58.86,298.1,74.2-89.06,365.61,243,355.49,293.33-8.95,526.43-230.12,705.89-146.84"/><path class="cls-1" d="M2,250.1c18,7.59,569.16-35,904.3,53.16,287.55,75.63-103.49,367.3,228.89,357.8,295.9-8.45,533.78-234.28,714.69-149.89"/><path class="cls-1" d="M2,258c18.93,8,579.48-44.26,909.67,47.46,277,76.95-117.9,369,214.76,360.12,298.47-8,541.13-238.45,723.5-153"/><path class="cls-1" d="M2,265.87c19.88,8.39,589.8-53.63,915.05,41.78,266.51,78.17-132.32,370.68,200.63,362.43,301-7.46,548.47-242.63,732.3-156"/><path class="cls-1" d="M2,273.76c20.82,8.79,600.15-63.11,920.43,36.08,256,79.29-146.75,372.39,186.5,364.75,303.61-7,555.81-246.8,741.1-159.09"/><path class="cls-1" d="M2,281.65c21.77,9.18,610.52-72.72,925.8,30.38,245.55,80.31-161.16,374.09,172.37,367.07,306.18-6.45,563.17-251,749.91-162.16"/><path class="cls-1" d="M2,289.54c22.72,9.58,620.94-82.47,931.18,24.69,235.11,81.2-175.57,376.44,158.24,369.38,308.76-5.34,570.51-255.15,758.71-165.22"/><path class="cls-1" d="M2,297.42c23.66,10,631.4-92.35,936.56,19,224.71,82-190,378.11,144.11,371.7,311.33-4.86,577.85-259.33,767.52-168.29"/><path class="cls-1" d="M2,305.31c24.61,10.38,641.93-102.4,941.93,13.3,214.37,82.68-204.41,379.79,130,374,313.9-4.36,585.2-263.49,776.33-171.34"/><path class="cls-1" d="M2,313.2C27.56,324,654.54,200.57,949.31,320.8c204.07,83.25-218.84,381.47,115.85,376.33,316.47-3.88,592.54-267.67,785.13-174.41"/><path class="cls-1" d="M2,321.09C28.5,332.27,665.26,198,954.69,323c193.83,83.69-233.26,383.13,101.71,378.64,319-3.4,599.9-271.84,793.94-177.47"/><path class="cls-1" d="M2,329c27.45,11.59,674.11-133.7,958.06-3.78,183.68,84-247.68,384.81,87.59,381,321.61-2.91,607.24-276,802.74-180.54"/><path class="cls-1" d="M2,336.86c28.4,12,685.11-144.58,963.44-9.48,173.61,84.28-262.11,386.49,73.46,383.28,324.17-2.43,614.58-280.19,811.54-183.61"/><path class="cls-1" d="M2,344.75C31.34,357.13,698.31,189,970.81,329.58c163.64,84.4-276.52,388.15,59.33,385.59,326.75-1.95,621.93-284.36,820.35-186.67"/><path class="cls-1" d="M2,352.64c30.29,12.78,707.75-167.18,974.19-20.87,153.78,84.44-291,389.83,45.2,387.9,329.31-1.45,629.28-288.53,829.16-189.73"/><path class="cls-1" d="M2,360.52C33.23,373.7,721.48,181.59,981.57,334c144.06,84.4-305.37,391.51,31.07,390.22,331.88-1,636.62-292.7,838-192.79"/><path class="cls-1" d="M2,368.41c32.18,13.58,731.56-191,984.94-32.25,134.5,84.27-319.79,393.17,16.94,392.53,334.45-.48,644-296.88,846.77-195.86"/><path class="cls-1" d="M2,376.3c33.13,14,744.07-203.5,990.32-37.95,125.11,84.1-334.21,394.85,2.81,394.85s651.31-301.05,855.57-198.92"/><rect class="cls-2" x="0.1" y="-0.7" width="634.52" height="909.7"/><rect class="cls-3" x="1340.3" y="-0.7" width="510.3" height="909.7"/></svg>