<?xml version="1.0" encoding="utf-8"?>
<!-- Generator: Adobe Illustrator 25.4.1, SVG Export Plug-In . SVG Version: 6.00 Build 0)  -->
<svg version="1.1" id="Layer_1" xmlns="http://www.w3.org/2000/svg" xmlns:xlink="http://www.w3.org/1999/xlink" x="0px" y="0px"
	 viewBox="0 0 165 62" style="enable-background:new 0 0 165 62;" xml:space="preserve">
<style type="text/css">
	.st0{fill:#FFFFFF;}
	.st1{fill:#49B865;}
</style>
<!-- <path class="st0" d="M168.6,16.4c0.5,0.1,0.8,0.3,1.1,0.6c0.3,0.3,0.4,0.7,0.4,1.1c0,0.6-0.2,1.1-0.7,1.4c-0.4,0.3-1.1,0.5-2,0.5
	h-3.2v-7h3c0.8,0,1.4,0.2,1.8,0.5c0.4,0.3,0.6,0.8,0.6,1.3c0,0.4-0.1,0.7-0.3,1C169.1,16.1,168.9,16.3,168.6,16.4z M164.9,13.6v2.5
	h2.2c0.6,0,1-0.1,1.3-0.3c0.3-0.2,0.5-0.5,0.5-1c0-0.4-0.2-0.7-0.5-0.9c-0.3-0.2-0.7-0.3-1.3-0.3H164.9z M167.4,19.4
	c0.6,0,1.1-0.1,1.4-0.3c0.3-0.2,0.5-0.5,0.5-1c0-0.9-0.6-1.3-1.9-1.3h-2.5v2.6H167.4z M176.1,18.1h-3.9l-0.8,1.9h-0.8l3.2-7h0.7
	l3.2,7h-0.8L176.1,18.1z M175.8,17.5l-1.7-3.8l-1.7,3.8H175.8z M179.9,13.6h-2.5V13h5.7v0.6h-2.5V20h-0.7V13.6z M185.7,13.6h-2.5V13
	h5.7v0.6h-2.5V20h-0.7V13.6z M195,19.4V20h-4.9v-7h4.8v0.6h-4.1v2.5h3.6v0.6h-3.6v2.6H195z M201.5,20l-1.6-2.2c-0.2,0-0.4,0-0.6,0
	h-1.9V20h-0.7v-7h2.6c0.9,0,1.6,0.2,2.1,0.6c0.5,0.4,0.8,1,0.8,1.8c0,0.5-0.1,1-0.4,1.4c-0.3,0.4-0.7,0.6-1.2,0.8l1.7,2.4H201.5z
	 M199.4,17.1c0.7,0,1.2-0.2,1.6-0.5s0.6-0.7,0.6-1.3c0-0.6-0.2-1-0.6-1.3c-0.4-0.3-0.9-0.5-1.6-0.5h-1.9v3.5H199.4z M206.3,17.6V20
	h-0.7v-2.4l-2.8-4.6h0.8l2.4,3.9l2.4-3.9h0.7L206.3,17.6z M212.3,17h2.6v0.6h-2.6V17z M165.5,31.6H163V31h5.7v0.6h-2.5V38h-0.7V31.6
	z M174.8,37.4V38h-4.9v-7h4.8v0.6h-4.1v2.5h3.6v0.6h-3.6v2.6H174.8z M179.6,38.1c-0.7,0-1.3-0.2-1.9-0.5c-0.6-0.3-1-0.7-1.3-1.3
	c-0.3-0.5-0.5-1.2-0.5-1.8s0.2-1.3,0.5-1.8c0.3-0.5,0.8-1,1.3-1.3c0.6-0.3,1.2-0.5,1.9-0.5c0.5,0,1,0.1,1.4,0.3
	c0.4,0.2,0.8,0.4,1.1,0.8l-0.5,0.5c-0.5-0.6-1.2-0.8-2.1-0.8c-0.6,0-1.1,0.1-1.5,0.4c-0.5,0.3-0.8,0.6-1.1,1
	c-0.3,0.4-0.4,0.9-0.4,1.5s0.1,1,0.4,1.5c0.3,0.4,0.6,0.8,1.1,1c0.5,0.3,1,0.4,1.5,0.4c0.8,0,1.5-0.3,2.1-0.8l0.5,0.5
	c-0.3,0.3-0.7,0.6-1.1,0.8C180.6,38,180.1,38.1,179.6,38.1z M189.6,31v7h-0.7v-3.2h-4.4V38h-0.7v-7h0.7v3.1h4.4V31H189.6z M197.7,31
	v7h-0.6l-4.5-5.7V38h-0.7v-7h0.6l4.5,5.7V31H197.7z M203.1,38.1c-0.7,0-1.3-0.2-1.9-0.5c-0.6-0.3-1-0.7-1.3-1.3
	c-0.3-0.5-0.5-1.1-0.5-1.8s0.2-1.3,0.5-1.8c0.3-0.5,0.8-1,1.3-1.3c0.6-0.3,1.2-0.5,1.9-0.5c0.7,0,1.3,0.2,1.9,0.5
	c0.6,0.3,1,0.7,1.3,1.3c0.3,0.5,0.5,1.1,0.5,1.8s-0.2,1.3-0.5,1.8c-0.3,0.5-0.8,1-1.3,1.3C204.4,37.9,203.7,38.1,203.1,38.1z
	 M203.1,37.4c0.6,0,1.1-0.1,1.5-0.4c0.4-0.3,0.8-0.6,1.1-1c0.3-0.4,0.4-0.9,0.4-1.5s-0.1-1-0.4-1.5c-0.3-0.4-0.6-0.8-1.1-1
	c-0.4-0.3-0.9-0.4-1.5-0.4c-0.6,0-1.1,0.1-1.5,0.4c-0.4,0.2-0.8,0.6-1.1,1c-0.3,0.4-0.4,0.9-0.4,1.5s0.1,1,0.4,1.5
	c0.3,0.4,0.6,0.8,1.1,1C202,37.3,202.5,37.4,203.1,37.4z M208.4,31h0.7v6.4h3.9V38h-4.7V31z M217.2,38.1c-0.7,0-1.3-0.2-1.9-0.5
	c-0.6-0.3-1-0.7-1.3-1.3c-0.3-0.5-0.5-1.1-0.5-1.8s0.2-1.3,0.5-1.8c0.3-0.5,0.8-1,1.3-1.3c0.6-0.3,1.2-0.5,1.9-0.5
	c0.7,0,1.3,0.2,1.9,0.5c0.6,0.3,1,0.7,1.3,1.3c0.3,0.5,0.5,1.1,0.5,1.8s-0.2,1.3-0.5,1.8c-0.3,0.5-0.8,1-1.3,1.3
	C218.5,37.9,217.9,38.1,217.2,38.1z M217.2,37.4c0.6,0,1.1-0.1,1.5-0.4c0.4-0.3,0.8-0.6,1.1-1c0.3-0.4,0.4-0.9,0.4-1.5
	s-0.1-1-0.4-1.5c-0.3-0.4-0.6-0.8-1.1-1c-0.4-0.3-0.9-0.4-1.5-0.4c-0.6,0-1.1,0.1-1.5,0.4c-0.4,0.2-0.8,0.6-1.1,1
	c-0.3,0.4-0.4,0.9-0.4,1.5s0.1,1,0.4,1.5c0.3,0.4,0.6,0.8,1.1,1C216.1,37.3,216.6,37.4,217.2,37.4z M227.4,34.5h0.7v2.7
	c-0.3,0.3-0.7,0.5-1.2,0.7c-0.4,0.2-0.9,0.2-1.4,0.2c-0.7,0-1.3-0.2-1.9-0.5c-0.6-0.3-1-0.7-1.3-1.3c-0.3-0.5-0.5-1.2-0.5-1.8
	s0.2-1.3,0.5-1.8c0.3-0.5,0.8-1,1.3-1.3c0.6-0.3,1.2-0.5,1.9-0.5c0.5,0,1,0.1,1.5,0.3c0.4,0.2,0.8,0.4,1.1,0.8l-0.5,0.5
	c-0.6-0.5-1.3-0.8-2.1-0.8c-0.6,0-1.1,0.1-1.5,0.4c-0.5,0.2-0.8,0.6-1.1,1c-0.3,0.4-0.4,0.9-0.4,1.5s0.1,1,0.4,1.5
	c0.3,0.4,0.6,0.8,1.1,1s1,0.4,1.5,0.4c0.7,0,1.3-0.2,1.8-0.5V34.5z M232.7,35.6V38h-0.7v-2.4l-2.8-4.6h0.8l2.4,3.9l2.4-3.9h0.7
	L232.7,35.6z M236.2,38c-0.1,0-0.3-0.1-0.4-0.2c-0.1-0.1-0.1-0.2-0.1-0.4s0-0.3,0.1-0.4c0.1-0.1,0.2-0.2,0.4-0.2
	c0.1,0,0.3,0.1,0.4,0.2c0.1,0.1,0.2,0.2,0.2,0.4s-0.1,0.3-0.2,0.4C236.4,38,236.3,38,236.2,38z M168.9,56l-1.6-2.2
	c-0.2,0-0.4,0-0.6,0h-1.9V56h-0.7v-7h2.6c0.9,0,1.6,0.2,2.1,0.6s0.8,1,0.8,1.8c0,0.5-0.1,1-0.4,1.4c-0.3,0.4-0.7,0.6-1.2,0.8
	l1.7,2.4H168.9z M166.7,53.1c0.7,0,1.2-0.2,1.6-0.5c0.4-0.3,0.6-0.7,0.6-1.3c0-0.6-0.2-1-0.6-1.3c-0.4-0.3-0.9-0.5-1.6-0.5h-1.9v3.5
	H166.7z M176.3,55.4V56h-4.9v-7h4.8v0.6h-4.1v2.5h3.6v0.6h-3.6v2.6H176.3z M178.1,49h0.7v7h-0.7V49z M186.9,49v7h-0.6l-4.5-5.7V56
	h-0.7v-7h0.6l4.5,5.7V49H186.9z M194.9,49l-3.1,7h-0.7l-3.1-7h0.8l2.7,6.1l2.7-6.1H194.9z M200.9,55.4V56H196v-7h4.8v0.6h-4.1v2.5
	h3.6v0.6h-3.6v2.6H200.9z M208.5,49v7h-0.6l-4.5-5.7V56h-0.7v-7h0.6l4.5,5.7V49H208.5z M212.1,49.6h-2.5V49h5.7v0.6h-2.5V56h-0.7
	V49.6z M221.5,55.4V56h-4.9v-7h4.8v0.6h-4.1v2.5h3.6v0.6h-3.6v2.6H221.5z M223.2,49h2.9c0.7,0,1.4,0.2,2,0.5c0.6,0.3,1,0.7,1.3,1.2
	c0.3,0.5,0.5,1.1,0.5,1.8s-0.2,1.3-0.5,1.8c-0.3,0.5-0.8,0.9-1.3,1.2c-0.6,0.3-1.2,0.4-2,0.4h-2.9V49z M226,55.4
	c0.6,0,1.2-0.1,1.6-0.4c0.5-0.2,0.8-0.6,1.1-1c0.3-0.4,0.4-0.9,0.4-1.5s-0.1-1.1-0.4-1.5c-0.3-0.4-0.6-0.8-1.1-1
	c-0.5-0.2-1-0.4-1.6-0.4H224v5.7H226z M231.2,56c-0.1,0-0.3-0.1-0.4-0.2c-0.1-0.1-0.2-0.2-0.2-0.4s0.1-0.3,0.2-0.4
	c0.1-0.1,0.2-0.2,0.4-0.2c0.1,0,0.3,0.1,0.4,0.2c0.1,0.1,0.2,0.2,0.2,0.4s-0.1,0.3-0.2,0.4C231.5,56,231.4,56,231.2,56z"/> -->
<path class="st0" d="M111.6,0h-5.8v11.6v5.8V58h46.7V11.6h-40.9V0z M111.6,17.4h35v34.8h-35V17.4z"/>
<path class="st0" d="M94,11.6H53.1V58h46.7V17.4v-5.8V0H94V11.6z M94,52.2h-35V17.4h35V52.2z"/>
<path class="st1" d="M47.1,11.7H0.3v5.9h46.7V11.7z"/>
<path class="st1" d="M47.1,11.7h-5.7V58h5.7V11.7z"/>
<path class="st1" d="M5.8,11.7H0V58h5.8V11.7z"/>
</svg>
