<svg width="165" height="62" viewBox="0 0 165 62" fill="none" xmlns="http://www.w3.org/2000/svg">
<!-- <path d="M168.55 18.39C169.01 18.49 169.363 18.69 169.61 18.99C169.863 19.2833 169.99 19.6633 169.99 20.13C169.99 20.73 169.767 21.1933 169.32 21.52C168.88 21.84 168.227 22 167.36 22H164.14V15H167.16C167.94 15 168.543 15.1567 168.97 15.47C169.403 15.7833 169.62 16.2267 169.62 16.8C169.62 17.1867 169.523 17.5167 169.33 17.79C169.143 18.0567 168.883 18.2567 168.55 18.39ZM164.88 15.61V18.15H167.11C167.677 18.15 168.113 18.0433 168.42 17.83C168.727 17.61 168.88 17.2933 168.88 16.88C168.88 16.4667 168.727 16.1533 168.42 15.94C168.113 15.72 167.677 15.61 167.11 15.61H164.88ZM167.35 21.39C167.977 21.39 168.45 21.2833 168.77 21.07C169.09 20.8567 169.25 20.5233 169.25 20.07C169.25 19.1967 168.617 18.76 167.35 18.76H164.88V21.39H167.35ZM176.069 20.13H172.169L171.329 22H170.559L173.759 15H174.489L177.689 22H176.909L176.069 20.13ZM175.799 19.53L174.119 15.77L172.439 19.53H175.799ZM179.855 15.64H177.395V15H183.055V15.64H180.595V22H179.855V15.64ZM185.695 15.64H183.235V15H188.895V15.64H186.435V22H185.695V15.64ZM195.028 21.36V22H190.078V15H194.878V15.64H190.818V18.13H194.438V18.76H190.818V21.36H195.028ZM201.547 22L199.947 19.75C199.767 19.77 199.58 19.78 199.387 19.78H197.507V22H196.767V15H199.387C200.28 15 200.98 15.2133 201.487 15.64C201.994 16.0667 202.247 16.6533 202.247 17.4C202.247 17.9467 202.107 18.41 201.827 18.79C201.554 19.1633 201.16 19.4333 200.647 19.6L202.357 22H201.547ZM199.367 19.15C200.06 19.15 200.59 18.9967 200.957 18.69C201.324 18.3833 201.507 17.9533 201.507 17.4C201.507 16.8333 201.324 16.4 200.957 16.1C200.59 15.7933 200.06 15.64 199.367 15.64H197.507V19.15H199.367ZM206.296 19.58V22H205.566V19.58L202.766 15H203.556L205.956 18.93L208.356 15H209.096L206.296 19.58ZM212.321 18.98H214.941V19.6H212.321V18.98ZM165.5 33.64H163.04V33H168.7V33.64H166.24V40H165.5V33.64ZM174.832 39.36V40H169.882V33H174.682V33.64H170.622V36.13H174.242V36.76H170.622V39.36H174.832ZM179.573 40.06C178.879 40.06 178.253 39.9067 177.693 39.6C177.139 39.2933 176.703 38.87 176.383 38.33C176.069 37.7833 175.913 37.1733 175.913 36.5C175.913 35.8267 176.069 35.22 176.383 34.68C176.703 34.1333 177.143 33.7067 177.703 33.4C178.263 33.0933 178.889 32.94 179.583 32.94C180.103 32.94 180.583 33.0267 181.023 33.2C181.463 33.3733 181.836 33.6267 182.143 33.96L181.673 34.43C181.126 33.8767 180.436 33.6 179.603 33.6C179.049 33.6 178.546 33.7267 178.093 33.98C177.639 34.2333 177.283 34.58 177.023 35.02C176.769 35.46 176.643 35.9533 176.643 36.5C176.643 37.0467 176.769 37.54 177.023 37.98C177.283 38.42 177.639 38.7667 178.093 39.02C178.546 39.2733 179.049 39.4 179.603 39.4C180.443 39.4 181.133 39.12 181.673 38.56L182.143 39.03C181.836 39.3633 181.459 39.62 181.013 39.8C180.573 39.9733 180.093 40.06 179.573 40.06ZM189.57 33V40H188.84V36.77H184.46V40H183.72V33H184.46V36.12H188.84V33H189.57ZM197.705 33V40H197.095L192.595 34.32V40H191.855V33H192.465L196.975 38.68V33H197.705ZM203.05 40.06C202.356 40.06 201.726 39.9067 201.16 39.6C200.6 39.2867 200.16 38.86 199.84 38.32C199.526 37.78 199.37 37.1733 199.37 36.5C199.37 35.8267 199.526 35.22 199.84 34.68C200.16 34.14 200.6 33.7167 201.16 33.41C201.726 33.0967 202.356 32.94 203.05 32.94C203.743 32.94 204.366 33.0933 204.92 33.4C205.48 33.7067 205.92 34.1333 206.24 34.68C206.56 35.22 206.72 35.8267 206.72 36.5C206.72 37.1733 206.56 37.7833 206.24 38.33C205.92 38.87 205.48 39.2933 204.92 39.6C204.366 39.9067 203.743 40.06 203.05 40.06ZM203.05 39.4C203.603 39.4 204.103 39.2767 204.55 39.03C204.996 38.7767 205.346 38.43 205.6 37.99C205.853 37.5433 205.98 37.0467 205.98 36.5C205.98 35.9533 205.853 35.46 205.6 35.02C205.346 34.5733 204.996 34.2267 204.55 33.98C204.103 33.7267 203.603 33.6 203.05 33.6C202.496 33.6 201.993 33.7267 201.54 33.98C201.093 34.2267 200.74 34.5733 200.48 35.02C200.226 35.46 200.1 35.9533 200.1 36.5C200.1 37.0467 200.226 37.5433 200.48 37.99C200.74 38.43 201.093 38.7767 201.54 39.03C201.993 39.2767 202.496 39.4 203.05 39.4ZM208.378 33H209.118V39.36H213.038V40H208.378V33ZM217.19 40.06C216.497 40.06 215.867 39.9067 215.3 39.6C214.74 39.2867 214.3 38.86 213.98 38.32C213.667 37.78 213.51 37.1733 213.51 36.5C213.51 35.8267 213.667 35.22 213.98 34.68C214.3 34.14 214.74 33.7167 215.3 33.41C215.867 33.0967 216.497 32.94 217.19 32.94C217.884 32.94 218.507 33.0933 219.06 33.4C219.62 33.7067 220.06 34.1333 220.38 34.68C220.7 35.22 220.86 35.8267 220.86 36.5C220.86 37.1733 220.7 37.7833 220.38 38.33C220.06 38.87 219.62 39.2933 219.06 39.6C218.507 39.9067 217.884 40.06 217.19 40.06ZM217.19 39.4C217.744 39.4 218.244 39.2767 218.69 39.03C219.137 38.7767 219.487 38.43 219.74 37.99C219.994 37.5433 220.12 37.0467 220.12 36.5C220.12 35.9533 219.994 35.46 219.74 35.02C219.487 34.5733 219.137 34.2267 218.69 33.98C218.244 33.7267 217.744 33.6 217.19 33.6C216.637 33.6 216.134 33.7267 215.68 33.98C215.234 34.2267 214.88 34.5733 214.62 35.02C214.367 35.46 214.24 35.9533 214.24 36.5C214.24 37.0467 214.367 37.5433 214.62 37.99C214.88 38.43 215.234 38.7767 215.68 39.03C216.134 39.2767 216.637 39.4 217.19 39.4ZM227.449 36.5H228.159V39.17C227.832 39.4567 227.446 39.6767 226.999 39.83C226.552 39.9833 226.082 40.06 225.589 40.06C224.889 40.06 224.259 39.9067 223.699 39.6C223.139 39.2933 222.699 38.87 222.379 38.33C222.059 37.7833 221.899 37.1733 221.899 36.5C221.899 35.8267 222.059 35.22 222.379 34.68C222.699 34.1333 223.139 33.7067 223.699 33.4C224.259 33.0933 224.892 32.94 225.599 32.94C226.132 32.94 226.622 33.0267 227.069 33.2C227.516 33.3667 227.892 33.6167 228.199 33.95L227.739 34.42C227.186 33.8733 226.482 33.6 225.629 33.6C225.062 33.6 224.549 33.7267 224.089 33.98C223.636 34.2267 223.279 34.5733 223.019 35.02C222.759 35.46 222.629 35.9533 222.629 36.5C222.629 37.0467 222.759 37.54 223.019 37.98C223.279 38.42 223.636 38.7667 224.089 39.02C224.542 39.2733 225.052 39.4 225.619 39.4C226.339 39.4 226.949 39.22 227.449 38.86V36.5ZM232.653 37.58V40H231.923V37.58L229.123 33H229.913L232.313 36.93L234.713 33H235.453L232.653 37.58ZM236.16 40.05C236.013 40.05 235.886 39.9967 235.78 39.89C235.68 39.7833 235.63 39.6533 235.63 39.5C235.63 39.3467 235.68 39.22 235.78 39.12C235.886 39.0133 236.013 38.96 236.16 38.96C236.306 38.96 236.433 39.0133 236.54 39.12C236.646 39.22 236.7 39.3467 236.7 39.5C236.7 39.6533 236.646 39.7833 236.54 39.89C236.433 39.9967 236.306 40.05 236.16 40.05ZM168.92 58L167.32 55.75C167.14 55.77 166.953 55.78 166.76 55.78H164.88V58H164.14V51H166.76C167.653 51 168.353 51.2133 168.86 51.64C169.367 52.0667 169.62 52.6533 169.62 53.4C169.62 53.9467 169.48 54.41 169.2 54.79C168.927 55.1633 168.533 55.4333 168.02 55.6L169.73 58H168.92ZM166.74 55.15C167.433 55.15 167.963 54.9967 168.33 54.69C168.697 54.3833 168.88 53.9533 168.88 53.4C168.88 52.8333 168.697 52.4 168.33 52.1C167.963 51.7933 167.433 51.64 166.74 51.64H164.88V55.15H166.74ZM176.317 57.36V58H171.367V51H176.167V51.64H172.107V54.13H175.727V54.76H172.107V57.36H176.317ZM178.056 51H178.796V58H178.056V51ZM186.924 51V58H186.314L181.814 52.32V58H181.074V51H181.684L186.194 56.68V51H186.924ZM194.95 51L191.85 58H191.12L188.02 51H188.82L191.5 57.08L194.2 51H194.95ZM200.916 57.36V58H195.966V51H200.766V51.64H196.706V54.13H200.326V54.76H196.706V57.36H200.916ZM208.506 51V58H207.896L203.396 52.32V58H202.656V51H203.266L207.776 56.68V51H208.506ZM212.15 51.64H209.69V51H215.35V51.64H212.89V58H212.15V51.64ZM221.483 57.36V58H216.533V51H221.333V51.64H217.273V54.13H220.893V54.76H217.273V57.36H221.483ZM223.222 51H226.072C226.812 51 227.465 51.15 228.032 51.45C228.599 51.7433 229.039 52.1567 229.352 52.69C229.665 53.2167 229.822 53.82 229.822 54.5C229.822 55.18 229.665 55.7867 229.352 56.32C229.039 56.8467 228.599 57.26 228.032 57.56C227.465 57.8533 226.812 58 226.072 58H223.222V51ZM226.032 57.36C226.645 57.36 227.182 57.24 227.642 57C228.102 56.7533 228.459 56.4167 228.712 55.99C228.965 55.5567 229.092 55.06 229.092 54.5C229.092 53.94 228.965 53.4467 228.712 53.02C228.459 52.5867 228.102 52.25 227.642 52.01C227.182 51.7633 226.645 51.64 226.032 51.64H223.962V57.36H226.032ZM231.208 58.05C231.062 58.05 230.935 57.9967 230.828 57.89C230.728 57.7833 230.678 57.6533 230.678 57.5C230.678 57.3467 230.728 57.22 230.828 57.12C230.935 57.0133 231.062 56.96 231.208 56.96C231.355 56.96 231.482 57.0133 231.588 57.12C231.695 57.22 231.748 57.3467 231.748 57.5C231.748 57.6533 231.695 57.7833 231.588 57.89C231.482 57.9967 231.355 58.05 231.208 58.05Z" fill="black"/> -->
<path d="M111.551 0H105.725V11.6089V17.3911V58H152.472V11.6089H111.551V0ZM111.551 17.3911H146.6V52.1733H111.551V17.3911Z" fill="#020202"/>
<path d="M93.9827 11.6089H53.0625V58H99.8094V17.3911V11.6089V0H93.9827V11.6089ZM93.9827 52.2178H58.9337V17.4356H93.9827V52.2178Z" fill="#020202"/>
<path d="M47.0585 11.6978H0.311523V17.5689H47.0585V11.6978Z" fill="#23C865"/>
<path d="M47.0581 11.6978H41.3203V57.9999H47.0581V11.6978Z" fill="#23C865"/>
<path d="M5.78221 11.6978H0V57.9999H5.78221V11.6978Z" fill="#23C865"/>
</svg>
