<svg width="164" height="49" viewBox="0 0 164 49" fill="none" xmlns="http://www.w3.org/2000/svg">
<path d="M132.369 40.904C132.929 41.0813 133.367 41.38 133.685 41.8C134.002 42.2107 134.161 42.7193 134.161 43.326C134.161 44.1847 133.825 44.8473 133.153 45.314C132.49 45.7713 131.519 46 130.241 46H125.173V36.2H129.961C131.155 36.2 132.07 36.4287 132.705 36.886C133.349 37.3433 133.671 37.964 133.671 38.748C133.671 39.224 133.554 39.6487 133.321 40.022C133.097 40.3953 132.779 40.6893 132.369 40.904ZM127.427 37.908V40.218H129.681C130.241 40.218 130.665 40.12 130.955 39.924C131.244 39.728 131.389 39.4387 131.389 39.056C131.389 38.6733 131.244 38.3887 130.955 38.202C130.665 38.006 130.241 37.908 129.681 37.908H127.427ZM130.073 44.292C130.67 44.292 131.118 44.194 131.417 43.998C131.725 43.802 131.879 43.4987 131.879 43.088C131.879 42.276 131.277 41.87 130.073 41.87H127.427V44.292H130.073ZM143.466 44.18V46H135.878V36.2H143.284V38.02H138.132V40.148H142.682V41.912H138.132V44.18H143.466ZM147.3 38.048H144.164V36.2H152.704V38.048H149.568V46H147.3V38.048ZM159.887 43.9H155.337L154.469 46H152.145L156.513 36.2H158.753L163.135 46H160.755L159.887 43.9ZM159.173 42.178L157.619 38.426L156.065 42.178H159.173Z" fill="black"/>
<path d="M89.2559 0H84.5938V9.2888V13.9154V46.4084H121.998V9.2888H89.2559V0ZM89.2559 13.9154H117.3V41.7462H89.2559V13.9154Z" fill="#020202"/>
<path d="M75.1992 9.2888H42.457V46.4084H79.8613V13.9154V9.2888V0H75.1992V9.2888ZM75.1992 41.7818H47.1548V13.951H75.1992V41.7818Z" fill="#020202"/>
<path d="M37.6543 9.35986H0.25V14.0577H37.6543V9.35986Z" fill="#23C865"/>
<path d="M37.6535 9.35986H33.0625V46.4083H37.6535V9.35986Z" fill="#23C865"/>
<path d="M4.6266 9.35986H0V46.4083H4.6266V9.35986Z" fill="#23C865"/>
</svg>
