<svg width="360" height="193" viewBox="0 0 360 193" fill="none" xmlns="http://www.w3.org/2000/svg">
<g opacity="0.9" clip-path="url(#clip0_11258_787)">
<path d="M-94.3574 103.761C-55.4279 76.3918 -14.0533 50.5836 7.10217 73.1137C28.2577 95.6438 55.6731 112.762 84.9093 113.543C129.37 114.74 140.174 55.1972 193.028 84.2313C208.981 92.9901 215.518 96.4937 222.715 93.337C229.911 90.1804 231.905 79.0801 228.992 76.756C226.113 74.4666 222.767 75.6286 214.062 78.3517C204.386 81.3869 184.479 84.3527 173.676 82.3408C165.179 80.7625 200.103 126.794 253.685 122.284C307.267 117.775 308.256 89.7641 354.503 90.718C383.323 91.3251 410.339 103.587 428.356 108.392" stroke="black" stroke-width="0.231884" stroke-miterlimit="10"/>
<path d="M-94.1484 103.467C-76.7732 91.4653 -58.687 79.5672 -42.2308 72.6989C-21.9424 64.2349 -4.13359 61.5119 7.76203 73.4794C10.8313 76.5666 13.9873 79.5672 17.2993 82.429C37.1369 99.4956 60.8935 112.486 85.9333 113.458C107.279 114.221 120.822 101.109 135.146 90.494C150.579 79.0815 166.74 70.4615 193.74 84.9439C209.502 93.3905 215.953 96.5992 223.028 93.3558C230.103 90.1124 232.027 79.1336 229.097 76.7748C226.288 74.5027 222.941 75.5607 214.305 78.1276C204.681 80.9894 185 83.7298 174.058 81.8046C166.654 80.5038 187.237 110.977 224.45 120.257C227.779 121.089 231.16 121.714 234.577 122.112C237.074 122.39 239.293 122.477 241.877 122.546C244.478 122.598 247.096 122.529 249.698 122.321C250.565 122.251 251.466 122.182 252.351 122.095C255.42 121.766 258.333 121.349 261.368 120.933C266.622 120.239 271.824 119.095 276.887 117.499C285.696 114.689 292.511 110.96 299.344 107.509C313.077 100.588 323.412 92.8008 343.389 91.0317C346.857 90.7368 350.325 90.6328 353.793 90.7195C370.596 91.1184 386.463 95.7146 401.029 99.9466C411.71 103.051 420.606 106.017 428.409 108.029" stroke="black" stroke-width="0.231884" stroke-miterlimit="10"/>
<path d="M-93.9414 103.154C-76.5835 91.3768 -58.2719 79.4961 -41.6943 73.2001C-21.3712 65.482 -3.64913 62.3774 8.4199 73.8592C11.5239 76.8077 14.6972 79.7215 18.0266 82.4619C38.0722 98.8695 61.8982 112.19 86.9379 113.369C108.145 114.375 121.619 101.662 136.012 91.3768C151.566 80.2592 167.78 71.7085 194.432 85.6532C210.004 93.7703 216.385 96.7188 223.321 93.3887C230.206 90.076 232.13 79.2186 229.165 76.8077C226.425 74.5703 223.096 75.5069 214.495 77.9177C204.94 80.5887 185.45 83.1037 174.404 81.2825C166.462 79.9644 186.039 110.958 223.53 120.463C226.894 121.33 230.31 121.937 233.778 122.301C236.309 122.544 238.252 122.527 240.835 122.527C243.367 122.544 245.899 122.406 248.413 122.111C249.246 122.007 250.095 121.955 250.928 121.833C253.806 121.452 256.563 120.966 259.737 120.584C265.754 119.873 271.077 118.625 275.36 117.15C283.944 114.236 290.533 110.299 297.816 107.004C312.001 100.621 322.232 92.8511 342.468 90.9953C345.971 90.6831 349.491 90.5616 352.994 90.6657C369.953 91.0993 385.681 96.0598 400.733 100.101C411.796 103.049 420.345 105.634 428.356 107.611" stroke="black" stroke-width="0.231884" stroke-miterlimit="10"/>
<path d="M-93.7324 102.86C-76.3745 91.3088 -57.8721 79.428 -41.1732 73.7045C-20.8327 66.7148 -3.18002 63.2286 9.04507 74.2248C12.1837 77.0519 15.357 79.8616 18.7384 82.4806C39.0096 98.1944 62.8875 111.844 87.9273 113.284C109.013 114.498 122.418 102.236 136.828 92.2627C152.504 81.44 168.769 72.9587 195.092 86.3657C210.473 94.1706 216.768 96.8242 223.582 93.4074C230.311 90.0253 232.183 79.2719 229.218 76.8438C226.548 74.6411 223.218 75.4736 214.687 77.711C205.201 80.2085 185.901 82.5153 174.751 80.7635C166.289 79.428 184.844 110.942 222.629 120.69C225.889 121.522 229.496 122.233 232.998 122.528C235.565 122.736 237.229 122.598 239.813 122.563C242.276 122.546 244.738 122.338 247.166 121.973C247.946 121.852 248.761 121.783 249.559 121.661C252.264 121.227 254.847 120.672 258.16 120.326C264.298 119.684 269.726 118.4 273.887 116.891C282.246 113.856 288.61 109.711 296.361 106.589C310.962 100.709 321.14 93.0085 341.62 91.0313C345.157 90.6844 348.712 90.5804 352.267 90.6844C369.382 91.1701 384.954 96.4947 400.508 100.328C411.97 103.138 420.172 105.323 428.357 107.265" stroke="black" stroke-width="0.231884" stroke-miterlimit="10"/>
<path d="M-93.5244 102.565C-76.1839 91.2217 -57.4734 79.3756 -40.653 74.2071C-20.2952 67.9632 -2.71191 64.0781 9.68659 74.606C12.8599 77.2943 16.0506 80.0174 19.4493 82.4976C39.9806 97.535 63.9105 111.497 88.933 113.197C109.898 114.619 123.233 102.79 137.677 93.1469C153.475 82.619 169.792 74.1897 195.785 87.0765C210.976 94.5691 217.184 96.9453 223.86 93.4418C230.432 89.9903 232.27 79.3583 229.287 76.8781C226.686 74.7101 223.374 75.4212 214.895 77.5025C205.479 79.8266 186.37 81.9079 175.116 80.2429C166.116 78.9074 183.664 110.925 221.727 120.898C224.987 121.747 228.698 122.476 232.201 122.719C234.784 122.892 236.189 122.632 238.79 122.563C241.183 122.511 243.559 122.25 245.917 121.782C246.663 121.626 247.426 121.574 248.171 121.435C250.686 120.932 253.113 120.325 256.564 120.013C262.824 119.441 268.373 118.123 272.396 116.579C280.511 113.457 286.615 109.086 294.869 106.12C309.869 100.726 319.996 93.1122 340.735 91.0309C344.307 90.6667 347.914 90.5453 351.504 90.6667C368.775 91.187 384.191 96.8759 400.265 100.518C412.109 103.172 419.964 104.976 428.357 106.901" stroke="black" stroke-width="0.231884" stroke-miterlimit="10"/>
<path d="M-93.3164 102.252C-75.9758 91.1343 -57.092 79.3055 -40.1156 74.7093C-19.7577 69.1939 -2.24377 64.9445 10.3455 74.9695C13.5535 77.5191 16.7615 80.138 20.1949 82.5142C40.9342 96.8578 64.9162 111.132 89.956 113.092C110.799 114.722 124.065 103.345 138.544 94.0134C154.463 83.7803 170.85 75.4204 196.496 87.7695C211.479 94.9326 217.617 97.0486 224.172 93.441C230.588 89.9202 232.391 79.3922 229.391 76.8773C226.842 74.744 223.548 75.3337 215.12 77.2589C205.774 79.4096 186.855 81.2828 175.48 79.6871C165.942 78.3343 182.503 110.872 220.825 121.088C224.103 121.955 227.9 122.718 231.42 122.909C234.039 123.048 235.166 122.683 237.767 122.562C240.091 122.475 242.397 122.146 244.651 121.608C245.345 121.435 246.073 121.383 246.784 121.209C249.108 120.654 251.379 119.995 254.969 119.7C261.35 119.197 267.003 117.844 270.887 116.249C278.76 113.023 284.638 108.444 293.378 105.634C308.777 100.708 318.869 93.1809 339.851 91.0128C343.475 90.6313 347.117 90.5099 350.741 90.6313C368.168 91.2036 383.445 97.2567 400.005 100.691C412.23 103.188 419.756 104.611 428.34 106.501" stroke="black" stroke-width="0.231884" stroke-miterlimit="10"/>
<path d="M-93.1084 101.958C-75.7852 91.0657 -56.7279 79.2369 -39.5954 75.2131C-19.2376 70.4434 -1.79303 65.7952 10.987 75.3518C14.2123 77.78 17.4376 80.2949 20.9231 82.5497C41.8878 96.1995 65.9219 110.803 90.9616 113.023C111.684 114.862 124.88 103.918 139.394 94.9161C155.451 84.9779 171.873 76.6873 197.173 88.4987C211.964 95.3497 218.016 97.1882 224.449 93.4765C230.709 89.8689 232.461 79.4798 229.461 76.9128C226.981 74.7968 223.704 75.2825 215.328 77.0342C206.051 79.0115 187.306 80.6765 175.844 79.1329C165.786 77.78 181.323 110.821 219.941 121.279C223.218 122.146 227.12 122.944 230.657 123.1C233.31 123.204 234.16 122.719 236.778 122.563C239.449 122.407 241.894 121.938 243.437 121.418C244.079 121.21 244.772 121.175 245.431 120.984C247.582 120.377 249.68 119.649 253.408 119.389C259.893 118.955 265.65 117.585 269.431 115.937C277.06 112.607 282.679 107.803 291.921 105.184C307.684 100.709 317.759 93.3031 339.001 91.0136C342.66 90.6147 346.336 90.4933 350.012 90.6147C367.596 91.2218 382.716 97.6564 399.797 100.882C412.404 103.241 419.6 104.265 428.374 106.12" stroke="black" stroke-width="0.231884" stroke-miterlimit="10"/>
<path d="M-92.8994 101.645C-75.5762 90.9786 -56.3629 79.1672 -39.057 75.7157C-18.7165 71.6572 -1.34126 66.6447 11.6468 75.7157C14.9068 78.0051 18.1495 80.4333 21.6523 82.5666C42.8598 95.5401 66.9459 110.456 91.9683 112.936C112.552 114.983 125.696 104.49 140.244 95.8176C156.423 86.1742 172.897 77.9531 197.867 89.2268C212.468 95.7656 218.433 97.3265 224.728 93.5282C230.814 89.8512 232.548 79.5834 229.531 76.9818C227.121 74.9005 223.843 75.2647 215.537 76.8604C206.312 78.6469 187.775 80.1385 176.191 78.6469C165.596 77.294 180.128 110.838 219.023 121.522C222.317 122.406 226.306 123.221 229.86 123.325C232.566 123.395 233.12 122.788 235.739 122.58C238.427 122.372 240.785 121.834 242.172 121.261C242.762 121.019 243.421 120.984 244.045 120.776C246.004 120.117 247.947 119.319 251.814 119.093C258.42 118.729 264.281 117.342 267.94 115.625C275.327 112.19 280.686 107.143 290.448 104.715C306.575 100.674 316.65 93.4414 338.135 91.0132C341.828 90.597 345.557 90.4582 349.268 90.597C367.007 91.2561 381.972 98.055 399.555 101.09C412.561 103.293 419.41 103.935 428.358 105.756" stroke="black" stroke-width="0.231884" stroke-miterlimit="10"/>
<path d="M-92.6748 101.35C-75.3863 90.9086 -55.9995 79.0973 -38.5376 76.2181C-18.2318 72.8707 -0.90857 67.494 12.2876 76.0967C15.5823 78.2474 18.8423 80.5715 22.3798 82.6008C43.8301 94.8631 67.9508 110.109 92.9732 112.849C113.435 115.086 126.51 105.061 141.093 96.6842C157.411 87.3357 173.919 79.236 198.543 89.92C212.935 96.1639 218.831 97.43 225.004 93.5276C230.935 89.7813 232.634 79.6176 229.599 76.9813C227.259 74.9347 223.998 75.1775 215.744 76.617C206.589 78.23 188.242 79.5309 176.555 78.0913C165.422 76.7384 178.93 110.872 218.137 121.712C221.432 122.631 225.524 123.446 229.097 123.516C231.819 123.55 232.114 122.822 234.732 122.579C237.42 122.336 239.865 121.955 240.923 121.07C241.512 120.931 242.085 120.758 242.657 120.55C244.443 119.839 246.212 118.972 250.217 118.781C256.946 118.469 262.893 117.081 266.448 115.312C273.575 111.791 278.708 106.501 288.956 104.246C305.447 100.639 315.522 93.5449 337.25 91.0127C340.995 90.5791 344.758 90.4403 348.504 90.5964C366.399 91.3076 381.208 98.4533 399.294 101.298C412.681 103.362 419.184 103.587 428.34 105.408" stroke="black" stroke-width="0.231884" stroke-miterlimit="10"/>
<path d="M-92.4678 101.055C-75.1792 90.8221 -55.6538 79.0108 -38.0011 76.7213C-17.7126 74.085 -0.458765 68.3441 12.9455 76.4785C16.2575 78.4904 19.5349 80.7278 23.1071 82.6357C44.8001 94.2216 68.9555 109.779 93.9779 112.78C114.318 115.225 127.341 105.634 141.942 97.6037C158.381 88.5501 174.941 80.5197 199.235 90.666C213.437 96.5977 219.246 97.5864 225.298 93.5972C231.072 89.7815 232.737 79.7392 229.685 77.0509C227.396 75.0389 224.154 75.1604 215.951 76.4438C206.865 77.866 188.709 78.9934 176.918 77.6059C165.248 76.253 177.75 110.907 217.235 121.955C220.547 122.874 224.726 123.845 228.315 123.741C231.072 123.655 231.09 122.909 233.725 122.614C236.413 122.319 238.841 121.886 239.691 120.932C240.246 120.776 240.783 120.585 241.303 120.359C242.916 119.596 244.511 118.66 248.656 118.503C255.505 118.261 261.939 117.48 264.99 115.035C272.43 112.797 276.747 105.86 287.516 103.813C304.354 100.604 314.446 93.6839 336.416 91.0303C340.197 90.5793 343.994 90.4406 347.792 90.5967C365.861 91.3425 380.513 98.8698 399.102 101.506C412.871 103.414 419.044 103.258 428.391 105.044" stroke="black" stroke-width="0.231884" stroke-miterlimit="10"/>
<path d="M-92.2588 100.743C-74.9876 90.7532 -55.3234 78.9245 -37.48 77.2247C-17.2435 75.2995 -0.0243409 69.1944 13.5707 76.8432C16.9174 78.7337 20.2121 80.8497 23.8189 82.6535C45.7547 93.5456 69.9448 109.416 94.9672 112.694C115.169 115.347 128.14 106.207 142.775 98.4713C159.353 89.7125 175.948 81.7516 199.912 91.3602C213.923 96.9797 219.646 97.6909 225.576 93.5976C231.177 89.7299 232.807 79.7743 229.738 77.0513C227.518 75.0914 224.293 75.0741 216.143 76.2014C207.126 77.4502 189.144 78.3868 177.248 77.0513C165.058 75.6984 176.537 110.855 216.299 122.146C219.611 123.083 223.894 124.089 227.501 123.933C230.293 123.811 230.016 122.944 232.669 122.614C235.374 122.285 237.767 121.799 238.408 120.741C238.911 120.568 239.414 120.377 239.882 120.134C241.339 119.319 242.743 118.313 247.027 118.192C253.998 118.001 260.587 117.272 263.465 114.705C270.731 112.52 274.702 105.184 285.991 103.328C303.175 100.518 313.268 93.7537 335.498 91.0133C339.313 90.5451 343.163 90.389 346.995 90.5624C365.22 91.3602 379.717 99.2345 398.809 101.68C412.976 103.432 418.802 102.894 428.34 104.646" stroke="black" stroke-width="0.231884" stroke-miterlimit="10"/>
<path d="M-92.0508 100.449C-74.7796 90.6664 -54.6819 81.1271 -36.9425 77.7276C-17.0702 73.9119 0.409091 70.0442 14.2295 77.2247C17.5936 78.9764 20.923 81.0057 24.5645 82.6881C46.7431 92.8691 70.9678 109.051 95.9903 112.607C116.071 115.451 128.989 106.779 143.642 99.3732C160.358 90.9092 176.988 83.0176 200.623 92.0886C214.444 97.3959 220.079 97.8295 225.871 93.6496C231.316 89.7125 232.911 79.8783 229.825 77.1206C227.674 75.1954 224.449 75.0566 216.368 76.0279C207.421 77.1032 189.629 77.849 177.63 76.5656C164.902 75.2127 175.375 110.872 215.415 122.406C218.744 123.36 223.114 124.262 226.721 124.175C229.547 124.106 228.992 123.031 231.645 122.649C234.351 122.267 236.726 121.747 237.142 120.602C237.593 120.394 238.061 120.238 238.495 119.961C239.796 119.076 241.009 118.174 245.431 117.931C252.506 117.533 259.252 117.116 261.957 114.445C269.032 112.312 272.691 104.559 284.499 102.911C302.031 100.483 312.14 93.9097 334.614 91.0653C338.463 90.5797 342.348 90.4236 346.232 90.597C364.613 91.4295 378.954 99.6854 398.548 101.923C413.097 103.536 418.594 102.599 428.322 104.316" stroke="black" stroke-width="0.231884" stroke-miterlimit="10"/>
<path d="M-91.8438 100.154C-74.5899 90.5975 -54.4228 81.1969 -36.4233 78.2311C-16.551 74.953 0.824208 70.8945 14.8701 77.5894C18.2688 79.2024 21.6155 81.1449 25.2744 82.6885C47.6957 92.1931 71.9725 108.687 96.995 112.503C116.954 115.538 129.821 107.335 144.491 100.241C161.346 92.0891 178.01 84.2495 201.298 92.7828C214.928 97.778 220.477 97.9514 226.147 93.6501C231.436 89.6436 232.997 79.9135 229.893 77.1211C227.812 75.2305 224.604 74.9704 216.575 75.7856C207.697 76.6875 190.096 77.2425 177.993 76.011C164.727 74.6582 174.195 110.838 214.529 122.58C217.876 123.551 222.333 124.471 225.957 124.349C228.835 124.245 227.986 123.048 230.656 122.632C233.378 122.216 235.702 121.644 235.928 120.395C236.326 120.169 236.777 120.013 237.141 119.701C238.286 118.747 239.309 117.81 243.869 117.585C251.066 117.238 257.967 116.891 260.499 114.081C267.401 112 270.713 103.814 283.042 102.392C300.92 100.328 311.029 93.9623 333.763 90.9964C337.665 90.4934 341.584 90.3373 345.502 90.5108C364.04 91.3953 378.224 100.015 398.339 102.045C413.269 103.502 418.42 102.183 428.338 103.883" stroke="black" stroke-width="0.231884" stroke-miterlimit="10"/>
<path d="M-91.6348 99.8427C-74.3809 90.5115 -54.1445 81.2497 -35.8849 78.7348C-15.9952 75.9944 1.24127 71.7451 15.5299 77.9717C18.946 79.4633 22.31 81.2844 26.0209 82.724C48.685 91.5348 72.9965 108.341 98.0189 112.435C117.839 115.678 130.654 107.925 145.359 101.143C162.352 93.2866 179.069 85.5337 202.01 93.512C215.432 98.195 220.894 98.0909 226.46 93.6855C231.576 89.627 233.119 80.0009 229.998 77.1565C227.969 75.3007 224.778 74.9191 216.802 75.5782C207.993 76.2893 190.565 76.6708 178.358 75.4914C164.555 74.1559 173.017 110.822 213.628 122.806C216.975 123.795 221.536 124.732 225.177 124.575C228.09 124.437 226.963 123.136 229.634 122.668C232.356 122.199 234.663 121.592 234.68 120.257C235.044 120.031 235.391 119.771 235.772 119.528C236.535 118.332 237.593 117.516 242.292 117.326C249.61 117.031 256.65 116.736 259.026 113.822C265.754 111.793 268.737 103.19 281.586 101.976C299.794 100.276 309.938 94.1191 332.914 91.0492C336.85 90.5288 340.821 90.3554 344.775 90.5462C363.468 91.4828 377.514 100.45 398.115 102.288C413.426 103.589 418.247 101.889 428.357 103.554" stroke="black" stroke-width="0.231884" stroke-miterlimit="10"/>
<path d="M-91.4268 99.5461C-74.1902 90.4231 -53.9018 81.2653 -35.3647 79.2361C-15.4404 77.0507 1.64 72.6106 16.1714 78.3342C19.6048 79.687 23.0036 81.4214 26.7491 82.7396C49.6733 90.8567 74.0022 107.975 99.0246 112.329C118.723 115.763 131.486 108.478 146.208 102.009C163.358 94.4643 180.092 86.7635 202.704 94.2041C215.935 98.5575 221.31 98.2106 226.738 93.7011C231.697 89.5732 233.206 80.0686 230.067 77.1721C228.108 75.351 224.934 74.848 217.01 75.351C208.27 75.8887 191.034 76.0968 178.722 74.9521C164.381 73.6166 171.838 110.785 212.744 122.995C216.108 124.001 220.755 124.955 224.414 124.747C227.362 124.574 225.957 123.152 228.645 122.649C231.385 122.146 233.657 121.469 233.449 120.047C233.761 119.804 234.073 119.544 234.402 119.266C234.975 118 235.876 117.133 240.714 116.977C248.153 116.734 255.35 116.509 257.552 113.473C264.107 111.496 267.055 104.472 280.112 101.471C298.25 97.3087 308.828 94.1868 332.047 91.0128C336.018 90.4751 340.041 90.2843 344.029 90.4924C362.878 91.4637 376.768 100.812 397.872 102.443C413.582 103.605 418.056 101.506 428.356 103.136" stroke="black" stroke-width="0.231884" stroke-miterlimit="10"/>
<path d="M-91.2012 99.2346C-73.982 90.3544 -53.6589 81.266 -34.827 79.7397C-14.8854 78.1094 2.05635 73.4611 16.8305 78.7164C20.2813 79.9479 23.7147 81.5782 27.4776 82.775C50.6446 90.1983 75.0081 107.629 100.031 112.26C119.608 115.885 132.319 109.086 147.058 102.912C164.347 95.6617 181.115 88.0303 203.38 94.9332C216.42 98.9744 221.709 98.3674 227.015 93.7365C231.819 89.5565 233.275 80.1386 230.137 77.2248C228.229 75.4557 225.073 74.814 217.218 75.1609C208.548 75.5251 191.502 75.5598 179.086 74.4498C164.208 73.1316 170.659 110.803 211.842 123.239C215.206 124.262 219.958 125.233 223.634 124.991C226.617 124.783 224.935 123.239 227.622 122.701C230.362 122.146 232.616 121.435 232.2 119.926C232.478 119.666 232.738 119.389 233.033 119.111C233.414 117.758 234.16 116.856 239.136 116.735C246.697 116.544 254.032 116.388 256.078 113.214C262.46 111.289 265.026 103.883 278.656 101.056C297.175 97.2227 307.718 94.3262 331.197 91.0481C335.203 90.4931 339.261 90.3197 343.301 90.5278C362.306 91.5511 376.04 101.264 397.664 102.686C413.756 103.692 417.883 101.212 428.391 102.807" stroke="black" stroke-width="0.231884" stroke-miterlimit="10"/>
<path d="M-90.9922 98.9392C-73.7904 90.2672 -53.3632 78.265 -34.3059 80.2422C-14.4163 82.3062 2.45608 74.3279 17.473 79.0802C20.9411 80.1728 24.4092 81.6991 28.2068 82.7918C51.6166 89.5214 76.0147 107.264 101.02 112.173C120.459 115.989 133.152 109.658 147.891 103.796C165.336 96.8579 182.139 89.2785 204.057 95.6439C216.907 99.3729 222.109 98.4883 227.294 93.7707C231.941 89.5387 233.363 80.2249 230.207 77.259C228.369 75.5246 225.23 74.7788 217.427 74.9523C208.826 75.143 191.954 74.9869 179.451 73.9289C164.053 72.6281 169.48 110.785 210.942 123.464C214.323 124.505 219.161 125.511 222.855 125.198C225.854 124.956 223.912 123.29 226.618 122.701C229.357 122.111 231.577 121.348 230.953 119.735C231.178 119.457 231.403 119.163 231.646 118.885C231.837 117.463 232.427 116.318 237.542 116.422C245.224 116.596 252.715 116.179 254.588 112.901C260.778 111.028 262.998 103.223 277.183 100.587C296.101 97.0834 306.609 94.4298 330.331 91.0476C334.389 90.4753 338.481 90.2845 342.556 90.51C361.735 91.568 375.313 101.645 397.422 102.876C413.896 103.744 417.693 100.847 428.392 102.443" stroke="black" stroke-width="0.231884" stroke-miterlimit="10"/>
<path d="M-90.7852 98.6453C-73.5833 90.1813 -53.0521 78.1271 -33.7867 80.7461C-13.9665 83.4344 2.83652 75.196 18.1136 79.4626C21.599 80.4339 25.1018 81.8561 28.9167 82.8274C52.6039 88.8458 77.0021 106.901 102.025 112.087C121.342 116.094 133.983 110.249 148.74 104.681C166.323 98.0556 183.161 90.5282 204.75 96.3558C217.409 99.7726 222.524 98.6279 227.588 93.7889C232.061 89.5049 233.466 80.2778 230.293 77.2773C228.507 75.5775 225.385 74.7103 217.634 74.7103C209.102 74.7277 192.421 74.3981 179.797 73.3748C163.861 72.074 168.283 110.734 210.022 123.638C213.403 124.679 218.362 125.72 222.039 125.373C225.09 125.095 222.854 123.326 225.559 122.684C228.316 122.043 230.501 121.245 229.668 119.545C229.859 119.25 230.033 118.955 230.241 118.643C230.241 117.152 230.657 115.937 235.928 116.094C243.732 116.319 251.379 115.955 253.061 112.573C259.078 110.769 260.916 102.53 275.656 100.12C294.973 96.9629 305.447 94.5174 329.411 91.0485C333.504 90.4415 337.648 90.268 341.775 90.4935C361.11 91.6035 374.531 102.045 397.143 103.068C414.016 103.779 417.467 100.501 428.339 102.062" stroke="black" stroke-width="0.231884" stroke-miterlimit="10"/>
<path d="M-90.5762 98.3336C-73.3917 90.1125 -52.7217 77.9889 -33.2483 81.2496C-13.4974 84.5624 3.23626 76.0811 18.7561 79.8274C22.2589 80.6773 25.7963 81.9781 29.6459 82.8453C53.5759 88.17 78.0088 106.537 103.049 112.001C122.245 116.198 134.834 110.821 149.608 105.566C167.347 99.2529 184.202 91.7775 205.445 97.0675C217.912 100.172 222.924 98.7672 227.866 93.8242C232.184 89.4881 233.554 80.3651 230.363 77.3125C228.646 75.6648 225.542 74.6588 217.843 74.5027C209.381 74.3466 192.873 73.8437 180.162 72.855C163.688 71.5716 167.105 110.717 209.138 123.864C212.537 124.922 217.583 125.98 221.276 125.599C224.363 125.286 221.849 123.396 224.554 122.72C227.311 122.043 229.479 121.193 228.438 119.389C228.577 119.077 228.716 118.765 228.872 118.453C228.681 116.892 228.941 115.626 234.351 115.817C242.276 116.094 250.062 115.799 251.588 112.278C257.432 110.527 258.888 101.855 274.183 99.6691C293.899 96.842 304.32 94.6393 328.545 91.0491C332.672 90.4247 336.851 90.2339 341.013 90.4767C360.504 91.6388 373.769 102.444 396.902 103.259C414.156 103.814 417.259 100.155 428.34 101.681" stroke="black" stroke-width="0.231884" stroke-miterlimit="10"/>
<path d="M-90.3682 98.0372C-73.201 90.0242 -52.4097 77.8312 -32.7281 81.751C-13.0466 85.6708 3.61766 76.964 19.3976 80.2074C22.9177 80.9358 26.4899 82.1326 30.3742 82.8784C54.5642 87.4919 79.0317 106.172 104.054 111.913C123.111 116.283 135.683 111.41 150.458 106.449C168.353 100.448 185.243 93.0421 206.138 97.777C218.415 100.569 223.34 98.9044 228.161 93.8399C232.322 89.4518 233.658 80.4328 230.45 77.3456C228.785 75.7326 225.716 74.6052 218.068 74.293C209.676 73.9461 193.358 73.2697 180.543 72.3158C163.532 71.0496 165.96 110.698 208.254 124.053C211.67 125.129 216.803 126.204 220.513 125.771C223.635 125.424 220.825 123.412 223.565 122.701C226.34 121.972 228.473 121.07 227.224 119.197C227.328 118.885 227.415 118.555 227.536 118.226C227.155 116.595 227.259 115.277 232.808 115.503C240.836 115.832 248.796 115.589 250.148 111.965C255.819 110.265 256.911 101.142 272.76 99.1992C292.876 96.719 303.262 94.7418 327.73 91.0475C331.892 90.4057 336.123 90.215 340.319 90.4578C359.966 91.6545 373.076 102.824 396.711 103.466C414.346 103.882 417.121 99.8236 428.392 101.315" stroke="black" stroke-width="0.231884" stroke-miterlimit="10"/>
<path d="M-90.1611 97.743C-72.994 89.9554 -52.0986 77.6758 -32.1916 82.272C-12.5621 86.7988 3.9981 77.8665 20.0555 80.5896C23.5929 81.1966 27.1998 82.272 31.1014 82.8963C55.5516 86.8161 80.0365 105.808 105.059 111.826C123.995 116.388 136.515 112 151.306 107.334C169.358 101.645 186.265 94.2915 206.831 98.5061C218.917 100.986 223.755 99.0785 228.454 93.8752C232.46 89.4524 233.761 80.5202 230.535 77.3809C228.922 75.8199 225.871 74.5538 218.293 74.0855C209.969 73.5652 193.843 72.7153 180.906 71.7961C163.358 70.5473 164.78 110.682 207.351 124.28C210.767 125.372 216.004 126.465 219.732 125.997C222.888 125.598 219.801 123.482 222.541 122.736C225.316 121.973 227.414 121.019 225.957 119.042C226.009 118.712 226.061 118.365 226.131 118.018C225.558 116.319 225.506 114.931 231.194 115.209C239.344 115.59 247.442 115.417 248.639 111.653C254.136 110.005 254.847 100.431 271.251 98.7316C291.747 96.6156 302.1 94.8291 326.827 91.0481C331.041 90.389 335.289 90.1809 339.555 90.4411C359.358 91.6898 372.329 103.224 396.45 103.657C414.484 103.917 416.911 99.4774 428.374 100.952" stroke="black" stroke-width="0.231884" stroke-miterlimit="10"/>
<path d="M-89.9531 97.4317C-72.8033 89.8696 -51.7866 77.5032 -31.6715 82.7585C-12.1114 87.875 4.37951 78.752 20.697 80.9547C24.2345 81.4403 27.876 82.4116 31.8296 82.9146C56.5399 86.1233 81.0421 105.427 106.065 111.741C124.879 116.476 137.364 112.59 152.156 108.22C170.363 102.843 187.305 95.5411 207.524 99.2181C219.402 101.386 224.171 99.2181 228.732 93.9108C232.581 89.436 233.83 80.5905 230.587 77.4165C229.044 75.8902 226.009 74.5027 218.466 73.8783C210.195 73.1845 194.259 72.1612 181.236 71.2767C163.15 70.0626 163.566 110.665 206.432 124.506C209.865 125.616 215.189 126.726 218.934 126.206C222.125 125.772 218.761 123.552 221.501 122.737C224.275 121.922 226.356 120.933 224.691 118.869C224.709 118.522 224.709 118.158 224.743 117.811C223.98 116.042 223.772 114.602 229.599 114.915C237.87 115.348 246.124 115.227 247.147 111.359C252.454 109.763 252.818 99.7038 269.777 98.2815C290.672 96.5124 300.99 94.9514 325.96 91.049C330.209 90.3726 334.509 90.1645 338.792 90.4246C358.751 91.7081 371.566 103.606 396.207 103.849C414.622 103.97 416.721 99.1314 428.374 100.571" stroke="black" stroke-width="0.231884" stroke-miterlimit="10"/>
<path d="M-89.7441 97.1356C-72.6117 89.799 -51.4562 77.3285 -31.1504 83.2602C-11.6423 88.9665 4.76191 79.6527 21.3395 81.3177C24.8943 81.6819 28.5705 82.5318 32.5588 82.9307C57.5119 85.4283 82.0488 105.045 107.071 111.653C125.747 116.578 138.198 113.179 153.006 109.103C171.37 104.056 188.329 96.7887 208.201 99.928C219.889 101.766 224.571 99.3556 229.01 93.9443C232.704 89.4174 233.917 80.676 230.657 77.4499C229.166 75.9757 226.149 74.4667 218.675 73.6689C210.473 72.8017 194.728 71.605 181.601 70.7551C162.977 69.5583 162.388 110.647 205.531 124.713C208.964 125.84 214.392 126.968 218.155 126.413C221.38 125.944 217.739 123.603 220.496 122.753C223.288 121.903 225.334 120.862 223.444 118.712C223.409 118.348 223.374 117.983 223.357 117.602C222.403 115.763 222.039 114.272 227.987 114.619C236.38 115.121 244.79 115.052 245.64 111.063C250.772 109.519 250.772 98.9741 268.286 97.8293C289.563 96.4245 299.864 95.0716 325.077 91.0651C329.36 90.3713 333.712 90.1632 338.047 90.4234C358.163 91.7589 370.821 104.021 395.965 104.056C414.762 104.021 416.514 98.8006 428.357 100.205" stroke="black" stroke-width="0.231884" stroke-miterlimit="10"/>
<path d="M-89.5371 96.8232C-72.4046 89.712 -51.1451 77.1202 -30.6139 83.763C-11.1751 90.0589 5.50649 78.0047 21.9974 81.699C25.4828 82.4795 29.2804 82.6703 33.2861 82.9652C58.4992 84.7516 83.0535 104.68 108.076 111.566C126.63 116.665 139.046 113.768 153.855 109.987C172.375 105.252 189.368 98.0372 208.894 100.639C220.391 102.165 224.986 99.5115 229.304 93.9614C232.841 89.3999 234.02 80.7278 230.743 77.4844C229.304 76.0622 226.321 74.4145 218.899 73.4606C210.767 72.4199 195.195 71.0497 181.964 70.2345C162.803 69.0551 161.207 110.629 204.628 124.938C208.079 126.065 213.593 127.227 217.373 126.638C220.633 126.135 216.714 123.672 219.472 122.787C222.263 121.885 224.292 120.81 222.194 118.555C222.125 118.174 222.038 117.792 221.986 117.411C220.842 115.503 220.321 113.942 226.408 114.341C234.922 114.896 243.471 114.878 244.147 110.768C249.107 109.276 248.76 96.06 266.794 97.3782C288.435 98.9565 298.718 95.1755 324.191 91.0822C328.509 90.3711 332.896 90.1457 337.266 90.4232C357.537 91.7934 370.04 104.437 395.704 104.264C414.882 104.073 416.304 98.4535 428.339 99.841" stroke="black" stroke-width="0.231884" stroke-miterlimit="10"/>
<path d="M-89.3096 96.5291C-72.1944 89.6261 -50.7962 76.9302 -30.0742 84.2668C-10.6875 91.1351 5.82071 78.9074 22.6411 82.0814C26.1612 82.7405 29.9761 82.8272 34.0165 83.0007C59.4897 84.076 84.0613 104.317 109.101 111.497C127.534 116.787 139.915 114.394 154.724 110.89C173.417 106.485 190.411 99.3042 209.607 101.368C220.913 102.582 225.422 99.6858 229.601 93.9969C232.982 89.4007 234.126 80.8153 230.832 77.5199C229.462 76.1324 226.497 74.3633 219.127 73.2532C211.064 72.0391 195.682 70.4955 182.348 69.715C162.649 68.553 160.048 110.613 203.763 125.147C207.214 126.292 212.832 127.454 216.613 126.829C219.907 126.292 215.711 123.707 218.485 122.788C221.294 121.852 223.271 120.707 220.982 118.383C220.861 117.984 220.74 117.585 220.636 117.203C219.3 115.209 218.624 113.613 224.849 114.047C233.485 114.654 242.19 114.706 242.693 110.474C247.479 109.034 246.802 95.3497 265.357 96.928C287.345 98.8012 297.645 95.2977 323.361 91.083C327.713 90.3546 332.153 90.1291 336.557 90.4066C357.002 91.8288 369.348 104.837 395.498 104.455C415.075 104.126 416.15 98.1074 428.375 99.4776" stroke="black" stroke-width="0.231884" stroke-miterlimit="10"/>
<path d="M-89.1025 96.2346C-71.9874 89.5571 -50.4504 76.7398 -29.5551 84.7875C-10.203 92.2281 6.11446 79.8444 23.2816 82.4634C26.8364 83.001 30.6687 83.1051 34.7264 83.0357C60.4598 82.5501 85.0487 103.953 110.088 111.428C128.383 116.892 140.747 115.001 155.555 111.792C174.405 107.716 191.416 100.571 210.282 102.097C221.397 102.999 225.837 99.8422 229.877 94.0493C233.12 89.401 234.212 80.9197 230.9 77.5723C229.582 76.2368 226.634 74.3289 219.317 73.0628C211.323 71.6753 196.132 69.9582 182.693 69.2124C162.457 68.085 158.85 110.613 202.843 125.39C206.311 126.552 212.016 127.732 215.814 127.073C219.143 126.483 214.669 123.812 217.444 122.823C220.253 121.835 222.212 120.655 219.698 118.227C219.559 117.811 219.403 117.395 219.23 116.996C218.033 114.724 216.872 113.267 223.236 113.752C231.993 114.411 240.836 114.515 241.183 110.179C245.796 108.792 244.79 94.6216 263.847 96.4775C286.199 98.6628 296.499 95.4021 322.458 91.1008C326.863 90.355 331.337 90.1295 335.793 90.4243C356.394 91.8986 368.584 105.254 395.237 104.681C415.196 104.196 415.941 97.7956 428.357 99.1311" stroke="black" stroke-width="0.231884" stroke-miterlimit="10"/>
<path d="M-88.8945 95.9219C-71.7967 89.4698 -50.121 76.5311 -29.0176 85.2726C-9.71754 93.2682 6.40918 80.7631 23.9405 82.827C27.53 83.2433 31.3796 83.2259 35.472 83.0525C61.4308 81.8557 86.0891 103.553 111.111 111.324C129.284 116.96 141.596 115.59 156.422 112.659C175.428 108.913 192.473 101.802 210.976 102.79C221.9 103.363 226.253 99.9804 230.172 94.0487C233.258 89.3658 234.316 80.9712 230.987 77.5717C229.721 76.2883 226.808 74.259 219.542 72.8194C211.617 71.2585 196.6 69.3679 183.057 68.6568C162.283 67.5468 157.671 110.56 201.941 125.563C205.427 126.742 211.219 127.939 215.033 127.245C218.398 126.621 213.646 123.829 216.421 122.805C219.247 121.782 221.172 120.551 218.45 118.036C218.241 117.619 218.085 117.168 217.843 116.77C216.421 114.428 215.137 112.919 221.64 113.439C230.519 114.151 239.518 114.324 239.692 109.849C244.114 108.514 242.796 93.8579 262.373 95.9913C285.072 98.4715 295.372 95.4883 321.591 91.0829C326.03 90.3197 330.539 90.0769 335.047 90.3891C355.804 91.898 367.838 105.635 395.011 104.854C415.352 104.212 415.75 97.4308 428.374 98.7316" stroke="black" stroke-width="0.231884" stroke-miterlimit="10"/>
<path d="M-88.6865 95.6273C-71.6061 89.4007 -49.7743 76.3232 -28.4974 85.7758C-9.23208 94.3438 6.70389 81.7173 24.582 83.1915C28.2062 83.4864 32.0731 83.2262 36.2002 83.0528C62.4364 81.9774 87.0947 103.155 112.117 111.22C130.169 117.03 142.446 116.18 157.272 113.544C176.433 110.127 193.496 103.051 211.669 103.502C222.403 103.762 226.686 100.137 230.449 94.0837C233.38 89.366 234.403 81.0408 231.056 77.6067C229.842 76.3579 226.946 74.2072 219.75 72.6116C211.895 70.8772 197.069 68.8132 183.422 68.1368C162.127 67.0614 156.509 110.543 201.057 125.789C204.542 126.986 210.438 128.2 214.27 127.454C217.669 126.795 212.64 123.881 215.432 122.823C218.259 121.748 219.698 120.915 217.236 117.862C216.923 117.481 216.785 116.961 216.507 116.562C214.86 114.151 213.455 112.59 220.097 113.145C229.079 113.908 238.252 114.134 238.252 109.555C242.501 108.271 240.853 93.1297 260.934 95.5406C283.997 98.3156 294.297 95.5926 320.759 91.1005C325.233 90.32 329.793 90.0772 334.336 90.3893C355.249 91.9503 367.145 106.034 394.803 105.063C415.542 104.282 415.594 97.1015 428.392 98.3677" stroke="black" stroke-width="0.231884" stroke-miterlimit="10"/>
<path d="M-88.4785 95.3311C-71.3981 89.33 -49.4276 76.1137 -27.9773 86.2774C-8.76397 95.4004 7.05061 85.2021 25.2235 83.5717C28.865 83.2422 32.7667 83.3809 36.9111 83.0861C63.4074 81.2996 88.0831 102.789 113.105 111.149C131.036 117.133 143.278 116.803 158.104 114.444C177.439 111.374 194.519 104.61 212.346 104.229C222.889 104.003 227.085 100.309 230.726 94.117C233.518 89.3647 234.489 81.1262 231.125 77.6574C229.964 76.4606 227.102 74.1712 219.958 72.4194C212.172 70.5116 197.519 68.2915 183.786 67.6324C161.954 66.5918 155.33 110.542 200.155 126.03C203.658 127.244 209.64 128.476 213.49 127.695C216.923 127.002 211.617 123.984 214.409 122.874C217.236 121.764 218.692 120.862 215.97 117.74C215.623 117.341 215.415 116.803 215.103 116.387C213.247 113.907 211.704 112.276 218.484 112.883C227.588 113.699 236.9 113.976 236.744 109.276C240.819 108.044 238.842 92.3999 259.442 95.1056C282.852 98.1929 293.153 95.73 319.874 91.1164C324.4 90.3013 328.995 90.0584 333.573 90.388C354.642 91.9836 366.382 106.449 394.543 105.269C415.664 104.333 415.386 96.7706 428.374 98.0194" stroke="black" stroke-width="0.231884" stroke-miterlimit="10"/>
<path d="M-88.2705 95.0194C-71.2074 89.2264 -49.0808 75.8714 -27.4398 86.7809C-8.24383 96.459 7.44938 86.1392 25.8824 83.9365C29.5413 83.5029 33.4776 83.5029 37.6566 83.104C64.4131 80.589 89.1234 102.391 114.128 111.045C131.937 117.203 144.145 117.393 158.971 115.312C178.462 112.572 195.577 105.547 213.039 104.923C223.391 104.559 227.518 100.448 231.021 94.1175C233.674 89.3305 234.593 81.1787 231.195 77.6579C230.085 76.5132 227.241 74.085 220.149 72.1771C212.432 70.0958 197.97 67.7023 184.115 67.0779C161.746 66.0546 154.116 110.49 199.219 126.204C202.721 127.418 208.808 128.684 212.675 127.852C216.143 127.106 210.542 123.984 213.369 122.822C216.212 121.66 217.669 120.689 214.704 117.497C214.322 117.081 214.062 116.544 213.715 116.11C211.634 113.56 209.97 111.878 216.889 112.52C226.114 113.387 235.582 113.734 235.235 108.912C239.137 107.733 236.848 91.6026 257.934 94.6031C281.708 97.9853 292.008 95.7825 318.973 91.0823C323.533 90.2498 328.163 90.0069 332.793 90.3365C354.018 91.9842 365.601 106.813 394.283 105.426C415.785 104.351 415.161 96.3896 428.357 97.6037" stroke="black" stroke-width="0.231884" stroke-miterlimit="10"/>
<path d="M-88.0615 94.7252C-70.9984 89.1578 -48.7158 75.664 -26.9187 87.2846C-7.7574 97.5003 7.84911 87.0938 26.5249 84.3187C30.2011 83.7811 34.1547 83.6423 38.3858 83.1393C65.4024 79.896 90.1301 102.01 115.152 110.977C132.823 117.307 145.013 118.018 159.839 116.215C179.486 113.821 196.618 106.814 213.751 105.652C223.912 104.958 227.97 100.622 231.334 94.1702C233.831 89.3485 234.716 81.2835 231.3 77.7106C230.259 76.6179 227.433 74.0683 220.392 71.987C212.745 69.7323 198.474 67.1653 184.515 66.5756C161.608 65.587 152.972 110.491 198.37 126.448C201.89 127.679 208.063 128.963 211.947 128.095C215.45 127.315 209.572 124.072 212.398 122.875C215.242 121.678 216.716 120.637 213.508 117.377C213.075 116.943 212.78 116.388 212.381 115.937C210.092 113.336 208.289 111.566 215.346 112.26C224.693 113.179 234.299 113.596 233.797 108.653C237.507 107.525 234.906 90.8922 256.513 94.1702C280.651 97.8472 290.934 95.922 318.158 91.1177C322.754 90.2678 327.436 90.025 332.1 90.3545C353.498 92.0542 364.909 107.23 394.093 105.652C415.994 104.421 415.023 96.0607 428.41 97.2575" stroke="black" stroke-width="0.231884" stroke-miterlimit="10"/>
<path d="M-87.8369 94.4141C-70.7911 89.0721 -48.3351 75.4222 -26.382 87.7886C-7.23799 98.5593 8.24714 88.0661 27.183 84.684C30.8592 84.0249 34.8649 83.7647 39.1133 83.1577C66.3727 79.1859 91.135 101.612 116.157 110.891C133.706 117.395 145.844 118.627 160.688 117.1C180.508 115.054 197.658 108.047 214.444 106.364C224.415 105.358 228.403 100.779 231.611 94.1886C233.969 89.3322 234.802 81.3366 231.368 77.729C230.38 76.6883 227.571 74 220.6 71.7452C213.022 69.317 198.924 66.5767 184.878 66.0217C161.434 65.0677 151.81 110.44 197.467 126.622C200.987 127.871 207.265 129.172 211.149 128.27C214.686 127.455 208.531 124.107 211.357 122.859C214.218 121.61 215.692 120.5 212.224 117.17C211.756 116.719 211.409 116.146 210.976 115.695C208.479 113.024 206.536 111.203 213.733 111.932C223.201 112.903 232.963 113.371 232.287 108.307C235.825 107.231 232.911 90.0954 255.003 93.6856C279.488 97.6401 289.788 95.9924 317.256 91.084C322.354 90.1647 326.967 89.974 331.319 90.3035C352.873 92.0379 364.145 107.596 393.815 105.809C416.097 104.422 414.797 95.6802 428.357 96.8423" stroke="black" stroke-width="0.231884" stroke-miterlimit="10"/>
<path d="M-87.6289 94.1178C-70.6005 89.0013 -47.971 75.1954 -25.8445 88.2902C-6.71785 99.616 8.66323 89.0187 27.8246 85.0642C31.5354 84.301 35.5584 83.9195 39.8416 83.191C67.361 78.4907 92.158 101.229 117.146 110.803C134.573 117.48 146.677 119.25 161.52 117.983C181.497 116.284 198.681 109.294 215.103 107.074C224.883 105.756 228.802 100.951 231.871 94.2219C234.091 89.3309 234.871 81.4219 231.42 77.7796C230.484 76.7737 227.709 73.9639 220.79 71.5531C213.282 68.9514 199.375 66.055 185.207 65.5C161.225 64.5807 150.596 110.404 196.531 126.846C200.068 128.112 206.432 129.413 210.334 128.477C213.906 127.609 207.473 124.158 210.317 122.874C213.16 121.591 214.652 120.412 210.958 117.012C210.455 116.544 210.039 115.972 209.571 115.486C206.866 112.745 204.785 110.855 212.12 111.635C221.709 112.641 231.611 113.179 230.779 108.011C234.143 107.005 230.9 89.3655 253.512 93.2333C278.361 97.4826 288.661 96.1124 316.371 91.1C321.539 90.1634 326.186 89.9552 330.556 90.3021C352.266 92.0886 363.382 108.011 393.572 106.033C416.236 104.507 414.588 95.3666 428.357 96.5113" stroke="black" stroke-width="0.231884" stroke-miterlimit="10"/>
<path d="M-87.4209 93.8234C-70.4098 88.9323 -47.607 74.9703 -25.3244 88.8109C-6.21507 100.692 9.06197 90.0077 28.4661 85.4462C32.1943 84.579 36.252 84.0586 40.5698 83.2261C68.332 77.78 93.1637 100.848 118.169 110.717C135.475 117.55 147.544 119.857 162.387 118.868C182.537 117.533 199.721 110.543 215.813 107.785C225.403 106.138 229.27 101.108 232.183 94.2397C234.264 89.3313 234.992 81.4917 231.524 77.7974C230.64 76.8435 227.9 73.8949 221.016 71.328C213.576 68.5529 199.86 65.483 185.589 64.9627C161.069 64.0781 149.434 110.37 195.664 127.055C199.219 128.338 205.669 129.656 209.588 128.685C213.195 127.783 206.484 124.21 209.328 122.892C212.172 121.574 213.681 120.308 209.744 116.839C209.207 116.353 208.738 115.764 208.236 115.278C205.322 112.486 203.103 110.526 210.577 111.341C220.287 112.399 230.345 113.006 229.339 107.716C232.53 106.762 228.975 88.6202 252.073 92.7828C277.286 97.3269 287.569 96.2169 315.539 91.1177C320.758 90.1638 325.44 89.9557 329.845 90.3025C351.711 92.1237 362.671 108.41 393.363 106.242C416.409 104.559 414.432 95.0375 428.391 96.1475" stroke="black" stroke-width="0.231884" stroke-miterlimit="10"/>
<path d="M-87.2119 93.5119C-70.2008 88.829 -47.2246 74.7108 -24.8032 89.2973C-5.69394 101.716 9.46171 90.9623 29.1086 85.8111C32.8541 84.8398 36.9465 84.1807 41.2816 83.2268C69.304 77.0696 94.1703 100.45 119.158 110.631C136.343 117.638 148.377 120.482 163.22 119.754C183.526 118.765 200.745 111.793 216.491 108.497C225.889 106.537 229.687 101.265 232.444 94.275C234.403 89.332 235.045 81.5791 231.577 77.8328C230.745 76.9309 228.022 73.861 221.207 71.1206C213.838 68.1721 200.295 64.9287 185.937 64.4431C160.879 63.5932 148.238 110.353 194.746 127.264C198.3 128.564 204.855 129.9 208.791 128.877C212.433 127.94 205.445 124.246 208.306 122.876C211.167 121.505 212.658 120.187 208.479 116.649C207.89 116.146 207.387 115.556 206.832 115.053C203.711 112.192 201.352 110.162 208.965 111.03C218.797 112.14 229.011 112.799 227.831 107.387C230.849 106.485 226.964 87.8404 250.582 92.2978C276.177 97.1368 286.442 96.3043 314.656 91.0837C319.944 90.1124 324.661 89.9043 329.083 90.2685C351.105 92.1417 361.926 108.792 393.122 106.416C416.566 104.595 414.242 94.674 428.392 95.7493" stroke="black" stroke-width="0.231884" stroke-miterlimit="10"/>
<path d="M-87.0049 93.2159C-70.0111 88.7585 -46.8441 74.4842 -24.2667 89.7991C-5.17478 102.755 9.87683 91.9325 29.7665 86.1742C33.5294 85.0815 37.6564 84.3184 42.0262 83.243C70.2913 76.3574 95.2097 100.032 120.18 110.525C137.243 117.689 149.243 120.065 164.086 120.62C184.548 121.383 201.785 113.006 217.201 109.19C226.408 106.9 230.154 101.402 232.755 94.2739C234.576 89.2962 235.183 81.6127 231.68 77.8317C230.9 76.9818 228.212 73.7731 221.449 70.8766C214.149 67.7547 200.796 64.3552 186.317 63.8869C160.722 63.0891 147.075 110.3 193.86 127.453C197.432 128.754 204.074 130.124 208.027 129.066C211.704 128.078 204.438 124.297 207.299 122.874C210.16 121.452 211.652 120.065 207.247 116.457C206.623 115.937 206.068 115.33 205.478 114.809C202.149 111.896 199.652 109.797 207.403 110.699C217.357 111.861 227.709 112.589 226.356 107.057C229.183 106.207 225.004 87.0414 249.107 91.8111C275.066 96.9276 285.314 96.3205 313.787 91.0653C319.128 90.0593 323.897 89.8512 328.336 90.2327C350.515 92.1406 361.179 109.173 392.878 106.588C416.704 104.611 414.051 94.3086 428.391 95.3493" stroke="black" stroke-width="0.231884" stroke-miterlimit="10"/>
<path d="M-86.7959 92.9217C-69.8195 88.6897 -46.4444 74.2593 -23.7456 90.32C-4.65368 103.831 10.2939 92.9217 30.4089 86.5737C34.1892 85.3769 38.3509 84.475 42.7381 83.2956C71.2633 75.6815 96.2163 99.6685 121.187 110.474C138.128 117.811 150.093 120.759 164.937 121.54C185.538 122.615 202.826 114.29 217.878 109.936C226.895 107.335 230.588 101.611 233.033 94.3439C234.715 89.3314 235.253 81.7347 231.75 77.9189C231.022 77.1211 228.351 73.7737 221.641 70.7211C214.41 67.4257 201.231 63.8528 186.665 63.4192C160.532 62.6561 145.897 110.335 192.959 127.714C196.531 129.032 203.277 130.42 207.248 129.327C210.959 128.304 203.416 124.401 206.277 122.944C209.138 121.488 210.612 120.031 205.999 116.354C205.34 115.833 204.734 115.209 204.092 114.671C200.554 111.688 197.919 109.52 205.809 110.474C215.884 111.688 226.392 112.469 224.866 106.814C227.519 106.017 223.028 86.3482 247.634 91.4127C273.957 96.8241 284.188 96.4946 312.921 91.1352C318.332 90.1119 323.135 89.9038 327.591 90.2853C349.926 92.2452 360.434 109.624 392.636 106.849C416.843 104.716 413.843 94.0317 428.375 95.055" stroke="black" stroke-width="0.231884" stroke-miterlimit="10"/>
<path d="M-86.5879 92.6096C-69.6115 88.6031 -46.063 73.9993 -23.2255 90.8058C-4.13352 104.855 10.6927 93.8758 31.0505 86.9208C34.8481 85.6199 39.0271 84.5793 43.4663 83.2958C72.2343 74.9533 97.2221 99.2525 122.192 110.353C139.03 117.845 150.96 121.401 165.787 122.39C186.526 123.777 203.849 115.487 218.571 110.613C227.398 107.682 231.039 101.733 233.311 94.3267C234.871 89.2796 235.357 81.7695 231.82 77.9018C231.143 77.156 228.507 73.6872 221.849 70.4611C214.687 66.9923 201.699 63.246 187.029 62.847C160.376 62.1186 144.718 110.249 192.058 127.888C195.647 129.223 202.479 130.611 206.45 129.483C210.196 128.425 202.375 124.402 205.254 122.91C208.132 121.418 209.589 119.892 204.734 116.146C204.023 115.608 203.381 114.966 202.705 114.411C198.959 111.376 196.185 109.121 204.213 110.127C214.41 111.393 225.057 112.243 223.375 106.468C225.854 105.722 221.051 85.5506 246.143 90.9099C272.83 96.6162 283.061 96.5468 312.037 91.0834C317.517 90.0254 322.355 89.8172 326.828 90.2162C349.336 92.2281 359.671 109.971 392.376 106.988C416.982 104.716 413.635 93.633 428.357 94.6216" stroke="black" stroke-width="0.231884" stroke-miterlimit="10"/>
<path d="M-86.3809 92.3139C-69.4218 88.5329 -45.6652 73.7556 -22.689 91.3253C-3.59702 105.929 11.1251 94.8808 31.7084 87.3188C35.5233 85.9139 39.737 84.7345 44.2109 83.347C73.2217 74.276 98.2614 98.87 123.214 110.3C139.931 117.966 151.826 122.111 166.653 123.308C187.531 124.99 204.906 116.769 219.281 111.358C227.917 108.114 231.506 101.923 233.622 94.3952C235.044 89.3133 235.477 81.89 231.922 77.9703C231.281 77.2765 228.68 73.6689 222.09 70.2868C214.998 66.6445 202.201 62.7247 187.409 62.3605C160.219 61.6841 143.555 110.265 191.172 128.147C194.779 129.5 201.698 130.905 205.686 129.743C209.466 128.633 201.351 124.505 204.247 122.978C207.143 121.452 208.582 119.856 203.501 116.023C202.756 115.468 202.062 114.809 201.334 114.254C197.397 111.15 194.467 108.843 202.634 109.884C212.935 111.202 223.755 112.104 221.9 106.224C224.206 105.53 219.073 84.8559 244.685 90.5101C271.754 96.4938 281.95 96.7193 311.186 91.1518C316.718 90.0765 321.59 89.8684 326.099 90.2673C348.763 92.3139 358.959 110.439 392.167 107.247C417.154 104.819 413.478 93.3372 428.391 94.3085" stroke="black" stroke-width="0.231884" stroke-miterlimit="10"/>
<path d="M-86.1719 92.0015C-69.2301 88.446 -45.2655 73.5126 -22.1679 91.8107C-3.05858 106.97 11.5595 95.8519 32.3508 87.6828C36.2004 86.1739 40.4315 84.8731 44.9227 83.3641C74.1763 73.5647 99.2681 98.4535 124.204 110.213C140.799 118.035 152.608 123.603 167.486 124.192C188.572 125.025 205.913 118 219.941 112.069C228.386 108.496 231.923 102.078 233.883 94.4124C235.183 89.2958 235.548 81.9592 231.958 77.9874C231.386 77.3457 228.802 73.5993 222.265 70.0611C215.242 66.2454 202.635 62.1695 187.74 61.8226C160.012 61.1809 142.359 110.23 190.254 128.338C193.861 129.708 200.884 131.13 204.889 129.916C208.704 128.771 200.312 124.539 203.225 122.944C206.138 121.348 207.56 119.7 202.254 115.815C201.473 115.243 200.71 114.584 199.965 114.011C195.82 110.855 192.751 108.461 201.057 109.554C211.479 110.924 222.438 111.895 220.427 105.877C222.559 105.235 217.114 84.0405 243.212 90.0069C270.645 96.2855 280.841 96.7712 310.32 91.117C315.921 90.0243 320.828 89.8161 325.354 90.2151C348.174 92.3137 358.215 110.785 391.925 107.403C417.294 104.836 413.271 92.9554 428.392 93.892" stroke="black" stroke-width="0.231884" stroke-miterlimit="10"/>
<path d="M-85.9473 91.7077C-69.0055 88.3603 -44.8328 73.2709 -21.6311 92.3148C-2.52183 108.011 11.9922 96.8243 32.9916 88.0481C36.8586 86.4351 41.1244 84.9955 45.6502 83.3825C75.1639 72.8373 100.29 98.0557 125.209 110.127C141.682 118.106 153.439 124.245 168.335 125.078C189.577 126.292 206.952 119.233 220.634 112.781C228.888 108.878 232.391 102.236 234.177 94.4308C235.356 89.2796 235.633 82.0297 232.044 78.0232C231.506 77.4335 228.957 73.5657 222.472 69.8541C215.501 65.8649 203.085 61.6156 188.103 61.3034C159.838 60.6963 141.214 110.11 189.351 128.564C192.976 129.934 200.085 131.391 204.108 130.142C207.941 128.963 199.288 124.61 202.201 122.979C205.114 121.349 206.519 119.632 200.987 115.66C200.155 115.07 199.357 114.394 198.559 113.804C194.224 110.578 190.999 108.133 199.444 109.26C209.987 110.682 221.102 111.706 218.917 105.583C220.859 104.993 215.12 83.2958 241.72 89.5571C269.534 96.1132 279.713 96.8936 309.435 91.118C315.088 90.008 320.047 89.7825 324.59 90.1988C347.567 92.3321 357.451 111.185 391.681 107.595C417.432 104.872 413.079 92.6096 428.374 93.5289" stroke="black" stroke-width="0.231884" stroke-miterlimit="10"/>
<path d="M-85.7393 91.4118C-68.8149 88.2898 -44.434 73.0269 -21.0937 92.834C-1.96701 109.068 12.443 97.8291 33.6505 88.4286C37.5521 86.7115 41.8179 85.1332 46.3785 83.3987C76.1175 72.125 101.313 97.6383 126.214 110.022C142.567 118.156 154.289 124.851 169.184 125.944C190.583 127.522 207.975 120.463 221.327 113.491C229.391 109.276 232.859 102.408 234.454 94.4643C235.512 89.2784 235.72 82.0979 232.113 78.0567C231.628 77.5191 229.113 73.5126 222.68 69.6448C215.778 65.4822 203.553 61.0768 188.45 60.7819C159.647 60.2269 140.017 110.091 188.432 128.771C192.057 130.159 199.27 131.633 203.311 130.349C207.177 129.118 198.247 124.661 201.16 122.995C204.074 121.33 205.478 119.544 199.721 115.503C198.854 114.896 198.004 114.219 197.172 113.612C192.629 110.317 189.265 107.802 197.848 108.981C208.513 110.456 219.784 111.548 217.408 105.304C219.177 104.767 213.125 82.5489 240.211 89.1223C268.39 95.9733 278.551 97.0313 308.533 91.1516C314.255 90.0242 319.25 89.7987 323.81 90.215C346.942 92.4004 356.67 111.6 391.404 107.819C417.553 104.94 412.854 92.2963 428.339 93.1809" stroke="black" stroke-width="0.231884" stroke-miterlimit="10"/>
<path d="M-85.5303 91.0997C-68.6059 88.2033 -44.017 72.7843 -20.5725 93.3198C-1.42856 110.109 12.8601 98.7832 34.293 88.793C38.212 86.9718 42.5124 85.2548 47.1077 83.4163C77.0895 71.4141 102.355 97.2222 127.238 109.936C143.487 118.226 155.139 125.476 170.052 126.829C191.607 128.789 209.034 121.695 222.022 114.202C229.895 109.658 233.311 102.564 234.75 94.4819C235.669 89.2613 235.842 82.1675 232.201 78.0743C231.767 77.5886 229.27 73.4607 222.906 69.4022C216.074 65.0662 204.022 60.4873 188.832 60.2271C159.492 59.7415 138.857 110.057 187.549 128.979C191.19 130.384 198.491 131.859 202.548 130.54C206.45 129.274 197.242 124.695 200.173 122.996C203.103 121.296 204.473 119.44 198.508 115.312C197.606 114.688 196.705 113.994 195.82 113.37C191.086 110.022 187.566 107.438 196.289 108.652C207.074 110.161 218.484 111.323 215.953 104.958C217.548 104.472 211.201 81.7339 238.773 88.6369C267.333 95.7653 277.477 97.1182 307.702 91.1344C313.476 89.9724 318.522 89.7469 323.1 90.1805C346.388 92.4179 355.978 111.982 391.196 107.993C417.727 104.975 412.699 91.9323 428.375 92.7821" stroke="black" stroke-width="0.231884" stroke-miterlimit="10"/>
<path d="M-85.3232 90.8047C-68.4162 88.1337 -43.6019 72.5413 -20.0534 93.8226C-0.874717 111.167 13.2925 99.7716 34.9335 89.1743C38.8698 87.2491 43.205 85.4106 47.8349 83.4508C78.0595 70.7028 103.377 96.8231 128.243 109.866C144.37 118.33 155.971 126.135 170.901 127.73C192.594 130.072 210.056 122.943 222.714 114.93C230.396 110.074 233.778 102.737 235.044 94.5337C235.841 89.2784 235.165 82.8437 232.286 78.1261C231.836 77.7619 229.443 73.4258 223.131 69.2112C216.368 64.7017 204.507 59.9494 189.212 59.7239C159.335 59.2556 137.711 110.039 186.681 129.187C190.34 130.61 197.727 132.101 201.802 130.748C205.738 129.43 196.253 124.765 199.183 122.995C202.114 121.226 203.484 119.319 197.276 115.139C196.322 114.497 195.386 113.803 194.467 113.161C189.525 109.745 185.866 107.091 194.709 108.357C205.617 109.918 217.183 111.132 214.478 104.663C215.9 104.229 209.241 80.9879 237.298 88.1857C266.239 95.609 276.349 97.222 306.833 91.1342C312.677 89.9548 317.758 89.7293 322.353 90.1803C345.798 92.4524 355.231 112.398 390.97 108.201C417.882 105.027 412.507 91.6025 428.391 92.4177" stroke="black" stroke-width="0.231884" stroke-miterlimit="10"/>
<path d="M-85.1143 90.5102C-68.2246 88.0473 -43.1674 72.2988 -19.5149 94.3432C-0.318914 112.225 13.7616 100.778 35.5934 89.5562C39.5644 87.5096 43.9169 85.5497 48.5641 83.4858C79.0315 70.0093 104.401 96.4245 129.25 109.78C145.272 118.4 156.821 126.759 171.751 128.633C193.601 131.356 211.08 124.21 223.409 115.659C230.883 110.473 234.264 102.911 235.322 94.5687C236.016 89.2614 235.218 82.9481 232.357 78.1784C231.958 77.8663 229.582 73.3915 223.322 69.0207C216.629 64.3378 204.959 59.4294 189.543 59.2213C159.128 58.805 136.498 110.04 185.745 129.43C189.404 130.853 196.895 132.379 200.97 130.974C204.941 129.621 195.179 124.834 198.126 123.03C201.074 121.227 202.41 119.249 195.994 114.983C195.005 114.324 194.017 113.613 193.046 112.971C187.913 109.502 184.098 106.762 193.098 108.08C204.126 109.693 215.849 110.976 212.97 104.368C214.219 103.987 207.248 80.2251 235.808 87.7351C265.113 95.4359 275.223 97.3264 305.95 91.1519C311.863 89.9551 316.961 89.7297 321.591 90.1806C345.192 92.5047 354.469 112.797 390.711 108.427C418.022 105.097 412.3 91.2906 428.374 92.0711" stroke="black" stroke-width="0.231884" stroke-miterlimit="10"/>
<path d="M-84.9062 90.1979C-68.0339 87.9605 -42.7513 72.0559 -18.9948 94.8288C0.218562 113.266 14.195 101.749 36.2349 89.9204C40.2232 87.7697 44.5931 85.6711 49.2924 83.5031C80.0025 69.2982 105.441 96.0082 130.255 109.693C146.157 118.469 157.654 127.401 172.601 129.517C194.589 132.622 212.103 125.441 224.103 116.37C231.386 110.855 234.732 103.05 235.617 94.6033C236.189 89.2613 235.305 83.0348 232.443 78.2131C232.097 77.9356 229.738 73.3567 223.548 68.8126C216.906 63.9562 205.427 58.8743 189.924 58.6836C158.989 58.3193 135.336 110.005 184.878 129.639C188.554 131.078 196.115 132.604 200.225 131.182C204.23 129.795 194.19 124.886 197.138 123.048C200.086 121.209 201.421 119.163 194.78 114.827C193.739 114.15 192.716 113.439 191.71 112.763C186.369 109.224 182.416 106.432 191.537 107.785C202.687 109.45 214.548 110.785 211.513 104.073C212.571 103.761 205.305 79.4619 234.351 87.2841C264.038 95.2624 274.13 97.4478 305.1 91.1692C311.065 89.9551 316.216 89.7123 320.863 90.1806C344.637 92.5394 353.741 113.214 390.485 108.617C418.178 105.149 412.126 90.9264 428.392 91.7069" stroke="black" stroke-width="0.231884" stroke-miterlimit="10"/>
<path d="M-84.6982 89.9033C-67.8259 87.8913 -42.3179 71.8133 -18.4573 95.3493C0.790713 114.341 14.6458 102.738 36.8938 90.3022C40.9168 88.0474 45.3039 85.81 50.0379 83.538C80.9735 68.5873 106.481 95.5922 131.278 109.606C147.076 118.538 158.503 128.043 173.468 130.402C195.612 133.888 213.143 126.673 224.796 117.082C231.888 111.237 235.2 103.206 235.911 94.6209C236.362 89.2442 235.391 83.1044 232.53 78.2306C232.252 78.0052 229.912 73.2876 223.773 68.5873C217.201 63.5575 205.912 58.3022 190.306 58.1461C158.833 57.8165 134.174 109.97 183.994 129.83C187.67 131.286 195.334 132.83 199.461 131.373C203.502 129.934 193.184 124.938 196.132 123.048C199.08 121.157 200.398 119.059 193.531 114.636C192.456 113.942 191.381 113.214 190.323 112.537C184.791 108.93 180.682 106.068 189.942 107.473C201.213 109.173 213.23 110.595 210.022 103.761C210.906 103.501 203.328 78.6989 232.877 86.816C262.945 95.0892 273.003 97.552 304.233 91.152C310.268 89.9033 315.452 89.6778 320.117 90.1461C344.047 92.5569 353.012 113.595 390.26 108.808C418.334 105.183 411.935 90.5797 428.392 91.3255" stroke="black" stroke-width="0.231884" stroke-miterlimit="10"/>
<path d="M-84.4902 89.5912C-67.6352 87.8047 -41.9018 71.5532 -17.9372 95.8351C1.34553 115.382 15.0966 103.709 37.5353 90.6665C41.5756 88.3077 45.9801 85.9315 50.7488 83.5554C81.9271 67.8763 107.504 95.176 132.267 109.52C147.96 118.608 159.318 128.668 174.3 131.287C196.583 135.172 214.149 127.904 225.472 117.793C232.374 111.636 235.651 103.362 236.189 94.6383C236.518 89.2096 235.46 83.1912 232.582 78.2481C232.356 78.0746 230.033 73.2356 223.946 68.3619C217.444 63.176 206.346 57.7473 190.618 57.6085C158.607 57.331 132.943 109.936 183.04 130.038C186.733 131.512 194.485 133.073 198.629 131.564C202.704 130.09 192.092 124.973 195.074 123.031C198.057 121.088 199.323 118.938 192.248 114.445C191.138 113.734 189.993 113.006 188.918 112.312C183.179 108.652 178.93 105.704 188.329 107.161C199.722 108.913 211.877 110.387 208.496 103.432C209.207 103.224 201.334 77.9012 231.351 86.3305C261.801 94.8811 271.841 97.6215 303.314 91.1348C309.401 89.8687 314.637 89.6432 319.319 90.1115C343.405 92.5744 352.214 113.96 389.965 108.982C418.421 105.218 411.693 90.2155 428.339 90.9267" stroke="black" stroke-width="0.231884" stroke-miterlimit="10"/>
<path d="M-84.2646 89.297C-67.4096 87.736 -41.4508 71.3284 -17.3995 96.3387C1.91793 116.441 15.5649 104.699 38.177 91.0314C42.2521 88.5685 46.6739 86.0536 51.4772 83.5734C82.8637 67.0964 108.545 94.7604 133.273 109.434C148.844 118.678 160.151 129.31 175.15 132.172C197.571 136.438 215.172 129.137 226.166 118.505C232.859 112.018 236.137 103.502 236.466 94.6737C236.674 89.1929 235.53 83.2785 232.651 78.3008C232.478 78.162 230.172 73.2016 224.155 68.1718C217.704 62.8124 206.797 57.2276 190.982 57.1062C158.434 56.8807 131.764 109.937 182.156 130.264C185.849 131.756 193.705 133.334 197.866 131.79C201.976 130.264 191.103 125.043 194.069 123.066C197.034 121.089 198.317 118.869 190.999 114.29C189.838 113.561 188.658 112.816 187.531 112.105C181.601 108.376 177.196 105.34 186.734 106.867C198.248 108.653 210.56 110.214 207.005 103.138C207.542 102.982 199.358 77.1387 229.877 85.8802C260.708 94.7084 270.714 97.7436 302.447 91.1528C308.603 89.8693 313.875 89.6265 318.574 90.1121C342.816 92.6097 351.469 114.377 389.74 109.191C418.594 105.271 411.519 89.8867 428.357 90.5804" stroke="black" stroke-width="0.231884" stroke-miterlimit="10"/>
<path d="M-84.0566 89.0012C-67.219 87.6484 -41.0174 71.0847 -16.8793 96.8581C2.47275 117.515 16.0157 105.704 38.8186 91.4294C42.9283 88.8624 47.3675 86.2261 52.2055 83.6072C83.8346 66.4017 109.585 94.3432 134.296 109.346C149.763 118.746 160.983 129.951 176 133.055C198.56 137.721 216.178 130.367 226.842 119.215C233.328 112.398 236.588 103.657 236.744 94.6901C236.83 89.1746 235.582 83.3643 232.721 78.3172C232.599 78.2305 230.328 73.1313 224.363 67.9454C217.981 62.4126 207.265 56.6717 191.346 56.5676C158.26 56.4462 130.602 109.901 181.254 130.471C184.965 131.98 192.907 133.558 197.086 131.98C201.23 130.419 190.063 125.077 193.045 123.065C196.028 121.053 197.277 118.764 189.751 114.116C188.554 113.37 187.323 112.607 186.161 111.896C180.04 108.114 175.48 105.01 185.156 106.571C196.791 108.409 209.242 110.022 205.531 102.842C205.878 102.738 197.415 76.3746 228.403 85.4283C259.616 94.5513 269.604 97.8467 301.58 91.1692C307.788 89.8684 313.094 89.6256 317.828 90.1112C342.226 92.6608 350.741 114.792 389.497 109.398C418.733 105.322 411.328 89.5562 428.357 90.2153" stroke="black" stroke-width="0.231884" stroke-miterlimit="10"/>
<path d="M-83.8477 88.6895C-67.0273 87.5621 -40.583 70.8423 -16.3409 97.3442C3.04587 118.556 16.4848 106.658 39.4784 91.7767C43.6054 89.1057 48.0793 86.3306 52.9347 83.6076C84.824 65.7084 110.644 93.858 135.302 109.242C150.683 118.764 161.816 130.576 176.85 133.923C199.532 138.988 217.202 131.599 227.537 119.909C233.693 112.954 237.074 103.987 237.039 94.7079C237.005 89.1404 235.669 83.4342 232.808 78.335C232.756 78.283 230.502 73.0797 224.589 67.7203C218.277 62.0141 207.751 56.0998 191.711 56.0304C158.088 55.9437 129.424 109.867 180.353 130.68C184.081 132.206 192.11 133.802 196.306 132.189C200.503 130.576 189.041 125.147 192.041 123.083C195.041 121.019 196.272 118.66 188.52 113.943C187.272 113.179 186.006 112.416 184.792 111.67C178.463 107.82 173.764 104.663 183.578 106.259C195.335 108.15 207.942 109.832 204.058 102.513C204.231 102.461 195.474 75.5252 226.947 84.9431C258.559 94.2916 268.512 97.9339 300.731 91.135C307.009 89.8168 312.349 89.574 317.101 90.0596C341.655 92.6439 350.013 115.139 389.272 109.554C418.89 105.34 411.139 89.1751 428.358 89.7995" stroke="black" stroke-width="0.231884" stroke-miterlimit="10"/>
<path d="M-83.6406 88.3946C-66.8203 87.4927 -40.1332 70.5995 -15.8217 97.8645C7.08518 123.534 21.5299 102.27 53.6619 83.6597C85.794 65.0494 111.666 93.5111 136.307 109.19C151.567 118.886 162.647 131.252 177.699 134.842C222.958 145.648 248.102 105.826 232.877 78.387C232.877 78.387 223.322 55.5794 192.074 55.5274C157.913 55.458 128.244 109.867 179.468 130.905C183.196 132.431 191.329 134.062 195.525 132.414C199.721 130.766 188.017 125.216 191.017 123.118C194.016 121.019 195.213 118.608 187.254 113.804C179.294 108.999 170.104 104.039 181.982 105.999C193.86 107.959 206.606 109.676 202.565 102.253C202.565 102.253 193.479 74.8488 225.455 84.5269C257.431 94.2049 267.367 98.09 299.846 91.187C339.07 82.8618 341.585 116.718 389.028 109.797C419.045 105.427 410.947 88.8803 428.357 89.47" stroke="black" stroke-width="0.231884" stroke-miterlimit="10"/>
<path d="M191.348 -1.31055H-41V192.077H191.348V-1.31055Z" fill="url(#paint0_linear_11258_787)"/>
<path d="M374.999 -1.31055H250.979V192.077H374.999V-1.31055Z" fill="url(#paint1_linear_11258_787)"/>
</g>
<rect x="118" y="191.899" width="118" height="191.822" transform="rotate(180 118 191.899)" fill="url(#paint2_linear_11258_787)"/>
<rect x="218" y="0.0771484" width="142" height="191.822" fill="url(#paint3_linear_11258_787)"/>
<defs>
<linearGradient id="paint0_linear_11258_787" x1="-41" y1="95.3832" x2="191.345" y2="95.3832" gradientUnits="userSpaceOnUse">
<stop offset="0.1" stop-color="white"/>
<stop offset="0.22" stop-color="white" stop-opacity="0.98"/>
<stop offset="0.33" stop-color="white" stop-opacity="0.94"/>
<stop offset="0.44" stop-color="white" stop-opacity="0.86"/>
<stop offset="0.55" stop-color="white" stop-opacity="0.75"/>
<stop offset="0.67" stop-color="white" stop-opacity="0.61"/>
<stop offset="0.78" stop-color="white" stop-opacity="0.44"/>
<stop offset="0.89" stop-color="white" stop-opacity="0.23"/>
<stop offset="1" stop-color="white" stop-opacity="0"/>
</linearGradient>
<linearGradient id="paint1_linear_11258_787" x1="374.999" y1="95.3832" x2="250.983" y2="95.3832" gradientUnits="userSpaceOnUse">
<stop offset="0.1" stop-color="white"/>
<stop offset="0.22" stop-color="white" stop-opacity="0.98"/>
<stop offset="0.33" stop-color="white" stop-opacity="0.94"/>
<stop offset="0.44" stop-color="white" stop-opacity="0.86"/>
<stop offset="0.55" stop-color="white" stop-opacity="0.75"/>
<stop offset="0.67" stop-color="white" stop-opacity="0.61"/>
<stop offset="0.78" stop-color="white" stop-opacity="0.44"/>
<stop offset="0.89" stop-color="white" stop-opacity="0.23"/>
<stop offset="1" stop-color="white" stop-opacity="0"/>
</linearGradient>
<linearGradient id="paint2_linear_11258_787" x1="129.683" y1="191.899" x2="236" y2="191.899" gradientUnits="userSpaceOnUse">
<stop stop-color="white" stop-opacity="0"/>
<stop offset="0.895833" stop-color="white"/>
</linearGradient>
<linearGradient id="paint3_linear_11258_787" x1="232.059" y1="0.0771484" x2="360" y2="0.0771487" gradientUnits="userSpaceOnUse">
<stop stop-color="white" stop-opacity="0"/>
<stop offset="0.895833" stop-color="white"/>
</linearGradient>
<clipPath id="clip0_11258_787">
<rect width="360" height="192" fill="white" transform="translate(0 0.078125)"/>
</clipPath>
</defs>
</svg>
