<svg width="477" height="602" viewBox="0 0 477 602" fill="none" xmlns="http://www.w3.org/2000/svg">
<path d="M68 539L68 589L476 589L476 539.602" stroke="#23C865" stroke-dasharray="20 20"/>
<rect width="34" height="27" transform="translate(255 575)" fill="white"/>
<path d="M272.38 581.8C273.3 581.8 274.087 581.913 274.74 582.14C275.393 582.367 275.98 582.613 276.5 582.88L275.74 584.26C275.247 583.98 274.72 583.74 274.16 583.54C273.6 583.34 272.98 583.24 272.3 583.24C271.7 583.24 271.26 583.38 270.98 583.66C270.7 583.927 270.56 584.247 270.56 584.62C270.56 584.94 270.647 585.227 270.82 585.48C270.993 585.733 271.273 586 271.66 586.28C272.06 586.547 272.587 586.86 273.24 587.22C274.453 587.873 275.38 588.593 276.02 589.38C276.673 590.153 277 591.12 277 592.28C277 593.88 276.54 595.1 275.62 595.94C274.713 596.78 273.507 597.2 272 597.2C271.053 597.2 270.207 597.027 269.46 596.68C268.713 596.333 268.127 595.827 267.7 595.16C267.287 594.48 267.08 593.667 267.08 592.72C267.08 591.867 267.26 591.12 267.62 590.48C267.993 589.84 268.493 589.307 269.12 588.88C269.76 588.44 270.473 588.107 271.26 587.88C270.513 587.453 269.913 586.987 269.46 586.48C269.007 585.96 268.78 585.333 268.78 584.6C268.78 583.68 269.12 582.987 269.8 582.52C270.493 582.04 271.353 581.8 272.38 581.8ZM272.66 588.64C272.247 588.733 271.82 588.88 271.38 589.08C270.953 589.267 270.553 589.52 270.18 589.84C269.807 590.147 269.5 590.54 269.26 591.02C269.033 591.487 268.92 592.06 268.92 592.74C268.92 593.62 269.187 594.34 269.72 594.9C270.267 595.46 271.027 595.74 272 595.74C273.027 595.74 273.813 595.447 274.36 594.86C274.907 594.26 275.18 593.407 275.18 592.3C275.18 591.393 274.953 590.66 274.5 590.1C274.06 589.54 273.447 589.053 272.66 588.64Z" fill="#23C865"/>
<path d="M115.696 477.853H116.319L119.437 479.811M115.696 477.853C113.098 474.568 105.122 468 93.999 468C82.8763 468 74.9 474.568 72.3022 477.853M115.696 477.853H72.3022M72.3022 477.853H71.8034L68.499 479.811M68.499 479.811H119.437M68.499 479.811V486H119.437V479.811" stroke="#23C865"/>
<path d="M166.634 477.853H167.258L170.375 479.811M166.634 477.853C164.036 474.568 156.06 468 144.937 468C133.815 468 125.838 474.568 123.241 477.853M166.634 477.853H123.241M123.241 477.853H122.742L119.438 479.811M119.438 479.811H170.375M119.438 479.811V486H170.375V479.811" stroke="#23C865"/>
<path d="M217.572 477.853H218.195L221.313 479.811M217.572 477.853C214.974 474.568 206.998 468 195.875 468C184.752 468 176.776 474.568 174.178 477.853M217.572 477.853H174.178M174.178 477.853H173.679L170.375 479.811M170.375 479.811H221.313M170.375 479.811V486H221.313V479.811" stroke="#23C865"/>
<path d="M268.509 477.853H269.133L272.25 479.811M268.509 477.853C265.911 474.568 257.935 468 246.812 468C235.69 468 227.713 474.568 225.116 477.853M268.509 477.853H225.116M225.116 477.853H224.617L221.312 479.811M221.312 479.811H272.25M221.312 479.811V486H272.25V479.811" stroke="#23C865"/>
<path d="M319.447 477.853H320.07L323.188 479.811M319.447 477.853C316.849 474.568 308.873 468 297.75 468C286.627 468 278.651 474.568 276.053 477.853M319.447 477.853H276.053M276.053 477.853H275.554L272.25 479.811M272.25 479.811H323.188M272.25 479.811V486H323.188V479.811" stroke="#23C865"/>
<path d="M370.384 477.853H371.008L374.125 479.811M370.384 477.853C367.786 474.568 359.81 468 348.687 468C337.565 468 329.588 474.568 326.991 477.853M370.384 477.853H326.991M326.991 477.853H326.492L323.188 479.811M323.188 479.811H374.125M323.188 479.811V486H374.125V479.811" stroke="#23C865"/>
<path d="M421.322 477.853H421.945L425.063 479.811M421.322 477.853C418.724 474.568 410.748 468 399.625 468C388.502 468 380.526 474.568 377.928 477.853M421.322 477.853H377.928M377.928 477.853H377.429L374.125 479.811M374.125 479.811H425.063M374.125 479.811V486H425.063V479.811" stroke="#23C865"/>
<path d="M472.259 477.853H472.883L476 479.811M472.259 477.853C469.661 474.568 461.685 468 450.562 468C439.44 468 431.463 474.568 428.866 477.853M472.259 477.853H428.866M428.866 477.853H428.367L425.062 479.811M425.062 479.811H476M425.062 479.811V486H476V479.811" stroke="#23C865"/>
<path d="M68.499 486.063V529H119.437V486" stroke="#23C865" stroke-width="2"/>
<path d="M119.438 486.063V529H170.375V486" stroke="#23C865" stroke-width="2"/>
<path d="M170.375 486.063V529H221.313V486" stroke="#23C865" stroke-width="2"/>
<path d="M221.312 486.063V529H272.25V486" stroke="#23C865" stroke-width="2"/>
<path d="M272.25 486.063V529H323.188V486" stroke="#23C865" stroke-width="2"/>
<path d="M323.188 486.063V529H374.125V486" stroke="#23C865" stroke-width="2"/>
<path d="M374.125 486.063V529H425.063V486" stroke="#23C865" stroke-width="2"/>
<path d="M425.062 486.063V529H476V486" stroke="#23C865" stroke-width="2"/>
<path d="M446.037 79.5H451.031L476 95M446.037 79.5C425.229 53.5 361.341 1.5 272.25 1.5C183.159 1.5 119.271 53.5 98.4627 79.5M446.037 79.5H98.4627M98.4627 79.5H94.4676L68 95M68 95H476M68 95V144H476V95" stroke="#23C865" stroke-width="2"/>
<path d="M68.499 144.5V486H476V144" stroke="#23C865" stroke-width="2"/>
<path d="M53 144H12V486H52.506" stroke="#23C865" stroke-dasharray="20 20"/>
<rect width="23" height="67" transform="translate(0 282)" fill="white"/>
<path d="M10.5 323.2C9.19333 323.2 8.13333 322.74 7.32 321.82C6.50667 320.887 6.1 319.507 6.1 317.68C6.1 315.867 6.5 314.48 7.3 313.52C8.1 312.56 9.22 312.08 10.66 312.08C11.4467 312.08 12.1 312.22 12.62 312.5C13.1533 312.767 13.5933 313.173 13.94 313.72H14.06C14.1267 313.493 14.2133 313.247 14.32 312.98C14.4267 312.713 14.5533 312.48 14.7 312.28H16.08C15.9867 312.573 15.9 312.96 15.82 313.44C15.74 313.92 15.68 314.427 15.64 314.96C15.6 315.493 15.58 316 15.58 316.48V320.64C15.58 321.053 15.66 321.347 15.82 321.52C15.98 321.68 16.1733 321.76 16.4 321.76C16.5067 321.76 16.62 321.747 16.74 321.72C16.86 321.693 16.9467 321.673 17 321.66V322.94C16.9067 322.993 16.7533 323.047 16.54 323.1C16.3267 323.167 16.1067 323.2 15.88 323.2C15.3867 323.2 14.98 323.08 14.66 322.84C14.3533 322.6 14.1267 322.173 13.98 321.56H13.84C13.5333 322.013 13.1267 322.4 12.62 322.72C12.1133 323.04 11.4067 323.2 10.5 323.2ZM10.8 321.74C11.9067 321.74 12.6867 321.427 13.14 320.8C13.6067 320.16 13.84 319.153 13.84 317.78V317.66C13.84 316.327 13.62 315.313 13.18 314.62C12.7533 313.913 11.9533 313.56 10.78 313.56C9.80667 313.56 9.08667 313.913 8.62 314.62C8.15333 315.327 7.92 316.353 7.92 317.7C7.92 319.033 8.14667 320.04 8.6 320.72C9.06667 321.4 9.8 321.74 10.8 321.74Z" fill="#23C865"/>
<path d="M112.945 144.5V183.5M112.945 183.5H261.763M112.945 183.5L119.937 187.5M261.763 183.5V174.5H282.737V183.5M261.763 183.5V187M261.763 183.5V203.5M282.737 183.5H430.057M282.737 183.5V187M430.057 183.5V144.5M430.057 183.5L424.563 187M424.563 187H282.737M424.563 187L430.057 197.5M282.737 187V197.5M282.737 197.5H430.057M282.737 197.5V203.5M282.737 197.5H261.763M430.057 197.5V203.5H329.68M282.737 203.5H261.763M282.737 203.5H329.68M261.763 197.5V203.5M261.763 197.5H112.945M261.763 197.5V187M261.763 203.5H214.82M112.945 197.5V203.5H214.82M112.945 197.5L119.937 187.5M261.763 187L119.937 187.5M214.82 203.5V211M214.82 211H210.825V300.5M214.82 211H329.68M214.82 211V300.5M210.825 300.5H214.82M210.825 300.5L214.82 303.5H329.68L333.175 300.5M333.175 300.5V211H329.68M333.175 300.5H329.68M329.68 211V203.5M329.68 211V300.5M329.68 300.5H214.82M261.763 208V261M282.737 208V261" stroke="#23C865"/>
</svg>
