<svg width="410" height="135" viewBox="0 0 410 135" fill="none" xmlns="http://www.w3.org/2000/svg">
<path d="M1 72L1 122L409 122L409 72.6024" stroke="#23C865" stroke-dasharray="20 20"/>
<rect width="34" height="27" transform="translate(188 108)" fill="white"/>
<path d="M205.38 114.8C206.3 114.8 207.087 114.913 207.74 115.14C208.393 115.367 208.98 115.613 209.5 115.88L208.74 117.26C208.247 116.98 207.72 116.74 207.16 116.54C206.6 116.34 205.98 116.24 205.3 116.24C204.7 116.24 204.26 116.38 203.98 116.66C203.7 116.927 203.56 117.247 203.56 117.62C203.56 117.94 203.647 118.227 203.82 118.48C203.993 118.733 204.273 119 204.66 119.28C205.06 119.547 205.587 119.86 206.24 120.22C207.453 120.873 208.38 121.593 209.02 122.38C209.673 123.153 210 124.12 210 125.28C210 126.88 209.54 128.1 208.62 128.94C207.713 129.78 206.507 130.2 205 130.2C204.053 130.2 203.207 130.027 202.46 129.68C201.713 129.333 201.127 128.827 200.7 128.16C200.287 127.48 200.08 126.667 200.08 125.72C200.08 124.867 200.26 124.12 200.62 123.48C200.993 122.84 201.493 122.307 202.12 121.88C202.76 121.44 203.473 121.107 204.26 120.88C203.513 120.453 202.913 119.987 202.46 119.48C202.007 118.96 201.78 118.333 201.78 117.6C201.78 116.68 202.12 115.987 202.8 115.52C203.493 115.04 204.353 114.8 205.38 114.8ZM205.66 121.64C205.247 121.733 204.82 121.88 204.38 122.08C203.953 122.267 203.553 122.52 203.18 122.84C202.807 123.147 202.5 123.54 202.26 124.02C202.033 124.487 201.92 125.06 201.92 125.74C201.92 126.62 202.187 127.34 202.72 127.9C203.267 128.46 204.027 128.74 205 128.74C206.027 128.74 206.813 128.447 207.36 127.86C207.907 127.26 208.18 126.407 208.18 125.3C208.18 124.393 207.953 123.66 207.5 123.1C207.06 122.54 206.447 122.053 205.66 121.64Z" fill="#23C865"/>
<path d="M48.6958 10.8526H49.3192L52.4366 12.8105M48.6958 10.8526C46.098 7.56842 38.1217 1 26.999 1C15.8763 1 7.89999 7.56842 5.3022 10.8526M48.6958 10.8526H5.3022M5.3022 10.8526H4.80342L1.49902 12.8105M1.49902 12.8105H52.4366M1.49902 12.8105V19H52.4366V12.8105" stroke="#23C865"/>
<path d="M99.6343 10.8526H100.258L103.375 12.8105M99.6343 10.8526C97.0365 7.56842 89.0602 1 77.9375 1C66.8147 1 58.8385 7.56842 56.2407 10.8526M99.6343 10.8526H56.2407M56.2407 10.8526H55.7419L52.4375 12.8105M52.4375 12.8105H103.375M52.4375 12.8105V19H103.375V12.8105" stroke="#23C865"/>
<path d="M150.572 10.8526H151.195L154.313 12.8105M150.572 10.8526C147.974 7.56842 139.998 1 128.875 1C117.752 1 109.776 7.56842 107.178 10.8526M150.572 10.8526H107.178M107.178 10.8526H106.679L103.375 12.8105M103.375 12.8105H154.313M103.375 12.8105V19H154.313V12.8105" stroke="#23C865"/>
<path d="M201.509 10.8526H202.133L205.25 12.8105M201.509 10.8526C198.911 7.56842 190.935 1 179.812 1C168.69 1 160.713 7.56842 158.116 10.8526M201.509 10.8526H158.116M158.116 10.8526H157.617L154.312 12.8105M154.312 12.8105H205.25M154.312 12.8105V19H205.25V12.8105" stroke="#23C865"/>
<path d="M252.447 10.8526H253.07L256.188 12.8105M252.447 10.8526C249.849 7.56842 241.873 1 230.75 1C219.627 1 211.651 7.56842 209.053 10.8526M252.447 10.8526H209.053M209.053 10.8526H208.554L205.25 12.8105M205.25 12.8105H256.188M205.25 12.8105V19H256.188V12.8105" stroke="#23C865"/>
<path d="M303.384 10.8526H304.008L307.125 12.8105M303.384 10.8526C300.786 7.56842 292.81 1 281.687 1C270.565 1 262.588 7.56842 259.991 10.8526M303.384 10.8526H259.991M259.991 10.8526H259.492L256.188 12.8105M256.188 12.8105H307.125M256.188 12.8105V19H307.125V12.8105" stroke="#23C865"/>
<path d="M354.322 10.8526H354.945L358.063 12.8105M354.322 10.8526C351.724 7.56842 343.748 1 332.625 1C321.502 1 313.526 7.56842 310.928 10.8526M354.322 10.8526H310.928M310.928 10.8526H310.429L307.125 12.8105M307.125 12.8105H358.063M307.125 12.8105V19H358.063V12.8105" stroke="#23C865"/>
<path d="M405.259 10.8526H405.883L409 12.8105M405.259 10.8526C402.661 7.56842 394.685 1 383.562 1C372.44 1 364.463 7.56842 361.866 10.8526M405.259 10.8526H361.866M361.866 10.8526H361.367L358.062 12.8105M358.062 12.8105H409M358.062 12.8105V19H409V12.8105" stroke="#23C865"/>
<path d="M1.49902 19.0629V62H52.4366V19" stroke="#23C865" stroke-width="2"/>
<path d="M52.4375 19.0629V62H103.375V19" stroke="#23C865" stroke-width="2"/>
<path d="M103.375 19.0629V62H154.313V19" stroke="#23C865" stroke-width="2"/>
<path d="M154.312 19.0629V62H205.25V19" stroke="#23C865" stroke-width="2"/>
<path d="M205.25 19.0629V62H256.188V19" stroke="#23C865" stroke-width="2"/>
<path d="M256.188 19.0629V62H307.125V19" stroke="#23C865" stroke-width="2"/>
<path d="M307.125 19.0629V62H358.063V19" stroke="#23C865" stroke-width="2"/>
<path d="M358.062 19.0629V62H409V19" stroke="#23C865" stroke-width="2"/>
</svg>
