<svg width="477" height="344" viewBox="0 0 477 344" fill="none" xmlns="http://www.w3.org/2000/svg">
<path d="M68.499 1.5V343H476V1" stroke="#23C865" stroke-width="2"/>
<path d="M53 1H12V343H52.506" stroke="#23C865" stroke-dasharray="20 20"/>
<rect width="23" height="67" transform="translate(0 139)" fill="white"/>
<path d="M10.5 180.2C9.19333 180.2 8.13333 179.74 7.32 178.82C6.50667 177.887 6.1 176.507 6.1 174.68C6.1 172.867 6.5 171.48 7.3 170.52C8.1 169.56 9.22 169.08 10.66 169.08C11.4467 169.08 12.1 169.22 12.62 169.5C13.1533 169.767 13.5933 170.173 13.94 170.72H14.06C14.1267 170.493 14.2133 170.247 14.32 169.98C14.4267 169.713 14.5533 169.48 14.7 169.28H16.08C15.9867 169.573 15.9 169.96 15.82 170.44C15.74 170.92 15.68 171.427 15.64 171.96C15.6 172.493 15.58 173 15.58 173.48V177.64C15.58 178.053 15.66 178.347 15.82 178.52C15.98 178.68 16.1733 178.76 16.4 178.76C16.5067 178.76 16.62 178.747 16.74 178.72C16.86 178.693 16.9467 178.673 17 178.66V179.94C16.9067 179.993 16.7533 180.047 16.54 180.1C16.3267 180.167 16.1067 180.2 15.88 180.2C15.3867 180.2 14.98 180.08 14.66 179.84C14.3533 179.6 14.1267 179.173 13.98 178.56H13.84C13.5333 179.013 13.1267 179.4 12.62 179.72C12.1133 180.04 11.4067 180.2 10.5 180.2ZM10.8 178.74C11.9067 178.74 12.6867 178.427 13.14 177.8C13.6067 177.16 13.84 176.153 13.84 174.78V174.66C13.84 173.327 13.62 172.313 13.18 171.62C12.7533 170.913 11.9533 170.56 10.78 170.56C9.80667 170.56 9.08667 170.913 8.62 171.62C8.15333 172.327 7.92 173.353 7.92 174.7C7.92 176.033 8.14667 177.04 8.6 177.72C9.06667 178.4 9.8 178.74 10.8 178.74Z" fill="#23C865"/>
</svg>
