<svg width="319" height="227" viewBox="0 0 319 227" fill="none" xmlns="http://www.w3.org/2000/svg">
<path d="M98 179.406L98 213.406L222 213.406L222 179.816" stroke="#23C865" stroke-dasharray="20 20"/>
<rect width="34" height="27" transform="translate(143 199.406)" fill="white"/>
<path id="beta" d="M161.48 204.106C162.373 204.106 163.167 204.253 163.86 204.546C164.553 204.826 165.093 205.246 165.48 205.806C165.88 206.366 166.08 207.073 166.08 207.926C166.08 208.886 165.82 209.646 165.3 210.206C164.78 210.766 164.027 211.126 163.04 211.286V211.366C164.253 211.5 165.167 211.893 165.78 212.546C166.407 213.2 166.72 214.133 166.72 215.346C166.72 216.72 166.287 217.773 165.42 218.506C164.567 219.24 163.373 219.606 161.84 219.606C161.067 219.606 160.413 219.546 159.88 219.426C159.36 219.306 158.887 219.14 158.46 218.926V224.206H156.7V208.706C156.7 207.626 156.907 206.753 157.32 206.086C157.733 205.406 158.3 204.906 159.02 204.586C159.74 204.266 160.56 204.106 161.48 204.106ZM161.44 205.566C160.907 205.566 160.413 205.66 159.96 205.846C159.507 206.033 159.14 206.36 158.86 206.826C158.593 207.293 158.46 207.946 158.46 208.786V217.346C158.927 217.586 159.407 217.786 159.9 217.946C160.407 218.093 161 218.166 161.68 218.166C162.827 218.166 163.66 217.913 164.18 217.406C164.7 216.886 164.96 216.16 164.96 215.226C164.96 214.173 164.64 213.406 164 212.926C163.36 212.433 162.52 212.186 161.48 212.186H160.42V210.706H161.28C162.32 210.706 163.08 210.46 163.56 209.966C164.04 209.473 164.28 208.82 164.28 208.006C164.28 207.18 164.02 206.566 163.5 206.166C162.993 205.766 162.307 205.566 161.44 205.566Z" fill="#23C865"/>
<path d="M0.944824 0.90625V39.9062M0.944824 39.9062H149.762M0.944824 39.9062L7.93626 43.9062M149.762 39.9062V30.9062H170.737V39.9062M149.762 39.9062V43.4062M149.762 39.9062V59.9062M170.737 39.9062H318.056M170.737 39.9062V43.4062M318.056 39.9062V0.90625M318.056 39.9062L312.563 43.4062M312.563 43.4062H170.737M312.563 43.4062L318.056 53.9062M170.737 43.4062V53.9062M170.737 53.9062H318.056M170.737 53.9062V59.9062M170.737 53.9062H149.762M318.056 53.9062V59.9062H217.679M170.737 59.9062H149.762M170.737 59.9062H217.679M149.762 53.9062V59.9062M149.762 53.9062H0.944824M149.762 53.9062V43.4062M149.762 59.9062H102.82M0.944824 53.9062V59.9062H102.82M0.944824 53.9062L7.93626 43.9062M149.762 43.4062L7.93626 43.9062M102.82 59.9062V67.4062M102.82 67.4062H98.8249V156.906M102.82 67.4062H217.679M102.82 67.4062V156.906M98.8249 156.906H102.82M98.8249 156.906L102.82 159.906H217.679L221.175 156.906M221.175 156.906V67.4062H217.679M221.175 156.906H217.679M217.679 67.4062V59.9062M217.679 67.4062V156.906M217.679 156.906H102.82M149.762 64.4062V117.406M170.737 64.4062V117.406" stroke="#23C865"/>
</svg>
