<svg width="1300" height="806" viewBox="0 0 1300 806" fill="none" xmlns="http://www.w3.org/2000/svg">
<path d="M568.75 -99.5938V944.406" stroke="#E9E9E9" stroke-dasharray="3 3"/>
<path d="M589.062 -99.5938V944.406" stroke="#E9E9E9" stroke-dasharray="3 3"/>
<path d="M609.375 -99.5938V944.406" stroke="#E9E9E9" stroke-dasharray="3 3"/>
<path d="M629.688 -99.5938V944.406" stroke="#E9E9E9" stroke-dasharray="3 3"/>
<path d="M650 -99.5938V944.406" stroke="#E9E9E9" stroke-dasharray="3 3"/>
<path d="M670.312 -99.5938V944.406" stroke="#E9E9E9" stroke-dasharray="3 3"/>
<path d="M690.625 -99.5938V944.406" stroke="#E9E9E9" stroke-dasharray="3 3"/>
<path d="M710.938 -99.5938V944.406" stroke="#E9E9E9" stroke-dasharray="3 3"/>
<path d="M731.25 -99.5938V944.406" stroke="#E9E9E9" stroke-dasharray="3 3"/>
<path d="M751.562 -99.5938V944.406" stroke="#E9E9E9" stroke-dasharray="3 3"/>
<path d="M771.875 -99.5938V944.406" stroke="#E9E9E9" stroke-dasharray="3 3"/>
<path d="M792.188 -99.5938V944.406" stroke="#E9E9E9" stroke-dasharray="3 3"/>
<path d="M812.5 -99.5938V944.406" stroke="#E9E9E9" stroke-dasharray="3 3"/>
<path d="M832.812 -99.5938V944.406" stroke="#E9E9E9" stroke-dasharray="3 3"/>
<path d="M853.125 -99.5938V944.406" stroke="#E9E9E9" stroke-dasharray="3 3"/>
<path d="M873.438 -99.5938V944.406" stroke="#E9E9E9" stroke-dasharray="3 3"/>
<path d="M893.75 -99.5938V944.406" stroke="#E9E9E9" stroke-dasharray="3 3"/>
<path d="M914.062 -99.5938V944.406" stroke="#E9E9E9" stroke-dasharray="3 3"/>
<path d="M934.375 -99.5938V944.406" stroke="#E9E9E9" stroke-dasharray="3 3"/>
<path d="M954.688 -99.5938V944.406" stroke="#E9E9E9" stroke-dasharray="3 3"/>
<path d="M975 -99.5938V944.406" stroke="#E9E9E9" stroke-dasharray="3 3"/>
<path d="M995.312 -99.5938V944.406" stroke="#E9E9E9" stroke-dasharray="3 3"/>
<path d="M1015.62 -99.5938V944.406" stroke="#E9E9E9" stroke-dasharray="3 3"/>
<path d="M1035.94 -99.5938V944.406" stroke="#E9E9E9" stroke-dasharray="3 3"/>
<path d="M1056.25 -99.5938V944.406" stroke="#E9E9E9" stroke-dasharray="3 3"/>
<path d="M1076.56 -99.5938V944.406" stroke="#E9E9E9" stroke-dasharray="3 3"/>
<path d="M1096.88 -99.5938V944.406" stroke="#E9E9E9" stroke-dasharray="3 3"/>
<path d="M1117.19 -99.5938V944.406" stroke="#E9E9E9" stroke-dasharray="3 3"/>
<path d="M1137.5 -99.5938V944.406" stroke="#E9E9E9" stroke-dasharray="3 3"/>
<path d="M1157.81 -99.5938V944.406" stroke="#E9E9E9" stroke-dasharray="3 3"/>
<path d="M1178.12 -99.5938V944.406" stroke="#E9E9E9" stroke-dasharray="3 3"/>
<path d="M1198.44 -99.5938V944.406" stroke="#E9E9E9" stroke-dasharray="3 3"/>
<path d="M1218.75 -99.5938V944.406" stroke="#E9E9E9" stroke-dasharray="3 3"/>
<path d="M1239.06 -99.5938V944.406" stroke="#E9E9E9" stroke-dasharray="3 3"/>
<path d="M1259.38 -99.5938V944.406" stroke="#E9E9E9" stroke-dasharray="3 3"/>
<path d="M1279.69 -99.5938V944.406" stroke="#E9E9E9" stroke-dasharray="3 3"/>
<path d="M1300 -99.5938V944.406" stroke="#E9E9E9" stroke-dasharray="3 3"/>
<path d="M0 -99.5938V944.406" stroke="#E9E9E9" stroke-dasharray="3 3"/>
<path d="M20.3125 -99.5938V944.406" stroke="#E9E9E9" stroke-dasharray="3 3"/>
<path d="M40.625 -99.5938V944.406" stroke="#E9E9E9" stroke-dasharray="3 3"/>
<path d="M60.9375 -99.5938V944.406" stroke="#E9E9E9" stroke-dasharray="3 3"/>
<path d="M81.25 -99.5938V944.406" stroke="#E9E9E9" stroke-dasharray="3 3"/>
<path d="M101.562 -99.5938V944.406" stroke="#E9E9E9" stroke-dasharray="3 3"/>
<path d="M121.875 -99.5938V944.406" stroke="#E9E9E9" stroke-dasharray="3 3"/>
<path d="M142.188 -99.5938V944.406" stroke="#E9E9E9" stroke-dasharray="3 3"/>
<path d="M162.5 -99.5938V944.406" stroke="#E9E9E9" stroke-dasharray="3 3"/>
<path d="M182.812 -99.5938V944.406" stroke="#E9E9E9" stroke-dasharray="3 3"/>
<path d="M203.125 -99.5938V944.406" stroke="#E9E9E9" stroke-dasharray="3 3"/>
<path d="M223.438 -99.5938V944.406" stroke="#E9E9E9" stroke-dasharray="3 3"/>
<path d="M243.75 -99.5938V944.406" stroke="#E9E9E9" stroke-dasharray="3 3"/>
<path d="M264.062 -99.5938V944.406" stroke="#E9E9E9" stroke-dasharray="3 3"/>
<path d="M284.375 -99.5938V944.406" stroke="#E9E9E9" stroke-dasharray="3 3"/>
<path d="M304.688 -99.5938V944.406" stroke="#E9E9E9" stroke-dasharray="3 3"/>
<path d="M325 -99.5938V944.406" stroke="#E9E9E9" stroke-dasharray="3 3"/>
<path d="M345.312 -99.5938V944.406" stroke="#E9E9E9" stroke-dasharray="3 3"/>
<path d="M365.625 -99.5938V944.406" stroke="#E9E9E9" stroke-dasharray="3 3"/>
<path d="M385.938 -99.5938V944.406" stroke="#E9E9E9" stroke-dasharray="3 3"/>
<path d="M406.25 -99.5938V944.406" stroke="#E9E9E9" stroke-dasharray="3 3"/>
<path d="M426.562 -99.5938V944.406" stroke="#E9E9E9" stroke-dasharray="3 3"/>
<path d="M446.875 -99.5938V944.406" stroke="#E9E9E9" stroke-dasharray="3 3"/>
<path d="M467.188 -99.5938V944.406" stroke="#E9E9E9" stroke-dasharray="3 3"/>
<path d="M487.5 -99.5938V944.406" stroke="#E9E9E9" stroke-dasharray="3 3"/>
<path d="M507.812 -99.5938V944.406" stroke="#E9E9E9" stroke-dasharray="3 3"/>
<path d="M528.125 -99.5938V944.406" stroke="#E9E9E9" stroke-dasharray="3 3"/>
<path d="M548.438 -99.5938V944.406" stroke="#E9E9E9" stroke-dasharray="3 3"/>
<path d="M0 9.15625H548.438" stroke="#E9E9E9" stroke-dasharray="3 3"/>
<path d="M0 30.9062H548.438" stroke="#E9E9E9" stroke-dasharray="3 3"/>
<path d="M0 52.6562H548.438" stroke="#E9E9E9" stroke-dasharray="3 3"/>
<path d="M0 74.4062H548.438" stroke="#E9E9E9" stroke-dasharray="3 3"/>
<path d="M0 96.1562H548.438" stroke="#E9E9E9" stroke-dasharray="3 3"/>
<path d="M0 117.906H548.438" stroke="#E9E9E9" stroke-dasharray="3 3"/>
<path d="M0 139.656H548.438" stroke="#E9E9E9" stroke-dasharray="3 3"/>
<path d="M0 161.406H548.438" stroke="#E9E9E9" stroke-dasharray="3 3"/>
<path d="M0 183.156H548.438" stroke="#E9E9E9" stroke-dasharray="3 3"/>
<path d="M0 204.906H548.438" stroke="#E9E9E9" stroke-dasharray="3 3"/>
<path d="M0 226.656H548.438" stroke="#E9E9E9" stroke-dasharray="3 3"/>
<path d="M0 248.406H548.438" stroke="#E9E9E9" stroke-dasharray="3 3"/>
<path d="M0 270.156H548.438" stroke="#E9E9E9" stroke-dasharray="3 3"/>
<path d="M0 291.906H548.438" stroke="#E9E9E9" stroke-dasharray="3 3"/>
<path d="M0 313.656H548.438" stroke="#E9E9E9" stroke-dasharray="3 3"/>
<path d="M0 335.406H548.438" stroke="#E9E9E9" stroke-dasharray="3 3"/>
<path d="M0 357.156H548.438" stroke="#E9E9E9" stroke-dasharray="3 3"/>
<path d="M0 378.906H548.438" stroke="#E9E9E9" stroke-dasharray="3 3"/>
<path d="M0 400.656H548.438" stroke="#E9E9E9" stroke-dasharray="3 3"/>
<path d="M0 422.406H548.438" stroke="#E9E9E9" stroke-dasharray="3 3"/>
<path d="M0 444.156H548.438" stroke="#E9E9E9" stroke-dasharray="3 3"/>
<path d="M0 465.906H548.438" stroke="#E9E9E9" stroke-dasharray="3 3"/>
<path d="M0 487.656H548.438" stroke="#E9E9E9" stroke-dasharray="3 3"/>
<path d="M0 509.406H548.438" stroke="#E9E9E9" stroke-dasharray="3 3"/>
<path d="M0 531.156H548.438" stroke="#E9E9E9" stroke-dasharray="3 3"/>
<path d="M0 552.906H548.438" stroke="#E9E9E9" stroke-dasharray="3 3"/>
<path d="M0 574.656H548.438" stroke="#E9E9E9" stroke-dasharray="3 3"/>
<path d="M0 596.406H548.438" stroke="#E9E9E9" stroke-dasharray="3 3"/>
<path d="M0 618.156H548.438" stroke="#E9E9E9" stroke-dasharray="3 3"/>
<path d="M0 639.906H548.438" stroke="#E9E9E9" stroke-dasharray="3 3"/>
<path d="M0 661.656H548.438" stroke="#E9E9E9" stroke-dasharray="3 3"/>
<path d="M0 683.406H548.438" stroke="#E9E9E9" stroke-dasharray="3 3"/>
<path d="M0 705.156H548.438" stroke="#E9E9E9" stroke-dasharray="3 3"/>
<path d="M0 726.906H548.438" stroke="#E9E9E9" stroke-dasharray="3 3"/>
<path d="M0 748.656H548.438" stroke="#E9E9E9" stroke-dasharray="3 3"/>
<path d="M0 770.406H548.438" stroke="#E9E9E9" stroke-dasharray="3 3"/>
<path d="M0 792.156H548.438" stroke="#E9E9E9" stroke-dasharray="3 3"/>
<path d="M548.438 9.15625H1096.88" stroke="#E9E9E9" stroke-dasharray="3 3"/>
<path d="M548.438 30.9062H1096.88" stroke="#E9E9E9" stroke-dasharray="3 3"/>
<path d="M548.438 52.6562H1096.88" stroke="#E9E9E9" stroke-dasharray="3 3"/>
<path d="M548.438 74.4062H1096.88" stroke="#E9E9E9" stroke-dasharray="3 3"/>
<path d="M548.438 96.1562H1096.88" stroke="#E9E9E9" stroke-dasharray="3 3"/>
<path d="M548.438 117.906H1096.88" stroke="#E9E9E9" stroke-dasharray="3 3"/>
<path d="M548.438 139.656H1096.88" stroke="#E9E9E9" stroke-dasharray="3 3"/>
<path d="M548.438 161.406H1096.88" stroke="#E9E9E9" stroke-dasharray="3 3"/>
<path d="M548.438 183.156H1096.88" stroke="#E9E9E9" stroke-dasharray="3 3"/>
<path d="M548.438 204.906H1096.88" stroke="#E9E9E9" stroke-dasharray="3 3"/>
<path d="M548.438 226.656H1096.88" stroke="#E9E9E9" stroke-dasharray="3 3"/>
<path d="M548.438 248.406H1096.88" stroke="#E9E9E9" stroke-dasharray="3 3"/>
<path d="M548.438 270.156H1096.88" stroke="#E9E9E9" stroke-dasharray="3 3"/>
<path d="M548.438 291.906H1096.88" stroke="#E9E9E9" stroke-dasharray="3 3"/>
<path d="M548.438 313.656H1096.88" stroke="#E9E9E9" stroke-dasharray="3 3"/>
<path d="M548.438 335.406H1096.88" stroke="#E9E9E9" stroke-dasharray="3 3"/>
<path d="M548.438 357.156H1096.88" stroke="#E9E9E9" stroke-dasharray="3 3"/>
<path d="M548.438 378.906H1096.88" stroke="#E9E9E9" stroke-dasharray="3 3"/>
<path d="M548.438 400.656H1096.88" stroke="#E9E9E9" stroke-dasharray="3 3"/>
<path d="M548.438 422.406H1096.88" stroke="#E9E9E9" stroke-dasharray="3 3"/>
<path d="M548.438 444.156H1096.88" stroke="#E9E9E9" stroke-dasharray="3 3"/>
<path d="M548.438 465.906H1096.88" stroke="#E9E9E9" stroke-dasharray="3 3"/>
<path d="M548.438 487.656H1096.88" stroke="#E9E9E9" stroke-dasharray="3 3"/>
<path d="M548.438 509.406H1096.88" stroke="#E9E9E9" stroke-dasharray="3 3"/>
<path d="M548.438 531.156H1096.88" stroke="#E9E9E9" stroke-dasharray="3 3"/>
<path d="M548.438 552.906H1096.88" stroke="#E9E9E9" stroke-dasharray="3 3"/>
<path d="M548.438 574.656H1096.88" stroke="#E9E9E9" stroke-dasharray="3 3"/>
<path d="M548.438 596.406H1096.88" stroke="#E9E9E9" stroke-dasharray="3 3"/>
<path d="M548.438 618.156H1096.88" stroke="#E9E9E9" stroke-dasharray="3 3"/>
<path d="M548.438 639.906H1096.88" stroke="#E9E9E9" stroke-dasharray="3 3"/>
<path d="M548.438 661.656H1096.88" stroke="#E9E9E9" stroke-dasharray="3 3"/>
<path d="M548.438 683.406H1096.88" stroke="#E9E9E9" stroke-dasharray="3 3"/>
<path d="M548.438 705.156H1096.88" stroke="#E9E9E9" stroke-dasharray="3 3"/>
<path d="M548.438 726.906H1096.88" stroke="#E9E9E9" stroke-dasharray="3 3"/>
<path d="M548.438 748.656H1096.88" stroke="#E9E9E9" stroke-dasharray="3 3"/>
<path d="M548.438 770.406H1096.88" stroke="#E9E9E9" stroke-dasharray="3 3"/>
<path d="M548.438 792.156H1096.88" stroke="#E9E9E9" stroke-dasharray="3 3"/>
<path d="M1096.88 9.15625H1300" stroke="#E9E9E9" stroke-dasharray="3 3"/>
<path d="M1096.88 30.9062H1300" stroke="#E9E9E9" stroke-dasharray="3 3"/>
<path d="M1096.88 52.6562H1300" stroke="#E9E9E9" stroke-dasharray="3 3"/>
<path d="M1096.88 74.4062H1300" stroke="#E9E9E9" stroke-dasharray="3 3"/>
<path d="M1096.88 96.1562H1300" stroke="#E9E9E9" stroke-dasharray="3 3"/>
<path d="M1096.88 117.906H1300" stroke="#E9E9E9" stroke-dasharray="3 3"/>
<path d="M1096.88 139.656H1300" stroke="#E9E9E9" stroke-dasharray="3 3"/>
<path d="M1096.88 161.406H1300" stroke="#E9E9E9" stroke-dasharray="3 3"/>
<path d="M1096.88 183.156H1300" stroke="#E9E9E9" stroke-dasharray="3 3"/>
<path d="M1096.88 204.906H1300" stroke="#E9E9E9" stroke-dasharray="3 3"/>
<path d="M1096.88 226.656H1300" stroke="#E9E9E9" stroke-dasharray="3 3"/>
<path d="M1096.88 248.406H1300" stroke="#E9E9E9" stroke-dasharray="3 3"/>
<path d="M1096.88 270.156H1300" stroke="#E9E9E9" stroke-dasharray="3 3"/>
<path d="M1096.88 291.906H1300" stroke="#E9E9E9" stroke-dasharray="3 3"/>
<path d="M1096.88 313.656H1300" stroke="#E9E9E9" stroke-dasharray="3 3"/>
<path d="M1096.88 335.406H1300" stroke="#E9E9E9" stroke-dasharray="3 3"/>
<path d="M1096.88 357.156H1300" stroke="#E9E9E9" stroke-dasharray="3 3"/>
<path d="M1096.88 378.906H1300" stroke="#E9E9E9" stroke-dasharray="3 3"/>
<path d="M1096.88 400.656H1300" stroke="#E9E9E9" stroke-dasharray="3 3"/>
<path d="M1096.88 422.406H1300" stroke="#E9E9E9" stroke-dasharray="3 3"/>
<path d="M1096.88 444.156H1300" stroke="#E9E9E9" stroke-dasharray="3 3"/>
<path d="M1096.88 465.906H1300" stroke="#E9E9E9" stroke-dasharray="3 3"/>
<path d="M1096.88 487.656H1300" stroke="#E9E9E9" stroke-dasharray="3 3"/>
<path d="M1096.88 509.406H1300" stroke="#E9E9E9" stroke-dasharray="3 3"/>
<path d="M1096.88 531.156H1300" stroke="#E9E9E9" stroke-dasharray="3 3"/>
<path d="M1096.88 552.906H1300" stroke="#E9E9E9" stroke-dasharray="3 3"/>
<path d="M1096.88 574.656H1300" stroke="#E9E9E9" stroke-dasharray="3 3"/>
<path d="M1096.88 596.406H1300" stroke="#E9E9E9" stroke-dasharray="3 3"/>
<path d="M1096.88 618.156H1300" stroke="#E9E9E9" stroke-dasharray="3 3"/>
<path d="M1096.88 639.906H1300" stroke="#E9E9E9" stroke-dasharray="3 3"/>
<path d="M1096.88 661.656H1300" stroke="#E9E9E9" stroke-dasharray="3 3"/>
<path d="M1096.88 683.406H1300" stroke="#E9E9E9" stroke-dasharray="3 3"/>
<path d="M1096.88 705.156H1300" stroke="#E9E9E9" stroke-dasharray="3 3"/>
<path d="M1096.88 726.906H1300" stroke="#E9E9E9" stroke-dasharray="3 3"/>
<path d="M1096.88 748.656H1300" stroke="#E9E9E9" stroke-dasharray="3 3"/>
<path d="M1096.88 770.406H1300" stroke="#E9E9E9" stroke-dasharray="3 3"/>
<path d="M1096.88 792.156H1300" stroke="#E9E9E9" stroke-dasharray="3 3"/>
</svg>
