<svg width="96" height="96" viewBox="0 0 96 96" fill="none" xmlns="http://www.w3.org/2000/svg">
<path fill-rule="evenodd" clip-rule="evenodd" d="M50.9999 11C50.9999 10.2044 50.6839 9.44129 50.1213 8.87868C49.5587 8.31607 48.7956 8 47.9999 8C47.2043 8 46.4412 8.31607 45.8786 8.87868C45.316 9.44129 44.9999 10.2044 44.9999 11V18H37.1039C35.6987 17.9994 34.3259 18.4217 33.1639 19.212L26.3839 23.828C26.2175 23.9407 26.021 24.0007 25.8199 24H9.41194C8.61629 24 7.85323 24.3161 7.29062 24.8787C6.72801 25.4413 6.41194 26.2044 6.41194 27C6.41194 27.7956 6.72801 28.5587 7.29062 29.1213C7.85323 29.6839 8.61629 30 9.41194 30H15.7199L2.25194 60.72C1.99755 61.3195 1.94185 61.9847 2.09302 62.6182C2.24418 63.2516 2.59426 63.82 3.09194 64.24C3.41194 64.496 3.73594 64.74 4.32794 65.124C5.07194 65.608 6.13594 66.236 7.49594 66.856C10.2159 68.1 14.1439 69.336 18.9999 69.336C22.9681 69.3436 26.8914 68.4978 30.5039 66.856C31.8639 66.236 32.9279 65.608 33.6719 65.124C34.2719 64.736 34.5919 64.492 34.9119 64.232C35.4136 63.8167 35.7665 63.2494 35.9173 62.6158C36.0681 61.9823 36.0087 61.3168 35.7479 60.72L22.2759 30H25.8199C27.2239 30 28.5959 29.576 29.7559 28.788L36.5399 24.172C36.7053 24.0601 36.9003 24.0001 37.0999 24H44.9999V82H27.0519C26.2563 82 25.4932 82.3161 24.9306 82.8787C24.368 83.4413 24.0519 84.2044 24.0519 85C24.0519 85.7956 24.368 86.5587 24.9306 87.1213C25.4932 87.6839 26.2563 88 27.0519 88H68.9479C69.7436 88 70.5067 87.6839 71.0693 87.1213C71.6319 86.5587 71.9479 85.7956 71.9479 85C71.9479 84.2044 71.6319 83.4413 71.0693 82.8787C70.5067 82.3161 69.7436 82 68.9479 82H50.9999V24H58.8959C59.0959 24 59.2959 24.06 59.4559 24.172L66.2439 28.788C67.4039 29.576 68.7759 30 70.1799 30H73.7239L60.2519 60.72C59.9826 61.3343 59.9268 62.0211 60.0936 62.6707C60.2603 63.3204 60.64 63.8954 61.1719 64.304C61.2199 64.34 61.1719 64.304 61.1799 64.304C61.5767 64.6028 61.9907 64.878 62.4199 65.128C63.1599 65.576 64.2199 66.152 65.5799 66.728C69.1968 68.2398 73.0798 69.0123 76.9999 69C80.9217 69.0116 84.8061 68.2377 88.4239 66.724C89.7759 66.152 90.8399 65.576 91.5839 65.128C92.0116 64.8755 92.4255 64.6005 92.8239 64.304C93.3559 63.8954 93.7355 63.3204 93.9023 62.6707C94.0691 62.0211 94.0133 61.3343 93.7439 60.72L80.2799 30H86.5919C87.3876 30 88.1507 29.6839 88.7133 29.1213C89.2759 28.5587 89.5919 27.7956 89.5919 27C89.5919 26.2044 89.2759 25.4413 88.7133 24.8787C88.1507 24.3161 87.3876 24 86.5919 24H70.1839C69.9843 23.9999 69.7893 23.9399 69.6239 23.828L62.8359 19.212C61.6752 18.4225 60.3038 18.0002 58.8999 18H50.9999V11ZM8.77194 60.792C11.9203 62.4673 15.4335 63.3398 18.9999 63.332C22.5663 63.3398 26.0795 62.4673 29.2279 60.792L18.9999 37.472L8.77194 60.792ZM66.8119 60.696C67.1399 60.856 67.5079 61.028 67.9119 61.2C70.0319 62.092 73.1319 63 76.9999 63C80.5262 63.01 84.0091 62.2223 87.1879 60.696L76.9999 37.468L66.8119 60.696Z" fill="black"/>
</svg>
