<svg width="96" height="96" viewBox="0 0 96 96" fill="none" xmlns="http://www.w3.org/2000/svg">
<path d="M55.466 8.26607C47.466 3.99941 37.5993 6.66607 33.066 14.6661L27.1993 24.7994L21.866 21.8661C21.866 21.3327 21.3327 21.3327 21.066 21.3327C19.7327 21.3327 18.666 22.3994 18.666 23.7327V42.9327C18.666 43.7327 18.9327 44.5327 19.7327 45.0661C19.9993 45.3327 20.5327 45.3327 20.7993 45.3327C21.3327 45.3327 21.5993 45.3327 21.866 45.0661L38.666 35.4661C39.466 34.9327 39.7327 34.3994 39.7327 33.3327C39.7327 32.5327 39.1993 31.7327 38.666 31.1994L31.9993 27.4661L37.866 17.3327C38.9327 15.4661 40.5327 13.8661 42.3993 12.7994C47.7327 9.86607 54.3993 11.9994 57.3327 17.3327C58.1327 18.6661 59.7327 18.9327 61.066 18.3994C62.3993 17.5994 62.666 15.9994 62.1327 14.6661C60.266 11.9994 58.1327 9.59941 55.466 8.26607Z" fill="black"/>
<path d="M85.8667 56.267L77.8667 42.1337L84 38.667C84.8 38.1337 85.0667 37.6004 85.0667 36.5337C85.0667 35.7337 84.5333 34.9337 84 34.4004L67.4667 24.8004C67.2 24.5337 66.6667 24.5337 66.4 24.5337C65.0667 24.5337 64 25.6004 64 26.9337V46.1337C64 46.9337 64.5333 47.7337 65.0667 48.267C65.3333 48.5337 65.8667 48.5337 66.1333 48.5337C66.6667 48.5337 66.9333 48.267 67.2 48.267L73.0667 44.8004L81.0667 58.9337C82.9333 62.1337 82.9333 66.4004 81.0667 69.6004C79.2 72.8004 76 74.667 72.5333 74.667H70.1333C68.5333 74.667 67.4667 75.7337 67.4667 77.3337C67.4667 78.9337 68.5333 80.0004 70.1333 80.0004H72.5333C78.1333 80.0004 83.2 77.067 85.8667 72.0004C88.5333 67.467 88.5333 61.3337 85.8667 56.267Z" fill="black"/>
<path d="M57.8667 75.7323L41.3333 66.1323C41.0667 65.8656 40.5333 65.8656 40.2667 65.8656C38.9333 65.8656 37.8667 66.9323 37.8667 68.2656V75.199H24.8C20.8 75.199 17.0667 73.0656 15.2 69.599C13.0667 65.8656 13.0667 61.3323 15.2 57.599C16 56.2656 15.4667 54.6656 14.1333 53.8656C12.8 53.0656 11.2 53.599 10.4 54.9323C7.2 60.2656 7.2 66.9323 10.4 72.2656C13.3333 77.3323 18.6667 80.5323 24.8 80.5323H37.6V87.4656C37.6 88.2656 38.1333 89.0656 38.6667 89.599C38.9333 89.8656 39.4667 89.8656 39.7333 89.8656C40 89.8656 40.5333 89.8656 40.8 89.599L57.6 79.999C58.4 79.4656 58.6667 78.9323 58.6667 77.8656C58.9333 76.799 58.4 75.999 57.8667 75.7323Z" fill="black"/>
</svg>
