<svg width="96" height="96" viewBox="0 0 96 96" fill="none" xmlns="http://www.w3.org/2000/svg">
<path d="M96 48C96 41.4672 92.3616 35.4432 86.2512 30.6144C86.2416 30.6096 86.232 30.6096 86.2272 30.6C84.4896 13.4544 68.0496 0 48 0C27.9504 0 11.5104 13.4544 9.7728 30.6C9.768 30.6096 9.7584 30.6096 9.7488 30.6144C3.6384 35.4432 0 41.4672 0 48C0 62.9376 18.9456 75.2112 43.2 76.656V81.6C43.2 86.4 34.4592 90.7728 34.4592 90.7728C34.2265 90.8942 34.0454 91.0956 33.9492 91.3399C33.8531 91.5842 33.8484 91.8549 33.936 92.1024C33.936 92.1024 35.4 96 38.4 96C41.4 96 43.7952 93.6 49.7952 93.6C55.7952 93.6 61.5024 95.6736 61.5024 95.6736C61.7735 95.7565 62.0614 95.7678 62.3382 95.7064C62.6149 95.645 62.871 95.513 63.0816 95.3232L66.5232 91.8816C66.8976 91.5072 66.8016 91.0512 66.3024 90.864C66.3024 90.864 57.6048 87.6 57.6048 81.6V76.2192C79.512 73.5552 96 61.9344 96 48ZM9.6 48C9.6 43.1088 13.2864 38.664 19.3056 35.2752C19.2576 34.7184 19.2 34.1616 19.2 33.6C19.2 20.3424 32.0976 9.6 48 9.6C63.9024 9.6 76.8 20.3424 76.8 33.6C76.8 34.1616 76.7424 34.7184 76.6992 35.2752C82.7136 38.664 86.4 43.1088 86.4 48C86.4 56.9472 74.1552 64.4352 57.6048 66.5712V63.3648C57.6368 62.7599 57.8836 62.1864 58.3008 61.7472L67.0992 53.4624C67.5167 53.023 67.765 52.4499 67.8 51.8448V47.76C67.8 47.232 67.4256 47.016 66.9744 47.2848L58.4352 52.3104C57.9744 52.5792 57.6048 52.368 57.6048 51.8352V34.56C57.6048 34.032 57.1968 33.7344 56.6928 33.9024L44.112 38.0976C43.8548 38.1976 43.6322 38.3702 43.4712 38.5943C43.3102 38.8183 43.2176 39.0844 43.2048 39.36V51.84C43.2048 52.368 42.8256 52.5984 42.3552 52.3536L32.6496 47.2464C32.401 47.1293 32.1231 47.0886 31.8514 47.1297C31.5796 47.1707 31.3262 47.2915 31.1232 47.4768L29.4816 49.1184C29.3933 49.2046 29.324 49.3082 29.278 49.4226C29.232 49.5371 29.2103 49.6598 29.2143 49.7831C29.2184 49.9064 29.2481 50.0275 29.3016 50.1387C29.355 50.2498 29.431 50.3486 29.5248 50.4288L42.4848 61.7616C42.8832 62.112 43.2048 62.8272 43.2048 63.3552V67.0272C24.2688 65.8512 9.6 57.792 9.6 48Z" fill="black"/>
</svg>
