<svg width="96" height="96" viewBox="0 0 96 96" fill="none" xmlns="http://www.w3.org/2000/svg">
<path d="M14.4 42C19.695 42 24 36.6187 24 30C24 23.3813 19.695 18 14.4 18C9.105 18 4.8 23.3813 4.8 30C4.8 36.6187 9.105 42 14.4 42ZM81.6 42C86.895 42 91.2 36.6187 91.2 30C91.2 23.3813 86.895 18 81.6 18C76.305 18 72 23.3813 72 30C72 36.6187 76.305 42 81.6 42ZM86.4 48H76.8C74.16 48 71.775 49.3313 70.035 51.4875C76.08 55.6313 80.37 63.1125 81.3 72H91.2C93.855 72 96 69.3187 96 66V60C96 53.3812 91.695 48 86.4 48ZM48 48C57.285 48 64.8 38.6063 64.8 27C64.8 15.3937 57.285 6 48 6C38.715 6 31.2 15.3937 31.2 27C31.2 38.6063 38.715 48 48 48ZM59.52 54H58.275C55.155 55.875 51.69 57 48 57C44.31 57 40.86 55.875 37.725 54H36.48C26.94 54 19.2 63.675 19.2 75.6V81C19.2 85.9688 22.425 90 26.4 90H69.6C73.575 90 76.8 85.9688 76.8 81V75.6C76.8 63.675 69.06 54 59.52 54ZM25.965 51.4875C24.225 49.3313 21.84 48 19.2 48H9.6C4.305 48 0 53.3812 0 60V66C0 69.3187 2.145 72 4.8 72H14.685C15.63 63.1125 19.92 55.6313 25.965 51.4875Z" fill="black"/>
</svg>
