<svg width="283" height="57" viewBox="0 0 283 57" fill="none" xmlns="http://www.w3.org/2000/svg">
<g clip-path="url(#clip0)">
<path d="M249.419 50.5305L249.251 51.3485L249.413 50.5296C248.961 50.4404 248.521 50.7348 248.432 51.1871C248.343 51.6398 248.637 52.0786 249.09 52.1678C249.091 52.1682 249.104 52.1704 249.105 52.1708C249.158 52.1808 249.211 52.186 249.263 52.186C249.656 52.186 250.006 51.9077 250.082 51.5076C250.169 51.0545 249.872 50.617 249.419 50.5305Z" fill="black"/>
<path d="M255.803 50.7986L255.886 51.6292L255.8 50.799C255.341 50.846 255.008 51.2561 255.055 51.7149C255.099 52.1445 255.462 52.4646 255.885 52.4646C255.913 52.4646 255.942 52.4628 255.971 52.4602L255.994 52.4576C256.451 52.4041 256.775 51.9923 256.724 51.5357C256.673 51.0795 256.259 50.7507 255.803 50.7986Z" fill="black"/>
<path d="M252.607 50.9036C252.607 50.9036 252.595 50.9032 252.594 50.9032C252.134 50.8823 251.75 51.2398 251.729 51.7003C251.709 52.1609 252.07 52.551 252.531 52.5718C252.544 52.5727 252.557 52.5727 252.57 52.5727C253.013 52.5727 253.383 52.2235 253.403 51.7756C253.424 51.315 253.068 50.9245 252.607 50.9036Z" fill="black"/>
<path d="M246.335 49.6819L246.324 49.678C245.89 49.5223 245.417 49.7493 245.262 50.1833C245.105 50.6173 245.336 51.0974 245.77 51.2536C245.863 51.2871 245.959 51.3027 246.052 51.3027C246.394 51.3027 246.716 51.0909 246.838 50.75C246.994 50.316 246.769 49.8376 246.335 49.6819Z" fill="black"/>
<path d="M258.954 50.2137L259.16 51.023L258.951 50.2146C258.505 50.3294 258.236 50.7847 258.351 51.2313C258.448 51.6079 258.787 51.8584 259.159 51.8584C259.228 51.8584 259.298 51.8497 259.368 51.8314C259.371 51.8306 259.386 51.8267 259.39 51.8258C259.833 51.7049 260.092 51.2496 259.974 50.8056C259.856 50.362 259.399 50.098 258.954 50.2137Z" fill="black"/>
<path d="M261.972 49.1618L262.303 49.928L261.97 49.1627C261.547 49.3471 261.354 49.8389 261.538 50.2616C261.675 50.576 261.982 50.7634 262.304 50.7634C262.415 50.7634 262.528 50.7408 262.636 50.6939C262.64 50.6921 262.653 50.6865 262.657 50.6847C263.076 50.4956 263.261 50.005 263.074 49.5854C262.887 49.1653 262.393 48.977 261.972 49.1618Z" fill="black"/>
<path d="M243.145 11.0988C243.279 11.0988 243.416 11.0667 243.541 10.9997C243.948 10.7827 244.102 10.2769 243.885 9.86988C243.668 9.46327 243.162 9.30889 242.755 9.52632L242.745 9.53154C242.339 9.74855 242.19 10.2517 242.407 10.6587C242.556 10.9397 242.847 11.0988 243.145 11.0988Z" fill="black"/>
<path d="M233.487 20.4246C233.611 20.4894 233.744 20.5203 233.875 20.5203C234.175 20.5203 234.466 20.3576 234.615 20.0728L234.629 20.0436C234.833 19.6296 234.663 19.1291 234.248 18.926C233.838 18.7234 233.341 18.8904 233.135 19.2987C232.922 19.7066 233.079 20.2106 233.487 20.4246Z" fill="black"/>
<path d="M232.312 23.5664C232.401 23.5964 232.491 23.6108 232.58 23.6108C232.928 23.6108 233.252 23.3911 233.37 23.0432L233.381 23.0102C233.517 22.5697 233.269 22.1022 232.828 21.9669C232.391 21.8321 231.927 22.0748 231.788 22.5097C231.641 22.9458 231.876 23.419 232.312 23.5664Z" fill="black"/>
<path d="M235.135 17.5041C235.283 17.6119 235.455 17.6641 235.625 17.6641C235.883 17.6641 236.138 17.5445 236.301 17.3201L236.312 17.3054C236.58 16.9305 236.492 16.4104 236.118 16.1425C235.744 15.8742 235.222 15.9603 234.953 16.3343L235.626 16.8292L234.951 16.3378C234.679 16.7109 234.762 17.2332 235.135 17.5041Z" fill="black"/>
<path d="M240.311 12.9032C240.486 12.9032 240.663 12.8479 240.814 12.7331C241.186 12.4609 241.266 11.9386 240.994 11.5664C240.721 11.1941 240.199 11.1137 239.827 11.3859L239.806 11.4011C239.439 11.6799 239.366 12.2048 239.645 12.5722C239.809 12.7888 240.059 12.9032 240.311 12.9032Z" fill="black"/>
<path d="M231.566 36.2293C231.677 36.5881 232.006 36.8181 232.363 36.8181C232.444 36.8181 232.527 36.806 232.609 36.7807C233.048 36.6464 233.295 36.1819 233.164 35.7427C233.038 35.3043 232.584 35.0469 232.141 35.1673C231.696 35.2887 231.434 35.7479 231.556 36.1928C231.558 36.2015 231.564 36.2206 231.566 36.2293Z" fill="black"/>
<path d="M237.788 15.104C238.005 15.104 238.222 15.02 238.386 14.853C238.712 14.5269 238.712 13.9981 238.386 13.6724C238.06 13.3462 237.531 13.3462 237.205 13.6724L237.191 13.6863C236.869 14.0155 236.875 14.5434 237.204 14.8661C237.367 15.0252 237.578 15.104 237.788 15.104Z" fill="black"/>
<path d="M232.489 32.5887C232.43 32.1351 232.016 31.8133 231.562 31.8672C231.104 31.922 230.777 32.3373 230.832 32.7953L230.837 32.8287C230.897 33.2436 231.254 33.5411 231.661 33.5411C231.701 33.5411 231.742 33.538 231.783 33.5319C232.238 33.4658 232.553 33.0431 232.489 32.5887Z" fill="black"/>
<path d="M231.44 30.1974C231.449 30.1974 231.457 30.1978 231.465 30.1978C231.915 30.1978 232.286 29.8399 232.299 29.3872L232.3 29.3516C232.3 28.8902 231.926 28.5166 231.465 28.5166C231.007 28.5166 230.636 28.8845 230.63 29.3407C230.618 29.8008 230.98 30.1839 231.44 30.1974Z" fill="black"/>
<path d="M231.623 26.8488C231.673 26.8575 231.722 26.8619 231.772 26.8619C232.168 26.8619 232.52 26.5779 232.593 26.1739C232.595 26.1617 232.597 26.1495 232.598 26.1374C232.666 25.6812 232.35 25.2567 231.894 25.1898C231.443 25.1228 231.021 25.4329 230.948 25.8825C230.869 26.3357 231.171 26.7675 231.623 26.8488Z" fill="black"/>
<path d="M271.01 17.7678C271.172 18.0026 271.432 18.1283 271.697 18.1283C271.86 18.1283 272.025 18.0804 272.17 17.9808C272.549 17.7199 272.645 17.1998 272.384 16.8197L271.69 17.2842L272.382 16.8158C272.123 16.434 271.603 16.3344 271.222 16.5932C270.84 16.8519 270.741 17.3711 270.999 17.753L271.01 17.7678Z" fill="black"/>
<path d="M275.274 26.1703C274.816 26.2216 274.486 26.6352 274.538 27.0936L274.542 27.1297C274.602 27.5458 274.959 27.8463 275.368 27.8463C275.407 27.8463 275.447 27.8437 275.487 27.8381C275.94 27.7733 276.256 27.3562 276.197 26.904C276.144 26.4469 275.729 26.119 275.274 26.1703Z" fill="black"/>
<path d="M273.865 23.8142L273.868 23.8251C273.975 24.1891 274.308 24.4248 274.669 24.4248C274.747 24.4248 274.826 24.4139 274.905 24.3904C275.347 24.2604 275.601 23.7964 275.47 23.3537L275.467 23.3428C275.337 22.9001 274.873 22.647 274.43 22.7775C273.988 22.9075 273.735 23.3715 273.865 23.8142Z" fill="black"/>
<path d="M272.685 20.6917C272.831 20.9879 273.129 21.1605 273.439 21.1605C273.562 21.1605 273.687 21.1331 273.805 21.0748C274.218 20.8713 274.39 20.3738 274.186 19.9598L273.43 20.3125L274.185 19.9581C273.99 19.5406 273.493 19.361 273.075 19.5567C272.658 19.7524 272.478 20.2495 272.673 20.6669L272.685 20.6917Z" fill="black"/>
<path d="M268.907 15.1603C269.07 15.3272 269.286 15.4107 269.503 15.4107C269.714 15.4107 269.925 15.3316 270.088 15.172C270.415 14.8519 270.422 14.3288 270.107 13.9991C269.794 13.6621 269.267 13.6417 268.929 13.9539C268.59 14.2666 268.569 14.795 268.882 15.1337L268.907 15.1603Z" fill="black"/>
<path d="M275.545 29.6565C275.087 29.6448 274.703 30.0044 274.686 30.4632C274.666 30.9203 275.017 31.3095 275.474 31.3352C275.49 31.336 275.505 31.3365 275.521 31.3365C275.961 31.3365 276.329 30.9925 276.354 30.5476L276.355 30.5132C276.369 30.0527 276.006 29.67 275.545 29.6565Z" fill="black"/>
<path d="M263.568 11.0604L263.588 11.0712C263.712 11.1373 263.845 11.1687 263.977 11.1687C264.274 11.1687 264.561 11.0086 264.712 10.7281C264.93 10.3233 264.776 9.81707 264.373 9.59789L263.969 10.3285L264.37 9.59615C263.966 9.37436 263.458 9.52266 263.237 9.92709C263.015 10.3311 263.163 10.839 263.568 11.0604Z" fill="black"/>
<path d="M266.392 12.892L266.405 12.902C266.556 13.0164 266.733 13.0716 266.909 13.0716C267.161 13.0716 267.41 12.9577 267.574 12.7411C267.853 12.3737 267.781 11.8501 267.414 11.5713L267.408 11.5674C267.043 11.2865 266.519 11.3552 266.238 11.7209C265.957 12.0866 266.026 12.6111 266.392 12.892Z" fill="black"/>
<path d="M282.485 42.2969L278.565 38.3704C278.232 38.0364 277.788 37.8524 277.317 37.8524C276.845 37.8524 276.402 38.0364 276.069 38.3704L275.978 38.4613L275.72 38.2038C275.402 37.885 275.156 37.5141 274.989 37.1101C274.974 37.0566 274.955 37.0044 274.93 36.9553C274.802 36.5961 274.735 36.2138 274.735 35.8211V34.7105C274.811 34.7505 274.894 34.7796 274.984 34.7948C275.031 34.8031 275.079 34.807 275.126 34.807C275.522 34.807 275.872 34.5243 275.946 34.1225C276.035 33.6711 275.742 33.2323 275.291 33.1419C275.092 33.1023 274.895 33.1366 274.73 33.2262C274.679 32.0399 274.194 30.9318 273.35 30.0864L269.548 26.2774C268.694 25.4228 267.56 24.9523 266.353 24.9523C265.419 24.9523 264.529 25.2354 263.779 25.7594L263.375 25.3537V15.8038C263.375 14.6527 262.957 13.542 262.199 12.6771C261.659 12.0621 261.362 11.2724 261.362 10.4531V9.75339H261.419C262.393 9.75339 263.184 8.96148 263.184 7.98779V2.43356C263.184 1.45988 262.393 0.667969 261.419 0.667969H245.822C244.849 0.667969 244.057 1.45988 244.057 2.43356V7.98779C244.057 8.96148 244.849 9.75339 245.822 9.75339H245.951V10.1196C245.951 11.0197 245.601 11.866 244.966 12.5022L243.282 14.1887C242.389 15.0837 241.897 16.273 241.897 17.5385V22.9253C241.897 23.6572 242.073 24.3482 242.382 24.9605C241.275 25.0245 240.243 25.4859 239.452 26.2774L235.65 30.0864C234.757 30.9814 234.265 32.1712 234.265 33.4363V35.8211C234.265 36.7213 233.915 37.5676 233.28 38.2038L233.025 38.4586C233.024 38.4595 233.023 38.4604 233.022 38.4613L232.932 38.3704C232.598 38.0364 232.155 37.8524 231.683 37.8524C231.212 37.8524 230.768 38.0364 230.435 38.3704L226.515 42.2969C225.828 42.9853 225.828 44.1055 226.515 44.7939L227.858 46.1381C228.184 46.4647 228.712 46.4651 229.038 46.1394C229.365 45.8133 229.366 45.2849 229.039 44.9583L227.697 43.6137C227.659 43.5758 227.659 43.5145 227.697 43.4767L231.617 39.5502C231.654 39.5137 231.713 39.5132 231.75 39.5502L232.431 40.2329H232.432L241.737 49.5541L242.779 50.5986C242.817 50.6365 242.817 50.6978 242.779 50.7356L238.86 54.6621C238.823 54.6991 238.763 54.6991 238.727 54.6621L231.403 47.3262C231.078 46.9996 230.549 46.9992 230.223 47.3249C229.896 47.651 229.896 48.1794 230.221 48.506L237.545 55.8419C237.878 56.1759 238.322 56.3599 238.794 56.3599C239.265 56.3599 239.708 56.1759 240.042 55.8419L243.961 51.9154C244.648 51.2275 244.648 50.1072 243.961 49.4188L243.919 49.3762L244.413 48.8809C244.991 48.3021 245.758 47.9542 246.573 47.9015C247.721 47.8272 248.801 47.3375 249.613 46.523L253.214 42.9144C254.253 42.6417 255.061 41.7959 255.281 40.7365C255.651 40.9127 256.064 41.0118 256.501 41.0118C258.071 41.0118 259.349 39.7328 259.349 38.1603V36.1777C259.708 36.3417 260.107 36.4339 260.527 36.4339C262.097 36.4339 263.375 35.1549 263.375 33.5824V27.7211L265.943 30.3021C266.106 30.4661 266.32 30.5478 266.535 30.5478C266.748 30.5478 266.961 30.4669 267.124 30.3047C267.451 29.9794 267.452 29.4511 267.127 29.124L264.985 26.9723C265.4 26.744 265.867 26.6222 266.353 26.6222C267.113 26.6222 267.828 26.9188 268.366 27.4576L272.168 31.2662C272.747 31.8459 273.065 32.6165 273.065 33.4363V35.8211C273.065 37.1671 273.588 38.4321 274.538 39.3836L274.797 39.6432L273.586 40.8566L266.261 48.1942L265.853 47.785C265.849 47.7811 265.845 47.7767 265.84 47.7728L265.768 47.7006C264.904 46.8348 263.755 46.3142 262.535 46.2351C261.793 46.1868 261.094 45.8702 260.566 45.3414L257.822 42.6126C257.495 42.2873 256.967 42.2886 256.641 42.6156C256.316 42.9426 256.318 43.4715 256.645 43.7963L259.387 46.523C260.199 47.3375 261.279 47.8272 262.427 47.9015C263.242 47.9542 264.009 48.3021 264.587 48.8804L264.627 48.9209C264.649 48.9457 264.672 48.9687 264.697 48.9905L265.081 49.3758L265.039 49.4188C264.352 50.1072 264.352 51.227 265.039 51.9154L268.958 55.8419C269.292 56.1759 269.735 56.3599 270.207 56.3599C270.678 56.3599 271.122 56.1759 271.455 55.8419L282.485 44.7935C283.172 44.1051 283.172 42.9853 282.485 42.2969ZM275.295 33.9942L275.279 33.9916L275.127 33.9607L275.295 33.9942ZM248.431 45.3432C247.906 45.8702 247.207 46.1868 246.465 46.2351C245.245 46.3142 244.096 46.8348 243.232 47.7006L242.739 48.1942L242.295 47.7498C242.29 47.7441 242.284 47.738 242.278 47.7328L234.203 39.6432L234.462 39.3836C235.412 38.4321 235.935 37.1671 235.935 35.8211V33.4363C235.935 32.6165 236.253 31.8459 236.832 31.2662L240.634 27.4576C241.172 26.9188 241.887 26.6222 242.647 26.6222C243.135 26.6222 243.603 26.7448 244.019 26.9749L241.874 29.1232C241.549 29.4493 241.549 29.9781 241.875 30.3039C242.038 30.4665 242.252 30.5478 242.465 30.5478C242.679 30.5478 242.893 30.4661 243.056 30.303L245.618 27.7364V38.1603C245.618 39.7328 246.896 41.0118 248.466 41.0118C248.909 41.0118 249.328 40.91 249.702 40.7291C249.872 41.5567 250.4 42.2542 251.117 42.6517L248.431 45.3432ZM261.705 33.5828C261.705 34.2343 261.176 34.7644 260.527 34.7644C259.877 34.7644 259.349 34.2343 259.349 33.5828V24.2691C259.349 23.8081 258.975 23.4341 258.514 23.4341C258.052 23.4341 257.679 23.8081 257.679 24.2691V38.1608C257.679 38.8122 257.151 39.3419 256.501 39.3419C255.918 39.3419 255.434 38.9148 255.34 38.356V24.2595C255.34 23.7981 254.967 23.4246 254.505 23.4246C254.357 23.4246 254.217 23.4637 254.096 23.5315C253.832 23.672 253.653 23.9495 253.653 24.2691V38.1603C253.653 38.2664 253.659 38.3704 253.67 38.4734V40.156C253.67 40.8074 253.142 41.3375 252.492 41.3375C251.843 41.3375 251.315 40.8074 251.315 40.156V24.2495C251.315 23.7886 250.941 23.4146 250.48 23.4146C250.018 23.4146 249.644 23.7886 249.644 24.2495V38.1603C249.644 38.8118 249.116 39.3419 248.467 39.3419C247.817 39.3419 247.288 38.8118 247.288 38.1603V22.6287C247.288 22.1673 246.914 21.7934 246.453 21.7934C245.992 21.7934 245.619 22.1673 245.619 22.6287V25.5015C245.549 25.5241 245.481 25.5559 245.418 25.5976C244.338 25.1919 243.567 24.1473 243.567 22.9253V17.5385C243.567 16.7188 243.886 15.9482 244.464 15.3685L246.148 13.6821C247.098 12.7305 247.621 11.4655 247.621 10.1196V9.75339H249.3C249.761 9.75339 250.135 9.37939 250.135 8.91843C250.135 8.45702 249.761 8.08347 249.3 8.08347H245.822C245.77 8.08347 245.727 8.04041 245.727 7.98779V2.43356C245.727 2.38094 245.77 2.33789 245.822 2.33789H261.419C261.472 2.33789 261.515 2.38094 261.515 2.43356V7.98779C261.515 8.04085 261.472 8.08347 261.419 8.08347H253.22C252.759 8.08347 252.385 8.45702 252.385 8.91843C252.385 9.37939 252.759 9.75339 253.22 9.75339H259.692V10.4531C259.692 11.6777 260.136 12.8584 260.943 13.7786C261.434 14.3387 261.705 15.058 261.705 15.8038V33.5828ZM281.303 43.6137L270.273 54.6621C270.255 54.6808 270.233 54.6899 270.207 54.6899C270.181 54.6899 270.159 54.6808 270.14 54.6621L266.221 50.7356C266.183 50.6978 266.183 50.6365 266.221 50.5986L266.852 49.9663L266.852 49.9659L273.255 43.5523L277.25 39.5502C277.287 39.5132 277.346 39.5132 277.383 39.5502L281.303 43.4767C281.341 43.5145 281.341 43.5758 281.303 43.6137Z" fill="black"/>
<path d="M248.466 4.32031C247.976 4.32031 247.577 4.71996 247.577 5.21094C247.577 5.70235 247.976 6.10156 248.466 6.10156C248.957 6.10156 249.355 5.70235 249.355 5.21094C249.355 4.71996 248.957 4.32031 248.466 4.32031Z" fill="black"/>
<path d="M277.59 42.3818C277.099 42.3818 276.7 42.7815 276.7 43.2725C276.7 43.7634 277.099 44.1631 277.59 44.1631C278.08 44.1631 278.478 43.7634 278.478 43.2725C278.478 42.7815 278.08 42.3818 277.59 42.3818Z" fill="black"/>
<path d="M239.914 50.8994C239.914 50.4084 239.516 50.0088 239.026 50.0088C238.535 50.0088 238.136 50.4084 238.136 50.8994C238.136 51.3904 238.535 51.79 239.026 51.79C239.516 51.79 239.914 51.3904 239.914 50.8994Z" fill="black"/>
</g>
<path d="M54.4009 7.98088C53.6289 5.55297 52.5826 3.81455 52.5382 3.74149C52.3667 3.45872 52.0135 3.31162 51.6935 3.385C51.6107 3.40392 49.6348 3.86511 47.3556 5.00339C44.2787 6.53959 42.1293 8.59047 41.1391 10.9332C40.3149 12.8843 40.1965 15.2695 40.7813 17.9045C39.5357 16.5135 38.1345 15.2966 36.6071 14.2721C36.1407 13.3507 34.9075 11.0823 32.9796 8.71147C32.3446 7.93098 31.1231 8.91043 31.7647 9.69875C33.0638 11.2966 34.0416 12.868 34.6531 13.9476L27.5224 12.5575L20.7474 3.31651C21.4053 3.32564 22.0654 3.38924 22.7223 3.51808C24.8048 3.92577 26.8619 4.98643 28.8374 6.67005C29.6114 7.32987 30.6166 6.12896 29.8527 5.47828C27.6704 3.61853 25.3727 2.44176 23.023 1.98155C19.4363 1.27966 15.253 2.20106 10.9242 4.64723C7.6979 6.47045 5.54037 8.47305 5.45035 8.5572C5.1617 8.82693 5.11571 9.31682 5.3574 9.63188C5.67377 10.2809 6.87272 12.6224 8.86847 15.1433C10.0449 16.6296 11.2856 17.9016 12.569 18.9469C12.2044 19.2525 11.8495 19.5722 11.5061 19.9084C9.6718 21.7026 8.26737 23.819 7.34532 26.1328C6.53025 28.1772 6.0919 30.3764 6.06744 32.6432C6.02699 36.35 7.10103 39.925 9.17408 42.9824C11.1992 45.9687 14.0302 48.2616 17.3609 49.6128C18.2931 49.9902 18.8825 48.5404 17.9497 48.1621C16.7429 47.6725 15.6092 47.0453 14.5635 46.2994C14.6972 45.5577 15.0074 42.8885 13.2344 40.1253C12.9862 39.7388 13.7282 38.2208 14.1711 37.3141C14.6284 36.3797 15.1003 35.4136 15.3208 34.5039C15.555 33.5375 15.2915 32.7264 14.5593 32.1572C14.0217 31.7394 13.3182 31.5232 12.6982 31.3324C12.2954 31.2085 11.8388 31.0682 11.6757 30.9322C11.3398 30.6507 10.7912 29.6106 10.3502 28.7753C9.86097 27.8487 9.39522 26.9668 8.91968 26.4237C9.9898 23.8823 11.7086 21.6335 13.8613 19.913C15.8277 21.2525 18.072 22.1768 20.4575 22.3641C17.691 24.5076 16.796 27.245 18.0752 29.8745C19.569 32.9449 22.6437 32.4544 25.3563 32.0222C25.8257 31.9472 26.3113 31.8699 26.7764 31.8118C26.9509 31.79 27.0034 31.8376 27.0387 31.8686C27.6326 32.397 27.615 34.9204 27.6023 36.7632C27.585 39.3121 27.5687 41.7198 28.5181 42.956C29.0025 43.5861 29.6844 43.9083 30.4839 43.9083C30.963 43.9083 31.4835 43.7929 32.0295 43.5587C34.3906 42.5476 36.8449 39.5046 36.4705 37.0969C36.1433 34.9919 35.9268 33.6011 36.4372 32.4801C36.9091 31.4426 38.05 30.4821 40.2969 29.2564C40.566 30.4681 40.7017 31.7287 40.6877 33.0219C40.6397 37.4361 38.8752 41.5675 35.7197 44.6546C32.1929 48.1047 27.2363 49.8085 22.3332 49.2681C21.3342 49.1598 21.1616 50.7143 22.162 50.8245C27.5289 51.4155 32.9551 49.5499 36.8142 45.774C40.2692 42.394 42.2007 37.8715 42.2532 33.0385C42.323 26.6305 39.035 20.9534 34.0298 17.6831C35.0641 16.9456 35.8345 16.308 36.2617 15.9378C38.0866 17.247 39.7053 18.8598 41.052 20.7388C44.2849 25.2506 45.567 30.7505 44.6629 36.2267C42.7956 47.531 32.0804 55.2097 20.7742 53.3418C15.2977 52.4373 10.5015 49.455 7.26867 44.9432C4.03548 40.4318 2.75336 34.9312 3.65779 29.4554C3.82022 28.47 2.27652 28.2114 2.11344 29.2003C1.14051 35.0891 2.51983 41.0039 5.99568 45.8555C9.47219 50.7064 14.6304 53.9139 20.5191 54.8868C21.7507 55.09 22.9836 55.1904 24.2079 55.1904C28.8361 55.1904 33.3384 53.7534 37.175 51.0042C42.0272 47.5277 45.235 42.3705 46.2072 36.4818C46.9199 32.1667 46.3683 27.8376 44.6554 23.9231C45.446 23.6899 46.7914 23.2372 48.2649 22.5014C51.3413 20.9652 53.491 18.9143 54.4808 16.5715C55.4717 14.2281 55.444 11.2574 54.4009 7.98088ZM8.96534 29.5059C9.54786 30.6103 10.0987 31.654 10.6711 32.1328C11.0766 32.4717 11.6408 32.6452 12.238 32.8288C13.768 33.2991 13.9458 33.53 13.799 34.1351C13.6189 34.879 13.1845 35.7675 12.7647 36.6262C11.9562 38.2805 11.1927 39.8422 11.9164 40.9707C12.9428 42.5701 13.1186 44.1448 13.101 45.1243C8.43827 40.9198 6.53971 34.2789 8.2765 28.243C8.50676 28.6377 8.74877 29.0963 8.96534 29.5059ZM46.8403 14.1221L44.6156 8.73071C45.6981 7.71832 46.9541 6.95642 48.0239 6.41989C48.9352 5.96262 49.8021 5.62081 50.4975 5.37847L46.8403 14.1221ZM51.9407 5.98545C52.2516 6.65342 52.612 7.5148 52.9199 8.48838C53.2574 9.55687 53.5673 10.8811 53.6289 12.2623L48.4153 14.4133L51.9407 5.98545ZM42.581 11.5428C42.8119 10.9969 43.1104 10.4907 43.4551 10.0233L45.9877 16.1599L43.7151 21.5943C43.3957 20.9169 43.0197 20.0272 42.7007 19.0164C42.0605 16.9926 41.5203 14.0526 42.581 11.5428ZM47.5963 21.0849C46.7193 21.5252 45.8824 21.8585 45.2007 22.0989L47.5591 16.4606L53.5624 13.9835C53.4753 14.656 53.3093 15.3227 53.0389 15.9619C51.9786 18.4717 49.4939 20.1335 47.5963 21.0849ZM19.3684 20.6393C19.0919 20.5852 18.8189 20.519 18.5498 20.4437L27.2138 14.0927L34.3478 15.4831C31.749 17.5307 25.4245 21.8259 19.3684 20.6393ZM11.4503 15.7415C9.59743 13.7444 8.23932 11.609 7.45948 10.2418L16.538 12.0118L11.4503 15.7415ZM13.0537 5.29694L16.8521 10.4779L7.71486 8.69679C8.86521 7.78845 10.7641 6.42479 13.0537 5.29694ZM19.117 10.9196L14.512 4.6381C15.8906 4.07156 17.3704 3.62571 18.8874 3.4274L25.2578 12.1162L19.117 10.9196ZM18.6297 12.4195L25.1225 13.685L16.7895 19.793C15.2181 19.0673 13.8039 18.0239 12.5664 16.8641L18.6297 12.4195ZM39.8716 27.7065C37.0494 29.2101 35.6675 30.3911 35.0119 31.8317C34.3077 33.3787 34.5657 35.0392 34.9229 37.3373C35.1339 38.6925 33.5233 41.2159 31.4131 42.1197C30.6323 42.454 30.0762 42.4146 29.7595 42.002C29.1375 41.1924 29.1544 38.7424 29.1678 36.774C29.1864 34.0506 29.2027 31.6987 28.0791 30.699C27.675 30.3396 27.158 30.1876 26.5837 30.258C26.0915 30.3194 25.5922 30.3989 25.1098 30.4759C22.2321 30.9345 20.4213 31.1181 19.4832 29.1895C17.9634 26.0659 21.04 23.7522 22.4333 22.9025C22.7171 22.7297 22.9803 22.5258 23.2249 22.2988C26.5925 21.8964 29.7745 20.4515 32.6101 18.6416C36.0099 20.6729 38.6198 23.8875 39.8716 27.7065Z" fill="black"/>
<g clip-path="url(#clip1)">
<path d="M165.05 2.48717e-08C165.05 2.48717e-08 165.05 2.48717e-08 165.05 2.48717e-08H109.95C109.425 -0.000118725 109 0.425006 109 0.949525C109 0.949644 109 0.949881 109 0.95V19.95H110.9V1.9H164.1V22.8H130.85V24.7H165.05C165.575 24.7001 166 24.275 166 23.7505C166 23.7504 166 23.7501 166 23.75V0.95C166 0.425481 165.575 0.000118775 165.05 2.48717e-08Z" fill="black"/>
<path d="M159.35 4.75H140.35V6.65H159.35V4.75Z" fill="black"/>
<path d="M162.2 10.4502H143.2V12.3502H162.2V10.4502Z" fill="black"/>
<path d="M158.4 16.1504H139.4V18.0504H158.4V16.1504Z" fill="black"/>
<path d="M139.324 8.19047C138.674 6.62712 136.879 5.88707 135.316 6.53747C135.289 6.54863 135.263 6.56003 135.236 6.5719L127.533 10.5678C127.837 9.93823 127.997 9.24877 128 8.5498C128 5.9265 125.873 3.7998 123.25 3.7998C120.627 3.7998 118.5 5.9265 118.5 8.5498C118.504 9.58091 118.846 10.5823 119.474 11.3998H119.435C116.738 11.4179 114.331 13.0942 113.379 15.6173L110.843 24.3584C110.239 25.9266 111.021 27.6874 112.589 28.2912C113.305 28.5664 114.097 28.5618 114.809 28.2781C115.627 27.9486 116.264 27.2831 116.557 26.4514L117.55 23.2896V37.0389C116.733 36.4106 115.731 36.0682 114.7 36.0645C112.081 36.0606 109.954 38.1809 109.95 40.8004C109.948 42.0833 110.466 43.3121 111.385 44.2067C109.926 44.9523 109.006 46.4504 109 48.0889V56.0498C109 56.5743 109.425 56.9997 109.95 56.9998C109.95 56.9998 109.95 56.9998 109.95 56.9998H119.45C119.975 56.9999 120.4 56.5748 120.4 56.0503C120.4 56.0502 120.4 56.0499 120.4 56.0498V48.0889C120.395 46.7424 119.77 45.4735 118.705 44.6498H125.895C124.83 45.4735 124.205 46.7424 124.2 48.0889V56.0498C124.2 56.5743 124.625 56.9997 125.15 56.9998C125.15 56.9998 125.15 56.9998 125.15 56.9998H134.65C135.175 56.9999 135.6 56.5748 135.6 56.0503C135.6 56.0502 135.6 56.0499 135.6 56.0498V48.0889C135.594 46.4504 134.674 44.9523 133.215 44.2067C135.09 42.376 135.127 39.3712 133.296 37.4956C132.169 36.3405 130.532 35.8376 128.95 36.1606V16.7268L137.671 12.1985C139.234 11.5482 139.975 9.75369 139.324 8.19047ZM123.25 5.6998C124.824 5.6998 126.1 6.97577 126.1 8.5498C126.1 10.1238 124.824 11.3998 123.25 11.3998C121.677 11.3981 120.402 10.1231 120.4 8.5498C120.4 6.97577 121.676 5.6998 123.25 5.6998ZM114.7 37.9645C116.274 37.9645 117.55 39.2405 117.55 40.8145C117.55 42.3886 116.274 43.6645 114.7 43.6645C113.126 43.6645 111.85 42.3886 111.85 40.8145C111.852 39.2412 113.127 37.9663 114.7 37.9645ZM118.5 55.0998H110.9V48.0889C110.902 46.7149 112.015 45.6015 113.39 45.5998H116.01C117.384 45.6015 118.498 46.7149 118.5 48.0889V55.0998ZM133.7 48.0889V55.0998H126.1V48.0889C126.102 46.7149 127.215 45.6015 128.59 45.5998H131.21C132.585 45.6015 133.698 46.7149 133.7 48.0889ZM129.9 37.9645C131.473 37.9662 132.748 39.2412 132.75 40.8145C132.75 42.3886 131.474 43.6645 129.9 43.6645C128.326 43.6645 127.05 42.3886 127.05 40.8145C127.05 39.2405 128.326 37.9645 129.9 37.9645ZM137.586 9.7753C137.459 10.1016 137.198 10.3578 136.869 10.4785L127.563 15.3064C127.248 15.4698 127.05 15.7951 127.05 16.1498V37.0389C125.271 38.3546 124.654 40.7359 125.572 42.7498H124.2V26.5998H122.3V42.7498H119.028C119.298 42.1525 119.441 41.5053 119.446 40.8498H119.45V17.0998C119.45 16.575 119.024 16.1498 118.5 16.1499C118.085 16.15 117.718 16.4192 117.594 16.815L114.757 25.8418C114.542 26.4346 113.887 26.741 113.294 26.5259C113.253 26.5109 113.212 26.4934 113.172 26.4736C112.624 26.1904 112.392 25.5292 112.642 24.9651L115.178 16.224C115.862 14.4677 117.55 13.308 119.435 13.2998H126.161C126.314 13.3 126.464 13.2633 126.599 13.1932L136.041 8.292C136.607 8.05569 137.26 8.29746 137.536 8.84585C137.682 9.13489 137.7 9.47214 137.586 9.7753Z" fill="black"/>
<path d="M148.415 44.2069C150.294 42.3763 150.333 39.3689 148.502 37.49C146.672 35.611 143.664 35.5718 141.785 37.4024C139.906 39.2331 139.867 42.2404 141.698 44.1194C141.727 44.149 141.756 44.1782 141.785 44.2069C140.326 44.9525 139.406 46.4506 139.4 48.0891V56.05C139.4 56.5745 139.825 56.9999 140.35 57C140.35 57 140.35 57 140.35 57H149.85C150.375 57.0001 150.8 56.575 150.8 56.0505C150.8 56.0504 150.8 56.0501 150.8 56.05V48.0891C150.794 46.4506 149.874 44.9525 148.415 44.2069ZM145.1 37.9647C146.674 37.9647 147.95 39.2407 147.95 40.8147C147.95 42.3888 146.674 43.6647 145.1 43.6647C143.526 43.6647 142.25 42.3888 142.25 40.8147C142.252 39.2414 143.527 37.9665 145.1 37.9647ZM148.9 55.1H141.3V48.0891C141.302 46.7151 142.416 45.6017 143.79 45.6H146.411C147.785 45.6017 148.898 46.7151 148.9 48.0891V55.1Z" fill="black"/>
<path d="M163.615 44.2069C165.494 42.3763 165.533 39.3689 163.702 37.49C161.872 35.611 158.864 35.5718 156.985 37.4024C155.106 39.2331 155.067 42.2404 156.898 44.1194C156.927 44.149 156.956 44.1782 156.985 44.2069C155.526 44.9525 154.606 46.4506 154.6 48.0891V56.05C154.6 56.5745 155.025 56.9999 155.55 57C155.55 57 155.55 57 155.55 57H165.05C165.575 57.0001 166 56.575 166 56.0505C166 56.0504 166 56.0501 166 56.05V48.0891C165.994 46.4506 165.074 44.9525 163.615 44.2069ZM160.3 37.9647C161.874 37.9647 163.15 39.2407 163.15 40.8147C163.15 42.3888 161.874 43.6647 160.3 43.6647C158.726 43.6647 157.45 42.3888 157.45 40.8147C157.452 39.2414 158.727 37.9665 160.3 37.9647ZM164.1 55.1H156.5V48.0891C156.502 46.7151 157.616 45.6017 158.99 45.6H161.611C162.985 45.6017 164.098 46.7151 164.1 48.0891V55.1Z" fill="black"/>
</g>
<defs>
<clipPath id="clip0">
<rect width="57" height="57" fill="white" transform="translate(226)"/>
</clipPath>
<clipPath id="clip1">
<rect width="57" height="57" fill="white" transform="translate(109)"/>
</clipPath>
</defs>
</svg>
