<?xml version="1.0" encoding="utf-8"?>
<!-- Generator: Adobe Illustrator 23.1.0, SVG Export Plug-In . SVG Version: 6.00 Build 0)  -->
<svg version="1.1" id="Layer_1" xmlns="http://www.w3.org/2000/svg" xmlns:xlink="http://www.w3.org/1999/xlink" x="0px" y="0px"
	 viewBox="0 0 1464.8 367.4" style="enable-background:new 0 0 1464.8 367.4;" xml:space="preserve">
<style type="text/css">
	.st0{fill:none;stroke:#231F20;stroke-width:0.8;stroke-miterlimit:10;}
	.st1{fill:url(#SVGID_1_);}
	.st2{fill:url(#SVGID_2_);}
</style>
<title>city</title>
<path class="st0" d="M1052.6,356l0.7-38.1h71c0,0,21-152.8,16.8-201.6h28.1l0.4-21.4h59.1l0.4,21.4h30.9l4,220h35.8l22.9-79.4
	l48.9-97.8h71.8l2.5,136h19l3.5-187.9h26.7l4.3,233h11.9l4.3-233h156.1l3.5,196.4h45.2l2.5-131.6h107.3l0.4-23.5h32.2l3.6,193.1
	h27.5l3.6-193.1h24.8c0,0,3.5,136.4,2.5,136.4h44.2l3.3-178.7h106.5l4,215.4h23.4"/>
<path class="st0" d="M1052.6,356.1l0.8-37.7h70.4c0,0,21.4-150.9,17.3-199.3h27.9l0.4-21.2h58.6l0.4,21.2h30.7l4.7,217.4h35.6
	l22.9-78.5l48.7-96.6h71.2l3,134.4h18.8l4-185.8h26.5l5.1,230.2h11.9l5.1-230.2h154.9l4.3,194h44.7l2.8-130h106.5l0.5-23.2h31.9
	l4.2,190.8h27.2l4.2-190.8h24.6c0,0,4,134.8,3,134.8h43.9l3.8-176.7h105.7l4.6,212.9h23.1"/>
<path class="st0" d="M1052.6,356.2l0.9-37.2h69.9c0,0,21.8-149.2,17.7-196.9h27.7l0.5-20.9h58.1l0.5,20.9h30.4l5.4,214.8h35.3
	l22.9-77.6l48.4-95.5h70.6l3.3,132.8h18.6l4.8-183.5h26.3l5.8,227.5h11.8l5.9-227.5h153.6l4.9,191.7h44.3l3.3-128.4h105.5l0.6-22.9
	h31.6l4.7,188.5h27l4.8-188.5h24.4c0,0,4.4,133.2,3.4,133.2h43.6l4.4-174.6h104.9l5.3,210.4h23"/>
<path class="st0" d="M1052.6,356.4l1.1-36.8h69.3c0,0,22.3-147.3,18.3-194.6h27.5l0.6-20.7h57.7l0.6,20.7h30.2l6.1,212.2h34.9
	l22.9-76.6l48.3-94.3h70l3.7,131.2h18.5l5.2-181.3h26.1l6.5,224.8h11.6l6.5-224.8h152.3l5.4,189.4h43.9l3.6-126.9h104.7l0.6-22.7
	h31.4l5.3,186.3h26.7l5.3-186.3h24.2c0,0,4.8,131.6,3.8,131.6h43.2l5-172.4H2078l6,207.8h22.8"/>
<path class="st0" d="M1052.6,356.5l1.2-36.4h68.7c0,0,22.6-145.6,18.6-192.1h27.3l0.6-20.4h57.2l0.6,20.4h29.9l6.8,209.5h34.7
	l22.9-75.7l48.1-93.2h69.4l4.2,129.6h18.4l5.8-179h25.9l7.2,222h11.6l7.2-222h151l6.1,187.2h43.6l4-125.4h103.8l0.7-22.4h31.1
	l5.9,184h26.5l6.1-184h24c0,0,5.2,130,4.2,130h42.9l5.5-170.3h103.1l6.7,205.3h22.6"/>
<path class="st0" d="M1052.6,356.6l1.3-35.9h68.1c0,0,23.1-143.8,19.2-189.8h27l0.7-20.1h56.7l0.7,20.1h29.7l7.4,207h34.4l22.9-74.8
	l47.8-92h68.8l4.6,128h18.2l6.4-176.9h25.7l7.9,219.3h11.5l7.9-219.3h149.8L1676,307h43.2l4.5-123.9h102.9l0.8-22.1h30.9l6.6,181.7
	h26.3l6.5-181.7h23.8c0,0,5.6,128.3,4.6,128.3h42.5l6.1-168.2H2077l7.3,202.8h22.4"/>
<path class="st0" d="M1052.6,356.8l1.4-35.5h67.6c0,0,23.5-142,19.7-187.4h26.7l0.8-19.9h56.2l0.8,19.9h29.4l8.2,204.4h34.1
	l22.9-73.8l47.7-90.9h68.3l5.1,126.4h18.1l6.9-174.6h25.4l8.6,216.5h11.3l8.6-216.5h148.5l7.3,182.5h42.9l4.8-122.3h102.1l0.9-21.9
	h30.6l7.1,179.5h26.1l7.1-179.5h23.5c0,0,6,126.8,5.1,126.8h42.1l6.7-166.2h101.4l8,200.2h22.2"/>
<path class="st0" d="M1052.6,356.9l1.5-35h67c0,0,23.9-140.2,20.2-185.1h26.5l0.9-19.6h55.7l0.9,19.6h29.2l8.8,201.9h33.8l22.9-72.9
	l47.5-89.7h67.6l5.4,124.7h17.9l7.5-172.4h25.2l9.3,213.8h11.3l9.3-213.8h147.3l7.9,180.2h42.4l5.3-120.8h101.2l0.9-21.5h30.4
	l7.7,177.2h25.9l7.7-177.2h23.3c0,0,6.4,125.2,5.5,125.2h41.8l7.1-164H2076l8.7,197.8h22"/>
<path class="st0" d="M1052.6,357l1.7-34.5h66.4c0,0,24.4-138.4,20.7-182.7h26.3l0.9-19.4h55.1l0.9,19.4h28.9l9.5,199.3h33.5l22.9-72
	l47.3-88.6h67.1l5.9,123.2h17.8l8.1-170.2h24.9l10,211.1h11.2l10-211.1h146l8.5,177.8h42.1l5.7-119.2h100.3l1-21.3h30.1l8.3,174.9
	h25.7l8.4-174.9h23.2c0,0,6.9,123.6,5.9,123.6h41.4l7.7-161.9h99.6l9.3,195.1h21.8"/>
<path class="st0" d="M1052.6,357.2l1.7-34.1h65.8c0,0,24.7-136.6,21.1-180.3h26l1-19.1h54.8l1,19.1h28.6l10.2,196.7h33.2l22.8-71
	l47.1-87.4h66.5l6.3,121.6h17.5l8.7-168h24.8l10.8,208.3h11.1l10.8-208.3h144.7l9.1,175.5h41.7l6.1-117.6h99.4l1.1-21h29.9l9,172.6
	h25.4l9-172.6h23c0,0,7.2,121.9,6.4,121.9h41l8.3-159.8h98.7l10,192.6h21.6"/>
<path class="st0" d="M1052.6,357.3l1.9-33.6h65.2c0,0,25.1-134.8,21.5-177.9h25.9l1-18.9h54.3l1,18.9h28.4l10.8,194.1h33l23-70.1
	l46.8-86.2h65.9l6.7,120h17.4l9.3-165.8h24.5l11.5,205.6h11l11.5-205.6h143.3l9.7,173.2h41.4l6.5-116.1h98.5l1.2-20.7h29.6
	l9.5,170.3h25.2l9.5-170.3h22.8c0,0,7.7,120.3,6.7,120.3h40.7l8.8-157.7h97.9l10.6,190.1h21.5"/>
<path class="st0" d="M1052.6,357.4l2-33.2h64.7c0,0,25.7-133,22-175.6h25.6l1.2-18.7h53.8l1.2,18.7h28.2l11.6,191.5h32.5l23-69.2
	l46.5-85h65.3l7.1,118.4h17.3l9.7-163.6h24.4l12.2,202.8h10.7l12.2-202.8h142.2l10.3,171h41l6.9-114.5h97.6l1.2-20.4h29.3
	l10.1,168.1h25l10.1-168.1h22.6c0,0,8.1,118.7,7.2,118.7h40.3l9.4-155.6h97l11.3,187.5h21.2"/>
<path class="st0" d="M1052.6,357.6l2.1-32.7h64.1c0,0,26-131.2,22.5-173.2h25.4l1.2-18.3h53.3l1.2,18.3h27.9l12.2,189h32.4l23-68.3
	l46.4-84h64.7l7.5,116.7h17.1l10.4-161.3h24.1l12.9,200.1h10.8l12.9-200.1h140.9l10.9,168.6h40.6l7.3-113h96.8l1.3-20.2h29.1
	l10.7,165.8h24.7l10.7-165.8h22.4c0,0,8.5,117.1,7.6,117.1h40l10-153.5h96.1l12,185h21"/>
<path class="st0" d="M1052.6,357.7l2.2-32.3h63.6c0,0,26.4-129.4,22.9-170.8h25.2l1.2-18.1h52.8l1.2,18.1h27.7l12.9,186.3h32.1
	l23-67.3l46.2-82.8h64.1l7.9,115.1h17l11.1-159.2h23.9l13.7,197.3h10.7l13.7-197.4h139.6l11.5,166.3h40.2l7.7-111.5h95.9l1.4-19.9
	h28.8l11.3,163.6h24.5l11.3-163.5h22.2c0,0,8.9,115.5,8,115.5h39.6l10.5-151.3h95.3l12.6,182.5h20.9"/>
<path class="st0" d="M1052.6,357.8l2.4-31.9h62.9c0,0,26.9-127.6,23.4-168.5h24.9l1.3-17.9h52.3l1.3,17.9h27.4l13.6,183.8h31.8
	l23-66.4l45.9-81.7h63.6l8.4,113.6h16.8l11.6-156.9h23.7l14.3,194.6h10.6l14.4-194.6h138.3l12.1,164h39.9l8.1-110h95l1.4-19.6h28.6
	l11.9,161.3h24.3l11.9-161.3h22c0,0,9.3,113.9,8.5,113.9h39.2l11.1-149.3h94.4l13.3,179.9h20.7"/>
<path class="st0" d="M1052.6,357.9l2.5-31.4h62.4c0,0,27.3-125.8,23.9-166.1h24.7l1.4-17.7h51.8l1.4,17.7h27.2l14.3,181.2h31.4
	l23-65.4l45.7-80.6h63l8.9,112h16.6l12.1-154.8h23.4l15.1,191.9h10.5l15.1-191.9h137l12.6,161.7h39.5l8.5-108.3h94.1l1.5-19.4h28.3
	l12.6,159h24.1l12.6-159.1h21.8c0,0,9.7,112.3,8.8,112.3h38.8l11.6-147.2h93.5l14,177.3h20.4"/>
<path class="st0" d="M1052.6,358.1l2.6-30.9h61.7c0,0,27.8-124,24.4-163.6h24.4l1.4-17.4h51.4l1.4,17.4h26.9l14.9,178.6h31.1
	l23-64.5l45.5-79.4h62.4l9.3,110.4h16.5l12.7-152.6h23.2l15.8,189.1h10.4l15.8-189.1h135.8l13.3,159.3h39.2l9-106.8h93.2l1.6-19.1
	h28l13.1,156.7h23.9l13.1-156.7h21.5c0,0,10.1,110.7,9.3,110.7h38.5l12.1-145.1h92.6l14.7,174.9h20.3"/>
<path class="st0" d="M1052.6,358.2l2.7-30.5h61.2c0,0,28.1-122.2,24.8-161.4h24.2l1.5-17.1h50.9l1.5,17.1h26.7l15.6,176h30.9
	l23-63.6l45.4-78.2h61.8l9.6,108.7h16.3L1462,159h23l16.6,186.4h10.2l16.6-186.4h134.5l13.9,157h38.7l9.3-105.2h92.4l1.7-18.8h27.7
	l13.7,154.5h23.6l13.7-154.5h21.3c0,0,10.6,109.1,9.7,109.1h38.2l12.7-143h91.8l15.3,172.3h20.1"/>
<path class="st0" d="M1052.6,358.3l2.8-30h60.5c0,0,28.6-120.4,25.3-158.9h24l1.6-16.8h50.4l1.6,16.8h26.4l16.3,173.4h30.6l23-62.6
	l45.3-77h61.2l10,107.1h16.2l13.9-148.1h22.8l17.2,183.6h10.2l17.3-183.6h133.2l14.6,154.6h38.4l9.8-103.7h91.5l1.7-18.5h27.5
	l14.3,152.2h23.4l14.3-152.2h21.2c0,0,10.9,107.5,10.1,107.5h37.8l13.2-140.9h90.9l16,169.8h19.9"/>
<path class="st0" d="M1052.6,358.5l3-29.6h60c0,0,29-118.6,25.8-156.6h23.8l1.6-16.6h49.9l1.7,16.6h26.1l17,170.8h30.3l23-61.7
	l45-75.9h60.6l10.5,105.5h16l14.5-145.9h22.5l17.8,180.9h10.1l18-180.9h131.8l15.2,152.5h38l10.1-102.2h90.6l1.8-18.3h27.2
	l14.9,149.9h23.2l14.9-149.9h21c0,0,11.3,105.9,10.6,105.9h37.4l13.8-138.8h90.1l16.6,167.3h19.7"/>
<path class="st0" d="M1052.6,358.6l3-29.1h59.4c0,0,29.4-116.8,26.2-154.2h23.5l1.7-16.3h49.4l1.7,16.3h25.9l17.7,168.2h30l23-60.8
	L1359,208h60l10.9,104h15.9l15-143.6h22.4l18.7,178.2h10l18.7-178.2h130.7l15.8,150.2h37.7l10.6-100.7h89.7l1.9-17.9h26.9
	l15.5,147.7h22.9l15.5-147.7h20.7c0,0,11.8,104.3,11,104.3h37.1l14.4-136.7h89.2l17.3,164.7h19.5"/>
<path class="st0" d="M1052.6,358.7l3.2-28.7h58.9c0,0,29.8-115,26.7-151.8h23.3l1.8-16.1h48.9l1.8,16.1h25.7l18.4,165.7h29.7
	l23-59.8l44.5-73.6h59.4l11.3,102.4h15.8l15.7-141.5h22.1l19.4,175.4h9.9l19.4-175.4h129.4l16.3,147.8h37.3l10.8-99.1h88.9l2-17.7
	h26.7l16.1,145.3h22.7l16.1-145.3h20.5c0,0,12.1,102.7,11.3,102.7h36.7l14.9-134.7h88.3l18,162.2h19.4"/>
<path class="st0" d="M1052.6,358.9l3.3-28.3h58.2c0,0,30.3-113.2,27.2-149.5h23.1l1.9-15.9h48.4l1.9,15.9h25.4l19,163h29.4l23-58.9
	l44.3-72.5h58.9l11.8,100.8h15.5l16.1-139.3h21.9l20.1,172.7h9.8l20.2-172.6h128.1l17,145.5h36.9l11.3-97.5h88l2-17.4h26.4
	l16.7,143.1h22.5l16.7-143.1h20.3c0,0,12.6,101.1,11.8,101.1h36.4l15.4-132.4h87.5l18.6,159.7h19.2"/>
<path class="st0" d="M1052.6,359l3.4-27.8h57.7c0,0,30.6-111.5,27.7-147.2h22.8l1.9-15.6h48l1.9,15.6h25.2l19.6,160.6h29.1l22.9-58
	l44.1-71.3h58.3l12.1,99.2h15.4l16.8-137.1h21.7l20.9,169.9h9.7l20.8-169.9h126.8l17.6,143.2h36.6l11.8-96h87.1l2.1-17.1h26.2
	l17.3,140.9h22.3l17.3-140.8h20.1c0,0,12.9,99.5,12.2,99.5h36l16-130.4h86.6l19.3,157.1h18.9"/>
<path class="st0" d="M1052.6,359.1l3.5-27.4h57.1c0,0,31.1-109.6,28.1-144.7h22.6l2-15.4h47.5l2,15.4h24.9l20.4,157.9h28.8l23-57
	l43.9-70.1h57.7l12.6,97.6h15.3l17.3-134.8h21.5l21.7,167.2h9.6l21.5-167.2h125.5l18.2,140.9h36.2l12-94.5h86.2l2.2-16.9h25.9
	l17.8,138.5h22l17.9-138.5h20c0,0,13.4,97.9,12.6,97.9h35.6l16.6-128.3h85.7l20,154.5h18.8"/>
<path class="st0" d="M1052.6,359.3l3.5-26.9h56.5c0,0,31.6-107.8,28.7-142.4h22.4l2-15.1h47l2,15.1h24.7l21,155.3h28.5l23-56
	l43.7-69h57.1l12.9,96h15.1l18-132.7h21.2l22.4,164.5h9.5l22.4-164.5h124.2l18.8,138.5h35.7l12.6-92.9h85.4l2.2-16.6h25.6
	l18.5,136.3h21.8l18.5-136.3h19.7c0,0,13.8,96.2,13.1,96.2h35.3l17.1-126.1h84.8l20.6,152.1h18.6"/>
<path class="st0" d="M1052.6,359.4l3.8-26.4h55.9c0,0,31.9-106,29.1-140h22.1l2.1-14.8h46.5l2.1,14.8h24.4l21.7,152.7h28.3
	l22.9-55.2l43.4-67.9h56.5l13.4,94.4h15l18.6-130.4h21l23,161.8h9.4l23-161.8h123l19.4,136.3h35.4l13-91.4h84.5l2.4-16.3h25.3
	l19.1,134h21.6l19.1-134h19.5c0,0,14.2,94.6,13.5,94.6h34.9l17.7-124.1h83.9l21.3,149.5h18.4"/>
<path class="st0" d="M1052.6,359.5l3.9-26h55.3c0,0,32.4-104.3,29.5-137.6h21.9l2.2-14.6h46.1l2.2,14.6h24.1l22.4,150.1h28l23-54.2
	l43.3-66.7h55.9l13.9,92.8h14.8l19.2-128.2h20.8l23.7,158.9h9.3l23.7-158.9h121.5l19.9,133.9h35.1l13.4-89.8h83.6l2.4-16h25.1
	l19.7,131.7h21.5l19.7-131.7h19.3c0,0,14.6,93,13.9,93h34.6l18.2-121.9h83l22,147h18.2"/>
<path class="st0" d="M1052.6,359.7l3.9-25.7h54.8c0,0,32.8-102.4,30-135.2h21.7l2.2-14.3h45.5l2.2,14.3h23.9l23,147.5h27.7l23-53.3
	l43.1-65.6h55.3l14.2,91.2h14.7l19.7-126h20.6l24.4,156.2h9.2l24.5-156.2h120.4l20.6,131.6h34.7l13.8-88.3h82.7l2.5-15.8h24.8
	l20.2,129.5h21.2l20.3-129.5h19.1c0,0,15,91.4,14.3,91.4h34.1l18.8-119.9h82.2l22.6,144.5h18"/>
<path class="st0" d="M1052.6,359.8l4.1-25.1h54.2c0,0,33.2-100.7,30.5-132.8h21.4l2.4-14.1h45.1l2.4,14.1h23.6l23.8,144.9h27.3
	l23-52.4l42.7-64.4h54.7l14.7,89.6h14.4l20.3-123.8h20.3l25.2,153.5h9.1l25.2-153.5h119.2l21.2,129.3h34.3l14.2-86.6h81.8l2.5-15.5
	h24.6l20.9,127.2h20.9l20.9-127.2h18.9c0,0,15.4,89.8,14.8,89.8h33.8l19.3-117.7h81.2l23.3,141.9h17.8"/>
<path class="st0" d="M1052.6,359.9l4.2-24.7h53.6c0,0,33.6-98.8,30.9-130.5h21.2l2.4-13.8h44.6l2.4,13.8h23.3l24.4,142.4h27.1
	l23-51.4l42.7-63.3h54.1l15.1,88h14.3l20.9-121.6h20.2l25.9,150.8h9l25.9-150.8h117.9l21.9,126.9h34l14.6-85.1h80.9l2.6-15.2h24.3
	l21.5,124.9h20.7l21.5-124.9h18.7c0,0,15.8,88.3,15.2,88.3h33.5l19.9-115.6h80.4l24,139.4h17.7"/>
<path class="st0" d="M1052.6,360.1l4.3-24.3h53c0,0,34-97.1,31.4-128.1h21l2.5-13.6h44.1l2.5,13.6h23.1l25.1,139.7h26.7l23.1-50.4
	l42.4-62.1h53.6l15.4,86.4h14.1l21.5-119.4h20l26.6,148h8.9l26.6-148H1655l22.4,124.8h33.6l15-83.6h80.1l2.7-14.9h24.1l22,122.7
	h20.4l22-122.7h18.5c0,0,16.3,86.6,15.6,86.6h33.1l20.4-113.6h79.6l24.7,136.9h17.4"/>
<path class="st0" d="M1052.6,360.2l4.4-23.8h52.4c0,0,34.5-95.3,31.9-125.7h20.8l2.5-13.3h43.7l2.5,13.3h22.8l25.8,137.2h26.5
	l23.1-49.6l42.2-60.9h53l15.9,84.8h14l22-117.2h19.7l27.3,145.3h8.8l27.3-145.3h115.3l23.1,122.4h33.2l15.4-82h79.2l2.8-14.7h23.8
	l22.7,120.4h20.2l22.6-120.4h18.3c0,0,16.6,85,16,85h32.7l21-111.5h78.8l25.3,134.3h17.2"/>
<path class="st0" d="M1052.6,360.3l4.6-23.3h51.9c0,0,34.9-93.4,32.4-123.4h20.5l2.5-13.1h43.1l2.5,13.1h22.6l26.5,134.6h26.2
	l23.1-48.6l42-59.8h52.4l16.3,83.2h13.9l22.6-115h19.5l28,142.5h8.7l28-142.5h114l23.6,120.1h32.9l15.8-80.5h78.3l2.8-14.4h23.5
	l23.3,118.1h20l23.3-118.1h18.1c0,0,17.1,83.4,16.4,83.4h32.4l21.5-109.4h77.8l25.9,131.8h17.1"/>
<path class="st0" d="M1052.6,360.5l4.7-22.9h51.3c0,0,35.3-91.7,32.8-121h20.3l2.6-12.8h42.6l2.6,12.8h22.4l27.2,132h25.9l23.1-47.6
	l41.6-58.7h51.8l16.8,81.6h13.7l23.2-112.7h19.2l28.8,139.8h8.6l28.8-139.8h112.7l24.2,117.8h32.5l16.3-79h77.5l2.9-14.1h23.3
	l23.9,115.9h19.8l23.9-115.9h18c0,0,17.5,81.8,16.8,81.8h32l22.1-107.2h77l26.6,129.2h16.8"/>
<path class="st0" d="M1052.6,360.6l4.9-22.4h50.7c0,0,35.7-89.8,33.3-118.6h20.1l2.7-12.6h42.1l2.7,12.6h22.1L1259,349h25.6l23-46.7
	l41.6-57.5h51.2l17.2,80h13.5l23.8-110.5h19.1l29.4,137h8.5l29.5-137h111.5l24.8,115.5h32.2l16.6-77.4h76.6l3-13.9h23l24.4,113.6
	h19.6l24.4-113.6h17.7c0,0,17.9,80.3,17.3,80.3h31.7l22.6-105.1h76.1l27.3,126.7h16.6"/>
<path class="st0" d="M1052.6,360.7l4.9-22h50.1c0,0,36.1-88.1,33.8-116.3h19.9l2.7-12.3h41.7l2.7,12.3h21.8l28.5,126.9h25.3l23-45.8
	l41.3-56.4h50.6l17.7,78.4h13.4l24.4-108.3h18.8l30.2,134.2h8.5l30.1-134.3h110.2l25.4,113.1h31.8l17.1-75.8h75.7l3-13.5h22.7
	l25,111.3h19.4l25.1-111.3h17.5c0,0,18.3,78.6,17.7,78.6h31.3l23.2-103.1h75.2l28,124.2h16.5"/>
<path class="st0" d="M1052.6,360.8l5.1-21.5h49.4c0,0,36.6-86.2,34.3-113.9h19.6l2.8-12.1h41.2l2.8,12.1h21.6l29.2,124.2h25l23-44.9
	l41.1-55.2h50l18.1,76.8h13.2l24.9-106.1h18.6l30.9,131.6h8.3l30.9-131.6h109l26,110.8h31.4l17.5-74.3h74.8l3.1-13.3h22.4
	l25.7,109.1h19.2l25.7-109h17.3c0,0,18.7,77,18.1,77h30.9l23.7-101h74.4l28.6,121.6h16.3"/>
<path class="st0" d="M1052.6,361l5.1-21.1h48.9c0,0,37-84.5,34.7-111.6h19.4l2.9-11.9h40.7l2.9,11.9h21.3l29.8,121.6h24.7l23-44
	l40.9-54h49.4l18.4,75.2h13.1l25.5-103.9h18.4l31.7,128.8h8.2l31.6-128.8h107.7l26.7,108.6h31l17.9-72.8h73.9l3.2-12.9h22.2
	l26.2,106.8h18.9l26.2-106.7h17.1c0,0,19.1,75.3,18.5,75.3h30.6l24.3-98.8h73.5l29.3,119.2h16.1"/>
<path class="st0" d="M1052.6,361.1l5.3-20.7h48.4c0,0,37.4-82.7,35.2-109.1h19.2l3-11.6h40.3l3,11.6h21l30.6,119.1h24.4l23.1-43
	l40.8-53h48.9l18.8,73.6h12.9l26.1-101.7h18.2l32.2,126.1h8.2l32.4-126.1h106.4l27.3,106.3h30.6l18.3-71.2h73.1l3.2-12.7h21.9
	l26.8,104.6h18.6l26.8-104.5h16.9c0,0,19.5,73.8,18.9,73.8h30.2l24.9-96.7h72.6l29.9,116.5h15.9"/>
<path class="st0" d="M1052.6,361.2l5.4-20.1h47.8c0,0,37.8-80.9,35.6-106.7h18.9l3-11.3h39.8l3,11.3h20.8l31.2,116.4h24.1l23.1-42
	l40.5-51.7h48.3l19.3,72h12.8l26.7-99.5h17.8l33.1,123.3h8l33.1-123.4h105l27.8,103.9h30.4l18.6-69.7h72.2l3.3-12.4h21.7l27.4,102.2
	h18.4l27.5-102.2h16.7c0,0,19.9,72.2,19.4,72.2h29.9l25.4-94.6h71.8l30.6,114h15.7"/>
<path class="st0" d="M1052.6,361.4l5.5-19.7h47.2c0,0,38.2-79.1,36.1-104.4h18.7l3.1-11.1h39.2l3.1,11.1h20.5l31.9,113.9h23.9
	l23.1-41.2l40.3-50.6h47.7l19.7,70.4h12.6l27.3-97.3h17.8l33.8,120.6h8l33.7-120.5h103.8l28.5,101.6h29.9l19.1-68.1h71.3l3.4-12.2
	h21.4l28,99.9h18.3l28-99.9h16.5c0,0,20.3,70.6,19.8,70.6h29.5l25.9-92.6h70.8l31.3,111.5h15.5"/>
<path class="st0" d="M1052.6,361.5l5.6-19.3h46.6c0,0,38.7-77.3,36.6-102h18.4l3.2-10.8h38.8l3.2,10.8h20.3l32.6,111.3h23.5
	l23.1-40.2l40.1-49.4h47.1l20.1,68.8h12.4l27.8-95.1h17.6l34.5,117.9h7.8l34.6-117.9H1649l29.1,99.3h29.6l19.6-66.6h70.5l3.5-11.8
	h21.1l28.6,97.7h18l28.6-97.7h16.3c0,0,20.7,68.9,20.2,68.9h29.1l26.5-90.4h69.9l31.9,109h15.3"/>
<path class="st0" d="M1052.6,361.6l5.8-18.8h46c0,0,39.1-75.5,37.1-99.6h18.2l3.2-10.6h38.3l3.2,10.6h20l33.2,108.7h23.3l23-39.2
	l39.9-48.3h46.5l20.5,67.2h12.3l28.4-92.9h17.4l35.2,115.1h7.7l35.2-115.1h101.2l29.7,97h29.2l19.9-65h69.6l3.5-11.6h20.9l29.2,95.4
	h17.8l29.2-95.4h16c0,0,21.2,67.3,20.7,67.3h28.8l27.1-88.3h69.1l32.6,106.4h15.1"/>
<path class="st0" d="M1052.6,361.8l5.9-18.4h45.5c0,0,39.5-73.7,37.5-97.3h17.9l3.3-10.3h37.9l3.3,10.3h19.8l33.9,106.1h23l23-38.4
	l39.7-47.2h45.9l21,65.6h12.1l29-90.6h17.1l35.9,112.5h7.7l35.9-112.4H1648l30.3,94.7h28.8l20.3-63.5h68.7l3.6-11.3h20.5l29.8,93.1
	h17.6l29.9-93.1h15.8c0,0,21.5,65.7,21,65.7h28.4l27.6-86.2h68.3l33.2,103.9h15"/>
<path class="st0" d="M1052.6,361.9l6-17.9h44.9c0,0,40-71.9,38-94.9h17.8l3.3-10.1h37.3l3.3,10.1h19.5l34.6,103.5h22.7l23.1-37.4
	l39.4-46h45.3l21.4,64h12l29.6-88.4h16.8l36.6,109.6h7.5l36.6-109.6h98.7l31,92.3h28.5l20.7-62h67.8l3.7-11h20.3l30.3,90.9h17.4
	l30.4-90.9h15.7c0,0,22,64.1,21.5,64.1h28l28.2-84.1h67.4l34,101.4h14.8"/>
<path class="st0" d="M1052.6,362l6-17.4h44.3c0,0,40.4-70.1,38.5-92.6h17.6l3.4-9.9h36.9l3.5,9.9h19.3l35.3,100.9h22.4l23.1-36.4
	l39.2-44.9h44.7l21.8,62.4h11.9l30.1-86.2h16.6l37.4,106.9h7.4l37.4-106.9h97.4l31.6,90.2h28.1l21-60.5h66.9l3.8-10.8h20.1l31,88.6
	h17.1l31-88.6h15.5c0,0,22.4,62.5,21.9,62.5h27.7l28.7-82h66.5l34.6,98.8h14.6"/>
<path class="st0" d="M1052.6,362.2l6.2-17.1h43.7c0,0,40.8-68.3,39-90.2h17.3l3.5-9.5h36.3l3.5,9.5h19.1l36,98.3h22l23.1-35.6
	l39-43.7h44.2l22.3,60.8h11.7l30.7-84h16.3l38.1,104.2h7.4l38.1-104.2h96.1l32.1,87.8h27.7l21.5-58.9h66.1l3.8-10.5h19.8l31.7,86.3
	h16.9l31.5-86.3h15.3c0,0,22.8,60.9,22.4,60.9h27.3l29.3-79.9h65.6l35.3,96.3h14.4"/>
<path class="st0" d="M1052.6,362.3l6.4-16.6h43.1c0,0,41.2-66.5,39.4-87.8h17.1l3.5-9.3h35.9l3.5,9.3h18.8l36.6,95.8h21.7l23.1-34.6
	l38.8-42.6h43.6l22.6,59.2h11.5l31.3-81.7h16.3l38.8,101.4h7.2l38.8-101.4h94.9l32.7,85.4h27.3l21.9-57.3h65.2l3.9-10.2h19.5
	l32.1,84h16.6l32.2-84.1h15c0,0,23.2,59.3,22.8,59.3h27l29.9-77.8h64.7l35.9,93.8h14.1"/>
<path class="st0" d="M1052.6,362.4l6.4-16.2h42.6c0,0,41.6-64.7,39.9-85.4h16.8l3.6-9.1h35.4l3.6,9.1h18.5l37.2,93.2h21.5l23.1-33.6
	l38.6-41.4h43l23.1,57.6h11.3l31.9-79.6h16l39.5,98.7h7.1l39.5-98.7h93.6l33.3,83.1h27l22.4-55.7h64.3l4-9.9h19.3l32.7,81.8h16.4
	l32.8-81.8h14.9c0,0,23.6,57.7,23.2,57.7h26.6l30.4-75.7h63.9l36.6,91.2h13.9"/>
<path class="st0" d="M1052.6,362.6l6.6-15.7h42c0,0,42.1-62.9,40.3-83h16.6l3.7-8.8h34.9l3.7,8.8h18.3l38,90.6h21.2l23.1-32.7
	l38.5-40.3h42.4l23.5,56h11.2L1449,260h15.8l40.3,95.9h7.1l40.2-95.9h92.3l33.9,80.8h26.6l22.8-54.2h63.5l4-9.7h19l33.4,79.5h16.2
	l33.4-79.5h14.7c0,0,24,56.1,23.5,56.1h26.2l30.8-73.4h63l37.3,88.7h13.8"/>
<path class="st0" d="M1052.6,362.6l6.7-15.2h41.4c0,0,42.5-61.2,40.8-80.6h16.3l3.8-8.6h34.5l3.7,8.6h18l38.7,88h20.9l23.1-31.8
	l38.2-39.1h41.8l23.9,54.4h11.1l33-75.2h15.5l41,93.3h6.9l41-93.3h91.1l34.6,78.6h26.2l23.1-52.6h62.5l4.1-9.4h18.8l34,77.2h16
	l34-77.3h14.5c0,0,24.4,54.5,24,54.5h25.9l31.5-71.5h62.2l37.9,86.2h13.6"/>
<path class="st0" d="M1052.6,362.8l6.8-14.8h40.8c0,0,42.9-59.3,41.3-78.3h16.2l3.8-8.3h34l3.8,8.3h17.8l39.3,85.4h20.6l23.1-30.8
	l38-38h41.2l24.3,52.8h10.8l33.6-73h15.3l41.7,90.5h6.9l41.7-90.5h89.8l35.1,76.2h25.9l23.5-51.1h61.7l4.2-9.1h18.5l34.6,75h15.8
	l34.5-74.9h14.2c0,0,24.9,53,24.4,53h25.5l32-69.5h61.3l38.6,83.6h13.4"/>
<path class="st0" d="M1052.6,363l6.9-14.3h40.2c0,0,43.3-57.5,41.8-75.9h15.9l3.9-8h33.4l3.9,8h17.5l40,82.8h20.3l23.1-29.9
	l37.8-36.8h40.6l24.7,51.2h10.8l34.1-70.7h15.1l42.4,87.7h6.8l42.4-87.7h88.5l35.8,73.9h25.5l24-49.4h60.8l4.3-8.8h18.2l35.3,72.7
	h15.5l35.1-72.7h14c0,0,25.2,51.3,24.9,51.3h25.1l32.6-67.3h60.5l39.2,81.1h13.2"/>
<path class="st0" d="M1052.6,363l7.1-13.9h39.7c0,0,43.7-55.7,42.2-73.6h15.6l3.9-7.8h33l3.9,7.8h17.3l40.7,80.2h20l23.1-29
	l37.6-35.6h40l25.2,49.6h10.6l34.8-68.5h14.9l43.4,85.1h6.7l43.2-85h87.1l36.4,71.6h25.2l24.4-48h59.9l4.3-8.6h17.9l35.8,70.4h15.3
	l35.8-70.5h13.8c0,0,25.7,49.7,25.3,49.7h24.8l33.1-65.2h59.6l39.9,78.6h12.9"/>
<path class="st0" d="M1052.6,363.2l7.1-13.5h39.1c0,0,44.2-53.9,42.7-71.2h15.5l4-7.5h32.5l4,7.5h17l41.4,77.7h19.7l23.1-28
	l37.4-34.5h39.5l25.6,48h10.4l35.3-66.3h14.7l43.9,82.2h6.6l43.9-82.2h85.9l36.9,69.3h24.8l24.8-46.4h59l4.4-8.3h17.7l36.4,68.1
	h15.1l36.4-68.1h13.7c0,0,26.1,48.1,25.7,48.1h24.4l33.7-63.1h58.7l40.6,76.1h12.9"/>
<path class="st0" d="M1052.6,363.3l7.3-12.9h38.5c0,0,44.6-52.1,43.1-68.8h15.3l4-7.3h32l4,7.3h16.8l42.1,75h19.4l23.1-27.1
	l37.2-33.4h38.8l26,46.4h10.3l35.9-64.1h14.5l44.5,79.5h6.5l44.6-79.5h84.5l37.6,66.9h24.4l25.2-44.9h58.2l4.5-8h17.4l36.9,65.9
	h14.9l36.9-65.7h13.4c0,0,26.5,46.5,26.1,46.5h24.1l34.1-60.9h57.8l41.2,73.5h12.7"/>
<path class="st0" d="M1052.6,363.4l7.4-12.6h38c0,0,45-50.4,43.7-66.5h15l4.1-7.1h31.5l4.1,7.1h16.5l42.7,72.5h19.2l23.1-26.2
	l36.9-32.2h38.3l26.4,44.7h10.1l36.5-61.9h14.2l45.3,76.7h6.4l45.3-76.7h83.4l38.2,64.7h24l25.6-43.3h57.3l4.6-7.8h17.2l37.6,63.6
	h14.7l37.6-63.6h13.2c0,0,26.8,44.9,26.5,44.9h23.7l34.8-58.9h57l41.9,71h12.4"/>
<path class="st0" d="M1052.6,363.6l7.5-12.1h37.4c0,0,45.4-48.5,44.1-64.1h14.7l4.2-6.8h31l4.2,6.8h16.3l43.4,69.9h18.8l23.1-25.2
	l36.7-31.1h37.7l26.8,43.2h10l37.1-59.6h14l46,74h6.3l46-74h82.1l38.7,62.4h23.6l26-41.8h56.4l4.6-7.4h16.9l38.2,61.3h14.4
	l38.2-61.3h12.9c0,0,27.3,43.3,27,43.3h23.4l35.3-56.8h56.1l42.6,68.5h12.3"/>
<path class="st0" d="M1052.6,363.7l7.7-11.7h36.7c0,0,45.8-46.8,44.6-61.7h14.5l4.3-6.6h30.6l4.3,6.6h16l44,67.2h18.6l23.1-24.3
	l36.6-29.8h37.1l27.2,41.6h9.8l37.7-57.5h13.8l46.7,71.3h6.1l46.8-71.3h80.8l39.4,60h23.3l26.4-40.3h55.5l4.7-7.2h16.6l38.7,59.1
	h14.1l38.7-59.1h12.8c0,0,27.7,41.7,27.4,41.7h23l35.9-54.7h55.2l43.2,65.9h12.1"/>
<path class="st0" d="M1052.6,363.8l7.7-11.2h36.1c0,0,46.3-44.9,45-59.3h14.3l4.3-6.3h30.1l4.3,6.3h15.8l44.8,64.7h18.3l23.1-23.4
	l36.2-28.8h36.5l27.7,39.9h9.7l38.2-55.3h13.7l47.5,68.5h6l47.5-68.5h79.6l40,57.7h22.9l26.8-38.7h54.6l4.7-6.9h16.4l39.3,56.8h13.9
	l39.4-56.8h12.6c0,0,28.1,40.1,27.8,40.1h22.6l36.4-52.5h54.4l43.9,63.3h11.9"/>
<path class="st0" d="M1052.6,364l7.9-10.8h35.6c0,0,46.7-43.2,45.5-56.9h14.1l4.4-6h29.6l4.4,6h15.5l45.5,62.1h18l23.1-22.4
	l36.1-27.6h35.8l28.1,38.4h9.4l38.8-53.1h13.4l48.1,65.8h5.9l48.3-65.8h78.3l40.6,55.4h22.5l27.2-37.2h53.8l4.8-6.7h16.1l40,54.5
	h13.7l40-54.5h12.3c0,0,28.6,38.5,28.3,38.5h22.3l37-50.4h53.5l44.6,60.8h11.7"/>
<path class="st0" d="M1052.6,364.1l8-10.3h35c0,0,47.1-41.3,45.9-54.5h13.9l4.5-5.8h29.1l4.5,5.8h15.2l46.1,59.5h17.7l23.1-21.5
	l35.9-26.4h35.3l28.5,36.8h9.3l39.4-50.8h13.2l48.9,63h5.9l48.9-63h77l41.2,53.1h22.2l27.6-35.6h52.9l4.9-6.3h15.8l40.5,52.2h13.5
	l40.5-52.2h12.2c0,0,28.9,36.9,28.6,36.9h21.8l37.6-48.4h52.6l45.2,58.3h11.5"/>
<path class="st0" d="M1052.6,364.2l8.1-9.8h34.4c0,0,47.6-39.6,46.5-52.2h13.6l4.6-5.5h28.6l4.6,5.5h15l46.8,56.9h17.3l23.1-20.6
	l35.8-25.3h34.8l28.9,35.2h9.2l40-48.6h12.9l49.6,60.3h5.8l49.6-60.3h75.7l41.8,50.9h21.8l28-34h52l5-6.1h15.6l41.1,50h13.3l41.1-50
	h12c0,0,29.3,35.3,29.1,35.3h21.5l38.1-46.3h51.7l45.9,55.7h11.3"/>
<path class="st0" d="M1052.6,364.4l8.2-9.4h33.8c0,0,47.9-37.7,46.9-49.8h13.3l4.6-5.3h28.1l4.6,5.3h14.7l47.5,54.4h17.1l23.1-19.7
	l35.5-24.2h34.1l29.3,33.6h9l40.5-46.4h12.7l50.3,57.6h5.6l50.3-57.6h74.4l42.4,48.5h21.5l28.4-32.5h51.2l5.1-5.8h15.3l41.7,47.7
	h13.1l41.8-47.7h11.8c0,0,29.8,33.7,29.4,33.7h21.1l38.7-44.1h50.8l46.5,53.2h11.1"/>
<path class="st0" d="M1052.6,364.5l8.3-9h33.2c0,0,48.4-36,47.4-47.5h13.1l4.6-5h27.7l4.6,5h14.5l48.3,51.7h16.8l23-18.7l35.3-23
	h33.7l29.8,32h8.9l41.1-44.2h12.5l51,54.8h5.6l51-54.8h73.2l43,46.2h21.1l28.8-31.1h50.2l5.1-5.5h15l42.4,45.4h12.9l42.4-45.4h11.6
	c0,0,30.1,32.1,29.9,32.1h20.8l39.2-42h49.8l47.3,50.8h10.9"/>
<path class="st0" d="M1052.6,364.6l8.5-8.6h32.6c0,0,48.8-34.1,47.8-45.1h12.9l4.7-4.8h27.2l4.7,4.8h14.2l48.9,49.2h16.5l23.3-17.8
	l35-21.9h33l30.2,30.4h8.7l41.7-42h12.3l51.8,52.1h5.5l51.8-52.1h71.9l43.6,43.9h20.7l29.2-29.4h49.4l5.2-5.2h14.8l42.9,43.2h12.5
	l42.9-43.2h11.4c0,0,30.6,30.5,30.4,30.5h20.4l39.7-39.9h49.1l47.9,48.1h10.8"/>
<path class="st0" d="M1052.6,364.8l8.5-8.1h32.1c0,0,49.2-32.3,48.3-42.7h12.7l4.8-4.6h26.7l4.8,4.6h14l49.4,46.6h16.2l23.2-16.8
	l34.8-20.7h32.4l30.6,28.8h8.5l42.3-39.8h12.1l52.5,49.3h5.4l52.5-49.3h70.6l44.2,41.6h20.4l29.7-27.9h48.5l5.3-5h14.5l43.6,40.9
	h12.4l43.6-40.9h11.2c0,0,30.9,28.9,30.8,28.9h20l40.3-37.9h48.3l48.4,45.7h10.6"/>
<path class="st0" d="M1052.6,364.9l8.7-7.6h31.5c0,0,49.7-30.6,48.8-40.4h12.5l4.8-4.2h26.2l4.8,4.2h13.7l50.2,44.1h15.9l23.2-15.9
	l34.6-19.5h31.8l31.1,27.3h8.4l42.9-37.6h11.9l53.2,46.6h5.3l53.2-46.6h69.3l44.8,39.2h20l30-26.4h47.6l5.3-4.7h14.3l44.1,38.6h12.1
	l44.2-38.6h11.1c0,0,31.4,27.2,31.2,27.2h19.6l40.8-35.7h47.3l49.2,43.1h10.3"/>
<path class="st0" d="M1052.6,365l8.8-7.2h30.9c0,0,50-28.7,49.2-38h12.2l4.9-4h25.7l4.9,4h13.4l50.9,41.4h15.6l23.2-15l34.4-18.4
	h31.2l31.4,25.6h8.2l43.4-35.4h11.6l53.9,43.9h5.2l53.9-43.9h68.1l45.4,36.9h19.6l30.5-24.7h46.8l5.4-4.4h14l44.7,36.4h11.9
	l44.7-36.4h10.8c0,0,31.8,25.6,31.6,25.6h19.3l41.4-33.6h46.5l49.9,40.5h10.2"/>
<path class="st0" d="M1052.6,365.1l8.9-6.7h30.3c0,0,50.4-27,49.7-35.6h12l5-3.8h25.2l5,3.8h13.2l51.5,38.8h15.3l23.2-14l34.1-17.3
	h30.6l31.9,24h8.1l44.1-33.2h11.4l54.8,41.1h5.1l54.7-41.1h66.8l46,34.7h19.2l30.9-23.2h45.9l5.5-4.2h13.7l45.3,34h11.7l45.3-34
	h10.6c0,0,32.2,24,32,24h18.9l42-31.5h45.5l50.6,38h10"/>
<path class="st0" d="M1052.6,365.3l9-6.3h29.8c0,0,50.8-25.1,50.2-33.2h11.8l5.1-3.5h24.7l5.1,3.5h12.9l52.3,36.3h15l23.2-13.1
	l34.1-16.2h30.1l32.3,22.4h8l44.6-30.9h11.2l55.3,38.4h5l55.3-38.4h65.5l46.6,32.3h18.8l31.3-21.7h45l5.6-3.8h13.5l45.8,31.8h11.5
	l45.9-31.8h10.4c0,0,32.6,22.4,32.5,22.4h18.6l42.5-29.4h44.7l51.2,35.5h9.8"/>
<path class="st0" d="M1052.6,365.5l9.1-5.9h29.2c0,0,51.3-23.4,50.6-30.8h11.6l5.1-3.3h24.3l5.1,3.3h12.7l52.9,33.6h14.8l23.2-12.2
	l33.8-15h29.4l32.7,20.8h7.8l45.2-28.7h11l56.1,35.6h4.9l56.1-35.6h64.2l47.3,30h18.5l31.7-20.1h44.1l5.6-3.6h13.2l46.5,29.5h11.3
	l46.5-29.5h10.2c0,0,33,20.8,32.9,20.8h18.2l43.1-27.3h43.9l51.9,33h9.6"/>
<path class="st0" d="M1052.6,365.5l9.3-5.4h28.6c0,0,51.8-21.5,51.2-28.4h11.3l5.2-3h23.8l5.2,3h12.4l53.6,31.1h14.5l23.2-11.2
	l33.6-13.8h28.9l33.1,19.2h7.6l45.7-26.6h10.8l56.8,33h4.8l56.8-33h62.9l47.8,27.6h18.1l32.1-18.6h43.2l5.7-3.3h12.9l47.1,27.2h11.1
	l47.1-27.2h10c0,0,33.5,19.2,33.2,19.2h17.9l43.7-25.2h43l52.5,30.4h9.4"/>
<path class="st0" d="M1052.6,365.7l9.4-5h27.9c0,0,52.2-19.8,51.6-26.1h11.1l5.3-2.8h23.4l5.3,2.8h12.2l54.3,28.5h14.1l23.2-10.3
	l33.4-12.7h28.3l33.5,17.7h7.4l46.4-24.3h10.3l57.5,30.2h4.7l57.5-30.2h61.6l48.4,25.4h17.8l32.5-17.1h42.4l5.8-3h12.6l47.7,25h10.8
	l47.7-25h9.8c0,0,33.8,17.7,33.7,17.7h17.5l44.2-23.1h42.1l53.3,27.8h9.3"/>
<path class="st0" d="M1052.6,365.9l9.4-4.5h27.5c0,0,52.6-18,52.1-23.7h10.8l5.3-2.5h22.8l5.4,2.5h11.9l54.9,25.9h13.9l23.2-9.4
	l33.2-11.5h27.8l34,16h7.2l47-22.1h10.3l58.2,27.4h4.6l58.2-27.4h60.4l49.1,23.1h17.4l32.9-15.5h41.5l5.9-2.8h12.4l48.3,22.7h10.6
	l48.3-22.7h9.5c0,0,34.3,16,34.1,16h17.2l44.7-21.1h41.2l53.9,25.3h9"/>
<path class="st0" d="M1052.6,365.9l9.6-4h26.9c0,0,53-16.1,52.5-21.4h10.6l5.4-2.2h22.4l5.3,2.2h11.8l55.6,23.3h13.6l23.2-8.4
	l33-10.3h27.1l34.4,14.4h7.2l47.6-19.9h10.1l58.9,24.7h4.5l59-24.7h59.1l49.7,20.8h17.1l33.3-13.9h40.6l5.9-2.5h12.1l48.9,20.4h10.4
	l48.9-20.4h9.4c0,0,34.7,14.4,34.6,14.4h16.8l45.3-18.9h40.4l54.6,22.8h8.8"/>
<path class="st0" d="M1052.6,366.1l9.8-3.6h26.2c0,0,53.4-14.4,53-19h10.4l5.4-2h21.9l5.4,2h11.4l56.3,20.7h13.2l23.2-7.4l32.7-9.2
	h26.5l34.8,12.8h7.1l48.1-17.7h9.9l59.6,21.9h4.4l59.8-22h57.8l50.3,18.5h16.6l33.7-12.4h39.8l6-2.2h11.9l49.4,18.2h10.1l49.5-18.2
	h9.2c0,0,35,12.8,35,12.8h16.4l45.8-16.8h39.5l55.2,20.3h8.7"/>
<path class="st0" d="M1052.6,366.2l9.8-3.1h25.7c0,0,53.8-12.5,53.4-16.6h10.2l5.5-1.8h21.4l5.5,1.8h11.2l57,18.2h12.9l23.2-6.5
	l32.5-8.1h25.9l35.2,11.2h6.9l48.7-15.5h9.7l60.3,19.2h4.3l60.4-19.2h56.6L1680,362h16.3l34.1-10.8h38.8l6.1-1.9h11.6l50.1,15.9h9.9
	l50.1-15.9h8.9c0,0,35.5,11.2,35.4,11.2h16l46.4-14.7h38.6l55.9,17.7h8.5"/>
<path class="st0" d="M1052.6,366.3l10-2.6h25.1c0,0,54.3-10.8,54-14.3h9.9l5.6-1.5h20.9l5.6,1.5h10.9l57.7,15.5h12.7l23.2-5.6
	l32.4-6.9h25.3l35.6,9.6h6.7l49.3-13.3h9.4l61.1,16.4h4.2l61.1-16.4h55.3l51.5,13.8h15.9l34.5-9.3h37.9l6.1-1.7h11.4l50.6,13.6h9.7
	l50.6-13.6h8.7c0,0,35.9,9.6,35.8,9.6h15.7l46.9-12.7h37.7l56.6,15.2h8.2"/>
<path class="st0" d="M1052.6,366.5l10.1-2.2h24.5c0,0,54.7-9,54.4-11.8h9.7l5.6-1.3h20.4l5.6,1.3h10.7l58.3,12.9h12.4l23.2-4.6
	l32.2-5.8h24.7l36.1,8h6.5l49.9-11.1h9.3l61.8,13.7h4.1l61.9-13.7h54l52.1,11.5h15.5l34.9-7.7h37.1l6.2-1.4h11.1l51.2,11.4h9.4
	l51.3-11.4h8.5c0,0,36.3,8,36.2,8h15.3l47.5-10.5h36.9l57.2,12.7h8.1"/>
<path class="st0" d="M1052.6,366.6l10.2-1.8h23.9c0,0,55.1-7.2,54.9-9.5h9.4l5.7-1h20l5.7,1h10.4l59,10.3h12.1l23.2-3.8l31.9-4.6
	h24.2l36.5,6.4h6.4l50.4-8.9h9l62.5,11h4l62.6-11h52.7l52.7,9.2h15.2l35.3-6.2h36.2l6.3-1.1h10.8l51.9,9.1h9.3l51.9-9.1h8.4
	c0,0,36.7,6.4,36.6,6.4h15l48.1-8.2h36l58,10.1h7.9"/>
<path class="st0" d="M1052.6,366.7l10.3-1.4h23.3c0,0,55.5-5.4,55.3-7.1h9.3l5.8-0.7h19.4l5.8,0.7h10.2l59.7,7.8h11.8l23.2-2.8
	l31.7-3.4h23.6l36.9,4.8h6.2l51-6.7h8.8l63.2,8.2h3.9l63.2-8.2h51.5l53.3,7h14.8l35.7-4.7h35.3l6.4-0.8h10.6l52.5,6.8h9l52.5-6.8
	h8.2l37.1,4.8h14.6l48.6-6.3h35.1l58.5,7.6h7.7"/>
<path class="st0" d="M1052.6,366.9l10.4-0.9h22.8c0,0,55.9-3.6,55.9-4.7h9l5.9-0.5h18.9l5.9,0.5h9.9l60.4,5.2h11.5l23.2-1.8
	l31.5-2.4h23l37.3,3.2h6.1l51.6-4.4h8.5l64,5.5h3.8l63.9-5.5h50.2l53.9,4.7h14.5l36.1-3.1h34.5l6.4-0.6h10.3l53.1,4.6h8.8l53-4.6h8
	l37.5,3.2h14.2l49.1-4.2h34.3l59.2,5.1h7.5"/>
<path class="st0" d="M1052.6,367l10.6-0.5h22.2c0,0,56.4-1.8,56.3-2.4h8.6l5.9-0.2h18.5l5.9,0.2h9.7l61.1,2.6h11.2l23.3-1l31.3-1.2
	h22.4l37.7,1.6h5.9l52.2-2.2h8.3l64.7,2.7h3.7l64.7-2.7h48.9l54.5,2.4h14.1l36.5-1.5h33.6l6.5-0.3h10l53.6,2.2h8.5l53.7-2.2h7.7
	l37.9,1.6h13.9l49.7-2.1h33.4l59.9,2.6h7.3"/>
<line class="st0" x1="1052.6" y1="367.1" x2="2106.7" y2="367.1"/>
<path class="st0" d="M1041.4,356l0.7-38.1h39.7c0,0,21-152.8,16.8-201.6h28.2l0.4-21.4h59.1l0.4,21.4h30.9l4,220h35.8l22.9-79.4
	l48.9-97.8h71.8l2.5,136h19l3.5-187.9h26.7l4.3,233h11.9l4.3-233h156l3.6,196.4h45.2l2.5-131.6h107.3l0.4-23.5h32.2l3.6,193.1h27.5
	l3.6-193.1h24.8c0,0,3.5,136.4,2.5,136.4h44.2l3.3-178.7h106.4l4,215.4h23.3"/>
<path class="st0" d="M1041.4,356.1l0.8-37.7h39.1c0,0,21.4-150.9,17.3-199.3h27.9l0.4-21.2h58.6l0.4,21.2h30.7l4.7,217.4h35.6
	l22.9-78.5l48.7-96.6h71.3l3,134.4h18.8l4-185.8h26.5l5.1,230.2h11.9l5.1-230.2h154.9l4.3,194h44.7l2.8-130h106.3l0.5-23.2h31.9
	l4.2,190.8h27.2l4.2-190.8h24.6c0,0,4,134.8,3,134.8h43.9l3.8-176.7h105.7l4.6,212.9h23.1"/>
<path class="st0" d="M1041.4,356.2l0.9-37.2h38.5c0,0,21.8-149.2,17.8-196.9h27.7l0.5-20.9h58.1l0.5,20.9h30.4l5.4,214.8h35.3
	l22.9-77.6l48.5-95.5h70.6l3.3,132.8h18.6l4.8-183.5h26.3l5.8,227.5h11.8l5.8-227.5h153.6l4.8,191.7h44.3l3.2-128.4h105.5l0.6-22.9
	h31.7l4.7,188.5h27l4.7-188.5h24.4c0,0,4.4,133.2,3.4,133.2h43.6l4.4-174.6h104.9l5.3,210.4h23"/>
<path class="st0" d="M1041.4,356.4l1.1-36.8h37.9c0,0,22.3-147.3,18.3-194.6h27.5l0.6-20.6h57.7l0.6,20.7h30.2l6.1,212.2h34.9
	l22.9-76.6l48.3-94.3h70l3.8,131.2h18.5l5.2-181.3h26.1l6.5,224.8h11.6l6.5-224.8H1628l5.4,189.4h43.9l3.6-126.9h104.7l0.6-22.7
	h31.4l5.3,186.3h26.7L1855,156h24.2c0,0,4.7,131.6,3.8,131.6h43.2l5-172.4h104.1l6,207.8h22.8"/>
<path class="st0" d="M1041.4,356.5l1.2-36.4h37.3c0,0,22.7-145.6,18.7-192.1h27.3l0.6-20.4h57.2l0.6,20.4h29.9l6.8,209.5h34.7
	l22.9-75.6l48.1-93.2h69.4l4.2,129.6h18.4l5.8-179h25.9l7.3,222h11.6l7.2-222h151l6.1,187.2h43.6l4-125.4h103.8l0.7-22.4h31.1
	l5.9,184h26.5l6-184h24c0,0,5.2,130,4.2,130h42.9l5.5-170.3h103.1l6.7,205.3h22.5"/>
<path class="st0" d="M1041.4,356.6l1.3-35.9h36.8c0,0,23.1-143.8,19.2-189.8h26.9l0.7-20.1h56.7l0.7,20.1h29.7l7.5,207h34.4
	l22.9-74.8l47.9-92h68.8l4.6,128h18.2l6.4-176.9h25.7l7.8,219.3h11.5l7.9-219.3h149.8l6.7,184.7h43.2l4.5-123.9H1784l0.8-22.2h30.9
	l6.6,181.7h26.3l6.6-181.7h23.8c0,0,5.6,128.3,4.6,128.3h42.5l6.1-168.2h102.2l7.3,202.8h22.4"/>
<path class="st0" d="M1041.4,356.8l1.4-35.5h36.2c0,0,23.5-142,19.7-187.4h26.7l0.8-19.9h56.2l0.8,19.9h29.4l8.2,204.4h34.1
	l22.9-73.8l47.7-90.9h68.3L1399,300h18.1l6.9-174.6h25.4l8.6,216.5h11.3l8.6-216.5h148.5l7.3,182.5h42.9l4.7-122.3h102.1l0.9-21.9
	h30.6l7.2,179.5h26.1l7.1-179.5h23.5c0,0,6,126.8,5.1,126.8h42.1l6.7-166.2H2034l8,200.2h22.2"/>
<path class="st0" d="M1041.4,356.9l1.5-35h35.6c0,0,23.9-140.2,20.2-185.1h26.5l0.9-19.6h55.7l0.9,19.6h29.2l8.8,201.9h33.8
	l22.9-72.9l47.5-89.7h67.7l5.4,124.7h17.9l7.5-172.4h25.2l9.3,213.8h11.3l9.3-213.8h147.4l7.9,180.2h42.4l5.3-120.8h101.2l0.9-21.5
	h30.4l7.7,177.2h25.9l7.7-177.2h23.3c0,0,6.4,125.2,5.5,125.2h41.8l7.1-164h100.5l8.7,197.8h22"/>
<path class="st0" d="M1041.4,357l1.7-34.5h35c0,0,24.4-138.4,20.7-182.7h26.3l0.9-19.4h55.1l0.9,19.4h28.9l9.5,199.3h33.5l22.9-72
	l47.3-88.6h67.1l5.9,123.2h17.8l8.1-170.2h25l10,211.1h11.2l10-211.1h146l8.4,177.8h42.1l5.7-119.2h100.3l1-21.3h30.1l8.3,174.9
	h25.7l8.4-174.9h23.2c0,0,6.9,123.6,5.9,123.6h41.4l7.7-161.9h99.6l9.3,195.1h21.8"/>
<path class="st0" d="M1041.4,357.2l1.7-34.1h34.4c0,0,24.8-136.6,21.1-180.3h26l1-19.1h54.8l1,19.1h28.7l10.2,196.7h33.2l22.8-71
	l47.1-87.4h66.5l6.3,121.6h17.6l8.7-168h24.8l10.8,208.3h11.1l10.8-208.3h144.7l9.1,175.5h41.7l6.1-117.6h99.4l1.1-21h29.8l9,172.6
	h25.4l9-172.6h23c0,0,7.2,121.9,6.4,121.9h41l8.3-159.8h98.7l10,192.6h21.6"/>
<path class="st0" d="M1041.4,357.3l1.9-33.6h33.9c0,0,25.1-134.8,21.5-177.9h25.9l1-18.9h54.3l1,18.9h28.4l10.8,194.1h33l23-70.1
	l46.8-86.2h65.9l6.7,120h17.4l9.3-165.8h24.6l11.5,205.6h11l11.5-205.6h143.3l9.7,173.2h41.3l6.5-116.1h98.4l1.2-20.7h29.6
	l9.5,170.3h25.2l9.5-170.3h22.8c0,0,7.7,120.3,6.7,120.3h40.7l8.8-157.7h97.9l10.6,190.1h21.5"/>
<path class="st0" d="M1041.4,357.4l2-33.2h33.3c0,0,25.7-133,22-175.6h25.6l1.2-18.7h53.8l1.2,18.7h28.2l11.6,191.5h32.5l23-69.2
	l46.5-85h65.3l7.2,118.4h17.3l9.8-163.6h24.4l12.2,202.8h10.8l12.2-202.8h142.2l10.3,171h41l6.9-114.5h97.6l1.2-20.4h29.3
	l10.1,168.1h25l10.1-168.1h22.6c0,0,8.1,118.7,7.1,118.7h40.3l9.4-155.6h97l11.3,187.5h21.2"/>
<path class="st0" d="M1041.4,357.6l2.1-32.7h32.7c0,0,26-131.2,22.5-173.2h25.4l1.2-18.3h53.3l1.2,18.3h27.9l12.2,189h32.4l23-68.3
	l46.4-84h64.7l7.5,116.7h17.1l10.4-161.3h24.1l12.9,200.1h10.8l12.9-200.1h140.9l10.9,168.6h40.6l7.3-113h96.8l1.3-20.2h29.1
	l10.7,165.8h24.7l10.7-165.8h22.4c0,0,8.5,117.1,7.6,117.1h40l10-153.5h96.1l12,185h21"/>
<path class="st0" d="M1041.4,357.7l2.2-32.3h32.1c0,0,26.5-129.4,23-170.8h25.2l1.2-18.1h52.8l1.2,18.1h27.7l13,186.3h32.1l23-67.3
	l46.2-82.8h64.1l7.9,115.1h17l11-159.2h23.9l13.7,197.3h10.7l13.7-197.4h139.6l11.5,166.3h40.2l7.7-111.5h95.9l1.4-19.9h28.8
	l11.3,163.6h24.5l11.3-163.5h22.2c0,0,8.9,115.5,8,115.5h39.6l10.5-151.3h95.3l12.6,182.5h20.9"/>
<path class="st0" d="M1041.4,357.8l2.4-31.9h31.5c0,0,26.9-127.6,23.4-168.5h24.9l1.3-17.9h52.3l1.3,17.9h27.4l13.6,183.8h31.8
	l23-66.4l46-81.7h63.6l8.4,113.6h16.8l11.6-156.9h23.7l14.3,194.6h10.6l14.4-194.6h138.3l12.1,164h39.9l8.1-110h95l1.4-19.6h28.5
	l11.9,161.3h24.3l11.9-161.3h22c0,0,9.2,113.9,8.5,113.9h39.2l11.1-149.3h94.4l13.3,179.9h20.7"/>
<path class="st0" d="M1041.4,357.9l2.5-31.4h31c0,0,27.2-125.8,23.9-166.1h24.7l1.4-17.7h51.8l1.4,17.7h27.2l14.3,181.2h31.4
	l23-65.4l45.7-80.6h63l8.9,112h16.6l12.1-154.8h23.4l15.1,191.9h10.5l15.1-191.9h137l12.7,161.7h39.5l8.5-108.3h94.1l1.5-19.4h28.3
	l12.6,159h24.1l12.5-159.1h21.8c0,0,9.7,112.3,8.8,112.3h38.8l11.6-147.2h93.6l13.9,177.3h20.4"/>
<path class="st0" d="M1041.4,358.1l2.6-30.9h30.3c0,0,27.8-124,24.4-163.6h24.4l1.4-17.4h51.4l1.4,17.4h26.9l14.9,178.6h31.2
	l23-64.5l45.5-79.4h62.4l9.3,110.4h16.5l12.7-152.5h23.2l15.8,189.1h10.4l15.8-189.1h135.8l13.4,159.3h39.2l9-106.8h93.1l1.6-19.1
	h28l13.1,156.7h23.9l13.1-156.7h21.5c0,0,10.1,110.7,9.3,110.7h38.5l12.2-145.1h92.7L2044,330h20.3"/>
<path class="st0" d="M1041.4,358.2l2.7-30.5h29.8c0,0,28.2-122.2,24.8-161.4h24.2l1.5-17.1h50.9l1.5,17.1h26.7l15.6,176h30.9
	l23-63.6l45.4-78.2h61.8l9.6,108.7h16.3l13.3-150.3h23l16.6,186.4h10.3l16.6-186.4h134.5l13.9,157h38.7l9.3-105.2h92.4l1.7-18.8
	h27.7l13.7,154.5h23.7l13.7-154.5h21.3c0,0,10.6,109.1,9.7,109.1h38.2l12.7-143h91.8l15.3,172.3h20.1"/>
<path class="st0" d="M1041.4,358.3l2.8-30h29.2c0,0,28.5-120.4,25.3-158.9h24l1.6-16.8h50.4l1.6,16.8h26.4l16.3,173.4h30.6l23-62.6
	l45.3-77h61.2l10,107.1h16.2l13.8-148.1h22.8l17.2,183.6h10.2l17.3-183.6h133.2l14.6,154.6h38.4l9.8-103.7h91.5l1.7-18.5h27.5
	l14.3,152.2h23.4l14.3-152.2h21.2c0,0,10.9,107.5,10.1,107.5h37.8l13.2-140.9h90.9l16,169.8h19.9"/>
<path class="st0" d="M1041.4,358.5l3-29.6h28.6c0,0,29-118.6,25.8-156.6h23.8l1.7-16.6h49.9l1.7,16.6h26.2l17,170.8h30.2l23-61.7
	l45-75.9h60.6l10.5,105.5h16l14.5-145.9h22.5l17.8,180.9h10.1l18-180.9h131.8l15.2,152.5h38l10.1-102.2h90.6l1.8-18.3h27.2
	l14.9,149.9h23.3l14.9-149.9h21c0,0,11.3,105.9,10.6,105.9h37.4l13.8-138.8h90l16.6,167.3h19.7"/>
<path class="st0" d="M1041.4,358.6l3-29.1h28c0,0,29.4-116.8,26.2-154.2h23.5l1.7-16.3h49.4l1.7,16.3h25.9l17.7,168.2h30l23-60.8
	l44.7-74.8h60l10.9,104h15.9l15-143.6h22.4l18.7,178.2h10l18.7-178.2h130.7l15.8,150.2h37.7l10.6-100.7h89.7l1.9-17.9h27l15.3,147.6
	h22.9l15.5-147.7h20.7c0,0,11.8,104.3,11,104.3h37.1l14.4-136.7h89.2l17.3,164.7h19.5"/>
<path class="st0" d="M1041.4,358.7l3.2-28.7h27.4c0,0,29.8-115,26.7-151.9h23.3l1.8-16.1h48.9l1.8,16.1h25.7l18.4,165.7h29.7
	l23-59.8l44.5-73.6h59.4l11.3,102.4h15.8l15.7-141.5h22.1l19.4,175.4h9.9l19.4-175.4h129.4l16.3,147.8h37.3l10.8-99.1h88.9l2-17.7
	h26.6l16.1,145.3h22.7l16.1-145.3h20.5c0,0,12.1,102.7,11.3,102.7h36.8l14.8-134.7h88.3l17.9,162.2h19.4"/>
<path class="st0" d="M1041.4,358.9l3.3-28.3h26.9c0,0,30.3-113.2,27.2-149.5h23.1l1.9-15.9h48.4l1.9,15.9h25.4l19,163h29.4l23-58.9
	l44.3-72.5h58.9l11.8,100.8h15.5l16.3-139.3h21.9l20.1,172.7h9.8l20-172.6h128.1l17,145.5h36.9l11.3-97.5h88l2-17.4h26.4l16.7,143.1
	h22.5l16.7-143.1h20.3c0,0,12.6,101.1,11.8,101.1h36.4l15.5-132.4h87.4l18.7,159.7h19.2"/>
<path class="st0" d="M1041.4,359l3.4-27.8h26.3c0,0,30.6-111.5,27.7-147.2h22.8l1.9-15.6h48l1.9,15.6h25.2l19.6,160.6h29.1l23-58
	l44.1-71.3h58.2l12.1,99.2h15.4l16.8-137.1h21.7l20.9,169.9h9.7l20.8-169.9h126.8l17.6,143.2h36.6l11.8-96h87.1l2.1-17.1h26.2
	l17.3,140.8h22.3l17.3-140.8h20.1c0,0,13,99.5,12.2,99.5h36l16-130.4h86.6l19.3,157.1h18.9"/>
<path class="st0" d="M1041.4,359.1l3.5-27.4h25.7c0,0,31.1-109.6,28.1-144.7h22.6l2-15.4h47.5l2,15.4h24.9L1218,345h28.8l23-57
	l43.9-70.1h57.7l12.6,97.6h15.3l17.3-134.8h21.5l21.7,167.2h9.6l21.5-167.2h125.5l18.2,140.9h36.2l12.1-94.5h86.2l2.2-16.9h25.9
	l17.8,138.5h22l17.9-138.5h20c0,0,13.4,97.9,12.6,97.9h35.6l16.6-128.3h85.7l19.9,154.5h18.8"/>
<path class="st0" d="M1041.4,359.3l3.6-26.9h25.1c0,0,31.5-107.8,28.6-142.4h22.4l2.1-15.1h47l2,15.1h24.6l21,155.3h28.5l22.9-56
	l43.7-69h57.1l12.9,96h15.1l17.9-132.7h21.2l22.2,164.5h9.5l22.4-164.5h124.2l18.8,138.5h35.8l12.6-92.9h85.3l2.2-16.6h25.6
	l18.5,136.3h21.8l18.5-136.3h19.7c0,0,13.8,96.2,13.1,96.2h35.3l17.1-126.2h84.8l20.6,152.1h18.6"/>
<path class="st0" d="M1041.4,359.4l3.8-26.4h24.5c0,0,31.9-106.1,29.1-140h22.1l2.1-14.8h46.5l2.1,14.8h24.4l21.7,152.7h28.3
	l23-55.2l43.4-67.9h56.5l13.4,94.4h15l18.6-130.4h21l23,161.8h9.4l23-161.8h123l19.4,136.3h35.4l12.9-91.4h84.5l2.4-16.3h25.4
	l19.1,134h21.6l19.1-134h19.5c0,0,14.2,94.6,13.5,94.6h34.9l17.7-124.1h83.9l21.3,149.5h18.4"/>
<path class="st0" d="M1041.4,359.5l3.9-26h24c0,0,32.4-104.3,29.6-137.6h21.9l2.2-14.6h46l2.2,14.6h24.1l22.4,150.1h28.1l23-54.2
	l43.3-66.7h55.9l13.9,92.8h14.8l19.2-128.2h20.8l23.7,158.9h9.3l23.7-158.9h121.5l19.9,133.9h35.1l13.4-89.8h83.6l2.4-16h25.1
	l19.7,131.7h21.4l19.7-131.7h19.3c0,0,14.6,93,13.9,93h34.6l18.2-121.9h83l22,147h18.2"/>
<path class="st0" d="M1041.4,359.7l4-25.7h23.4c0,0,32.8-102.4,30-135.2h21.7l2.2-14.3h45.5l2.2,14.3h23.9l23.1,147.6h27.7
	l22.9-53.3l43.1-65.6h55.3l14.2,91.2h14.7l19.7-126h20.6l24.4,156.2h9.2l24.5-156.2h120.4l20.6,131.6h34.7l13.8-88.3h82.7l2.5-15.8
	h24.8l20.2,129.5h21.2l20.3-129.5h19.1c0,0,15,91.4,14.3,91.4h34.1l18.8-119.9h82.2l22.7,144.5h18"/>
<path class="st0" d="M1041.4,359.8l4.1-25.1h22.8c0,0,33.2-100.7,30.5-132.8h21.4l2.4-14.1h45.1l2.4,14.1h23.6l23.8,144.9h27.3
	l23-52.4l42.6-64.4h54.7l14.8,89.6h14.5l20.3-123.8h20.4l25.2,153.5h9.1l25.2-153.5h119.2l21.2,129.3h34.3l14.2-86.6h81.8l2.5-15.5
	h24.6l20.9,127.2h21l20.9-127.2h18.9c0,0,15.3,89.8,14.7,89.8h33.9l19.3-117.7h81.2l23.3,141.9h17.8"/>
<path class="st0" d="M1041.4,359.9l4.2-24.7h22.2c0,0,33.6-98.8,30.9-130.5h21.2l2.4-13.8h44.6l2.4,13.8h23.5l24.4,142.4h27.1
	l23-51.4l42.6-63.3h54.1l15.1,88h14.3l20.9-121.6h20.2l25.9,150.8h9l25.9-150.8h117.9l21.8,126.9h34l14.6-85.1h80.9l2.6-15.2h24.3
	l21.5,124.9h20.7l21.5-124.9h18.7c0,0,15.8,88.3,15.2,88.3h33.5l19.9-115.6h80.4l24,139.4h17.7"/>
<path class="st0" d="M1041.4,360.1l4.3-24.3h21.7c0,0,34-97.1,31.4-128.1h21l2.5-13.6h44.1l2.4,13.6h23.1l25.1,139.7h26.7l23-50.4
	l42.4-62.1h53.6l15.4,86.4h14.1l21.5-119.4h20l26.6,148h9l26.6-148h116.5l22.4,124.8h33.6l15-83.6h80.1l2.7-14.9h24.1l22,122.7h20.4
	l22-122.7h18.5c0,0,16.3,86.6,15.6,86.6h33.1l20.4-113.6h79.6l24.7,136.9h17.4"/>
<path class="st0" d="M1041.4,360.2l4.5-23.8h21c0,0,34.5-95.3,31.9-125.7h20.7l2.5-13.3h43.7l2.5,13.3h22.8l25.8,137.2h26.5l23-49.6
	l42.2-60.9h53l15.9,84.8h14l22-117.2h19.7l27.3,145.3h8.8l27.3-145.3H1612l23.1,122.4h33.2l15.4-81.9h79.2l2.7-14.7h23.8L1812,351
	h20.2l22.6-120.4h18.2c0,0,16.6,85,16,85h32.7l21-111.5h78.8l25.3,134.3h17.2"/>
<path class="st0" d="M1041.4,360.3l4.6-23.3h20.5c0,0,34.9-93.4,32.4-123.4h20.5l2.5-13.1h43.1l2.5,13.1h22.6l26.5,134.6h26.2
	l23.1-48.6l42-59.8h52.4l16.3,83.2h13.9l22.6-115h19.5l28,142.5h8.7l28.1-142.5h114l23.6,120.1h32.9l15.8-80.5h78.3l2.8-14.4h23.5
	l23.3,118.1h20l23.3-118.1h18.1c0,0,17.1,83.4,16.4,83.4h32.4l21.5-109.4h77.8l25.9,131.8h17"/>
<path class="st0" d="M1041.4,360.5l4.7-22.9h19.9c0,0,35.3-91.7,32.8-121h20.3l2.6-12.8h42.7l2.6,12.8h22.4l27.2,132h25.9l23.1-47.6
	l41.6-58.7h51.8l16.8,81.6h13.7l23.2-112.7h19.2l28.8,139.8h8.7l28.8-139.8h112.7l24.2,117.8h32.5l16.3-79h77.4l2.9-14.1h23.3
	l23.9,115.9h19.8l23.9-115.9h17.9c0,0,17.5,81.8,16.8,81.8h32l22.1-107.2h77l26.6,129.2h16.8"/>
<path class="st0" d="M1041.4,360.6l4.9-22.4h19.3c0,0,35.7-89.8,33.3-118.6h20.1l2.7-12.6h42.1l2.7,12.6h22.1l27.8,129.4h25.6
	l23.1-46.7l41.6-57.5h51.2l17.2,80h13.5l23.8-110.5h19.1l29.4,137h8.5l29.4-137h111.5l24.9,115.5h32.2l16.6-77.4h76.6l3-13.9h23
	l24.4,113.6h19.6l24.4-113.6h17.7c0,0,17.9,80.2,17.3,80.2h31.7l22.6-105.1h76.1l27.3,126.7h16.6"/>
<path class="st0" d="M1041.4,360.7l4.9-22h18.7c0,0,36.1-88.1,33.8-116.3h19.9l2.7-12.3h41.7l2.8,12.3h21.8l28.6,126.9h25.3l23-45.8
	l41.3-56.4h50.6l17.7,78.4h13.4l24.4-108.3h18.8l30.2,134.3h8.4l30.1-134.3h110.2l25.4,113.1h31.8l17.1-75.8h75.7l3-13.5h22.7
	l25,111.3h19.4l25.1-111.3h17.5c0,0,18.3,78.6,17.7,78.6h31.3l23.2-103.1h75.2l28,124.2h16.5"/>
<path class="st0" d="M1041.4,360.8l5.1-21.5h18.1c0,0,36.6-86.2,34.3-113.9h19.6l2.8-12.1h41.2l2.8,12.1h21.5l29.2,124.2h25l23-44.9
	l41.1-55.2h50l18.1,76.8h13.2l24.9-106.1h18.6l31,131.6h8.2l30.9-131.6h108.9l26,110.8h31.4l17.5-74.3h74.9l3.1-13.3h22.4
	l25.7,109.1h19.2l25.7-109h17.3c0,0,18.7,77,18.1,77h30.9l23.7-101h74.4l28.6,121.6h16.3"/>
<path class="st0" d="M1041.4,361l5.1-21.1h17.5c0,0,37-84.5,34.7-111.6h19.4l2.9-11.9h40.7l2.9,11.9h21.3l29.8,121.6h24.7l23-44
	l40.9-54h49.4l18.4,75.2h13.1l25.5-103.9h18.4l31.7,128.8h8.2l31.7-128.8h107.7l26.6,108.6h31l17.8-72.8h73.9l3.2-12.9h22.2
	l26.2,106.8h18.9l26.2-106.7h17.1c0,0,19.1,75.3,18.5,75.3h30.6l24.3-98.8h73.5l29.3,119.2h16.1"/>
<path class="st0" d="M1041.4,361.1l5.3-20.6h17c0,0,37.4-82.7,35.2-109.1h19.2l3-11.6h40.3l3,11.6h21l30.6,119.1h24.4l23.1-43
	l40.8-53h48.9l18.8,73.6h12.9l26.1-101.7h18.2l32.2,126.1h8.1l32.4-126.1h106.4l27.2,106.3h30.6l18.3-71.2h73.1l3.2-12.7h21.9
	l26.8,104.5h18.6l26.8-104.5h16.9c0,0,19.5,73.8,18.9,73.8h30.2l24.9-96.7h72.6l29.9,116.5h15.9"/>
<path class="st0" d="M1041.4,361.2l5.4-20.1h16.4c0,0,37.8-80.9,35.6-106.7h18.9l3-11.3h39.7l3,11.3h20.9l31.2,116.4h24.1l23.1-42
	l40.5-51.8h48.3l19.3,72h12.8l26.7-99.5h17.9l33.1,123.4h8l33.1-123.3h105l27.9,103.9h30.4l18.6-69.7h72.2l3.3-12.4h21.7l27.4,102.2
	h18.4l27.5-102.2h16.7c0,0,19.9,72.2,19.4,72.2h29.9l25.4-94.6h71.8l30.6,114h15.7"/>
<path class="st0" d="M1041.4,361.4l5.5-19.7h15.8c0,0,38.2-79.1,36.1-104.4h18.7l3.1-11.1h39.2l3.1,11.1h20.5l31.9,113.9h23.9
	l23.1-41.2l40.3-50.6h47.7l19.7,70.4h12.6l27.3-97.3h17.8l33.8,120.6h7.9l33.8-120.6h103.8l28.5,101.6h29.9l19.1-68.1h71.3l3.4-12.2
	h21.4l28,99.9h18.2l28-99.9h16.5c0,0,20.3,70.6,19.8,70.6h29.4l25.9-92.6h70.8l31.3,111.5h15.5"/>
<path class="st0" d="M1041.4,361.5l5.6-19.3h15.2c0,0,38.7-77.3,36.6-102h18.4l3.2-10.8h38.8l3.2,10.8h20.3l32.6,111.3h23.5l23-40.2
	l40.1-49.4h47.1l20.1,68.7h12.4l27.8-95.1h17.6l34.5,117.9h7.8l34.6-117.9h102.5l29.1,99.3h29.6l19.5-66.5h70.5l3.5-11.8h21.1
	l28.6,97.7h18l28.6-97.7h16.3c0,0,20.7,68.9,20.2,68.9h29.1L1947,235h70l31.9,109h15.3"/>
<path class="st0" d="M1041.4,361.6l5.8-18.8h14.6c0,0,39.1-75.5,37.1-99.6h18.2l3.2-10.6h38.3l3.2,10.6h20l33.2,108.7h23.3l23-39.2
	l39.9-48.3h46.5l20.5,67.2h12.3l28.4-92.9h17.3l35.2,115.1h7.8l35.2-115.1h101.2l29.7,97h29.3l19.9-65h69.6l3.5-11.6h20.9l29.2,95.4
	h17.8l29.2-95.4h16c0,0,21.2,67.3,20.7,67.3h28.8l27.1-88.3h69.1l32.6,106.4h15.1"/>
<path class="st0" d="M1041.4,361.8l5.9-18.4h14c0,0,39.5-73.7,37.5-97.3h18l3.2-10.3h37.9l3.3,10.3h19.8l33.9,106.1h23l23-38.4
	l39.7-47.2h45.9l21,65.6h12.1l29-90.6h17.1l35.9,112.5h7.6l35.9-112.4h100.1l30.3,94.7h28.8l20.3-63.5h68.7l3.6-11.3h20.6l29.8,93.1
	h17.6l29.9-93.1h15.8c0,0,21.5,65.7,21,65.7h28.4l27.6-86.2h68.3l33.3,103.9h15"/>
<path class="st0" d="M1041.4,361.9l6-17.9h13.5c0,0,40-71.9,38-94.9h17.8l3.3-10.1h37.3l3.3,10.1h19.5l34.6,103.5h22.7l23.1-37.4
	l39.5-46h45.3l21.4,64h11.9l29.6-88.4h16.8l36.6,109.6h7.6l36.6-109.6h98.7l31,92.3h28.5l20.6-61.9h67.8l3.7-11h20.3L1807,355h17.4
	l30.4-90.9h15.7c0,0,22,64.1,21.5,64.1h28l28.3-84.1h67.4l34,101.4h14.7"/>
<path class="st0" d="M1041.4,362l6.1-17.4h12.9c0,0,40.4-70.1,38.4-92.6h17.6l3.4-9.9h36.9l3.5,9.9h19.3l35.3,100.9h22.4l23.1-36.4
	l39.2-44.9h44.7l21.8,62.4h11.8l30.1-86.2h16.6l37.4,106.9h7.4l37.4-106.9h97.4l31.6,90.2h28.1l21.1-60.5h67l3.8-10.8h20.1l31,88.6
	h17.1l31-88.6h15.5c0,0,22.4,62.5,21.9,62.5h27.7l28.7-82h66.5l34.6,98.8h14.6"/>
<path class="st0" d="M1041.4,362.2l6.2-17.1h12.3c0,0,40.8-68.3,39-90.2h17.3l3.5-9.5h36.4l3.5,9.5h19l36,98.3h22l23.1-35.6l39-43.7
	h44.2l22.3,60.8h11.8l30.7-84h16.3l38.1,104.2h7.3l38.1-104.2h96.1l32.1,87.8h27.7l21.5-58.9h66.1l3.8-10.5h19.8l31.7,86.3h16.9
	l31.6-86.3h15.3c0,0,22.8,60.9,22.4,60.9h27.3l29.3-79.9h65.6l35.3,96.3h14.4"/>
<path class="st0" d="M1041.4,362.3l6.4-16.6h11.8c0,0,41.2-66.5,39.4-87.8h17l3.5-9.3h35.9l3.5,9.3h18.8l36.6,95.8h21.8l23.1-34.6
	l38.8-42.6h43.6l22.6,59.2h11.5l31.3-81.7h16.3l38.8,101.4h7.2l38.8-101.4h94.9l32.7,85.4h27.3l21.9-57.3h65.2l3.9-10.2h19.5
	l32.2,84.1h16.6l32.2-84.1h15c0,0,23.2,59.3,22.8,59.3h27l29.9-77.8h64.7l35.9,93.8h14.1"/>
<path class="st0" d="M1041.4,362.4l6.4-16.2h11.2c0,0,41.6-64.7,39.9-85.4h16.8l3.6-9.1h35.4l3.6,9.1h18.5l37.3,93.2h21.5l23.1-33.6
	l38.6-41.4h43l23,57.6h11.3l31.9-79.6h16l39.6,98.7h7.1l39.5-98.7h93.6l33.3,83.1h27l22.4-55.7h64.3l4-9.9h19.3l32.7,81.8h16.4
	l32.8-81.8h14.9c0,0,23.6,57.7,23.2,57.7h26.6l30.4-75.7h63.9l36.6,91.2h13.9"/>
<path class="st0" d="M1041.4,362.6l6.6-15.7h10.6c0,0,42.1-62.9,40.3-83h16.6l3.7-8.8h34.9l3.7,8.8h18.3l38,90.6h21.2l23.1-32.7
	l38.4-40.3h42.4l23.5,56h11.2l32.5-77.4h15.8l40.3,95.9h7.1l40.3-95.9h92.3l33.9,80.8h26.6l22.8-54.2h63.5l4-9.7h19l33.4,79.5h16.2
	l33.4-79.5h14.7c0,0,24,56.1,23.5,56.1h26.2l30.8-73.4h63l37.3,88.7h13.8"/>
<path class="st0" d="M1041.4,362.6l6.7-15.2h10c0,0,42.5-61.2,40.8-80.6h16.3l3.8-8.6h34.5l3.7,8.6h18l38.7,88h20.9l23.1-31.8
	l38.2-39.1h41.8l23.9,54.4h11.1l33-75.2h15.5l41,93.3h6.9l41-93.2h91.1l34.5,78.6h26.2l23.1-52.6h62.5l4.1-9.4h18.8l34,77.2h16
	l34-77.3h14.5c0,0,24.4,54.5,24,54.5h25.9l31.5-71.5h62.2l37.9,86.2h13.6"/>
<path class="st0" d="M1041.4,362.8l6.8-14.8h9.4c0,0,42.9-59.3,41.3-78.3h16.2l3.8-8.3h34l3.8,8.3h17.8l39.3,85.4h20.6l23.1-30.8
	l38-38h41.2l24.4,52.8h10.8l33.6-73h15.3l41.7,90.5h6.9l41.7-90.5h89.8l35.1,76.2h25.9l23.5-51.1h61.7l4.2-9.1h18.5l34.5,75h15.8
	l34.6-74.9h14.2c0,0,24.9,53,24.4,53h25.5l32-69.5h61.3l38.7,83.6h13.4"/>
<path class="st0" d="M1041.4,363l6.9-14.3h8.9c0,0,43.3-57.5,41.8-75.9h15.9l3.9-8h33.4l3.9,8h17.5l40,82.8h20.3l23.1-29.9
	l37.8-36.8h40.6l24.7,51.2h10.8l34.1-70.7h15.1l42.4,87.7h6.8l42.4-87.7h88.5l35.8,73.9h25.5l24-49.4h60.8l4.3-8.8h18.2l35.2,72.7
	h15.5l35.1-72.7h14c0,0,25.2,51.3,24.9,51.3h25.2l32.6-67.3h60.4l39.2,81.1h13.2"/>
<path class="st0" d="M1041.4,363l7.1-13.9h8.2c0,0,43.7-55.7,42.2-73.6h15.7l3.9-7.8h33l3.9,7.8h17.3l40.7,80.2h20l23.1-29
	l37.6-35.6h40l25.2,49.6h10.6l34.7-68.5h14.9l43.4,85.1h6.7l43.2-85h87.1l36.4,71.6h25.1l24.4-48h59.9l4.3-8.6h17.9l35.8,70.4h15.3
	l35.8-70.5h13.8c0,0,25.7,49.7,25.3,49.7h24.8l33.1-65.2h59.5l39.9,78.6h12.9"/>
<path class="st0" d="M1041.4,363.2l7.2-13.5h7.7c0,0,44.2-53.9,42.7-71.2h15.5l4-7.5h32.5l4,7.5h17l41.4,77.7h19.7l23.1-28
	l37.4-34.5h39.5l25.6,48h10.4l35.3-66.3h14.7l43.9,82.2h6.6l43.9-82.2h85.9l36.9,69.3h24.8l24.8-46.4h59l4.4-8.3h17.7l36.4,68.1
	h15.1l36.5-68.1h13.7c0,0,26.1,48.1,25.7,48.1h24.4l33.7-63.1h58.7l40.6,76.1h12.9"/>
<path class="st0" d="M1041.4,363.3l7.3-12.9h7.1c0,0,44.6-52.1,43.2-68.8h15.3l4-7.3h32l4,7.3h16.8l42.1,75h19.4l23.1-27.1
	l37.2-33.4h38.8l26,46.4h10.3l35.9-64.1h14.5l44.5,79.5h6.5l44.6-79.6h84.6l37.6,66.9h24.4l25.2-44.9h58.2l4.5-8h17.4l36.9,65.9
	h14.9l36.9-65.7h13.4c0,0,26.5,46.5,26.1,46.5h24.1l34.1-60.9h57.8l41.3,73.5h12.6"/>
<path class="st0" d="M1041.4,363.4l7.4-12.6h6.5c0,0,45-50.4,43.7-66.5h15l4.1-7.1h31.5l4.1,7.1h16.5l42.7,72.5h19.1l23.1-26.2
	l36.9-32.2h38.3l26.4,44.7h10.1l36.5-61.9h14.2l45.3,76.7h6.4l45.3-76.7h83.4l38.2,64.7h24l25.6-43.3h57.3l4.6-7.8h17.2l37.6,63.6
	h14.7l37.6-63.6h13.2c0,0,26.9,44.9,26.6,44.9h23.7L1953,281h57l41.9,71h12.4"/>
<path class="st0" d="M1041.4,363.6l7.5-12.1h6c0,0,45.4-48.5,44.1-64.1h14.7l4.2-6.8h31.1l4.2,6.8h16.3l43.4,69.9h18.8l23.1-25.2
	l36.7-31.1h37.7l26.8,43.2h10l37.1-59.6h14l46,74h6.3l46-74h82.1l38.7,62.4h23.6l26-41.8h56.4l4.6-7.4h16.9l38.2,61.3h14.4
	l38.2-61.3h12.9c0,0,27.3,43.3,27,43.3h23.4l35.3-56.8h56.1l42.6,68.5h12.3"/>
<path class="st0" d="M1041.4,363.7l7.7-11.7h5.3c0,0,45.8-46.8,44.6-61.7h14.5l4.3-6.6h30.6l4.3,6.6h16l44.1,67.2h18.6l23.1-24.3
	l36.5-29.8h37.1l27.3,41.6h9.8l37.7-57.5h13.8l46.7,71.3h6.1l46.8-71.3h80.8l39.4,60h23.3l26.4-40.3h55.5l4.7-7.2h16.6l38.7,59.1
	h14.1l38.7-59.1h12.8c0,0,27.7,41.7,27.4,41.7h23l35.9-54.7h55.2L2052,353h12.1"/>
<path class="st0" d="M1041.4,363.8l7.7-11.2h4.7c0,0,46.3-44.9,45-59.3h14.3l4.3-6.3h30.1l4.3,6.3h15.8l44.8,64.7h18.3l23.2-23.4
	l36.3-28.7h36.5l27.7,39.9h9.7l38.2-55.3h13.7l47.5,68.6h6l47.5-68.5h79.5l40,57.7h22.9l26.8-38.7h54.6l4.7-6.9h16.4l39.3,56.8h13.9
	l39.4-56.8h12.7c0,0,28.1,40.1,27.8,40.1h22.6l36.4-52.6h54.3l43.9,63.3h11.9"/>
<path class="st0" d="M1041.4,364l7.9-10.8h4.2c0,0,46.7-43.2,45.5-56.9h14.1l4.4-6h29.6l4.4,6h15.4l45.5,62.1h18l23.1-22.4
	l36.1-27.6h35.9l28.1,38.4h9.4l38.8-53.1h13.4l48.1,65.8h5.9l48.3-65.8h78.3l40.6,55.4h22.5l27.2-37.2h53.9l4.9-6.7h16.1l40,54.5
	h13.7l40-54.5h12.4c0,0,28.5,38.5,28.2,38.5h22.3l37-50.4h53.5l44.6,60.8h11.8"/>
<path class="st0" d="M1041.4,364.1l8-10.3h3.7c0,0,47.1-41.3,45.9-54.5h13.9l4.5-5.8h29.1l4.5,5.8h15.2l46.2,59.5h17.7l23.1-21.5
	l35.9-26.4h35.3l28.5,36.8h9.3l39.4-50.8h13.1l48.9,63h5.9l48.9-63h77l41.2,53.1h22.2l27.6-35.6h52.9l4.9-6.3h15.8l40.6,52.2h13.5
	l40.5-52.2h12.2c0,0,28.9,36.9,28.6,36.9h21.8l37.6-48.4h52.6l45.2,58.3h11.5"/>
<path class="st0" d="M1041.4,364.2l8.1-9.8h3c0,0,47.6-39.6,46.5-52.2h13.6l4.6-5.5h28.6l4.6,5.6h15l46.8,56.9h17.3l23.1-20.6
	l35.8-25.3h34.8l28.9,35.2h9.2l40-48.6h12.9l49.6,60.3h5.8l49.6-60.3h75.7l41.8,50.9h21.8l28-34h52l5-6.1h15.6l41.1,50h13.3l41.1-50
	h12c0,0,29.3,35.3,29.1,35.3h21.5l38.1-46.3h51.7l45.9,55.7h11.3"/>
<path class="st0" d="M1041.4,364.4l8.2-9.4h2.4c0,0,47.9-37.7,46.9-49.8h13.4l4.6-5.3h28.1l4.6,5.3h14.7l47.5,54.4h17l23.1-19.7
	l35.5-24.2h34.1l29.3,33.6h9l40.5-46.4h12.7l50.3,57.6h5.6l50.3-57.6h74.5l42.4,48.5h21.5l28.4-32.5h51.2l5.1-5.8h15.3l41.7,47.7
	h13.1l41.8-47.7h11.8c0,0,29.8,33.7,29.4,33.7h21.1l38.7-44.1h50.8l46.5,53.2h11.1"/>
<path class="st0" d="M1041.4,364.5l8.3-9h1.9c0,0,48.4-36,47.4-47.5h13.1l4.6-5h27.7l4.6,5h14.5l48.3,51.7h16.8l23.1-18.7l35.3-23
	h33.7l29.8,32h8.9l41.1-44.2h12.4l51,54.8h5.6l51-54.8h73.2l43,46.2h21.1l28.9-31.1h50.2l5.1-5.5h15l42.4,45.4h12.9l42.4-45.4h11.6
	c0,0,30.1,32.1,29.9,32.1h20.8l39.2-42h49.9l47.2,50.8h10.9"/>
<path class="st0" d="M1041.4,364.6l8.5-8.6h1.3c0,0,48.8-34.1,47.9-45.1h12.9l4.7-4.8h27.2l4.7,4.8h14.2l48.9,49.2h16.5l23.2-17.8
	l35-21.9h33l30.2,30.4h8.7l41.7-42h12.3l51.8,52.1h5.5l51.8-52.1h71.9l43.6,43.9h20.7l29.2-29.4h49.4l5.2-5.2h14.8l42.9,43.2h12.6
	l42.9-43.2h11.4c0,0,30.6,30.5,30.4,30.5h20.4l39.8-40h49.1l47.9,48.1h10.8"/>
<path class="st0" d="M1041.4,364.8l8.5-8.1h0.7c0,0,49.2-32.3,48.4-42.7h12.7l4.7-4.6h26.7l4.8,4.5h13.9l49.4,46.6h16.2l23.2-16.8
	l34.8-20.7h32.4l30.6,28.8h8.5l42.3-39.8h12.3l52.5,49.3h5.4l52.5-49.3h70.6l44.2,41.6h20.4l29.6-27.9h48.5l5.3-5h14.5l43.6,40.9
	h12.4l43.6-40.9h11.2c0,0,30.9,28.9,30.8,28.9h20l40.3-37.9h48.2l48.4,45.7h10.6"/>
<path class="st0" d="M1041.4,364.9l8.7-7.6h0.2c0,0,49.6-30.6,48.8-40.4h12.4l4.8-4.2h26.2l4.8,4.2h13.7l50.2,44.1h15.9l23.2-15.9
	l34.6-19.5h31.8l31,27.3h8.4l42.9-37.6h11.9l53.2,46.6h5.3l53.2-46.6h69.3l44.8,39.2h20l29.9-26.4h47.6l5.4-4.7h14.3l44.1,38.6h12.1
	l44.2-38.6h11.1c0,0,31.4,27.2,31.1,27.2h19.7l40.8-35.7h47.3l49.2,43.1h10.3"/>
<path class="st0" d="M1041.4,365l8.8-7.2h-0.4c0,0,50.1-28.7,49.3-38h12.2l4.9-4h25.7l4.9,4h13.4l50.9,41.4h15.6l23.2-15l34.4-18.4
	h31.2l31.4,25.6h8.2l43.5-35.4h11.6l53.9,43.9h5.2l53.9-43.9h68.1l45.4,36.9h19.6l30.5-24.7h46.8l5.4-4.4h14l44.7,36.4h11.9
	l44.7-36.4h10.8c0,0,31.8,25.6,31.6,25.6h19.3l41.4-33.6h46.5l49.9,40.5h10.2"/>
<path class="st0" d="M1041.4,365.1l8.9-6.7h-1c0,0,50.4-27,49.7-35.6h12l5-3.8h25.2l5,3.8h13.2l51.5,38.8h15.3l23.2-14l34.1-17.3
	h30.6l31.9,24h8.1l44.1-33.2h11.4l54.6,41.1h5.1l54.7-41.1h66.8l46,34.7h19.2l31-23.2h45.9l5.5-4.2h13.7l45.3,34h11.8l45.3-34h10.6
	c0,0,32.2,24,32,24h18.9l42-31.5h45.6l50.6,38h10"/>
<path class="st0" d="M1041.4,365.3l9-6.3h-1.6c0,0,50.9-25.1,50.2-33.2h11.8l5.1-3.5h24.7l5.1,3.5h12.9l52.2,36.3h15l23.2-13.1
	l34-16.2h30.1l32.3,22.4h8l44.6-30.9h11.3l55.3,38.4h5l55.3-38.4h65.5l46.6,32.3h18.8l31.3-21.7h45l5.6-3.8h13.5l45.8,31.8h11.5
	l45.9-31.8h10.4c0,0,32.6,22.4,32.5,22.4h18.6l42.5-29.4h44.7l51.3,35.5h9.7"/>
<path class="st0" d="M1041.4,365.5l9.1-5.9h-2.2c0,0,51.3-23.4,50.6-30.8h11.6l5.1-3.3h24.3l5.1,3.3h12.7l52.9,33.6h14.8l23.2-12.2
	l33.8-15h29.4l32.6,20.9h7.8l45.2-28.7h11l56.1,35.6h4.9l56.1-35.6h64.2l47.3,30h18.5l31.7-20.1h44.1l5.6-3.6h13.2l46.4,29.5h11.3
	l46.5-29.5h10.2c0,0,33,20.8,32.9,20.8h18.2l43.1-27.3h43.9l51.9,33h9.6"/>
<path class="st0" d="M1041.4,365.5l9.3-5.4h-2.7c0,0,51.8-21.5,51.2-28.4h11.2l5.2-3h23.8l5.2,3h12.4l53.6,31.1h14.5l23.2-11.2
	l33.6-13.8h28.9l33.1,19.2h7.6l45.8-26.6h10.8l56.8,33h4.8l56.8-33h62.9l47.9,27.6h18.1l32.1-18.6h43.2l5.7-3.3h12.9l47.1,27.2h11.1
	l47.1-27.2h10c0,0,33.5,19.2,33.2,19.2h17.8l43.7-25.2h43l52.5,30.4h9.4"/>
<path class="st0" d="M1041.4,365.7l9.4-5h-3.4c0,0,52.2-19.8,51.6-26.1h11.1l5.3-2.8h23.3l5.3,2.8h12.2l54.3,28.5h14.1l23.2-10.2
	l33.4-12.7h28.3l33.5,17.7h7.4l46.4-24.3h10.3l57.5,30.2h4.7l57.5-30.2h61.7l48.4,25.4h17.8l32.5-17.1h42.4l5.8-3h12.7l47.7,25h10.8
	l47.7-25h9.8c0,0,33.8,17.7,33.7,17.7h17.5l44.2-23.1h42.1l53.3,27.8h9.2"/>
<path class="st0" d="M1041.4,365.9l9.4-4.5h-3.9c0,0,52.6-18,52.1-23.7h10.8l5.4-2.5h22.8l5.3,2.5h11.9l54.9,25.9h13.9l23.2-9.4
	l33.2-11.5h27.7l34,16h7.2l47-22.1h10.3l58.3,27.4h4.6l58.2-27.4h60.3l49.1,23.1h17.4l32.9-15.5h41.5l5.9-2.8h12.4l48.3,22.7h10.6
	l48.3-22.7h9.5c0,0,34.3,16,34.1,16h17.1l44.7-21.1h41.3l53.9,25.3h9"/>
<path class="st0" d="M1041.4,365.9l9.6-4h-4.5c0,0,53-16.2,52.6-21.4h10.6l5.4-2.2h22.4l5.3,2.2h11.8l55.6,23.3h13.6l23.1-8.4
	l33-10.3h27.1l34.4,14.4h7.2l47.6-19.9h10.1l58.9,24.7h4.5l59-24.7h59.1l49.7,20.8h17.1l33.3-13.9h40.8l5.9-2.5h12.1l48.9,20.4h10.4
	l48.9-20.4h9.4c0,0,34.7,14.4,34.6,14.4h16.8l45.3-18.9h40.4l54.6,22.8h8.8"/>
<path class="st0" d="M1041.4,366.1l9.8-3.6h-5.1c0,0,53.4-14.4,53-19h10.4l5.4-2h21.9l5.4,2h11.4l56.3,20.7h13.2l23.2-7.4l32.7-9.2
	h26.5l34.8,12.8h7.1l48.1-17.7h9.9l59.6,21.9h4.4l59.7-21.9h57.8l50.3,18.4h16.6l33.7-12.4h39.8l6-2.2h11.9l49.4,18.2h10.2
	l49.4-18.1h9.2c0,0,35.1,12.8,35,12.8h16.4l45.8-16.8h39.6l55.2,20.3h8.7"/>
<path class="st0" d="M1041.4,366.2l9.8-3.1h-5.7c0,0,53.8-12.6,53.5-16.6h10.2l5.5-1.8h21.4l5.5,1.8h11.2l57,18.2h12.9l23.2-6.5
	l32.5-8.1h25.9l35.2,11.2h6.9l48.7-15.5h9.7l60.3,19.2h4.3l60.4-19.2h56.6l50.9,16.2h16.3l34.1-10.8h38.8l6.1-1.9h11.6l50.1,15.9
	h9.9l50.1-15.9h8.9c0,0,35.5,11.2,35.4,11.2h16l46.4-14.7h38.6l55.9,17.7h8.5"/>
<path class="st0" d="M1041.4,366.3l10-2.6h-6.2c0,0,54.3-10.8,54-14.3h9.9l5.6-1.5h20.9l5.6,1.5h10.9l57.7,15.5h12.7l23.2-5.6
	l32.4-6.9h25.4l35.6,9.6h6.7l49.3-13.3h9.4l61.1,16.4h4.2l61.1-16.4h55.3l51.5,13.8h15.9l34.5-9.3h37.9l6.1-1.7h11.4l50.6,13.6h9.7
	l50.6-13.6h8.7c0,0,35.9,9.6,35.8,9.6h15.7l46.9-12.7h37.7l56.6,15.2h8.2"/>
<path class="st0" d="M1041.4,366.5l10.1-2.2h-6.9c0,0,54.7-9,54.4-11.8h9.7l5.6-1.3h20.5l5.6,1.3h10.7l58.3,12.9h12.4l23.2-4.6
	l32.2-5.8h24.8l36.1,8h6.5l49.9-11.1h9.2l61.8,13.7h4.1l61.9-13.7h54l52.1,11.5h15.4l34.9-7.7h37.1l6.2-1.4h11.1l51.2,11.4h9.4
	l51.3-11.4h8.5c0,0,36.3,8,36.2,8h15.3l47.5-10.5h36.9l57.2,12.7h8.1"/>
<path class="st0" d="M1041.4,366.6l10.2-1.8h-7.5c0,0,55.1-7.2,54.9-9.5h9.4l5.7-1h20l5.7,1h10.5l59,10.3h12.1l23.2-3.8l31.9-4.6
	h24.2l36.5,6.4h6.4l50.4-8.9h9l62.5,11h4l62.6-11h52.6l52.7,9.2h15.2l35.3-6.2h36.2l6.3-1.1h10.9l51.9,9.1h9.3l51.9-9.1h8.4
	c0,0,36.7,6.4,36.6,6.4h15l48.1-8.2h36l58,10.1h7.9"/>
<path class="st0" d="M1041.4,366.7l10.3-1.4h-8c0,0,55.5-5.4,55.3-7.1h9.3l5.8-0.7h19.4l5.8,0.7h10.2l59.7,7.8h11.8l23.2-2.8
	l31.8-3.4h23.6l36.9,4.8h6.2l51-6.7h8.8l63.2,8.2h3.9l63.2-8.2h51.5l53.3,7h14.8l35.7-4.7h35.3l6.4-0.8h10.6l52.5,6.8h9l52.5-6.8
	h8.2l37.1,4.8h14.7l48.6-6.3h35.1l58.5,7.6h7.7"/>
<path class="st0" d="M1041.4,366.9l10.4-0.9h-8.6c0,0,55.9-3.6,55.9-4.7h9l5.9-0.5h18.9l5.9,0.5h9.9l60.4,5.2h11.5l23.2-1.8
	l31.5-2.4h23l37.3,3.2h6.1l51.6-4.4h8.5l64,5.5h3.8l64-5.5h50.2l53.9,4.7h14.5l36.1-3.1h34.5l6.4-0.6h10.3l53,4.6h8.7l53.1-4.6h7.9
	l37.5,3.2h14.2l49.1-4.2h34.3l59.2,5.1h7.5"/>
<path class="st0" d="M1041.4,367l10.6-0.5h-9.2c0,0,56.4-1.8,56.3-2.4h8.7l5.9-0.2h18.5l5.9,0.2h9.7l61.1,2.6h11.2l23.3-1l31.3-1.2
	h22.4l37.7,1.6h5.9l52.2-2.2h8.3l64.7,2.7h3.7l64.7-2.7h48.9l54.5,2.4h14.1l36.5-1.5h33.6l6.5-0.3h10l53.6,2.2h8.5l53.7-2.2h7.7
	l38,1.6h13.9l49.7-2.1h33.4l59.9,2.6h7.3"/>
<line class="st0" x1="1041.4" y1="367.1" x2="2064.1" y2="367.1"/>
<path class="st0" d="M5.5,355v-40.8h74.6c0,0,18.5-163.5,14-215.9h29.4V75.4h62v22.9H218v235.5h37.7l22.8-85l50.2-104.7h75.3v145.6
	H424V88.4h28v249.4h12.6V88.4h163.9v210.2h47.3V157.8h112.6v-25.1h33.8v206.7h28.8V132.6h26c0,0,1.1,146,0,146h46.5V87.2h111.8
	v230.6h24.5"/>
<path class="st0" d="M5.5,355.2l0.1-40.4h74c0,0,18.8-161.7,14.4-213.5h29.3l0.1-22.7H185l0.1,22.7h32.2l0.6,232.9h37.4l22.9-84.1
	l50-103.6h74.7l0.4,144H423l0.6-198.9h27.8l0.7,246.7h12.4l0.7-246.7h162.6l0.6,207.9h46.8l0.4-139.3h111.7l0.1-24.9H821l0.6,204.4
	h28.5l0.6-204.4h25.8c0,0,1.5,144.4,0.4,144.4h46.2l0.6-189.3h110.9l0.6,228.1h24.3"/>
<path class="st0" d="M5.5,355.2l0.2-40h73.4c0,0,19.3-159.9,15-211h29.1l0.2-22.4h61l0.2,22.4h31.9l1.4,230.4h37.1l22.9-83.1
	L327.5,149h74.1l0.9,142.4h19.7l1.2-196.7h27.6l1.4,243.9h12.4l1.4-243.9h161.3l1.2,205.6H675l0.8-137.7h110.9l0.2-24.6h33.2
	l1.2,202.1h28.3l1.2-202.2h25.6c0,0,2,142.8,0.9,142.8H923l1.1-187.2h110.1l1.3,225.6h24.1"/>
<path class="st0" d="M5.5,355.4l0.4-39.5h72.8c0,0,19.7-158.2,15.5-208.8h28.8l0.1-22.1h60.6l0.2,22.2h31.8l2,227.7h36.8l22.9-82.2
	l49.4-101.2h73.5l1.2,140.8h19.4l1.7-194.6h27.4l2.2,241.2h12.3l2.2-241.2h160.1l1.8,203.2h46.1l1.2-136.2h109.9l0.2-24.3h33
	l1.8,199.9H849l1.8-199.9h25.4c0,0,2.4,141.2,1.3,141.2h45.4l1.7-185.1h109.3l2,223h23.9"/>
<path class="st0" d="M5.5,355.6l0.5-39h72.2c0,0,20.2-156.4,15.9-206.4h28.6l0.3-21.9h60l0.3,21.9h31.4l2.8,225.2h36.4l22.9-81.2
	L326.1,154h73l1.7,139.2h19.3l2.4-192.3h27.2l2.9,238.5h12.1l2.9-238.5h158.7l2.4,200.9h45.8L676,167h109.1l0.3-24h32.7l2.4,197.6
	h27.9l2.4-197.6H876c0,0,2.7,139.6,1.7,139.6h45l2.2-183h108.3l2.6,220.5h23.7"/>
<path class="st0" d="M5.5,355.7l0.6-38.6h71.6c0,0,20.5-154.5,16.3-204h28.4l0.3-21.6h59.6l0.3,21.6h31.2l3.4,222.6h36.1l22.9-80.4
	l49.1-98.9h72.3l2.1,137.6H419l2.9-190.1h27l3.6,235.7h12.1l3.6-235.7h157.4l3,198.6H674l2-133.2h108.2l0.4-23.8H817l3,195.3h27.7
	l3-195.3h25c0,0,3.2,138,2.1,138h44.7l2.8-180.8h107.4l3.3,218h23.5"/>
<path class="st0" d="M5.5,355.8l0.7-38.1h71c0,0,21-152.8,16.8-201.6h28.1l0.4-21.4h59.1l0.4,21.4H213l4,220h35.8l22.9-79.4
	l48.9-97.8h71.8l2.5,136h19l3.4-188h26.7l4.3,233.1h11.9l4.3-233.1h156.1l3.6,196.3h45.3l2.4-131.6h107.3l0.4-23.5h32.2l3.6,193.1
	h27.5l3.6-193.1h24.8c0,0,3.5,136.4,2.5,136.4h44.2l3.3-178.7h106.5l4,215.4h23.3"/>
<path class="st0" d="M5.5,355.9l0.8-37.7h70.4c0,0,21.4-151,17.4-199.4H122l0.4-21.1H181l0.4,21.1h30.7l4.7,217.4h35.6l22.9-78.5
	l48.7-96.6h71.2l3,134.4h18.8l4-185.8h26.5l5.1,230.2h11.9l5.1-230.2h154.9l4.3,194.1h44.6l2.8-130h106.5l0.5-23.2h31.9l4.2,190.8
	h27.2l4.2-190.8h24.6c0,0,4,134.8,3,134.8h43.9l3.8-176.6h105.7l4.6,212.8h23.1"/>
<path class="st0" d="M5.5,356.1l0.9-37.2h69.9c0,0,21.8-149.2,17.8-196.9h27.7l0.5-20.9h58.1l0.5,20.9h30.4l5.4,214.8h35.3
	l22.9-77.6l48.5-95.4h70.6l3.3,132.8h18.6l4.9-183.5h26.3l5.8,227.5h11.8l5.8-227.5h153.5l4.8,191.7h44.3l3.2-128.4H782l0.6-22.9
	h31.6l4.7,188.5h27l4.7-188.5H875c0,0,4.5,133.2,3.5,133.2h43.6l4.4-174.6h104.9l5.3,210.3h23"/>
<path class="st0" d="M5.5,356.2l1.1-36.8h69.3c0,0,22.3-147.3,18.3-194.6h27.5l0.6-20.7h57.7l0.6,20.7h30.2l6.1,212.2h34.9
	l22.9-76.6l48.3-94.3h70l3.8,131.2h18.5l5.3-181.2h26.1l6.5,224.8h11.6l6.5-224.8h152.2l5.4,189.4h43.9l3.6-126.9H781l0.6-22.7h31.4
	l5.4,186.3h26.7l5.4-186.3h24.2c0,0,4.7,131.6,3.8,131.6h43.2l5-172.4h104.1l6,207.8h22.8"/>
<path class="st0" d="M5.5,356.3l1.2-36.4h68.7c0,0,22.7-145.6,18.7-192.2h27.3l0.6-20.4h57.1l0.6,20.4h30l6.8,209.6h34.7l22.9-75.7
	l48.1-93.2h69.4l4.2,129.6h18.4l5.8-179.1h25.9l7.2,222.1h11.6l7.2-222.1h151l6.1,187.2h43.6l4-125.4h103.8l0.7-22.4h31.1l5.9,184
	h26.6l6-184h24c0,0,5.2,130,4.2,130h42.9l5.5-170.3h103.1l6.6,205.4h22.6"/>
<path class="st0" d="M5.5,356.5l1.3-35.9H75c0,0,23.1-143.8,19.2-189.8h27l0.7-20.1h56.7l0.7,20.1h29.7l7.4,207h34.4l22.9-74.8
	l47.9-92h68.8l4.6,128h18.2l6.3-176.8h25.6l7.9,219.3h11.5l7.9-219.3h149.8l6.7,184.7h43.2l4.5-123.9h102.9l0.8-22.1h30.9l6.6,181.7
	H844l6.6-181.7h23.8c0,0,5.6,128.3,4.6,128.3h42.5l6.1-168.3h102.3l7.3,202.8h22.4"/>
<path class="st0" d="M5.5,356.6l1.4-35.5h67.6c0,0,23.5-142,19.7-187.5h26.7l0.8-19.9H178l0.8,19.9h29.4l8.2,204.4h34.1l22.8-73.8
	l47.7-90.9h68.3l5.1,126.4h18.1l6.9-174.7h25.4l8.6,216.5h11.3l8.6-216.5h148.6l7.3,182.5h42.9l4.8-122.3h102.1l0.9-21.9h30.6
	l7.2,179.5h26.1l7.2-179.5h23.5c0,0,6,126.8,5.1,126.8h42.1l6.7-166.2h101.4l8,200.1h22.2"/>
<path class="st0" d="M5.5,356.7l1.5-35h67c0,0,23.9-140.2,20.2-185.1h26.5l0.9-19.6h55.7l0.9,19.6h29.2l8.8,201.9H250l22.9-72.9
	l47.5-89.7H388l5.4,124.7h17.9l7.5-172.4h25.2l9.3,213.8h11.3l9.3-213.8h147.3l7.9,180.2h42.4l5.3-120.8h101.2l0.9-21.5h30.3
	l7.8,177.2h25.9l7.7-177.2h23.3c0,0,6.4,125.2,5.5,125.2h41.8l7.2-164H1029l8.7,197.7h22"/>
<path class="st0" d="M5.5,356.9l1.7-34.5h66.4c0,0,24.3-138.4,20.7-182.7h26.3l0.9-19.4h55.1l0.9,19.4h28.9L216,339h33.5l22.9-72
	l47.3-88.6h67.1l5.9,123.2h17.8l8.1-170.2h25l10.1,211.1h11.2l10.1-211.1h146l8.5,177.8h42.1l5.7-119.2h100.2l1-21.3h30.1l8.3,174.8
	h25.7l8.4-174.9h23.2c0,0,6.9,123.6,5.9,123.6h41.4l7.7-161.9h99.6l9.3,195.1h21.9"/>
<path class="st0" d="M5.5,357l1.7-34.1h65.8c0,0,24.8-136.6,21.1-180.3h26l1-19.1H176l1,19.1h28.7l10.2,196.7h33.3l22.8-71
	l47.1-87.5h66.5l6.3,121.6h17.6l8.7-168h24.8l10.8,208.3h11.1l10.8-208.3h144.7l9.1,175.5H671l6.1-117.6h99.4l1.1-21h29.8l9,172.6
	h25.4l9-172.6h22.9c0,0,7.2,121.9,6.4,121.9h41.1l8.3-159.8h98.7l10,192.6h21.6"/>
<path class="st0" d="M5.5,357.1l1.9-33.7h65.3c0,0,25.2-134.7,21.5-177.9h25.9l1-18.9h54.3l1,18.9h28.4l10.9,194.1h33l23-70.1
	l46.8-86.2h65.9l6.7,119.9h17.4l9.3-165.9h24.6L453.8,343h11l11.5-205.6h143.3l9.7,173.2h41.3l6.5-116.1h98.5l1.2-20.7h29.6
	l9.5,170.3h25.2l9.5-170.3h22.8c0,0,7.7,120.3,6.7,120.3h40.7l8.8-157.7h97.9l10.6,190.1h21.5"/>
<path class="st0" d="M5.5,357.3l2-33.2h64.7c0,0,25.7-133,22-175.6h25.6l1.2-18.7h53.8l1.2,18.7h28.3l11.4,191.5h32.5l23-69.2
	l46.6-85h65.3l7.2,118.4h17.3l9.8-163.6h24.4l12.2,202.8h10.8l12.2-202.8h142.2l10.3,171h41l6.9-114.5h97.6l1.2-20.4h29.3
	l10.2,168.2h25l10.1-168.1h22.5c0,0,8.1,118.8,7.2,118.8h40.3l9.4-155.6h97l11.3,187.5h21.2"/>
<path class="st0" d="M5.5,357.4l2.1-32.7h64.1c0,0,26-131.2,22.5-173.2h25.4l1.2-18.3H174l1.2,18.3h27.9l12.2,189h32.4l23-68.2
	l46.4-84h64.7l7.5,116.8h17.1l10.4-161.4h24.1l12.9,200.1h10.8l12.9-200.1h140.8l10.9,168.6h40.6l7.3-113H774l1.3-20.2h29.1
	L815,344.8h24.7L850.4,179h22.4c0,0,8.5,117.1,7.6,117.1h40l10-153.5h96.1l11.9,185h21"/>
<path class="st0" d="M5.5,357.5l2.2-32.3h63.6c0,0,26.4-129.4,22.9-170.8h25.1l1.2-18.1h52.8l1.2,18.1h27.7l12.9,186.3h32.1l23-67.3
	l46.2-82.8h64.1l7.9,115.2h17l11-159.2h24L454,344h10.7l13.7-197.4h139.6l11.5,166.3h40.3l7.7-111.5h95.9l1.4-19.9h28.8l11.3,163.6
	h24.5l11.3-163.5h22.2c0,0,8.9,115.5,8,115.5h39.6l10.5-151.4h95.2l12.7,182.5h20.9"/>
<path class="st0" d="M5.5,357.7l2.4-31.9h62.9c0,0,26.9-127.6,23.4-168.5h24.9l1.3-17.8h52.3l1.3,17.8h27.4L215,341.1h31.8l23-66.4
	l46-81.7h63.6l8.4,113.6h16.8l11.6-157h23.7l14.3,194.6h10.6l14.4-194.6h138.3l12.1,164h39.9l8.1-109.9h95l1.4-19.6h28.5l11.9,161.3
	h24.3l11.9-161.3h21.9c0,0,9.3,113.9,8.5,113.9h39.2l11.2-149.3h94.4l13.3,179.9h20.6"/>
<path class="st0" d="M5.5,357.7l2.4-31.4h62.4c0,0,27.2-125.8,23.8-166.1h24.6l1.4-17.7H172l1.4,17.7h27.2l14.3,181.2h31.4l23-65.4
	l45.8-80.6H378l8.9,112h16.6l12.1-154.8h23.4l15.1,191.9h10.5l15.1-191.9h137l12.7,161.7H669l8.5-108.3h94.1l1.5-19.4h28.3l12.6,159
	h24.1l12.5-159h21.8c0,0,9.7,112.3,8.8,112.3H920l11.6-147.2h93.5l13.9,177.4h20.5"/>
<path class="st0" d="M5.5,357.9L8.1,327h61.7c0,0,27.7-124,24.4-163.6h24.4l1.4-17.4h51.4l1.4,17.4h26.9l14.9,178.6h31.1l23-64.5
	l45.5-79.4h62.5l9.3,110.3h16.5l12.7-152.5h23.2L454.3,345h10.4l15.8-189.2h135.8l13.3,159.3h39.2l9-106.8h93.2l1.6-19.1h28
	L813.7,346h23.9l13.2-156.7h21.5c0,0,10.1,110.7,9.3,110.7H920l12.1-145.1h92.7l14.7,174.9h20.3"/>
<path class="st0" d="M5.5,358.1l2.7-30.5h61.2c0,0,28.1-122.2,24.8-161.4h24.2l1.5-17.1h50.9l1.5,17.1H199l15.6,176.1h30.9l23-63.6
	l45.4-78.2h61.8l9.6,108.7h16.3l13.3-150.3h23l16.5,186.4h10.3l16.6-186.4h134.5l13.9,157h38.7l9.3-105.2h92.4l1.7-18.8h27.7
	l13.7,154.5h23.6l13.7-154.5h21.3c0,0,10.6,109.1,9.7,109.1h38.2l12.7-143h91.8l15.3,172.3h20.1"/>
<path class="st0" d="M5.5,358.1l2.8-30h60.6c0,0,28.5-120.5,25.3-158.9h24l1.6-16.8h50.4l1.6,16.8h26.4l16.3,173.4H245l23-62.6
	l45.2-77h61.2l10,107.1h16.2L414.5,162h22.8l17.2,183.6h10.2L482,162h133.2l14.6,154.6h38.4l9.7-103.7h91.5l1.7-18.5h27.5
	l14.3,152.1h23.4l14.3-152.1h21.2c0,0,10.9,107.5,10.1,107.5h37.8l13.2-140.8h90.9l16,169.8h19.9"/>
<path class="st0" d="M5.5,358.3l2.9-29.6h60c0,0,29-118.6,25.8-156.6h23.8l1.7-16.6h49.9l1.7,16.6h26.2l17,170.8h30.3l23-61.7
	l45-75.9h60.6l10.5,105.5h16L414.3,165h22.5l17.8,180.9h10.1l18-180.9h131.8l15.2,152.5h38l10.1-102.2h90.6l1.8-18.3h27.2l15,150
	h23.2l14.9-149.9h21c0,0,11.3,105.9,10.6,105.9h37.4l13.8-138.8h90.1l16.6,167.3h19.6"/>
<path class="st0" d="M5.5,358.5l3-29.1h59.4c0,0,29.4-116.8,26.2-154.2h23.5l1.7-16.3h49.4l1.7,16.3h25.9l17.7,168.2h30l23-60.8
	l44.7-74.8h59.9l10.9,104h15.9l15-143.6h22.4l18.7,178.2h10l18.7-178.2h130.7l15.8,150.1h37.7l10.6-100.7h89.6l1.9-17.9h27
	l15.5,147.6H835l15.5-147.7h20.7c0,0,11.8,104.3,11,104.3h37.1l14.4-136.7h89.2l17.3,164.7h19.5"/>
<path class="st0" d="M5.5,358.5l3.2-28.7h58.9c0,0,29.9-115,26.7-151.9h23.3l1.8-16.1h48.9l1.8,16.1h25.7l18.4,165.7h29.7l23-59.8
	l44.5-73.6h59.4l11.3,102.4h15.8l15.7-141.5h22.1L455,346.6h9.9l19.4-175.4h129.4L630,319h37.3l10.8-99.1H767l1.9-17.7h26.7
	l16.1,145.3h22.7l16.1-145.3h20.5c0,0,12.1,102.7,11.3,102.7h36.7l14.9-134.6h88.3l17.9,162.2h19.4"/>
<path class="st0" d="M5.5,358.7l3.2-28.3H67c0,0,30.3-113.2,27.2-149.5h23.1l1.9-15.9h48.4l1.9,15.9h25.4l19,163h29.4l23-58.9
	l44.3-72.5h58.9l11.7,100.8h15.5l16.3-139.3h21.9l20,172.7h9.8l20.2-172.6H613l17,145.4h36.9l11.4-97.5h88l2-17.4h26.3L811.3,348
	h22.5l16.7-143.1h20.3c0,0,12.6,101.1,11.8,101.1h36.4l15.5-132.4h87.5l18.6,159.7h19.2"/>
<path class="st0" d="M5.5,358.7l3.4-27.8h57.7c0,0,30.6-111.5,27.7-147.2h22.8l1.9-15.6h48l1.9,15.6H194l19.7,160.5h29.1l23-58
	l44-71.3h58.2l12.1,99.2h15.4l16.8-137.1h21.7L455,347.1h9.7l20.8-169.9h126.8l17.6,143.2h36.6l11.8-96h87.1l2.1-17.1h26.2
	L810.9,348h22.3l17.3-140.8h20.1c0,0,12.9,99.5,12.2,99.5h36l16-130.4h86.6l19.3,157.1h18.9"/>
<path class="st0" d="M5.5,358.9L9,331.5h57.1c0,0,31.1-109.6,28.1-144.7h22.6l2-15.4h47.5l2,15.4h24.9l20.4,157.9h28.8l23-57
	l43.9-70.1h57.7l12.6,97.6h15.3l17.4-134.8h21.5l21.7,167.2h9.6l21.5-167.2h125.5l18.2,140.9h36.2l12.1-94.4h86.2l2.2-16.9h25.9
	l17.8,138.5h22l17.9-138.5h19.9c0,0,13.4,97.8,12.6,97.8h35.6l16.6-128.3h85.7l20,154.5h18.8"/>
<path class="st0" d="M5.5,359.1l3.6-26.9h56.5c0,0,31.5-107.9,28.6-142.4h22.4l2-15.1h47l2,15.1h24.7l21,155.3h28.5l23-56.1l43.7-69
	h57.1l13,96h15.1l17.9-132.7h21.2l22.3,164.5h9.5l22.4-164.5h124.2l18.8,138.5H666l12.6-92.9h85.3l2.2-16.6h25.6l18.5,136.3H832
	l18.5-136.3h19.7c0,0,13.8,96.3,13.1,96.3h35.3l17.1-126.1h84.8l20.6,152.1h18.6"/>
<path class="st0" d="M5.5,359.2l3.8-26.4h55.9c0,0,31.9-106,29.1-140h22.1l2.1-14.8H165l2.1,14.8h24.4l21.7,152.7h28.3l23-55.2
	l43.4-67.9h56.5l13.4,94.4h15l18.6-130.4h21l23,161.8h9.4l23-161.7h123l19.4,136.3h35.4l12.9-91.4H763l2.4-16.3h25.4l19.1,134h21.6
	l19.1-134H870c0,0,14.2,94.6,13.5,94.6h34.9l17.7-124.1h83.9l21.3,149.5h18.4"/>
<path class="st0" d="M5.5,359.3l3.9-26h55.3c0,0,32.4-104.3,29.7-137.6h21.9l2.2-14.6h46l2.2,14.6h24.1l22.4,150.1h28l23-54.2
	l43.3-66.7h55.9l13.9,92.8H392l19.2-128.2H432l23.7,158.9h9.3l23.7-158.9h121.5l19.9,133.8h35.1l13.4-89.8h83.6l2.4-16h25.1
	l19.7,131.7h21.4l19.7-131.7h19.3c0,0,14.6,93,13.9,93H918l18.2-122h83l22,147h18.2"/>
<path class="st0" d="M5.5,359.5l4-25.6h54.8c0,0,32.8-102.4,30-135.2h21.7l2.2-14.3h45.5l2.2,14.3h23.9l23.1,147.5h27.7l23-53.3
	l43.1-65.6h55.3l14.2,91.2h14.7l19.7-126h20.6l24.4,156.2h9.2l24.5-156.2h120.4l20.6,131.6h34.7l13.8-88.3h82.8l2.5-15.8h24.8
	L809,349.6h21.2l20.3-129.5h19.1c0,0,15,91.5,14.3,91.5H918l18.8-119.9h82.2l22.6,144.5h18"/>
<path class="st0" d="M5.5,359.6l4.1-25.1h54.2c0,0,33.2-100.7,30.6-132.8h21.3l2.4-14.1h45.1l2.4,14.1h23.6l23.8,144.9h27.3
	l23.1-52.4l42.7-64.4h54.7l14.7,89.6h14.5l20.3-123.8h20.4l25.2,153.5h9.1l25.1-153.5h119.2l21.2,129.3h34.3l14.2-86.6h81.8
	l2.5-15.4h24.5L808.6,350h21l20.9-127.2h19c0,0,15.4,89.8,14.8,89.8H918l19.3-117.8h81.2l23.3,141.9h17.8"/>
<path class="st0" d="M5.5,359.7l4.2-24.7h53.6c0,0,33.6-98.8,30.9-130.5h21.2l2.4-13.9h44.6l2.4,13.9H188L212.6,347h27.1l23.1-51.5
	l42.6-63.3h54.1l15.1,88h14.3l20.8-121.6h20.2l25.9,150.8h9l25.9-150.8h117.8l21.8,127h34l14.6-85.1h80.9l2.6-15.2h24.3l21.5,124.9
	H829l21.5-124.9h18.7c0,0,15.8,88.3,15.2,88.3h33.5l19.9-115.6h80.4l23.9,139.4h17.7"/>
<path class="st0" d="M5.5,359.9l4.3-24.3h53c0,0,34-97.1,31.5-128.2h21l2.5-13.6h44.1l2.5,13.6h23.1l25.1,139.7h26.7l23-50.4
	l42.4-62.1h53.6l15.4,86.4h14.1l21.5-119.4h19.9l26.6,148h8.9l26.6-148h116.5l22.4,124.8h33.6l15-83.6h80l2.7-14.9h24.1l22,122.7
	h20.5l22-122.7h18.5c0,0,16.3,86.6,15.6,86.6h33.1L938,201h79.6l24.6,136.9h17.4"/>
<path class="st0" d="M5.5,360l4.5-23.8h52.4c0,0,34.5-95.4,31.9-125.7H115l2.5-13.3h43.7l2.4,13.3h22.8l25.8,137.2h26.5l23.1-49.6
	l42.2-60.9h53l15.9,84.8h14l22-117.2h19.8L456,350h8.8l27.3-145.3h115.3l23,122.4h33.2l15.4-82h79.2l2.7-14.6h23.8l22.7,120.3h20.2
	l22.6-120.3h18.3c0,0,16.6,85,16,85h32.7l21-111.5h78.8l25.3,134.3h17.2"/>
<path class="st0" d="M5.5,360.1l4.5-23.3h51.9c0,0,34.9-93.5,32.4-123.4h20.5l2.5-13.1h43.2l2.5,13.1h22.6L212.1,348h26.2l23-48.6
	l42-59.8h52.4l16.3,83.2h13.9l22.6-115h19.5l28,142.5h8.7l28-142.5h114l23.6,120.1h32.9l15.8-80.5h78.3l2.8-14.4h23.5l23.3,118.1h20
	L850.5,233h18c0,0,17.1,83.4,16.4,83.4h32.3l21.5-109.4h77.8l25.9,131.8h17.2"/>
<path class="st0" d="M5.5,360.3l4.7-22.9h51.3c0,0,35.3-91.7,32.9-121h20.2l2.6-12.8h42.6l2.6,12.8h22.4l27.1,132h25.9l23-47.7
	l41.8-58.7h51.8l16.8,81.6H385l23.2-112.8h19.2l28.8,139.8h8.6l28.8-139.8h112.7l24.2,117.8h32.5l16.3-79h77.5l2.9-14.1H783
	l23.9,115.9h19.8l23.9-115.9h17.9c0,0,17.5,81.8,16.8,81.8h32l22.1-107.2h77l26.6,129.2h16.8"/>
<path class="st0" d="M5.5,360.4l4.8-22.4h50.7c0,0,35.7-89.9,33.3-118.6h20.1l2.7-12.6h42.1l2.7,12.6H184l27.8,129.4h25.6l23-46.8
	l41.6-57.4h51.2l17.2,80.1H384l23.8-110.7h19.1l29.4,137h8.5l29.5-137h111.5l24.9,115.5h32.2l16.6-77.3h76.6l3-13.9h23l24.4,113.6
	H826l24.4-113.6h17.7c0,0,17.8,80.2,17.3,80.2H917l22.6-105.1h76.1l27.3,126.7h16.6"/>
<path class="st0" d="M5.5,360.5l4.9-22h50.1c0,0,36.1-88.1,33.8-116.3h19.9l2.7-12.3h41.7l2.7,12.3h21.8l28.5,126.8H237l23.1-45.8
	l41.3-56.4H352l17.7,78.4H383L407.4,217h18.8l30.2,134.3h8.5L495,217h110.2l25.4,113.2h31.8l17.1-75.8h75.7l3-13.5h22.7l25,111.3
	h19.4l25.1-111.3h17.5c0,0,18.3,78.6,17.7,78.6h31.3l23.2-103.1h75.2l28,124.2h16.5"/>
<path class="st0" d="M5.5,360.6l5.1-21.5h49.5c0,0,36.6-86.3,34.3-113.9h19.5l2.8-12.1h41.2l2.8,12.1h21.6l29.2,124.2h25l23-44.8
	l41.1-55.3h50l18.1,76.8H382L407,220h18.6l30.9,131.6h8.3L495.8,220h108.9l26,110.8h31.4l17.5-74.3h74.8l3.1-13.3h22.4l25.7,109.1
	h19.2l25.7-109h17.3c0,0,18.7,77,18.1,77h30.9l23.7-101h74.4l28.6,121.6h16.3"/>
<path class="st0" d="M5.5,360.8l5.1-21.1h48.9c0,0,37-84.5,34.7-111.6h19.4l2.9-11.9h40.7l2.9,11.8h21.3l29.9,121.6h24.7l23.1-44
	l40.9-54.1h49.4l18.4,75.2H381L406.5,223h18.4l31.7,128.8h8.2L496.5,223h107.7l26.7,108.6h31l17.8-72.8h74l3.2-12.9H779l26.2,106.7
	h18.9l26.2-106.7h17.1c0,0,19.1,75.3,18.5,75.3h30.6l24.2-98.9h73.5l29.3,119.1h16.1"/>
<path class="st0" d="M5.5,360.9l5.3-20.6h48.3c0,0,37.4-82.7,35.3-109.2h19.1l3-11.6h40.2l3,11.6h21l30.6,119.1h24.3l23-43l40.8-53
	h48.9l18.8,73.6h12.9l26.1-101.7h18.3l32.2,126.1h8.2l32.4-126.1h106.4l27.3,106.3h30.6l18.3-71.2h73.1l3.2-12.7H778L804.8,353h18.6
	l26.8-104.5h17c0,0,19.5,73.8,18.9,73.8h30.2l24.9-96.7h72.6l29.9,116.5h15.9"/>
<path class="st0" d="M5.5,361l5.4-20.2h47.8c0,0,37.8-80.9,35.7-106.7h18.8l3-11.3H156l3,11.3h20.8l31.3,116.4h24.1l23-42l40.5-51.7
	h48.3l19.3,72h12.9l26.6-99.5h17.8l33.1,123.4h8L498,229.2h105l27.8,103.9h30.3l18.6-69.7H752l3.3-12.4H777l27.4,102.2h18.5
	l27.5-102.2H867c0,0,20,72.1,19.4,72.1h29.8l25.4-94.6h71.8l30.6,114h15.6"/>
<path class="st0" d="M5.5,361.2l5.5-19.7h47.2c0,0,38.2-79.1,36.2-104.4h18.7l3.1-11h39.2l3.1,11H179l31.9,113.9h23.9l23-41.2
	l40.3-50.6h47.7l19.7,70.4h12.7l27.2-97.3h17.8l33.8,120.7h7.9l33.8-120.6h103.8l28.5,101.6H661l19.1-68.1h71.3l3.4-12.2h21.4
	l28,99.9h18.2l28.1-99.9H867c0,0,20.3,70.6,19.8,70.6h29.4l25.9-92.6h70.8l31.4,111.5h15.5"/>
<path class="st0" d="M5.5,361.3l5.6-19.3h46.6c0,0,38.7-77.3,36.6-102h18.4l3.2-10.8h38.8l3.2,10.8h20.3l32.6,111.3h23.5l23.1-40.2
	l40.1-49.4h47.1l20.1,68.8h12.4l27.7-95h17.6L457,353.2h7.8l34.6-117.9h102.6l29.1,99.3h29.6l19.5-66.6h70.5l3.5-11.8h21.1
	l28.6,97.7h18l28.6-97.7h16.3c0,0,20.8,68.9,20.2,68.9h29.1l26.5-90.4h70l32,108.9h15.3"/>
<path class="st0" d="M5.5,361.4l5.8-18.8h46c0,0,39.1-75.5,37.1-99.6h18.2l3.2-10.6h38.3l3.2,10.6h20l33.3,108.7h23.3l23.1-39.2
	l39.9-48.3h46.5l20.6,67.2h12.3l28.4-92.9H422l35.2,115.1h7.7l35.2-115.1h101.2l29.7,97h29.2l19.8-65h69.6l3.5-11.6h20.9l29.2,95.4
	h17.8l29.2-95.4h16c0,0,21.2,67.3,20.7,67.3h28.8l27.1-88.3h69.1l32.6,106.4h15.1"/>
<path class="st0" d="M5.5,361.6l5.9-18.4h45.4c0,0,39.5-73.7,37.6-97.3h17.9l3.2-10.3h37.9l3.3,10.3h19.8L210.5,352h23l23.1-38.4
	l39.7-47.2h45.9l21,65.6h12.1l29-90.6h17.1l35.9,112.5h7.7l35.9-112.4h100.1l30.3,94.7H660l20.3-63.5h68.7l3.6-11.3h20.6l29.8,93.1
	h17.6l29.8-93.1h15.8c0,0,21.5,65.7,21,65.7h28.4l27.6-86.2h68.3l33.2,103.9h15"/>
<path class="st0" d="M5.5,361.7l6-17.9h44.9c0,0,40-71.9,38-94.9h17.8l3.3-10.1h37.3l3.3,10.1h19.5l34.6,103.5h22.7l23.1-37.4
	l39.5-46h45.3l21.4,64h12l29.6-88.4h16.8l36.6,109.6h7.5l36.6-109.6h98.7l31,92.2h28.5l20.7-61.9h67.8l3.7-11.1h20.3l30.4,90.9h17.3
	l30.4-90.9h15.7c0,0,22,64.2,21.5,64.2h28l28.2-84.1h67.4l34,101.4h14.8"/>
<path class="st0" d="M5.5,361.8l6.1-17.5h44.3c0,0,40.4-70.1,38.5-92.6h17.5l3.4-9.9h36.9l3.5,9.9h19.3l35.3,100.9h22.4l23.1-36.4
	l39.2-44.8h44.7l21.8,62.4h11.9l30.1-86.2H420l37.4,106.9h7.5l37.4-106.9h97.4l31.6,90.2h28.1l21.1-60.4h66.9l3.8-10.8h20.1l31,88.6
	h17.1l31-88.6h15.5c0,0,22.4,62.5,21.9,62.5h27.7l28.7-82h66.5l34.6,98.8h14.6"/>
<path class="st0" d="M5.5,362l6.2-17.1h43.7c0,0,40.8-68.3,39-90.2h17.3l3.5-9.5h36.4l3.5,9.5h19.1l36,98.3h22l23.1-35.6l39-43.7
	h44.2l22.3,60.8h11.7l30.7-84h16.3l38.1,104.2h7.4L503,250.6h96.1l32.1,87.8h27.7l21.5-58.9h66.1l3.8-10.5h19.8l31.7,86.3h16.9
	l31.6-86.3h15.2c0,0,22.8,60.9,22.4,60.9h27.3l29.3-79.9h65.6l35.3,96.3h14.4"/>
<path class="st0" d="M5.5,362.1l6.4-16.6H55c0,0,41.2-66.5,39.4-87.8h17.1l3.5-9.3h35.9l3.5,9.3h18.8l36.6,95.8h21.8l23.1-34.6
	l38.8-42.6h43.6l22.6,59.2h11.5l31.3-81.8h16.3l38.8,101.4h7.2l38.8-101.4h94.9l32.7,85.4h27.3l21.9-57.2h65.2l3.9-10.3h19.5
	l32.2,84.1h16.6l32.2-84.1h15c0,0,23.2,59.3,22.8,59.3h26.9l29.8-77.8h64.7l36,93.8h14.1"/>
<path class="st0" d="M5.5,362.3L12,346h42.5c0,0,41.6-64.7,39.9-85.4h16.8l3.6-9h35.4l3.6,9h18.5l37.3,93.2h21.5l23.1-33.6
	l38.6-41.4h43l23,57.5h11.3l31.9-79.6h16l39.5,98.7h7.2l39.5-98.6H598l33.3,83h26.9l22.4-55.7H745l4-9.9h19.3L801,356h16.4
	l32.8-81.7H865c0,0,23.6,57.7,23.2,57.7h26.7l30.3-75.7h63.9l36.6,91.2h13.9"/>
<path class="st0" d="M5.5,362.4l6.6-15.7h42c0,0,42.1-62.9,40.3-83H111l3.7-8.8h34.9l3.7,8.8h18.3l38,90.6h21.2l23.1-32.7l38.4-40.3
	h42.4l23.5,56h11.2l32.4-77.3h15.8l40.2,95.9h7.1l40.2-95.9h92.3l33.9,80.8H658l22.8-54.2h63.5l4-9.7h19l33.4,79.3h16.2l33.4-79.5
	H865c0,0,24,56.1,23.5,56.1h26.2l30.8-73.4h63l37.3,88.7h13.8"/>
<path class="st0" d="M5.5,362.5l6.7-15.2h41.4c0,0,42.5-61.2,40.8-80.6h16.4l3.8-8.6h34.5l3.7,8.6h18l38.7,88h20.9l23.1-31.8
	l38.2-39.1h41.7l23.9,54.4h11.1l33-75.2h15.6l41,93.2h6.9l41-93.2h91.1l34.6,78.6h26.2l23.1-52.6h62.5l4.1-9.4h18.8l34,77.2h16
	l33.9-77.3h14.5c0,0,24.4,54.5,24,54.5h25.9l31.5-71.5h62.2l37.9,86.2h13.6"/>
<path class="st0" d="M5.5,362.6l6.8-14.8h40.9c0,0,42.8-59.3,41.2-78.3h16.2l3.8-8.3h34l3.8,8.3H170l39.3,85.4h20.6l23.1-30.8l38-38
	h41.2l24.4,52.8h10.9l33.6-73h15.3l41.7,90.5h6.9l41.7-90.5h89.8l35.1,76.3h25.9l23.5-51.1h61.7l4.2-9.1h18.5l34.6,75h15.8l34.6-75
	h14.2c0,0,24.9,53,24.4,53h25.5l32-69.5h61.3l38.6,83.6h13.4"/>
<path class="st0" d="M5.5,362.8l6.9-14.3h40.3c0,0,43.3-57.5,41.8-75.9h15.9l3.9-8h33.4l3.9,8H169l40,82.8h20.3l23.1-29.9l37.8-36.8
	H331l24.7,51.2h10.8l34.1-70.7h15.1l42.4,87.7h6.8l42.4-87.7h88.6l35.8,73.9h25.4l24-49.4h60.8l4.3-8.8h18.2l35.2,72.7h15.5
	l35.2-72.8h14c0,0,25.2,51.3,24.9,51.3h25.2l32.6-67.3h60.4l39.2,81.1h13.2"/>
<path class="st0" d="M5.5,362.9l7-13.9h39.7c0,0,43.7-55.7,42.2-73.6h15.7l3.9-7.8h33l3.9,7.8h17.3l40.7,80.2h20l23.1-29l37.6-35.6
	h40l25.1,49.6h10.6l34.8-68.5h14.9l43.4,85.1h6.7l43.1-85h87.1l36.4,71.6h25.2l24.4-48h59.9l4.3-8.6h17.9l35.8,70.4h15.3l35.8-70.5
	H864c0,0,25.7,49.7,25.3,49.7h24.8l33.1-65.2h59.6l39.9,78.6h12.9"/>
<path class="st0" d="M5.5,363l7.1-13.4h39.1c0,0,44.2-53.9,42.7-71.2h15.5l4-7.5h32.5l4,7.5h17l41.4,77.7h19.8l23.1-28l37.4-34.5
	h39.5l25.6,48h10.4l35.3-66.3h14.7l43.9,82.2h6.6l43.8-82.3h85.9l36.9,69.3h24.8l24.8-46.4h59l4.4-8.3h17.7l36.4,68.1h15.1
	l36.4-68.1h13.7c0,0,26.1,48.1,25.7,48.1h24.4l33.8-63.1h58.6l40.6,76.1h12.9"/>
<path class="st0" d="M5.5,363.1l7.3-12.9h38.5c0,0,44.6-52.2,43.1-68.8h15.2l4-7.3h32l4,7.3h16.8l42.1,75h19.4l23.1-27.1l37.1-33.4
	h38.8l26.1,46.4h10.3l35.9-64.1h14.5l44.5,79.4h6.5l44.6-79.5h84.6l37.6,66.9h24.4l25.1-44.9h58.2l4.5-8h17.4l36.9,65.9h14.9
	l36.9-65.8h13.4c0,0,26.5,46.5,26.1,46.5h24l34.1-60.9h57.8l41.3,73.5h12.7"/>
<path class="st0" d="M5.5,363.3l7.4-12.6h38c0,0,45-50.4,43.7-66.5h15l4.1-7.1h31.5l4.1,7.1h16.5l42.7,72.5h19.2l23.1-26.2
	l36.9-32.2H326l26.4,44.7h10.1l36.5-61.9h14.2l45.3,76.7h6.4l45.3-76.7h83.4l38.2,64.7h24l25.6-43.3h57.3l4.6-7.8h17.2l37.6,63.6
	h14.7l37.6-63.6h13.2c0,0,26.9,44.9,26.5,44.9h23.7l34.8-58.9h57l41.9,71h12.4"/>
<path class="st0" d="M5.5,363.4l7.5-12.1h37.4c0,0,45.4-48.5,44.1-64.1h14.8l4.2-6.8h31.1l4.2,6.8h16.3l43.4,69.9h18.8l23.1-25.2
	l36.7-31.1h37.7l26.8,43.2h10l37.1-59.6h14l46,74h6.3l46-74h82.1l38.7,62.4h23.6l26-41.8h56.4l4.6-7.5h16.9l38.2,61.3h14.4
	l38.2-61.4h12.9c0,0,27.3,43.3,27,43.3h23.3l35.3-56.8h56.1l42.6,68.5h12.3"/>
<path class="st0" d="M5.5,363.4l7.7-11.7h36.7c0,0,45.8-46.8,44.6-61.7H109l4.2-6.5h30.6l4.3,6.6h16l44.1,67.3h18.6l23.1-24.3
	l36.6-29.9h37.1l27.3,41.6h9.8l37.7-57.5H412l46.8,71.3h6.1l46.8-71.3h80.8l39.4,60h23.3l26.4-40.3h55.5l4.7-7.2h16.6l38.8,59.1
	h14.1l38.7-59h12.8c0,0,27.7,41.7,27.4,41.7h23l35.9-54.7h55.2l43.2,65.9h12.1"/>
<path class="st0" d="M5.5,363.7l7.7-11.2h36.1c0,0,46.3-44.9,45-59.3h14.3l4.3-6.3h30.1l4.3,6.3h15.8l44.8,64.7h18.3l23.1-23.4
	l36.3-28.7h36.5l27.6,39.9h9.7l38.2-55.2h13.7l47.5,68.5h6l47.5-68.5h79.6l40,57.7h22.9l26.8-38.7h54.6l4.8-6.9h16.5l39.3,56.8h13.9
	l39.4-56.7h12.6c0,0,28.1,40.1,27.8,40.1h22.6l36.4-52.6h54.4l43.9,63.3h11.9"/>
<path class="st0" d="M5.5,363.8l7.9-10.8h35.6c0,0,46.7-43.2,45.5-56.9h14l4.4-6h29.6l4.4,6h15.5l45.5,62.1h18l23.1-22.4l36.1-27.7
	H321l28.1,38.4h9.5l38.8-53.1h13.4l48.1,65.8h5.9l48.2-65.8h78.3l40.6,55.4h22.6l27.3-37.1h53.8l4.8-6.6h16.1l40,54.5h13.7l40-54.5
	h12.4c0,0,28.5,38.5,28.2,38.5h22.3l37-50.4h53.5l44.5,61h11.7"/>
<path class="st0" d="M5.5,363.9l7.9-10.3h35c0,0,47.1-41.3,45.9-54.5h14l4.5-5.8h29.1l4.5,5.8h15.3l46.1,59.5h17.7l23.1-21.5
	l35.9-26.4h35.3l28.5,36.8h9.3l39.3-50.9h13.1l48.9,63h5.9l48.9-63h77l41.2,53.1h22.2l27.6-35.6h52.9l4.9-6.3h15.8l40.5,52.2h13.5
	l40.5-52.2h12.2c0,0,28.9,36.9,28.6,36.9h21.8l37.6-48.3h52.5l45.2,58.3h11.5"/>
<path class="st0" d="M5.5,364.1l8.1-9.9H48c0,0,47.6-39.6,46.5-52.2H108l4.6-5.5h28.6l4.6,5.5h15l46.8,56.9h17.4l23.1-20.6
	l35.8-25.3h34.8l28.9,35.2h9.2l40-48.6h12.9l49.6,60.3h5.8l49.7-60.3h75.7l41.8,50.8h21.8l28-34h52l5-6.1h15.6l41.1,50H809
	l41.1-49.9h12c0,0,29.3,35.3,29.1,35.3h21.5l38.1-46.3h51.7l45.9,55.7h11.3"/>
<path class="st0" d="M5.5,364.2l8.2-9.4h33.8c0,0,47.9-37.7,46.9-49.8h13.4l4.6-5.3h28.1l4.6,5.3h14.7l47.5,54.3h17.1l23.1-19.6
	l35.5-24.2h34.1l29.3,33.6h9.2l40.5-46.5h12.7l50.3,57.6h5.6l50.3-57.6h74.4l42.4,48.5h21.6l28.4-32.5h51.2l5.1-5.8h15.3l41.7,47.7
	h13.1l41.8-47.8h11.8c0,0,29.8,33.7,29.4,33.7h21.1l38.7-44.1h50.8l46.5,53.2h11.1"/>
<path class="st0" d="M5.5,364.3l8.3-9h33.2c0,0,48.3-36,47.4-47.5h13.2l4.6-5.1h27.7l4.6,5.1H159l48.2,51.7H224l23.1-18.7l35.3-23
	h33.7l29.8,32h8.9l41.1-44.2h12.5l51,54.8h5.6l51-54.8h73.2l43,46.2h21.1l28.8-31h50.2l5.1-5.5h15l42.4,45.4h12.8l42.4-45.4h11.6
	c0,0,30.1,32.1,29.9,32.1h20.8l39.2-42h49.9l47.3,50.6h10.9"/>
<path class="st0" d="M5.5,364.5l8.5-8.6h32.7c0,0,48.8-34.1,47.8-45.1h12.9l4.7-4.8h27.2l4.7,4.8h14.2l48.9,49.2h16.5l23.2-17.7
	l35.1-21.9h33l30.3,30.4h8.7l41.7-42h12.3l51.8,52.1h5.5l51.8-52.1h71.9l43.6,43.9h20.7l29.2-29.4h49.4l5.2-5.2h14.8l42.9,43.2h12.6
	l43-43.1h11.4c0,0,30.6,30.5,30.3,30.5h20.4l39.7-40h49l47.9,48.1h10.8"/>
<path class="st0" d="M5.5,364.6l8.5-8.1h32.1c0,0,49.2-32.3,48.3-42.7h12.7l4.8-4.6h26.7l4.8,4.6h13.9l49.5,46.6H223l23.2-16.8
	l34.8-20.7h32.5l30.6,28.8h8.5l42.3-39.8h12.1l52.5,49.3h5.4l52.5-49.3h70.6l44.3,41.6h20.4l29.6-27.9h48.5l5.3-5h14.5l43.6,40.9
	h12.4l43.6-40.9h11.2c0,0,30.9,28.9,30.8,28.9h20l40.2-37.9h48.2l48.5,45.7h10.6"/>
<path class="st0" d="M5.5,364.7l8.7-7.6h31.5c0,0,49.7-30.6,48.8-40.4H107l4.9-4.2H138l4.9,4.2h13.7l50.2,44h15.9l23.2-15.9
	l34.6-19.5h31.8l31,27.2h8.4l42.8-37.6h11.9l53.2,46.6h5.3l53.3-46.6h69.3l44.8,39.2h19.9l30.1-26.3h47.6l5.3-4.7h14.3l44,38.6h12.1
	l44.2-38.6H861c0,0,31.4,27.3,31.1,27.3h19.7l40.8-35.7h47.3l49.2,43.1h10.3"/>
<path class="st0" d="M5.5,364.9l8.8-7.2h30.9c0,0,50.1-28.7,49.3-38h12.2l4.9-4h25.7l4.9,4h13.4l50.9,41.4h15.6l23.2-15l34.4-18.4
	h31.2l31.4,25.6h8.2l43.4-35.4h11.6l53.9,43.9h5.2l53.9-43.9h68.1l45.4,36.9h19.5l30.5-24.7h46.8l5.4-4.4h14l44.7,36.4h11.9
	l44.7-36.4h10.8c0,0,31.8,25.6,31.6,25.6h19.3l41.4-33.6h46.5l49.9,40.5h10.2"/>
<path class="st0" d="M5.5,364.9l8.9-6.7h30.3c0,0,50.5-27,49.7-35.6h12l5-3.8h25.2l5,3.8h13.2l51.5,38.8h15.3l23.2-14l34.1-17.3
	h30.6l31.9,24h8.1l44.1-33.1h11.4l54.6,41.1h5.1l54.7-41.1h66.8l46,34.7h19.2l30.9-23.2h45.9l5.5-4.2h13.7l45.3,34h11.7l45.3-34
	h10.6c0,0,32.2,24,32,24h18.9l42-31.5h45.6l50.6,38h9.9"/>
<path class="st0" d="M5.5,365.1l9-6.4h29.8c0,0,50.9-25.1,50.2-33.2h11.8l5.1-3.5h24.7l5.1,3.5h12.9l52.3,36.3h15l23.2-13l34-16.1
	h30l32.3,22.4h7.9l44.6-30.9h11.2l55.3,38.4h5l55.3-38.4h65.5l46.6,32.3h18.8l31.3-21.7h45.1l5.6-3.8h13.5l45.8,31.8h11.5l45.9-31.8
	h10.4c0,0,32.6,22.4,32.4,22.4h18.5l42.5-29.4h44.7l51.2,35.5h9.8"/>
<path class="st0" d="M5.5,365.3l9.1-5.9h29.2c0,0,51.3-23.4,50.6-30.8h11.6l5.1-3.3h24.3l5.1,3.3h12.7l53,33.7H221l23.2-12.2
	l33.9-15h29.4l32.7,20.8h7.8l45.2-28.7H404l56.1,35.6h4.9l56.1-35.6h64.2l47.3,30H651l31.7-20.1h44.1l5.6-3.6h13.2l46.5,29.5h11.3
	l46.5-29.5h10.2c0,0,33,20.8,32.9,20.8h18.2l43.1-27.3h43.9l51.9,33h9.6"/>
<path class="st0" d="M5.5,365.3l9.2-5.4h28.6c0,0,51.8-21.5,51.2-28.4h11.3l5.2-3h23.8l5.2,3h12.4l53.6,31.1h14.5l23.2-11.2
	l33.6-13.8h29l33.1,19.2h7.6l45.7-26.6h10.8l56.8,33h4.7l56.8-33h62.9l47.8,27.6h18.1l32.1-18.6H726l5.7-3.3h12.9l47.1,27.2h11.1
	l47.1-27.2h10c0,0,33.4,19.2,33.2,19.2H911l43.7-25.2h43l52.6,30.5h9.4"/>
<path class="st0" d="M5.5,365.5l9.4-5h27.9c0,0,52.2-19.8,51.6-26.1h11.1l5.3-2.8h23.3l5.3,2.8h12.2L206,363h14.1l23.2-10.3
	l33.4-12.7h28.4l33.5,17.7h7.4l46.4-24.4h10.4l57.5,30.1h4.7l57.5-30.2h61.7l48.4,25.5h17.8l32.4-17.1h42.4l5.8-3h12.7l47.7,25h10.8
	l47.7-25h9.8c0,0,33.8,17.7,33.7,17.7h17.5l44.2-23.1h42.1l53.3,27.9h9.2"/>
<path class="st0" d="M5.5,365.7l9.4-4.5h27.5c0,0,52.5-18,52.1-23.7h10.8l5.4-2.5h22.8l5.3,2.5h12l54.9,25.9h13.9l23.2-9.4
	l33.2-11.5h27.8l34,16h7.2l46.9-22.1h10.3l58.2,27.4h4.7l58.2-27.4h60.3l49.1,23.1h17.3l32.9-15.5h41.5l5.9-2.8h12.4l48.3,22.7h10.6
	l48.3-22.7h9.6c0,0,34.3,16,34.1,16h17.1l44.7-21.1h41.3l53.9,25.3h9"/>
<path class="st0" d="M5.5,365.8l9.6-4H42c0,0,53-16.2,52.5-21.4h10.6l5.3-2.2h22.4l5.4,2.2h11.7l55.6,23.3h13.6l23.2-8.4l33-10.3
	h27.1l34.4,14.4h7.1l47.6-19.9h10.1l58.9,24.7h4.5l59-24.7h59.1l49.7,20.8h17l33.3-13.9h40.6l5.9-2.5h12.2l48.9,20.4h10.4l48.9-20.4
	h9.4c0,0,34.7,14.4,34.5,14.4h16.8l45.3-19h40.4l54.5,22.9h8.8"/>
<path class="st0" d="M5.5,365.9l9.7-3.6h26.2c0,0,53.4-14.4,53-19H105l5.4-2h21.9l5.4,2h11.4l56.3,20.7h13.2l23.2-7.5l32.7-9.2h26.5
	l34.8,12.8h7l48.1-17.7h9.9l59.6,21.8h4.4l59.7-21.9h57.8l50.3,18.5h16.6l33.7-12.4h39.7l6-2.2h11.9l49.4,18.2h10.1l49.5-18.2h9.2
	c0,0,35,12.8,35,12.8h16.4l45.8-16.8h39.5l55.2,20.3h8.7"/>
<path class="st0" d="M5.5,366l9.8-3.1h25.7c0,0,53.8-12.6,53.5-16.6h10.2l5.5-1.8h21.4l5.5,1.8h11.2l57,18.1h12.9l23.2-6.5l32.5-8.1
	h26l35.2,11.2h6.9l48.6-15.5h9.7l60.4,19.2h4.3l60.4-19.2h56.6l50.9,16.2h16.3l34.1-10.8h38.8l6.1-1.9h11.6l50.1,15.9h9.9L850,349
	h8.9c0,0,35.5,11.2,35.4,11.2h15.9l46.4-14.7h38.6l55.9,17.7h8.5"/>
<path class="st0" d="M5.5,366.1l10-2.7h25.1c0,0,54.3-10.8,54-14.3h9.9l5.6-1.5H131l5.6,1.5h10.9l57.7,15.5h12.6l23.2-5.6l32.4-6.9
	h25.4l35.6,9.6h6.7l49.3-13.3h9.4l61.1,16.4h4.2l61.1-16.4h55.3l51.5,13.9h15.9l34.5-9.3h37.9l6.1-1.7h11.4l50.6,13.6h9.7l50.6-13.6
	h8.7c0,0,36,9.7,36,9.7h15.7l46.9-12.7h37.7l56.6,15.2h8.2"/>
<path class="st0" d="M5.5,366.3l10.1-2.2h24.5c0,0,54.7-9,54.4-11.9h9.7l5.6-1.3h20.4l5.6,1.3h10.7l58.3,12.9h12.4l23.2-4.6
	l32.2-5.8h24.8l36.1,8h6.5l49.9-11h9.3l61.8,13.7h4.1l61.9-13.7h54l52.1,11.5h15.5l34.9-7.7h37.1l6.2-1.4h11.1l51.2,11.4h9.4
	l51.3-11.4h8.6c0,0,36.3,8,36.2,8h15.3l47.5-10.5h36.9l57.2,12.7h8.1"/>
<path class="st0" d="M5.5,366.4l10.2-1.8h23.9c0,0,55.2-7.2,54.9-9.5h9.5l5.7-1.1h20l5.7,1h10.4l59,10.3h12.1l23.2-3.8l31.9-4.7
	h24.2l36.5,6.4h6.4l50.4-8.9h9l62.5,11h4l62.6-10.9h52.6l52.7,9.2h15.2l35.3-6.2h36.2l6.3-1.1h10.8l51.9,9.1h9.3l51.9-9.1h8.4
	l36.7,6.4h15l48.1-8.2h36l58,10.1h7.8"/>
<path class="st0" d="M5.5,366.5l10.3-1.4h23.3c0,0,55.5-5.4,55.3-7.1h9.3l5.8-0.7H129l5.8,0.7H145l59.7,7.7h11.8l23.2-2.8l31.8-3.4
	h23.6l36.9,4.8h6.1l51-6.7h8.8l63.2,8.2h3.9l63.2-8.2h51.5l53.3,7h14.8l35.7-4.6h35.3l6.4-0.8h10.6l52.5,6.8h9l52.5-6.8h8.2
	l37.1,4.8h14.6l48.6-6.3h35.1l58.5,7.6h7.8"/>
<path class="st0" d="M5.5,366.7l10.4-0.9h22.8c0,0,55.9-3.6,55.9-4.7h9l5.9-0.5h18.9l5.9,0.5h9.9l60.4,5.2h11.5l23.2-1.8l31.5-2.4
	h23l37.3,3.2h6.1l51.6-4.4h8.5l64,5.5h3.8l64-5.5h50.2l53.9,4.6h14.5l36.1-3.1h34.5l6.4-0.6H735l53,4.6h8.8l53-4.6h8l37.5,3.2h14.2
	l49.1-4.2H993l59.2,5h7.5"/>
<path class="st0" d="M5.5,366.8l10.6-0.5h22.1c0,0,56.4-1.8,56.3-2.4h8.7l5.9-0.2h18.5l5.9,0.2h9.7l61.1,2.6h11.3l23.3-1l31.3-1.1
	h22.4l37.7,1.6h5.9l52.2-2.2h8.3l64.7,2.7h3.7l64.7-2.7h48.9l54.5,2.4h14.1l36.5-1.5h33.6l6.5-0.3h10.1l53.6,2.2h8.5l53.7-2.2h7.7
	l37.9,1.6h13.9l49.7-2.1h33.4l59.9,2.6h7.3"/>
<line class="st0" x1="5.5" y1="366.9" x2="1059.6" y2="366.9"/>
<linearGradient id="SVGID_1_" gradientUnits="userSpaceOnUse" x1="0" y1="1265.7" x2="666.2979" y2="1265.7" gradientTransform="matrix(1 0 0 1 0 -1082)">
	<stop  offset="0.157" style="stop-color:#FFFFFF"/>
	<stop  offset="0.9911" style="stop-color:#FFFFFF;stop-opacity:1.054406e-02"/>
	<stop  offset="1" style="stop-color:#FFFFFF;stop-opacity:0"/>
</linearGradient>
<rect class="st1" width="666.3" height="367.4"/>
<linearGradient id="SVGID_2_" gradientUnits="userSpaceOnUse" x1="1092.66" y1="1265.7" x2="1464.8" y2="1265.7" gradientTransform="matrix(1 0 0 1 0 -1082)">
	<stop  offset="4.808179e-02" style="stop-color:#FFFFFF;stop-opacity:0"/>
	<stop  offset="0.8659" style="stop-color:#FFFFFF"/>
</linearGradient>
<rect x="1092.7" class="st2" width="372.1" height="367.4"/>
</svg>
