<svg width="113" height="104" viewBox="0 0 113 104" fill="none" xmlns="http://www.w3.org/2000/svg">
<path d="M76.2969 18.5501C70.0798 18.9964 63.8438 19.2296 57.6457 19.889C55.5739 20.1094 35.4225 20.3401 34.101 28.4759C33.4177 32.6822 36.0283 37.0542 38.6253 40.4329C46.2826 50.3958 65.1037 64.2964 75.9276 69.9793C85.9036 75.2171 97.6449 79.3504 104.227 68.225C109.261 59.7174 108.23 49.1939 104.412 40.4329C94.9001 18.6039 69.8632 4.34735 46.7505 2.20729C25.2131 0.213087 10.6535 12.7735 4.46224 32.7232C-0.367514 48.2857 1.45035 64.786 14.0186 76.2118C31.0216 91.669 61.075 90.1942 81.6522 84.4755C95.4961 80.6281 105.692 70.53 100.303 55.5293C95.3097 41.6281 78.5817 33.7718 64.4783 34.4313C36.3601 35.7462 16.8129 78.649 42.457 96.2479C53.8144 104.042 69.0902 103.303 81.8368 99.895C93.6595 96.7345 107.357 90.3603 110.552 77.3659C111.235 74.5874 112.629 66.7477 107.875 66.7477C105.479 66.7477 104.498 65.7574 103.72 63.4237" stroke="#61C6FF" stroke-width="3" stroke-linecap="round"/>
</svg>
