<svg width="118" height="101" viewBox="0 0 118 101" fill="none" xmlns="http://www.w3.org/2000/svg">
<path d="M86.1087 26.4585C64.9299 29.171 31.1863 27.5234 25.1925 54.0957C20.5504 74.6761 28.3255 99.9892 52.7664 98.7211C81.6626 97.2217 99.8559 75.7585 97.7721 46.9329C96.6575 31.5143 88.5808 14.3674 73.5578 7.94909C61.0515 2.60605 49.5475 10.1564 41.1664 18.9786C34.5571 25.9358 9.12683 60.541 30.0734 65.886C47.3908 70.3049 85.8175 58.911 82.8125 35.5864C80.2716 15.8647 51.3329 0.98686 33.3696 2.05399C6.37779 3.65746 2.86631 46.729 10.8668 65.5056C22.8133 93.5433 58.2156 93.028 82.5589 83.3811C92.9004 79.283 104.937 72.4078 109.689 61.7023C115.46 48.7024 109.266 35.7049 97.8355 28.5503C73.6281 13.3989 27.8365 9.04593 7.50722 33.3044C-6.18267 49.6402 8.0383 61.0295 24.1149 64.745C36.3135 67.5642 49.0701 67.534 61.514 67.534C76.718 67.534 94.492 68.6296 109.055 63.3504C128.177 56.4188 103.936 35.785 90.2289 41.4181C73.6854 48.2168 57.3457 64.9959 48.456 80.2751C44.7 86.7308 48.0127 88.0718 53.5271 88.0718C65.5921 88.0718 77.4296 84.7825 88.3906 80.0849" stroke="#23C865" stroke-width="3" stroke-linecap="round"/>
</svg>
