<svg width="120" height="106" viewBox="0 0 120 106" fill="none" xmlns="http://www.w3.org/2000/svg">
<path d="M82.9044 3.793C70.2297 1.96998 69.4182 1.10384 54.6054 3.31321C45.0199 4.74294 17.1983 10.9603 8.52995 16.0276C-8.55178 26.0133 12.3726 32.0441 20.3278 34.3396C39.0705 39.7479 75.9146 44.1708 95.5792 43.0558C100.404 42.7822 121.49 42.1787 117.501 29.3018C116.154 24.9528 105.428 16.9279 101.638 14.9081C86.0554 6.60419 65.2111 7.00286 49.1051 13.2689C25.7749 22.3454 -2.98035 53.113 12.3563 79.9197C27.8021 106.917 71.502 110.278 95.619 94.6732C116.886 80.9128 128.673 44.22 104.467 26.7829C82.0666 10.6461 54.3816 44.968 44.7207 61.8476C42.1283 66.3771 33.4889 81.9039 42.8474 84.6776C45.8817 85.5769 49.5718 86.5567 52.772 86.5567" stroke="#C61A77" stroke-width="3" stroke-linecap="round"/>
</svg>
