<svg width="139" height="105" viewBox="0 0 139 105" fill="none" xmlns="http://www.w3.org/2000/svg">
<path d="M75.4254 3.55358C65.9964 3.67826 64.5122 3.30574 54.1825 5.55984C39.9534 8.66485 23.4865 12.927 11.7829 22.1258C-0.0854608 31.4542 -0.020043 51.2943 5.9555 63.7414C11.5444 75.3832 21.0381 83.5341 32.4229 89.4789C46.7455 96.9577 63.3928 101.801 79.5304 102.835C91.6226 103.61 104.297 101.641 115.615 97.2747C123.203 94.3468 130.007 89.8848 133.872 82.5716C141.154 68.7921 134.525 52.8889 126.207 41.3C111.476 20.7755 88.7349 7.68209 63.9427 3.46759C45.7188 0.369656 22.7428 0.601638 14.3091 20.1769C6.88278 37.414 9.49476 60.7511 20.8542 75.7217C31.0505 89.1594 48.1415 96.0139 64.5743 97.4466C79.9359 98.7859 102.767 95.5054 110.505 79.8488C116.589 67.538 108.909 53.81 98.3906 47.0035C85.6036 38.7288 66.8689 37.7205 52.6324 42.5324C41.4264 46.3199 35.0913 57.0347 39.0829 68.6138C43.6972 81.9995 58.5608 87.2027 71.4064 88.2178C82.0724 89.0607 96.6986 88.6749 104.993 80.7087C110.487 75.4323 108.656 70.1777 106.945 63.9134" stroke="#BC3227" stroke-width="3" stroke-linecap="round"/>
</svg>
