<svg width="106" height="93" viewBox="0 0 106 93" fill="none" xmlns="http://www.w3.org/2000/svg">
<path d="M71.716 3.59887C52.7974 3.86914 32.4435 9.70582 16.559 20.2215C0.418242 30.9069 -0.807451 49.0063 7.98321 64.9894C15.0827 77.8975 29.0373 85.5686 43.0041 88.7522C58.459 92.275 78.8496 93.0749 92.6076 83.8032C115.559 68.3359 100.768 32.7134 81.1607 21.4304C55.6605 6.75669 40.1416 49.7821 37.2618 67.5205C36.3416 73.1883 34.6862 83.6495 41.3419 87.0144C51.2194 92.008 65.5673 81.2642 72.6227 75.8319C84.8274 66.4348 96.4678 53.0906 97.7833 36.9953C99.0126 21.955 88.0642 12.0536 75.1538 6.84785C49.3024 -3.57612 10.443 1.73199 2.88308 33.3685C-0.159944 46.1029 4.90518 58.9909 14.33 67.6716C18.434 71.4516 21.9325 73.5873 27.0237 75.7563C32.8234 78.2272 37.8391 78.1019 43.8353 79.0808" stroke="#CDE247" stroke-width="3" stroke-linecap="round"/>
</svg>
