<svg width="148" height="107" viewBox="0 0 148 107" fill="none" xmlns="http://www.w3.org/2000/svg">
<path d="M146.442 40.9313C138.802 31.2539 128.755 24.8071 118.235 18.4284C105.324 10.6008 91.1872 2.28479 75.5742 2.01088C52.7339 1.61017 24.5094 12.2914 11.4253 31.6132C2.8142 44.3296 -2.39071 64.2321 6.98812 77.8866C22.2917 100.167 56.1812 104.953 80.8988 104.953C97.9975 104.953 123.209 103.48 124.89 81.6265C126.592 59.4989 110.844 36.9389 92.2453 26.2886C78.9993 18.7032 60.8749 17.4527 50.5359 30.4722C39.9242 43.835 33.2765 71.9454 44.1336 86.9511C64.3341 114.87 137.083 90.2782 128.694 54.116C123.768 32.8847 95.4191 23.6739 76.3349 23.1192C58.4213 22.5984 38.5596 36.4883 43.2462 56.6516C51.1432 90.627 110.733 76.5271 128.63 61.5324C129.825 60.5317 138.183 49.7467 138.392 52.151C138.846 57.3685 137.654 62.2399 136.173 67.174" stroke="#EB8943" stroke-width="3" stroke-linecap="round"/>
</svg>
