<svg width="579" height="507" viewBox="0 0 579 507" fill="none" xmlns="http://www.w3.org/2000/svg">
<g clip-path="url(#clip0_1424_215)">
<path opacity="0.025641" fill-rule="evenodd" clip-rule="evenodd" d="M163.498 215.197C149.013 186.202 106.732 155.12 123.597 127.43C139.713 100.97 189.158 145.593 215.656 129.561C240.52 114.519 221.914 54.2471 250.724 50.5192C281.353 46.556 298.526 90.2605 314.357 116.79C326.347 136.885 309.222 175.11 330.656 184.475C355.496 195.328 380.068 151.035 406.5 157.048C423.603 160.94 419.808 189.106 424.874 205.911C429.886 222.535 430.468 239.941 436.408 256.257C445.477 281.167 478.232 302.956 469.292 327.92C460.816 351.589 425.438 355.043 400.382 356.859C376.76 358.571 352.383 324.85 332.562 337.83C307.03 354.549 322.403 401.88 299.989 422.599C282.359 438.896 252.44 439.891 229.402 433.188C206.516 426.53 191.49 404.661 176.008 386.53C161.615 369.674 139.051 352.344 141.556 330.309C144.776 301.985 184.951 288.933 190.288 260.931C193.626 243.42 171.462 231.139 163.498 215.197Z" stroke="black" stroke-width="0.845"/>
<path opacity="0.0512821" fill-rule="evenodd" clip-rule="evenodd" d="M164.9 210.823C151.436 181.34 110.265 148.801 128.086 121.717C145.116 95.8356 192.973 142.156 220.014 127.06C245.388 112.894 228.897 52.0095 257.82 49.2894C288.568 46.3975 304.206 90.6747 319.101 117.741C330.383 138.241 311.934 175.846 333.028 185.953C357.474 197.666 383.577 154.258 409.783 161.19C426.74 165.676 421.965 193.693 426.441 210.664C430.869 227.453 430.844 244.869 436.21 261.382C444.404 286.594 476.379 309.512 466.573 334.149C457.276 357.508 421.799 359.725 396.695 360.665C373.029 361.552 349.842 327.001 329.58 339.281C303.481 355.099 317.192 402.938 294.069 422.862C275.881 438.533 245.946 438.484 223.156 430.981C200.516 423.529 186.262 401.148 171.423 382.488C157.627 365.14 135.681 347.033 138.954 325.098C143.161 296.904 183.766 285.263 190.078 257.464C194.025 240.079 172.302 227.033 164.9 210.823Z" stroke="black" stroke-width="0.845"/>
<path opacity="0.0769231" fill-rule="evenodd" clip-rule="evenodd" d="M166.454 206.5C154.027 176.565 114.017 142.609 132.773 116.163C150.695 90.8919 196.907 138.854 224.459 124.711C250.311 111.439 235.955 50.0164 264.955 48.3073C295.785 46.4903 309.868 91.2863 323.81 118.855C334.369 139.737 314.619 176.675 335.348 187.512C359.371 200.071 386.973 157.601 412.92 165.443C429.71 170.518 423.96 198.352 427.841 215.468C431.681 232.402 431.048 249.806 435.835 266.496C443.144 291.979 474.299 315.999 463.64 340.279C453.533 363.299 418 364.277 392.879 364.34C369.196 364.4 347.229 329.062 326.551 340.627C299.915 355.524 311.949 403.813 288.144 422.918C269.421 437.945 239.506 436.85 216.991 428.557C194.625 420.319 181.161 397.455 166.982 378.288C153.8 360.469 132.499 341.607 136.536 319.8C141.724 291.77 182.711 281.553 189.989 253.991C194.54 236.755 173.287 222.958 166.454 206.5Z" stroke="black" stroke-width="0.845"/>
<path opacity="0.102564" fill-rule="evenodd" clip-rule="evenodd" d="M168.158 202.234C156.783 171.883 117.983 136.552 137.65 110.777C156.443 86.1466 200.953 135.693 228.981 122.519C255.281 110.158 243.077 48.2716 272.12 47.5756C302.994 46.8357 315.506 92.0958 328.476 120.135C338.3 141.372 317.274 177.598 337.611 189.152C361.181 202.542 390.248 161.061 415.907 169.804C432.509 175.462 425.791 203.078 429.073 220.32C432.319 237.377 431.079 254.748 435.281 271.595C441.696 297.317 471.994 322.41 460.493 346.304C449.59 368.957 414.044 368.694 388.936 367.881C365.265 367.114 344.546 331.03 323.477 341.866C296.337 355.825 306.678 404.504 282.221 422.767C262.985 437.131 233.126 434.993 210.914 425.92C188.85 416.906 176.192 393.586 162.69 373.936C150.138 355.667 129.508 336.074 134.303 314.421C140.467 286.589 181.785 277.809 190.021 250.517C195.171 233.451 174.412 218.921 168.158 202.234Z" stroke="black" stroke-width="0.845"/>
<path opacity="0.128205" fill-rule="evenodd" clip-rule="evenodd" d="M170.01 198.03C159.701 167.301 122.158 130.637 142.712 105.564C162.353 81.6042 205.107 132.674 233.578 120.486C260.293 109.051 250.257 46.7758 279.306 47.0937C310.187 47.4318 321.112 93.101 333.096 121.576C342.173 143.143 319.894 178.613 339.816 190.87C362.905 205.074 393.402 164.632 418.74 174.266C435.135 180.5 427.457 207.864 430.135 225.21C432.784 242.37 430.938 259.688 434.549 276.671C440.063 302.602 469.467 328.736 457.139 352.214C445.452 374.473 409.937 372.969 384.873 371.281C361.243 369.688 341.795 332.903 320.361 342.998C292.75 356.001 301.386 405.011 276.307 422.409C256.581 436.093 226.815 432.915 204.933 423.071C183.197 413.293 171.36 389.545 158.553 369.436C146.646 350.741 126.713 330.439 132.261 308.967C139.392 281.367 180.991 274.034 190.174 247.047C195.917 230.17 175.677 214.925 170.01 198.03Z" stroke="black" stroke-width="0.845"/>
<path opacity="0.153846" fill-rule="evenodd" clip-rule="evenodd" d="M172.007 193.893C162.777 162.823 126.536 124.871 147.953 100.531C168.418 77.2713 209.363 129.802 238.243 118.615C265.341 108.119 257.484 45.5319 286.504 46.8635C317.355 48.2791 326.679 94.3017 337.662 123.177C345.981 145.048 322.478 179.719 341.96 192.664C364.538 207.665 396.429 168.312 421.414 178.824C437.582 185.626 428.954 212.706 431.025 230.135C433.073 247.377 430.624 264.62 433.641 281.719C438.246 307.826 466.72 334.971 453.58 358.004C441.123 379.842 405.683 377.1 380.692 374.537C357.133 372.121 338.981 334.68 317.207 344.02C289.16 356.051 296.08 405.333 270.409 421.846C250.217 434.833 220.58 430.618 199.055 420.016C177.674 409.485 166.673 385.339 154.575 364.795C143.328 345.696 124.115 324.711 130.409 303.445C138.499 276.111 180.329 270.234 190.449 243.584C196.777 226.918 177.081 210.976 172.007 193.893Z" stroke="black" stroke-width="0.845"/>
<path opacity="0.179487" fill-rule="evenodd" clip-rule="evenodd" d="M174.147 189.828C166.007 158.455 131.113 119.262 153.366 95.6833C174.631 73.1524 213.718 127.08 242.97 116.908C270.418 107.364 264.75 44.5407 293.705 46.8842C324.489 49.3756 332.2 95.6956 342.169 124.937C349.719 147.085 325.021 180.915 344.04 194.531C366.081 210.311 399.325 172.095 423.929 183.473C439.849 190.835 430.281 217.598 431.742 235.088C433.188 252.391 430.139 269.538 432.556 286.731C436.248 312.983 463.757 341.106 449.822 363.666C436.61 385.056 401.287 381.078 376.401 377.645C352.94 374.409 336.106 336.357 314.019 344.931C285.569 355.977 290.765 405.47 264.534 421.076C243.901 433.351 214.429 428.104 193.288 416.758C172.286 405.487 162.135 380.972 150.761 360.018C140.188 340.538 121.719 318.895 128.751 297.862C137.79 270.827 179.8 266.413 190.843 240.133C197.749 223.698 178.622 207.078 174.147 189.828Z" stroke="black" stroke-width="0.845"/>
<path opacity="0.205128" fill-rule="evenodd" clip-rule="evenodd" d="M176.428 185.841C169.388 154.203 135.883 113.815 158.945 91.0278C180.984 69.2528 218.165 124.511 247.754 115.367C275.518 106.786 272.046 43.8036 300.903 47.1563C331.58 50.7205 337.67 97.2814 346.612 126.853C353.385 149.251 327.521 182.198 346.053 196.47C367.53 213.01 402.088 175.977 426.279 188.207C441.933 196.12 431.437 222.532 432.287 240.063C433.128 257.406 429.482 274.436 431.298 291.703C434.071 318.068 460.582 347.133 445.868 369.194C431.918 390.109 396.755 384.901 372.004 380.602C348.671 376.548 333.174 337.932 310.802 345.731C281.984 355.776 285.45 405.421 258.689 420.102C237.641 431.65 208.37 425.377 187.637 413.3C167.042 401.303 157.753 376.449 147.117 355.111C137.23 335.273 119.528 312.999 127.29 292.224C137.267 265.521 179.405 262.577 191.359 236.697C198.834 220.513 180.299 203.236 176.428 185.841Z" stroke="black" stroke-width="0.845"/>
<path opacity="0.230769" fill-rule="evenodd" clip-rule="evenodd" d="M178.847 181.936C172.916 150.071 140.84 108.539 164.684 86.5701C187.468 65.5775 222.698 122.1 252.589 113.994C280.635 106.387 279.364 43.3218 308.086 47.6795C338.62 52.3122 343.082 99.0573 350.986 128.923C356.973 151.544 329.975 183.568 347.998 198.478C368.884 215.757 404.713 179.953 428.464 193.02C443.831 201.474 432.42 227.504 432.658 245.054C432.893 262.416 428.655 279.308 429.867 296.628C431.718 323.074 457.199 353.046 441.724 374.58C427.052 394.996 392.093 388.564 367.507 383.403C344.329 378.538 330.19 339.404 307.559 346.418C278.408 355.451 280.139 405.187 252.882 418.925C231.444 429.731 202.41 422.44 182.111 409.647C161.947 396.939 153.531 371.775 143.647 350.079C134.457 329.909 117.544 307.031 126.026 286.539C136.929 260.2 179.144 258.728 191.994 233.282C200.029 217.369 182.108 199.455 178.847 181.936Z" stroke="black" stroke-width="0.845"/>
<path opacity="0.25641" fill-rule="evenodd" clip-rule="evenodd" d="M181.401 178.116C176.585 146.064 145.978 103.438 170.574 82.3148C194.078 62.1301 227.313 119.848 257.468 112.789C285.764 106.167 286.694 43.0951 315.246 48.4525C345.6 54.148 348.427 101.02 355.285 131.143C360.479 153.96 332.38 185.022 349.871 200.552C370.142 218.55 407.198 184.018 430.478 197.905C445.542 206.891 433.229 232.507 432.854 250.054C432.483 267.414 427.658 284.148 428.265 301.5C429.192 327.994 453.611 358.837 437.394 379.818C422.019 399.709 387.305 392.061 362.914 386.046C339.92 380.374 327.156 340.771 304.294 346.99C274.845 355.001 274.839 404.767 247.12 417.545C225.317 427.596 196.555 419.297 176.716 405.803C157.008 392.399 149.474 366.957 140.353 344.929C131.874 324.45 115.769 300.996 124.961 280.813C136.776 254.871 179.017 254.873 192.747 229.89C201.333 214.267 184.048 195.739 181.401 178.116Z" stroke="black" stroke-width="0.845"/>
<path opacity="0.282051" fill-rule="evenodd" clip-rule="evenodd" d="M184.086 174.39C180.392 142.189 151.291 98.5205 176.609 78.2687C200.803 58.9165 232.004 117.759 262.387 111.757C290.896 106.126 294.027 43.1254 322.375 49.476C352.511 56.2273 353.702 103.17 359.504 133.514C363.898 156.497 334.732 186.56 351.67 202.691C371.301 221.385 409.54 188.168 432.321 202.859C447.062 212.365 433.862 237.536 432.875 255.059C431.899 272.395 426.493 288.951 426.494 306.313C426.496 332.824 449.823 364.501 432.884 384.902C416.824 404.245 382.398 395.39 358.232 388.527C335.45 382.057 324.075 342.032 301.011 347.45C271.3 354.428 269.558 404.163 241.409 415.966C219.269 425.25 190.814 415.952 171.458 401.775C152.229 387.691 145.589 362.001 137.242 339.669C129.482 318.906 114.206 294.904 124.096 275.054C136.81 249.54 179.025 251.016 193.619 226.528C202.745 211.214 186.117 192.094 184.086 174.39Z" stroke="black" stroke-width="0.845"/>
<path opacity="0.307692" fill-rule="evenodd" clip-rule="evenodd" d="M186.9 170.758C184.331 138.448 156.773 93.7908 182.782 74.4349C207.636 55.9389 236.765 115.834 267.339 110.897C296.027 106.264 301.355 43.4108 329.464 50.7469C359.346 58.5459 358.898 105.501 363.637 136.029C367.227 159.152 337.029 188.179 353.394 204.891C372.36 224.259 411.736 192.396 433.99 207.874C448.39 217.888 434.32 242.583 432.722 260.061C431.141 277.353 425.161 293.709 424.556 311.062C423.633 337.556 445.84 370.028 428.2 389.826C411.474 408.596 377.378 398.545 353.467 390.843C330.924 383.581 320.953 343.184 297.714 347.793C267.778 353.731 264.3 403.374 235.757 414.188C213.306 422.694 185.193 412.409 166.343 397.564C147.618 382.818 141.878 356.912 134.316 334.302C127.286 313.281 112.856 288.76 123.434 269.268C137.03 244.213 179.168 247.162 194.607 223.198C204.262 208.212 188.312 188.523 186.9 170.758Z" stroke="black" stroke-width="0.845"/>
<path opacity="0.333333" fill-rule="evenodd" clip-rule="evenodd" d="M189.838 167.228C188.399 134.848 162.416 89.2556 189.085 70.8192C214.57 53.2019 241.59 114.077 272.318 110.21C301.15 106.581 308.668 43.9522 336.504 52.2648C366.096 61.1019 364.009 108.013 367.68 138.688C370.461 161.922 339.268 189.877 355.04 207.15C373.319 227.168 413.782 196.699 435.483 212.944C449.524 223.455 434.601 247.643 432.394 265.055C430.211 282.281 423.663 298.419 422.453 315.74C420.606 342.185 441.667 375.412 423.346 394.583C405.976 412.758 372.251 401.523 348.623 392.991C326.348 384.948 317.793 344.227 294.406 348.022C264.281 352.911 259.074 402.403 230.17 412.215C207.436 419.931 179.7 408.671 161.379 393.178C143.18 377.787 138.348 351.697 131.579 328.836C125.287 307.583 111.722 282.574 122.973 263.462C137.435 238.897 179.445 243.314 195.711 219.904C205.883 205.264 190.629 185.03 189.838 167.228Z" stroke="black" stroke-width="0.845"/>
<path opacity="0.358974" fill-rule="evenodd" clip-rule="evenodd" d="M192.898 163.802C192.59 131.391 168.214 84.9202 195.51 67.4258C221.594 50.7086 246.474 112.49 277.318 109.697C306.259 107.077 315.958 44.7485 343.487 54.0275C372.753 63.892 369.03 110.702 371.628 141.486C373.596 164.803 341.447 191.653 356.607 209.465C374.175 230.109 415.677 201.071 436.798 218.063C450.464 229.058 434.706 252.711 431.893 270.035C429.109 287.174 422.002 303.073 420.189 320.341C417.419 346.706 437.308 380.649 418.329 399.168C400.335 416.726 367.024 404.321 343.708 394.969C321.726 386.153 314.598 345.159 291.093 348.136C260.816 351.97 253.884 401.251 224.656 410.047C201.667 416.966 174.34 404.745 156.571 388.621C138.92 372.604 135.001 346.361 129.035 323.279C123.488 301.819 110.804 276.351 122.715 257.644C138.026 233.599 179.856 239.48 196.929 216.651C207.606 202.375 193.068 181.621 192.898 163.802Z" stroke="black" stroke-width="0.845"/>
<path opacity="0.384615" fill-rule="evenodd" clip-rule="evenodd" d="M196.076 160.485C196.9 128.083 174.16 80.7896 202.05 64.2585C228.702 48.4618 251.41 111.074 282.333 109.359C311.348 107.75 323.216 45.7986 350.404 56.0326C379.308 66.9125 373.953 113.564 375.476 144.42C376.629 167.791 343.563 193.503 358.091 211.834C374.929 233.078 417.419 205.506 437.934 223.225C451.208 234.69 434.634 257.778 431.218 274.994C427.838 292.025 420.18 307.667 417.765 324.861C414.077 351.114 432.769 385.729 413.156 403.574C394.56 420.494 361.702 406.934 338.726 396.775C317.066 387.197 311.372 345.978 287.778 348.133C257.386 350.909 248.738 399.917 219.221 407.688C196.004 413.8 169.12 400.633 151.925 383.899C134.844 367.276 131.843 340.912 126.686 317.636C121.891 295.995 110.104 270.101 122.661 251.821C138.802 228.324 180.401 235.661 198.26 213.442C209.429 199.548 195.624 178.299 196.076 160.485Z" stroke="black" stroke-width="0.845"/>
<path opacity="0.410256" fill-rule="evenodd" clip-rule="evenodd" d="M199.368 157.28C201.322 124.927 180.246 76.8689 208.696 61.3212C235.883 46.4642 256.392 109.831 287.356 109.196C316.41 108.601 330.433 47.1011 357.247 58.2778C385.754 70.1598 378.774 116.596 379.219 147.486C379.556 170.884 345.612 195.425 359.492 214.252C375.578 236.072 419.005 209.999 438.888 228.423C451.754 240.344 434.385 262.84 430.37 279.926C426.398 296.829 418.199 312.194 415.185 329.293C410.583 355.401 428.056 390.648 407.831 407.798C388.657 424.058 356.291 409.36 333.685 398.405C312.372 388.077 308.12 346.685 284.465 348.015C253.994 349.728 243.642 398.405 213.871 405.141C190.455 410.439 164.047 396.341 147.447 379.018C130.956 361.809 128.877 335.356 124.536 311.914C120.499 290.119 109.622 263.829 122.81 245.998C139.761 223.079 181.078 231.864 199.702 210.282C211.349 196.786 198.294 175.068 199.368 157.28Z" stroke="black" stroke-width="0.845"/>
<path opacity="0.435897" fill-rule="evenodd" clip-rule="evenodd" d="M202.77 154.193C205.851 121.928 186.466 73.1633 215.441 58.618C243.13 44.7188 261.415 108.762 292.382 109.209C321.439 109.628 337.6 48.6551 364.008 60.7608C392.082 73.6304 383.486 119.795 382.853 150.682C382.373 174.077 347.594 197.419 360.808 216.719C376.123 239.086 420.433 214.545 439.661 233.651C452.103 246.014 433.959 267.89 429.35 284.826C424.791 301.58 416.061 316.65 412.452 333.633C406.942 359.565 423.174 395.4 402.363 411.833C382.632 427.414 350.8 411.596 328.589 399.858C307.65 388.792 304.845 347.278 281.158 347.781C250.646 348.43 238.601 396.716 208.614 402.409C185.027 406.887 159.127 391.876 143.141 373.983C127.262 356.21 126.107 329.701 122.586 306.121C119.313 284.199 109.36 257.545 123.162 240.185C140.902 217.872 181.888 228.093 201.254 207.174C213.364 194.092 201.076 171.933 202.77 154.193Z" stroke="black" stroke-width="0.845"/>
<path opacity="0.461538" fill-rule="evenodd" clip-rule="evenodd" d="M206.277 151.226C210.482 119.088 192.81 69.6766 222.276 56.1514C250.433 43.2271 266.472 107.87 297.404 109.397C326.429 110.83 344.708 50.4579 370.677 63.4778C398.285 77.3193 388.084 123.155 386.372 154.002C385.076 177.366 349.504 199.48 362.037 219.229C376.561 242.117 421.701 219.137 440.251 238.903C452.254 251.693 433.357 272.923 428.16 289.687C423.019 306.272 413.768 321.027 409.569 337.875C403.157 363.598 418.129 399.978 396.757 415.675C376.495 430.558 345.233 413.638 323.446 401.132C302.906 389.343 301.552 347.755 277.861 347.432C247.345 347.015 233.623 394.851 203.455 399.495C179.726 403.147 154.366 387.241 139.014 368.802C123.764 350.484 123.536 323.951 120.84 300.263C118.333 278.24 109.317 251.255 123.716 234.388C142.225 212.707 182.829 224.352 202.913 204.122C215.472 191.471 203.964 168.896 206.277 151.226Z" stroke="black" stroke-width="0.845"/>
<path opacity="0.487179" fill-rule="evenodd" clip-rule="evenodd" d="M209.885 148.383C215.21 116.412 199.273 66.4136 229.193 53.9249C257.783 41.9911 271.557 107.154 302.417 109.76C331.374 112.205 351.749 52.5077 377.248 66.426C404.356 81.2226 392.561 126.675 389.774 157.442C387.664 180.747 351.341 201.606 363.177 221.781C376.894 245.162 422.808 223.771 440.657 244.173C452.206 257.374 432.58 277.931 426.801 294.503C421.084 310.899 411.324 325.323 406.54 342.013C399.234 367.497 412.927 404.377 391.02 419.319C370.251 433.486 339.599 415.485 318.261 402.227C298.145 389.727 298.243 348.118 274.579 346.968C244.096 345.487 228.712 392.815 198.4 396.402C174.559 399.224 149.769 382.443 135.07 363.479C120.469 344.64 121.167 318.116 119.299 294.347C117.563 272.251 109.494 244.967 124.473 228.613C143.726 207.591 183.9 220.646 204.677 201.129C217.671 188.924 206.958 165.961 209.885 148.383Z" stroke="black" stroke-width="0.845"/>
<path opacity="0.512821" fill-rule="evenodd" clip-rule="evenodd" d="M213.591 145.668C220.028 113.902 205.846 63.3783 236.183 51.9415C265.173 41.0127 276.664 106.617 307.414 110.298C336.268 113.752 358.714 54.8022 383.712 69.6019C410.287 85.3356 396.913 130.348 393.054 161C390.132 184.217 353.103 203.796 364.228 224.371C377.12 248.217 423.753 228.441 440.879 249.453C451.961 263.049 431.629 282.909 425.275 299.27C418.99 315.456 408.732 329.53 403.368 346.043C395.177 371.257 407.575 408.592 385.16 422.761C363.909 436.194 333.904 417.134 313.042 403.139C293.374 389.946 294.924 348.365 271.314 346.39C240.902 343.846 223.876 390.608 193.457 393.135C169.532 395.123 145.343 377.487 131.315 358.022C117.38 338.685 119.003 312.201 117.966 288.382C117.002 266.238 109.89 238.69 125.431 222.868C145.406 202.531 185.099 216.981 206.545 198.201C219.957 186.457 210.052 163.134 213.591 145.668Z" stroke="black" stroke-width="0.845"/>
<path opacity="0.538462" fill-rule="evenodd" clip-rule="evenodd" d="M217.389 143.084C224.931 111.562 212.521 60.5742 243.239 50.2031C272.592 40.2927 281.786 106.258 312.39 111.01C341.105 115.469 365.595 57.3383 390.061 73.0015C416.071 89.653 401.134 134.172 396.208 164.67C392.477 187.771 354.787 206.045 365.187 226.996C377.24 251.277 424.534 233.142 440.916 254.738C451.517 268.713 430.505 287.851 423.584 303.98C416.737 319.937 405.995 333.644 400.057 349.961C390.992 374.873 402.079 412.618 379.183 425.996C357.476 438.679 328.155 418.584 307.794 403.869C288.598 389.997 291.599 348.496 268.072 345.698C237.767 342.094 219.119 388.234 188.631 389.698C164.651 390.85 141.092 372.38 127.752 352.437C114.5 332.626 117.046 306.215 116.841 282.374C116.651 260.21 110.505 232.43 126.588 217.161C147.261 197.533 186.426 213.359 208.514 195.339C222.327 184.07 213.242 160.416 217.389 143.084Z" stroke="black" stroke-width="0.845"/>
<path opacity="0.564103" fill-rule="evenodd" clip-rule="evenodd" d="M221.275 140.635C229.912 109.395 219.289 58.0048 250.35 48.712C280.032 39.8321 286.918 106.078 317.337 111.895C345.88 117.354 372.383 60.1131 396.288 76.6206C421.701 94.1697 405.219 138.14 399.232 168.448C394.697 191.404 356.393 208.352 366.055 229.654C377.253 254.34 425.151 237.866 440.77 260.022C450.876 274.357 429.209 292.75 421.729 308.628C414.33 324.336 403.115 337.661 396.612 353.76C386.683 378.34 396.446 416.45 373.097 429.02C350.961 440.938 322.359 419.832 302.524 404.416C283.824 389.882 288.271 348.511 264.856 344.894C234.695 340.234 214.449 385.695 183.928 386.094C159.922 386.408 137.022 367.128 124.386 346.732C111.834 326.47 115.3 300.164 115.928 276.33C116.51 254.173 111.338 226.196 127.944 211.497C149.29 192.603 187.878 209.786 210.582 192.548C224.78 181.768 216.526 157.811 221.275 140.635Z" stroke="black" stroke-width="0.845"/>
<path opacity="0.589744" fill-rule="evenodd" clip-rule="evenodd" d="M225.244 138.322C234.966 107.403 226.143 55.6732 257.51 47.4701C287.483 39.6315 292.053 106.077 322.251 112.953C350.585 119.404 379.07 63.1231 402.384 80.4548C427.169 98.8802 409.163 142.248 402.122 172.329C396.788 195.113 357.916 210.714 366.829 232.339C377.159 257.402 425.603 242.61 440.439 265.296C450.038 279.976 427.742 297.602 419.713 313.209C411.77 328.649 400.098 341.574 393.037 357.437C382.256 381.656 390.682 420.082 366.909 431.83C344.37 442.968 316.522 420.877 297.237 404.778C279.056 389.601 284.944 348.41 261.67 343.978C231.69 338.268 209.869 382.995 179.353 382.329C155.351 381.805 133.138 361.737 121.222 340.912C109.384 320.225 113.767 294.055 115.225 270.259C116.581 248.135 112.388 219.994 129.497 205.884C151.489 187.746 189.454 206.265 212.746 189.83C227.312 179.552 219.899 155.322 225.244 138.322Z" stroke="black" stroke-width="0.845"/>
<path opacity="0.615385" fill-rule="evenodd" clip-rule="evenodd" d="M229.291 136.149C240.087 105.588 233.074 53.5821 264.708 46.4787C294.936 39.6909 297.185 106.256 327.124 114.181C355.217 121.617 385.648 66.3645 408.343 84.4993C432.47 103.778 412.962 146.492 404.874 176.308C398.749 198.892 359.356 213.127 367.509 235.051C376.957 260.458 425.888 247.366 439.923 270.556C449.005 285.562 426.107 302.399 417.538 317.716C409.061 332.87 396.945 345.38 389.335 360.986C377.715 384.814 384.795 423.511 360.627 434.423C337.713 444.767 310.653 421.718 291.942 404.955C274.301 389.153 281.623 348.193 258.518 342.951C228.755 336.199 205.387 380.136 174.913 378.406C150.943 377.044 129.444 356.214 118.262 334.986C107.154 313.898 112.447 287.897 114.735 264.166C116.862 242.103 113.653 213.833 131.245 200.328C153.856 182.969 191.152 202.802 215.003 187.19C229.919 177.426 223.356 152.952 229.291 136.149Z" stroke="black" stroke-width="0.845"/>
<path opacity="0.641026" fill-rule="evenodd" clip-rule="evenodd" d="M233.412 134.119C245.268 103.953 240.075 51.734 271.937 45.7389C302.384 40.0102 302.308 106.613 331.952 115.578C359.768 123.99 392.109 69.8334 414.157 88.7492C437.597 108.859 416.61 150.865 407.487 180.381C400.577 202.738 360.711 215.589 368.094 237.784C376.65 263.506 426.008 252.129 439.225 275.795C447.778 291.109 424.306 307.136 415.208 322.145C406.207 336.994 393.662 349.073 385.511 364.404C373.067 387.812 378.793 426.733 354.258 436.794C330.997 446.333 304.758 422.353 286.643 404.948C269.565 388.539 278.312 347.859 255.404 341.814C225.895 334.028 201.007 377.123 170.612 374.33C146.705 372.133 125.946 350.565 115.511 328.959C105.146 307.497 111.343 281.697 114.458 258.059C117.354 236.084 115.134 207.72 133.186 194.837C156.389 178.278 192.97 199.4 217.351 184.63C232.599 175.393 226.894 150.704 233.412 134.119Z" stroke="black" stroke-width="0.845"/>
<path opacity="0.666667" fill-rule="evenodd" clip-rule="evenodd" d="M237.601 132.234C250.503 102.5 247.135 50.1315 279.187 45.2521C309.815 40.5894 307.415 107.149 336.729 117.143C364.234 126.521 398.445 73.5258 419.82 93.1995C442.543 114.115 420.103 155.363 409.956 184.543C402.27 206.644 361.98 218.097 368.583 240.536C376.237 266.541 425.961 256.893 438.345 281.006C446.358 296.609 422.341 311.808 412.725 326.49C403.211 341.015 390.252 352.65 381.571 367.687C368.318 390.646 372.681 429.743 347.811 438.942C324.231 447.663 298.845 422.782 281.348 404.755C264.853 387.761 275.015 347.411 252.331 340.57C223.112 331.758 196.736 373.959 166.457 370.107C142.641 367.077 122.647 344.797 112.973 322.841C103.362 301.029 110.456 275.461 114.394 251.947C118.055 230.087 116.826 201.662 135.317 189.417C159.084 173.678 194.906 196.064 219.788 182.153C235.348 173.454 230.508 148.581 237.601 132.234Z" stroke="black" stroke-width="0.845"/>
<path opacity="0.692308" fill-rule="evenodd" clip-rule="evenodd" d="M241.853 130.496C255.784 101.231 254.247 48.777 286.449 45.0191C317.222 41.4282 312.5 107.863 341.447 118.874C368.608 129.206 404.648 77.4376 425.323 97.8453C447.303 119.541 423.437 159.981 412.277 188.789C403.825 210.609 363.159 220.648 368.976 243.303C375.717 269.56 425.748 261.653 437.282 286.184C444.746 302.057 420.214 316.408 410.091 330.746C400.076 344.931 386.718 356.105 377.518 370.831C363.472 393.313 366.468 432.539 341.292 440.864C317.422 448.757 292.919 423.005 276.063 404.379C260.171 386.819 271.734 346.848 249.304 339.22C220.41 329.394 192.577 370.648 162.45 365.742C138.755 361.882 119.551 338.919 110.648 316.638C101.805 294.504 109.787 269.199 114.543 245.837C118.965 224.118 118.729 195.667 137.636 184.075C161.938 169.175 196.956 192.798 222.309 179.764C238.163 171.613 234.194 146.587 241.853 130.496Z" stroke="black" stroke-width="0.845"/>
<path opacity="0.717949" fill-rule="evenodd" clip-rule="evenodd" d="M246.164 128.908C261.108 100.146 261.402 47.6705 293.716 45.0388C324.595 42.524 317.558 108.754 346.102 120.768C372.886 132.042 410.711 81.5627 430.662 102.679C451.871 125.129 426.608 164.711 414.45 193.112C405.241 214.624 364.25 223.238 369.272 246.083C375.093 272.558 425.369 266.403 436.04 291.321C442.945 307.445 417.927 320.931 407.31 334.907C396.806 348.733 383.067 359.435 373.359 373.83C358.536 395.809 360.162 435.115 334.71 442.557C310.579 449.612 286.991 423.02 270.794 403.817C255.525 385.713 268.476 346.171 246.325 337.764C217.792 326.936 188.536 367.193 158.599 361.238C135.053 356.555 116.662 332.935 108.543 310.357C100.477 287.928 109.337 262.917 114.906 239.735C120.083 218.183 120.84 189.742 140.14 178.817C164.947 164.774 199.12 189.604 224.912 177.463C241.041 169.87 237.948 144.721 246.164 128.908Z" stroke="black" stroke-width="0.845"/>
<path opacity="0.74359" fill-rule="evenodd" clip-rule="evenodd" d="M250.527 127.471C266.465 99.2481 268.59 46.8148 300.977 45.3124C331.925 43.8768 322.58 109.821 350.689 122.824C377.063 135.026 416.626 85.8971 435.827 107.697C456.24 130.873 429.611 169.55 416.469 197.509C406.515 218.686 365.249 225.864 369.471 248.871C374.364 275.533 424.825 271.136 434.62 296.412C440.958 312.767 415.484 325.372 404.386 338.968C393.406 352.42 379.301 362.635 369.096 376.683C353.516 398.131 353.769 437.47 328.073 444.019C303.711 450.227 281.064 422.829 265.548 403.072C250.92 384.446 265.243 345.38 243.399 336.206C215.261 324.388 184.618 363.6 154.907 356.604C131.539 351.101 113.983 326.854 106.657 304.006C99.3793 281.31 109.107 256.623 115.481 233.65C121.407 212.292 123.156 183.894 142.825 173.649C168.108 160.48 201.393 186.488 227.593 175.255C243.977 168.23 241.764 142.987 250.527 127.471Z" stroke="black" stroke-width="0.845"/>
<path opacity="0.769231" fill-rule="evenodd" clip-rule="evenodd" d="M254.938 126.187C271.851 98.5375 275.805 46.2103 308.224 45.8391C339.203 45.4845 327.563 111.062 355.2 125.039C381.133 138.153 422.387 90.4352 440.815 112.892C460.407 136.766 432.444 174.49 418.335 201.974C407.647 222.791 366.156 228.524 369.572 251.664C373.532 278.481 424.115 275.847 433.022 301.45C438.786 318.016 412.888 329.724 401.321 342.925C389.879 355.985 375.426 365.702 364.738 379.385C348.418 400.277 347.298 439.6 321.389 445.248C296.825 450.603 275.149 422.431 260.331 402.145C246.362 383.02 262.04 344.477 240.53 334.546C212.821 321.753 180.828 359.872 151.38 351.843C128.217 345.528 111.519 320.683 104.994 297.594C98.5132 274.657 109.096 250.325 116.268 227.588C122.936 206.45 125.675 178.13 145.69 168.578C171.417 156.3 203.774 183.453 230.35 173.141C246.969 166.692 245.639 141.388 254.938 126.187Z" stroke="black" stroke-width="0.845"/>
<path opacity="0.794872" fill-rule="evenodd" clip-rule="evenodd" d="M259.391 125.058C277.259 98.0156 283.036 45.8583 315.449 46.6188C346.422 47.3454 332.5 112.477 359.632 127.409C385.091 141.421 427.986 95.1719 445.619 118.258C464.366 142.802 435.103 179.527 420.043 206.501C408.636 226.932 366.969 231.214 369.576 254.459C372.598 281.398 423.242 280.532 431.25 306.429C436.432 323.186 410.141 333.983 398.121 346.773C386.23 359.425 371.447 368.632 360.287 381.934C343.248 402.243 340.757 441.504 314.666 446.244C289.931 450.738 269.25 421.827 255.15 401.036C241.857 381.435 258.871 343.463 237.72 332.787C210.475 319.035 177.171 356.014 148.021 346.963C125.093 339.843 109.271 314.43 103.557 291.127C97.88 267.979 109.306 244.031 117.267 221.558C124.669 200.665 128.394 172.459 148.73 163.611C174.87 152.238 206.26 180.504 233.179 171.125C250.014 165.26 249.567 139.925 259.391 125.058Z" stroke="black" stroke-width="0.845"/>
<path opacity="0.820513" fill-rule="evenodd" clip-rule="evenodd" d="M263.88 124.084C282.681 97.6824 290.275 45.7584 322.642 47.6496C353.57 49.4568 337.384 114.063 363.979 129.933C388.933 144.824 433.415 100.101 450.233 123.789C468.111 148.971 437.585 184.653 421.592 211.085C409.479 231.106 367.689 233.931 369.483 257.252C371.562 284.28 422.206 285.182 429.305 311.343C433.899 328.271 407.248 338.144 394.788 350.506C382.463 362.736 367.368 371.421 355.75 384.325C338.013 404.027 334.153 443.177 307.913 447.004C283.035 450.632 263.377 421.017 250.011 399.746C237.409 379.693 255.738 342.338 234.973 330.931C208.224 316.237 173.65 352.031 144.834 341.967C122.168 334.052 107.243 308.102 102.345 284.614C97.48 261.282 109.735 237.747 118.475 215.566C126.601 194.944 131.309 166.885 151.942 158.752C178.462 148.298 208.846 177.643 236.077 169.209C253.106 163.935 253.543 138.6 263.88 124.084Z" stroke="black" stroke-width="0.845"/>
<path opacity="0.846154" fill-rule="evenodd" clip-rule="evenodd" d="M268.401 123.269C288.112 97.5392 297.514 45.9119 329.794 48.9315C360.641 51.817 342.21 115.819 368.235 132.608C392.654 148.361 438.67 105.217 454.65 129.477C471.639 155.268 439.886 189.862 422.981 215.72C410.176 235.306 368.313 236.671 369.292 260.041C370.426 287.125 421.008 289.794 427.19 316.187C431.19 333.265 404.211 342.201 391.328 354.121C378.583 365.913 363.194 374.067 351.133 386.557C332.719 405.629 327.495 444.62 301.137 447.529C276.148 450.286 257.535 420.003 244.92 398.279C233.026 377.798 252.647 341.106 232.292 328.98C206.073 313.362 170.271 347.928 141.823 336.865C119.447 328.163 105.438 301.708 101.362 278.063C97.3142 254.575 110.383 231.483 119.892 209.62C128.733 189.294 134.417 161.417 155.321 154.009C182.19 144.487 211.532 174.874 239.04 167.396C256.243 162.72 257.564 137.415 268.401 123.269Z" stroke="black" stroke-width="0.845"/>
<path opacity="0.871795" fill-rule="evenodd" clip-rule="evenodd" d="M272.947 122.611C293.544 97.585 304.742 46.3173 336.897 50.4616C367.624 54.4218 346.971 117.741 372.394 135.428C396.248 152.024 443.742 110.512 458.866 135.315C474.944 161.684 442.003 195.149 424.206 220.401C410.726 239.528 368.84 239.431 369.003 262.821C369.192 289.928 419.649 294.36 424.906 320.953C428.308 338.16 401.033 346.15 387.742 357.613C374.593 368.953 358.929 376.565 346.44 388.627C327.371 407.043 320.789 445.829 294.347 447.816C269.277 449.7 251.732 418.785 239.882 396.634C228.71 375.751 249.6 339.765 229.681 326.937C204.023 310.413 167.036 343.708 138.991 331.659C116.933 322.182 103.855 295.255 100.608 271.482C97.3816 247.867 111.248 225.244 121.515 203.727C131.06 183.722 137.713 156.06 158.863 149.386C186.048 140.807 214.311 172.2 242.064 165.687C259.419 161.614 261.623 136.37 272.947 122.611Z" stroke="black" stroke-width="0.845"/>
<path opacity="0.897436" fill-rule="evenodd" clip-rule="evenodd" d="M277.513 122.113C298.971 97.8207 311.951 46.975 343.943 52.239C374.513 57.2692 351.662 119.829 376.452 138.393C399.713 155.811 448.627 115.982 462.876 141.298C478.024 168.211 443.935 200.506 425.268 225.122C411.128 243.767 369.271 242.208 368.618 265.59C367.86 292.687 418.133 298.877 422.458 325.637C425.257 342.952 397.72 349.986 384.037 360.978C370.5 371.852 354.58 378.912 341.678 390.531C321.978 408.271 314.047 446.803 287.551 447.866C262.43 448.874 245.975 417.366 234.905 394.815C224.469 373.555 246.602 338.32 227.143 324.804C202.077 307.395 163.951 339.379 136.344 326.359C114.63 316.117 102.5 288.75 100.084 264.878C97.6838 241.165 112.331 219.04 123.343 197.894C133.58 178.235 141.195 150.821 162.565 144.89C190.032 137.265 217.183 169.625 245.146 164.084C262.633 160.619 265.716 135.468 277.513 122.113Z" stroke="black" stroke-width="0.845"/>
<path opacity="0.923077" fill-rule="evenodd" clip-rule="evenodd" d="M282.095 121.774C304.388 98.2459 319.134 47.8841 350.922 54.2614C381.298 60.3554 356.278 122.08 380.405 141.497C403.044 159.717 453.318 121.619 466.675 147.417C480.874 174.842 445.679 205.928 426.164 229.877C411.382 248.017 369.605 244.999 368.136 268.343C366.434 295.397 416.459 303.339 419.849 330.233C422.042 347.636 394.276 353.703 380.217 364.211C366.309 374.607 350.152 381.107 336.852 392.268C316.546 409.31 307.274 447.542 280.757 447.68C255.617 447.81 240.271 415.747 229.995 392.823C220.308 371.212 243.657 336.771 224.681 322.585C200.238 304.311 161.019 334.945 133.883 320.969C112.54 309.976 101.372 282.202 99.7907 258.261C98.2199 234.478 113.631 212.878 125.373 192.129C136.29 172.839 144.858 145.708 166.421 140.526C194.138 133.864 220.143 167.152 248.282 162.591C265.879 159.738 269.838 134.71 282.095 121.774Z" stroke="black" stroke-width="0.845"/>
<path opacity="0.948718" fill-rule="evenodd" clip-rule="evenodd" d="M286.685 121.595C309.786 98.8593 326.281 49.0428 357.827 56.5257C387.972 63.676 360.813 124.49 384.248 144.737C406.237 163.736 457.809 127.415 470.258 153.664C483.492 181.568 447.233 211.407 426.894 234.66C411.488 252.274 369.842 247.799 367.559 271.078C364.913 298.056 414.631 307.738 417.08 334.735C418.664 352.203 390.703 357.298 376.287 367.309C362.025 377.213 345.651 383.145 331.969 393.836C311.08 410.158 300.48 448.043 273.975 447.255C248.845 446.508 234.628 413.929 225.158 390.661C216.231 368.725 240.767 335.12 222.298 320.28C198.508 301.164 158.243 330.411 131.612 315.496C110.665 303.765 100.474 275.618 99.7289 251.636C98.989 227.813 115.144 206.764 127.604 186.438C139.187 167.54 148.696 140.725 170.428 136.298C198.36 130.608 223.187 164.783 251.469 161.207C269.155 158.97 273.985 134.096 286.685 121.595Z" stroke="black" stroke-width="0.845"/>
<path opacity="0.974359" fill-rule="evenodd" clip-rule="evenodd" d="M291.279 121.577C315.158 99.6612 333.382 50.4508 364.648 59.03C394.525 67.2281 365.26 127.057 387.974 148.11C409.287 167.864 462.096 133.366 473.62 160.033C485.872 188.382 448.595 216.937 427.456 239.467C411.445 256.532 369.98 250.606 366.886 273.791C363.301 300.661 412.651 312.072 414.156 339.138C415.129 356.651 387.008 360.767 372.251 370.268C357.652 379.668 341.08 385.026 327.034 395.232C305.588 410.816 293.672 448.308 267.211 446.595C242.122 444.972 229.051 411.916 220.399 388.332C212.242 366.097 237.937 333.369 219.997 317.893C196.888 297.959 155.628 325.783 129.533 309.948C109.009 297.493 99.8054 269.007 99.898 245.014C99.99 221.18 116.87 200.708 130.031 180.828C142.267 162.346 152.706 135.879 174.579 132.214C202.693 127.502 226.312 162.523 254.701 159.935C272.454 158.317 278.15 133.627 291.279 121.577Z" stroke="black" stroke-width="0.845"/>
<path fill-rule="evenodd" clip-rule="evenodd" d="M295.871 121.719C320.501 100.65 340.431 52.1054 371.378 61.7705C400.951 71.0063 369.616 129.777 391.581 151.61C412.192 172.096 466.172 139.462 476.759 166.515C488.014 195.275 449.763 222.511 427.851 244.289C411.254 260.785 370.021 253.416 366.12 276.479C361.599 303.207 410.521 316.334 411.08 343.435C411.442 360.972 383.194 364.104 368.114 373.085C353.196 381.969 336.448 386.745 322.054 396.455C300.077 411.281 286.86 448.334 260.474 445.699C235.458 443.201 223.548 409.709 215.725 385.837C208.349 363.332 235.17 331.52 217.781 315.428C195.382 294.699 153.176 321.066 127.65 304.33C107.572 291.167 99.3688 262.377 100.299 238.402C101.222 214.585 118.807 194.714 132.654 175.306C145.527 157.263 156.884 131.176 178.871 128.276C207.132 124.549 229.515 160.373 257.977 158.777C275.776 157.78 282.329 133.303 295.871 121.719Z" stroke="black" stroke-width="0.845"/>
</g>
<defs>
<clipPath id="clip0_1424_215">
<rect width="578.825" height="507" fill="white"/>
</clipPath>
</defs>
</svg>
