<?xml version="1.0" encoding="utf-8"?>
<!-- Generator: Adobe Illustrator 21.0.0, SVG Export Plug-In . SVG Version: 6.00 Build 0)  -->
<svg version="1.1" id="Layer_1" xmlns="http://www.w3.org/2000/svg" xmlns:xlink="http://www.w3.org/1999/xlink" x="0px" y="0px"
	 viewBox="0 0 178 178" style="enable-background:new 0 0 178 178;" xml:space="preserve">
<style type="text/css">
	.st0{fill:url(#SVGID_1_);}
</style>
<g>
	<radialGradient id="SVGID_1_" cx="92.0449" cy="115.1942" r="75.0371" fx="74.7416" fy="105.235" gradientUnits="userSpaceOnUse">
		<stop  offset="0" style="stop-color:#FFFFFF"/>
		<stop  offset="1" style="stop-color:#000000;stop-opacity:0.8"/>
	</radialGradient>
	<path class="st0" d="M174.1,89l-7.1,3.7c-6.6,3-20,9.4-33.3,22.3c-2.6,2.5-5.2,5.3-7.9,8.1c-10.7,11.4-21.4,22.8-32.1,17.6
		c-6.6-3.2-13.3-12.9-20-22.5c-6.7-9.7-13.3-19.3-20-22.5c-13.3-6.4-26.7,12.9-33.3,22.8l-7.1,9.5c14.1,27.4,42.7,46.1,75.6,46.1
		C136,174.1,174.1,136,174.1,89z"/>
</g>
<path d="M106.4,5.7c5.8,1.2,11.6,3.1,17.2,5.6c3.9,1.7,7.6,3.7,11,5.9c21.4,13.6,35.1,35.7,38.6,59.7c0.6,4,0.9,8,0.9,12.1l-0.6,0.3
	c0-0.1,0-0.2,0-0.3c0-46.7-37.8-84.5-84.5-84.5C42.3,4.5,4.5,42.3,4.5,89c0,13.9,3.3,26.9,9.2,38.5l-0.4,0.5
	c-0.2-0.3-0.3-0.6-0.5-0.9C6.7,114.2,4.5,101.2,4,93.5c-0.1-1.2-0.1-2.4-0.1-3.6c0-0.3,0-0.6,0-0.9c0-6.1,0.6-12,1.8-17.7
	c1.2-5.7,3-11.4,5.5-16.9c1.7-3.8,3.6-7.4,5.8-10.9C30.7,22,52.9,8.2,77,4.8c3.9-0.5,7.9-0.8,12-0.8C95,3.9,100.8,4.6,106.4,5.7z
	 M171.8,90.2c0.3-26-11.5-51.7-34.1-68.2C100.7-4.9,48.9,3.3,22,40.3C3.2,66.2,1.5,99.2,14.8,126l0.3-0.4C2.1,99,3.8,66.2,22.4,40.6
	c26.7-36.8,78.2-44.9,115-18.2c22.6,16.4,34.4,42.1,33.9,68L171.8,90.2z M169.3,91.5c0.6-20-6.2-40.2-20.6-56.2
	C119,2.2,68.2-0.4,35.2,29.3C8.1,53.7,1.5,92.4,16.5,123.7l0.3-0.4C2,92.2,8.7,53.9,35.6,29.6c32.8-29.5,83.3-26.9,112.8,5.9
	c14.4,16,21.2,36.2,20.5,56.2L169.3,91.5z M166.8,92.8c0.7-14.4-2.6-29.3-10.4-42.7C135,12.8,87.3,0,50,21.5
	c-35.1,20.3-48.5,63.8-31.9,100l0.3-0.5C2.2,85.2,15.5,42.1,50.3,22c37-21.4,84.4-8.7,105.7,28.3c7.8,13.4,11,28.3,10.3,42.7
	C166.5,92.9,166.7,92.8,166.8,92.8z M164.3,93.9c0.6-9.3-0.5-18.8-3.6-28.2c-12.9-39.6-55.4-61.3-95.1-48.4
	C26.1,30.1,4.4,72.7,17.3,112.3c0.8,2.4,1.6,4.7,2.6,6.9l0.3-0.5c-0.9-2.1-1.8-4.3-2.5-6.6C4.9,72.8,26.5,30.5,65.8,17.7
	c39.4-12.8,81.6,8.8,94.4,48.1c3.1,9.4,4.2,19,3.5,28.3C164,94.1,164.1,94,164.3,93.9z M161.7,95.2c0.4-4.5,0.3-9.1-0.2-13.8
	c-4.2-40.1-40.1-69.2-80.2-64.9c-40.1,4.2-69.2,40.1-64.9,80.2c0.7,7.1,2.5,13.9,5.1,20.2c0.1-0.2,0.2-0.3,0.3-0.5
	c-2.5-6.2-4.2-12.8-4.9-19.8c-4.2-39.8,24.7-75.5,64.5-79.7c39.8-4.2,75.5,24.7,79.7,64.5c0.5,4.7,0.5,9.4,0.1,14
	C161.4,95.3,161.6,95.2,161.7,95.2z M159.1,96.5c0,0,0-0.1,0-0.1c4.1-38.7-24-73.4-62.8-77.5c-38.7-4.1-73.4,24-77.5,62.8
	c-1.2,11.5,0.4,22.7,4.3,32.8c0.1-0.2,0.2-0.3,0.3-0.5c-3.8-9.9-5.4-20.9-4.2-32.2c4-38.5,38.5-66.4,77-62.3
	c38.5,4,66.4,38.5,62.3,77c0,0.2,0,0.3-0.1,0.5C158.8,96.7,158.9,96.6,159.1,96.5z M156.5,98c4.3-31.9-14.7-63.4-46.4-73.7
	C74.3,12.7,35.9,32.2,24.3,68c-4.8,14.9-4.3,30.3,0.7,44c0.1-0.2,0.2-0.3,0.4-0.5C20.5,98,20,82.8,24.8,68.1
	c11.5-35.5,49.6-54.9,85.1-43.4c31.6,10.3,50.5,41.7,46.1,73.5C156.1,98.2,156.3,98.1,156.5,98z M153.7,99.5
	c4.2-26.1-7.7-53.3-32-67.3c-31.4-18.1-71.5-7.4-89.6,24c-9.7,16.9-11.1,36.3-5.5,53.4c0.1-0.2,0.2-0.3,0.4-0.5
	c-5.5-16.9-4.1-36,5.5-52.7c18-31.1,57.8-41.8,88.9-23.8c24.2,14,36.1,41.2,31.6,67.2C153.4,99.8,153.6,99.7,153.7,99.5z
	 M150.9,101.3c4.2-21.1-2.5-43.8-19.7-59.2c-25.9-23.3-65.8-21.2-89.1,4.7c-15.3,17-19.7,40.1-13.5,60.5c0.1-0.2,0.3-0.3,0.4-0.5
	c-6-20.2-1.6-42.9,13.5-59.7c23.1-25.7,62.7-27.8,88.4-4.6c17.1,15.4,23.8,38.2,19.4,59.2C150.5,101.5,150.7,101.4,150.9,101.3z
	 M147.9,103.3c4-16.7,1-34.9-9.9-49.9c-19.7-27.1-57.6-33.1-84.7-13.4c-21,15.3-29.3,41.5-22.8,65.1c0.1-0.1,0.3-0.3,0.4-0.4
	c-6.3-23.4,2-49.2,22.7-64.3c26.9-19.5,64.5-13.6,84,13.3c10.9,15,13.9,33.4,9.7,50C147.5,103.6,147.7,103.4,147.9,103.3z
	 M144.8,105.5c3.8-12.8,3.2-27-2.6-40.2C129.1,36,94.7,22.8,65.3,35.8C39.2,47.5,25.8,76.1,32.5,103c0.1-0.1,0.3-0.3,0.4-0.4
	C26.5,76,39.7,47.8,65.5,36.3c29.1-13,63.2,0.1,76.2,29.2c5.9,13.3,6.4,27.6,2.4,40.5C144.3,105.8,144.6,105.7,144.8,105.5z
	 M141.3,108.2c3.5-9.5,4.5-20.1,2.2-30.8c-6.4-30.1-36-49.3-66.1-42.9c-30.1,6.4-49.3,36-42.9,66.1c0,0.1,0.1,0.3,0.1,0.4
	c0.1-0.1,0.3-0.3,0.4-0.4c0,0,0-0.1,0-0.1C28.6,70.6,47.7,41.3,77.5,35c29.8-6.3,59.2,12.7,65.5,42.5c2.3,10.9,1.3,21.7-2.5,31.3
	C140.8,108.6,141.1,108.4,141.3,108.2z M137.2,111.7c3.2-6.9,5.1-14.6,5.1-22.7c0-29.4-23.8-53.3-53.3-53.3
	c-29.4,0-53.3,23.8-53.3,53.3c0,3.5,0.3,6.9,1,10.2c0.1-0.1,0.3-0.2,0.4-0.3c-0.6-3.2-0.9-6.5-0.9-9.8c0-29.1,23.6-52.8,52.8-52.8
	c29.1,0,52.8,23.6,52.8,52.8c0,8.5-2,16.5-5.5,23.5C136.6,112.2,136.9,112,137.2,111.7z M130.9,117.7c3.6-5.3,6.3-11.4,7.7-18.1
	c5.8-27.4-11.7-54.4-39.1-60.2C72.1,33.5,45.2,51,39.3,78.4c-1.4,6.5-1.5,13-0.4,19.1c0.2-0.1,0.3-0.2,0.5-0.3
	c-1-6-0.9-12.4,0.4-18.7C45.6,51.4,72.3,34,99.5,39.8c27.2,5.8,44.5,32.5,38.7,59.7c-1.7,8-5.2,15.1-9.9,21
	C129.1,119.5,130,118.6,130.9,117.7z M122.7,126.3c-1,1.1-2.1,2.2-3.1,3.2c-7.9,6-17.5,9.6-27.7,10.2c-0.2-0.1-0.5-0.3-0.7-0.5
	C103.1,138.7,114.2,134,122.7,126.3z M88.8,137.3c18.6,0.1,36.3-10.6,44.3-28.7c10.9-24.4-0.1-52.9-24.5-63.8
	C84.3,34,55.7,45,44.9,69.3c-3.9,8.8-5,18.1-3.6,26.9c0.2-0.1,0.3-0.2,0.5-0.2c-1.3-8.7-0.2-17.8,3.6-26.5
	c10.7-24.1,39-35,63.1-24.2c24.1,10.7,35,39,24.2,63.1c-8,18-25.8,28.6-44.4,28.4C88.5,137,88.7,137.2,88.8,137.3z M86.3,134.8
	c15.1,0.9,30.3-5.7,39.8-18.8C141,95.5,136.4,66.8,116,51.9C95.5,37,66.8,41.6,51.9,62c-7.2,10-9.9,21.9-8.3,33.2
	c0.2-0.1,0.3-0.1,0.5-0.2c-1.5-11.2,1.1-22.9,8.3-32.7c14.7-20.3,43.1-24.8,63.4-10c20.3,14.7,24.8,43.1,10,63.4
	c-9.5,13.1-24.8,19.7-39.9,18.6C85.9,134.4,86.1,134.6,86.3,134.8z M83.9,132.1c12,1.4,24.5-2.1,34.1-10.8
	c17.8-16,19.2-43.5,3.2-61.3S77.8,40.7,60,56.8c-11,9.9-15.8,24.2-14,37.8c0.2,0,0.3-0.1,0.5-0.1c-1.7-13.5,3-27.6,13.8-37.4
	c17.6-15.9,44.7-14.4,60.6,3.2s14.4,44.7-3.2,60.6c-9.7,8.7-22.3,12.2-34.3,10.7C83.6,131.7,83.7,131.9,83.9,132.1z M81.6,129.3
	c9.2,1.7,19.1,0.2,27.8-4.8c19.6-11.3,26.3-36.3,15-55.9s-36.3-26.3-55.9-15c-14.8,8.5-22.2,24.9-20.1,40.8c0.2,0,0.3,0,0.5,0
	c-2.1-15.8,5.2-32,19.9-40.4c19.3-11.2,44.1-4.5,55.2,14.8c11.2,19.3,4.5,44.1-14.8,55.2c-8.8,5.1-18.8,6.5-28,4.7
	C81.3,128.9,81.5,129.1,81.6,129.3z M79.4,126.2c6.9,1.8,14.3,1.7,21.5-0.7c20.2-6.6,31.3-28.3,24.7-48.5
	C119,56.9,97.3,45.9,77.1,52.4C59,58.3,48.2,76.4,51,94.7c0.2,0,0.3,0.1,0.5,0.1c-2.8-18.1,7.8-36.1,25.8-41.9
	c19.9-6.5,41.4,4.4,47.8,24.4c6.5,19.9-4.4,41.4-24.4,47.8c-7.3,2.4-14.9,2.4-21.8,0.5C79.1,125.8,79.2,126,79.4,126.2z M77,122.9
	c4.9,1.7,10.2,2.4,15.8,1.8c19.8-2.1,34.1-19.8,32-39.6c-2.1-19.8-19.8-34.1-39.6-32c-19.8,2.1-34.1,19.8-32,39.6
	c0.1,1,0.2,1.9,0.4,2.9c0,0,0.1,0,0.1,0.1c0.1,0.1,0.3,0.1,0.4,0.2c-0.2-1-0.4-2.1-0.5-3.2c-2-19.5,12.1-37,31.6-39
	c19.5-2,37,12.1,39,31.6c2.1,19.5-12.1,37-31.6,39c-5.7,0.6-11.2-0.2-16.2-2.1C76.7,122.5,76.8,122.7,77,122.9z M74.4,119.2
	c3.4,1.6,7.1,2.7,11.1,3.2c18.4,1.9,34.9-11.4,36.8-29.8c1.9-18.4-11.4-34.9-29.8-36.9c-18.4-1.9-34.9,11.4-36.9,29.8
	c-0.4,4.1-0.1,8.1,0.9,11.9c0.2,0.2,0.4,0.3,0.6,0.5c-1.1-3.9-1.5-8.1-1-12.3c1.9-18.1,18.2-31.3,36.3-29.4
	c18.1,1.9,31.3,18.2,29.4,36.3c-1.9,18.1-18.2,31.3-36.3,29.4c-4.2-0.4-8.2-1.7-11.7-3.5C74,118.6,74.2,118.9,74.4,119.2z
	 M71.1,114.4c2.5,1.8,5.3,3.2,8.4,4.2c16.3,5.3,33.8-3.6,39.1-19.9c5.3-16.3-3.6-33.8-19.9-39.1s-33.8,3.6-39.1,19.9
	c-2.3,7.2-1.9,14.7,0.7,21.2c0.3,0.3,0.6,0.7,1,1c-3-6.7-3.7-14.5-1.2-22c5.2-16.1,22.5-24.8,38.5-19.6
	c16.1,5.2,24.8,22.5,19.6,38.5c-5.2,16.1-22.5,24.8-38.5,19.6c-3.5-1.1-6.7-2.9-9.4-5C70.4,113.5,70.7,113.9,71.1,114.4z
	 M95.3,141.4c5.9-0.7,11.4-2.4,16.5-4.8c-0.7,0.5-1.3,1-2,1.4c-4.2,1.8-8.7,3.1-13.3,3.7C96.1,141.6,95.7,141.5,95.3,141.4z
	 M64.2,74.7c-7.9,13.7-3.2,31.2,10.5,39.1c13.7,7.9,31.2,3.2,39.1-10.5c7.9-13.7,3.2-31.2-10.5-39.1C89.6,56.3,72.1,61,64.2,74.7z
	 M74.9,113.3c-13.4-7.8-18-25-10.3-38.4c7.8-13.4,24.9-18,38.4-10.3c13.4,7.8,18,25,10.3,38.4C105.6,116.5,88.4,121.1,74.9,113.3z
	 M71.5,108.4c-10.7-9.7-11.6-26.2-1.9-36.9c9.7-10.7,26.2-11.6,36.9-1.9c10.7,9.7,11.6,26.2,1.9,36.9
	C98.8,117.2,82.2,118.1,71.5,108.4z M69.9,71.8c-9.5,10.5-8.6,26.7,1.9,36.2c10.5,9.5,26.7,8.6,36.2-1.9c9.5-10.5,8.6-26.7-1.9-36.2
	C95.6,60.5,79.4,61.3,69.9,71.8z M75.1,69.9c-10.6,7.7-12.9,22.5-5.2,33.1c7.7,10.6,22.5,12.9,33.1,5.2c10.6-7.7,12.9-22.5,5.2-33.1
	S85.7,62.2,75.1,69.9z M70.3,102.6c-7.5-10.4-5.2-24.8,5.1-32.4c10.4-7.5,24.8-5.2,32.4,5.1c7.5,10.4,5.2,24.8-5.1,32.4
	C92.3,115.3,77.8,113,70.3,102.6z M69.6,97.6c-4.8-10.7,0-23.2,10.7-28c10.7-4.8,23.2,0,28,10.7s0,23.2-10.7,28
	C86.9,113.1,74.4,108.3,69.6,97.6z M80.6,70.1C70.1,74.7,65.4,87,70.1,97.4c4.7,10.4,16.9,15.1,27.3,10.5
	c10.4-4.7,15.1-16.9,10.5-27.3C103.3,70.1,91,65.4,80.6,70.1z M85.1,70.7C75,72.8,68.5,82.8,70.7,92.9c2.2,10.1,12.1,16.6,22.2,14.4
	c10.1-2.2,16.6-12.1,14.4-22.2C105.2,75,95.2,68.5,85.1,70.7z M71.2,92.8c-2.1-9.9,4.2-19.5,14.1-21.6c9.9-2.1,19.5,4.2,21.6,14.1
	s-4.2,19.5-14.1,21.6C82.9,108.9,73.3,102.6,71.2,92.8z M89,72.7c-9,0-16.3,7.3-16.3,16.3S80,105.3,89,105.3S105.3,98,105.3,89
	S98,72.7,89,72.7z M73.2,89c0-8.7,7.1-15.8,15.8-15.8s15.8,7.1,15.8,15.8s-7.1,15.8-15.8,15.8S73.2,97.7,73.2,89z"/>
</svg>
