<svg width="554" height="230" viewBox="0 0 554 230" fill="none" xmlns="http://www.w3.org/2000/svg">
<g clip-path="url(#clip0_586_1833)">
<rect x="0.0467773" y="0.763936" width="298" height="298" transform="matrix(0.945541 0.325503 -0.898764 0.438433 270.345 0.413775)" fill="white"/>
<line y1="-0.5" x2="300" y2="-0.5" transform="matrix(0.945541 0.325503 -0.898764 0.438433 181.287 53.3361)" stroke="#23C865" stroke-dasharray="20 40 50 30"/>
<line y1="-0.5" x2="312" y2="-0.5" transform="matrix(0.945541 0.325503 -0.898764 0.438433 124.311 44.9395)" stroke="#23C865" stroke-dasharray="20 40 50 30"/>
<line y1="-0.5" x2="300" y2="-0.5" transform="matrix(0.945541 0.325503 -0.898764 0.438433 154.324 66.489)" stroke="#23C865" stroke-dasharray="20 40 50 30"/>
<line y1="-0.5" x2="322" y2="-0.5" transform="matrix(0.945541 0.325503 -0.898764 0.438433 97.3477 58.0924)" stroke="#23C865" stroke-dasharray="20 40 50 30"/>
<line y1="-0.5" x2="300" y2="-0.5" transform="matrix(0.945541 0.325503 -0.898764 0.438433 134.925 82.2461)" stroke="#23C865" stroke-dasharray="20 40 50 30"/>
<line y1="-0.5" x2="300" y2="-0.5" transform="matrix(0.945541 0.325503 -0.898764 0.438433 151.701 99.2386)" stroke="#23C865" stroke-dasharray="20 40 50 30"/>
<line y1="-0.5" x2="300" y2="-0.5" transform="matrix(0.945541 0.325503 -0.898764 0.438433 56.9033 77.8219)" stroke="#23C865" stroke-dasharray="20 40 50 30"/>
<line y1="-0.5" x2="300" y2="-0.5" transform="matrix(0.945541 0.325503 -0.898764 0.438433 86.917 99.3716)" stroke="#23C865" stroke-dasharray="20 40 50 30"/>
<line y1="-0.5" x2="300" y2="-0.5" transform="matrix(0.945541 0.325503 -0.898764 0.438433 37.5049 93.579)" stroke="#23C865" stroke-dasharray="20 40 50 30"/>
<line y1="-0.5" x2="272" y2="-0.5" transform="matrix(0.945541 0.325503 -0.898764 0.438433 54.2803 110.572)" stroke="#23C865" stroke-dasharray="20 40 50 30"/>
<line y1="-0.5" x2="300" y2="-0.5" transform="matrix(0.945541 0.325503 -0.898764 0.438433 32.9902 125.677)" stroke="#23C865" stroke-dasharray="20 40 50 30"/>
<line y1="-0.5" x2="300" y2="-0.5" transform="matrix(0.945541 0.325503 -0.898764 0.438433 -5.53223 101.198)" stroke="#23C865" stroke-dasharray="20 40 50 30"/>
<line y1="-0.5" x2="300" y2="-0.5" transform="matrix(0.945541 0.325503 -0.898764 0.438433 -12.6387 121.187)" stroke="#23C865" stroke-dasharray="20 40 50 30"/>
</g>
<rect x="0.0467773" y="0.763936" width="298" height="298" transform="matrix(0.945541 0.325503 -0.898764 0.438433 270.345 0.413775)" stroke="#23C865" stroke-width="2"/>
<defs>
<clipPath id="clip0_586_1833">
</clipPath>
</defs>
</svg>
