<svg width="554" height="230" viewBox="0 0 554 230" fill="none" xmlns="http://www.w3.org/2000/svg">
<g clip-path="url(#clip0_586_1847)">
<rect x="0.0514868" y="0.763633" width="298" height="298" transform="matrix(0.94753 0.319667 -0.896043 0.443967 270.343 0.408147)" fill="white"/>
<line x1="105.093" y1="36.4113" x2="556.844" y2="5.95272" stroke="#23C865"/>
<line x1="105.725" y1="45.7677" x2="557.475" y2="15.3092" stroke="#23C865"/>
<line x1="106.987" y1="64.4796" x2="558.737" y2="34.0211" stroke="#23C865"/>
<line x1="107.618" y1="73.8357" x2="559.368" y2="43.3772" stroke="#23C865"/>
<line x1="61.0209" y1="95.7746" x2="560.629" y2="62.0893" stroke="#23C865"/>
<line x1="35.8421" y1="106.871" x2="561.261" y2="71.4456" stroke="#23C865"/>
<line x1="9.44957" y1="127.447" x2="562.522" y2="90.1573" stroke="#23C865"/>
<line x1="2.70641" y1="137.301" x2="563.153" y2="99.5135" stroke="#23C865"/>
<line x1="31.6214" y1="154.148" x2="564.414" y2="118.225" stroke="#23C865"/>
<line x1="63.5931" y1="161.391" x2="565.045" y2="127.581" stroke="#23C865"/>
<line x1="114.556" y1="176.752" x2="566.307" y2="146.294" stroke="#23C865"/>
<line x1="115.187" y1="186.108" x2="566.937" y2="155.65" stroke="#23C865"/>
<line x1="116.449" y1="204.82" x2="568.199" y2="174.362" stroke="#23C865"/>
<line x1="117.079" y1="214.176" x2="568.83" y2="183.718" stroke="#23C865"/>
</g>
<rect x="0.0514868" y="0.763633" width="298" height="298" transform="matrix(0.94753 0.319667 -0.896043 0.443967 270.343 0.408147)" stroke="#23C865" stroke-width="2"/>
<defs>
<clipPath id="clip0_586_1847">
</clipPath>
</defs>
</svg>
