<svg width="555" height="230" viewBox="0 0 555 230" fill="none" xmlns="http://www.w3.org/2000/svg">
<rect x="0.0337346" y="0.764623" width="298" height="298" transform="matrix(0.939849 0.34159 -0.906114 0.423033 273.351 0.429639)" fill="white"/>
<line y1="-0.5" x2="300" y2="-0.5" transform="matrix(0.906114 -0.423033 0.939849 0.34159 8.32422 129.26)" stroke="#23C865" stroke-dasharray="10 5 20 5"/>
<line y1="-0.5" x2="259" y2="-0.5" transform="matrix(0.906114 -0.423033 0.939849 0.34159 22.4385 134.766)" stroke="#23C865" stroke-dasharray="10 5 20 5"/>
<line y1="-0.5" x2="222" y2="-0.5" transform="matrix(0.906114 -0.423033 0.939849 0.34159 36.5361 139.89)" stroke="#23C865" stroke-dasharray="10 5 20 5"/>
<line y1="-0.5" x2="222" y2="-0.5" transform="matrix(0.906114 -0.423033 0.939849 0.34159 50.6338 145.014)" stroke="#23C865" stroke-dasharray="10 5 20 5"/>
<line y1="-0.5" x2="179" y2="-0.5" transform="matrix(0.906114 -0.423033 0.939849 0.34159 107.024 165.51)" stroke="#23C865" stroke-dasharray="10 5 20 5"/>
<line y1="-0.5" x2="179" y2="-0.5" transform="matrix(0.906114 -0.423033 0.939849 0.34159 121.123 170.633)" stroke="#23C865" stroke-dasharray="10 5 20 5"/>
<line y1="-0.5" x2="233" y2="-0.5" transform="matrix(0.906114 -0.423033 0.939849 0.34159 135.221 175.757)" stroke="#23C865" stroke-dasharray="10 5 20 5"/>
<line y1="-0.5" x2="274" y2="-0.5" transform="matrix(0.906114 -0.423033 0.939849 0.34159 149.318 180.881)" stroke="#23C865" stroke-dasharray="10 5 20 5"/>
<line y1="-0.5" x2="274" y2="-0.5" transform="matrix(0.906114 -0.423033 0.939849 0.34159 163.416 186.005)" stroke="#23C865" stroke-dasharray="10 5 20 5"/>
<line y1="-0.5" x2="111" y2="-0.5" transform="matrix(0.906114 -0.423033 0.939849 0.34159 177.514 191.129)" stroke="#23C865" stroke-dasharray="10 5 20 5"/>
<line y1="-0.5" x2="241" y2="-0.5" transform="matrix(0.906114 -0.423033 0.939849 0.34159 219.807 206.5)" stroke="#23C865" stroke-dasharray="10 5 20 5"/>
<line y1="-0.5" x2="269" y2="-0.5" transform="matrix(0.906114 -0.423033 0.939849 0.34159 233.904 211.624)" stroke="#23C865" stroke-dasharray="10 5 20 5"/>
<line y1="-0.5" x2="146" y2="-0.5" transform="matrix(0.906114 -0.423033 0.939849 0.34159 262.1 221.872)" stroke="#23C865" stroke-dasharray="10 5 20 5"/>
<line y1="-0.5" x2="241" y2="-0.5" transform="matrix(0.906114 -0.423033 0.939849 0.34159 248.002 216.748)" stroke="#23C865" stroke-dasharray="10 5 20 5"/>
<line y1="-0.5" x2="300" y2="-0.5" transform="matrix(0.906114 -0.423033 0.939849 0.34159 276.181 226.614)" stroke="#23C865" stroke-dasharray="10 5 20 5"/>
<rect x="0.0337346" y="0.764623" width="298" height="298" transform="matrix(0.939849 0.34159 -0.906114 0.423033 273.351 0.429639)" stroke="#23C865" stroke-width="2"/>
</svg>
