<svg width="556" height="594" viewBox="0 0 556 594" fill="none" xmlns="http://www.w3.org/2000/svg">
<g clip-path="url(#clip0_586_1832)">
<rect x="0.0467773" y="0.763936" width="298" height="298" transform="matrix(0.945541 0.325503 -0.898764 0.438433 271.345 364.414)" fill="white"/>
<line y1="-0.5" x2="300" y2="-0.5" transform="matrix(0.945541 0.325503 -0.898764 0.438433 182.287 417.336)" stroke="#23C865" stroke-dasharray="20 40 50 30"/>
<line y1="-0.5" x2="312" y2="-0.5" transform="matrix(0.945541 0.325503 -0.898764 0.438433 125.311 408.939)" stroke="#23C865" stroke-dasharray="20 40 50 30"/>
<line y1="-0.5" x2="300" y2="-0.5" transform="matrix(0.945541 0.325503 -0.898764 0.438433 155.324 430.489)" stroke="#23C865" stroke-dasharray="20 40 50 30"/>
<line y1="-0.5" x2="322" y2="-0.5" transform="matrix(0.945541 0.325503 -0.898764 0.438433 98.3477 422.092)" stroke="#23C865" stroke-dasharray="20 40 50 30"/>
<line y1="-0.5" x2="300" y2="-0.5" transform="matrix(0.945541 0.325503 -0.898764 0.438433 135.925 446.246)" stroke="#23C865" stroke-dasharray="20 40 50 30"/>
<line y1="-0.5" x2="300" y2="-0.5" transform="matrix(0.945541 0.325503 -0.898764 0.438433 152.701 463.239)" stroke="#23C865" stroke-dasharray="20 40 50 30"/>
<line y1="-0.5" x2="300" y2="-0.5" transform="matrix(0.945541 0.325503 -0.898764 0.438433 57.9033 441.822)" stroke="#23C865" stroke-dasharray="20 40 50 30"/>
<line y1="-0.5" x2="300" y2="-0.5" transform="matrix(0.945541 0.325503 -0.898764 0.438433 87.917 463.372)" stroke="#23C865" stroke-dasharray="20 40 50 30"/>
<line y1="-0.5" x2="300" y2="-0.5" transform="matrix(0.945541 0.325503 -0.898764 0.438433 38.5049 457.579)" stroke="#23C865" stroke-dasharray="20 40 50 30"/>
<line y1="-0.5" x2="272" y2="-0.5" transform="matrix(0.945541 0.325503 -0.898764 0.438433 55.2803 474.572)" stroke="#23C865" stroke-dasharray="20 40 50 30"/>
<line y1="-0.5" x2="300" y2="-0.5" transform="matrix(0.945541 0.325503 -0.898764 0.438433 33.9902 489.677)" stroke="#23C865" stroke-dasharray="20 40 50 30"/>
<line y1="-0.5" x2="300" y2="-0.5" transform="matrix(0.945541 0.325503 -0.898764 0.438433 -4.53223 465.198)" stroke="#23C865" stroke-dasharray="20 40 50 30"/>
<line y1="-0.5" x2="300" y2="-0.5" transform="matrix(0.945541 0.325503 -0.898764 0.438433 -11.6387 485.187)" stroke="#23C865" stroke-dasharray="20 40 50 30"/>
</g>
<rect x="0.0467773" y="0.763936" width="298" height="298" transform="matrix(0.945541 0.325503 -0.898764 0.438433 271.345 364.414)" stroke="#23C865" stroke-width="2"/>
<g clip-path="url(#clip1_586_1832)">
<rect x="0.0514868" y="0.763633" width="298" height="298" transform="matrix(0.94753 0.319667 -0.896043 0.443967 270.343 242.408)" fill="white"/>
<line x1="105.093" y1="278.411" x2="556.844" y2="247.953" stroke="#23C865"/>
<line x1="105.725" y1="287.768" x2="557.475" y2="257.309" stroke="#23C865"/>
<line x1="106.987" y1="306.48" x2="558.737" y2="276.021" stroke="#23C865"/>
<line x1="107.618" y1="315.836" x2="559.368" y2="285.377" stroke="#23C865"/>
<line x1="61.0209" y1="337.775" x2="560.629" y2="304.089" stroke="#23C865"/>
<line x1="35.8421" y1="348.871" x2="561.261" y2="313.446" stroke="#23C865"/>
<line x1="9.44957" y1="369.447" x2="562.522" y2="332.157" stroke="#23C865"/>
<line x1="2.70641" y1="379.301" x2="563.153" y2="341.513" stroke="#23C865"/>
<line x1="31.6214" y1="396.148" x2="564.414" y2="360.225" stroke="#23C865"/>
<line x1="63.5931" y1="403.391" x2="565.045" y2="369.581" stroke="#23C865"/>
<line x1="114.556" y1="418.752" x2="566.307" y2="388.294" stroke="#23C865"/>
<line x1="115.187" y1="428.108" x2="566.937" y2="397.65" stroke="#23C865"/>
<line x1="116.449" y1="446.82" x2="568.199" y2="416.362" stroke="#23C865"/>
<line x1="117.079" y1="456.176" x2="568.83" y2="425.718" stroke="#23C865"/>
</g>
<rect x="0.0514868" y="0.763633" width="298" height="298" transform="matrix(0.94753 0.319667 -0.896043 0.443967 270.343 242.408)" stroke="#23C865" stroke-width="2"/>
<rect x="0.0337346" y="0.764623" width="298" height="298" transform="matrix(0.939849 0.34159 -0.906114 0.423033 273.351 119.43)" fill="white"/>
<line y1="-0.5" x2="300" y2="-0.5" transform="matrix(0.906114 -0.423033 0.939849 0.34159 8.32422 248.26)" stroke="#23C865" stroke-dasharray="10 5 20 5"/>
<line y1="-0.5" x2="259" y2="-0.5" transform="matrix(0.906114 -0.423033 0.939849 0.34159 22.4385 253.766)" stroke="#23C865" stroke-dasharray="10 5 20 5"/>
<line y1="-0.5" x2="222" y2="-0.5" transform="matrix(0.906114 -0.423033 0.939849 0.34159 36.5361 258.89)" stroke="#23C865" stroke-dasharray="10 5 20 5"/>
<line y1="-0.5" x2="222" y2="-0.5" transform="matrix(0.906114 -0.423033 0.939849 0.34159 50.6338 264.014)" stroke="#23C865" stroke-dasharray="10 5 20 5"/>
<line y1="-0.5" x2="179" y2="-0.5" transform="matrix(0.906114 -0.423033 0.939849 0.34159 107.024 284.51)" stroke="#23C865" stroke-dasharray="10 5 20 5"/>
<line y1="-0.5" x2="179" y2="-0.5" transform="matrix(0.906114 -0.423033 0.939849 0.34159 121.123 289.633)" stroke="#23C865" stroke-dasharray="10 5 20 5"/>
<line y1="-0.5" x2="233" y2="-0.5" transform="matrix(0.906114 -0.423033 0.939849 0.34159 135.221 294.757)" stroke="#23C865" stroke-dasharray="10 5 20 5"/>
<line y1="-0.5" x2="274" y2="-0.5" transform="matrix(0.906114 -0.423033 0.939849 0.34159 149.318 299.881)" stroke="#23C865" stroke-dasharray="10 5 20 5"/>
<line y1="-0.5" x2="274" y2="-0.5" transform="matrix(0.906114 -0.423033 0.939849 0.34159 163.416 305.005)" stroke="#23C865" stroke-dasharray="10 5 20 5"/>
<line y1="-0.5" x2="111" y2="-0.5" transform="matrix(0.906114 -0.423033 0.939849 0.34159 177.514 310.129)" stroke="#23C865" stroke-dasharray="10 5 20 5"/>
<line y1="-0.5" x2="241" y2="-0.5" transform="matrix(0.906114 -0.423033 0.939849 0.34159 219.807 325.5)" stroke="#23C865" stroke-dasharray="10 5 20 5"/>
<line y1="-0.5" x2="269" y2="-0.5" transform="matrix(0.906114 -0.423033 0.939849 0.34159 233.904 330.624)" stroke="#23C865" stroke-dasharray="10 5 20 5"/>
<line y1="-0.5" x2="146" y2="-0.5" transform="matrix(0.906114 -0.423033 0.939849 0.34159 262.1 340.872)" stroke="#23C865" stroke-dasharray="10 5 20 5"/>
<line y1="-0.5" x2="241" y2="-0.5" transform="matrix(0.906114 -0.423033 0.939849 0.34159 248.002 335.748)" stroke="#23C865" stroke-dasharray="10 5 20 5"/>
<line y1="-0.5" x2="300" y2="-0.5" transform="matrix(0.906114 -0.423033 0.939849 0.34159 276.181 345.614)" stroke="#23C865" stroke-dasharray="10 5 20 5"/>
<rect x="0.0337346" y="0.764623" width="298" height="298" transform="matrix(0.939849 0.34159 -0.906114 0.423033 273.351 119.43)" stroke="#23C865" stroke-width="2"/>
<rect x="0.0332157" y="0.752524" width="298" height="298" transform="matrix(0.942071 0.335413 -0.908855 0.417111 273.342 0.427497)" fill="white"/>
<line y1="-0.5" x2="300" y2="-0.5" transform="matrix(0.942071 0.335413 -0.908855 0.417111 266.294 2.9198)" stroke="#23C865"/>
<line y1="-0.5" x2="300" y2="-0.5" transform="matrix(0.942071 0.335413 -0.908855 0.417111 252.661 9.17639)" stroke="#23C865"/>
<line y1="-0.5" x2="300" y2="-0.5" transform="matrix(0.942071 0.335413 -0.908855 0.417111 239.028 15.4331)" stroke="#23C865"/>
<line y1="-0.5" x2="300" y2="-0.5" transform="matrix(0.942071 0.335413 -0.908855 0.417111 225.396 21.6898)" stroke="#23C865"/>
<line y1="-0.5" x2="300" y2="-0.5" transform="matrix(0.942071 0.335413 -0.908855 0.417111 211.763 27.9464)" stroke="#23C865"/>
<line y1="-0.5" x2="300" y2="-0.5" transform="matrix(0.942071 0.335413 -0.908855 0.417111 198.13 34.2031)" stroke="#23C865"/>
<line y1="-0.5" x2="300" y2="-0.5" transform="matrix(0.942071 0.335413 -0.908855 0.417111 184.497 40.4598)" stroke="#23C865"/>
<line y1="-0.5" x2="300" y2="-0.5" transform="matrix(0.942071 0.335413 -0.908855 0.417111 170.864 46.7164)" stroke="#23C865"/>
<line y1="-0.5" x2="300" y2="-0.5" transform="matrix(0.942071 0.335413 -0.908855 0.417111 157.231 52.9731)" stroke="#23C865"/>
<line y1="-0.5" x2="300" y2="-0.5" transform="matrix(0.942071 0.335413 -0.908855 0.417111 143.599 59.2297)" stroke="#23C865"/>
<line y1="-0.5" x2="300" y2="-0.5" transform="matrix(0.942071 0.335413 -0.908855 0.417111 129.966 65.4865)" stroke="#23C865"/>
<line y1="-0.5" x2="300" y2="-0.5" transform="matrix(0.942071 0.335413 -0.908855 0.417111 116.333 71.7432)" stroke="#23C865"/>
<line y1="-0.5" x2="300" y2="-0.5" transform="matrix(0.942071 0.335413 -0.908855 0.417111 102.7 77.9998)" stroke="#23C865"/>
<line y1="-0.5" x2="300" y2="-0.5" transform="matrix(0.942071 0.335413 -0.908855 0.417111 89.0674 84.2565)" stroke="#23C865"/>
<line y1="-0.5" x2="300" y2="-0.5" transform="matrix(0.942071 0.335413 -0.908855 0.417111 75.4346 90.5132)" stroke="#23C865"/>
<line y1="-0.5" x2="300" y2="-0.5" transform="matrix(0.942071 0.335413 -0.908855 0.417111 61.8018 96.7698)" stroke="#23C865"/>
<line y1="-0.5" x2="300" y2="-0.5" transform="matrix(0.942071 0.335413 -0.908855 0.417111 48.1689 103.026)" stroke="#23C865"/>
<line y1="-0.5" x2="300" y2="-0.5" transform="matrix(0.942071 0.335413 -0.908855 0.417111 20.9033 115.54)" stroke="#23C865"/>
<line y1="-0.5" x2="300" y2="-0.5" transform="matrix(0.942071 0.335413 -0.908855 0.417111 34.5361 109.283)" stroke="#23C865"/>
<line y1="-0.5" x2="300" y2="-0.5" transform="matrix(0.942071 0.335413 -0.908855 0.417111 7.27051 121.797)" stroke="#23C865"/>
<rect x="0.0332157" y="0.752524" width="298" height="298" transform="matrix(0.942071 0.335413 -0.908855 0.417111 273.342 0.427497)" stroke="#23C865" stroke-width="2"/>
<defs>
<clipPath id="clip0_586_1832">
</clipPath>
<clipPath id="clip1_586_1832">
</clipPath>
</defs>
</svg>
