<svg width="556" height="226" viewBox="0 0 556 226" fill="none" xmlns="http://www.w3.org/2000/svg">
<rect x="0.0332157" y="0.752524" width="298" height="298" transform="matrix(0.942071 0.335413 -0.908855 0.417111 273.342 0.427497)" fill="white"/>
<line y1="-0.5" x2="300" y2="-0.5" transform="matrix(0.942071 0.335413 -0.908855 0.417111 266.294 2.9198)" stroke="#23C865"/>
<line y1="-0.5" x2="300" y2="-0.5" transform="matrix(0.942071 0.335413 -0.908855 0.417111 252.661 9.17639)" stroke="#23C865"/>
<line y1="-0.5" x2="300" y2="-0.5" transform="matrix(0.942071 0.335413 -0.908855 0.417111 239.028 15.4331)" stroke="#23C865"/>
<line y1="-0.5" x2="300" y2="-0.5" transform="matrix(0.942071 0.335413 -0.908855 0.417111 225.396 21.6898)" stroke="#23C865"/>
<line y1="-0.5" x2="300" y2="-0.5" transform="matrix(0.942071 0.335413 -0.908855 0.417111 211.763 27.9464)" stroke="#23C865"/>
<line y1="-0.5" x2="300" y2="-0.5" transform="matrix(0.942071 0.335413 -0.908855 0.417111 198.13 34.2031)" stroke="#23C865"/>
<line y1="-0.5" x2="300" y2="-0.5" transform="matrix(0.942071 0.335413 -0.908855 0.417111 184.497 40.4598)" stroke="#23C865"/>
<line y1="-0.5" x2="300" y2="-0.5" transform="matrix(0.942071 0.335413 -0.908855 0.417111 170.864 46.7164)" stroke="#23C865"/>
<line y1="-0.5" x2="300" y2="-0.5" transform="matrix(0.942071 0.335413 -0.908855 0.417111 157.231 52.9731)" stroke="#23C865"/>
<line y1="-0.5" x2="300" y2="-0.5" transform="matrix(0.942071 0.335413 -0.908855 0.417111 143.599 59.2297)" stroke="#23C865"/>
<line y1="-0.5" x2="300" y2="-0.5" transform="matrix(0.942071 0.335413 -0.908855 0.417111 129.966 65.4865)" stroke="#23C865"/>
<line y1="-0.5" x2="300" y2="-0.5" transform="matrix(0.942071 0.335413 -0.908855 0.417111 116.333 71.7432)" stroke="#23C865"/>
<line y1="-0.5" x2="300" y2="-0.5" transform="matrix(0.942071 0.335413 -0.908855 0.417111 102.7 77.9998)" stroke="#23C865"/>
<line y1="-0.5" x2="300" y2="-0.5" transform="matrix(0.942071 0.335413 -0.908855 0.417111 89.0674 84.2565)" stroke="#23C865"/>
<line y1="-0.5" x2="300" y2="-0.5" transform="matrix(0.942071 0.335413 -0.908855 0.417111 75.4346 90.5132)" stroke="#23C865"/>
<line y1="-0.5" x2="300" y2="-0.5" transform="matrix(0.942071 0.335413 -0.908855 0.417111 61.8018 96.7698)" stroke="#23C865"/>
<line y1="-0.5" x2="300" y2="-0.5" transform="matrix(0.942071 0.335413 -0.908855 0.417111 48.1689 103.026)" stroke="#23C865"/>
<line y1="-0.5" x2="300" y2="-0.5" transform="matrix(0.942071 0.335413 -0.908855 0.417111 20.9033 115.54)" stroke="#23C865"/>
<line y1="-0.5" x2="300" y2="-0.5" transform="matrix(0.942071 0.335413 -0.908855 0.417111 34.5361 109.283)" stroke="#23C865"/>
<line y1="-0.5" x2="300" y2="-0.5" transform="matrix(0.942071 0.335413 -0.908855 0.417111 7.27051 121.797)" stroke="#23C865"/>
<rect x="0.0332157" y="0.752524" width="298" height="298" transform="matrix(0.942071 0.335413 -0.908855 0.417111 273.342 0.427497)" stroke="#23C865" stroke-width="2"/>
</svg>
