<svg width="138" height="67" viewBox="0 0 138 67" fill="none" xmlns="http://www.w3.org/2000/svg">
<path d="M59.3708 45.6L56.5868 54H54.9308L52.8548 47.784L50.7428 54H49.0748L46.2908 45.6H47.9108L49.9988 51.984L52.1708 45.6H53.6108L55.7348 52.02L57.8828 45.6H59.3708ZM60.5563 47.592H62.0563V54H60.5563V47.592ZM61.3123 46.536C61.0403 46.536 60.8123 46.452 60.6283 46.284C60.4443 46.108 60.3523 45.892 60.3523 45.636C60.3523 45.38 60.4443 45.168 60.6283 45C60.8123 44.824 61.0403 44.736 61.3123 44.736C61.5843 44.736 61.8123 44.82 61.9963 44.988C62.1803 45.148 62.2723 45.352 62.2723 45.6C62.2723 45.864 62.1803 46.088 61.9963 46.272C61.8203 46.448 61.5923 46.536 61.3123 46.536ZM67.661 47.52C68.469 47.52 69.117 47.756 69.605 48.228C70.093 48.7 70.337 49.4 70.337 50.328V54H68.837V50.52C68.837 49.96 68.705 49.54 68.441 49.26C68.177 48.972 67.801 48.828 67.313 48.828C66.761 48.828 66.325 48.996 66.005 49.332C65.685 49.66 65.525 50.136 65.525 50.76V54H64.025V47.592H65.453V48.42C65.701 48.124 66.013 47.9 66.389 47.748C66.765 47.596 67.189 47.52 67.661 47.52ZM75.8759 47.52C76.6839 47.52 77.3319 47.756 77.8199 48.228C78.3079 48.7 78.5519 49.4 78.5519 50.328V54H77.0519V50.52C77.0519 49.96 76.9199 49.54 76.6559 49.26C76.3919 48.972 76.0159 48.828 75.5279 48.828C74.9759 48.828 74.5399 48.996 74.2199 49.332C73.8999 49.66 73.7399 50.136 73.7399 50.76V54H72.2399V47.592H73.6679V48.42C73.9159 48.124 74.2279 47.9 74.6039 47.748C74.9799 47.596 75.4039 47.52 75.8759 47.52ZM86.5373 50.832C86.5373 50.936 86.5293 51.084 86.5133 51.276H81.4853C81.5733 51.748 81.8013 52.124 82.1693 52.404C82.5453 52.676 83.0093 52.812 83.5613 52.812C84.2653 52.812 84.8453 52.58 85.3013 52.116L86.1053 53.04C85.8173 53.384 85.4533 53.644 85.0133 53.82C84.5733 53.996 84.0773 54.084 83.5253 54.084C82.8213 54.084 82.2013 53.944 81.6653 53.664C81.1293 53.384 80.7133 52.996 80.4173 52.5C80.1293 51.996 79.9853 51.428 79.9853 50.796C79.9853 50.172 80.1253 49.612 80.4053 49.116C80.6933 48.612 81.0893 48.22 81.5933 47.94C82.0973 47.66 82.6653 47.52 83.2973 47.52C83.9213 47.52 84.4773 47.66 84.9653 47.94C85.4613 48.212 85.8453 48.6 86.1173 49.104C86.3973 49.6 86.5373 50.176 86.5373 50.832ZM83.2973 48.72C82.8173 48.72 82.4093 48.864 82.0733 49.152C81.7453 49.432 81.5453 49.808 81.4733 50.28H85.1093C85.0453 49.816 84.8493 49.44 84.5213 49.152C84.1933 48.864 83.7853 48.72 83.2973 48.72ZM89.4061 48.528C89.8381 47.856 90.5981 47.52 91.6861 47.52V48.948C91.5581 48.924 91.4421 48.912 91.3381 48.912C90.7541 48.912 90.2981 49.084 89.9701 49.428C89.6421 49.764 89.4781 50.252 89.4781 50.892V54H87.9781V47.592H89.4061V48.528ZM27.5334 62.504H24.4134L23.7414 64H23.1254L25.6854 58.4H26.2694L28.8294 64H28.2054L27.5334 62.504ZM27.3174 62.024L25.9734 59.016L24.6294 62.024H27.3174ZM29.6358 58.064H30.2038V64H29.6358V58.064ZM33.5282 64.04C33.1122 64.04 32.7389 63.9493 32.4082 63.768C32.0829 63.5867 31.8269 63.3333 31.6402 63.008C31.4535 62.6773 31.3602 62.3067 31.3602 61.896C31.3602 61.4853 31.4535 61.1173 31.6402 60.792C31.8269 60.4667 32.0829 60.2133 32.4082 60.032C32.7389 59.8507 33.1122 59.76 33.5282 59.76C33.8909 59.76 34.2135 59.832 34.4962 59.976C34.7842 60.1147 35.0109 60.32 35.1762 60.592L34.7522 60.88C34.6135 60.672 34.4375 60.5173 34.2242 60.416C34.0109 60.3093 33.7789 60.256 33.5282 60.256C33.2242 60.256 32.9495 60.3253 32.7042 60.464C32.4642 60.5973 32.2749 60.7893 32.1362 61.04C32.0029 61.2907 31.9362 61.576 31.9362 61.896C31.9362 62.2213 32.0029 62.5093 32.1362 62.76C32.2749 63.0053 32.4642 63.1973 32.7042 63.336C32.9495 63.4693 33.2242 63.536 33.5282 63.536C33.7789 63.536 34.0109 63.4853 34.2242 63.384C34.4375 63.2827 34.6135 63.128 34.7522 62.92L35.1762 63.208C35.0109 63.48 34.7842 63.688 34.4962 63.832C34.2082 63.9707 33.8855 64.04 33.5282 64.04ZM38.3735 59.76C38.9015 59.76 39.3202 59.9147 39.6295 60.224C39.9442 60.528 40.1015 60.9733 40.1015 61.56V64H39.5335V61.616C39.5335 61.1787 39.4242 60.8453 39.2055 60.616C38.9868 60.3867 38.6748 60.272 38.2695 60.272C37.8162 60.272 37.4562 60.408 37.1895 60.68C36.9282 60.9467 36.7975 61.3173 36.7975 61.792V64H36.2295V58.064H36.7975V60.528C36.9522 60.2827 37.1655 60.0933 37.4375 59.96C37.7095 59.8267 38.0215 59.76 38.3735 59.76ZM45.3232 62.072H41.8032C41.8352 62.5093 42.0032 62.864 42.3072 63.136C42.6112 63.4027 42.9952 63.536 43.4592 63.536C43.7205 63.536 43.9605 63.4907 44.1792 63.4C44.3979 63.304 44.5872 63.1653 44.7472 62.984L45.0672 63.352C44.8805 63.576 44.6459 63.7467 44.3632 63.864C44.0859 63.9813 43.7792 64.04 43.4432 64.04C43.0112 64.04 42.6272 63.9493 42.2912 63.768C41.9605 63.5813 41.7019 63.3253 41.5152 63C41.3285 62.6747 41.2352 62.3067 41.2352 61.896C41.2352 61.4853 41.3232 61.1173 41.4992 60.792C41.6805 60.4667 41.9259 60.2133 42.2352 60.032C42.5499 59.8507 42.9019 59.76 43.2912 59.76C43.6805 59.76 44.0299 59.8507 44.3392 60.032C44.6485 60.2133 44.8912 60.4667 45.0672 60.792C45.2432 61.112 45.3312 61.48 45.3312 61.896L45.3232 62.072ZM43.2912 60.248C42.8859 60.248 42.5445 60.3787 42.2672 60.64C41.9952 60.896 41.8405 61.232 41.8032 61.648H44.7872C44.7499 61.232 44.5925 60.896 44.3152 60.64C44.0432 60.3787 43.7019 60.248 43.2912 60.248ZM51.7353 59.76C52.2633 59.76 52.6766 59.912 52.9753 60.216C53.2793 60.52 53.4313 60.968 53.4313 61.56V64H52.8633V61.616C52.8633 61.1787 52.7566 60.8453 52.5433 60.616C52.3353 60.3867 52.0393 60.272 51.6553 60.272C51.218 60.272 50.874 60.408 50.6233 60.68C50.3726 60.9467 50.2473 61.3173 50.2473 61.792V64H49.6793V61.616C49.6793 61.1787 49.5726 60.8453 49.3593 60.616C49.1513 60.3867 48.8526 60.272 48.4633 60.272C48.0313 60.272 47.6873 60.408 47.4313 60.68C47.1806 60.9467 47.0553 61.3173 47.0553 61.792V64H46.4873V59.792H47.0313V60.56C47.1806 60.304 47.3886 60.1067 47.6553 59.968C47.922 59.8293 48.2286 59.76 48.5753 59.76C48.9273 59.76 49.2313 59.8347 49.4873 59.984C49.7486 60.1333 49.9433 60.3547 50.0713 60.648C50.226 60.3707 50.4473 60.1547 50.7353 60C51.0286 59.84 51.362 59.76 51.7353 59.76ZM54.9717 59.792H55.5397V64H54.9717V59.792ZM55.2597 58.872C55.1424 58.872 55.0437 58.832 54.9637 58.752C54.8837 58.672 54.8437 58.576 54.8437 58.464C54.8437 58.3573 54.8837 58.264 54.9637 58.184C55.0437 58.104 55.1424 58.064 55.2597 58.064C55.377 58.064 55.4757 58.104 55.5557 58.184C55.6357 58.2587 55.6757 58.3493 55.6757 58.456C55.6757 58.5733 55.6357 58.672 55.5557 58.752C55.4757 58.832 55.377 58.872 55.2597 58.872ZM58.2481 64.04C57.9068 64.04 57.5788 63.992 57.2641 63.896C56.9548 63.7947 56.7121 63.6693 56.5361 63.52L56.7921 63.072C56.9681 63.2107 57.1895 63.3253 57.4561 63.416C57.7228 63.5013 58.0001 63.544 58.2881 63.544C58.6721 63.544 58.9548 63.4853 59.1361 63.368C59.3228 63.2453 59.4161 63.0747 59.4161 62.856C59.4161 62.7013 59.3655 62.5813 59.2641 62.496C59.1628 62.4053 59.0348 62.3387 58.8801 62.296C58.7255 62.248 58.5201 62.2027 58.2641 62.16C57.9228 62.096 57.6481 62.032 57.4401 61.968C57.2321 61.8987 57.0535 61.784 56.9041 61.624C56.7601 61.464 56.6881 61.2427 56.6881 60.96C56.6881 60.608 56.8348 60.32 57.1281 60.096C57.4215 59.872 57.8295 59.76 58.3521 59.76C58.6241 59.76 58.8961 59.7973 59.1681 59.872C59.4401 59.9413 59.6641 60.0347 59.8401 60.152L59.5921 60.608C59.2455 60.368 58.8321 60.248 58.3521 60.248C57.9895 60.248 57.7148 60.312 57.5281 60.44C57.3468 60.568 57.2561 60.736 57.2561 60.944C57.2561 61.104 57.3068 61.232 57.4081 61.328C57.5148 61.424 57.6455 61.496 57.8001 61.544C57.9548 61.5867 58.1681 61.632 58.4401 61.68C58.7761 61.744 59.0455 61.808 59.2481 61.872C59.4508 61.936 59.6241 62.0453 59.7681 62.2C59.9121 62.3547 59.9841 62.568 59.9841 62.84C59.9841 63.208 59.8295 63.5013 59.5201 63.72C59.2161 63.9333 58.7921 64.04 58.2481 64.04ZM63.2502 63.744C63.1435 63.84 63.0102 63.9147 62.8502 63.968C62.6955 64.016 62.5329 64.04 62.3622 64.04C61.9675 64.04 61.6635 63.9333 61.4502 63.72C61.2369 63.5067 61.1302 63.2053 61.1302 62.816V60.272H60.3782V59.792H61.1302V58.872H61.6982V59.792H62.9782V60.272H61.6982V62.784C61.6982 63.0347 61.7595 63.2267 61.8822 63.36C62.0102 63.488 62.1915 63.552 62.4262 63.552C62.5435 63.552 62.6555 63.5333 62.7622 63.496C62.8742 63.4587 62.9702 63.4053 63.0502 63.336L63.2502 63.744ZM69.8259 63.488V64H65.8979V63.592L68.2259 61.312C68.5193 61.024 68.7166 60.776 68.8179 60.568C68.9246 60.3547 68.9779 60.1413 68.9779 59.928C68.9779 59.5973 68.8633 59.3413 68.6339 59.16C68.4099 58.9733 68.0873 58.88 67.6659 58.88C67.0099 58.88 66.5006 59.088 66.1379 59.504L65.7299 59.152C65.9486 58.896 66.2259 58.6987 66.5619 58.56C66.9033 58.4213 67.2873 58.352 67.7139 58.352C68.2846 58.352 68.7353 58.488 69.0659 58.76C69.4019 59.0267 69.5699 59.3947 69.5699 59.864C69.5699 60.152 69.5059 60.4293 69.3779 60.696C69.2499 60.9627 69.0073 61.2693 68.6499 61.616L66.7459 63.488H69.8259ZM72.7496 64.048C72.3176 64.048 71.9309 63.9333 71.5896 63.704C71.2536 63.4747 70.9896 63.1467 70.7976 62.72C70.6109 62.288 70.5176 61.7813 70.5176 61.2C70.5176 60.6187 70.6109 60.1147 70.7976 59.688C70.9896 59.256 71.2536 58.9253 71.5896 58.696C71.9309 58.4667 72.3176 58.352 72.7496 58.352C73.1816 58.352 73.5656 58.4667 73.9016 58.696C74.2429 58.9253 74.5096 59.256 74.7016 59.688C74.8936 60.1147 74.9896 60.6187 74.9896 61.2C74.9896 61.7813 74.8936 62.288 74.7016 62.72C74.5096 63.1467 74.2429 63.4747 73.9016 63.704C73.5656 63.9333 73.1816 64.048 72.7496 64.048ZM72.7496 63.52C73.0749 63.52 73.3602 63.4293 73.6056 63.248C73.8562 63.0667 74.0509 62.8027 74.1896 62.456C74.3282 62.1093 74.3976 61.6907 74.3976 61.2C74.3976 60.7093 74.3282 60.2907 74.1896 59.944C74.0509 59.5973 73.8562 59.3333 73.6056 59.152C73.3602 58.9707 73.0749 58.88 72.7496 58.88C72.4242 58.88 72.1362 58.9707 71.8856 59.152C71.6402 59.3333 71.4482 59.5973 71.3096 59.944C71.1709 60.2907 71.1016 60.7093 71.1016 61.2C71.1016 61.6907 71.1709 62.1093 71.3096 62.456C71.4482 62.8027 71.6402 63.0667 71.8856 63.248C72.1362 63.4293 72.4242 63.52 72.7496 63.52ZM79.6228 63.488V64H75.6948V63.592L78.0228 61.312C78.3161 61.024 78.5135 60.776 78.6148 60.568C78.7215 60.3547 78.7748 60.1413 78.7748 59.928C78.7748 59.5973 78.6601 59.3413 78.4308 59.16C78.2068 58.9733 77.8841 58.88 77.4628 58.88C76.8068 58.88 76.2975 59.088 75.9348 59.504L75.5268 59.152C75.7455 58.896 76.0228 58.6987 76.3588 58.56C76.7001 58.4213 77.0841 58.352 77.5108 58.352C78.0815 58.352 78.5321 58.488 78.8628 58.76C79.1988 59.0267 79.3668 59.3947 79.3668 59.864C79.3668 60.152 79.3028 60.4293 79.1748 60.696C79.0468 60.9627 78.8041 61.2693 78.4468 61.616L76.5428 63.488H79.6228ZM82.5464 64.048C82.1144 64.048 81.7278 63.9333 81.3864 63.704C81.0504 63.4747 80.7864 63.1467 80.5944 62.72C80.4078 62.288 80.3144 61.7813 80.3144 61.2C80.3144 60.6187 80.4078 60.1147 80.5944 59.688C80.7864 59.256 81.0504 58.9253 81.3864 58.696C81.7278 58.4667 82.1144 58.352 82.5464 58.352C82.9784 58.352 83.3624 58.4667 83.6984 58.696C84.0398 58.9253 84.3064 59.256 84.4984 59.688C84.6904 60.1147 84.7864 60.6187 84.7864 61.2C84.7864 61.7813 84.6904 62.288 84.4984 62.72C84.3064 63.1467 84.0398 63.4747 83.6984 63.704C83.3624 63.9333 82.9784 64.048 82.5464 64.048ZM82.5464 63.52C82.8718 63.52 83.1571 63.4293 83.4024 63.248C83.6531 63.0667 83.8478 62.8027 83.9864 62.456C84.1251 62.1093 84.1944 61.6907 84.1944 61.2C84.1944 60.7093 84.1251 60.2907 83.9864 59.944C83.8478 59.5973 83.6531 59.3333 83.4024 59.152C83.1571 58.9707 82.8718 58.88 82.5464 58.88C82.2211 58.88 81.9331 58.9707 81.6824 59.152C81.4371 59.3333 81.2451 59.5973 81.1064 59.944C80.9678 60.2907 80.8984 60.7093 80.8984 61.2C80.8984 61.6907 80.9678 62.1093 81.1064 62.456C81.2451 62.8027 81.4371 63.0667 81.6824 63.248C81.9331 63.4293 82.2211 63.52 82.5464 63.52ZM90.6331 64.048C90.0784 64.048 89.5771 63.9253 89.1291 63.68C88.6864 63.4347 88.3371 63.096 88.0811 62.664C87.8304 62.2267 87.7051 61.7387 87.7051 61.2C87.7051 60.6613 87.8304 60.176 88.0811 59.744C88.3371 59.3067 88.6891 58.9653 89.1371 58.72C89.5851 58.4747 90.0864 58.352 90.6411 58.352C91.0571 58.352 91.4411 58.4213 91.7931 58.56C92.1451 58.6987 92.4437 58.9013 92.6891 59.168L92.3131 59.544C91.8757 59.1013 91.3237 58.88 90.6571 58.88C90.2144 58.88 89.8117 58.9813 89.4491 59.184C89.0864 59.3867 88.8011 59.664 88.5931 60.016C88.3904 60.368 88.2891 60.7627 88.2891 61.2C88.2891 61.6373 88.3904 62.032 88.5931 62.384C88.8011 62.736 89.0864 63.0133 89.4491 63.216C89.8117 63.4187 90.2144 63.52 90.6571 63.52C91.3291 63.52 91.8811 63.296 92.3131 62.848L92.6891 63.224C92.4437 63.4907 92.1424 63.696 91.7851 63.84C91.4331 63.9787 91.0491 64.048 90.6331 64.048ZM95.3636 64.04C94.9582 64.04 94.5929 63.9493 94.2676 63.768C93.9422 63.5813 93.6862 63.3253 93.4996 63C93.3129 62.6747 93.2196 62.3067 93.2196 61.896C93.2196 61.4853 93.3129 61.1173 93.4996 60.792C93.6862 60.4667 93.9422 60.2133 94.2676 60.032C94.5929 59.8507 94.9582 59.76 95.3636 59.76C95.7689 59.76 96.1342 59.8507 96.4596 60.032C96.7849 60.2133 97.0382 60.4667 97.2196 60.792C97.4062 61.1173 97.4996 61.4853 97.4996 61.896C97.4996 62.3067 97.4062 62.6747 97.2196 63C97.0382 63.3253 96.7849 63.5813 96.4596 63.768C96.1342 63.9493 95.7689 64.04 95.3636 64.04ZM95.3636 63.536C95.6622 63.536 95.9289 63.4693 96.1636 63.336C96.4036 63.1973 96.5902 63.0027 96.7236 62.752C96.8569 62.5013 96.9236 62.216 96.9236 61.896C96.9236 61.576 96.8569 61.2907 96.7236 61.04C96.5902 60.7893 96.4036 60.5973 96.1636 60.464C95.9289 60.3253 95.6622 60.256 95.3636 60.256C95.0649 60.256 94.7956 60.3253 94.5556 60.464C94.3209 60.5973 94.1342 60.7893 93.9956 61.04C93.8622 61.2907 93.7956 61.576 93.7956 61.896C93.7956 62.216 93.8622 62.5013 93.9956 62.752C94.1342 63.0027 94.3209 63.1973 94.5556 63.336C94.7956 63.4693 95.0649 63.536 95.3636 63.536ZM100.803 59.76C101.331 59.76 101.75 59.9147 102.059 60.224C102.374 60.528 102.531 60.9733 102.531 61.56V64H101.963V61.616C101.963 61.1787 101.854 60.8453 101.635 60.616C101.417 60.3867 101.105 60.272 100.699 60.272C100.246 60.272 99.8859 60.408 99.6192 60.68C99.3579 60.9467 99.2272 61.3173 99.2272 61.792V64H98.6592V58.064H99.2272V60.528C99.3819 60.2827 99.5952 60.0933 99.8672 59.96C100.139 59.8267 100.451 59.76 100.803 59.76ZM105.809 64.04C105.404 64.04 105.038 63.9493 104.713 63.768C104.388 63.5813 104.132 63.3253 103.945 63C103.758 62.6747 103.665 62.3067 103.665 61.896C103.665 61.4853 103.758 61.1173 103.945 60.792C104.132 60.4667 104.388 60.2133 104.713 60.032C105.038 59.8507 105.404 59.76 105.809 59.76C106.214 59.76 106.58 59.8507 106.905 60.032C107.23 60.2133 107.484 60.4667 107.665 60.792C107.852 61.1173 107.945 61.4853 107.945 61.896C107.945 62.3067 107.852 62.6747 107.665 63C107.484 63.3253 107.23 63.5813 106.905 63.768C106.58 63.9493 106.214 64.04 105.809 64.04ZM105.809 63.536C106.108 63.536 106.374 63.4693 106.609 63.336C106.849 63.1973 107.036 63.0027 107.169 62.752C107.302 62.5013 107.369 62.216 107.369 61.896C107.369 61.576 107.302 61.2907 107.169 61.04C107.036 60.7893 106.849 60.5973 106.609 60.464C106.374 60.3253 106.108 60.256 105.809 60.256C105.51 60.256 105.241 60.3253 105.001 60.464C104.766 60.5973 104.58 60.7893 104.441 61.04C104.308 61.2907 104.241 61.576 104.241 61.896C104.241 62.216 104.308 62.5013 104.441 62.752C104.58 63.0027 104.766 63.1973 105.001 63.336C105.241 63.4693 105.51 63.536 105.809 63.536ZM109.649 60.616C109.782 60.3333 109.979 60.12 110.241 59.976C110.507 59.832 110.835 59.76 111.225 59.76V60.312L111.089 60.304C110.646 60.304 110.299 60.44 110.049 60.712C109.798 60.984 109.673 61.3653 109.673 61.856V64H109.105V59.792H109.649V60.616ZM114.649 63.744C114.542 63.84 114.409 63.9147 114.249 63.968C114.094 64.016 113.931 64.04 113.761 64.04C113.366 64.04 113.062 63.9333 112.849 63.72C112.635 63.5067 112.529 63.2053 112.529 62.816V60.272H111.777V59.792H112.529V58.872H113.097V59.792H114.377V60.272H113.097V62.784C113.097 63.0347 113.158 63.2267 113.281 63.36C113.409 63.488 113.59 63.552 113.825 63.552C113.942 63.552 114.054 63.5333 114.161 63.496C114.273 63.4587 114.369 63.4053 114.449 63.336L114.649 63.744Z" fill="#BA8C5C"/>
<path d="M71.2559 4.33749L75.4172 3.23203L75.9247 4.10296L72.9113 7.17835L72.6817 6.78437L73.4534 5.98745L72.5592 4.45297L71.4854 4.73148L71.2559 4.33749ZM75.2502 3.73209L72.9683 4.33266L73.7598 5.69088L75.4073 4.00166L75.2502 3.73209ZM73.2185 7.70559L76.9407 5.53662L77.1672 5.92543L73.4451 8.09439L73.2185 7.70559ZM77.1083 8.3031C77.1748 8.41715 77.2668 8.62277 77.3844 8.91996L77.4414 9.05344L77.1161 9.22216C76.9861 8.92756 76.8828 8.71459 76.8063 8.58326C76.6351 8.28949 76.4475 8.13033 76.2433 8.10576C76.0447 8.08264 75.7553 8.18184 75.3751 8.40337C74.9984 8.62288 74.7639 8.82432 74.6717 9.00769C74.5815 9.19451 74.627 9.44344 74.8083 9.75449L75.2114 10.339L74.899 10.5419C74.6634 10.2486 74.4992 10.0225 74.4066 9.86357C74.1709 9.45921 74.1115 9.11886 74.2282 8.8425C74.347 8.5696 74.6517 8.29017 75.1425 8.00419C75.6367 7.71621 76.0306 7.59776 76.3243 7.64886C76.6214 7.69794 76.8828 7.91602 77.1083 8.3031ZM75.4418 11.521L75.2153 11.1322L78.9374 8.96324L79.164 9.35205L77.8887 10.0952C78.1811 10.2951 78.4019 10.523 78.5509 10.7787C78.7523 11.1243 78.7939 11.4103 78.6758 11.6365C78.5596 11.8662 78.2631 12.12 77.7862 12.398L76.4176 13.1955L76.191 12.8067L77.5492 12.0152C77.9087 11.8058 78.1329 11.6265 78.2219 11.4774C78.3164 11.3297 78.2972 11.1418 78.1643 10.9137C78.0374 10.696 77.8748 10.5083 77.6765 10.3508L77.5828 10.2734L75.4418 11.521ZM78.1863 15.4919L78.2894 15.6332L77.9896 15.8218C77.7047 15.46 77.4807 15.1392 77.3176 14.8592C77.1001 14.486 77.0532 14.1592 77.1768 13.8788C77.3039 13.5964 77.5956 13.3223 78.0518 13.0564C78.9607 12.5268 79.6257 12.6231 80.0466 13.3454C80.25 13.6945 80.3035 14.0128 80.2072 14.3004C80.1144 14.586 79.8589 14.8506 79.4407 15.0943L79.1331 15.2457L78.1362 13.535C77.8494 13.7021 77.667 13.8778 77.5892 14.0621C77.5114 14.2463 77.547 14.4663 77.696 14.7221C77.8471 14.9813 78.0105 15.2379 78.1863 15.4919ZM79.2297 14.6964C79.5476 14.5111 79.7421 14.3284 79.813 14.1482C79.8859 13.9714 79.8549 13.7673 79.72 13.5357C79.587 13.3076 79.4172 13.1751 79.2105 13.1381C79.0058 13.1047 78.7504 13.1748 78.4442 13.3486L79.2297 14.6964ZM78.5895 16.9228L78.363 16.534L80.955 15.0235L81.1785 15.4072L80.9971 15.5129C81.3037 15.6815 81.5284 15.8884 81.6714 16.1338C81.8587 16.4552 81.9015 16.7312 81.7997 16.9618C81.9353 17.0356 82.0814 17.1472 82.238 17.2967C82.4 17.4477 82.5213 17.5923 82.6018 17.7305C82.8032 18.0761 82.8449 18.362 82.7267 18.5883C82.614 18.816 82.3175 19.0698 81.8371 19.3498L80.4685 20.1473L80.2419 19.7584L81.6002 18.967C81.9596 18.7575 82.1848 18.58 82.2759 18.4343C82.3704 18.2867 82.3522 18.1005 82.2213 17.8759C82.1548 17.7618 82.0691 17.6544 81.964 17.5536C81.8624 17.4507 81.777 17.3756 81.7076 17.328L81.6035 17.2567C81.5157 17.3681 81.2765 17.5376 80.8859 17.7651L79.5381 18.5506L79.3115 18.1618L80.649 17.3824C81.0223 17.1649 81.2544 16.9833 81.3455 16.8377C81.442 16.6934 81.4238 16.5073 81.2909 16.2792C81.2264 16.1686 81.1427 16.0646 81.0396 15.9673C80.9421 15.8713 80.8596 15.8013 80.7923 15.7572L80.6943 15.6963L78.5895 16.9228ZM80.8882 20.8675L83.4802 19.3571L83.7068 19.7459L81.1148 21.2563L80.8882 20.8675ZM84.066 19.0157L84.517 18.7529L84.7436 19.1417L84.2926 19.4045L84.066 19.0157ZM84.3198 21.4772C84.1003 21.1005 83.8592 20.9887 83.5966 21.1417C83.4756 21.2122 83.4144 21.3057 83.4129 21.4224C83.4148 21.537 83.4778 21.7642 83.6017 22.104C83.7291 22.4418 83.7817 22.7028 83.7595 22.8871C83.7372 23.0713 83.593 23.241 83.3269 23.3961C83.0608 23.5511 82.8152 23.5785 82.5901 23.4782C82.367 23.3814 82.1597 23.1688 81.9684 22.8404C81.8436 22.6262 81.7207 22.3598 81.6 22.0413L81.5353 21.8707L81.8843 21.695C82.0551 22.1233 82.199 22.4376 82.3158 22.6381C82.4326 22.8385 82.5523 22.9724 82.6749 23.0399C82.803 23.1087 82.9414 23.0999 83.09 23.0133C83.242 22.9247 83.3178 22.8203 83.3173 22.7003C83.3202 22.5782 83.2573 22.351 83.1284 22.0187C82.9996 21.6863 82.9446 21.4291 82.9634 21.2468C82.9822 21.0646 83.1177 20.8999 83.37 20.7529C83.6223 20.6059 83.8603 20.5853 84.0839 20.691C84.3096 20.8003 84.5 20.9879 84.6551 21.2541C84.7779 21.4649 84.9078 21.7434 85.0447 22.0895L85.1034 22.2498L84.7655 22.4327C84.5973 22.0169 84.4487 21.6984 84.3198 21.4772ZM85.9907 24.4399L85.5104 23.6156L84.2714 24.3376C83.9742 24.5108 83.791 24.6453 83.7218 24.7412C83.6547 24.8405 83.6685 24.9714 83.7631 25.1338L84.0631 25.5771L83.7568 25.7903C83.5838 25.5809 83.4621 25.4157 83.3916 25.2947C83.2345 25.0252 83.1915 24.8003 83.2624 24.6201C83.3333 24.4398 83.5536 24.242 83.9234 24.0265L85.2868 23.232L85.0724 22.864L85.4093 22.6676L85.6238 23.0357L86.417 22.5735L86.6405 22.9571L85.8474 23.4193L86.3277 24.2436L85.9907 24.4399Z" fill="#905B34"/>
<path d="M66.1011 27.7726L67.4706 25.2618H72.5377L69.114 19.3275L59.9841 34.9395C59.4059 34.9852 58.1764 35.0491 57.8843 34.9395C57.5921 34.83 57.5495 34.4069 57.5647 34.2091L61.2623 27.7726C59.9537 27.8182 57.1721 27.8821 56.5147 27.7726C55.8574 27.663 55.9669 27.1183 56.1039 26.8596C60.121 19.8144 68.2557 5.62352 68.6574 5.22181C69.0591 4.82009 69.4943 5.05443 69.6617 5.22181C73.8462 12.3279 82.2244 26.6313 82.2609 26.9965C82.2974 27.3617 82.0631 27.666 81.9414 27.7726H66.1011Z" fill="#905B34"/>
<path d="M66.1011 27.7726L67.4706 25.2618H72.5377L69.114 19.3275L59.9841 34.9395C59.4059 34.9852 58.1764 35.0491 57.8843 34.9395C57.5921 34.83 57.5495 34.4069 57.5647 34.2091L61.2623 27.7726C59.9537 27.8182 57.1721 27.8821 56.5147 27.7726C55.8574 27.663 55.9669 27.1183 56.1039 26.8596C60.121 19.8144 68.2557 5.62352 68.6574 5.22181C69.0591 4.82009 69.4943 5.05443 69.6617 5.22181C73.8462 12.3279 82.2244 26.6313 82.2609 26.9965C82.2974 27.3617 82.0631 27.666 81.9414 27.7726H66.1011Z" fill="#905B34"/>
<path d="M77.8344 29.3247H74.8672L78.2909 34.9396H80.2995C80.7012 34.7205 80.6494 34.3005 80.5733 34.1179L77.8344 29.3247Z" fill="#905B34"/>
<path d="M77.8344 29.3247H74.8672L78.2909 34.9396H80.2995C80.7012 34.7205 80.6494 34.3005 80.5733 34.1179L77.8344 29.3247Z" fill="#905B34"/>
<path d="M78.3381 25.3073H75.5078C73.834 22.3858 70.3403 16.3144 69.756 15.4014C69.1717 14.4885 68.63 15.021 68.4322 15.4014L65.5791 20.3316L62.726 25.2617H59.9414L69.1626 9.42139L78.3381 25.3073Z" fill="black"/>
</svg>
