<svg width="138" height="67" viewBox="0 0 138 67" fill="none" xmlns="http://www.w3.org/2000/svg">
<path d="M30.5066 49.704H31.9826V53.052C31.5506 53.396 31.0466 53.66 30.4706 53.844C29.8946 54.028 29.3026 54.12 28.6946 54.12C27.8386 54.12 27.0666 53.936 26.3786 53.568C25.6906 53.192 25.1506 52.676 24.7586 52.02C24.3666 51.364 24.1706 50.624 24.1706 49.8C24.1706 48.976 24.3666 48.236 24.7586 47.58C25.1506 46.924 25.6906 46.412 26.3786 46.044C27.0746 45.668 27.8546 45.48 28.7186 45.48C29.4226 45.48 30.0626 45.596 30.6386 45.828C31.2146 46.06 31.6986 46.4 32.0906 46.848L31.1066 47.808C30.4666 47.168 29.6946 46.848 28.7906 46.848C28.1986 46.848 27.6706 46.972 27.2066 47.22C26.7506 47.468 26.3906 47.816 26.1266 48.264C25.8706 48.712 25.7426 49.224 25.7426 49.8C25.7426 50.36 25.8706 50.864 26.1266 51.312C26.3906 51.76 26.7506 52.112 27.2066 52.368C27.6706 52.624 28.1946 52.752 28.7786 52.752C29.4346 52.752 30.0106 52.608 30.5066 52.32V49.704ZM35.3241 48.528C35.7561 47.856 36.5161 47.52 37.6041 47.52V48.948C37.4761 48.924 37.3601 48.912 37.2561 48.912C36.6721 48.912 36.2161 49.084 35.8881 49.428C35.5601 49.764 35.3961 50.252 35.3961 50.892V54H33.8961V47.592H35.3241V48.528ZM41.2894 47.52C42.2334 47.52 42.9534 47.748 43.4494 48.204C43.9534 48.652 44.2054 49.332 44.2054 50.244V54H42.7894V53.22C42.6054 53.5 42.3414 53.716 41.9974 53.868C41.6614 54.012 41.2534 54.084 40.7734 54.084C40.2934 54.084 39.8734 54.004 39.5134 53.844C39.1534 53.676 38.8734 53.448 38.6734 53.16C38.4814 52.864 38.3854 52.532 38.3854 52.164C38.3854 51.588 38.5974 51.128 39.0214 50.784C39.4534 50.432 40.1294 50.256 41.0494 50.256H42.7054V50.16C42.7054 49.712 42.5694 49.368 42.2974 49.128C42.0334 48.888 41.6374 48.768 41.1094 48.768C40.7494 48.768 40.3934 48.824 40.0414 48.936C39.6974 49.048 39.4054 49.204 39.1654 49.404L38.5774 48.312C38.9134 48.056 39.3174 47.86 39.7894 47.724C40.2614 47.588 40.7614 47.52 41.2894 47.52ZM41.0854 52.992C41.4614 52.992 41.7934 52.908 42.0814 52.74C42.3774 52.564 42.5854 52.316 42.7054 51.996V51.252H41.1574C40.2934 51.252 39.8614 51.536 39.8614 52.104C39.8614 52.376 39.9694 52.592 40.1854 52.752C40.4014 52.912 40.7014 52.992 41.0854 52.992ZM49.7665 47.52C50.5745 47.52 51.2225 47.756 51.7105 48.228C52.1985 48.7 52.4425 49.4 52.4425 50.328V54H50.9425V50.52C50.9425 49.96 50.8105 49.54 50.5465 49.26C50.2825 48.972 49.9065 48.828 49.4185 48.828C48.8665 48.828 48.4305 48.996 48.1105 49.332C47.7905 49.66 47.6305 50.136 47.6305 50.76V54H46.1305V47.592H47.5585V48.42C47.8065 48.124 48.1185 47.9 48.4945 47.748C48.8705 47.596 49.2945 47.52 49.7665 47.52ZM60.6799 45.096V54H59.2399V53.172C58.9919 53.476 58.6839 53.704 58.3159 53.856C57.9559 54.008 57.5559 54.084 57.1159 54.084C56.4999 54.084 55.9439 53.948 55.4479 53.676C54.9599 53.404 54.5759 53.02 54.2959 52.524C54.0159 52.02 53.8759 51.444 53.8759 50.796C53.8759 50.148 54.0159 49.576 54.2959 49.08C54.5759 48.584 54.9599 48.2 55.4479 47.928C55.9439 47.656 56.4999 47.52 57.1159 47.52C57.5399 47.52 57.9279 47.592 58.2799 47.736C58.6319 47.88 58.9319 48.096 59.1799 48.384V45.096H60.6799ZM57.2959 52.8C57.6559 52.8 57.9799 52.72 58.2679 52.56C58.5559 52.392 58.7839 52.156 58.9519 51.852C59.1199 51.548 59.2039 51.196 59.2039 50.796C59.2039 50.396 59.1199 50.044 58.9519 49.74C58.7839 49.436 58.5559 49.204 58.2679 49.044C57.9799 48.876 57.6559 48.792 57.2959 48.792C56.9359 48.792 56.6119 48.876 56.3239 49.044C56.0359 49.204 55.8079 49.436 55.6399 49.74C55.4719 50.044 55.3879 50.396 55.3879 50.796C55.3879 51.196 55.4719 51.548 55.6399 51.852C55.8079 52.156 56.0359 52.392 56.3239 52.56C56.6119 52.72 56.9359 52.8 57.2959 52.8ZM78.3786 45.6L75.5946 54H73.9386L71.8626 47.784L69.7506 54H68.0826L65.2986 45.6H66.9186L69.0066 51.984L71.1786 45.6H72.6186L74.7426 52.02L76.8906 45.6H78.3786ZM79.5641 47.592H81.0641V54H79.5641V47.592ZM80.3201 46.536C80.0481 46.536 79.8201 46.452 79.6361 46.284C79.4521 46.108 79.3601 45.892 79.3601 45.636C79.3601 45.38 79.4521 45.168 79.6361 45C79.8201 44.824 80.0481 44.736 80.3201 44.736C80.5921 44.736 80.8201 44.82 81.0041 44.988C81.1881 45.148 81.2801 45.352 81.2801 45.6C81.2801 45.864 81.1881 46.088 81.0041 46.272C80.8281 46.448 80.6001 46.536 80.3201 46.536ZM86.6688 47.52C87.4768 47.52 88.1248 47.756 88.6128 48.228C89.1008 48.7 89.3448 49.4 89.3448 50.328V54H87.8448V50.52C87.8448 49.96 87.7128 49.54 87.4488 49.26C87.1848 48.972 86.8088 48.828 86.3208 48.828C85.7688 48.828 85.3328 48.996 85.0128 49.332C84.6928 49.66 84.5328 50.136 84.5328 50.76V54H83.0328V47.592H84.4608V48.42C84.7088 48.124 85.0208 47.9 85.3968 47.748C85.7728 47.596 86.1968 47.52 86.6688 47.52ZM94.8837 47.52C95.6917 47.52 96.3397 47.756 96.8277 48.228C97.3157 48.7 97.5597 49.4 97.5597 50.328V54H96.0597V50.52C96.0597 49.96 95.9277 49.54 95.6637 49.26C95.3997 48.972 95.0237 48.828 94.5357 48.828C93.9837 48.828 93.5477 48.996 93.2277 49.332C92.9077 49.66 92.7477 50.136 92.7477 50.76V54H91.2477V47.592H92.6757V48.42C92.9237 48.124 93.2357 47.9 93.6117 47.748C93.9877 47.596 94.4117 47.52 94.8837 47.52ZM105.545 50.832C105.545 50.936 105.537 51.084 105.521 51.276H100.493C100.581 51.748 100.809 52.124 101.177 52.404C101.553 52.676 102.017 52.812 102.569 52.812C103.273 52.812 103.853 52.58 104.309 52.116L105.113 53.04C104.825 53.384 104.461 53.644 104.021 53.82C103.581 53.996 103.085 54.084 102.533 54.084C101.829 54.084 101.209 53.944 100.673 53.664C100.137 53.384 99.7211 52.996 99.4251 52.5C99.1371 51.996 98.9931 51.428 98.9931 50.796C98.9931 50.172 99.1331 49.612 99.4131 49.116C99.7011 48.612 100.097 48.22 100.601 47.94C101.105 47.66 101.673 47.52 102.305 47.52C102.929 47.52 103.485 47.66 103.973 47.94C104.469 48.212 104.853 48.6 105.125 49.104C105.405 49.6 105.545 50.176 105.545 50.832ZM102.305 48.72C101.825 48.72 101.417 48.864 101.081 49.152C100.753 49.432 100.553 49.808 100.481 50.28H104.117C104.053 49.816 103.857 49.44 103.529 49.152C103.201 48.864 102.793 48.72 102.305 48.72ZM108.414 48.528C108.846 47.856 109.606 47.52 110.694 47.52V48.948C110.566 48.924 110.45 48.912 110.346 48.912C109.762 48.912 109.306 49.084 108.978 49.428C108.65 49.764 108.486 50.252 108.486 50.892V54H106.986V47.592H108.414V48.528ZM14.5681 63.488V64H10.6401V63.592L12.9681 61.312C13.2615 61.024 13.4588 60.776 13.5601 60.568C13.6668 60.3547 13.7201 60.1413 13.7201 59.928C13.7201 59.5973 13.6055 59.3413 13.3761 59.16C13.1521 58.9733 12.8295 58.88 12.4081 58.88C11.7521 58.88 11.2428 59.088 10.8801 59.504L10.4721 59.152C10.6908 58.896 10.9681 58.6987 11.3041 58.56C11.6455 58.4213 12.0295 58.352 12.4561 58.352C13.0268 58.352 13.4775 58.488 13.8081 58.76C14.1441 59.0267 14.3121 59.3947 14.3121 59.864C14.3121 60.152 14.2481 60.4293 14.1201 60.696C13.9921 60.9627 13.7495 61.2693 13.3921 61.616L11.4881 63.488H14.5681ZM17.4918 64.048C17.0598 64.048 16.6731 63.9333 16.3318 63.704C15.9958 63.4747 15.7318 63.1467 15.5398 62.72C15.3531 62.288 15.2598 61.7813 15.2598 61.2C15.2598 60.6187 15.3531 60.1147 15.5398 59.688C15.7318 59.256 15.9958 58.9253 16.3318 58.696C16.6731 58.4667 17.0598 58.352 17.4918 58.352C17.9238 58.352 18.3078 58.4667 18.6438 58.696C18.9851 58.9253 19.2518 59.256 19.4438 59.688C19.6358 60.1147 19.7318 60.6187 19.7318 61.2C19.7318 61.7813 19.6358 62.288 19.4438 62.72C19.2518 63.1467 18.9851 63.4747 18.6438 63.704C18.3078 63.9333 17.9238 64.048 17.4918 64.048ZM17.4918 63.52C17.8171 63.52 18.1024 63.4293 18.3478 63.248C18.5984 63.0667 18.7931 62.8027 18.9318 62.456C19.0704 62.1093 19.1398 61.6907 19.1398 61.2C19.1398 60.7093 19.0704 60.2907 18.9318 59.944C18.7931 59.5973 18.5984 59.3333 18.3478 59.152C18.1024 58.9707 17.8171 58.88 17.4918 58.88C17.1664 58.88 16.8784 58.9707 16.6278 59.152C16.3824 59.3333 16.1904 59.5973 16.0518 59.944C15.9131 60.2907 15.8438 60.7093 15.8438 61.2C15.8438 61.6907 15.9131 62.1093 16.0518 62.456C16.1904 62.8027 16.3824 63.0667 16.6278 63.248C16.8784 63.4293 17.1664 63.52 17.4918 63.52ZM24.365 63.488V64H20.437V63.592L22.765 61.312C23.0583 61.024 23.2557 60.776 23.357 60.568C23.4637 60.3547 23.517 60.1413 23.517 59.928C23.517 59.5973 23.4023 59.3413 23.173 59.16C22.949 58.9733 22.6263 58.88 22.205 58.88C21.549 58.88 21.0397 59.088 20.677 59.504L20.269 59.152C20.4877 58.896 20.765 58.6987 21.101 58.56C21.4423 58.4213 21.8263 58.352 22.253 58.352C22.8237 58.352 23.2743 58.488 23.605 58.76C23.941 59.0267 24.109 59.3947 24.109 59.864C24.109 60.152 24.045 60.4293 23.917 60.696C23.789 60.9627 23.5463 61.2693 23.189 61.616L21.285 63.488H24.365ZM27.2886 64.048C26.8566 64.048 26.47 63.9333 26.1286 63.704C25.7926 63.4747 25.5286 63.1467 25.3366 62.72C25.15 62.288 25.0566 61.7813 25.0566 61.2C25.0566 60.6187 25.15 60.1147 25.3366 59.688C25.5286 59.256 25.7926 58.9253 26.1286 58.696C26.47 58.4667 26.8566 58.352 27.2886 58.352C27.7206 58.352 28.1046 58.4667 28.4406 58.696C28.782 58.9253 29.0486 59.256 29.2406 59.688C29.4326 60.1147 29.5286 60.6187 29.5286 61.2C29.5286 61.7813 29.4326 62.288 29.2406 62.72C29.0486 63.1467 28.782 63.4747 28.4406 63.704C28.1046 63.9333 27.7206 64.048 27.2886 64.048ZM27.2886 63.52C27.614 63.52 27.8993 63.4293 28.1446 63.248C28.3953 63.0667 28.59 62.8027 28.7286 62.456C28.8673 62.1093 28.9366 61.6907 28.9366 61.2C28.9366 60.7093 28.8673 60.2907 28.7286 59.944C28.59 59.5973 28.3953 59.3333 28.1446 59.152C27.8993 58.9707 27.614 58.88 27.2886 58.88C26.9633 58.88 26.6753 58.9707 26.4246 59.152C26.1793 59.3333 25.9873 59.5973 25.8486 59.944C25.71 60.2907 25.6406 60.7093 25.6406 61.2C25.6406 61.6907 25.71 62.1093 25.8486 62.456C25.9873 62.8027 26.1793 63.0667 26.4246 63.248C26.6753 63.4293 26.9633 63.52 27.2886 63.52ZM35.3913 64.048C34.8366 64.048 34.3326 63.9253 33.8793 63.68C33.4313 63.4293 33.0793 63.088 32.8233 62.656C32.5726 62.224 32.4473 61.7387 32.4473 61.2C32.4473 60.6613 32.5726 60.176 32.8233 59.744C33.0793 59.312 33.4313 58.9733 33.8793 58.728C34.3326 58.4773 34.8366 58.352 35.3913 58.352C35.9459 58.352 36.4446 58.4747 36.8873 58.72C37.3353 58.9653 37.6873 59.3067 37.9433 59.744C38.1993 60.176 38.3273 60.6613 38.3273 61.2C38.3273 61.7387 38.1993 62.2267 37.9433 62.664C37.6873 63.096 37.3353 63.4347 36.8873 63.68C36.4446 63.9253 35.9459 64.048 35.3913 64.048ZM35.3913 63.52C35.8339 63.52 36.2339 63.4213 36.5913 63.224C36.9486 63.0213 37.2286 62.744 37.4313 62.392C37.6339 62.0347 37.7353 61.6373 37.7353 61.2C37.7353 60.7627 37.6339 60.368 37.4313 60.016C37.2286 59.6587 36.9486 59.3813 36.5913 59.184C36.2339 58.9813 35.8339 58.88 35.3913 58.88C34.9486 58.88 34.5459 58.9813 34.1833 59.184C33.8259 59.3813 33.5433 59.6587 33.3353 60.016C33.1326 60.368 33.0312 60.7627 33.0312 61.2C33.0312 61.6373 33.1326 62.0347 33.3353 62.392C33.5433 62.744 33.8259 63.0213 34.1833 63.224C34.5459 63.4213 34.9486 63.52 35.3913 63.52ZM40.0782 60.616C40.2115 60.3333 40.4089 60.12 40.6702 59.976C40.9369 59.832 41.2649 59.76 41.6542 59.76V60.312L41.5182 60.304C41.0755 60.304 40.7289 60.44 40.4782 60.712C40.2275 60.984 40.1022 61.3653 40.1022 61.856V64H39.5342V59.792H40.0782V60.616ZM44.1468 59.76C44.6961 59.76 45.1175 59.8987 45.4108 60.176C45.7041 60.448 45.8508 60.8533 45.8508 61.392V64H45.3068V63.344C45.1788 63.5627 44.9895 63.7333 44.7388 63.856C44.4935 63.9787 44.2001 64.04 43.8588 64.04C43.3895 64.04 43.0161 63.928 42.7388 63.704C42.4615 63.48 42.3228 63.184 42.3228 62.816C42.3228 62.4587 42.4508 62.1707 42.7068 61.952C42.9681 61.7333 43.3815 61.624 43.9468 61.624H45.2828V61.368C45.2828 61.0053 45.1815 60.7307 44.9788 60.544C44.7761 60.352 44.4801 60.256 44.0908 60.256C43.8241 60.256 43.5681 60.3013 43.3228 60.392C43.0775 60.4773 42.8668 60.5973 42.6908 60.752L42.4348 60.328C42.6481 60.1467 42.9041 60.008 43.2028 59.912C43.5015 59.8107 43.8161 59.76 44.1468 59.76ZM43.9468 63.592C44.2668 63.592 44.5415 63.52 44.7708 63.376C45.0001 63.2267 45.1708 63.0133 45.2828 62.736V62.048H43.9628C43.2428 62.048 42.8828 62.2987 42.8828 62.8C42.8828 63.0453 42.9761 63.24 43.1628 63.384C43.3495 63.5227 43.6108 63.592 43.9468 63.592ZM49.5376 59.76C50.0656 59.76 50.4842 59.9147 50.7936 60.224C51.1082 60.528 51.2656 60.9733 51.2656 61.56V64H50.6976V61.616C50.6976 61.1787 50.5882 60.8453 50.3696 60.616C50.1509 60.3867 49.8389 60.272 49.4336 60.272C48.9802 60.272 48.6202 60.408 48.3536 60.68C48.0922 60.9467 47.9616 61.3173 47.9616 61.792V64H47.3936V59.792H47.9376V60.568C48.0922 60.312 48.3056 60.1147 48.5776 59.976C48.8549 59.832 49.1749 59.76 49.5376 59.76ZM54.5433 64.04C54.1379 64.04 53.7726 63.9493 53.4473 63.768C53.1219 63.5813 52.8659 63.3253 52.6793 63C52.4926 62.6747 52.3993 62.3067 52.3993 61.896C52.3993 61.4853 52.4926 61.1173 52.6793 60.792C52.8659 60.4667 53.1219 60.2133 53.4473 60.032C53.7726 59.8507 54.1379 59.76 54.5433 59.76C54.9486 59.76 55.3139 59.8507 55.6393 60.032C55.9646 60.2133 56.2179 60.4667 56.3993 60.792C56.5859 61.1173 56.6793 61.4853 56.6793 61.896C56.6793 62.3067 56.5859 62.6747 56.3993 63C56.2179 63.3253 55.9646 63.5813 55.6393 63.768C55.3139 63.9493 54.9486 64.04 54.5433 64.04ZM54.5433 63.536C54.8419 63.536 55.1086 63.4693 55.3433 63.336C55.5833 63.1973 55.7699 63.0027 55.9033 62.752C56.0366 62.5013 56.1033 62.216 56.1033 61.896C56.1033 61.576 56.0366 61.2907 55.9033 61.04C55.7699 60.7893 55.5833 60.5973 55.3433 60.464C55.1086 60.3253 54.8419 60.256 54.5433 60.256C54.2446 60.256 53.9753 60.3253 53.7353 60.464C53.5006 60.5973 53.3139 60.7893 53.1753 61.04C53.0419 61.2907 52.9753 61.576 52.9753 61.896C52.9753 62.216 53.0419 62.5013 53.1753 62.752C53.3139 63.0027 53.5006 63.1973 53.7353 63.336C53.9753 63.4693 54.2446 63.536 54.5433 63.536ZM60.0526 58.4H60.6446V64H60.0526V58.4ZM64.4907 59.76C65.0187 59.76 65.4374 59.9147 65.7467 60.224C66.0614 60.528 66.2187 60.9733 66.2187 61.56V64H65.6507V61.616C65.6507 61.1787 65.5414 60.8453 65.3227 60.616C65.104 60.3867 64.792 60.272 64.3867 60.272C63.9334 60.272 63.5734 60.408 63.3067 60.68C63.0454 60.9467 62.9147 61.3173 62.9147 61.792V64H62.3467V59.792H62.8907V60.568C63.0454 60.312 63.2587 60.1147 63.5307 59.976C63.808 59.832 64.128 59.76 64.4907 59.76ZM69.9768 63.744C69.8701 63.84 69.7368 63.9147 69.5768 63.968C69.4221 64.016 69.2594 64.04 69.0888 64.04C68.6941 64.04 68.3901 63.9333 68.1768 63.72C67.9634 63.5067 67.8568 63.2053 67.8568 62.816V60.272H67.1048V59.792H67.8568V58.872H68.4248V59.792H69.7048V60.272H68.4248V62.784C68.4248 63.0347 68.4861 63.2267 68.6088 63.36C68.7368 63.488 68.9181 63.552 69.1528 63.552C69.2701 63.552 69.3821 63.5333 69.4888 63.496C69.6008 63.4587 69.6968 63.4053 69.7768 63.336L69.9768 63.744ZM74.5263 62.072H71.0063C71.0383 62.5093 71.2063 62.864 71.5103 63.136C71.8143 63.4027 72.1983 63.536 72.6623 63.536C72.9236 63.536 73.1636 63.4907 73.3823 63.4C73.601 63.304 73.7903 63.1653 73.9503 62.984L74.2703 63.352C74.0836 63.576 73.849 63.7467 73.5663 63.864C73.289 63.9813 72.9823 64.04 72.6463 64.04C72.2143 64.04 71.8303 63.9493 71.4943 63.768C71.1636 63.5813 70.905 63.3253 70.7183 63C70.5316 62.6747 70.4383 62.3067 70.4383 61.896C70.4383 61.4853 70.5263 61.1173 70.7023 60.792C70.8836 60.4667 71.129 60.2133 71.4383 60.032C71.753 59.8507 72.105 59.76 72.4943 59.76C72.8836 59.76 73.233 59.8507 73.5423 60.032C73.8516 60.2133 74.0943 60.4667 74.2703 60.792C74.4463 61.112 74.5343 61.48 74.5343 61.896L74.5263 62.072ZM72.4943 60.248C72.089 60.248 71.7476 60.3787 71.4703 60.64C71.1983 60.896 71.0436 61.232 71.0063 61.648H73.9903C73.953 61.232 73.7956 60.896 73.5183 60.64C73.2463 60.3787 72.905 60.248 72.4943 60.248ZM76.2344 60.616C76.3678 60.3333 76.5651 60.12 76.8264 59.976C77.0931 59.832 77.4211 59.76 77.8104 59.76V60.312L77.6744 60.304C77.2318 60.304 76.8851 60.44 76.6344 60.712C76.3838 60.984 76.2584 61.3653 76.2584 61.856V64H75.6904V59.792H76.2344V60.616ZM80.9829 59.76C81.5109 59.76 81.9295 59.9147 82.2389 60.224C82.5535 60.528 82.7109 60.9733 82.7109 61.56V64H82.1429V61.616C82.1429 61.1787 82.0335 60.8453 81.8149 60.616C81.5962 60.3867 81.2842 60.272 80.8789 60.272C80.4255 60.272 80.0655 60.408 79.7989 60.68C79.5375 60.9467 79.4069 61.3173 79.4069 61.792V64H78.8389V59.792H79.3829V60.568C79.5375 60.312 79.7509 60.1147 80.0229 59.976C80.3002 59.832 80.6202 59.76 80.9829 59.76ZM85.7249 59.76C86.2743 59.76 86.6956 59.8987 86.9889 60.176C87.2823 60.448 87.4289 60.8533 87.4289 61.392V64H86.8849V63.344C86.7569 63.5627 86.5676 63.7333 86.3169 63.856C86.0716 63.9787 85.7783 64.04 85.4369 64.04C84.9676 64.04 84.5943 63.928 84.3169 63.704C84.0396 63.48 83.9009 63.184 83.9009 62.816C83.9009 62.4587 84.0289 62.1707 84.2849 61.952C84.5463 61.7333 84.9596 61.624 85.5249 61.624H86.8609V61.368C86.8609 61.0053 86.7596 60.7307 86.5569 60.544C86.3543 60.352 86.0583 60.256 85.6689 60.256C85.4023 60.256 85.1463 60.3013 84.9009 60.392C84.6556 60.4773 84.4449 60.5973 84.2689 60.752L84.0129 60.328C84.2263 60.1467 84.4823 60.008 84.7809 59.912C85.0796 59.8107 85.3943 59.76 85.7249 59.76ZM85.5249 63.592C85.8449 63.592 86.1196 63.52 86.3489 63.376C86.5783 63.2267 86.7489 63.0133 86.8609 62.736V62.048H85.5409C84.8209 62.048 84.4609 62.2987 84.4609 62.8C84.4609 63.0453 84.5543 63.24 84.7409 63.384C84.9276 63.5227 85.1889 63.592 85.5249 63.592ZM91.1877 63.744C91.081 63.84 90.9477 63.9147 90.7877 63.968C90.633 64.016 90.4704 64.04 90.2997 64.04C89.905 64.04 89.601 63.9333 89.3877 63.72C89.1744 63.5067 89.0677 63.2053 89.0677 62.816V60.272H88.3157V59.792H89.0677V58.872H89.6357V59.792H90.9157V60.272H89.6357V62.784C89.6357 63.0347 89.697 63.2267 89.8197 63.36C89.9477 63.488 90.129 63.552 90.3637 63.552C90.481 63.552 90.593 63.5333 90.6997 63.496C90.8117 63.4587 90.9077 63.4053 90.9877 63.336L91.1877 63.744ZM92.2217 59.792H92.7897V64H92.2217V59.792ZM92.5097 58.872C92.3924 58.872 92.2937 58.832 92.2137 58.752C92.1337 58.672 92.0937 58.576 92.0937 58.464C92.0937 58.3573 92.1337 58.264 92.2137 58.184C92.2937 58.104 92.3924 58.064 92.5097 58.064C92.627 58.064 92.7257 58.104 92.8057 58.184C92.8857 58.2587 92.9257 58.3493 92.9257 58.456C92.9257 58.5733 92.8857 58.672 92.8057 58.752C92.7257 58.832 92.627 58.872 92.5097 58.872ZM96.0901 64.04C95.6848 64.04 95.3195 63.9493 94.9941 63.768C94.6688 63.5813 94.4128 63.3253 94.2261 63C94.0395 62.6747 93.9461 62.3067 93.9461 61.896C93.9461 61.4853 94.0395 61.1173 94.2261 60.792C94.4128 60.4667 94.6688 60.2133 94.9941 60.032C95.3195 59.8507 95.6848 59.76 96.0901 59.76C96.4955 59.76 96.8608 59.8507 97.1861 60.032C97.5115 60.2133 97.7648 60.4667 97.9461 60.792C98.1328 61.1173 98.2261 61.4853 98.2261 61.896C98.2261 62.3067 98.1328 62.6747 97.9461 63C97.7648 63.3253 97.5115 63.5813 97.1861 63.768C96.8608 63.9493 96.4955 64.04 96.0901 64.04ZM96.0901 63.536C96.3888 63.536 96.6555 63.4693 96.8901 63.336C97.1301 63.1973 97.3168 63.0027 97.4501 62.752C97.5835 62.5013 97.6501 62.216 97.6501 61.896C97.6501 61.576 97.5835 61.2907 97.4501 61.04C97.3168 60.7893 97.1301 60.5973 96.8901 60.464C96.6555 60.3253 96.3888 60.256 96.0901 60.256C95.7915 60.256 95.5221 60.3253 95.2821 60.464C95.0475 60.5973 94.8608 60.7893 94.7221 61.04C94.5888 61.2907 94.5221 61.576 94.5221 61.896C94.5221 62.216 94.5888 62.5013 94.7221 62.752C94.8608 63.0027 95.0475 63.1973 95.2821 63.336C95.5221 63.4693 95.7915 63.536 96.0901 63.536ZM101.53 59.76C102.058 59.76 102.476 59.9147 102.786 60.224C103.1 60.528 103.258 60.9733 103.258 61.56V64H102.69V61.616C102.69 61.1787 102.58 60.8453 102.362 60.616C102.143 60.3867 101.831 60.272 101.426 60.272C100.972 60.272 100.612 60.408 100.346 60.68C100.084 60.9467 99.9538 61.3173 99.9538 61.792V64H99.3858V59.792H99.9298V60.568C100.084 60.312 100.298 60.1147 100.57 59.976C100.847 59.832 101.167 59.76 101.53 59.76ZM106.272 59.76C106.821 59.76 107.242 59.8987 107.536 60.176C107.829 60.448 107.976 60.8533 107.976 61.392V64H107.432V63.344C107.304 63.5627 107.114 63.7333 106.864 63.856C106.618 63.9787 106.325 64.04 105.984 64.04C105.514 64.04 105.141 63.928 104.864 63.704C104.586 63.48 104.448 63.184 104.448 62.816C104.448 62.4587 104.576 62.1707 104.832 61.952C105.093 61.7333 105.506 61.624 106.072 61.624H107.408V61.368C107.408 61.0053 107.306 60.7307 107.104 60.544C106.901 60.352 106.605 60.256 106.216 60.256C105.949 60.256 105.693 60.3013 105.448 60.392C105.202 60.4773 104.992 60.5973 104.816 60.752L104.56 60.328C104.773 60.1467 105.029 60.008 105.328 59.912C105.626 59.8107 105.941 59.76 106.272 59.76ZM106.072 63.592C106.392 63.592 106.666 63.52 106.896 63.376C107.125 63.2267 107.296 63.0133 107.408 62.736V62.048H106.088C105.368 62.048 105.008 62.2987 105.008 62.8C105.008 63.0453 105.101 63.24 105.288 63.384C105.474 63.5227 105.736 63.592 106.072 63.592ZM109.519 58.064H110.087V64H109.519V58.064ZM116.313 64.048C115.758 64.048 115.257 63.9253 114.809 63.68C114.366 63.4347 114.017 63.096 113.761 62.664C113.51 62.2267 113.385 61.7387 113.385 61.2C113.385 60.6613 113.51 60.176 113.761 59.744C114.017 59.3067 114.369 58.9653 114.817 58.72C115.265 58.4747 115.766 58.352 116.321 58.352C116.737 58.352 117.121 58.4213 117.473 58.56C117.825 58.6987 118.123 58.9013 118.369 59.168L117.993 59.544C117.555 59.1013 117.003 58.88 116.337 58.88C115.894 58.88 115.491 58.9813 115.129 59.184C114.766 59.3867 114.481 59.664 114.273 60.016C114.07 60.368 113.969 60.7627 113.969 61.2C113.969 61.6373 114.07 62.032 114.273 62.384C114.481 62.736 114.766 63.0133 115.129 63.216C115.491 63.4187 115.894 63.52 116.337 63.52C117.009 63.52 117.561 63.296 117.993 62.848L118.369 63.224C118.123 63.4907 117.822 63.696 117.465 63.84C117.113 63.9787 116.729 64.048 116.313 64.048ZM120.92 59.76C121.47 59.76 121.891 59.8987 122.184 60.176C122.478 60.448 122.624 60.8533 122.624 61.392V64H122.08V63.344C121.952 63.5627 121.763 63.7333 121.512 63.856C121.267 63.9787 120.974 64.04 120.632 64.04C120.163 64.04 119.79 63.928 119.512 63.704C119.235 63.48 119.096 63.184 119.096 62.816C119.096 62.4587 119.224 62.1707 119.48 61.952C119.742 61.7333 120.155 61.624 120.72 61.624H122.056V61.368C122.056 61.0053 121.955 60.7307 121.752 60.544C121.55 60.352 121.254 60.256 120.864 60.256C120.598 60.256 120.342 60.3013 120.096 60.392C119.851 60.4773 119.64 60.5973 119.464 60.752L119.208 60.328C119.422 60.1467 119.678 60.008 119.976 59.912C120.275 59.8107 120.59 59.76 120.92 59.76ZM120.72 63.592C121.04 63.592 121.315 63.52 121.544 63.376C121.774 63.2267 121.944 63.0133 122.056 62.736V62.048H120.736C120.016 62.048 119.656 62.2987 119.656 62.8C119.656 63.0453 119.75 63.24 119.936 63.384C120.123 63.5227 120.384 63.592 120.72 63.592ZM124.167 58.064H124.735V64H124.167V58.064ZM126.315 58.064H126.883V64H126.315V58.064Z" fill="#BA8C5C"/>
<path d="M68.9694 33.3825C71.8433 31.3507 73.6526 29.3825 75.6963 25.6579C76.8884 23.6052 78.1231 16.0711 76.7822 10.9495C78.2509 13.595 78.485 19.0127 77.2078 23.203C75.9517 27.5838 73.2057 30.7369 68.9694 33.3825ZM65.7337 33.8481C63.2004 33.6788 61.3909 32.6205 59.4113 31.3084C64.7545 33.0861 69.2461 30.7158 72.1199 22.8432C73.3548 21.1924 73.738 19.9862 74.0997 18.5471C73.5249 23.33 70.8214 32.1125 65.7337 33.8481ZM56.0264 29.7C56.7929 30.2715 57.7721 30.7371 58.6235 31.0334C61.6677 33.1285 64.7119 33.9326 65.01 33.9961C61.4974 34.3347 58.6874 32.1125 56.0264 29.7ZM52.365 15.5419C48.3415 22.0602 53.5358 29.4037 59.0068 32.7687C54.8344 31.6257 51.7689 27.8589 50.3639 24.7056C49.0013 21.3618 49.2781 18.6529 52.365 15.5419ZM71.3749 23.8166C69.1611 29.2134 65.904 31.6047 62.3701 31.2449C58.0913 30.9274 56.2181 29.7 53.9614 26.2505C53.9614 26.2505 53.9614 26.2717 53.9827 26.2717C53.2589 25.1076 52.9184 23.457 52.8545 22.1661C55.5793 28.7265 65.8399 30.7793 71.3749 23.8166ZM59.3048 12.3253C62.1148 9.87022 65.393 8.09266 68.4372 8.19849C73.823 8.45248 73.9294 16.854 71.7794 22.7587C66.0317 30.5466 56.3669 28.3244 54.1318 22.4836C53.4931 19.711 54.8769 16.2404 59.3048 12.3253ZM72.5457 21.6369C73.6102 18.1661 73.9083 14.4203 73.0354 11.2881C75.0363 14.4626 74.5894 18.4201 72.5457 21.6369ZM74.6533 11.0978C74.781 11.9443 74.8449 13.0447 74.5468 14.9706C74.2488 11.394 71.8433 8.02916 69.5441 7.45769C71.9285 7.47885 73.6526 8.30432 74.6533 11.0978ZM74.3765 19.5629C74.632 17.7853 74.632 16.0922 74.632 16.0922C74.7597 15.3514 75.0152 13.9758 75.0152 12.5579C77.1865 18.9069 74.8023 27.3933 69.757 31.774C71.1622 29.8058 73.5462 25.0654 74.3765 19.5629ZM71.3962 31.0121C73.227 28.4302 75.526 24.0706 76.0796 19.3937C76.1647 18.5471 76.5267 10.5264 73.1418 7.03438C76.5265 8.15616 77.591 14.0817 77.0375 18.9704C76.4839 24.113 74.3339 28.2186 71.3962 31.0121ZM76.186 7.56352C75.4834 6.39941 72.8651 4.57951 68.3946 5.08749C62.7959 5.08749 57.4101 8.09266 53.7485 10.9497C50.0447 13.9125 48.0225 16.706 48.0012 18.2931C47.9586 20.2825 49.0655 24.4516 51.2581 27.7108C53.4083 30.8004 55.324 31.8799 58.2405 33.3613C61.1143 34.8849 64.9037 35.7527 67.7775 34.1231C71.3964 33.3611 74.6961 29.2345 76.7609 24.9173C78.762 20.854 79.3792 12.4734 76.186 7.56352Z" fill="#905B34"/>
<path d="M73.7702 30.1698C74.2913 30.1698 74.652 29.7647 74.652 29.26C74.652 28.7553 74.2979 28.3436 73.7702 28.3436C73.2492 28.3436 72.8885 28.7553 72.8885 29.26C72.8951 29.7648 73.2492 30.1698 73.7702 30.1698ZM73.7702 27.5134C74.7789 27.5134 75.5405 28.2971 75.5405 29.26C75.5405 30.2296 74.7789 30.9999 73.7702 30.9999C72.7615 30.9999 72 30.2296 72 29.26C72 28.2904 72.7615 27.5134 73.7702 27.5134ZM78.266 27.5134V28.3768C77.7115 28.3768 77.4243 28.4565 77.1971 28.576V30.9335H76.302V28.0846C76.8164 27.6861 77.4644 27.5134 78.1591 27.5134H78.266ZM83.9908 28.0979C83.9908 27.8189 84.3316 27.5134 84.9327 27.5134C85.3937 27.5134 85.8145 27.7193 86.0884 28.0514C86.3088 28.317 86.4291 28.6557 86.4291 29.2268V30.9335H85.5339V29.1537C85.5339 28.8217 85.4604 28.6491 85.3335 28.5229C85.22 28.4033 85.0396 28.3369 84.8325 28.3369C84.4517 28.3369 84.1444 28.576 84.0242 28.7487V30.9268H83.1291V27.5799H83.9908V28.0979ZM88.8874 30.1699C89.4084 30.1699 89.7691 29.7648 89.7691 29.2601C89.7691 28.7553 89.415 28.3436 88.8874 28.3436C88.3662 28.3436 88.0056 28.7554 88.0056 29.2601C88.0056 29.7648 88.3663 30.1699 88.8874 30.1699ZM88.8874 27.5135C89.896 27.5135 90.6576 28.2971 90.6576 29.2601C90.6576 30.2297 89.896 31 88.8874 31C87.8786 31 87.1171 30.2297 87.1171 29.2601C87.1171 28.2905 87.8786 27.5135 88.8874 27.5135ZM81.252 28.5561C81.0515 28.3967 80.8445 28.317 80.5038 28.317C79.9026 28.317 79.5686 28.7753 79.5686 29.2534C79.5686 29.7714 79.9493 30.1831 80.4504 30.1831C80.7844 30.1831 81.0849 30.0171 81.252 29.7714V28.5561ZM82.1471 28.1775V30.9335H81.2854V30.4222C81.2854 30.6746 80.7576 30.9999 80.2833 30.9999C79.3147 30.9999 78.6734 30.2827 78.6734 29.2534C78.6734 28.2771 79.4149 27.5002 80.437 27.5002C81.1183 27.4935 81.6594 27.6994 82.1471 28.1775Z" fill="#905B34"/>
</svg>
