<svg width="138" height="67" viewBox="0 0 138 67" fill="none" xmlns="http://www.w3.org/2000/svg">
<path d="M54.9919 34L50.0801 29.0126L62.0952 21.9849L54.9919 34Z" fill="#905B34"/>
<path d="M46 22.5141V18.3579L57.9395 20.0204L46 22.5141Z" fill="#905B34"/>
<path d="M50.8364 10.2719L50.1562 9.59185L51.9699 7.09814L53.2545 8.76061L50.8364 10.2719Z" fill="#905B34"/>
<path d="M52.0469 11.2542L59.528 17.0728L54.465 10.4985L52.0469 11.2542Z" fill="#905B34"/>
<path d="M74.2629 10.4522L68.0664 17.2243L71.8825 8.83643L74.2629 10.4522Z" fill="#905B34"/>
<path d="M66.1005 4.9068L63.758 18.5088L61.3398 4L66.1005 4.9068Z" fill="#905B34"/>
<path d="M63.832 21.541C64.0098 21.541 64.2451 21.5332 64.5381 21.5176C64.8115 21.502 65.0146 21.4941 65.1475 21.4941C65.6768 21.4941 66.0801 21.6172 66.3574 21.8633C66.6367 22.1094 66.7764 22.499 66.7764 23.0322C66.7764 23.3721 66.707 23.6631 66.5684 23.9053C66.4316 24.1475 66.2295 24.332 65.9619 24.459C65.6963 24.5859 65.373 24.6494 64.9922 24.6494C64.7891 24.6494 64.6191 24.6475 64.4824 24.6436V26H63.5508V21.541H63.832ZM64.9688 23.9434C65.2305 23.9434 65.4424 23.874 65.6045 23.7354C65.7686 23.5967 65.8506 23.3584 65.8506 23.0205C65.8506 22.7373 65.7744 22.5225 65.6221 22.376C65.4697 22.2275 65.249 22.1592 64.96 22.1709C64.8467 22.1748 64.7539 22.1797 64.6816 22.1855C64.6113 22.1895 64.5449 22.1982 64.4824 22.2119V23.9199C64.6094 23.9355 64.7715 23.9434 64.9688 23.9434ZM67.2656 24.2979C67.2656 23.9404 67.3359 23.6357 67.4766 23.3838C67.6172 23.1299 67.8125 22.9385 68.0625 22.8096C68.3125 22.6787 68.5996 22.6133 68.9238 22.6133C69.293 22.6133 69.5967 22.6914 69.835 22.8477C70.0732 23.002 70.2461 23.21 70.3535 23.4717C70.4629 23.7314 70.5176 24.0254 70.5176 24.3535C70.5176 24.7129 70.4473 25.0195 70.3066 25.2734C70.166 25.5273 69.9707 25.7197 69.7207 25.8506C69.4707 25.9814 69.1846 26.0469 68.8623 26.0469C68.4912 26.0469 68.1865 25.9688 67.9482 25.8125C67.71 25.6562 67.5361 25.4473 67.4268 25.1855C67.3193 24.9219 67.2656 24.626 67.2656 24.2979ZM69.5713 24.3564C69.5713 24.0439 69.5156 23.7842 69.4043 23.5771C69.293 23.3682 69.124 23.2637 68.8975 23.2637C68.4404 23.2637 68.2119 23.6035 68.2119 24.2832C68.2119 24.4883 68.2354 24.6758 68.2822 24.8457C68.3311 25.0137 68.4062 25.1484 68.5078 25.25C68.6113 25.3516 68.7402 25.4023 68.8945 25.4023C69.3457 25.4023 69.5713 25.0537 69.5713 24.3564ZM72.2402 21.1309V26H71.3262V21.1309H72.2402ZM74.1914 22.6602V26H73.2773V22.6602H74.1914ZM73.166 21.6729C73.166 21.5752 73.1934 21.4844 73.248 21.4004C73.3027 21.3164 73.375 21.25 73.4648 21.2012C73.5547 21.1504 73.6494 21.125 73.749 21.125C73.9092 21.125 74.0371 21.1719 74.1328 21.2656C74.2285 21.3574 74.2764 21.4766 74.2764 21.623C74.2764 21.7207 74.249 21.8125 74.1943 21.8984C74.1416 21.9824 74.0703 22.0498 73.9805 22.1006C73.8926 22.1494 73.7979 22.1738 73.6963 22.1738C73.5967 22.1738 73.5068 22.1523 73.4268 22.1094C73.3467 22.0664 73.2832 22.0068 73.2363 21.9307C73.1895 21.8545 73.166 21.7686 73.166 21.6729ZM76.1836 21.541V23.3926H77.9209V21.541H78.8408V26H77.9209V24.0928H76.1836V26H75.252V21.541H76.1836ZM82.7695 22.6602V26.0469H82.166C82.0879 26.0469 82.0312 26.0352 81.9961 26.0117C81.9609 25.9902 81.9434 25.9453 81.9434 25.877V25.7246C81.8164 25.8145 81.6611 25.8906 81.4775 25.9531C81.2959 26.0156 81.126 26.0469 80.9678 26.0469C80.6631 26.0469 80.4307 25.9893 80.2705 25.874C80.1104 25.7588 80.0029 25.5996 79.9482 25.3965C79.8955 25.1934 79.8691 24.9316 79.8691 24.6113V22.6602H80.7832V24.6025C80.7832 24.8115 80.8008 24.9697 80.8359 25.0771C80.873 25.1826 80.9268 25.2539 80.9971 25.291C81.0693 25.3281 81.1689 25.3467 81.2959 25.3467C81.3936 25.3467 81.4971 25.3262 81.6064 25.2852C81.7158 25.2441 81.7988 25.2012 81.8555 25.1562V22.6602H82.7695ZM85.5967 22.6133C85.8408 22.6133 86.0635 22.6729 86.2646 22.792C86.4658 22.9092 86.626 23.0879 86.7451 23.3281C86.8662 23.5664 86.9268 23.8594 86.9268 24.207C86.9268 24.5723 86.8535 24.8965 86.707 25.1797C86.5605 25.4609 86.3545 25.6797 86.0889 25.8359C85.8252 25.9902 85.5225 26.0674 85.1807 26.0674C84.9932 26.0674 84.7969 26.0518 84.5918 26.0205C84.3887 25.9912 84.21 25.9561 84.0557 25.915C83.9014 25.874 83.8066 25.8398 83.7715 25.8125V21.1338H84.6855V22.4141L84.6621 22.9648C84.7676 22.8652 84.8945 22.7822 85.043 22.7158C85.1914 22.6475 85.376 22.6133 85.5967 22.6133ZM85.9688 24.2568C85.9688 23.9033 85.9131 23.6553 85.8018 23.5127C85.6904 23.3682 85.5283 23.2959 85.3154 23.2959C85.1943 23.2959 85.0771 23.3154 84.9639 23.3545C84.8525 23.3936 84.7598 23.4434 84.6855 23.5039V25.3203C84.7559 25.3965 84.9277 25.4346 85.2012 25.4346C85.3496 25.4346 85.4814 25.3887 85.5967 25.2969C85.7119 25.2031 85.8027 25.0674 85.8691 24.8896C85.9355 24.7119 85.9688 24.501 85.9688 24.2568Z" fill="#905B34"/>
<path d="M63.7734 27.6704V29.8999H63.5229V27.6704H63.7734ZM64.5996 28.2314L64.6011 28.4453C64.6812 28.3857 64.7783 28.3311 64.8926 28.2812C65.0078 28.2305 65.1211 28.2051 65.2324 28.2051C65.3506 28.2051 65.4443 28.2271 65.5137 28.271C65.584 28.314 65.6348 28.3833 65.666 28.479C65.6982 28.5747 65.7144 28.7041 65.7144 28.8672V29.8999H65.4697V28.8657C65.4697 28.7505 65.4595 28.6597 65.439 28.5933C65.4194 28.5269 65.3838 28.4785 65.332 28.4482C65.2812 28.418 65.2085 28.4048 65.1138 28.4087C65.0386 28.4097 64.9556 28.4307 64.8647 28.4717C64.7739 28.5117 64.6943 28.5591 64.626 28.6138V29.8999H64.3813V28.2314H64.5996ZM66.4863 28.2314L66.4878 28.4453C66.5679 28.3857 66.665 28.3311 66.7793 28.2812C66.8945 28.2305 67.0078 28.2051 67.1191 28.2051C67.2373 28.2051 67.3311 28.2271 67.4004 28.271C67.4707 28.314 67.5215 28.3833 67.5527 28.479C67.585 28.5747 67.6011 28.7041 67.6011 28.8672V29.8999H67.3564V28.8657C67.3564 28.7505 67.3462 28.6597 67.3257 28.5933C67.3062 28.5269 67.2705 28.4785 67.2188 28.4482C67.168 28.418 67.0952 28.4048 67.0005 28.4087C66.9253 28.4097 66.8423 28.4307 66.7515 28.4717C66.6606 28.5117 66.5811 28.5591 66.5127 28.6138V29.8999H66.2681V28.2314H66.4863ZM68.0259 29.0532C68.0259 28.8765 68.0586 28.7246 68.124 28.5977C68.1895 28.4697 68.2793 28.3726 68.3936 28.3062C68.5088 28.2397 68.6392 28.2065 68.7847 28.2065C68.9487 28.2065 69.085 28.2451 69.1934 28.3223C69.3018 28.3984 69.3813 28.5015 69.4321 28.6313C69.4839 28.7612 69.5098 28.9072 69.5098 29.0693C69.5098 29.2461 69.4775 29.3989 69.4131 29.5278C69.3486 29.6567 69.2593 29.7549 69.145 29.8223C69.0308 29.8896 68.9004 29.9233 68.7539 29.9233C68.5869 29.9233 68.4487 29.8843 68.3394 29.8062C68.231 29.728 68.1514 29.624 68.1006 29.4941C68.0508 29.3633 68.0259 29.2163 68.0259 29.0532ZM69.2622 29.0723C69.2622 28.9404 69.2441 28.8228 69.208 28.7192C69.1729 28.6157 69.1182 28.5342 69.0439 28.4746C68.9707 28.4141 68.8799 28.3838 68.7715 28.3838C68.668 28.3838 68.5791 28.4102 68.5049 28.4629C68.4307 28.5146 68.3735 28.5898 68.3335 28.6885C68.2944 28.7871 68.2749 28.9053 68.2749 29.043C68.2749 29.1748 68.2925 29.2939 68.3276 29.4004C68.3638 29.5068 68.4185 29.5918 68.4917 29.6553C68.5659 29.7178 68.6577 29.749 68.7671 29.749C68.8716 29.749 68.9609 29.7217 69.0352 29.667C69.1094 29.6123 69.1655 29.5342 69.2036 29.4326C69.2427 29.3311 69.2622 29.2109 69.2622 29.0723ZM71.2427 28.23L70.5952 29.9263H70.3872L69.7192 28.23H69.9829L70.3623 29.2671L70.4941 29.6729L70.6172 29.2671L70.9819 28.23H71.2427ZM72.1436 28.2051C72.2666 28.2051 72.3691 28.2197 72.4512 28.249C72.5342 28.2773 72.5986 28.3291 72.6445 28.4043C72.6904 28.4785 72.7134 28.583 72.7134 28.7178V29.9233H72.6138C72.5815 29.9233 72.5566 29.9209 72.5391 29.916C72.5215 29.9111 72.5078 29.9004 72.498 29.8838C72.4893 29.8672 72.4849 29.8413 72.4849 29.8062V29.7446C72.4321 29.7925 72.3599 29.8345 72.2681 29.8706C72.1763 29.9058 72.0757 29.9233 71.9663 29.9233C71.8677 29.9233 71.7798 29.9048 71.7026 29.8677C71.6255 29.8306 71.5654 29.7769 71.5225 29.7065C71.4795 29.6362 71.458 29.5537 71.458 29.459C71.458 29.3506 71.4883 29.2578 71.5488 29.1807C71.6104 29.1035 71.7002 29.043 71.8184 28.999C71.9082 28.9658 72.0137 28.9414 72.1348 28.9258C72.2559 28.9092 72.3677 28.9009 72.4702 28.9009V28.7075C72.4702 28.6206 72.4556 28.5542 72.4263 28.5083C72.397 28.4624 72.3545 28.4316 72.2988 28.416C72.2441 28.3994 72.1714 28.3911 72.0806 28.3911C72.0269 28.3911 71.9673 28.3984 71.9019 28.4131C71.8374 28.4277 71.7769 28.4463 71.7202 28.4688C71.6636 28.4902 71.6201 28.5117 71.5898 28.5332L71.5298 28.3721C71.5542 28.3555 71.5991 28.334 71.6646 28.3076C71.73 28.2812 71.8057 28.2578 71.8916 28.2373C71.9775 28.2158 72.0615 28.2051 72.1436 28.2051ZM72.0381 29.7402C72.1025 29.7402 72.165 29.7319 72.2256 29.7153C72.2861 29.6978 72.3384 29.6777 72.3823 29.6553C72.4263 29.6318 72.4556 29.6118 72.4702 29.5952V29.0576C72.3931 29.0576 72.3032 29.064 72.2007 29.0767C72.0991 29.0894 72.0166 29.1089 71.9531 29.1353C71.8682 29.1675 71.8047 29.2085 71.7627 29.2583C71.7207 29.3071 71.6997 29.3677 71.6997 29.4399C71.6997 29.5327 71.7271 29.606 71.7817 29.6597C71.8374 29.7134 71.9229 29.7402 72.0381 29.7402ZM73.3271 28.4146H73.0942V28.2812C73.1108 28.2764 73.1392 28.2695 73.1792 28.2607C73.2319 28.248 73.2715 28.2363 73.2979 28.2256C73.3242 28.2139 73.3418 28.1968 73.3506 28.1743C73.3564 28.1587 73.3667 28.1143 73.3813 28.041C73.397 27.9541 73.4111 27.8901 73.4238 27.8491H73.5703V28.23H74.0889V28.4146H73.5703V29.3667C73.5703 29.4761 73.5771 29.5562 73.5908 29.6069C73.6045 29.6567 73.626 29.6895 73.6553 29.7051C73.6855 29.7197 73.7314 29.7271 73.793 29.7271C73.8418 29.7271 73.8989 29.7183 73.9644 29.7007C74.0308 29.6821 74.0781 29.6631 74.1064 29.6436L74.1489 29.7856C74.105 29.8208 74.0391 29.8525 73.9512 29.8809C73.8633 29.9092 73.7822 29.9233 73.708 29.9233C73.6309 29.9233 73.5645 29.9126 73.5088 29.8911C73.4541 29.8687 73.4102 29.8271 73.377 29.7666C73.3438 29.7051 73.3271 29.6177 73.3271 29.5044V28.4146ZM74.7729 28.2314V29.8999H74.5298V28.2314H74.7729ZM74.4814 27.6997C74.4814 27.6646 74.4897 27.6328 74.5063 27.6045C74.5239 27.5762 74.5464 27.5537 74.5737 27.5371C74.6021 27.5205 74.6313 27.5122 74.6616 27.5122C74.7124 27.5122 74.751 27.5273 74.7773 27.5576C74.8047 27.5879 74.8184 27.6279 74.8184 27.6777C74.8184 27.7148 74.8101 27.748 74.7935 27.7773C74.7769 27.8057 74.7544 27.8276 74.7261 27.8433C74.6987 27.8589 74.6694 27.8667 74.6382 27.8667C74.5942 27.8667 74.5571 27.8516 74.5269 27.8213C74.4966 27.791 74.4814 27.7505 74.4814 27.6997ZM75.2358 29.0532C75.2358 28.8765 75.2686 28.7246 75.334 28.5977C75.3994 28.4697 75.4893 28.3726 75.6035 28.3062C75.7188 28.2397 75.8491 28.2065 75.9946 28.2065C76.1587 28.2065 76.2949 28.2451 76.4033 28.3223C76.5117 28.3984 76.5913 28.5015 76.6421 28.6313C76.6938 28.7612 76.7197 28.9072 76.7197 29.0693C76.7197 29.2461 76.6875 29.3989 76.623 29.5278C76.5586 29.6567 76.4692 29.7549 76.355 29.8223C76.2407 29.8896 76.1104 29.9233 75.9639 29.9233C75.7969 29.9233 75.6587 29.8843 75.5493 29.8062C75.4409 29.728 75.3613 29.624 75.3105 29.4941C75.2607 29.3633 75.2358 29.2163 75.2358 29.0532ZM76.4722 29.0723C76.4722 28.9404 76.4541 28.8228 76.418 28.7192C76.3828 28.6157 76.3281 28.5342 76.2539 28.4746C76.1807 28.4141 76.0898 28.3838 75.9814 28.3838C75.8779 28.3838 75.7891 28.4102 75.7148 28.4629C75.6406 28.5146 75.5835 28.5898 75.5435 28.6885C75.5044 28.7871 75.4849 28.9053 75.4849 29.043C75.4849 29.1748 75.5024 29.2939 75.5376 29.4004C75.5737 29.5068 75.6284 29.5918 75.7017 29.6553C75.7759 29.7178 75.8677 29.749 75.9771 29.749C76.0815 29.749 76.1709 29.7217 76.2451 29.667C76.3193 29.6123 76.3755 29.5342 76.4136 29.4326C76.4526 29.3311 76.4722 29.2109 76.4722 29.0723ZM77.376 28.2314L77.3774 28.4453C77.4575 28.3857 77.5547 28.3311 77.6689 28.2812C77.7842 28.2305 77.8975 28.2051 78.0088 28.2051C78.127 28.2051 78.2207 28.2271 78.29 28.271C78.3604 28.314 78.4111 28.3833 78.4424 28.479C78.4746 28.5747 78.4907 28.7041 78.4907 28.8672V29.8999H78.2461V28.8657C78.2461 28.7505 78.2358 28.6597 78.2153 28.5933C78.1958 28.5269 78.1602 28.4785 78.1084 28.4482C78.0576 28.418 77.9849 28.4048 77.8901 28.4087C77.8149 28.4097 77.7319 28.4307 77.6411 28.4717C77.5503 28.5117 77.4707 28.5591 77.4023 28.6138V29.8999H77.1577V28.2314H77.376ZM80.1445 27.6704C80.21 27.6704 80.2949 27.667 80.3994 27.6602C80.417 27.6592 80.457 27.6572 80.5195 27.6543C80.583 27.6514 80.6426 27.6499 80.6982 27.6499C80.9453 27.6499 81.1357 27.7075 81.2695 27.8228C81.4033 27.937 81.4702 28.1191 81.4702 28.3691C81.4702 28.5283 81.4365 28.6646 81.3691 28.7778C81.3018 28.8911 81.2051 28.9775 81.0791 29.0371C80.9541 29.0967 80.8057 29.127 80.6338 29.1279C80.5547 29.1289 80.4575 29.126 80.3423 29.1191L80.272 29.1162V29.8999H80.0244V27.6704H80.1445ZM80.6191 28.9448C80.8037 28.9429 80.9502 28.897 81.0586 28.8071C81.168 28.7163 81.2227 28.5708 81.2227 28.3706C81.2227 28.1831 81.1763 28.0459 81.0835 27.959C80.9907 27.8721 80.8481 27.8286 80.6558 27.8286C80.5103 27.8286 80.3823 27.8364 80.272 27.8521V28.9272C80.314 28.9331 80.3696 28.9375 80.439 28.9404C80.5083 28.9434 80.5684 28.9448 80.6191 28.9448ZM82.4443 28.2051C82.5674 28.2051 82.6699 28.2197 82.752 28.249C82.835 28.2773 82.8994 28.3291 82.9453 28.4043C82.9912 28.4785 83.0142 28.583 83.0142 28.7178V29.9233H82.9146C82.8823 29.9233 82.8574 29.9209 82.8398 29.916C82.8223 29.9111 82.8086 29.9004 82.7988 29.8838C82.79 29.8672 82.7856 29.8413 82.7856 29.8062V29.7446C82.7329 29.7925 82.6606 29.8345 82.5688 29.8706C82.4771 29.9058 82.3765 29.9233 82.2671 29.9233C82.1685 29.9233 82.0806 29.9048 82.0034 29.8677C81.9263 29.8306 81.8662 29.7769 81.8232 29.7065C81.7803 29.6362 81.7588 29.5537 81.7588 29.459C81.7588 29.3506 81.7891 29.2578 81.8496 29.1807C81.9111 29.1035 82.001 29.043 82.1191 28.999C82.209 28.9658 82.3145 28.9414 82.4355 28.9258C82.5566 28.9092 82.6685 28.9009 82.771 28.9009V28.7075C82.771 28.6206 82.7563 28.5542 82.7271 28.5083C82.6978 28.4624 82.6553 28.4316 82.5996 28.416C82.5449 28.3994 82.4722 28.3911 82.3813 28.3911C82.3276 28.3911 82.2681 28.3984 82.2026 28.4131C82.1382 28.4277 82.0776 28.4463 82.021 28.4688C81.9644 28.4902 81.9209 28.5117 81.8906 28.5332L81.8306 28.3721C81.855 28.3555 81.8999 28.334 81.9653 28.3076C82.0308 28.2812 82.1064 28.2578 82.1924 28.2373C82.2783 28.2158 82.3623 28.2051 82.4443 28.2051ZM82.3389 29.7402C82.4033 29.7402 82.4658 29.7319 82.5264 29.7153C82.5869 29.6978 82.6392 29.6777 82.6831 29.6553C82.7271 29.6318 82.7563 29.6118 82.771 29.5952V29.0576C82.6938 29.0576 82.604 29.064 82.5015 29.0767C82.3999 29.0894 82.3174 29.1089 82.2539 29.1353C82.1689 29.1675 82.1055 29.2085 82.0635 29.2583C82.0215 29.3071 82.0005 29.3677 82.0005 29.4399C82.0005 29.5327 82.0278 29.606 82.0825 29.6597C82.1382 29.7134 82.2236 29.7402 82.3389 29.7402ZM84.2783 28.2065C84.3535 28.2065 84.4062 28.2129 84.4365 28.2256V28.4556C84.3936 28.4331 84.3262 28.4219 84.2344 28.4219C84.1465 28.4219 84.0635 28.4414 83.9854 28.4805C83.9072 28.5195 83.8428 28.5645 83.792 28.6152V29.8999H83.5474V28.2314H83.7554L83.77 28.4541C83.7954 28.4209 83.835 28.3853 83.8887 28.3472C83.9434 28.3081 84.0049 28.2749 84.0732 28.2476C84.1426 28.2202 84.2109 28.2065 84.2783 28.2065ZM85.2627 29.0488L84.999 29.311L85.0049 29.5718V29.8999H84.7617V27.4668H85.0049V28.8628L84.999 29.043L85.7856 28.2314H86.0757L85.4238 28.8862L86.1475 29.8999H85.8677L85.2627 29.0488ZM63.4585 33.5879C63.521 33.626 63.604 33.6587 63.7075 33.686C63.811 33.7124 63.9136 33.7256 64.0151 33.7256C64.1743 33.7256 64.2983 33.6953 64.3872 33.6348C64.4761 33.5742 64.5205 33.4839 64.5205 33.3638C64.5205 33.2837 64.499 33.2158 64.4561 33.1602C64.4131 33.1035 64.3569 33.0552 64.2876 33.0151C64.2192 32.9751 64.1191 32.9253 63.9873 32.8657C63.5986 32.689 63.4043 32.4663 63.4043 32.1978C63.4043 32.0688 63.439 31.9634 63.5083 31.8813C63.5786 31.7983 63.668 31.7388 63.7764 31.7026C63.8848 31.6655 64.0005 31.647 64.1235 31.647C64.2505 31.647 64.3579 31.6592 64.4458 31.6836C64.5337 31.707 64.6021 31.7349 64.6509 31.7671L64.5996 31.9619C64.54 31.9238 64.4727 31.8945 64.3975 31.874C64.3223 31.8525 64.2305 31.8418 64.1221 31.8418C64.0391 31.8418 63.9609 31.854 63.8877 31.8784C63.8145 31.9019 63.7549 31.938 63.709 31.9868C63.6641 32.0356 63.6416 32.0952 63.6416 32.1655C63.6416 32.2456 63.6597 32.314 63.6958 32.3706C63.7329 32.4263 63.7847 32.4761 63.8511 32.52C63.9185 32.563 64.0132 32.6138 64.1353 32.6724C64.2651 32.7349 64.3726 32.7935 64.4575 32.8481C64.5435 32.9019 64.6157 32.9692 64.6743 33.0503C64.7339 33.1313 64.7637 33.2266 64.7637 33.3359C64.7637 33.4639 64.7329 33.5718 64.6714 33.6597C64.6099 33.7476 64.5239 33.8135 64.4136 33.8574C64.3042 33.9014 64.1768 33.9233 64.0312 33.9233C63.9395 33.9233 63.8501 33.9165 63.7632 33.9028C63.6772 33.8892 63.6021 33.8721 63.5376 33.8516C63.4731 33.8311 63.4268 33.811 63.3984 33.7915L63.4585 33.5879ZM65.2412 32.4146H65.0083V32.2812C65.0249 32.2764 65.0532 32.2695 65.0933 32.2607C65.146 32.248 65.1855 32.2363 65.2119 32.2256C65.2383 32.2139 65.2559 32.1968 65.2646 32.1743C65.2705 32.1587 65.2808 32.1143 65.2954 32.041C65.311 31.9541 65.3252 31.8901 65.3379 31.8491H65.4844V32.23H66.0029V32.4146H65.4844V33.3667C65.4844 33.4761 65.4912 33.5562 65.5049 33.6069C65.5186 33.6567 65.54 33.6895 65.5693 33.7051C65.5996 33.7197 65.6455 33.7271 65.707 33.7271C65.7559 33.7271 65.813 33.7183 65.8784 33.7007C65.9448 33.6821 65.9922 33.6631 66.0205 33.6436L66.063 33.7856C66.019 33.8208 65.9531 33.8525 65.8652 33.8809C65.7773 33.9092 65.6963 33.9233 65.6221 33.9233C65.5449 33.9233 65.4785 33.9126 65.4229 33.8911C65.3682 33.8687 65.3242 33.8271 65.291 33.7666C65.2578 33.7051 65.2412 33.6177 65.2412 33.5044V32.4146ZM66.9814 32.2051C67.1045 32.2051 67.207 32.2197 67.2891 32.249C67.3721 32.2773 67.4365 32.3291 67.4824 32.4043C67.5283 32.4785 67.5513 32.583 67.5513 32.7178V33.9233H67.4517C67.4194 33.9233 67.3945 33.9209 67.377 33.916C67.3594 33.9111 67.3457 33.9004 67.3359 33.8838C67.3271 33.8672 67.3228 33.8413 67.3228 33.8062V33.7446C67.27 33.7925 67.1978 33.8345 67.106 33.8706C67.0142 33.9058 66.9136 33.9233 66.8042 33.9233C66.7056 33.9233 66.6177 33.9048 66.5405 33.8677C66.4634 33.8306 66.4033 33.7769 66.3604 33.7065C66.3174 33.6362 66.2959 33.5537 66.2959 33.459C66.2959 33.3506 66.3262 33.2578 66.3867 33.1807C66.4482 33.1035 66.5381 33.043 66.6562 32.999C66.7461 32.9658 66.8516 32.9414 66.9727 32.9258C67.0938 32.9092 67.2056 32.9009 67.3081 32.9009V32.7075C67.3081 32.6206 67.2935 32.5542 67.2642 32.5083C67.2349 32.4624 67.1924 32.4316 67.1367 32.416C67.082 32.3994 67.0093 32.3911 66.9185 32.3911C66.8647 32.3911 66.8052 32.3984 66.7397 32.4131C66.6753 32.4277 66.6147 32.4463 66.5581 32.4688C66.5015 32.4902 66.458 32.5117 66.4277 32.5332L66.3677 32.3721C66.3921 32.3555 66.437 32.334 66.5024 32.3076C66.5679 32.2812 66.6436 32.2578 66.7295 32.2373C66.8154 32.2158 66.8994 32.2051 66.9814 32.2051ZM66.876 33.7402C66.9404 33.7402 67.0029 33.7319 67.0635 33.7153C67.124 33.6978 67.1763 33.6777 67.2202 33.6553C67.2642 33.6318 67.2935 33.6118 67.3081 33.5952V33.0576C67.231 33.0576 67.1411 33.064 67.0386 33.0767C66.937 33.0894 66.8545 33.1089 66.791 33.1353C66.7061 33.1675 66.6426 33.2085 66.6006 33.2583C66.5586 33.3071 66.5376 33.3677 66.5376 33.4399C66.5376 33.5327 66.5649 33.606 66.6196 33.6597C66.6753 33.7134 66.7607 33.7402 66.876 33.7402ZM68.8154 32.2065C68.8906 32.2065 68.9434 32.2129 68.9736 32.2256V32.4556C68.9307 32.4331 68.8633 32.4219 68.7715 32.4219C68.6836 32.4219 68.6006 32.4414 68.5225 32.4805C68.4443 32.5195 68.3799 32.5645 68.3291 32.6152V33.8999H68.0845V32.2314H68.2925L68.3071 32.4541C68.3325 32.4209 68.3721 32.3853 68.4258 32.3472C68.4805 32.3081 68.542 32.2749 68.6104 32.2476C68.6797 32.2202 68.748 32.2065 68.8154 32.2065ZM69.375 32.4146H69.1421V32.2812C69.1587 32.2764 69.187 32.2695 69.2271 32.2607C69.2798 32.248 69.3193 32.2363 69.3457 32.2256C69.3721 32.2139 69.3896 32.1968 69.3984 32.1743C69.4043 32.1587 69.4146 32.1143 69.4292 32.041C69.4448 31.9541 69.459 31.8901 69.4717 31.8491H69.6182V32.23H70.1367V32.4146H69.6182V33.3667C69.6182 33.4761 69.625 33.5562 69.6387 33.6069C69.6523 33.6567 69.6738 33.6895 69.7031 33.7051C69.7334 33.7197 69.7793 33.7271 69.8408 33.7271C69.8896 33.7271 69.9468 33.7183 70.0122 33.7007C70.0786 33.6821 70.126 33.6631 70.1543 33.6436L70.1968 33.7856C70.1528 33.8208 70.0869 33.8525 69.999 33.8809C69.9111 33.9092 69.8301 33.9233 69.7559 33.9233C69.6787 33.9233 69.6123 33.9126 69.5566 33.8911C69.502 33.8687 69.458 33.8271 69.4248 33.7666C69.3916 33.7051 69.375 33.6177 69.375 33.5044V32.4146ZM71.8271 32.23V33.9175H71.7334C71.6895 33.9175 71.6577 33.9111 71.6382 33.8984C71.6196 33.8857 71.6104 33.8589 71.6104 33.8179V33.7271C71.5303 33.7837 71.4365 33.8306 71.3291 33.8677C71.2217 33.9048 71.1206 33.9233 71.0259 33.9233C70.8882 33.9233 70.7837 33.8945 70.7124 33.8369C70.6421 33.7793 70.5952 33.7002 70.5718 33.5996C70.5483 33.499 70.5366 33.3691 70.5366 33.21V32.23H70.7798V33.2202C70.7798 33.3599 70.79 33.4653 70.8105 33.5366C70.832 33.6069 70.8667 33.6553 70.9146 33.6816C70.9624 33.708 71.0317 33.7212 71.1226 33.7212C71.2017 33.7212 71.2847 33.7051 71.3716 33.6729C71.4595 33.6406 71.5298 33.6045 71.5825 33.5645V32.23H71.8271ZM73.1162 32.2065C73.2363 32.2065 73.3462 32.2354 73.4458 32.293C73.5454 32.3506 73.625 32.4395 73.6846 32.5596C73.7451 32.6797 73.7754 32.8301 73.7754 33.0107C73.7754 33.1875 73.7407 33.3452 73.6714 33.4839C73.6021 33.6216 73.5039 33.7295 73.377 33.8076C73.25 33.8848 73.104 33.9233 72.939 33.9233C72.8228 33.9233 72.7139 33.9048 72.6123 33.8677L72.6167 34.1035V34.6411H72.3735V32.23H72.5933L72.5947 32.4248C72.6543 32.3652 72.7251 32.314 72.8071 32.271C72.8892 32.228 72.9922 32.2065 73.1162 32.2065ZM73.5264 33.0283C73.5264 32.8203 73.4849 32.6636 73.4019 32.5581C73.3188 32.4517 73.2017 32.3984 73.0503 32.3984C72.9634 32.3984 72.8818 32.4155 72.8057 32.4497C72.7305 32.4839 72.6675 32.5234 72.6167 32.5684V33.6611C72.646 33.6865 72.6895 33.707 72.7471 33.7227C72.8047 33.7373 72.876 33.7446 72.9609 33.7446C73.0703 33.7446 73.1675 33.7163 73.2524 33.6597C73.3384 33.603 73.4053 33.521 73.4531 33.4136C73.502 33.3052 73.5264 33.1768 73.5264 33.0283ZM76.3989 33.2876H75.4248L75.2007 33.8999H74.937L75.7983 31.647H76.0415L76.8823 33.8999H76.6143L76.3989 33.2876ZM76.3345 33.1016L75.9771 32.0835L75.9214 31.9077L75.8657 32.085L75.4937 33.1016H76.3345ZM77.874 32.2065C77.9648 32.2065 78.0469 32.2153 78.1201 32.2329C78.1934 32.2505 78.2466 32.2705 78.2798 32.293L78.2373 32.4863C78.1973 32.457 78.1445 32.4346 78.0791 32.4189C78.0137 32.4033 77.9409 32.3955 77.8608 32.3955C77.7642 32.3955 77.6748 32.4209 77.5928 32.4717C77.5117 32.5225 77.4463 32.5986 77.3965 32.7002C77.3477 32.8018 77.3232 32.9258 77.3232 33.0723C77.3232 33.2158 77.3467 33.3379 77.3936 33.4385C77.4404 33.5381 77.5034 33.6133 77.5825 33.6641C77.6616 33.7139 77.749 33.7388 77.8447 33.7388C77.9316 33.7388 78.0122 33.7271 78.0864 33.7036C78.1616 33.6792 78.2217 33.6523 78.2666 33.623L78.3179 33.7637C78.2651 33.8125 78.1929 33.8516 78.1011 33.8809C78.0103 33.9092 77.9126 33.9233 77.8081 33.9233C77.6587 33.9233 77.5293 33.8877 77.4199 33.8164C77.3115 33.7441 77.2285 33.645 77.1709 33.519C77.1143 33.3931 77.0859 33.25 77.0859 33.0898C77.085 32.9199 77.1152 32.7681 77.1768 32.6343C77.2383 32.5005 77.3281 32.396 77.4463 32.3208C77.5654 32.2446 77.708 32.2065 77.874 32.2065ZM79.3564 32.2065C79.4473 32.2065 79.5293 32.2153 79.6025 32.2329C79.6758 32.2505 79.729 32.2705 79.7622 32.293L79.7197 32.4863C79.6797 32.457 79.627 32.4346 79.5615 32.4189C79.4961 32.4033 79.4233 32.3955 79.3433 32.3955C79.2466 32.3955 79.1572 32.4209 79.0752 32.4717C78.9941 32.5225 78.9287 32.5986 78.8789 32.7002C78.8301 32.8018 78.8057 32.9258 78.8057 33.0723C78.8057 33.2158 78.8291 33.3379 78.876 33.4385C78.9229 33.5381 78.9858 33.6133 79.0649 33.6641C79.144 33.7139 79.2314 33.7388 79.3271 33.7388C79.4141 33.7388 79.4946 33.7271 79.5688 33.7036C79.644 33.6792 79.7041 33.6523 79.749 33.623L79.8003 33.7637C79.7476 33.8125 79.6753 33.8516 79.5835 33.8809C79.4927 33.9092 79.395 33.9233 79.2905 33.9233C79.1411 33.9233 79.0117 33.8877 78.9023 33.8164C78.7939 33.7441 78.7109 33.645 78.6533 33.519C78.5967 33.3931 78.5684 33.25 78.5684 33.0898C78.5674 32.9199 78.5977 32.7681 78.6592 32.6343C78.7207 32.5005 78.8105 32.396 78.9287 32.3208C79.0479 32.2446 79.1904 32.2065 79.3564 32.2065ZM80.2881 33.0898V33.1484C80.2949 33.3525 80.3472 33.502 80.4448 33.5967C80.5425 33.6914 80.6738 33.7388 80.8389 33.7388C80.9141 33.7388 80.9976 33.7275 81.0894 33.7051C81.1812 33.6826 81.249 33.6567 81.293 33.6274L81.3398 33.7695C81.2861 33.8145 81.2051 33.8516 81.0967 33.8809C80.9883 33.9092 80.8813 33.9233 80.7759 33.9233C80.6206 33.9233 80.4883 33.8896 80.3789 33.8223C80.2705 33.7549 80.188 33.6577 80.1313 33.5308C80.0757 33.4028 80.0479 33.25 80.0479 33.0723C80.0479 32.9023 80.0776 32.7524 80.1372 32.6226C80.1968 32.4917 80.2832 32.3896 80.3965 32.3164C80.5107 32.2432 80.647 32.2065 80.8052 32.2065C80.9204 32.2065 81.022 32.2324 81.1099 32.2842C81.1978 32.3359 81.2666 32.4092 81.3164 32.5039C81.3662 32.5986 81.3926 32.7085 81.3955 32.8335C81.3955 32.8999 81.3945 32.9517 81.3926 32.9888C81.3916 33.0249 81.3882 33.0586 81.3823 33.0898H80.2881ZM80.7817 32.3809C80.6509 32.3809 80.5425 32.4258 80.4565 32.5156C80.3716 32.6045 80.3184 32.7412 80.2969 32.9258H81.1655C81.1665 32.9111 81.167 32.8887 81.167 32.8584C81.167 32.7119 81.1362 32.5957 81.0747 32.5098C81.0132 32.4238 80.9155 32.3809 80.7817 32.3809ZM82.106 31.4624V33.8999H81.8613V31.4624H82.106ZM82.8105 33.0898V33.1484C82.8174 33.3525 82.8696 33.502 82.9673 33.5967C83.0649 33.6914 83.1963 33.7388 83.3613 33.7388C83.4365 33.7388 83.52 33.7275 83.6118 33.7051C83.7036 33.6826 83.7715 33.6567 83.8154 33.6274L83.8623 33.7695C83.8086 33.8145 83.7275 33.8516 83.6191 33.8809C83.5107 33.9092 83.4038 33.9233 83.2983 33.9233C83.1431 33.9233 83.0107 33.8896 82.9014 33.8223C82.793 33.7549 82.7104 33.6577 82.6538 33.5308C82.5981 33.4028 82.5703 33.25 82.5703 33.0723C82.5703 32.9023 82.6001 32.7524 82.6597 32.6226C82.7192 32.4917 82.8057 32.3896 82.9189 32.3164C83.0332 32.2432 83.1694 32.2065 83.3276 32.2065C83.4429 32.2065 83.5444 32.2324 83.6323 32.2842C83.7202 32.3359 83.7891 32.4092 83.8389 32.5039C83.8887 32.5986 83.915 32.7085 83.918 32.8335C83.918 32.8999 83.917 32.9517 83.915 32.9888C83.9141 33.0249 83.9106 33.0586 83.9048 33.0898H82.8105ZM83.3042 32.3809C83.1733 32.3809 83.0649 32.4258 82.979 32.5156C82.894 32.6045 82.8408 32.7412 82.8193 32.9258H83.688C83.689 32.9111 83.6895 32.8887 83.6895 32.8584C83.6895 32.7119 83.6587 32.5957 83.5972 32.5098C83.5356 32.4238 83.438 32.3809 83.3042 32.3809ZM85.0723 32.2065C85.1475 32.2065 85.2002 32.2129 85.2305 32.2256V32.4556C85.1875 32.4331 85.1201 32.4219 85.0283 32.4219C84.9404 32.4219 84.8574 32.4414 84.7793 32.4805C84.7012 32.5195 84.6367 32.5645 84.5859 32.6152V33.8999H84.3413V32.2314H84.5493L84.564 32.4541C84.5894 32.4209 84.6289 32.3853 84.6826 32.3472C84.7373 32.3081 84.7988 32.2749 84.8672 32.2476C84.9365 32.2202 85.0049 32.2065 85.0723 32.2065ZM86.127 32.2051C86.25 32.2051 86.3525 32.2197 86.4346 32.249C86.5176 32.2773 86.582 32.3291 86.6279 32.4043C86.6738 32.4785 86.6968 32.583 86.6968 32.7178V33.9233H86.5972C86.5649 33.9233 86.54 33.9209 86.5225 33.916C86.5049 33.9111 86.4912 33.9004 86.4814 33.8838C86.4727 33.8672 86.4683 33.8413 86.4683 33.8062V33.7446C86.4155 33.7925 86.3433 33.8345 86.2515 33.8706C86.1597 33.9058 86.0591 33.9233 85.9497 33.9233C85.8511 33.9233 85.7632 33.9048 85.686 33.8677C85.6089 33.8306 85.5488 33.7769 85.5059 33.7065C85.4629 33.6362 85.4414 33.5537 85.4414 33.459C85.4414 33.3506 85.4717 33.2578 85.5322 33.1807C85.5938 33.1035 85.6836 33.043 85.8018 32.999C85.8916 32.9658 85.9971 32.9414 86.1182 32.9258C86.2393 32.9092 86.3511 32.9009 86.4536 32.9009V32.7075C86.4536 32.6206 86.439 32.5542 86.4097 32.5083C86.3804 32.4624 86.3379 32.4316 86.2822 32.416C86.2275 32.3994 86.1548 32.3911 86.064 32.3911C86.0103 32.3911 85.9507 32.3984 85.8853 32.4131C85.8208 32.4277 85.7603 32.4463 85.7036 32.4688C85.647 32.4902 85.6035 32.5117 85.5732 32.5332L85.5132 32.3721C85.5376 32.3555 85.5825 32.334 85.6479 32.3076C85.7134 32.2812 85.7891 32.2578 85.875 32.2373C85.9609 32.2158 86.0449 32.2051 86.127 32.2051ZM86.0215 33.7402C86.0859 33.7402 86.1484 33.7319 86.209 33.7153C86.2695 33.6978 86.3218 33.6777 86.3657 33.6553C86.4097 33.6318 86.439 33.6118 86.4536 33.5952V33.0576C86.3765 33.0576 86.2866 33.064 86.1841 33.0767C86.0825 33.0894 86 33.1089 85.9365 33.1353C85.8516 33.1675 85.7881 33.2085 85.7461 33.2583C85.7041 33.3071 85.6831 33.3677 85.6831 33.4399C85.6831 33.5327 85.7104 33.606 85.7651 33.6597C85.8208 33.7134 85.9062 33.7402 86.0215 33.7402ZM87.3105 32.4146H87.0776V32.2812C87.0942 32.2764 87.1226 32.2695 87.1626 32.2607C87.2153 32.248 87.2549 32.2363 87.2812 32.2256C87.3076 32.2139 87.3252 32.1968 87.334 32.1743C87.3398 32.1587 87.3501 32.1143 87.3647 32.041C87.3804 31.9541 87.3945 31.8901 87.4072 31.8491H87.5537V32.23H88.0723V32.4146H87.5537V33.3667C87.5537 33.4761 87.5605 33.5562 87.5742 33.6069C87.5879 33.6567 87.6094 33.6895 87.6387 33.7051C87.6689 33.7197 87.7148 33.7271 87.7764 33.7271C87.8252 33.7271 87.8823 33.7183 87.9478 33.7007C88.0142 33.6821 88.0615 33.6631 88.0898 33.6436L88.1323 33.7856C88.0884 33.8208 88.0225 33.8525 87.9346 33.8809C87.8467 33.9092 87.7656 33.9233 87.6914 33.9233C87.6143 33.9233 87.5479 33.9126 87.4922 33.8911C87.4375 33.8687 87.3936 33.8271 87.3604 33.7666C87.3271 33.7051 87.3105 33.6177 87.3105 33.5044V32.4146ZM88.3579 33.0532C88.3579 32.8765 88.3906 32.7246 88.4561 32.5977C88.5215 32.4697 88.6113 32.3726 88.7256 32.3062C88.8408 32.2397 88.9712 32.2065 89.1167 32.2065C89.2808 32.2065 89.417 32.2451 89.5254 32.3223C89.6338 32.3984 89.7134 32.5015 89.7642 32.6313C89.8159 32.7612 89.8418 32.9072 89.8418 33.0693C89.8418 33.2461 89.8096 33.3989 89.7451 33.5278C89.6807 33.6567 89.5913 33.7549 89.4771 33.8223C89.3628 33.8896 89.2324 33.9233 89.0859 33.9233C88.9189 33.9233 88.7808 33.8843 88.6714 33.8062C88.563 33.728 88.4834 33.624 88.4326 33.4941C88.3828 33.3633 88.3579 33.2163 88.3579 33.0532ZM89.5942 33.0723C89.5942 32.9404 89.5762 32.8228 89.54 32.7192C89.5049 32.6157 89.4502 32.5342 89.376 32.4746C89.3027 32.4141 89.2119 32.3838 89.1035 32.3838C89 32.3838 88.9111 32.4102 88.8369 32.4629C88.7627 32.5146 88.7056 32.5898 88.6655 32.6885C88.6265 32.7871 88.6069 32.9053 88.6069 33.043C88.6069 33.1748 88.6245 33.2939 88.6597 33.4004C88.6958 33.5068 88.7505 33.5918 88.8237 33.6553C88.8979 33.7178 88.9897 33.749 89.0991 33.749C89.2036 33.749 89.293 33.7217 89.3672 33.667C89.4414 33.6123 89.4976 33.5342 89.5356 33.4326C89.5747 33.3311 89.5942 33.2109 89.5942 33.0723ZM90.999 32.2065C91.0742 32.2065 91.127 32.2129 91.1572 32.2256V32.4556C91.1143 32.4331 91.0469 32.4219 90.9551 32.4219C90.8672 32.4219 90.7842 32.4414 90.7061 32.4805C90.6279 32.5195 90.5635 32.5645 90.5127 32.6152V33.8999H90.2681V32.2314H90.4761L90.4907 32.4541C90.5161 32.4209 90.5557 32.3853 90.6094 32.3472C90.6641 32.3081 90.7256 32.2749 90.7939 32.2476C90.8633 32.2202 90.9316 32.2065 90.999 32.2065Z" fill="#905B34"/>
<path d="M51.6995 54L51.6875 48.432L48.9275 53.04H48.2315L45.4715 48.504V54H43.9835V45.6H45.2675L48.6035 51.168L51.8795 45.6H53.1635L53.1755 54H51.6995ZM61.3244 50.832C61.3244 50.936 61.3164 51.084 61.3004 51.276H56.2724C56.3604 51.748 56.5884 52.124 56.9564 52.404C57.3324 52.676 57.7964 52.812 58.3484 52.812C59.0524 52.812 59.6324 52.58 60.0884 52.116L60.8924 53.04C60.6044 53.384 60.2404 53.644 59.8004 53.82C59.3604 53.996 58.8644 54.084 58.3124 54.084C57.6084 54.084 56.9884 53.944 56.4524 53.664C55.9164 53.384 55.5004 52.996 55.2044 52.5C54.9164 51.996 54.7724 51.428 54.7724 50.796C54.7724 50.172 54.9124 49.612 55.1924 49.116C55.4804 48.612 55.8764 48.22 56.3804 47.94C56.8844 47.66 57.4524 47.52 58.0844 47.52C58.7084 47.52 59.2644 47.66 59.7524 47.94C60.2484 48.212 60.6324 48.6 60.9044 49.104C61.1844 49.6 61.3244 50.176 61.3244 50.832ZM58.0844 48.72C57.6044 48.72 57.1964 48.864 56.8604 49.152C56.5324 49.432 56.3324 49.808 56.2604 50.28H59.8964C59.8324 49.816 59.6364 49.44 59.3084 49.152C58.9804 48.864 58.5724 48.72 58.0844 48.72ZM70.8533 47.52C71.6613 47.52 72.3013 47.756 72.7733 48.228C73.2453 48.692 73.4813 49.392 73.4813 50.328V54H71.9813V50.52C71.9813 49.96 71.8573 49.54 71.6093 49.26C71.3613 48.972 71.0053 48.828 70.5413 48.828C70.0373 48.828 69.6333 48.996 69.3293 49.332C69.0253 49.66 68.8733 50.132 68.8733 50.748V54H67.3733V50.52C67.3733 49.96 67.2493 49.54 67.0013 49.26C66.7533 48.972 66.3973 48.828 65.9333 48.828C65.4213 48.828 65.0133 48.992 64.7093 49.32C64.4133 49.648 64.2653 50.124 64.2653 50.748V54H62.7653V47.592H64.1933V48.408C64.4333 48.12 64.7333 47.9 65.0933 47.748C65.4533 47.596 65.8533 47.52 66.2933 47.52C66.7733 47.52 67.1973 47.612 67.5653 47.796C67.9413 47.972 68.2373 48.236 68.4533 48.588C68.7173 48.252 69.0573 47.992 69.4733 47.808C69.8893 47.616 70.3493 47.52 70.8533 47.52ZM78.9501 47.52C79.5741 47.52 80.1301 47.656 80.6181 47.928C81.1141 48.2 81.5021 48.584 81.7821 49.08C82.0621 49.576 82.2021 50.148 82.2021 50.796C82.2021 51.444 82.0621 52.02 81.7821 52.524C81.5021 53.02 81.1141 53.404 80.6181 53.676C80.1301 53.948 79.5741 54.084 78.9501 54.084C78.5101 54.084 78.1061 54.008 77.7381 53.856C77.3781 53.704 77.0741 53.476 76.8261 53.172V54H75.3981V45.096H76.8981V48.372C77.1541 48.092 77.4541 47.88 77.7981 47.736C78.1501 47.592 78.5341 47.52 78.9501 47.52ZM78.7821 52.8C79.3341 52.8 79.7861 52.616 80.1381 52.248C80.4981 51.88 80.6781 51.396 80.6781 50.796C80.6781 50.196 80.4981 49.712 80.1381 49.344C79.7861 48.976 79.3341 48.792 78.7821 48.792C78.4221 48.792 78.0981 48.876 77.8101 49.044C77.5221 49.204 77.2941 49.436 77.1261 49.74C76.9581 50.044 76.8741 50.396 76.8741 50.796C76.8741 51.196 76.9581 51.548 77.1261 51.852C77.2941 52.156 77.5221 52.392 77.8101 52.56C78.0981 52.72 78.4221 52.8 78.7821 52.8ZM89.6486 50.832C89.6486 50.936 89.6406 51.084 89.6246 51.276H84.5966C84.6846 51.748 84.9126 52.124 85.2806 52.404C85.6566 52.676 86.1206 52.812 86.6726 52.812C87.3766 52.812 87.9566 52.58 88.4126 52.116L89.2166 53.04C88.9286 53.384 88.5646 53.644 88.1246 53.82C87.6846 53.996 87.1886 54.084 86.6366 54.084C85.9326 54.084 85.3126 53.944 84.7766 53.664C84.2406 53.384 83.8246 52.996 83.5286 52.5C83.2406 51.996 83.0966 51.428 83.0966 50.796C83.0966 50.172 83.2366 49.612 83.5166 49.116C83.8046 48.612 84.2006 48.22 84.7046 47.94C85.2086 47.66 85.7766 47.52 86.4086 47.52C87.0326 47.52 87.5886 47.66 88.0766 47.94C88.5726 48.212 88.9566 48.6 89.2286 49.104C89.5086 49.6 89.6486 50.176 89.6486 50.832ZM86.4086 48.72C85.9286 48.72 85.5206 48.864 85.1846 49.152C84.8566 49.432 84.6566 49.808 84.5846 50.28H88.2206C88.1566 49.816 87.9606 49.44 87.6326 49.152C87.3046 48.864 86.8966 48.72 86.4086 48.72ZM92.5175 48.528C92.9495 47.856 93.7095 47.52 94.7975 47.52V48.948C94.6695 48.924 94.5535 48.912 94.4495 48.912C93.8655 48.912 93.4095 49.084 93.0815 49.428C92.7535 49.764 92.5895 50.252 92.5895 50.892V54H91.0895V47.592H92.5175V48.528ZM17.8127 58.4C18.5274 58.4 19.0874 58.5707 19.4927 58.912C19.898 59.2533 20.1007 59.7227 20.1007 60.32C20.1007 60.9173 19.898 61.3867 19.4927 61.728C19.0874 62.064 18.5274 62.232 17.8127 62.232H16.3087V64H15.7167V58.4H17.8127ZM17.7967 61.712C18.3514 61.712 18.7754 61.592 19.0687 61.352C19.362 61.1067 19.5087 60.7627 19.5087 60.32C19.5087 59.8667 19.362 59.52 19.0687 59.28C18.7754 59.0347 18.3514 58.912 17.7967 58.912H16.3087V61.712H17.7967ZM22.9573 64.04C22.552 64.04 22.1866 63.9493 21.8613 63.768C21.536 63.5813 21.28 63.3253 21.0933 63C20.9066 62.6747 20.8133 62.3067 20.8133 61.896C20.8133 61.4853 20.9066 61.1173 21.0933 60.792C21.28 60.4667 21.536 60.2133 21.8613 60.032C22.1866 59.8507 22.552 59.76 22.9573 59.76C23.3626 59.76 23.728 59.8507 24.0533 60.032C24.3786 60.2133 24.632 60.4667 24.8133 60.792C25 61.1173 25.0933 61.4853 25.0933 61.896C25.0933 62.3067 25 62.6747 24.8133 63C24.632 63.3253 24.3786 63.5813 24.0533 63.768C23.728 63.9493 23.3626 64.04 22.9573 64.04ZM22.9573 63.536C23.256 63.536 23.5226 63.4693 23.7573 63.336C23.9973 63.1973 24.184 63.0027 24.3173 62.752C24.4506 62.5013 24.5173 62.216 24.5173 61.896C24.5173 61.576 24.4506 61.2907 24.3173 61.04C24.184 60.7893 23.9973 60.5973 23.7573 60.464C23.5226 60.3253 23.256 60.256 22.9573 60.256C22.6586 60.256 22.3893 60.3253 22.1493 60.464C21.9146 60.5973 21.728 60.7893 21.5893 61.04C21.456 61.2907 21.3893 61.576 21.3893 61.896C21.3893 62.216 21.456 62.5013 21.5893 62.752C21.728 63.0027 21.9146 63.1973 22.1493 63.336C22.3893 63.4693 22.6586 63.536 22.9573 63.536ZM26.2529 58.064H26.8209V64H26.2529V58.064ZM28.4014 59.792H28.9694V64H28.4014V59.792ZM28.6894 58.872C28.572 58.872 28.4734 58.832 28.3934 58.752C28.3134 58.672 28.2734 58.576 28.2734 58.464C28.2734 58.3573 28.3134 58.264 28.3934 58.184C28.4734 58.104 28.572 58.064 28.6894 58.064C28.8067 58.064 28.9054 58.104 28.9854 58.184C29.0654 58.2587 29.1054 58.3493 29.1054 58.456C29.1054 58.5733 29.0654 58.672 28.9854 58.752C28.9054 58.832 28.8067 58.872 28.6894 58.872ZM35.3498 58.4V64H34.7658V61.416H31.2618V64H30.6698V58.4H31.2618V60.896H34.7658V58.4H35.3498ZM40.8496 59.792V64H40.3056V63.232C40.1563 63.488 39.951 63.688 39.6896 63.832C39.4283 63.9707 39.1296 64.04 38.7936 64.04C38.2443 64.04 37.8096 63.888 37.4896 63.584C37.175 63.2747 37.0176 62.824 37.0176 62.232V59.792H37.5856V62.176C37.5856 62.6187 37.695 62.9547 37.9136 63.184C38.1323 63.4133 38.4443 63.528 38.8496 63.528C39.2923 63.528 39.6416 63.3947 39.8976 63.128C40.1536 62.856 40.2816 62.48 40.2816 62V59.792H40.8496ZM44.6084 59.76C45.0031 59.76 45.3604 59.8507 45.6804 60.032C46.0004 60.208 46.2511 60.4587 46.4324 60.784C46.6138 61.1093 46.7044 61.48 46.7044 61.896C46.7044 62.312 46.6138 62.6827 46.4324 63.008C46.2511 63.3333 46.0004 63.5867 45.6804 63.768C45.3604 63.9493 45.0031 64.04 44.6084 64.04C44.2564 64.04 43.9391 63.9653 43.6564 63.816C43.3791 63.6667 43.1551 63.4507 42.9844 63.168V64H42.4404V58.064H43.0084V60.592C43.1844 60.32 43.4084 60.1147 43.6804 59.976C43.9578 59.832 44.2671 59.76 44.6084 59.76ZM44.5684 63.536C44.8618 63.536 45.1284 63.4693 45.3684 63.336C45.6084 63.1973 45.7951 63.0027 45.9284 62.752C46.0671 62.5013 46.1364 62.216 46.1364 61.896C46.1364 61.576 46.0671 61.2907 45.9284 61.04C45.7951 60.7893 45.6084 60.5973 45.3684 60.464C45.1284 60.3253 44.8618 60.256 44.5684 60.256C44.2698 60.256 44.0004 60.3253 43.7604 60.464C43.5258 60.5973 43.3391 60.7893 43.2004 61.04C43.0671 61.2907 43.0004 61.576 43.0004 61.896C43.0004 62.216 43.0671 62.5013 43.2004 62.752C43.3391 63.0027 43.5258 63.1973 43.7604 63.336C44.0004 63.4693 44.2698 63.536 44.5684 63.536ZM50.0761 58.4H50.6681V64H50.0761V58.4ZM54.5141 59.76C55.0421 59.76 55.4608 59.9147 55.7701 60.224C56.0848 60.528 56.2421 60.9733 56.2421 61.56V64H55.6741V61.616C55.6741 61.1787 55.5648 60.8453 55.3461 60.616C55.1275 60.3867 54.8155 60.272 54.4101 60.272C53.9568 60.272 53.5968 60.408 53.3301 60.68C53.0688 60.9467 52.9381 61.3173 52.9381 61.792V64H52.3701V59.792H52.9141V60.568C53.0688 60.312 53.2821 60.1147 53.5541 59.976C53.8315 59.832 54.1515 59.76 54.5141 59.76ZM59.9282 59.76C60.4562 59.76 60.8749 59.9147 61.1842 60.224C61.4989 60.528 61.6562 60.9733 61.6562 61.56V64H61.0882V61.616C61.0882 61.1787 60.9789 60.8453 60.7602 60.616C60.5415 60.3867 60.2295 60.272 59.8242 60.272C59.3709 60.272 59.0109 60.408 58.7442 60.68C58.4829 60.9467 58.3522 61.3173 58.3522 61.792V64H57.7842V59.792H58.3282V60.568C58.4829 60.312 58.6962 60.1147 58.9682 59.976C59.2455 59.832 59.5655 59.76 59.9282 59.76ZM64.9339 64.04C64.5285 64.04 64.1632 63.9493 63.8379 63.768C63.5125 63.5813 63.2565 63.3253 63.0699 63C62.8832 62.6747 62.7899 62.3067 62.7899 61.896C62.7899 61.4853 62.8832 61.1173 63.0699 60.792C63.2565 60.4667 63.5125 60.2133 63.8379 60.032C64.1632 59.8507 64.5285 59.76 64.9339 59.76C65.3392 59.76 65.7045 59.8507 66.0299 60.032C66.3552 60.2133 66.6085 60.4667 66.7899 60.792C66.9765 61.1173 67.0699 61.4853 67.0699 61.896C67.0699 62.3067 66.9765 62.6747 66.7899 63C66.6085 63.3253 66.3552 63.5813 66.0299 63.768C65.7045 63.9493 65.3392 64.04 64.9339 64.04ZM64.9339 63.536C65.2325 63.536 65.4992 63.4693 65.7339 63.336C65.9739 63.1973 66.1605 63.0027 66.2939 62.752C66.4272 62.5013 66.4939 62.216 66.4939 61.896C66.4939 61.576 66.4272 61.2907 66.2939 61.04C66.1605 60.7893 65.9739 60.5973 65.7339 60.464C65.4992 60.3253 65.2325 60.256 64.9339 60.256C64.6352 60.256 64.3659 60.3253 64.1259 60.464C63.8912 60.5973 63.7045 60.7893 63.5659 61.04C63.4325 61.2907 63.3659 61.576 63.3659 61.896C63.3659 62.216 63.4325 62.5013 63.5659 62.752C63.7045 63.0027 63.8912 63.1973 64.1259 63.336C64.3659 63.4693 64.6352 63.536 64.9339 63.536ZM71.6483 59.792L69.7763 64H69.1923L67.3283 59.792H67.9203L69.4963 63.376L71.0883 59.792H71.6483ZM73.7953 59.76C74.3446 59.76 74.7659 59.8987 75.0593 60.176C75.3526 60.448 75.4993 60.8533 75.4993 61.392V64H74.9553V63.344C74.8273 63.5627 74.6379 63.7333 74.3873 63.856C74.1419 63.9787 73.8486 64.04 73.5073 64.04C73.0379 64.04 72.6646 63.928 72.3873 63.704C72.1099 63.48 71.9713 63.184 71.9713 62.816C71.9713 62.4587 72.0993 62.1707 72.3553 61.952C72.6166 61.7333 73.0299 61.624 73.5953 61.624H74.9313V61.368C74.9313 61.0053 74.8299 60.7307 74.6273 60.544C74.4246 60.352 74.1286 60.256 73.7393 60.256C73.4726 60.256 73.2166 60.3013 72.9713 60.392C72.7259 60.4773 72.5153 60.5973 72.3393 60.752L72.0833 60.328C72.2966 60.1467 72.5526 60.008 72.8513 59.912C73.1499 59.8107 73.4646 59.76 73.7953 59.76ZM73.5953 63.592C73.9153 63.592 74.1899 63.52 74.4193 63.376C74.6486 63.2267 74.8193 63.0133 74.9313 62.736V62.048H73.6113C72.8913 62.048 72.5312 62.2987 72.5312 62.8C72.5312 63.0453 72.6246 63.24 72.8113 63.384C72.9979 63.5227 73.2593 63.592 73.5953 63.592ZM79.258 63.744C79.1513 63.84 79.018 63.9147 78.858 63.968C78.7033 64.016 78.5407 64.04 78.37 64.04C77.9753 64.04 77.6713 63.9333 77.458 63.72C77.2447 63.5067 77.138 63.2053 77.138 62.816V60.272H76.386V59.792H77.138V58.872H77.706V59.792H78.986V60.272H77.706V62.784C77.706 63.0347 77.7673 63.2267 77.89 63.36C78.018 63.488 78.1993 63.552 78.434 63.552C78.5513 63.552 78.6633 63.5333 78.77 63.496C78.882 63.4587 78.978 63.4053 79.058 63.336L79.258 63.744ZM80.292 59.792H80.86V64H80.292V59.792ZM80.58 58.872C80.4627 58.872 80.364 58.832 80.284 58.752C80.204 58.672 80.164 58.576 80.164 58.464C80.164 58.3573 80.204 58.264 80.284 58.184C80.364 58.104 80.4627 58.064 80.58 58.064C80.6973 58.064 80.796 58.104 80.876 58.184C80.956 58.2587 80.996 58.3493 80.996 58.456C80.996 58.5733 80.956 58.672 80.876 58.752C80.796 58.832 80.6973 58.872 80.58 58.872ZM84.1604 64.04C83.7551 64.04 83.3898 63.9493 83.0644 63.768C82.7391 63.5813 82.4831 63.3253 82.2964 63C82.1098 62.6747 82.0164 62.3067 82.0164 61.896C82.0164 61.4853 82.1098 61.1173 82.2964 60.792C82.4831 60.4667 82.7391 60.2133 83.0644 60.032C83.3898 59.8507 83.7551 59.76 84.1604 59.76C84.5658 59.76 84.9311 59.8507 85.2564 60.032C85.5818 60.2133 85.8351 60.4667 86.0164 60.792C86.2031 61.1173 86.2964 61.4853 86.2964 61.896C86.2964 62.3067 86.2031 62.6747 86.0164 63C85.8351 63.3253 85.5818 63.5813 85.2564 63.768C84.9311 63.9493 84.5658 64.04 84.1604 64.04ZM84.1604 63.536C84.4591 63.536 84.7258 63.4693 84.9604 63.336C85.2004 63.1973 85.3871 63.0027 85.5204 62.752C85.6538 62.5013 85.7204 62.216 85.7204 61.896C85.7204 61.576 85.6538 61.2907 85.5204 61.04C85.3871 60.7893 85.2004 60.5973 84.9604 60.464C84.7258 60.3253 84.4591 60.256 84.1604 60.256C83.8618 60.256 83.5924 60.3253 83.3524 60.464C83.1178 60.5973 82.9311 60.7893 82.7924 61.04C82.6591 61.2907 82.5924 61.576 82.5924 61.896C82.5924 62.216 82.6591 62.5013 82.7924 62.752C82.9311 63.0027 83.1178 63.1973 83.3524 63.336C83.5924 63.4693 83.8618 63.536 84.1604 63.536ZM89.6001 59.76C90.1281 59.76 90.5467 59.9147 90.8561 60.224C91.1707 60.528 91.3281 60.9733 91.3281 61.56V64H90.7601V61.616C90.7601 61.1787 90.6507 60.8453 90.4321 60.616C90.2134 60.3867 89.9014 60.272 89.4961 60.272C89.0427 60.272 88.6827 60.408 88.4161 60.68C88.1547 60.9467 88.0241 61.3173 88.0241 61.792V64H87.4561V59.792H88.0001V60.568C88.1547 60.312 88.3681 60.1147 88.6401 59.976C88.9174 59.832 89.2374 59.76 89.6001 59.76ZM95.0839 58.4H97.3639C97.9559 58.4 98.4785 58.52 98.9319 58.76C99.3852 58.9947 99.7372 59.3253 99.9879 59.752C100.239 60.1733 100.364 60.656 100.364 61.2C100.364 61.744 100.239 62.2293 99.9879 62.656C99.7372 63.0773 99.3852 63.408 98.9319 63.648C98.4785 63.8827 97.9559 64 97.3639 64H95.0839V58.4ZM97.3319 63.488C97.8225 63.488 98.2519 63.392 98.6199 63.2C98.9879 63.0027 99.2732 62.7333 99.4759 62.392C99.6785 62.0453 99.7799 61.648 99.7799 61.2C99.7799 60.752 99.6785 60.3573 99.4759 60.016C99.2732 59.6693 98.9879 59.4 98.6199 59.208C98.2519 59.0107 97.8225 58.912 97.3319 58.912H95.6759V63.488H97.3319ZM101.573 59.792H102.141V64H101.573V59.792ZM101.861 58.872C101.744 58.872 101.645 58.832 101.565 58.752C101.485 58.672 101.445 58.576 101.445 58.464C101.445 58.3573 101.485 58.264 101.565 58.184C101.645 58.104 101.744 58.064 101.861 58.064C101.979 58.064 102.077 58.104 102.157 58.184C102.237 58.2587 102.277 58.3493 102.277 58.456C102.277 58.5733 102.237 58.672 102.157 58.752C102.077 58.832 101.979 58.872 101.861 58.872ZM104.85 64.04C104.508 64.04 104.18 63.992 103.866 63.896C103.556 63.7947 103.314 63.6693 103.138 63.52L103.394 63.072C103.57 63.2107 103.791 63.3253 104.058 63.416C104.324 63.5013 104.602 63.544 104.89 63.544C105.274 63.544 105.556 63.4853 105.738 63.368C105.924 63.2453 106.018 63.0747 106.018 62.856C106.018 62.7013 105.967 62.5813 105.866 62.496C105.764 62.4053 105.636 62.3387 105.482 62.296C105.327 62.248 105.122 62.2027 104.866 62.16C104.524 62.096 104.25 62.032 104.042 61.968C103.834 61.8987 103.655 61.784 103.506 61.624C103.362 61.464 103.29 61.2427 103.29 60.96C103.29 60.608 103.436 60.32 103.73 60.096C104.023 59.872 104.431 59.76 104.954 59.76C105.226 59.76 105.498 59.7973 105.77 59.872C106.042 59.9413 106.266 60.0347 106.442 60.152L106.194 60.608C105.847 60.368 105.434 60.248 104.954 60.248C104.591 60.248 104.316 60.312 104.13 60.44C103.948 60.568 103.858 60.736 103.858 60.944C103.858 61.104 103.908 61.232 104.01 61.328C104.116 61.424 104.247 61.496 104.402 61.544C104.556 61.5867 104.77 61.632 105.042 61.68C105.378 61.744 105.647 61.808 105.85 61.872C106.052 61.936 106.226 62.0453 106.37 62.2C106.514 62.3547 106.586 62.568 106.586 62.84C106.586 63.208 106.431 63.5013 106.122 63.72C105.818 63.9333 105.394 64.04 104.85 64.04ZM109.852 63.744C109.745 63.84 109.612 63.9147 109.452 63.968C109.297 64.016 109.134 64.04 108.964 64.04C108.569 64.04 108.265 63.9333 108.052 63.72C107.838 63.5067 107.732 63.2053 107.732 62.816V60.272H106.98V59.792H107.732V58.872H108.3V59.792H109.58V60.272H108.3V62.784C108.3 63.0347 108.361 63.2267 108.484 63.36C108.612 63.488 108.793 63.552 109.028 63.552C109.145 63.552 109.257 63.5333 109.364 63.496C109.476 63.4587 109.572 63.4053 109.652 63.336L109.852 63.744ZM111.43 60.616C111.563 60.3333 111.76 60.12 112.022 59.976C112.288 59.832 112.616 59.76 113.006 59.76V60.312L112.87 60.304C112.427 60.304 112.08 60.44 111.83 60.712C111.579 60.984 111.454 61.3653 111.454 61.856V64H110.886V59.792H111.43V60.616ZM114.034 59.792H114.602V64H114.034V59.792ZM114.322 58.872C114.205 58.872 114.106 58.832 114.026 58.752C113.946 58.672 113.906 58.576 113.906 58.464C113.906 58.3573 113.946 58.264 114.026 58.184C114.106 58.104 114.205 58.064 114.322 58.064C114.44 58.064 114.538 58.104 114.618 58.184C114.698 58.2587 114.738 58.3493 114.738 58.456C114.738 58.5733 114.698 58.672 114.618 58.752C114.538 58.832 114.44 58.872 114.322 58.872ZM117.927 64.04C117.511 64.04 117.137 63.9493 116.807 63.768C116.481 63.5867 116.225 63.3333 116.039 63.008C115.852 62.6773 115.759 62.3067 115.759 61.896C115.759 61.4853 115.852 61.1173 116.039 60.792C116.225 60.4667 116.481 60.2133 116.807 60.032C117.137 59.8507 117.511 59.76 117.927 59.76C118.289 59.76 118.612 59.832 118.895 59.976C119.183 60.1147 119.409 60.32 119.575 60.592L119.151 60.88C119.012 60.672 118.836 60.5173 118.623 60.416C118.409 60.3093 118.177 60.256 117.927 60.256C117.623 60.256 117.348 60.3253 117.103 60.464C116.863 60.5973 116.673 60.7893 116.535 61.04C116.401 61.2907 116.335 61.576 116.335 61.896C116.335 62.2213 116.401 62.5093 116.535 62.76C116.673 63.0053 116.863 63.1973 117.103 63.336C117.348 63.4693 117.623 63.536 117.927 63.536C118.177 63.536 118.409 63.4853 118.623 63.384C118.836 63.2827 119.012 63.128 119.151 62.92L119.575 63.208C119.409 63.48 119.183 63.688 118.895 63.832C118.607 63.9707 118.284 64.04 117.927 64.04ZM122.953 63.744C122.847 63.84 122.713 63.9147 122.553 63.968C122.399 64.016 122.236 64.04 122.065 64.04C121.671 64.04 121.367 63.9333 121.153 63.72C120.94 63.5067 120.833 63.2053 120.833 62.816V60.272H120.081V59.792H120.833V58.872H121.401V59.792H122.681V60.272H121.401V62.784C121.401 63.0347 121.463 63.2267 121.585 63.36C121.713 63.488 121.895 63.552 122.129 63.552C122.247 63.552 122.359 63.5333 122.465 63.496C122.577 63.4587 122.673 63.4053 122.753 63.336L122.953 63.744Z" fill="#BA8C5C"/>
</svg>
