<svg width="543" height="158" fill="none" xmlns="http://www.w3.org/2000/svg"><path d="M526.671 52.655c-12.578-2.69-57.709-7.395-64.806-7.74-58.919-2.874-222.207 6.524-223.845 6.63-.212.01-21.304 1.027-51.514 1.211-62.574.382-108.358 2.597-128.415 12.17-17.25 8.233-25.41 22.553-29.216 33.12-4.124 11.443-4.17 21.071-4.17 21.167h.46c0-.096.05-9.655 4.147-21.024 3.779-10.48 11.874-24.685 28.976-32.844 10.328-4.927 27.532-7.897 50.373-9.67-21.253 1.755-38.646 4.656-48.863 9.472-12.638 5.944-21.976 15.734-27.757 29.096-4.496 10.397-5.449 19.933-5.647 23.552-.046.861-.05 1.432-.05 1.437l.46.004c0-.004.004-.566.05-1.418.346-6.285 3.576-38.346 33.137-52.252 8.243-3.886 21.194-6.52 37.086-8.311-15.146 1.782-27.526 4.365-35.576 8.108-12.735 5.894-22.124 15.697-27.904 29.129-4.423 10.282-5.362 19.726-5.56 23.308-.046.801-.05 1.432-.05 1.436l.46.005c0-.005.009-.626.05-1.418.346-6.281 3.577-38.32 33.206-52.054 8.275-3.85 21.167-6.465 36.957-8.247-15.04 1.773-27.365 4.337-35.442 8.044-12.846 5.87-22.29 15.688-28.066 29.179-4.353 10.162-5.279 19.514-5.472 23.064-.041.755-.05 1.437-.05 1.437l.46.009s.009-.672.05-1.418c.346-6.276 3.581-38.282 33.27-51.852 10.766-4.945 29.139-7.846 51.455-9.554-21.447 1.73-39.442 4.595-49.935 9.351-12.951 5.834-22.446 15.665-28.222 29.22-4.28 10.048-5.191 19.308-5.39 22.825-.036.696-.055 1.432-.055 1.432l.46.01s.015-.728.051-1.419c.488-8.813 4.326-38.58 33.34-51.649 8.289-3.757 21.3-6.33 37.012-8.094-14.972 1.754-27.402 4.273-35.493 7.892C53.58 71.796 44.03 81.64 38.254 95.26c-4.054 9.568-5.062 18.252-5.301 22.58-.037.636-.056 1.432-.056 1.432l.46.01s.019-.788.051-1.419c.488-8.804 4.331-38.54 33.404-51.446 10.733-4.803 29.156-7.658 51.036-9.366-21.028 1.722-39.047 4.54-49.513 9.159-13.158 5.76-22.758 15.618-28.53 29.303-3.985 9.448-4.98 18.05-5.214 22.336-.032.581-.055 1.428-.055 1.428l.46.014s.023-.843.055-1.414c.483-8.799 4.336-38.494 33.473-51.248 8.243-3.638 21.208-6.152 36.649-7.897-14.714 1.731-27.085 4.19-35.125 7.69-29.442 12.703-33.326 42.587-33.814 51.441-.028.521-.055 1.428-.055 1.428l.46.014s.028-.898.055-1.414c.483-8.79 4.336-38.443 33.538-51.046 8.288-3.61 21.221-6.106 36.579-7.842-14.63 1.723-26.97 4.168-35.056 7.635-29.51 12.566-33.39 42.375-33.878 51.253-.028.46-.055 1.423-.055 1.423l.46.014s.028-.954.055-1.455c.483-8.772 4.336-38.352 33.602-50.807 10.945-4.701 29.745-7.51 51.487-9.195-20.886 1.699-39.277 4.466-49.959 8.988-13.37 5.608-23.085 15.407-28.866 29.124-2.881 6.833-4.685 14.582-5.076 21.82l-.005.097c-.023.405-.055 1.423-.055 1.423l.46.014s.032-1.013.055-1.414l.005-.097c.474-8.744 4.303-38.226 33.666-50.543 7.806-3.307 19.763-5.669 33.805-7.363-14.52 1.81-25.152 4.185-32.272 7.155-13.425 5.553-23.164 15.31-28.958 29.009-3.89 9.2-4.837 17.543-5.058 21.701l-.01.134c-.018.345-.055 1.422-.055 1.422l.46.019s.037-1.068.056-1.414l.009-.133c.46-8.717 4.243-38.107 33.73-50.305 7.737-3.228 19.644-5.746 36.212-7.607-15.699 1.838-27.112 4.287-34.679 7.4-13.485 5.502-23.26 15.232-29.06 28.921-3.888 9.186-4.813 17.451-5.02 21.563l-.01.152a92.66 92.66 0 0 0-.055 1.423l.46.018s.042-1.123.056-1.413l.009-.157c.308-6.188 3.396-37.683 33.795-50.084 9.83-4.042 26.206-6.97 50.092-8.872-22.943 1.92-39.01 4.797-48.555 8.665-30.85 12.41-33.86 44.066-34.15 50.286l-.008.157c-.014.23-.056 1.418-.056 1.418l.46.019.056-1.414.009-.157c.29-6.17 3.277-37.573 33.86-49.88 7.676-3.109 19.597-5.577 35.944-7.423-15.492 1.819-26.905 4.213-34.412 7.21-31.08 12.332-33.956 43.9-34.218 50.103l-.005.138c-.01.175-.055 1.418-.055 1.418l.46.018s.046-1.238.055-1.409l.005-.142c.258-6.152 3.111-37.463 33.928-49.692 7.728-3.086 19.634-5.535 35.89-7.368-15.4 1.805-26.795 4.186-34.352 7.156-13.761 5.387-23.68 15.116-29.474 28.925-4.119 9.808-4.727 18.561-4.814 21.011l-.005.106-.06 1.418.46.018s.051-1.293.06-1.409l.005-.115c.088-2.431.69-11.11 4.778-20.849 5.748-13.69 15.579-23.336 29.22-28.673 9.913-3.895 26.477-6.773 50.074-8.67-22.672 1.911-38.909 4.734-48.532 8.459-32.428 12.52-34.26 46.004-34.361 49.784v.055c-.005.06-.06 1.414-.06 1.414l.46.018s.055-1.349.06-1.409v-.069c.101-3.743 1.919-36.956 34.066-49.365 9.348-3.615 24.973-6.382 46.696-8.284-19.224 1.745-35.318 4.329-45.154 8.072-17.719 6.746-26.137 19.887-30.08 29.722-4.267 10.651-4.35 19.832-4.35 19.915l-.06 1.409.46.018.06-1.418c0-.092.083-9.186 4.317-19.753C59.688 88.538 68.032 75.507 85.6 68.82 112.283 58.66 185.254 57.08 241.77 57.55c61.566.506 122.188 3.54 137.307 4.586a6.1 6.1 0 0 0 4.4-1.45c1.307-1.115 3.323-2.708 5.499-3.988 20.117-11.83 123.836-6.788 137.077.824l.617-4.867zm-154.819-.921c1.413.014 2.936-.184 4.662-.636.442-.115.893-.234 1.353-.359 1.68-.446 3.415-.911 5.224-1.293 3.7-.774 7.769-1.419 12.049-1.957-4.045.617-7.944 1.353-11.57 2.233-1.86.451-3.696 1.022-5.311 1.529-.405.124-.801.248-1.183.368-1.639.502-3.111.727-4.492.695-24.001-.594-54.285.217-81.002.935-11.496.308-22.036.59-30.9.727 7.691-.18 16.799-.474 26.643-.787 26.017-.843 58.386-1.883 84.527-1.455zm-28.696-.447c9.582-.24 19.04-.45 27.983-.594a23.625 23.625 0 0 0 4.68-.557c.497-.11 1.008-.226 1.528-.34 1.666-.373 3.388-.76 5.155-1.078 4.722-.843 9.711-1.515 14.787-2.054-4.947.613-9.77 1.377-14.295 2.326-1.818.382-3.562.847-5.246 1.298a173.7 173.7 0 0 1-1.353.36c-1.685.441-3.167.644-4.538.62-8.998-.142-18.737-.114-28.701.02zm-51.56 2.418c26.712-.719 56.987-1.529 80.974-.935 1.431.037 2.95-.198 4.635-.718.382-.115.777-.24 1.182-.369 1.611-.502 3.438-1.073 5.284-1.52 4.994-1.21 10.503-2.15 16.2-2.882-5.587.806-10.944 1.838-15.735 3.164-1.915.53-3.77 1.192-5.408 1.782l-.985.35c-1.574.557-3.07.815-4.441.769-22.018-.728-51.712-.102-77.914.45-10.714.226-21.083.443-30.265.558 7.88-.147 16.84-.392 26.473-.65zm3.815.557c26.192-.553 55.878-1.179 77.886-.451 1.432.05 2.983-.221 4.612-.797l.985-.35c1.629-.585 3.479-1.248 5.375-1.768 5.003-1.381 10.618-2.445 16.477-3.265-5.744.898-11.212 2.059-16.021 3.55-1.97.613-3.848 1.377-5.5 2.05l-.787.317c-1.528.617-3.01.903-4.395.843-20.195-.83-48.251-.41-75.382 0-10.415.156-20.508.308-29.745.377 8.206-.12 17.222-.308 26.495-.506zm3.25.59c27.126-.406 55.177-.825 75.359 0 1.454.064 2.996-.236 4.584-.876l.787-.322c1.647-.672 3.511-1.432 5.463-2.035 5.564-1.727 12.017-3.007 18.764-3.95-6.674 1.021-12.997 2.394-18.327 4.24-2.039.704-4.022 1.616-5.615 2.344l-.571.262c-1.463.668-2.973.98-4.344.916-18.543-.902-46.572-.663-73.679-.432-9.776.082-19.271.165-28.204.193 8.133-.078 16.836-.207 25.783-.34zm83.763-6.585c-1.781.317-3.507.704-5.178 1.082-.52.115-1.026.23-1.528.34-1.551.341-3.093.525-4.593.548-22.602.36-48.509 1.138-71.36 1.824-17.59.53-33.487 1.004-44.675 1.192 9.269-.239 22.064-.695 36.791-1.215 23.537-.834 52.836-1.87 78.531-2.385a30.794 30.794 0 0 0 4.708-.48c.552-.096 1.114-.202 1.684-.308 1.657-.304 3.369-.617 5.109-.875 4.915-.723 10.015-1.303 15.142-1.763-5.022.539-9.96 1.206-14.631 2.04zm-81.342 7.192c27.103-.23 55.127-.47 73.656.428 1.454.074 3.033-.258 4.561-.958l.57-.262c1.584-.727 3.558-1.63 5.574-2.33 4.966-1.717 10.802-3.03 16.983-4.024-6.071 1.077-11.764 2.482-16.56 4.319-2.121.81-4.133 1.842-5.753 2.675l-.331.17c-1.418.723-2.904 1.069-4.299.99-17.13-.957-44.472-.907-73.426-.851-8.27.013-16.67.032-24.862.018 7.654-.037 15.671-.106 23.887-.175zm-18.309-3.794c25.589-1.04 57.433-2.33 86.921-3.048a41.505 41.505 0 0 0 4.735-.4c.594-.084 1.192-.171 1.8-.259 1.657-.24 3.373-.488 5.099-.69 4.612-.544 9.398-.99 14.254-1.363-4.653.437-9.269.976-13.734 1.634-1.748.258-3.465.571-5.122.88-.571.106-1.132.207-1.68.308a29.97 29.97 0 0 1-4.639.474c-25.7.516-54.994 1.552-78.535 2.386-17.36.612-32.023 1.128-41.398 1.316 7.723-.244 19.109-.704 32.299-1.238zm-36.128.884c5.688-.216 14.52-.622 25.281-1.114 24.94-1.147 62.638-2.883 97.045-3.854a63.059 63.059 0 0 0 4.763-.327c.622-.065 1.248-.13 1.878-.198 1.675-.18 3.406-.364 5.127-.516 4.455-.391 9.039-.727 13.669-1.008-4.469.354-8.873.778-13.135 1.28-1.73.202-3.452.45-5.113.69-.608.088-1.206.175-1.795.258-1.62.23-3.199.364-4.685.396-29.492.714-61.336 2.008-86.93 3.048-15.574.631-28.636 1.16-36.105 1.345zm55.417 3.527c28.944-.05 56.282-.101 73.398.852 1.482.083 3.047-.276 4.534-1.036l.331-.17c1.606-.825 3.608-1.852 5.707-2.653 5.629-2.155 12.505-3.716 19.781-4.844-7.217 1.211-13.968 2.869-19.371 5.143-2.228.94-4.363 2.155-5.919 3.049l-.06.032c-1.27.727-2.743 1.091-4.262 1.059-15.22-.336-42.3-.663-70.964-1.008-11.197-.134-22.629-.272-33.721-.42 9.95.033 20.347.014 30.546-.004zm74.13 1.892a8.708 8.708 0 0 0 4.501-1.118l.06-.037c1.634-.935 3.668-2.095 5.868-3.02 5.647-2.377 12.776-4.08 20.37-5.3-7.539 1.298-14.548 3.103-19.974 5.603-2.168 1-4.17 2.238-5.877 3.32-1.238.787-2.684 1.174-4.216 1.133-15.317-.46-47.28-1.12-81.729-1.709 3.355.042 6.706.083 10.033.12 28.668.35 55.744.677 70.964 1.008zm4.506-11.884c-1.726.152-3.461.336-5.136.516-.631.069-1.257.133-1.878.198-1.662.17-3.254.28-4.731.322-34.412.972-72.11 2.708-97.055 3.859-13.098.603-23.339 1.073-28.521 1.23 3.346-.162 8.478-.429 14.903-.765 23.886-1.243 68.349-3.56 109.959-4.9 1.491-.045 3.061-.128 4.791-.248l1.749-.12c1.777-.124 3.572-.248 5.362-.354 4.63-.277 9.205-.511 13.697-.71-4.446.268-8.851.595-13.14.972zM376.91 59.01c1.616.046 3.157-.368 4.474-1.202 1.693-1.073 3.681-2.302 5.822-3.287 4.906-2.261 11.119-3.951 17.848-5.208-6.628 1.345-12.712 3.136-17.466 5.52-2.182 1.097-4.23 2.478-5.772 3.56-1.187.833-2.665 1.262-4.165 1.202-12.366-.488-42.54-1.423-77.062-2.197 32.355.562 61.81 1.175 76.321 1.612zm3.217-13.652c-1.795.106-3.59.23-5.366.354l-1.749.12c-1.726.12-3.291.198-4.777.244-41.62 1.34-86.083 3.656-109.969 4.9-9.564.496-16.26.856-18.456.91 12.45-.777 88.205-5.4 151.864-7.145-3.801.18-7.658.382-11.547.617zm-2.494 14.693c1.601.06 3.175-.392 4.446-1.285 1.528-1.073 3.562-2.445 5.716-3.522 5.702-2.86 13.333-4.863 21.52-6.263-8.146 1.488-15.666 3.597-21.152 6.585-1.731.94-3.585 2.183-5.67 3.799a6.223 6.223 0 0 1-4.119 1.27c-11.037-.575-38.904-1.722-72.018-2.642 32.078.736 59.605 1.593 71.277 2.058zm11.105-3.762c-2.209 1.298-4.243 2.91-5.564 4.033a5.636 5.636 0 0 1-4.069 1.345c-8.956-.622-33.873-1.939-65.496-3.011 29.883.879 54.529 1.901 64.746 2.435a6.657 6.657 0 0 0 4.423-1.367c2.067-1.598 3.903-2.827 5.61-3.758 6.26-3.407 15.188-5.663 24.669-7.16-9.481 1.584-18.317 3.956-24.319 7.483z" fill="#000"/><path d="M1.547 97.137l-.455-.06c1.57-12.552 5.946-22.654 13.006-30.026 6.701-6.994 15.814-11.539 27.08-13.5 16.339-2.846 37.063-3.923 61.055-5.166 19.938-1.037 42.54-2.21 65.138-4.66 22.128-2.4 33.983-9.265 47.708-17.217 14.801-8.573 31.572-18.289 65.399-24.04C340.35-7.708 418.333 15.78 475.273 32.932c23.026 6.934 42.913 12.925 56.039 14.914l-.069.456c-13.154-1.994-33.059-7.985-56.103-14.928-56.895-17.138-134.817-40.612-194.588-30.45-33.745 5.737-50.479 15.434-65.243 23.985-13.77 7.975-25.663 14.863-47.888 17.272-22.611 2.454-45.218 3.628-65.165 4.664-23.978 1.248-44.689 2.32-61 5.162-22.951 3.996-36.68 18.91-39.709 43.13z" fill="#000"/><path d="M1.63 97.136l-.455-.06c1.583-12.368 5.932-22.323 12.928-29.593 6.733-7 15.975-11.567 27.467-13.584 16.5-2.887 37.583-4.001 61.998-5.295 20.218-1.068 41.127-2.173 62.597-4.443 7.575-.788 14.414-2.141 20.904-4.144 10.663-3.288 18.8-7.824 27.416-12.626l.644-.36c.972-.543 1.956-1.09 2.941-1.657 13.379-7.671 30.132-16.304 59.711-21.641 18.35-3.357 39.374-3.877 62.491-1.543 29.354 3.003 59.334 8.933 84.408 16.692 2.881.893 5.472 1.85 7.98 2.776l1.924.71.391.142c1.289.474 2.752 1.009 4.234 1.418 8.984 2.482 17.871 5.015 26.468 7.464 25.226 7.188 49.057 13.975 65.405 16.618l-.074.456c-16.375-2.648-40.215-9.44-65.455-16.627-8.592-2.45-17.484-4.982-26.463-7.464-1.501-.414-2.969-.953-4.267-1.427l-.386-.143c-.64-.235-1.28-.47-1.929-.71-2.499-.925-5.085-1.878-7.957-2.767-25.046-7.749-54.989-13.67-84.316-16.673-23.071-2.33-44.053-1.81-62.362 1.538-29.51 5.328-46.216 13.934-59.563 21.586-.99.571-1.975 1.12-2.95 1.663l-.645.359c-8.638 4.816-16.794 9.36-27.504 12.667-6.521 2.012-13.388 3.37-20.991 4.162-21.484 2.27-42.397 3.375-62.62 4.444-24.397 1.289-45.466 2.403-61.943 5.286C18.2 58.467 4.732 72.865 1.63 97.136z" fill="#000"/><path d="M1.71 97.138l-.456-.06C4.42 72.872 18.117 58.464 41.962 54.242c16.688-2.938 39.207-4.145 63.048-5.43 19.477-1.044 39.617-2.126 59.941-4.212 7.428-.737 14.184-2.008 20.664-3.886 11.207-3.251 19.942-7.93 27.642-12.06.999-.538 2.067-1.11 3.13-1.727 14.166-8.228 31.084-16.58 58.694-21.936 19.454-3.77 40.137-4.544 63.222-2.362 23.946 2.321 58.22 7.096 85.549 16.632 3.01 1.05 5.389 2.206 7.691 3.32.52.253 1.026.497 1.532.736 1.224.58 2.748 1.304 4.414 1.75 4.68 1.257 9.393 2.528 14.111 3.804 28.613 7.73 58.201 15.72 79.225 19.288l-.078.456c-21.047-3.569-50.645-11.567-79.272-19.298a8749.02 8749.02 0 0 0-14.11-3.803c-1.708-.456-3.254-1.193-4.492-1.782-.507-.24-1.017-.488-1.537-.741-2.292-1.11-4.658-2.257-7.645-3.302-27.274-9.513-61.511-14.279-85.429-16.6-23.044-2.177-43.681-1.408-63.089 2.354-27.545 5.341-44.418 13.67-58.552 21.88a97.543 97.543 0 0 1-3.143 1.736c-7.723 4.14-16.476 8.832-27.734 12.097-6.508 1.887-13.291 3.163-20.747 3.904-20.333 2.086-40.478 3.168-59.964 4.218-23.827 1.28-46.337 2.491-62.998 5.42-23.619 4.18-37.187 18.459-40.325 42.44z" fill="#000"/><path d="M1.795 97.136l-.455-.06c3.203-23.91 17.006-38.208 41.02-42.49 17.121-3.025 40.47-4.31 65.189-5.668 18.377-1.009 37.38-2.054 56.204-3.882 7.377-.718 14.06-1.906 20.42-3.633 10.853-2.947 19.178-7.003 27.449-11.253.939-.484 2.034-1.05 3.093-1.676 14.087-8.27 30.826-16.683 57.676-22.227C292.573 2.08 313.49 1.04 336.346 3.07c38.291 3.523 67.457 9.094 86.69 16.572 3.212 1.248 5.495 2.698 7.506 3.978.355.226.7.447 1.045.659 1.086.677 2.541 1.506 4.207 1.938 31.742 8.26 67.834 17.35 94.804 22.098l-.079.45c-26.988-4.751-63.084-13.84-94.84-22.106-1.722-.446-3.222-1.303-4.336-1.993-.345-.217-.69-.438-1.045-.659-1.992-1.266-4.257-2.703-7.428-3.937-19.196-7.459-48.32-13.021-86.566-16.54-22.809-2.025-43.685-.985-63.821 3.173-26.781 5.53-43.478 13.925-57.534 22.176a60.84 60.84 0 0 1-3.116 1.685c-8.293 4.264-16.642 8.334-27.535 11.29-6.389 1.736-13.094 2.929-20.499 3.647-18.833 1.828-37.841 2.873-56.223 3.882-24.705 1.358-48.04 2.638-65.132 5.659-23.8 4.24-37.473 18.404-40.649 42.094z" fill="#000"/><path d="M1.878 97.135l-.455-.064c1.62-11.81 5.895-21.333 12.702-28.3 6.844-7.003 16.477-11.663 28.632-13.846 17.452-3.103 41.458-4.438 66.872-5.852 17.402-.967 35.401-1.97 52.913-3.6 7.166-.668 13.955-1.806 20.182-3.376 11.34-2.864 20.011-6.897 27.25-10.452.994-.488 2.053-1.022 3.061-1.62 13.342-7.916 30.504-16.78 56.655-22.522 21.148-4.641 41.702-5.912 64.691-3.996 26.565 2.316 64.575 6.543 87.831 16.511 3.457 1.483 5.486 3.2 7.281 4.716.203.17.401.34.598.501.714.594 2.182 1.663 3.995 2.123 31.048 7.846 68.838 16.13 96.268 21.107l-.083.452c-27.444-4.978-65.243-13.266-96.3-21.112-1.901-.48-3.433-1.593-4.174-2.215-.198-.166-.396-.331-.598-.506-1.768-1.492-3.77-3.187-7.166-4.642-23.196-9.941-61.156-14.168-87.689-16.48-22.938-1.91-43.451-.644-64.553 3.988-26.086 5.728-43.211 14.573-56.521 22.466-1.022.607-2.09 1.146-3.093 1.639-7.258 3.573-15.957 7.616-27.338 10.493-6.246 1.58-13.062 2.717-20.251 3.39-17.525 1.63-35.525 2.633-52.931 3.6-25.4 1.414-49.397 2.75-66.817 5.848-24.306 4.36-37.703 18.017-40.962 41.75z" fill="#000"/><path d="M1.958 97.14l-.456-.065c3.332-23.668 16.95-37.339 41.642-41.8 17.82-3.187 42.563-4.577 68.755-6.05 16.352-.922 33.261-1.87 49.434-3.311 7.06-.627 13.77-1.676 19.937-3.118 11.262-2.629 19.662-6.193 27.053-9.646.976-.456 2.016-.962 3.028-1.566 12.496-7.496 30.109-16.861 55.638-22.81 22.082-5.153 42.259-6.636 65.427-4.821 30.45 2.509 68.079 6.649 88.973 16.452 3.719 1.745 5.514 3.835 6.959 5.516l.249.29c.722.838 2.098 1.879 3.783 2.293 21.741 5.337 54.621 12.105 97.735 20.113l-.082.45c-43.12-8.011-76.013-14.78-97.759-20.116-1.79-.438-3.249-1.547-4.018-2.44l-.249-.29c-1.412-1.65-3.171-3.698-6.802-5.397-20.839-9.771-58.413-13.902-88.825-16.411-23.118-1.814-43.253-.332-65.28 4.803-25.47 5.94-43.042 15.282-55.509 22.76-1.027.617-2.081 1.128-3.07 1.588-7.419 3.468-15.841 7.036-27.145 9.68-6.19 1.445-12.919 2.5-20.002 3.13-16.182 1.441-33.095 2.39-49.452 3.31-26.178 1.474-50.902 2.865-68.7 6.047C18.756 60.146 5.257 73.693 1.958 97.139z" fill="#000"/><path d="M2.044 97.142l-.456-.065C4.96 73.7 18.686 60.14 43.543 55.623c18.248-3.279 43.805-4.73 70.863-6.262 15.206-.861 30.932-1.755 45.724-3.007 6.959-.59 13.586-1.552 19.698-2.864 11.814-2.533 20.559-6.055 26.86-8.841.915-.405 1.983-.903 2.991-1.515 12.426-7.542 29.86-16.986 54.621-23.105 16.306-4.034 36.916-7.851 66.159-5.632 33.698 2.56 70.752 6.511 90.114 16.397 4 2.04 5.454 4.545 6.517 6.373.543.93 1.883 2.085 3.59 2.49 16.881 4.03 41.187 8.464 66.923 13.16 10.719 1.957 21.797 3.979 32.281 5.963l-.087.452c-10.48-1.985-21.563-4.011-32.277-5.963-25.741-4.697-50.055-9.131-66.946-13.165-1.841-.437-3.291-1.694-3.861-2.675-1.054-1.81-2.467-4.245-6.347-6.225-19.288-9.845-56.291-13.79-89.939-16.346-29.175-2.22-49.743 1.597-66.012 5.617-24.701 6.106-42.098 15.527-54.492 23.055-1.031.626-2.117 1.128-3.047 1.538-6.319 2.795-15.091 6.331-26.947 8.873-6.13 1.312-12.776 2.28-19.753 2.869-14.801 1.252-30.527 2.145-45.738 3.006-27.044 1.534-52.587 2.98-70.808 6.253C18.99 60.554 5.386 73.986 2.044 97.142z" fill="#000"/><path d="M2.127 97.143l-.456-.07c1.689-11.414 5.771-20.25 12.472-27.01C21.2 62.95 30.942 58.337 43.94 55.96c18.736-3.385 45.214-4.89 73.247-6.488 13.949-.792 28.378-1.616 41.738-2.689 6.858-.553 13.407-1.427 19.455-2.606 12.398-2.413 21.152-5.742 26.661-8.04.898-.373 1.956-.842 2.959-1.46 7.258-4.461 26.538-16.309 53.604-23.4 17.508-4.586 37.73-8.541 66.891-6.45 35.07 2.518 73.334 6.427 91.256 16.336 4.271 2.362 5.301 5.383 5.854 7.008.28.83 1.514 2.188 3.364 2.62 11.975 2.777 29.547 5.738 49.899 9.168 15.892 2.675 33.906 5.714 50.769 8.965l-.088.451c-16.854-3.25-34.867-6.285-50.759-8.96-20.357-3.43-37.938-6.391-49.927-9.172-1.905-.442-3.327-1.833-3.695-2.92-.737-2.164-1.841-4.655-5.643-6.755-17.843-9.867-56.048-13.767-91.067-16.281-29.091-2.09-49.268 1.86-66.743 6.432-26.993 7.087-46.231 18.911-53.471 23.364-1.031.635-2.108 1.11-3.023 1.492-5.528 2.302-14.314 5.64-26.754 8.062-6.066 1.184-12.629 2.059-19.505 2.611-13.37 1.073-27.798 1.893-41.752 2.69-28.02 1.592-54.483 3.098-73.192 6.478C19.22 60.95 5.514 74.272 2.127 97.143z" fill="#000"/><path d="M2.207 97.14l-.456-.068c1.707-11.23 5.762-19.924 12.394-26.578 7.092-7.118 16.964-11.76 30.182-14.186 19.307-3.509 48.114-5.144 75.967-6.727 12.564-.714 25.552-1.456 37.417-2.353 6.757-.511 13.223-1.303 19.215-2.349 9.633-1.685 18.29-4.047 26.468-7.233.829-.323 1.91-.774 2.923-1.405 11.322-7.05 29.091-17.18 52.586-23.69 16.527-4.582 36.75-9.297 67.628-7.266 25.773 1.796 73.752 5.143 92.397 16.277 4.004 2.39 4.864 5.323 5.168 7.616.138 1.027 1.441 2.385 3.166 2.776 9.168 2.068 23.67 4.278 40.464 6.834 19.004 2.891 40.538 6.17 61.667 10.305l-.087.45c-21.12-4.13-42.65-7.408-61.649-10.304-16.798-2.56-31.309-4.766-40.496-6.838-1.974-.447-3.369-1.99-3.525-3.163-.309-2.321-1.137-5.005-4.948-7.28C400.136 10.879 352.23 7.54 326.494 5.745c-30.804-2.026-50.976 2.68-67.471 7.253-23.435 6.496-41.168 16.604-52.467 23.64-1.045.648-2.149 1.114-3.001 1.44-8.206 3.196-16.89 5.567-26.555 7.257-6.006 1.05-12.486 1.842-19.257 2.358-11.869.898-24.861 1.639-37.426 2.353-27.84 1.584-56.632 3.218-75.911 6.722-25.304 4.646-38.715 17.48-42.2 40.373z" fill="#000"/><path d="M2.293 97.144l-.456-.07c3.567-22.829 17.194-35.67 42.89-40.418 19.978-3.651 50.032-5.346 79.091-6.99 11.524-.649 22.404-1.266 32.69-1.993 6.646-.47 13.03-1.175 18.971-2.096 9.794-1.51 18.635-3.674 26.271-6.427 1.21-.438 2.098-.852 2.885-1.35 6.485-4.093 26.211-16.553 51.57-23.985 17.567-5.152 37.311-10.02 68.359-8.085 26.601 1.75 76.118 5.01 93.538 16.217 4.234 2.726 4.58 5.995 4.474 8.22-.051 1.067 1.159 2.532 2.982 2.932 7.134 1.566 18.824 3.14 33.629 5.139 20.131 2.717 45.191 6.096 69.97 11.005l-.087.45c-24.766-4.907-49.812-8.287-69.938-11-14.815-1.998-26.514-3.577-33.666-5.147-2.076-.456-3.406-2.127-3.341-3.403.101-2.109-.226-5.212-4.262-7.81-17.323-11.142-66.757-14.398-93.318-16.147-30.969-1.93-50.672 2.928-68.202 8.067-25.295 7.418-44.984 19.845-51.45 23.934-.819.516-1.735.949-2.978 1.395-7.667 2.763-16.531 4.936-26.357 6.451-5.956.921-12.353 1.626-19.008 2.1-10.291.727-21.176 1.344-32.7 1.994-29.05 1.644-59.085 3.338-79.036 6.985C19.335 61.818 5.827 74.54 2.293 97.144z" fill="#000"/><path d="M2.372 97.143l-.456-.074C5.538 74.53 19.266 61.8 45.118 56.996c20.79-3.822 52.288-5.576 82.746-7.275 9.693-.539 18.847-1.05 27.44-1.616 6.512-.428 12.813-1.046 18.731-1.837 12.542-1.672 21.102-3.983 26.077-5.627 1.169-.387 2.076-.797 2.854-1.294 6.434-4.126 26.021-16.678 50.547-24.28 18.539-5.742 37.772-10.747 69.096-8.9 40.703 2.527 80.338 6.234 94.679 16.161 3.254 2.252 4.525 5.222 3.77 8.818-.23 1.105.939 2.698 2.798 3.099 5.495 1.174 15.423 2.33 27.987 3.799 20.609 2.403 48.836 5.7 77.071 11.355l-.092.45c-28.217-5.654-56.434-8.946-77.034-11.35-12.578-1.468-22.515-2.629-28.033-3.803-2.145-.46-3.434-2.302-3.153-3.642.723-3.444-.451-6.175-3.58-8.343-16.21-11.222-67.103-14.385-94.446-16.08-31.245-1.841-50.432 3.155-68.929 8.883-24.471 7.579-44.013 20.108-50.437 24.224-.81.52-1.749.949-2.955 1.345-4.994 1.648-13.582 3.969-26.16 5.645-5.928.792-12.238 1.409-18.759 1.842-8.593.566-17.752 1.077-27.444 1.616-30.445 1.699-61.93 3.453-82.686 7.266C19.57 62.213 5.96 74.825 2.372 97.143z" fill="#000"/><path d="M2.458 97.147l-.456-.073c3.677-22.25 17.507-34.875 43.51-39.728 21.793-4.03 56.485-5.917 87.091-7.584 7.594-.415 14.765-.806 21.493-1.216a368.267 368.267 0 0 0 18.488-1.579c13.508-1.51 22.013-3.67 25.884-4.821 1.127-.336 2.048-.741 2.816-1.243 17.13-11.157 33.795-19.422 49.531-24.57 14.999-4.908 35.539-11.631 69.827-9.72 41.822 2.445 82.373 6.092 95.821 16.102 3.355 2.495 4.386 5.663 3.065 9.407-.17.479-.092 1.045.221 1.593.47.833 1.367 1.46 2.403 1.672 4.119.856 12.03 1.625 22.975 2.693 20.646 2.012 51.85 5.056 83.551 11.47l-.092.451c-31.678-6.41-62.864-9.448-83.501-11.46-10.963-1.069-18.883-1.842-23.025-2.703-1.165-.24-2.173-.953-2.707-1.897-.377-.668-.464-1.368-.253-1.976 1.247-3.531.267-6.524-2.904-8.886-13.351-9.937-53.824-13.57-95.572-16.01-34.196-1.902-54.695 4.802-69.657 9.697-15.699 5.139-32.327 13.385-49.425 24.519-.805.525-1.763.949-2.936 1.299-3.885 1.155-12.422 3.324-25.962 4.834a369.32 369.32 0 0 1-18.511 1.58c-6.729.41-13.899.8-21.493 1.215-30.596 1.667-65.27 3.555-87.03 7.58C19.812 62.608 6.102 75.11 2.457 97.146z" fill="#000"/><path d="M2.54 97.146l-.455-.078c1.786-10.48 5.74-18.607 12.09-24.85 7.258-7.138 17.641-11.89 31.734-14.533 23.09-4.291 61.533-6.308 92.42-7.929 5.081-.267 9.968-.52 14.562-.778a531.763 531.763 0 0 0 18.248-1.322c14.249-1.27 22.713-3.232 25.69-4.015 1.1-.29 2.012-.676 2.78-1.188 16.964-11.24 33.289-19.606 48.514-24.864 15.956-5.512 35.806-12.368 70.563-10.54 40.851 2.247 84.315 5.912 96.963 16.047 4.271 3.426 3.64 7.326 2.356 9.992-.244.51-.216 1.123.078 1.722.433.865 1.317 1.51 2.366 1.722 2.936.594 9.38 1.091 18.304 1.777 20.337 1.566 54.381 4.186 89.686 11.392l-.092.451c-35.282-7.201-69.303-9.821-89.631-11.387-8.938-.686-15.395-1.183-18.359-1.786-1.188-.24-2.191-.977-2.683-1.971-.364-.728-.391-1.483-.083-2.128 1.21-2.518 1.804-6.197-2.232-9.434C402.817 13.394 359.44 9.743 318.663 7.5c-34.665-1.823-54.469 5.015-70.388 10.512-15.193 5.245-31.481 13.598-48.413 24.814-.81.54-1.762.944-2.913 1.248-2.987.788-11.483 2.754-25.764 4.03-6.19.552-12.164.985-18.262 1.325-4.593.253-9.481.511-14.562.778-30.877 1.621-69.302 3.633-92.36 7.92C19.698 63.067 6.296 75.1 2.54 97.147z" fill="#000"/><path d="M2.624 97.145l-.456-.078C3.972 86.77 7.903 78.787 14.18 72.644c7.304-7.142 17.811-11.921 32.125-14.62 24.885-4.654 67.861-6.768 99.236-8.306l6.144-.304c7.603-.377 13.687-.778 17.71-1.045l.294-.018c14.756-.977 23.247-2.708 25.497-3.214 1.059-.24 1.979-.617 2.739-1.133 20.885-14.095 37.357-21.462 47.496-25.155l.387-.142c15.86-5.784 35.599-12.98 70.913-11.217 41.863 2.164 86.253 5.756 98.104 15.992 4.335 3.743 3.291 7.818 1.652 10.572-.326.552-.349 1.21-.06 1.864.392.88 1.285 1.557 2.329 1.764 1.915.377 6.646.635 13.803 1.027 19.73 1.077 56.452 3.09 95.655 11.147l-.092.451c-39.17-8.053-75.87-10.06-95.586-11.143-7.175-.39-11.92-.653-13.867-1.035-1.188-.235-2.205-1.009-2.66-2.026-.35-.783-.318-1.617.083-2.289 1.551-2.606 2.54-6.45-1.556-9.987-11.745-10.144-56.038-13.717-97.823-15.881-35.218-1.76-54.911 5.42-70.729 11.189l-.387.142c-10.116 3.689-26.551 11.038-47.395 25.105-.81.547-1.786.948-2.895 1.201-2.26.507-10.774 2.243-25.566 3.223l-.295.019c-4.027.267-10.111.667-17.719 1.045l-6.144.304c-31.365 1.543-74.319 3.651-99.176 8.302C19.942 63.463 6.444 75.384 2.624 97.145z" fill="#000"/><path d="M2.708 97.146l-.451-.079c3.926-21.692 17.636-33.622 44.45-38.692 27.581-5.189 79.045-7.436 103.783-8.518 4.146-.18 7.842-.355 10.967-.497 2.72-.13 5.012-.235 6.798-.309 11.648-.488 20.706-1.565 25.304-2.408 1.026-.189 1.933-.553 2.701-1.077 16.058-11.06 32.562-20.1 46.479-25.45l.898-.345c15.662-6.027 35.157-13.533 71.134-11.83 40.349 1.958 88.094 5.536 99.241 15.933 4.372 4.075 2.927 8.31.943 11.147-.414.594-.488 1.313-.198 2.022.364.902 1.243 1.588 2.292 1.79 1.054.203 4.354.3 9.352.447 17.347.511 57.963 1.709 101.57 10.738l-.092.451c-43.575-9.025-84.164-10.222-101.496-10.733-5.021-.147-8.335-.244-9.426-.456-1.196-.23-2.204-1.022-2.628-2.067-.345-.847-.253-1.745.249-2.459 1.878-2.684 3.249-6.695-.884-10.544-11.036-10.296-58.68-13.855-98.951-15.812-35.88-1.695-55.325 5.788-70.945 11.801l-.897.345c-13.881 5.337-30.353 14.357-46.383 25.4-.819.566-1.786.952-2.877 1.15-4.611.847-13.696 1.925-25.363 2.418-1.786.073-4.073.18-6.798.308-3.125.148-6.821.318-10.972.502-24.724 1.078-76.169 3.325-103.714 8.51C20.192 63.854 6.597 75.674 2.708 97.145z" fill="#000"/><path d="M2.787 97.148l-.451-.083c2.692-14.408 10.213-31.79 44.758-38.347 19.362-3.665 54.694-6.58 102.182-8.426 7.975-.285 13.899-.493 17.525-.552 14.525-.245 23.468-1.377 25.111-1.603.994-.138 1.887-.479 2.66-1.022 9.177-6.47 27.287-18.414 45.462-25.744l1.045-.428c15.51-6.336 34.817-14.219 71.723-12.566 38.057 1.727 89.866 5.254 100.382 15.876 4.377 4.42 2.545 8.814.24 11.719a2.204 2.204 0 0 0-.341 2.192c.345.92 1.206 1.616 2.255 1.81.373.068 2.149.064 4.833.064 14.465-.023 58.5-.092 107.552 10.13l-.092.451c-49.01-10.213-93-10.144-107.465-10.125-2.899.004-4.501.009-4.915-.07-1.206-.225-2.2-1.03-2.601-2.104-.34-.916-.193-1.878.41-2.638 2.191-2.758 3.935-6.925-.207-11.106-10.406-10.508-62.095-14.016-100.074-15.743-36.8-1.649-56.057 6.216-71.525 12.533l-1.05.429c-18.128 7.312-36.206 19.237-45.37 25.693a6.465 6.465 0 0 1-2.862 1.105c-1.648.226-10.613 1.363-25.166 1.607-3.622.06-9.545.267-17.517.553-47.464 1.841-82.773 4.752-102.112 8.417-34.265 6.501-41.72 23.713-44.39 37.978z" fill="#000"/><path d="M2.873 97.15l-.451-.087c2.747-14.219 10.35-31.39 45.07-38.001 32.033-6.106 100.13-8.804 117.867-8.625 12.427.12 21.567-.52 24.922-.8a5.176 5.176 0 0 0 2.614-.972c5.583-4.039 25.295-17.843 44.441-26.034l1.468-.631c15.344-6.585 34.439-14.776 72.036-13.183 38.899 1.653 91.748 5.088 101.523 15.821 4.35 4.775 2.145 9.315-.464 12.285-.64.723-.801 1.694-.442 2.597a2.533 2.533 0 0 0 2.154 1.593c.492-.037 53.396-3.472 113.871 9.205l-.096.45c-60.415-12.662-113.255-9.231-113.78-9.194-1.174-.097-2.149-.815-2.577-1.88-.428-1.067-.235-2.214.52-3.07 2.49-2.828 4.588-7.151.474-11.673-10.779-11.834-78.839-14.725-101.201-15.674-37.487-1.597-56.531 6.58-71.834 13.146l-1.468.631c-19.105 8.173-38.78 21.955-44.353 25.984a5.707 5.707 0 0 1-2.849 1.054c-3.36.28-12.514.92-24.963.801-17.742-.17-85.77 2.519-117.775 8.615C13.127 66.078 5.588 83.074 2.873 97.15zM112.363 121.688a4.542 4.542 0 0 1-4.538-4.54 4.542 4.542 0 0 1 4.538-4.54 4.542 4.542 0 0 1 4.538 4.54 4.542 4.542 0 0 1-4.538 4.54zm0-8.62a4.084 4.084 0 0 0-4.078 4.08 4.084 4.084 0 0 0 4.078 4.08 4.087 4.087 0 0 0 4.078-4.08 4.084 4.084 0 0 0-4.078-4.08z" fill="#000"/><path d="M112.362 124.035c-3.797 0-6.889-3.089-6.889-6.892a6.895 6.895 0 0 1 6.889-6.893 6.895 6.895 0 0 1 6.89 6.893 6.898 6.898 0 0 1-6.89 6.892zm0-13.279a6.396 6.396 0 0 0-6.388 6.391 6.393 6.393 0 0 0 6.388 6.391 6.392 6.392 0 0 0 6.388-6.391 6.396 6.396 0 0 0-6.388-6.391z" fill="#000"/><path d="M112.364 126.39c-5.095 0-9.237-4.144-9.237-9.241 0-5.098 4.142-9.242 9.237-9.242s9.237 4.144 9.237 9.242c0 5.097-4.142 9.241-9.237 9.241zm0-17.939c-4.796 0-8.694 3.9-8.694 8.698 0 4.797 3.898 8.697 8.694 8.697 4.796 0 8.694-3.9 8.694-8.697 0-4.798-3.903-8.698-8.694-8.698z" fill="#000"/><path d="M112.363 128.743c-6.388 0-11.589-5.198-11.589-11.594 0-6.391 5.196-11.594 11.589-11.594 6.393 0 11.589 5.198 11.589 11.594 0 6.391-5.201 11.594-11.589 11.594zm0-22.604c-6.066 0-11.004 4.937-11.004 11.005 0 6.069 4.934 11.01 11.004 11.01 6.066 0 11.004-4.936 11.004-11.01-.004-6.064-4.938-11.005-11.004-11.005z" fill="#000"/><path d="M112.365 131.091c-7.686 0-13.936-6.253-13.936-13.942 0-7.69 6.25-13.943 13.936-13.943s13.936 6.253 13.936 13.943c0 7.689-6.25 13.942-13.936 13.942zm0-27.259c-7.341 0-13.31 5.972-13.31 13.317 0 7.344 5.969 13.316 13.31 13.316 7.34 0 13.31-5.972 13.31-13.316 0-7.345-5.974-13.317-13.31-13.317z" fill="#000"/><path d="M112.362 133.445c-8.979 0-16.288-7.312-16.288-16.296 0-8.983 7.309-16.295 16.288-16.295s16.288 7.312 16.288 16.295c0 8.984-7.309 16.296-16.288 16.296zm0-31.923c-8.611 0-15.616 7.008-15.616 15.623 0 8.615 7.005 15.623 15.616 15.623s15.616-7.008 15.616-15.623c0-8.611-7.005-15.623-15.616-15.623z" fill="#000"/><path d="M112.363 135.79c-10.277 0-18.635-8.367-18.635-18.644 0-10.278 8.363-18.644 18.635-18.644 10.273 0 18.635 8.366 18.635 18.644 0 10.277-8.357 18.644-18.635 18.644zm0-36.579c-9.885 0-17.926 8.044-17.926 17.935 0 9.89 8.041 17.934 17.926 17.934 9.886 0 17.927-8.044 17.927-17.934 0-9.891-8.045-17.935-17.927-17.935z" fill="#000"/><path d="M112.363 138.146c-11.571 0-20.987-9.421-20.987-20.996 0-11.576 9.416-20.997 20.987-20.997 11.57 0 20.987 9.421 20.987 20.997 0 11.575-9.417 20.996-20.987 20.996zm0-41.243c-11.156 0-20.232 9.081-20.232 20.242 0 11.161 9.076 20.241 20.232 20.241 11.156 0 20.232-9.08 20.232-20.241s-9.076-20.242-20.232-20.242z" fill="#000"/><path d="M112.366 140.495c-12.868 0-23.339-10.475-23.339-23.349 0-12.875 10.47-23.345 23.339-23.345 12.868 0 23.339 10.475 23.339 23.345 0 12.869-10.471 23.349-23.339 23.349zm0-45.898c-12.431 0-22.542 10.117-22.542 22.553 0 12.437 10.11 22.553 22.542 22.553 12.431 0 22.542-10.116 22.542-22.553 0-12.436-10.116-22.553-22.542-22.553z" fill="#000"/><path d="M112.361 142.845c-14.162 0-25.686-11.53-25.686-25.698 0-14.169 11.524-25.698 25.686-25.698 14.161 0 25.685 11.529 25.685 25.698 0 14.168-11.524 25.698-25.685 25.698zm0-50.563c-13.702 0-24.849 11.152-24.849 24.86s11.147 24.86 24.849 24.86c13.701 0 24.848-11.152 24.848-24.86s-11.147-24.86-24.848-24.86z" fill="#000"/><path d="M112.364 145.195c-15.46 0-28.038-12.584-28.038-28.051 0-15.467 12.578-28.05 28.038-28.05 15.459 0 28.037 12.583 28.037 28.05-.004 15.471-12.578 28.051-28.037 28.051zm0-55.218c-14.976 0-27.159 12.189-27.159 27.172s12.183 27.171 27.159 27.171c14.976 0 27.158-12.188 27.158-27.171-.004-14.983-12.187-27.172-27.158-27.172z" fill="#000"/><path d="M112.365 147.55c-16.752 0-30.384-13.639-30.384-30.399 0-16.761 13.632-30.4 30.384-30.4 16.753 0 30.385 13.639 30.385 30.4 0 16.76-13.632 30.399-30.385 30.399zm0-59.878c-16.246 0-29.464 13.225-29.464 29.479 0 16.254 13.218 29.478 29.464 29.478 16.247 0 29.465-13.224 29.465-29.478s-13.218-29.479-29.465-29.479zM441.485 121.704a4.543 4.543 0 0 1-4.538-4.54 4.543 4.543 0 0 1 4.538-4.54 4.542 4.542 0 0 1 4.538 4.54 4.542 4.542 0 0 1-4.538 4.54zm0-8.62a4.084 4.084 0 0 0-4.077 4.08 4.083 4.083 0 0 0 4.077 4.08 4.087 4.087 0 0 0 4.078-4.08 4.08 4.08 0 0 0-4.078-4.08z" fill="#000"/><path d="M441.485 124.058c-3.796 0-6.889-3.09-6.889-6.893s3.088-6.893 6.889-6.893c3.802 0 6.89 3.09 6.89 6.893a6.896 6.896 0 0 1-6.89 6.893zm0-13.284a6.396 6.396 0 0 0-6.388 6.391 6.393 6.393 0 0 0 6.388 6.391 6.393 6.393 0 0 0 6.389-6.391 6.397 6.397 0 0 0-6.389-6.391z" fill="#000"/><path d="M441.487 126.405c-5.095 0-9.237-4.144-9.237-9.241 0-5.097 4.142-9.241 9.237-9.241s9.237 4.144 9.237 9.241c0 5.097-4.142 9.241-9.237 9.241zm0-17.939c-4.796 0-8.694 3.9-8.694 8.698s3.898 8.698 8.694 8.698c4.796 0 8.694-3.9 8.694-8.698s-3.898-8.698-8.694-8.698z" fill="#000"/><path d="M441.483 128.759c-6.388 0-11.588-5.198-11.588-11.594 0-6.391 5.196-11.594 11.588-11.594 6.393 0 11.589 5.198 11.589 11.594 0 6.391-5.196 11.594-11.589 11.594zm0-22.603c-6.066 0-11.004 4.936-11.004 11.009 0 6.069 4.934 11.005 11.004 11.005 6.071 0 11.005-4.936 11.005-11.005 0-6.069-4.939-11.009-11.005-11.009z" fill="#000"/><path d="M441.485 131.107c-7.686 0-13.936-6.253-13.936-13.943 0-7.689 6.25-13.942 13.936-13.942s13.936 6.253 13.936 13.942c0 7.69-6.25 13.943-13.936 13.943zm0-27.259c-7.341 0-13.31 5.972-13.31 13.316s5.969 13.317 13.31 13.317 13.31-5.973 13.31-13.317-5.969-13.316-13.31-13.316z" fill="#000"/><path d="M441.484 133.461c-8.979 0-16.288-7.312-16.288-16.296 0-8.983 7.309-16.295 16.288-16.295s16.288 7.312 16.288 16.295c0 8.984-7.304 16.296-16.288 16.296zm0-31.919c-8.611 0-15.616 7.008-15.616 15.623 0 8.615 7.005 15.623 15.616 15.623s15.616-7.008 15.616-15.623c.004-8.615-7.005-15.623-15.616-15.623z" fill="#000"/><path d="M441.483 135.809c-10.277 0-18.635-8.367-18.635-18.644 0-10.278 8.362-18.644 18.635-18.644 10.272 0 18.635 8.366 18.635 18.644 0 10.277-8.358 18.644-18.635 18.644zm0-36.579c-9.886 0-17.927 8.044-17.927 17.935 0 9.89 8.041 17.934 17.927 17.934s17.926-8.044 17.926-17.934c0-9.891-8.04-17.935-17.926-17.935z" fill="#000"/><path d="M441.482 138.162c-11.57 0-20.987-9.421-20.987-20.996 0-11.576 9.417-20.997 20.987-20.997 11.57 0 20.987 9.421 20.987 20.997 0 11.575-9.412 20.996-20.987 20.996zm0-41.238c-11.156 0-20.232 9.08-20.232 20.242 0 11.161 9.076 20.241 20.232 20.241 11.156 0 20.232-9.08 20.232-20.241 0-11.162-9.076-20.242-20.232-20.242z" fill="#000"/><path d="M441.485 140.511c-12.868 0-23.339-10.475-23.339-23.345s10.471-23.35 23.339-23.35c12.868 0 23.339 10.476 23.339 23.35s-10.471 23.345-23.339 23.345zm0-45.898c-12.431 0-22.542 10.116-22.542 22.553 0 12.437 10.111 22.553 22.542 22.553 12.431 0 22.542-10.116 22.542-22.553 0-12.437-10.111-22.553-22.542-22.553z" fill="#000"/><path d="M441.487 142.864c-14.162 0-25.686-11.53-25.686-25.698 0-14.168 11.524-25.698 25.686-25.698 14.161 0 25.685 11.53 25.685 25.698 0 14.168-11.519 25.698-25.685 25.698zm0-50.558c-13.702 0-24.849 11.152-24.849 24.86 0 13.707 11.147 24.86 24.849 24.86 13.701 0 24.848-11.153 24.848-24.86 0-13.708-11.147-24.86-24.848-24.86z" fill="#000"/><path d="M441.487 145.217c-15.46 0-28.038-12.584-28.038-28.05 0-15.467 12.578-28.051 28.038-28.051 15.459 0 28.037 12.584 28.037 28.051 0 15.466-12.578 28.05-28.037 28.05zm0-55.222c-14.976 0-27.159 12.188-27.159 27.172 0 14.983 12.183 27.171 27.159 27.171 14.976 0 27.158-12.188 27.158-27.171 0-14.984-12.182-27.172-27.158-27.172z" fill="#000"/><path d="M441.485 147.565c-16.752 0-30.384-13.638-30.384-30.399 0-16.76 13.632-30.399 30.384-30.399 16.753 0 30.385 13.639 30.385 30.399 0 16.761-13.627 30.399-30.385 30.399zm0-59.877c-16.246 0-29.464 13.224-29.464 29.478s13.218 29.479 29.464 29.479c16.247 0 29.465-13.225 29.465-29.479 0-16.254-13.218-29.478-29.465-29.478z" fill="#000"/><path d="M177.159 74.038c6.126.019 13.752.037 21.456-.267 30.27-1.197 65.119-2.537 94.096-3.412 44.85-1.358 83.956-2.408 84.343-2.417l-.014-.46c-.391.009-39.498 1.058-84.348 2.417-28.976.875-63.825 2.215-94.1 3.412-7.695.304-15.316.285-21.437.267-27.67-.078-49.881.543-62.537 1.75-8.013.796-14.493 2.748-19.735 5.424.014-.023.023-.046.037-.07 5.573-2.826 12.131-4.636 19.652-5.4 49.079-4.96 262.182-10.25 264.332-10.305l-.014-.46c-2.149.05-215.271 5.345-264.364 10.304-8.634.87-16.017 3.122-22.1 6.69-12.524 6.976-21.006 20.311-21.006 35.584 0 22.47 18.363 40.75 40.933 40.75s40.934-18.28 40.934-40.75c0-.575-.032-1.151-.083-1.736h-7.318c.023.576.037 1.152.037 1.736 0 18.428-15.059 33.42-33.57 33.42-18.133 0-32.718-14.394-33.528-32.305.041-2.229.157-4.692.437-6.557 5.712-24.39 23.703-27.904 36.741-28.424 18.175-.728 33.68 8.357 48.808 28.58 2.205 2.947 8.312 9.757 17.3 9.472 11.962-.401 30.721-1.824 48.859-3.196 16.32-1.234 31.733-2.403 39.198-2.569 17.075-.382 78.411-3.246 79.028-3.274l-.023-.456c-.617.028-61.948 2.897-79.018 3.274-7.479.166-22.897 1.335-39.222 2.574-18.138 1.372-36.892 2.795-48.84 3.196-8.791.285-14.755-6.396-16.918-9.288-7.3-9.761-14.613-16.82-22.345-21.581-8.477-5.217-17.259-7.566-26.85-7.183a77.833 77.833 0 0 0-4.225.28 64.906 64.906 0 0 1 4.151-.317c17.65-.787 33.915 7.897 49.715 26.563 4.92 5.816 11.336 9.016 17.581 8.818 12.081-.41 30.514-1.763 48.339-3.066 16.527-1.211 32.133-2.358 40.119-2.542 18.924-.447 78.778-3.191 79.381-3.219l-.023-.456c-.603.028-60.452 2.772-79.372 3.219-7.999.184-23.61 1.331-40.142 2.542-17.82 1.307-36.248 2.656-48.32 3.066-6.112.221-12.385-2.947-17.213-8.652-15.901-18.781-32.286-27.535-50.088-26.724-3.797.17-7.304.63-10.534 1.381 3.207-.755 6.691-1.23 10.465-1.418 17.379-.861 33.938 7.165 50.626 24.547 3.047 3.172 9.408 8.454 17.862 8.163 12.201-.419 30.316-1.703 47.832-2.946 16.721-1.184 32.516-2.303 41.031-2.51 20.779-.511 79.151-3.136 79.735-3.163l-.018-.456c-.589.028-58.956 2.647-79.727 3.159-8.523.207-24.323 1.326-41.048 2.509-17.512 1.239-35.622 2.523-47.819 2.942-8.27.3-14.52-4.903-17.512-8.021-16.785-17.483-33.463-25.564-50.98-24.69-2.453.12-4.777.37-6.996.728 2.2-.377 4.506-.635 6.931-.764 17.107-.912 33.966 6.446 51.538 22.53 3.198 2.928 9.807 7.8 18.142 7.51 12.316-.433 30.109-1.649 47.322-2.823 16.913-1.155 32.888-2.247 41.946-2.472 22.63-.576 79.519-3.081 80.09-3.104l-.018-.456c-.571.023-57.456 2.528-80.082 3.104-9.066.225-25.046 1.317-41.964 2.472-17.208 1.175-34.996 2.39-47.303 2.823-8.165.286-14.668-4.508-17.811-7.39-17.669-16.171-34.637-23.585-51.873-22.65-4.506.244-8.634.912-12.381 1.994 3.728-1.091 7.834-1.773 12.316-2.035 16.601-.963 34.246 5.935 52.449 20.508 4.096 3.279 10.617 7.128 18.418 6.856 12.413-.442 29.879-1.588 46.77-2.702 17.116-1.129 33.284-2.192 42.898-2.436 24.48-.64 79.888-3.025 80.445-3.048l-.018-.46c-.557.022-55.961 2.403-80.441 3.047-9.623.244-25.796 1.313-42.917 2.436-16.886 1.11-34.352 2.261-46.755 2.703-7.663.285-14.079-3.527-18.115-6.755-18.29-14.647-36.046-21.577-52.761-20.61a61.056 61.056 0 0 0-7.41.87 57.78 57.78 0 0 1 7.35-.907c16.324-1.013 34.283 5.208 53.36 18.492 6.227 4.338 12.513 6.423 18.694 6.202 12.5-.446 29.64-1.533 46.213-2.583 17.318-1.096 33.671-2.132 43.856-2.399 26.334-.709 80.26-2.97 80.799-2.988l-.019-.46c-.543.023-54.464 2.283-80.794 2.988-10.194.267-26.556 1.303-43.875 2.399-16.568 1.05-33.703 2.136-46.198 2.583-6.071.221-12.27-1.842-18.414-6.124-19.16-13.344-37.215-19.588-53.65-18.575-3.705.23-7.166.755-10.392 1.57 3.203-.824 6.641-1.367 10.328-1.607 16.067-1.059 34.32 4.49 54.271 16.47 6.498 3.905 12.882 5.77 18.971 5.554 12.569-.456 29.367-1.478 45.609-2.464 17.531-1.063 34.085-2.071 44.864-2.362 28.185-.773 80.629-2.91 81.153-2.933l-.018-.46c-.525.023-52.969 2.16-81.149 2.933-10.783.285-27.347 1.294-44.877 2.362-16.242.985-33.036 2.008-45.601 2.463-6.001.226-12.297-1.63-18.717-5.488-20.035-12.032-38.384-17.599-54.538-16.535-5.657.373-10.747 1.432-15.262 3.154 4.497-1.727 9.568-2.8 15.202-3.19 15.79-1.092 34.356 3.77 55.187 14.448 6.862 3.523 13.162 5.13 19.247 4.904 12.61-.465 29.041-1.423 44.933-2.344 17.765-1.036 34.545-2.012 45.945-2.32 30.035-.838 80.997-2.855 81.508-2.878l-.019-.46c-.51.018-51.472 2.04-81.503 2.877-11.405.309-28.189 1.29-45.959 2.325-15.887.926-32.313 1.884-44.919 2.344-6.011.221-12.229-1.367-19.022-4.853-20.904-10.72-39.552-15.6-55.426-14.5-7.401.511-13.853 2.187-19.298 4.969 5.095-2.625 11.414-4.44 19.243-5.01 15.294-1.115 34.688 3.186 56.098 12.427 7.235 3.127 13.434 4.476 19.523 4.255 12.62-.47 28.655-1.363 44.16-2.224 18.032-1.004 35.061-1.952 47.119-2.288 31.89-.903 81.37-2.8 81.862-2.818l-.018-.46c-.497.018-49.973 1.915-81.858 2.817-12.063.336-29.096 1.285-47.133 2.289-15.5.865-31.535 1.754-44.15 2.224-6.011.22-12.15-1.12-19.321-4.218-21.474-9.274-40.947-13.579-56.314-12.465-6.83.498-12.523 1.93-17.264 4.02 4.727-2.095 10.397-3.54 17.208-4.061 15.013-1.147 34.725 2.454 57.014 10.406 4.732 1.69 11.93 3.896 19.8 3.606 12.578-.47 28.157-1.299 43.23-2.1 17.544-.93 35.682-1.897 48.449-2.256 33.74-.967 81.738-2.745 82.217-2.763l-.019-.46c-.479.018-48.477 1.795-82.212 2.762-12.771.36-30.914 1.322-48.463 2.256-15.068.802-30.652 1.63-43.221 2.1-7.791.286-14.934-1.902-19.624-3.578-22.349-7.975-42.13-11.58-57.203-10.433-8.965.681-16.573 3.052-22.722 7.054.019-.033.037-.07.056-.102 5.633-3.642 12.997-6.225 22.611-6.99 14.718-1.169 34.752 1.727 57.925 8.385 5.321 1.53 12.413 3.247 20.076 2.957 12.445-.47 27.49-1.23 42.033-1.967 17.936-.907 36.483-1.841 50.046-2.228 35.59-1.031 82.106-2.69 82.571-2.703l-.018-.46c-.465.018-46.981 1.671-82.571 2.702-13.568.387-32.12 1.327-50.055 2.234-14.548.736-29.589 1.496-42.029 1.966-7.599.29-14.64-1.423-19.928-2.938-23.229-6.672-43.318-9.577-58.091-8.399-8.699.691-16.123 2.957-22.189 6.732l.07-.124c5.573-3.44 12.776-5.876 22.063-6.649 14.415-1.197 34.762 1.004 58.842 6.359 5.854 1.303 12.854 2.592 20.351 2.311 12.178-.465 26.542-1.155 40.427-1.819 18.47-.883 37.565-1.8 52.058-2.219 37.444-1.096 82.474-2.634 82.925-2.648l-.018-.46c-.451.014-45.481 1.552-82.926 2.648-14.497.419-33.597 1.335-52.066 2.22-13.886.667-28.245 1.353-40.423 1.818-7.446.28-14.405-1.004-20.232-2.302-24.125-5.365-44.518-7.566-58.979-6.368-4.635.386-8.91 1.206-12.813 2.458 3.732-1.215 7.967-2.086 12.762-2.5 13.876-1.202 35.098.336 59.753 4.333 6.369 1.031 13.273 1.948 20.628 1.667 11.667-.452 25.078-1.06 38.047-1.649 19.261-.874 39.176-1.777 54.842-2.237 39.295-1.165 82.847-2.579 83.28-2.593l-.014-.46c-.437.014-43.985 1.427-83.28 2.592-15.666.46-35.585 1.363-54.846 2.238-12.97.59-26.381 1.197-38.043 1.648-7.313.277-14.189-.63-20.536-1.657-24.692-4.002-45.955-5.54-59.868-4.338-4.781.415-9.177 1.285-13.176 2.602 3.829-1.28 8.178-2.197 13.13-2.643 13.504-1.216 35.047-.396 60.664 2.307 6.14.649 13.329 1.317 20.904 1.022a8969.74 8969.74 0 0 0 33.924-1.414c20.646-.884 41.992-1.8 59.366-2.316 41.145-1.23 83.215-2.518 83.634-2.532l-.014-.46c-.419.013-42.489 1.307-83.634 2.532-17.378.515-38.724 1.427-59.37 2.316-11.994.516-23.325.999-33.92 1.413-7.543.29-14.709-.373-20.835-1.017-25.649-2.708-47.224-3.527-60.755-2.307-5.689.511-10.834 1.662-15.418 3.43 4.354-1.694 9.435-2.914 15.372-3.471 13.047-1.22 34.913-1.124 61.575.276 6.655.35 13.77.667 21.18.377 7.953-.313 16.338-.653 24.894-.999 23.693-.962 48.191-1.952 68.796-2.57 43-1.293 83.583-2.463 83.988-2.476l-.013-.46c-.405.013-40.994 1.183-83.989 2.476-20.609.617-45.108 1.612-68.801 2.57-8.555.345-16.941.686-24.894.999-7.387.29-14.493-.028-21.138-.378-26.685-1.4-48.578-1.5-61.644-.276-4.768.447-8.989 1.317-12.726 2.519 3.723-1.202 7.93-2.086 12.68-2.556 12.633-1.188 34.83-1.814 62.481-1.736z" fill="url(#paint0_linear)"/><path d="M495.559 97.215c-1.864-3.6-4.736-6.842-8.298-9.379-10.631-7.56-31.715-9.458-46.544-8.785a31.57 31.57 0 0 0-3.856.414 39.615 39.615 0 0 0-9.886 2.302l-.221.07a34.32 34.32 0 0 0-11.115 6.22c-5.353 4.153-8.74 9.329-10.816 13.602-.115.239-.225.474-.336.709-2.448 4.899-3.796 9.973-3.93 14.564-.667 22.572 18.364 40.953 40.934 40.953 22.57 0 40.933-18.372 40.933-40.953 0-.576-.032-1.16-.083-1.745h-7.318a43.8 43.8 0 0 1 .037 1.745c0 18.52-15.059 33.586-33.569 33.586-18.511 0-33.331-15.066-33.57-33.586-.157-12.161 6.936-30.178 29.768-33.724 1.786-.17 3.64-.257 5.573-.257 14.456 0 25.788 4.59 33.671 13.643 12.086 13.878 12.408 33.728 11.516 40.207l.911.124c.911-6.594.58-26.803-11.732-40.939-6.54-7.51-15.381-12.018-26.348-13.455 12.422 1.377 22.432 5.963 29.243 13.464a36.067 36.067 0 0 1 5.997 8.965c5.38 11.498 6.084 24.814 5.242 30.961l.911.125c.737-5.383.567-18.884-5.324-31.477-1.551-3.32-3.623-6.41-6.149-9.195-7-7.708-17.278-12.4-30.012-13.777 13.581 1.165 24.342 5.221 31.411 11.916 2.835 2.685 5.081 5.71 6.673 8.998 5.238 10.793 6.881 24.528 5.795 32.521l.911.125c1.1-8.132-.566-22.097-5.882-33.052-1.643-3.389-3.953-6.506-6.871-9.264-8.215-7.782-21.245-12.068-37.813-12.487 16.67.013 30.983 3.89 39.29 10.636 3.121 2.533 5.666 5.664 7.364 9.048 5.665 11.29 7.483 25.707 6.351 34.115l.829.111c1.15-8.533-.691-23.161-6.434-34.599-1.749-3.49-4.373-6.713-7.585-9.32-6.6-5.364-16.891-8.942-29.115-10.258 11.557.851 23.537 3.333 30.67 8.407 3.461 2.464 6.246 5.604 8.05 9.094 6.094 11.774 8.086 26.868 6.904 35.69l.796.106c1.215-8.951-.801-24.243-6.973-36.169z" fill="url(#paint1_linear)"/><path d="M13.563 125.622c-.184 0-.373-.005-.561-.009-3.696-.152-12.91-1.115-13.002-1.124l.046-.456c.092.009 9.288.972 12.97 1.119 2.485.101 4.74-.516 7.133-1.165 2.099-.571 4.271-1.16 6.683-1.271 6.01-.267 24.148-.451 24.332-.451l.005.461c-.184 0-18.313.179-24.314.451-2.361.106-4.506.691-6.582 1.252-2.245.613-4.381 1.193-6.71 1.193z" fill="#000"/><path d="M14.146 126.705c-.387 0-.778-.013-1.174-.046-2.112-.17-12.51-1.344-12.864-1.865l.19-.128.142-.175c.52.294 8.505 1.381 12.564 1.708 2.476.198 4.773-.304 7.198-.838 2.062-.456 4.198-.926 6.55-.972 6.144-.115 23.504-.193 24.295-.147l-.027.46c-.787-.046-18.124.033-24.26.148-2.31.046-4.418.511-6.461.957-2.071.461-4.055.898-6.153.898z" fill="#000"/><path d="M14.815 127.819a15.37 15.37 0 0 1-1.878-.11c-1.55-.189-11.975-1.644-12.555-2.505l.377-.263c.483.512 7.75 1.769 12.238 2.316 2.485.3 4.819-.092 7.29-.506 2.016-.341 4.1-.704 6.388-.677 1.86.009 4.602.023 7.585.032 7.304.028 15.583.06 16.66.12l-.027.461c-1.063-.065-9.697-.097-16.633-.12-2.982-.009-5.725-.023-7.585-.032-2.246-.019-4.312.336-6.31.672-1.882.308-3.686.612-5.55.612z" fill="#000"/><path d="M15.656 128.968c-.907 0-1.818-.06-2.752-.212-.465-.073-11.391-1.874-12.252-3.149l.382-.258c.474.705 6.448 2.054 11.943 2.952 2.5.409 4.893.129 7.429-.166 1.96-.23 3.985-.461 6.185-.396 3.231.101 8.837.184 13.78.253 4.98.074 9.278.134 10.41.203l-.027.46c-1.123-.064-5.417-.129-10.392-.202-4.948-.074-10.554-.152-13.79-.254-2.167-.069-4.178.166-6.116.392-1.629.193-3.207.377-4.8.377z" fill="#000"/><path d="M50.628 130.634c-1.265-.074-4.593-.157-8.445-.254-5.302-.133-11.902-.294-15.694-.506-2.067-.115-4 .009-5.868.129-2.651.17-5.155.331-7.75-.203-3.277-.672-11-2.385-11.948-3.789l.382-.258c.7 1.031 6.48 2.537 11.658 3.596 2.536.52 5.007.359 7.626.193 1.882-.119 3.824-.244 5.923-.128 3.783.211 10.378.373 15.68.506 3.857.097 7.19.18 8.464.253l-.028.461z" fill="#000"/><path d="M50.502 132.612c-1.353-.079-4.009-.171-7.083-.281-5.684-.198-12.753-.442-17.015-.783-1.938-.152-3.76-.134-5.523-.111-2.766.033-5.38.065-8.031-.589-4.736-1.169-10.6-2.887-11.644-4.43l.382-.257c.75 1.109 4.787 2.615 11.373 4.24 2.595.64 5.177.608 7.916.576 1.776-.023 3.608-.041 5.564.111 4.252.34 11.317.584 16.996.782 3.08.106 5.735.198 7.093.281l-.028.461z" fill="#000"/><path d="M50.37 134.591c-1.33-.079-3.379-.171-5.754-.272-5.711-.253-13.535-.594-18.308-1.091-1.753-.18-3.424-.249-5.044-.309-2.936-.115-5.707-.221-8.455-1.017-6.526-1.888-10.341-3.596-11.335-5.07l.382-.258c.644.953 3.088 2.574 11.082 4.886 2.692.778 5.435.884 8.344.999 1.625.064 3.3.129 5.072.313 4.759.493 12.574.838 18.28 1.087 2.375.106 4.423.193 5.758.271l-.023.461z" fill="#000"/><path d="M50.238 136.565a729.559 729.559 0 0 0-4.147-.226c-6.102-.318-14.465-.755-19.868-1.441-1.496-.189-2.94-.318-4.335-.442-3.19-.281-6.2-.548-9.1-1.515-6.139-2.04-9.853-3.965-11.031-5.714l.382-.258c1.109 1.639 4.842 3.554 10.797 5.534 2.849.949 5.836 1.211 8.998 1.492 1.399.125 2.844.254 4.353.442 5.39.686 13.739 1.124 19.837 1.442 1.606.082 3.023.156 4.15.225l-.036.461z" fill="#000"/><path d="M50.108 138.547l-1.97-.115c-6.268-.364-15.74-.912-22.008-1.856-1.09-.165-2.154-.308-3.19-.446-3.603-.484-7.009-.944-10.185-2.137-3.94-1.482-8.997-3.785-10.728-6.349l.382-.258c1.317 1.952 4.952 4.089 10.507 6.179 3.125 1.174 6.508 1.63 10.084 2.109 1.04.138 2.104.285 3.199.447 6.25.939 15.708 1.487 21.967 1.851l1.97.115-.028.46z" fill="#000"/><path d="M49.977 140.522c-8.556-.507-17.374-1.133-23.937-2.275l-1.105-.189c-4.381-.755-8.519-1.469-12.21-3.02-3.631-1.529-8.39-3.979-10.424-6.99l.382-.258c1.97 2.919 6.646 5.323 10.222 6.824 3.645 1.533 7.566 2.206 12.108 2.993l1.105.193c6.54 1.138 15.344 1.764 23.886 2.266l-.027.456z" fill="#000"/><path d="M49.849 142.498c-6.632-.392-16.325-1.087-23.895-2.579-5.201-1.022-9.445-2.067-13.255-3.84-3.305-1.538-7.741-4.112-10.12-7.63l.381-.258c2.32 3.435 6.683 5.959 9.932 7.474 3.765 1.754 7.98 2.79 13.149 3.803 7.548 1.483 17.217 2.178 23.836 2.569l-.028.461z" fill="#000"/><path d="M49.715 144.475c-19.653-1.165-38.927-3.859-46.866-15.619l.382-.257c7.828 11.594 26.979 14.26 46.511 15.416l-.027.46zM19.364 87.687c-2.08-2.016.372-7.675 5.476-12.63 2.02-1.961 4.152-3.518 6.117-4.563a41.278 41.278 0 0 0-.787-1.239c-2.716 1.202-5.804 3.325-8.699 6.134-6.13 5.953-9.075 12.745-6.576 15.167 1.905 1.851 6.434.622 11.197-2.717-.05-.064-.41-.52-.47-.598-2.738 1.321-5.09 1.579-6.258.446zM238.994 46.14c-10.185.027-17.291-.793-17.53-5.172.028-3.969 4.349-4.526 4.349-4.526l.253-2.026c-.501 0-2.609.391-3.994.838-9.201 2.96-8.22 11.576-2.269 12.515 5.95.94 19.191.019 19.191.019s.033-.604 0-1.649zM162.07 130.028l-.005-.46 134.661-1.644a44.72 44.72 0 0 0 19.344-4.683 45.26 45.26 0 0 1 20.641-4.729l54.184.7-.005.461-54.183-.7a44.682 44.682 0 0 0-20.43 4.683 45.242 45.242 0 0 1-19.546 4.728l-134.661 1.644z" fill="#000"/><path d="M161.835 130.934l-.005-.46 134.72-1.497c6.78-.082 14.406-1.749 19.422-4.254 5.417-2.703 13.554-4.388 20.72-4.301l54.207.636-.005.46-54.206-.635c-7.102-.092-15.156 1.579-20.508 4.254-5.072 2.533-12.777 4.223-19.62 4.301l-134.725 1.496z" fill="#000"/><path d="M161.599 131.841l-.004-.46 134.78-1.345c5.955-.073 14.879-1.524 19.496-3.826 5.058-2.523 14.552-3.946 20.798-3.872l54.229.571-.004.46-54.23-.571c-6.199-.06-15.593 1.331-20.586 3.827-4.851 2.422-13.771 3.803-19.694 3.877l-134.785 1.339z" fill="#000"/><path d="M161.364 132.749l-.005-.46 134.836-1.197c5.343-.065 15.386-1.313 19.569-3.398 4.823-2.409 15.97-3.518 20.876-3.449l54.253.506-.005.461-54.252-.507c-4.847-.069-15.906 1.022-20.665 3.398-4.602 2.298-15.317 3.394-19.772 3.449l-134.835 1.197z" fill="#000"/><path d="M161.129 133.659l-.005-.461 134.895-1.045c4.759-.055 16.007-1.156 19.643-2.97 4.165-2.077 16.73-3.071 20.955-3.021l54.275.443-.004.46-54.276-.442c-4.206-.06-16.642.925-20.743 2.97-4.013 2.003-15.823 2.97-19.845 3.02l-134.895 1.046z" fill="#000"/><path d="M160.896 134.564l-.004-.46 134.959-.898c3.489-.041 16.458-.916 19.717-2.542 3.534-1.763 17.318-2.638 21.028-2.592l54.299.382-.005.461-54.299-.383c-3.7-.055-17.346.811-20.821 2.542-3.378 1.685-16.283 2.547-19.919 2.593l-134.955.897z" fill="#000"/><path d="M160.661 135.469l-.005-.46 135.015-.746c3.268-.037 17.13-.788 19.79-2.114 2.964-1.478 17.724-2.205 21.107-2.164l54.321.318-.004.46-54.326-.317c-3.254-.028-18.051.695-20.9 2.113-2.872 1.432-17.272 2.132-19.992 2.164l-135.006.746z" fill="#000"/><path d="M160.424 136.378v-.46l135.075-.599c2.503-.032 17.714-.612 19.863-1.685 2.43-1.211 18.879-1.773 21.185-1.736l54.345.253v.461l-54.35-.253c-2.867-.037-18.74.571-20.972 1.685-2.357 1.179-18.415 1.717-20.067 1.736l-135.079.598z" fill="#000"/><path d="M160.185 137.285v-.46l135.134-.447c2.646-.032 18.423-.502 19.938-1.257 1.854-.925 19.735-1.331 21.262-1.308l54.368.189v.461l-54.372-.189c-2.025-.023-19.404.437-21.051 1.257-1.818.907-19.961 1.303-20.14 1.308l-135.139.446z" fill="#000"/><path d="M159.952 138.197v-.461l135.195-.299c3.976-.046 19.095-.373 20.015-.829 1.257-.631 20.536-.884 21.337-.879l54.391.129v.46l-54.396-.129c-2.117-.018-20.08.309-21.129.833-1.201.599-20.03.88-20.218.88l-135.195.295z" fill="#000"/><path d="M159.714 139.102v-.46l135.254-.147.502-.005c17.001-.152 19.371-.336 19.601-.405.658-.332 20.766-.447 21.387-.447h.014l54.419.065v.46l-54.419-.064c-1.16-.01-20.411.152-21.221.409-.12.06-.539.267-19.772.442l-.502.005-135.263.147zM390.893 139.551H159.481v.46h231.412v-.46zM397.97 97.046c4.018-7.74 11.188-17.76 22.519-21.535 5.045-1.681 12.123-2.602 20.472-2.666.225 0 .451-.005.672-.005 20.834 0 38.038 6.184 47.243 12.018 3.774 2.394 6.798 5.627 8.735 9.36 5.762 11.075 8.897 27.126 7.461 38.168l.768.106c1.459-11.189-1.712-27.443-7.543-38.646-2.007-3.854-5.123-7.197-9.012-9.665-9.296-5.894-26.652-12.138-47.652-12.138-.226 0-.451 0-.677.005-8.427.064-15.588 1-20.706 2.703-18.58 6.184-26.436 28.502-28.59 36.182h.81a75.668 75.668 0 0 1 5.5-13.887z" fill="#000"/><path d="M419.091 73.726c5.154-1.685 12.55-2.615 21.392-2.693 21.87-.17 40.422 5.71 50.478 11.262 4.078 2.252 7.341 5.507 9.426 9.412 6.144 11.493 9.513 28.226 8.013 39.779l.741.101c1.518-11.7-1.887-28.627-8.101-40.248-2.158-4.034-5.522-7.395-9.724-9.72-10.135-5.6-28.802-11.507-50.838-11.355-8.919.078-16.394 1.022-21.617 2.73-11.741 3.84-19.551 14.523-24.034 22.811-3.36 6.207-5.421 12.032-6.379 15.126h.806c2.402-7.588 11.257-31.127 29.837-37.205z" fill="#000"/><path d="M417.694 71.945c5.256-1.69 12.974-2.63 22.312-2.722 22.616-.188 42.706 5.54 53.033 10.503 4.318 2.077 7.907 5.438 10.116 9.467 6.527 11.903 10.13 29.313 8.565 41.395l.714.097c1.583-12.221-2.057-29.824-8.653-41.85-2.282-4.163-5.987-7.635-10.438-9.772-10.396-5-30.605-10.77-53.346-10.576-9.412.092-17.199 1.045-22.524 2.758-11.828 3.803-20.121 14.872-24.995 23.492-3.834 6.783-6.218 13.1-7.253 16.203h.773c2.545-7.463 12.509-32.83 31.696-38.995z" fill="#000"/><path d="M416.297 70.16c5.362-1.695 13.397-2.648 23.233-2.754 21.801-.198 43.621 4.747 55.587 9.743 4.602 1.925 8.441 5.305 10.811 9.523 5.932 10.553 10.967 28.718 9.122 43.006l.686.092c1.868-14.449-3.217-32.798-9.205-43.453-2.444-4.351-6.407-7.841-11.147-9.821-11.147-4.66-32.484-10.03-55.854-9.799-9.905.106-18.005 1.068-23.431 2.781-11.916 3.767-20.692 15.223-25.957 24.174-4.336 7.367-7.051 14.205-8.142 17.276h.736c2.615-7.224 13.729-34.501 33.561-40.768z" fill="#000"/><path d="M414.903 68.376c5.468-1.7 13.821-2.662 24.153-2.781 22.368-.24 45.325 4.342 58.142 8.983 4.883 1.768 8.97 5.171 11.506 9.578 6.264 10.894 11.598 29.717 9.674 44.622l.658.088c1.943-15.057-3.442-34.065-9.761-45.056-2.614-4.544-6.826-8.053-11.856-9.872-12.873-4.66-35.903-9.264-58.367-9.025-10.392.12-18.81 1.091-24.337 2.809-12.003 3.73-21.263 15.577-26.92 24.86-4.837 7.943-7.92 15.356-9.048 18.349h.713c2.688-6.907 15.303-36.298 35.443-42.555z" fill="#000"/><path d="M413.505 66.596c5.578-1.704 14.249-2.675 25.074-2.809 22.887-.267 46.976 3.942 60.691 8.22 5.164 1.61 9.495 5.032 12.201 9.637 6.595 11.22 12.228 30.707 10.231 46.238l.626.083c2.02-15.678-3.664-35.34-10.314-46.657-2.785-4.739-7.249-8.266-12.56-9.923-13.761-4.296-37.914-8.51-60.88-8.252-10.885.134-19.615 1.115-25.249 2.837-21.111 6.455-35.332 38.632-37.849 44.963h.672c2.618-6.437 16.531-37.969 37.357-44.337z" fill="#000"/><path d="M383.785 90.512c6.342-9.743 16.407-22.116 28.323-25.698 5.684-1.708 14.672-2.694 25.994-2.841 23.219-.28 49.052 3.665 63.236 7.455 5.362 1.432 10.061 4.963 12.901 9.692 6.931 11.544 12.863 31.693 10.783 47.855l.598.083c2.094-16.304-3.879-36.62-10.87-48.26-2.918-4.862-7.755-8.495-13.264-9.969-14.222-3.798-40.128-7.768-63.398-7.478-11.538.152-20.338 1.115-26.155 2.864-12.178 3.666-22.404 16.287-28.839 26.233-5.891 9.103-9.881 17.879-10.935 20.485h.649c1.128-2.684 5.021-11.276 10.977-20.421z" fill="#000"/><path d="M410.716 63.027c5.872-1.74 14.925-2.703 26.914-2.869 23.541-.313 50.608 3.251 65.787 6.69a21.65 21.65 0 0 1 13.6 9.753c7.267 11.861 13.498 32.665 11.34 49.471l.57.079c2.177-16.945-4.1-37.91-11.423-49.863-3.097-5.056-8.187-8.707-13.963-10.015-15.206-3.444-42.323-7.008-65.915-6.704-12.035.166-21.143 1.137-27.067 2.892-12.26 3.633-22.975 16.645-29.8 26.922-6.618 9.965-11.009 19.381-11.888 21.554h.631c2.144-4.871 19.251-41.408 41.214-47.91z" fill="#000"/><path d="M505.577 63.721c-16.288-3.09-44.643-6.266-68.437-5.935-12.495.18-21.907 1.16-27.973 2.92-23.127 6.787-42.406 47.348-43.594 50.23h.576c1.477-3.31 20.245-42.965 43.165-49.692 6.02-1.745 15.386-2.721 27.835-2.896 23.744-.336 52.062 2.84 68.327 5.926 5.891 1.119 11.105 4.697 14.304 9.812 6.153 9.845 14.396 31.573 11.893 51.088l.543.073c2.522-19.661-5.781-41.547-11.976-51.46-3.281-5.254-8.625-8.924-14.663-10.066z" fill="#000"/><path d="M507.622 61.166c-17.512-2.73-47.188-5.516-70.955-5.166-13.006.194-22.721 1.183-28.884 2.947-24.144 6.962-45.453 51.451-45.453 51.838h.322l.189.06c.129-.419 21.387-44.554 45.08-51.387 6.117-1.75 15.791-2.735 28.751-2.928 23.739-.341 53.378 2.43 70.872 5.157 6.153.957 11.621 4.558 15.008 9.876 6.425 10.089 15.045 32.449 12.45 52.704l.515.069c2.614-20.398-6.061-42.91-12.528-53.063-3.47-5.438-9.071-9.121-15.367-10.107z" fill="#000"/><path d="M509.672 58.615c-14.608-1.828-46.52-4.812-73.476-4.398-13.517.212-23.541 1.211-29.796 2.975-24.356 6.907-47.253 52.887-47.253 53.288h.309l.175.055c.133-.432 22.818-46.036 46.902-52.86 6.214-1.75 16.196-2.749 29.672-2.956 26.924-.414 58.813 2.565 73.412 4.393 6.407.801 12.137 4.42 15.713 9.936 6.701 10.328 15.694 33.314 13.006 54.32l.483.065c2.706-21.144-6.342-44.273-13.08-54.66-3.663-5.637-9.517-9.339-16.067-10.158z" fill="#000"/><path d="M529.007 66.807c-4.137-6.262-10.82-9.978-19.334-10.742-24.282-2.187-83.091-6.63-104.653-.626-24.508 6.828-49.052 54.324-49.052 54.734h.29l.161.055c.129-.41 6.181-12.216 15.533-25.104 8.289-11.424 20.775-25.771 33.187-29.225 21.493-5.99 80.238-1.547 104.492.64 8.372.755 14.94 4.398 18.994 10.54 5.827 8.822 16.054 31.753 13.03 55.393l.455.06c3.043-23.787-7.244-46.852-13.103-55.725z" fill="#000"/><defs><linearGradient id="paint0_linear" x1="71.43" y1="111.196" x2="378.912" y2="111.196" gradientUnits="userSpaceOnUse"><stop stop-color="#fff"/><stop offset="1"/></linearGradient><linearGradient id="paint1_linear" x1="400.538" y1="118.404" x2="502.876" y2="118.404" gradientUnits="userSpaceOnUse"><stop stop-color="#fff"/><stop offset="1"/></linearGradient></defs></svg>