<svg width="1300" height="378" fill="none" xmlns="http://www.w3.org/2000/svg"><g clip-path="url(#clip0)"><path d="M.422 122.637h567.904l34.491 17.623h134.706" stroke="#48B864" stroke-width="7.5"/><path d="M.875 215.268h225.007l30.36 45.174h75.186" stroke="#000" stroke-width="7.5" stroke-miterlimit="10"/><path d="M1029.03 168.281a18.55 18.55 0 0 1 3.12-10.286 18.563 18.563 0 0 1 8.31-6.818 18.537 18.537 0 0 1 10.7-1.054 18.53 18.53 0 0 1 14.55 14.546 18.56 18.56 0 0 1-1.05 10.697 18.604 18.604 0 0 1-6.82 8.308 18.547 18.547 0 0 1-10.29 3.12c-4.91 0-9.62-1.95-13.1-5.422a18.52 18.52 0 0 1-5.42-13.091zm24.89 0a6.37 6.37 0 0 0-1.08-3.537 6.346 6.346 0 0 0-2.86-2.344 6.336 6.336 0 0 0-3.67-.362 6.343 6.343 0 0 0-3.26 1.742 6.41 6.41 0 0 0-1.75 3.259 6.347 6.347 0 0 0 .37 3.678 6.328 6.328 0 0 0 2.34 2.857 6.385 6.385 0 0 0 3.54 1.072 6.395 6.395 0 0 0 4.5-1.869 6.418 6.418 0 0 0 1.87-4.496zM1127.42 66.903c0-3.66 1.09-7.238 3.13-10.28a18.492 18.492 0 0 1 8.31-6.812 18.526 18.526 0 0 1 10.7-1.047 18.47 18.47 0 0 1 9.47 5.07 18.559 18.559 0 0 1 5.07 9.48c.71 3.59.34 7.312-1.06 10.694a18.467 18.467 0 0 1-6.82 8.306 18.501 18.501 0 0 1-10.29 3.119 18.528 18.528 0 0 1-13.08-5.438 18.491 18.491 0 0 1-5.43-13.092zm24.88 0a6.367 6.367 0 0 0-1.06-3.54 6.358 6.358 0 0 0-2.86-2.352 6.362 6.362 0 0 0-6.94 1.37 6.351 6.351 0 0 0 .96 9.798c1.04.7 2.28 1.073 3.53 1.073a6.406 6.406 0 0 0 4.5-1.863 6.393 6.393 0 0 0 1.87-4.486zM1008.3 260.166c0-3.665 1.08-7.248 3.12-10.296a18.536 18.536 0 0 1 33.59 6.691c.71 3.596.34 7.322-1.06 10.707a18.574 18.574 0 0 1-6.84 8.313 18.527 18.527 0 0 1-10.3 3.115 18.57 18.57 0 0 1-13.09-5.438 18.525 18.525 0 0 1-5.42-13.092zm24.9 0a6.395 6.395 0 0 0-3.94-5.896 6.395 6.395 0 0 0-6.96 1.384 6.43 6.43 0 0 0-1.75 3.267 6.377 6.377 0 0 0 .37 3.687 6.357 6.357 0 0 0 2.35 2.864 6.365 6.365 0 0 0 8.05-.798 6.412 6.412 0 0 0 1.88-4.508zM1108.9 146.755c0-3.662 1.09-7.241 3.12-10.285a18.559 18.559 0 0 1 8.31-6.819 18.529 18.529 0 0 1 10.7-1.054 18.53 18.53 0 0 1 9.48 5.067 18.554 18.554 0 0 1 5.07 9.479 18.48 18.48 0 0 1-1.06 10.697 18.47 18.47 0 0 1-6.82 8.308 18.49 18.49 0 0 1-10.28 3.12 18.559 18.559 0 0 1-13.09-5.432 18.55 18.55 0 0 1-5.43-13.081zm24.88 0a6.346 6.346 0 0 0-3.93-5.881 6.336 6.336 0 0 0-3.67-.362 6.343 6.343 0 0 0-3.26 1.742 6.41 6.41 0 0 0-1.75 3.259 6.347 6.347 0 0 0 .37 3.678 6.328 6.328 0 0 0 2.34 2.857 6.385 6.385 0 0 0 3.54 1.072 6.372 6.372 0 0 0 4.49-1.869 6.334 6.334 0 0 0 1.87-4.496zM1203.69 165.235a18.519 18.519 0 0 1 36.68-3.611c.71 3.591.35 7.313-1.06 10.696a18.477 18.477 0 0 1-6.82 8.309 18.49 18.49 0 0 1-10.28 3.12 18.563 18.563 0 0 1-13.09-5.432 18.55 18.55 0 0 1-5.43-13.082zm24.88 0a6.357 6.357 0 0 0-3.93-5.88 6.37 6.37 0 0 0-6.94 1.379 6.4 6.4 0 0 0-1.74 3.26 6.425 6.425 0 0 0 .36 3.677 6.378 6.378 0 0 0 5.89 3.93 6.368 6.368 0 0 0 4.51-1.859 6.384 6.384 0 0 0 1.38-2.067c.32-.773.49-1.602.49-2.44h-.02z" fill="#D1D3D4"/><path d="M744.926 139.563a18.512 18.512 0 0 1 22.129-18.157 18.513 18.513 0 0 1-3.612 36.67 18.549 18.549 0 0 1-18.517-18.513zm24.884 0a6.366 6.366 0 0 0-10.869-4.501 6.362 6.362 0 0 0 .965 9.794 6.37 6.37 0 0 0 8.039-.792 6.366 6.366 0 0 0 1.865-4.501z" fill="#48B864"/><path d="M336.189 260.928a18.508 18.508 0 0 1 11.413-17.096 18.523 18.523 0 0 1 20.169 3.976 18.518 18.518 0 0 1 5.087 9.458 18.516 18.516 0 0 1-18.07 22.175 18.569 18.569 0 0 1-13.137-5.403 18.558 18.558 0 0 1-5.462-13.11zm24.884 0a6.366 6.366 0 1 0-12.734 0 6.366 6.366 0 0 0 12.734 0z" fill="#000"/><path d="M510.686 352.36a18.512 18.512 0 0 1 11.43-17.104 18.527 18.527 0 0 1 10.699-1.054 18.514 18.514 0 0 1 13.495 25.243 18.513 18.513 0 0 1-17.107 11.428 18.547 18.547 0 0 1-18.517-18.513zm24.883 0a6.363 6.363 0 0 0-7.609-6.243 6.362 6.362 0 0 0-2.295 11.536 6.371 6.371 0 0 0 3.538 1.072 6.381 6.381 0 0 0 6.366-6.365z" fill="#545453"/><path d="M803.346 132.064v14.691h-2.787l-7.338-8.925v8.925h-3.354v-14.691h2.803l7.322 8.925v-8.925h3.354zm3.483 0h6.675a9.248 9.248 0 0 1 4.228.923 6.647 6.647 0 0 1 2.851 2.559 7.709 7.709 0 0 1 0 7.726 6.816 6.816 0 0 1-2.851 2.592 9.439 9.439 0 0 1-4.228.891h-6.724l.049-14.691zm6.48 11.905a4.957 4.957 0 0 0 3.516-1.215 4.387 4.387 0 0 0 1.312-3.353 4.27 4.27 0 0 0-1.312-3.239 4.858 4.858 0 0 0-3.516-1.247h-3.11v9.119l3.11-.065zm21.644-4.859a3.868 3.868 0 0 1 1.976 1.344c.489.665.74 1.475.713 2.3a3.414 3.414 0 0 1-1.506 2.98 7.802 7.802 0 0 1-4.375 1.021h-7.614v-14.691h7.193a7.013 7.013 0 0 1 4.115 1.021 3.227 3.227 0 0 1 1.458 2.802 3.497 3.497 0 0 1-.534 1.911 3.618 3.618 0 0 1-1.394 1.312h-.032zm-7.42-4.487v3.418h3.386a3.435 3.435 0 0 0 1.912-.438 1.5 1.5 0 0 0 .496-.57c.113-.23.166-.486.152-.741a1.415 1.415 0 0 0-.648-1.28 3.442 3.442 0 0 0-1.912-.437l-3.386.048zm3.969 9.573a3.76 3.76 0 0 0 2.025-.438 1.503 1.503 0 0 0 .697-1.36c0-1.231-.907-1.83-2.722-1.83h-3.969v3.628h3.969zM382.879 253.039h3.515v12.31h7.598v2.867h-11.113v-15.177zm13.09 0h3.499v15.177h-3.499v-15.177zm6.48 7.726h6.14v2.705h-6.14v-2.705zm9.04-7.726h3.515v15.177h-3.515v-15.177zm14.467 15.436a8.952 8.952 0 0 1-4.277-1.02 7.764 7.764 0 0 1-4.074-6.827 7.758 7.758 0 0 1 4.074-6.827 8.965 8.965 0 0 1 4.277-1.021 8.786 8.786 0 0 1 4.244 1.021 7.646 7.646 0 0 1 4.05 6.835 7.546 7.546 0 0 1-4.05 6.819 8.798 8.798 0 0 1-4.293 1.085l.049-.065zm0-2.996a4.855 4.855 0 0 0 2.43-.6 4.542 4.542 0 0 0 1.62-1.733 4.983 4.983 0 0 0 .632-2.51 5.048 5.048 0 0 0-.632-2.527 4.357 4.357 0 0 0-1.62-1.62 4.994 4.994 0 0 0-4.86 0 4.444 4.444 0 0 0-1.718 1.62 5.203 5.203 0 0 0-.599 2.527 5.138 5.138 0 0 0 .599 2.51 4.631 4.631 0 0 0 1.718 1.733 4.864 4.864 0 0 0 2.381.665l.049-.065zm24.803-12.44v15.177h-2.868L440.309 259v9.216h-3.467v-15.177h2.917l7.533 9.217v-9.217h3.467zM561.926 361.139a10.767 10.767 0 0 1-2.981-.405 7.093 7.093 0 0 1-2.3-1.085l1.02-2.268c.603.431 1.27.764 1.977.988a7.678 7.678 0 0 0 2.3.373 3.797 3.797 0 0 0 1.831-.422 1.161 1.161 0 0 0 .599-1.02.902.902 0 0 0-.372-.761 2.502 2.502 0 0 0-.924-.502 19.59 19.59 0 0 0-1.507-.405 21.588 21.588 0 0 1-2.43-.697 4.03 4.03 0 0 1-1.62-1.134 3.01 3.01 0 0 1-.68-2.073 3.536 3.536 0 0 1 .616-2.024 4.015 4.015 0 0 1 1.83-1.474 7.594 7.594 0 0 1 3.013-.535c.819-.001 1.635.097 2.431.292.73.181 1.429.47 2.073.858l-.923 2.284a7.217 7.217 0 0 0-3.597-1.02 3.385 3.385 0 0 0-1.863.404 1.287 1.287 0 0 0-.599 1.069 1.07 1.07 0 0 0 .696 1.005 11.56 11.56 0 0 0 2.123.631c.823.185 1.634.417 2.43.697a3.79 3.79 0 0 1 1.62 1.117c.477.57.72 1.299.68 2.041a3.529 3.529 0 0 1-.632 2.041 4.134 4.134 0 0 1-1.846 1.442 7.602 7.602 0 0 1-2.965.583zm7.549-13.168h2.997v12.957h-2.997v-12.957zm6.075 0h2.997v10.511h6.481v2.446h-9.494l.016-12.957zm22.681 0l-5.605 12.957h-2.933l-5.589-12.957h3.24l3.937 9.248 4.001-9.248h2.949zm11.113 10.544v2.413h-9.93v-12.957h9.72v2.397h-6.804v2.818h6.01v2.332h-6.01v2.997h7.014zm10.644 2.413l-2.511-3.612h-2.754v3.612h-2.997v-12.957h5.605a7.307 7.307 0 0 1 2.981.566 4.601 4.601 0 0 1 1.944 6.625 4.31 4.31 0 0 1-1.96 1.62l2.9 4.162-3.208-.016zm0-8.26a2.016 2.016 0 0 0-.697-1.62 3.14 3.14 0 0 0-2.057-.583h-2.446v4.503h2.446a3.146 3.146 0 0 0 2.057-.583 2.08 2.08 0 0 0 .665-1.717h.032zm16.929 8.471a7.765 7.765 0 0 1-3.645-.859 6.481 6.481 0 0 1-3.45-5.831 6.623 6.623 0 0 1 .907-3.433 6.717 6.717 0 0 1 2.543-2.398 7.584 7.584 0 0 1 3.645-.874 7.47 7.47 0 0 1 3.629.874 6.484 6.484 0 0 1 2.528 2.398 6.74 6.74 0 0 1 0 6.867 6.474 6.474 0 0 1-2.528 2.397 7.64 7.64 0 0 1-3.661.859h.032zm0-2.543a4.239 4.239 0 0 0 2.074-.518 3.76 3.76 0 0 0 1.442-1.491 4.588 4.588 0 0 0 0-4.292 3.571 3.571 0 0 0-1.442-1.458 4.295 4.295 0 0 0-4.147 0 3.71 3.71 0 0 0-1.458 1.458 4.699 4.699 0 0 0 0 4.292 3.91 3.91 0 0 0 1.458 1.491c.626.342 1.328.52 2.041.518h.032zm17.027 2.332l-3.127-4.503-3.061 4.503h-3.451l4.86-6.592-4.552-6.365h3.402l2.981 4.195 2.932-4.195h3.24l-4.52 6.252 4.86 6.705h-3.564zm4.633-12.957h3.014v12.957h-3.046l.032-12.957zm6.076 0h5.896a8.232 8.232 0 0 1 3.71.809 5.937 5.937 0 0 1 2.528 2.268 6.833 6.833 0 0 1 0 6.803 6.028 6.028 0 0 1-2.528 2.267 8.22 8.22 0 0 1-3.71.81h-5.896v-12.957zm5.734 10.495a4.293 4.293 0 0 0 3.095-1.085 4.276 4.276 0 0 0 0-5.863 4.298 4.298 0 0 0-3.095-1.086h-2.77v8.099l2.77-.065zm19.587 0v2.414h-10.028v-12.958h9.72v2.397h-6.804v2.818h6.01v2.333h-6.01v2.996h7.112z" fill="#000"/><path d="M1169.73 60.813h129.2M1063.54 151.161l65.27-66.619M.729 173.059h447.373l97.948 43.521h453.465l31.465-32.459M848.496 139.401h168.614l122.54-122.498h159.28M1144.62 130.606l12.65-12.795H1300M1038.7 236.648l72.24-72.368M1026.81 378.794v-93.992M1071.96 379.166V263.211l96.36-97.976h31.33M1245.37 165.268h53.56" stroke="#D1D3D4" stroke-width="7.5" stroke-miterlimit="10"/><path d="M1.5 305H370l44.5 49h91" stroke="#545454" stroke-width="7.5"/></g><defs><clipPath id="clip0"><path fill="#fff" d="M0 0h1300v378H0z"/></clipPath></defs></svg>