<svg id="Layer_1" data-name="Layer 1" xmlns="http://www.w3.org/2000/svg" xmlns:xlink="http://www.w3.org/1999/xlink" viewBox="0 0 2571.3 618.9"><defs><style>.cls-1{opacity:0.35;}.cls-2,.cls-5{fill:none;}.cls-2{stroke:#231f20;stroke-miterlimit:10;stroke-dasharray:1;}.cls-3{fill:url(#linear-gradient);}.cls-4{fill:url(#linear-gradient-2);}.cls-6{fill:url(#linear-gradient-3);}.cls-7{fill:url(#linear-gradient-4);}</style><linearGradient id="linear-gradient" x1="1142.15" y1="291.04" x2="1769.36" y2="519.33" gradientTransform="matrix(1, 0, 0, -1, 0, 618)" gradientUnits="userSpaceOnUse"><stop offset="0" stop-color="#fff"/><stop offset="0.03" stop-color="#f1f1f1"/><stop offset="0.21" stop-color="#a9a9a9"/><stop offset="0.37" stop-color="#6d6d6d"/><stop offset="0.52" stop-color="#3e3e3e"/><stop offset="0.65" stop-color="#1c1c1c"/><stop offset="0.75" stop-color="#070707"/><stop offset="0.83"/></linearGradient><linearGradient id="linear-gradient-2" x1="1571.83" y1="-31.11" x2="1792.57" y2="-31.11" gradientTransform="matrix(1, 0, 0, -1, 262.04, 232.51)" gradientUnits="userSpaceOnUse"><stop offset="0" stop-color="#fff"/><stop offset="0.04" stop-color="#f1f1f1"/><stop offset="0.25" stop-color="#a9a9a9"/><stop offset="0.45" stop-color="#6d6d6d"/><stop offset="0.63" stop-color="#3e3e3e"/><stop offset="0.78" stop-color="#1c1c1c"/><stop offset="0.91" stop-color="#070707"/><stop offset="1"/></linearGradient><linearGradient id="linear-gradient-3" y1="337.21" x2="860.9" y2="337.21" gradientTransform="translate(0 -28.11)" gradientUnits="userSpaceOnUse"><stop offset="0.05" stop-color="#fff"/><stop offset="1" stop-color="#fff" stop-opacity="0"/></linearGradient><linearGradient id="linear-gradient-4" x1="2382.4" y1="337.21" x2="3243.3" y2="337.21" gradientTransform="matrix(-1, 0, 0, 1, 4953.3, -28.11)" xlink:href="#linear-gradient-3"/></defs><title>a car</title><g class="cls-1"><path class="cls-2" d="M3148.3,370.9c72.2,28.2-230.2-56-271.3-67-160-42.8-668.5-.3-866,24.3-359.7,44.8-758.2,36.7-1150.1,8.1C467.7,307.7,141.5,285.6-143.3,361c0,0-344.2,105.1-256.3,190"/><path class="cls-2" d="M-399.5,551c-37.1-35.8,5.8-75.4,67-108.7,79.7-43.8,189.7-76.9,190.7-77.1C147.9,312,467.9,308.7,861.7,337c368.4,26.4,734.8,36.2,1077.4.5q36.3-3.75,72.1-8.2c198.8-24.5,704.4-65.7,865.6-22.9,43,11.3,342.2,94.5,271.6,66.9"/><path class="cls-2" d="M-399.5,551c-36.2-34.9,6.9-73.3,68.2-106,79.7-42.5,188.8-75.3,190.9-75.6,289.8-52.8,608.5-59.8,1002.8-31.8,370.9,26.1,732,37,1076.8,1q36.3-3.75,72.1-8.2c200.2-24.4,702.7-63.8,865.1-21.6,44.7,11.6,340.8,93.8,271.9,66.9"/><path class="cls-2" d="M-399.5,551c-35.2-34,7.9-71.3,69.4-103.3,79.6-41.4,188-73.6,191.1-74.2,289.8-52.4,607.2-63,1002-35.4,373.4,25.8,729.3,37.7,1076.3,1.4q36.3-3.75,72.1-8.1c201.6-24.4,701.1-62.2,864.7-20.2,46.5,11.9,339.5,93.1,272.2,66.8"/><path class="cls-2" d="M-399.5,551c-34.3-33,8.9-69.3,70.6-100.6,79.6-40.3,187.2-72,191.3-72.7,289.9-52.1,605.9-66.3,1001.3-39,376,25.5,726.6,38.5,1075.8,1.9q36.15-3.75,72-8.1c202.9-24.3,699.4-60.7,864.3-18.9,48.3,12.2,338.1,92.4,272.5,66.7"/><path class="cls-2" d="M-399.5,551c-33.3-32.1,9.9-67.3,71.8-97.9,79.5-39.2,186.3-70.3,191.5-71.3,290-51.7,604.6-69.6,1000.6-42.6,378.5,25.3,723.9,39.2,1075.3,2.3q36.15-3.75,72-8.1c204.3-24.2,697.8-59.1,863.9-17.5,50.1,12.5,336.8,91.7,272.8,66.7"/><path class="cls-2" d="M-399.5,551c-32.3-31.2,10.9-65.3,73-95.2,79.4-38.1,185.5-68.7,191.7-69.8,290-51.3,603.3-72.8,999.9-46.2,381.1,25,721.2,40,1074.7,2.8q36.15-3.75,72-8.1c205.7-24.2,696.2-57.6,863.4-16.2,51.9,12.8,335.4,91,273,66.6"/><path class="cls-2" d="M-399.5,551c-31.4-30.3,11.9-63.4,74.2-92.4,79.3-37,184.7-67.1,191.9-68.4,290.1-51,602-76.1,999.2-49.8,383.6,24.7,718.5,40.7,1074.2,3.2q36.15-3.75,71.9-8c207-24.1,694.6-56,863-14.8,53.7,13.1,334.1,90.3,273.3,66.6"/><path class="cls-2" d="M-399.5,551c-30.4-29.3,12.9-61.4,75.4-89.7,79.2-35.9,183.8-65.5,192.1-66.9,290.2-50.6,600.8-79.3,998.5-53.4,386.1,24.4,715.8,41.4,1073.7,3.7,24.1-2.5,48-5.2,71.9-8,208.4-24,693-54.5,862.6-13.5,55.5,13.4,332.7,89.6,273.6,66.5"/><path class="cls-2" d="M-399.5,551c-29.5-28.4,13.9-59.4,76.6-87,79.1-34.8,183-63.8,192.3-65.5,290.2-50.2,599.5-82.6,997.8-57,388.7,24.1,713.1,42.2,1073.1,4.1q36-3.75,71.9-8c209.8-23.9,691.3-53,862.2-12.1,57.3,13.7,331.4,88.9,273.9,66.4"/><path class="cls-2" d="M-399.5,551c-28.5-27.5,14.9-57.4,77.8-84.3,79.1-33.8,182.1-62.2,192.5-64,290.3-49.9,598.2-85.8,997.1-60.6,391.2,23.8,710.3,42.9,1072.6,4.6,24-2.5,48-5.2,71.8-7.9C2223.5,314.9,2702,287.3,2874,328c59.1,14,330,88.2,274.2,66.4"/><path class="cls-2" d="M-399.5,551c-27.6-26.6,15.9-55.4,79.1-81.6,79-32.7,181.3-60.6,192.8-62.5,290.4-49.5,596.9-89.1,996.4-64.2,393.8,23.6,707.6,43.7,1072.1,5.1,24-2.5,47.9-5.2,71.8-7.9,212.5-23.8,688.1-50.1,861.3-9.4,60.9,14.3,328.7,87.6,274.4,66.3"/><path class="cls-2" d="M-399.5,551c-26.6-25.7,16.8-53.5,80.3-78.9,78.9-31.6,180.5-59,193-61.1,290.4-49.2,595.6-92.3,995.7-67.8,396.3,23.3,704.9,44.4,1071.6,5.5,24-2.5,47.9-5.2,71.8-7.9,213.9-23.7,686.5-48.6,860.9-8,62.7,14.6,327.3,86.9,274.7,66.3"/><path class="cls-2" d="M-399.5,551c-25.6-24.7,17.8-51.5,81.5-76.2,78.7-30.5,179.6-57.4,193.2-59.6,290.5-48.8,594.4-95.6,994.9-71.4,398.8,23,702.2,45.2,1071,6q36-3.75,71.7-7.9c215.3-23.7,684.9-47.1,860.5-6.7,64.5,14.9,326,86.2,275,66.2"/><path class="cls-2" d="M-399.5,551c-24.7-23.8,18.8-49.5,82.7-73.5,78.6-29.5,178.8-55.7,193.4-58.2,290.6-48.4,593.1-98.8,994.2-75,401.4,22.7,699.5,45.9,1070.5,6.4,23.9-2.5,47.9-5.1,71.7-7.8,216.6-23.6,683.3-45.7,860-5.3,66.3,15.1,324.6,85.5,275.3,66.1"/><path class="cls-2" d="M-399.5,551c-23.7-22.9,19.8-47.6,83.9-70.8,78.5-28.4,177.9-54.1,193.6-56.7,290.7-48.1,591.8-102.1,993.5-78.6,403.9,22.4,696.8,46.7,1070,6.9q35.85-3.75,71.7-7.8c218-23.5,681.8-44.2,859.6-4,68.1,15.4,323.3,84.8,275.6,66.1"/><path class="cls-2" d="M-399.5,551c-22.8-22,20.7-45.6,85.1-68,78.4-27.3,177.1-52.5,193.8-55.3C170.1,380,469.9,322.4,872.2,345.5c406.5,22.1,694.1,47.4,1069.4,7.3q35.85-3.75,71.7-7.8c219.4-23.4,680.2-42.8,859.2-2.6,69.9,15.7,321.9,84.1,275.8,66"/><path class="cls-2" d="M-399.5,551c-21.8-21,21.7-43.6,86.3-65.3,78.3-26.3,176.3-50.9,194-53.8C171.6,384.5,470,323.3,872.9,346.1c409,21.9,691.4,48.2,1068.9,7.8q35.85-3.75,71.6-7.7c220.8-23.4,678.6-41.4,858.8-1.3,71.8,16,320.6,83.4,276.1,66"/><path class="cls-2" d="M-399.5,551c-20.9-20.1,22.7-41.7,87.5-62.6,78.2-25.2,175.4-49.3,194.2-52.4,290.9-47,588-111.9,991.4-89.4,411.5,21.6,688.6,48.9,1068.4,8.2,23.9-2.5,47.7-5.2,71.6-7.7,222.1-23.8,677-40,858.3.1,73.6,16.2,319.2,82.7,276.4,65.9"/><path class="cls-2" d="M-399.5,551c-19.9-19.2,23.6-39.7,88.7-59.9,78-24.2,174.6-47.7,194.4-50.9,291-46.6,586.7-115.1,990.7-93,414.1,21.3,685.9,49.6,1067.9,8.7q35.7-3.75,71.6-7.7c223.4-23.7,675.4-38.5,857.9,1.4,75.4,16.5,317.9,82,276.7,65.8"/><path class="cls-2" d="M-399.5,551c-18.9-18.3,24.6-37.8,89.9-57.2,77.9-23.2,173.7-46.1,194.6-49.4C176,398.1,470.4,326,875,347.8c416.6,21,683.2,50.4,1067.3,9.1,23.8-2.5,47.7-5.1,71.5-7.6,224.8-23.6,673.8-37.1,857.5,2.8,77.2,16.8,316.5,81.3,277,65.8"/><path class="cls-2" d="M-399.5,551c-18-17.3,25.5-35.8,91.1-54.5,77.8-22.1,172.9-44.5,194.8-48,291.1-45.9,584.1-121.6,989.3-100.2,419.2,20.7,680.5,51.1,1066.8,9.6,23.8-2.5,47.6-5.1,71.5-7.6,226.2-23.6,672.2-35.7,857.1,4.1,79,17,315.2,80.6,277.2,65.7"/><path class="cls-2" d="M-399.5,551c-17-16.4,26.5-33.9,92.4-51.8,77.6-21.1,172-42.9,195-46.5,291.2-45.6,582.8-124.9,988.5-103.8,421.7,20.4,677.8,51.9,1066.3,10,23.8-2.5,47.6-5.1,71.5-7.6,227.6-23.5,670.6-34.3,856.6,5.5,80.8,17.3,313.9,79.9,277.5,65.7"/><path class="cls-2" d="M-399.5,551c-16.1-15.5,27.4-32,93.6-49.1,77.5-20.1,171.2-41.4,195.2-45.1,291.3-45.2,581.5-128.1,987.8-107.4,424.2,20.2,675.1,52.6,1065.7,10.5,23.8-2.5,47.6-5.1,71.4-7.6,228.9-23.5,669.1-32.9,856.2,6.9,82.6,17.6,312.5,79.2,277.8,65.6"/><path class="cls-2" d="M-399.5,551c-15.1-14.6,28.4-30,94.8-46.4,77.3-19,170.4-39.8,195.4-43.6,291.4-44.8,580.2-131.4,987.1-111,426.8,19.9,672.4,53.4,1065.2,10.9,23.7-2.5,47.6-5.1,71.4-7.5,230.3-23.4,667.5-31.5,855.8,8.2,84.4,17.8,311.2,78.5,278.1,65.6"/><path class="cls-2" d="M-399.5,551c-14.2-13.7,29.3-28.1,96-43.6,77.2-18,169.5-38.2,195.6-42.2,291.5-44.5,579-134.6,986.4-114.5,429.3,19.6,669.6,54.1,1064.7,11.4,23.7-2.5,47.5-5.1,71.4-7.5,231.7-23.3,665.9-30.1,855.4,9.6,86.2,18.1,309.8,77.8,278.4,65.5"/><path class="cls-2" d="M-399.5,551c-13.2-12.7,30.3-26.2,97.2-40.9,77-17,168.7-36.6,195.8-40.7,291.6-44.1,577.7-137.9,985.7-118.1C1311,370.5,1546.1,406,1943.4,363c23.7-2.5,47.5-5.1,71.3-7.5,233-23.3,664.3-28.7,855,10.9,88,18.3,308.5,77.1,278.7,65.4"/><path class="cls-2" d="M-399.5,551c-12.2-11.8,31.2-24.2,98.4-38.2,76.9-16,167.8-35,196-39.3,291.7-43.8,576.4-141.1,985-121.7,434.4,19,664.2,55.6,1063.6,12.3q35.55-3.9,71.3-7.4c234.4-23.2,662.7-27.4,854.5,12.3,89.8,18.6,307.1,76.4,278.9,65.4"/><path class="cls-2" d="M-399.5,551c-11.3-10.9,32.2-22.3,99.6-35.5,76.7-15,167-33.5,196.2-37.8,291.8-43.4,575.1-144.4,984.3-125.3,436.9,18.8,661.5,56.4,1063.1,12.7,23.7-2.6,47.4-5.1,71.3-7.4,235.8-23.1,661.2-26,854.1,13.6,91.7,18.8,305.8,75.7,279.2,65.3"/><path class="cls-2" d="M-399.5,551c-10.3-10,33.1-20.4,100.8-32.8,76.6-14,166.1-31.9,196.4-36.3,291.8-43,573.9-147.7,983.6-128.9,439.5,18.5,658.8,57.1,1062.6,13.2,23.6-2.6,47.4-5.1,71.2-7.4,237.2-23.1,659.6-24.6,853.7,15,93.5,19.1,304.4,75,279.5,65.3"/><path class="cls-2" d="M-399.5,551c-9.4-9,34.1-18.5,102-30.1,76.4-13,165.3-30.3,196.6-34.9,292-42.7,572.6-150.9,982.9-132.5,442,18.2,656.1,57.8,1062,13.6,23.6-2.6,47.4-5.1,71.2-7.4,238.5-23,658-23.2,853.3,16.3,95.3,19.3,303.1,74.3,279.8,65.2"/><path class="cls-2" d="M-399.5,551c-8.4-8.1,35-16.6,103.2-27.4,76.3-12.1,164.4-28.7,196.9-33.4C192.6,447.8,471.9,336,882.7,354c444.6,17.9,653.4,58.6,1061.5,14.1q35.4-3.9,71.2-7.3c239.9-22.9,656.4-21.9,852.8,17.7,97.1,19.5,301.7,73.6,280.1,65.1"/><path class="cls-2" d="M-399.5,551c-7.5-7.2,35.9-14.7,104.4-24.7,76.1-11.1,163.6-27.2,197.1-32,292.1-42,570-157.4,981.4-139.7,447.1,17.6,650.7,59.3,1061,14.5q35.4-3.9,71.2-7.3c241.3-22.9,654.8-20.5,852.4,19,98.9,19.8,300.4,72.9,280.3,65.1"/><path class="cls-2" d="M-399.5,551c-6.5-6.3,36.9-12.8,105.6-22,76-10.1,162.7-25.6,197.3-30.5,292.2-41.6,568.7-160.7,980.7-143.3,449.6,17.3,647.9,60.1,1060.5,15q35.4-3.9,71.1-7.3c242.6-22.8,653.3-19.1,852,20.4,100.7,20,299,72.2,280.6,65"/><path class="cls-2" d="M-399.5,551c-5.5-5.3,37.8-10.9,106.9-19.2,75.8-9.1,161.9-24.1,197.5-29.1,292.3-41.3,567.5-163.9,980-146.9,452.2,17.1,645.2,60.8,1059.9,15.4q35.4-3.9,71.1-7.2c244-22.7,651.7-17.8,851.6,21.8,102.5,20.3,297.7,71.5,280.9,65"/><path class="cls-2" d="M-399.5,551c-4.6-4.4,38.8-9,108.1-16.5,75.7-8.2,161.1-22.5,197.7-27.6C198.7,466,472.5,339.7,885.6,356.4c454.7,16.8,642.5,61.6,1059.4,15.9q35.25-3.9,71.1-7.2c245.4-22.6,650.1-16.4,851.1,23.1,104.3,20.5,296.3,70.8,281.2,64.9"/><path class="cls-2" d="M-399.5,551c-3.6-3.5,39.7-7.2,109.3-13.8C-214.7,530-130,516.3-92.3,511c292.5-40.5,564.9-170.4,978.6-154.1,457.3,16.5,639.8,62.3,1058.9,16.3q35.25-3.9,71-7.2c246.8-22.6,648.5-15,850.7,24.5,106.1,20.7,295,70.1,281.5,64.8"/><path class="cls-2" d="M-399.5,551c-2.7-2.6,40.6-5.3,110.5-11.1,75.3-6.3,159.4-19.4,198.1-24.7C201.7,475,472.6,341.5,886.9,357.4c459.8,16.2,637.1,63.1,1058.3,16.8q35.25-3.9,71-7.1c248.1-22.5,647-13.7,850.3,25.8,108,21,293.6,69.4,281.7,64.8"/><path class="cls-2" d="M-399.5,551c-1.7-1.7,41.6-3.4,111.7-8.4,75.2-5.3,158.5-17.8,198.3-23.3C203.2,479.5,472.8,342.4,887.6,358c462.3,15.9,634.4,63.8,1057.8,17.2,23.5-2.6,47.1-5,71-7.1,249.5-22.4,645.4-12.3,849.9,27.2,109.8,21.2,292.3,68.7,282,64.7"/><path class="cls-2" d="M-399.5,551c-.8-.7,42.5-1.6,112.9-5.7,75-4.4,157.7-16.3,198.5-21.8,292.9-39.5,561-180.2,976.5-164.9,464.9,15.6,631.7,64.6,1057.3,17.7q35.25-3.9,70.9-7.1c250.9-22.3,643.8-11,849.4,28.5,111.6,21.4,290.9,68,282.3,64.7"/><path class="cls-2" d="M-399.5,551c.2.2,43.4.3,114.1-3,74.9-3.5,156.8-14.8,198.7-20.3C206.3,488.5,473,344.2,889,359.1c467.4,15.4,629,65.3,1056.8,18.1,23.4-2.6,47.1-4.9,70.9-7.1,252.3-21.7,642.2-9.6,849,29.9,113.4,21.7,289.6,67.3,282.6,64.6"/><path class="cls-2" d="M-399.5,551c1.2,1.1,44.4,2.1,115.3-.3,74.7-2.5,156-13.2,198.9-18.9,293.1-38.8,558.5-186.7,975-172.1,469.9,15.1,626.2,66,1056.2,18.6,23.4-2.6,47.1-4.9,70.9-7,253.7-21.7,640.6-8.3,848.6,31.2,115.2,21.9,288.2,66.6,282.9,64.5"/><path class="cls-2" d="M-399.5,551c2.1,2,45.5,7.7,116.5,2.4,74.4-5.5,155.1-11.7,199.1-17.4,293.2-38.4,557.2-190,974.3-175.7,472.5,14.8,623.5,66.8,1055.7,19q35.1-3.9,70.8-7c255-21.6,639.1-6.9,848.2,32.6,117,22.1,286.9,65.9,283.1,64.5"/><path class="cls-2" d="M-399.5,551c3.1,3,46.4,9.4,117.7,5.2,74.3-4.4,154.3-10.1,199.3-16,293.3-38,555.9-193.2,973.6-179.3,475,14.5,620.8,67.5,1055.2,19.5q35.1-3.9,70.8-7c256.4-21.5,637.5-5.6,847.7,34,118.9,22.3,285.5,65.2,283.4,64.4"/><path class="cls-2" d="M-399.5,551c4,3.9,47.3,11.1,118.9,7.9,74.2-3.4,153.4-8.6,199.5-14.5,293.4-37.7,554.6-196.5,972.9-182.9,477.6,14.2,618.1,68.3,1054.6,19.9q35.1-3.9,70.8-6.9c257.8-21.4,635.9-4.2,847.3,35.3,120.7,22.6,284.2,64.5,283.7,64.4"/><path class="cls-2" d="M-399.5,551c5,4.8,48.2,12.8,120.2,10.6,74.1-2.3,152.6-7.1,199.7-13.1C213.9,511.2,473.7,348.8,892.5,362c480.1,13.9,615.4,69,1054.1,20.4q35-3.9,70.8-6.9c259.1-21.4,634.3-2.9,846.9,36.7,122.5,22.8,282.9,63.8,284,64.3"/><path class="cls-2" d="M-399.5,551c5.9,5.7,49.1,11.3,121.4,13.3,74,2,151.7-5.5,199.9-11.6,293.7-37,552.1-203,971.5-190.1,482.6,13.7,612.7,69.8,1053.6,20.9q34.95-3.9,70.7-6.9c260.5-21.3,632.8-1.5,846.5,38,124.3,23,281.5,63.1,284.3,64.2"/><path class="cls-2" d="M-399.5,551c6.9,6.7,50.1,13.1,122.6,16,73.8,2.9,150.9-4,200.1-10.2C217,520.2,474,350.6,893.9,363.1c485.2,13.4,610,70.5,1053.1,21.3,23.3-2.6,46.9-4.8,70.7-6.9,261.9-21.2,631.2-.2,846,39.4,126.1,23.2,280.2,62.5,284.6,64.2"/><path class="cls-2" d="M-399.5,551c7.9,7.6,51,15,123.8,18.7,73.7,3.8,150-2.5,200.3-8.7,293.9-36.3,549.5-209.5,970.1-197.3,487.7,13.1,607.2,71.3,1052.5,21.8,23.3-2.6,46.9-4.8,70.7-6.8,263.3-21.2,629.6,1.2,845.6,40.7,127.9,23.4,278.8,61.8,284.8,64.1"/><path class="cls-2" d="M-399.5,551c8.8,8.5,52,16.8,125,21.4,73.5,4.7,149.2-1,200.5-7.2,294-35.9,548.2-212.7,969.3-200.9,490.3,12.8,604.5,72,1052,22.2,23.3-2.6,46.8-4.8,70.6-6.8,264.6-21.1,628,2.5,845.2,42.1,129.7,23.6,277.5,61.1,285.1,64.1"/><path class="cls-2" d="M-399.5,551c9.8,9.4,52.9,18.6,126.2,24.1s148.3.5,200.7-5.8c294.1-35.6,547-216,968.6-204.5,492.8,12.5,601.8,72.8,1051.5,22.7,23.2-2.6,46.8-4.8,70.6-6.8,266-21,626.5,3.8,844.8,43.4,131.6,23.9,276.1,60.4,285.4,64"/><path class="cls-2" d="M-399.5,551c10.7,10.3,53.9,20.4,127.4,26.9,73.3,6.5,147.5,2.1,201-4.3,294.3-35.2,545.7-219.2,967.9-208.1,495.3,12.2,599.1,73.5,1050.9,23.1,23.2-2.6,46.8-4.8,70.6-6.7,267.4-20.9,624.9,5.2,844.3,44.8,133.4,24.1,274.8,59.7,285.7,63.9"/><path class="cls-2" d="M-399.5,551c11.7,11.3,54.8,22.2,128.6,29.6,73.1,7.3,146.6,3.6,201.2-2.9C224.6,542.8,474.6,355.2,897.5,366c497.9,12,596.4,74.2,1050.4,23.6q34.8-3.9,70.5-6.7c268.7-20.9,623.3,6.5,843.9,46.1,135.2,24.3,273.4,59,286,63.9"/><path class="cls-2" d="M-399.5,551c12.6,12.2,55.8,23.9,129.8,32.3,73,8.2,145.7,5.1,201.4-1.4,294.5-34.5,543.1-225.7,966.5-215.3,500.4,11.7,593.7,75,1049.9,24q34.8-3.9,70.5-6.7c270.1-20.8,621.7,7.9,843.5,47.5,137,24.5,272.1,58.3,286.2,63.8"/><path class="cls-2" d="M-399.5,551c13.6,13.1,56.8,25.7,131,35,72.9,9.1,144.9,6.6,201.6,0,294.6-34.1,541.8-229,965.8-218.9,503,11.4,591,75.7,1049.4,24.5q34.8-3.9,70.5-6.6c271.5-20.7,620.2,9.2,843.1,48.9,138.8,24.7,270.7,57.6,286.5,63.8"/><path class="cls-2" d="M-399.5,551c14.6,14,57.7,27.5,132.2,37.7,72.8,10,144,8.1,201.8,1.5C229.3,556.4,475,357.9,899.6,367.7c505.5,11.1,588.3,76.5,1048.8,24.9,23.1-2.6,46.7-4.8,70.4-6.6,272.9-20.7,618.7,10.1,842.6,50.2,140.7,24.6,269.4,56.9,286.8,63.7"/><path class="cls-2" d="M-399.5,551c15.5,15,58.7,29.3,133.5,40.4,72.6,10.8,143.2,9.6,202,2.9,294.9-33.4,539.3-235.5,964.4-226.1,508,10.8,585.5,77.2,1048.3,25.4q34.65-3.9,70.4-6.6c274.2-20.6,617.1,11.5,842.2,51.6,142.5,24.9,268,56.2,287.1,63.6"/><path class="cls-2" d="M-399.5,551c16.5,15.9,59.7,31,134.7,43.1,72.5,11.7,142.3,11.1,202.2,4.4,295-33.1,538-238.8,963.7-229.7,510.6,10.5,582.8,78,1047.8,25.8q34.65-3.9,70.4-6.6c275.6-20.5,615.5,12.9,841.8,52.9,144.3,25.1,266.7,55.5,287.4,63.6"/><path class="cls-2" d="M-399.5,551c17.4,16.8,60.7,32.8,135.9,45.8a726.88,726.88,0,0,0,202.4,5.9C234,570,475.5,360.7,901.7,369.4c513.1,10.3,580.1,78.7,1047.2,26.3q34.65-3.9,70.4-6.5c277-20.4,613.9,14.3,841.4,54.3,146.1,25.4,265.3,54.8,287.6,63.5"/><path class="cls-2" d="M-399.5,551c18.4,17.7,61.6,34.6,137.1,48.5a693.94,693.94,0,0,0,202.6,7.3C235.5,574.4,475.6,361.5,902.4,370c515.7,10,577.4,79.5,1046.7,26.7,23.1-2.6,46.5-4.7,70.3-6.5,278.3-20.4,612.3,15.7,841,55.6,147.9,25.6,264,54.1,287.9,63.5"/><path class="cls-2" d="M-399.5,551c19.3,18.7,62.7,36.2,138.3,51.3a676.79,676.79,0,0,0,202.8,8.8C237,578.6,475.7,362.5,903.1,370.5c518.2,9.7,574.7,80.2,1046.2,27.2,23-2.6,46.5-4.7,70.3-6.5,279.7-20.3,610.7,17.1,840.5,57,149.7,25.9,262.6,53.4,288.2,63.4"/><path class="cls-2" d="M-399.5,551c20.3,19.6,63.6,38.1,139.5,54C144.6,689.6,383,361.7,903.8,371.1s572,81,1045.7,27.6,1126.7,87,1198.8,115.2"/></g><path d="M2106,121.7c-27.2-5.8-124.5-16-139.8-16.7-127.1-6.2-479.4,14.1-483,14.3-.5,0-46,2.2-111.2,2.6-135,.8-233.8,5.6-277.1,26.3-37.2,17.8-54.8,48.7-63,71.5a152,152,0,0,0-9,45.7h1a150.12,150.12,0,0,1,9-45.4c8.2-22.6,25.6-53.3,62.5-70.9,22.3-10.6,59.4-17,108.7-20.9-45.9,3.8-83.4,10-105.4,20.4-27.3,12.8-47.4,33.9-59.9,62.8a156.11,156.11,0,0,0-12.2,50.8c-.1,1.9-.1,3.1-.1,3.1h1s0-1.2.1-3.1c.7-13.6,7.7-82.7,71.5-112.7,17.8-8.4,45.7-14.1,80-17.9-32.7,3.8-59.4,9.4-76.8,17.5-27.5,12.7-47.8,33.9-60.3,62.9a153.57,153.57,0,0,0-12,50.3c-.1,1.7-.1,3.1-.1,3.1h1s0-1.4.1-3.1c.8-13.5,7.7-82.7,71.7-112.3,17.9-8.3,45.7-13.9,79.7-17.8-32.4,3.8-59,9.4-76.5,17.4-27.7,12.7-48.1,33.9-60.6,63a152.35,152.35,0,0,0-11.8,49.8c-.1,1.6-.1,3.1-.1,3.1h1s0-1.5.1-3.1c.7-13.5,7.7-82.6,71.8-111.9,23.2-10.7,62.9-16.9,111-20.6-46.3,3.7-85.1,9.9-107.8,20.2-27.9,12.6-48.4,33.8-60.9,63.1a152.38,152.38,0,0,0-11.6,49.2c-.1,1.5-.1,3.1-.1,3.1h1s0-1.6.1-3.1c1.1-19,9.3-83.2,71.9-111.4,17.9-8.1,46-13.7,79.9-17.5-32.3,3.8-59.1,9.2-76.6,17-28.2,12.5-48.8,33.8-61.2,63.1a149.2,149.2,0,0,0-11.4,48.7c-.1,1.4-.1,3.1-.1,3.1h1s0-1.7.1-3.1c1-19,9.3-83.1,72.1-111,23.2-10.4,62.9-16.5,110.1-20.2-45.4,3.8-84.2,9.8-106.8,19.8-28.4,12.4-49.1,33.7-61.6,63.2a150.74,150.74,0,0,0-11.3,48.2c-.1,1.3-.1,3.1-.1,3.1h1s0-1.8.1-3c1.1-19,9.4-83,72.2-110.6,17.8-7.9,45.8-13.3,79.1-17-31.8,3.7-58.4,9-75.8,16.6-63.5,27.4-71.9,91.9-72.9,111-.1,1.1-.1,3.1-.1,3.1h1s.1-1.9.1-3c1-19,9.3-82.9,72.4-110.1,17.9-7.8,45.8-13.2,78.9-16.9-31.6,3.7-58.2,9-75.6,16.5-63.7,27.1-72,91.4-73.1,110.6-.1,1-.1,3.1-.1,3.1h1s.1-2,.1-3.1c1-18.9,9.4-82.7,72.5-109.6,23.6-10.2,64.2-16.2,111.1-19.9-45.1,3.7-84.8,9.6-107.8,19.4-28.8,12.1-49.8,33.3-62.3,62.8a141.88,141.88,0,0,0-10.9,47.1v.2c0,.9-.1,3.1-.1,3.1h1s.1-2.2.1-3v-.2c1-18.9,9.3-82.5,72.6-109,16.8-7.1,42.6-12.2,72.9-15.9-31.3,3.9-54.3,9-69.6,15.4-29,12-50,33-62.5,62.6a142.66,142.66,0,0,0-10.9,46.8v.3c0,.8-.1,3.1-.1,3.1h1s.1-2.3.1-3v-.3c1-18.8,9.2-82.2,72.8-108.5,16.7-7,42.4-12.4,78.1-16.4-33.9,4-58.5,9.3-74.8,16-29.1,11.9-50.2,32.9-62.7,62.4a140.81,140.81,0,0,0-10.8,46.5v.3c0,.6-.1,3.1-.1,3.1h1s.1-2.4.1-3v-.3c.7-13.3,7.3-81.3,72.9-108.1,21.2-8.7,56.5-15,108.1-19.1-49.5,4.1-84.2,10.4-104.8,18.7-66.6,26.8-73,95.1-73.7,108.5v.3c0,.5-.1,3.1-.1,3.1h1l.1-3v-.3c.6-13.3,7.1-81.1,73.1-107.6,16.6-6.7,42.3-12,77.6-16-33.4,3.9-58,9.1-74.3,15.6-67.1,26.6-73.3,94.7-73.8,108.1v.3c0,.4-.1,3.1-.1,3.1h1s.1-2.7.1-3v-.3c.6-13.3,6.7-80.8,73.2-107.2,16.7-6.6,42.4-11.9,77.4-15.9-33.2,3.9-57.8,9-74.1,15.4-29.7,11.6-51.1,32.6-63.6,62.4a135.93,135.93,0,0,0-10.4,45.3v.2c0,.3-.1,3.1-.1,3.1h1s.1-2.8.1-3v-.3a134.11,134.11,0,0,1,10.3-45c12.4-29.5,33.6-50.3,63-61.9,21.4-8.4,57.1-14.6,108-18.7-48.9,4.1-84,10.2-104.7,18.3-70,27-73.9,99.3-74.1,107.4v.1c0,.1-.1,3-.1,3h1s.1-2.9.1-3V263c.2-8.1,4.1-79.7,73.5-106.5,20.2-7.8,53.9-13.8,100.8-17.9-41.5,3.8-76.2,9.3-97.4,17.4-38.2,14.6-56.4,42.9-64.9,64.1a132.07,132.07,0,0,0-9.4,43l-.1,3h1l.1-3.1a130.18,130.18,0,0,1,9.3-42.6c8.4-21,26.4-49.1,64.3-63.6,57.6-21.9,215-25.3,337-24.3,132.8,1.1,263.6,7.6,296.3,9.9a13.48,13.48,0,0,0,9.5-3.1,83.69,83.69,0,0,1,11.9-8.6c43.4-25.5,267.2-14.7,295.8,1.8Zm-334.1-2a38.46,38.46,0,0,0,10.1-1.4c1-.2,1.9-.5,2.9-.8,3.6-1,7.4-2,11.3-2.8,8-1.7,16.8-3.1,26-4.2-8.7,1.3-17.1,2.9-25,4.8-4,1-8,2.2-11.5,3.3l-2.6.8a31.71,31.71,0,0,1-9.7,1.5c-51.8-1.3-117.1.5-174.8,2-24.8.7-47.5,1.3-66.7,1.6,16.6-.4,36.3-1,57.5-1.7,56.3-1.7,126.1-4,182.5-3.1Zm-61.9-1c20.7-.5,41.1-1,60.4-1.3a56.87,56.87,0,0,0,10.1-1.2l3.3-.7c3.6-.8,7.3-1.6,11.1-2.3,10.2-1.8,21-3.3,31.9-4.4-10.7,1.3-21.1,3-30.8,5-3.9.8-7.7,1.8-11.3,2.8l-2.9.8a36.15,36.15,0,0,1-9.8,1.3c-19.5-.3-40.5-.2-62,0ZM1598.7,124c57.6-1.6,123-3.3,174.7-2a30.79,30.79,0,0,0,10-1.6l2.6-.8c3.5-1.1,7.4-2.3,11.4-3.3a318.75,318.75,0,0,1,34.9-6.2,299,299,0,0,0-33.9,6.8c-4.1,1.1-8.1,2.6-11.7,3.9l-2.1.8a28.55,28.55,0,0,1-9.6,1.7c-47.5-1.6-111.6-.2-168.1,1-23.1.5-45.5.9-65.3,1.2C1558.6,125.1,1578,124.6,1598.7,124Zm8.3,1.2c56.5-1.2,120.6-2.5,168-1a26.33,26.33,0,0,0,10-1.7l2.1-.8c3.5-1.3,7.5-2.7,11.6-3.8a289.23,289.23,0,0,1,35.5-7,243.17,243.17,0,0,0-34.6,7.7c-4.3,1.3-8.3,3-11.9,4.4l-1.7.7a22,22,0,0,1-9.5,1.8c-43.6-1.8-104.1-.9-162.7,0-22.5.3-44.3.7-64.2.8,17.9-.3,37.4-.7,57.4-1.1Zm7,1.3c58.5-.9,119.1-1.8,162.6,0a23.93,23.93,0,0,0,9.9-1.9l1.7-.7c3.6-1.4,7.6-3.1,11.8-4.4a259.73,259.73,0,0,1,40.5-8.5c-14.4,2.2-28,5.2-39.5,9.1a119.39,119.39,0,0,0-12.1,5.1l-1.2.6a20.15,20.15,0,0,1-9.4,2c-40-1.9-100.5-1.4-159-.9-21.1.2-41.6.4-60.8.4,17.4-.3,36.2-.5,55.5-.8Zm180.7-14.2c-3.8.7-7.6,1.5-11.2,2.3l-3.3.7a55.76,55.76,0,0,1-9.9,1.2c-48.8.8-104.7,2.4-154,3.9-37.9,1.1-72.3,2.2-96.4,2.6,20-.5,47.6-1.5,79.4-2.6,50.8-1.8,114-4,169.5-5.2a70.45,70.45,0,0,0,10.2-1l3.6-.7c3.6-.7,7.3-1.3,11-1.9,10.6-1.6,21.6-2.8,32.7-3.8-10.8,1.2-21.5,2.7-31.6,4.5Zm-175.5,15.5c58.5-.5,119-1,158.9.9a20.62,20.62,0,0,0,9.8-2.1l1.2-.6a128.29,128.29,0,0,1,12-5c10.7-3.7,23.3-6.5,36.6-8.7a201.23,201.23,0,0,0-35.7,9.3,116.29,116.29,0,0,0-12.4,5.8l-.7.4a17.46,17.46,0,0,1-9.3,2.1c-37-2.1-96-2-158.4-1.8-17.8,0-36,.1-53.7,0C1584.2,128.1,1601.5,127.9,1619.2,127.8Zm-39.5-8.2c55.2-2.3,123.9-5,187.6-6.6a87.79,87.79,0,0,0,10.2-.9l3.9-.6,11-1.5c10-1.2,20.3-2.1,30.8-2.9-10,.9-20,2.1-29.6,3.5-3.8.6-7.5,1.2-11,1.9l-3.6.7a66.44,66.44,0,0,1-10,1c-55.5,1.1-118.7,3.3-169.5,5.1-37.5,1.3-69.1,2.4-89.3,2.8,16.5-.4,41-1.3,69.5-2.5Zm-78,1.9c12.3-.5,31.3-1.3,54.5-2.4,53.8-2.5,135.2-6.2,209.4-8.3,3.2-.1,6.7-.3,10.3-.7l4.1-.4c3.6-.4,7.3-.8,11.1-1.1,9.6-.8,19.5-1.6,29.5-2.2-9.6.8-19.1,1.7-28.3,2.8-3.7.4-7.5,1-11,1.5l-3.9.6a84.22,84.22,0,0,1-10.1.9c-63.6,1.5-132.4,4.3-187.6,6.6-33.6,1.2-61.8,2.3-78,2.7Zm119.6,7.6c62.4-.1,121.4-.2,158.4,1.8a19.58,19.58,0,0,0,9.8-2.2l.7-.4q6-3.15,12.3-5.7c12.2-4.7,27-8,42.7-10.5-15.6,2.6-30.1,6.2-41.8,11.1a110.74,110.74,0,0,0-12.8,6.6l-.1.1a17.49,17.49,0,0,1-9.2,2.3c-32.8-.7-91.3-1.4-153.1-2.2l-72.8-.9c21.5.1,43.9.1,65.9,0Zm160,4.1a19.13,19.13,0,0,0,9.7-2.4l.1-.1a116.73,116.73,0,0,1,12.7-6.5c12.2-5.1,27.6-8.8,43.9-11.4-16.3,2.8-31.4,6.7-43.1,12.1a106.17,106.17,0,0,0-12.7,7.2,15.4,15.4,0,0,1-9.1,2.4c-33-1-102-2.4-176.4-3.7l21.7.3c61.9.7,120.4,1.4,153.2,2.1Zm9.7-25.6c-3.7.3-7.5.7-11.1,1.1l-4,.4c-3.6.4-7,.6-10.2.7-74.3,2.1-155.6,5.8-209.4,8.3-28.3,1.3-50.3,2.3-61.5,2.6,7.2-.4,18.3-.9,32.2-1.6,51.5-2.7,147.5-7.7,237.3-10.6,3.2-.1,6.6-.3,10.3-.5l3.8-.3c3.8-.3,7.7-.5,11.6-.8,10-.6,19.9-1.1,29.6-1.5-9.8.6-19.3,1.3-28.6,2.2Zm-8.2,27.8a17.48,17.48,0,0,0,9.7-2.6,110.44,110.44,0,0,1,12.6-7.1c10.6-4.9,24-8.5,38.5-11.2-14.3,2.9-27.4,6.8-37.7,11.9a98.67,98.67,0,0,0-12.4,7.7,15.06,15.06,0,0,1-9,2.6c-26.7-1.1-91.8-3.1-166.3-4.7,69.8,1.2,133.3,2.5,164.6,3.4Zm7-29.4c-3.9.2-7.8.5-11.6.8l-3.7.2c-3.7.3-7.1.4-10.3.5-89.8,2.9-185.7,7.9-237.3,10.6-20.6,1.1-35.1,1.8-39.8,2,26.9-1.7,190.3-11.7,327.7-15.4C1806.5,105,1798.2,105.5,1789.8,106Zm-5.4,31.7a15.67,15.67,0,0,0,9.6-2.8,96.83,96.83,0,0,1,12.3-7.6c12.3-6.2,28.8-10.5,46.4-13.5-17.6,3.2-33.8,7.8-45.6,14.2a83.92,83.92,0,0,0-12.2,8.2,13.45,13.45,0,0,1-8.9,2.7c-23.8-1.2-83.9-3.7-155.4-5.7,69.2,1.6,128.6,3.5,153.8,4.5Zm24-8.1a101.77,101.77,0,0,0-12,8.7,12.21,12.21,0,0,1-8.8,2.9c-19.3-1.4-73.1-4.2-141.3-6.5,64.5,1.9,117.7,4.1,139.7,5.3a14.68,14.68,0,0,0,9.5-2.9,98.14,98.14,0,0,1,12.1-8.1c13.5-7.4,32.8-12.2,53.2-15.4-20.4,3.2-39.5,8.4-52.4,16Z"/><path d="M972.9,217.7l-1-.1c3.4-27.1,12.8-48.9,28.1-64.8,14.5-15.1,34.1-24.9,58.5-29.1,35.3-6.1,80-8.5,131.7-11.2,43-2.2,91.8-4.8,140.5-10,47.8-5.2,73.3-20,102.9-37.2,31.9-18.5,68.1-39.5,141.1-51.9,129.2-22,297.4,28.7,420.3,65.7,49.7,15,92.6,27.9,120.9,32.2l-.2,1c-28.4-4.3-71.3-17.2-121-32.2C1872.1,43.2,1704-7.4,1575,14.5c-72.8,12.4-108.9,33.3-140.8,51.8-29.8,17.1-55.5,32-103.4,37.2-48.8,5.3-97.6,7.8-140.6,10.1-51.7,2.7-96.4,5-131.6,11.1C1009.1,133.3,979.5,165.5,972.9,217.7Z"/><path d="M973.1,217.7l-1-.1c3.4-26.7,12.8-48.2,27.9-63.9,14.5-15.1,34.5-25,59.3-29.3,35.6-6.2,81.1-8.6,133.8-11.4,43.6-2.3,88.7-4.7,135.1-9.6a238.43,238.43,0,0,0,45.1-8.9c23-7.1,40.6-16.9,59.2-27.2l1.4-.8c2.1-1.2,4.2-2.3,6.3-3.6,28.9-16.6,65-35.2,128.8-46.7,39.6-7.2,85-8.4,134.8-3.3,63.3,6.5,128,19.3,182.1,36,6.2,1.9,11.8,4,17.2,6l4.2,1.5.8.3c2.8,1,5.9,2.2,9.1,3.1,19.4,5.3,38.6,10.8,57.1,16.1,54.4,15.5,105.9,30.2,141.1,35.9l-.2,1c-35.3-5.7-86.8-20.4-141.2-35.9-18.5-5.3-37.7-10.8-57.1-16.1-3.2-.9-6.4-2.1-9.2-3.1l-.8-.3-4.2-1.5c-5.4-2-11-4-17.2-6-54-16.7-118.7-29.5-181.9-36-49.8-5-95.1-3.9-134.6,3.3-63.7,11.5-99.7,30.1-128.5,46.6-2.1,1.2-4.3,2.4-6.4,3.6l-1.4.8c-18.6,10.4-36.2,20.2-59.3,27.3a233,233,0,0,1-45.3,9c-46.4,4.9-91.5,7.3-135.1,9.6-52.6,2.8-98.1,5.2-133.6,11.4C1008.8,134.3,979.8,165.4,973.1,217.7Z"/><path d="M973.3,217.7l-1-.1c6.8-52.2,36.4-83.3,87.8-92.4,36-6.3,84.6-8.9,136-11.7,42-2.3,85.5-4.6,129.3-9.1A241.93,241.93,0,0,0,1370,96c24.2-7,43-17.1,59.7-26,2.2-1.2,4.5-2.4,6.8-3.7,30.6-17.8,67.1-35.8,126.6-47.3,42-8.1,86.6-9.8,136.4-5.1,51.7,5,125.6,15.3,184.6,35.9a143.44,143.44,0,0,1,16.6,7.2c1.1.6,2.2,1.1,3.3,1.6a52.33,52.33,0,0,0,9.5,3.8c10.1,2.7,20.3,5.4,30.5,8.2,61.7,16.7,125.6,33.9,170.9,41.6l-.2,1c-45.4-7.7-109.3-25-171-41.6l-30.4-8.2a67.28,67.28,0,0,1-9.7-3.8l-3.3-1.6a141.37,141.37,0,0,0-16.5-7.1C1824.9,30.3,1751,20,1699.5,15c-49.7-4.7-94.3-3-136.1,5.1-59.4,11.5-95.9,29.5-126.3,47.2-2.3,1.3-4.6,2.6-6.8,3.7-16.7,8.9-35.5,19.1-59.8,26.1a242.46,242.46,0,0,1-44.8,8.4c-43.9,4.5-87.3,6.8-129.4,9.1-51.4,2.8-100,5.4-135.9,11.7C1009.3,135.2,980,166,973.3,217.7Z"/><path d="M973.5,217.7l-1-.1c6.9-51.6,36.7-82.4,88.5-91.7,36.9-6.5,87.3-9.3,140.7-12.2,39.7-2.2,80.7-4.4,121.3-8.4a275.24,275.24,0,0,0,44.1-7.8c23.4-6.4,41.4-15.1,59.2-24.3,2-1,4.4-2.3,6.7-3.6,30.4-17.8,66.5-36,124.5-48,43.5-9,88.7-11.2,138-6.9,82.6,7.6,145.5,19.6,187,35.8a89.73,89.73,0,0,1,16.2,8.6c.8.5,1.5,1,2.3,1.4a34.19,34.19,0,0,0,9.1,4.2c68.5,17.8,146.4,37.4,204.5,47.7l-.2,1c-58.2-10.3-136.1-29.9-204.6-47.7a34.27,34.27,0,0,1-9.3-4.3l-2.3-1.4a87.56,87.56,0,0,0-16-8.5c-41.4-16.1-104.3-28.1-186.8-35.7-49.2-4.4-94.3-2.1-137.7,6.8-57.8,11.9-93.8,30-124.1,47.8-2.3,1.4-4.7,2.6-6.7,3.6-17.9,9.2-35.9,18-59.4,24.4a266,266,0,0,1-44.2,7.9c-40.6,4-81.6,6.2-121.3,8.4-53.3,2.9-103.7,5.7-140.5,12.2C1009.8,136,980.3,166.6,973.5,217.7Z"/><path d="M973.6,217.7l-1-.1c3.5-25.5,12.7-46,27.4-61.1s35.5-25.2,61.8-29.9c37.7-6.6,89.5-9.6,144.3-12.6,37.5-2.1,76.4-4.3,114.2-7.8a290.26,290.26,0,0,0,43.5-7.2c24.5-6.2,43.2-14.9,58.8-22.6,2.1-1,4.4-2.2,6.6-3.5,28.8-17.1,65.8-36.2,122.2-48.6,45.6-10,90-12.8,139.6-8.6,57.3,5,139.3,14.1,189.5,35.6a56.58,56.58,0,0,1,15.7,10.2l1.3,1.1a23.89,23.89,0,0,0,8.6,4.6c67,16.9,148.5,34.8,207.7,45.5l-.2,1C2054.4,103,1972.8,85,1905.8,68.1a22.46,22.46,0,0,1-9-4.8,12.67,12.67,0,0,1-1.3-1.1,58.8,58.8,0,0,0-15.5-10c-50-21.5-132-30.6-189.2-35.6-49.5-4.1-93.8-1.4-139.3,8.6-56.3,12.4-93.3,31.4-122,48.5a71.67,71.67,0,0,1-6.7,3.5c-15.6,7.7-34.4,16.4-59,22.7a295.24,295.24,0,0,1-43.7,7.3c-37.8,3.5-76.7,5.7-114.2,7.8-54.8,3-106.6,5.9-144.2,12.6C1009.6,137,980.6,166.5,973.6,217.7Z"/><path d="M973.8,217.7l-1-.1c7.2-51.1,36.6-80.6,89.9-90.2,38.4-6.9,91.8-9.9,148.3-13.1,35.3-2,71.8-4,106.7-7.1a312.54,312.54,0,0,0,43-6.7c24.3-5.7,42.4-13.4,58.4-20.8a57.51,57.51,0,0,0,6.5-3.4c27-16.2,65-36.4,120.1-49.2,47.7-11.1,91.2-14.3,141.2-10.4,65.7,5.4,146.9,14.3,192,35.5a41.85,41.85,0,0,1,15,11.9l.5.6a16.65,16.65,0,0,0,8.2,5c46.9,11.5,117.8,26.1,210.9,43.3l-.2,1c-93-17.3-164-31.9-210.9-43.4a17.91,17.91,0,0,1-8.7-5.3l-.5-.6a38.19,38.19,0,0,0-14.7-11.6c-45-21.1-126-30-191.7-35.4-49.9-3.9-93.3-.7-140.8,10.4-55,12.8-92.9,33-119.8,49.1a60.22,60.22,0,0,1-6.7,3.4c-16,7.5-34.2,15.2-58.6,20.9a313.2,313.2,0,0,1-43.2,6.8c-34.9,3.1-71.4,5.2-106.7,7.1-56.5,3.2-109.8,6.2-148.2,13C1010,137.9,980.9,167.1,973.8,217.7Z"/><path d="M974,217.7l-1-.1c7.3-50.4,36.9-79.7,90.5-89.4,39.4-7.1,94.5-10.2,152.9-13.5,32.8-1.9,66.7-3.8,98.7-6.5a337.37,337.37,0,0,0,42.5-6.2,287.72,287.72,0,0,0,58-19.1,56.69,56.69,0,0,0,6.5-3.3c26.8-16.3,64.4-36.6,117.8-49.9,35.2-8.7,79.7-16.9,142.8-12.1,72.7,5.5,152.7,14,194.4,35.4a31.27,31.27,0,0,1,14.1,13.8,13.24,13.24,0,0,0,7.7,5.4c36.4,8.7,88.9,18.3,144.4,28.4,23.1,4.2,47,8.6,69.7,12.9l-.2,1c-22.6-4.3-46.5-8.7-69.7-12.9-55.5-10.1-108-19.7-144.4-28.4a13.73,13.73,0,0,1-8.3-5.8c-2.3-3.9-5.3-9.2-13.7-13.4-41.6-21.3-121.5-29.8-194.1-35.3-63-4.8-107.3,3.4-142.4,12.1-53.3,13.2-90.8,33.5-117.6,49.7a50.8,50.8,0,0,1-6.6,3.3,287.73,287.73,0,0,1-58.2,19.2,341.62,341.62,0,0,1-42.6,6.2c-31.9,2.7-65.9,4.6-98.7,6.5-58.3,3.3-113.5,6.4-152.8,13.5C1010.5,138.8,981.2,167.8,974,217.7Z"/><path d="M974.2,217.7l-1-.1c3.7-24.6,12.5-43.7,26.9-58.3,15.2-15.3,36.3-25.3,64.3-30.4,40.4-7.3,97.5-10.6,158-14,30.1-1.7,61.2-3.5,90.1-5.8a395.75,395.75,0,0,0,42-5.6A295.31,295.31,0,0,0,1412,86.2a53.81,53.81,0,0,0,6.4-3.1c15.7-9.6,57.3-35.2,115.7-50.5,37.8-9.9,81.4-18.5,144.3-14,75.7,5.5,158.2,13.9,196.9,35.3,9.2,5.1,11.4,11.6,12.6,15.1.6,1.8,3.3,4.7,7.3,5.7,25.8,6,63.8,12.4,107.7,19.8,34.3,5.8,73.2,12.3,109.5,19.3l-.2,1c-36.4-7-75.2-13.6-109.5-19.3-43.9-7.4-81.9-13.8-107.7-19.8-4.1-1-7.2-4-8-6.3-1.6-4.7-4-10-12.2-14.6-38.5-21.3-120.9-29.7-196.5-35.2-62.8-4.5-106.3,4-144,13.9-58.2,15.3-99.8,40.8-115.4,50.4a55.9,55.9,0,0,1-6.5,3.2,290.69,290.69,0,0,1-57.7,17.4,351.62,351.62,0,0,1-42.1,5.6c-28.8,2.3-60,4.1-90.1,5.8-60.5,3.4-117.6,6.7-157.9,14C1011,139.6,981.5,168.4,974.2,217.7Z"/><path d="M974.3,217.7l-1-.1c3.7-24.2,12.4-43,26.8-57.3,15.3-15.4,36.6-25.4,65.1-30.6,41.7-7.6,103.8-11.1,163.9-14.5,27.1-1.5,55.1-3.1,80.7-5.1,14.6-1.1,28.5-2.8,41.5-5.1a296,296,0,0,0,57.1-15.6,36.38,36.38,0,0,0,6.3-3c24.4-15.2,62.8-37.1,113.5-51.1,35.6-9.9,79.2-20.1,145.9-15.7,55.6,3.9,159.1,11.1,199.3,35.1,8.6,5.2,10.5,11.5,11.2,16.4.3,2.2,3.1,5.2,6.8,6,19.8,4.5,51.1,9.2,87.3,14.8,41,6.2,87.5,13.3,133.1,22.2l-.2,1c-45.6-8.9-92-16-133-22.2-36.2-5.5-67.5-10.3-87.4-14.8-4.3-1-7.3-4.3-7.6-6.8-.7-5-2.5-10.8-10.7-15.7-40-23.9-143.4-31.1-198.9-35-66.5-4.4-110,5.8-145.6,15.7-50.6,14-88.8,35.8-113.2,51a38.74,38.74,0,0,1-6.5,3.1,298.19,298.19,0,0,1-57.3,15.7,416.67,416.67,0,0,1-41.5,5.1c-25.6,1.9-53.6,3.5-80.8,5.1-60.1,3.4-122.2,6.9-163.8,14.5C1010.8,140.6,981.8,168.3,974.3,217.7Z"/><path d="M974.5,217.7l-1-.2c7.7-49.3,37.1-77,92.5-87.2,43.1-7.9,108-11.5,170.7-15.1,24.9-1.4,48.3-2.7,70.5-4.3,14.3-1,28.1-2.5,40.9-4.5,21.1-3.3,40.2-7.9,56.7-13.9a27,27,0,0,0,6.2-2.9c14-8.8,56.6-35.7,111.3-51.8,37.9-11.1,80.5-21.6,147.5-17.5,57.4,3.8,164.2,10.8,201.8,35,9.1,5.9,9.9,12.9,9.7,17.7-.1,2.3,2.5,5.5,6.4,6.3,15.4,3.4,40.6,6.8,72.6,11.1,43.4,5.9,97.5,13.2,151,23.8l-.2,1c-53.4-10.6-107.5-17.9-150.9-23.7-32-4.3-57.2-7.7-72.6-11.1-4.5-1-7.3-4.6-7.2-7.3.2-4.6-.5-11.3-9.2-16.8-37.4-24-144-31.1-201.3-34.8-66.8-4.2-109.4,6.3-147.2,17.4-54.6,16-97.1,42.8-111,51.6a37.33,37.33,0,0,1-6.4,3c-16.5,6-35.7,10.7-56.9,13.9-12.9,2-26.7,3.5-41,4.5-22.2,1.6-45.7,2.9-70.6,4.3-62.7,3.5-127.5,7.2-170.5,15.1C1011.3,141.5,982.1,169,974.5,217.7Z"/><path d="M974.7,217.7l-1-.2c7.8-48.6,37.4-76.1,93.2-86.5,44.9-8.2,112.8-12,178.5-15.7,20.9-1.2,40.7-2.3,59.2-3.5,14-.9,27.6-2.3,40.4-4,27.1-3.6,45.5-8.6,56.3-12.1a28.77,28.77,0,0,0,6.2-2.8c13.9-8.9,56.2-36,109.1-52.4,40-12.4,81.5-23.2,149.1-19.2,87.8,5.5,173.4,13.5,204.3,34.9,7,4.9,9.8,11.3,8.1,19-.5,2.4,2,5.8,6,6.7,11.9,2.5,33.3,5,60.4,8.2,44.5,5.2,105.4,12.3,166.3,24.5l-.2,1c-60.9-12.2-121.8-19.3-166.2-24.5-27.1-3.2-48.6-5.7-60.5-8.2-4.6-1-7.4-5-6.8-7.9,1.6-7.4-1-13.3-7.7-18-35-24.2-144.8-31-203.8-34.7-67.4-4-108.8,6.8-148.7,19.2-52.8,16.4-95,43.4-108.8,52.3a28.52,28.52,0,0,1-6.4,2.9c-10.8,3.6-29.3,8.6-56.4,12.2-12.8,1.7-26.4,3-40.5,4-18.5,1.2-38.3,2.3-59.2,3.5-65.7,3.7-133.6,7.5-178.4,15.7C1011.8,142.4,982.5,169.6,974.7,217.7Z"/><path d="M974.9,217.7l-1-.2c7.9-48,37.8-75.2,93.9-85.7,47-8.7,121.9-12.8,187.9-16.4,16.4-.9,31.8-1.8,46.4-2.6,13.6-.8,27.1-2,39.9-3.4,29.2-3.3,47.5-7.9,55.8-10.4a23.68,23.68,0,0,0,6.1-2.7c37-24.1,72.9-41.9,106.9-53,32.4-10.6,76.7-25.1,150.7-21,90.2,5.3,177.7,13.1,206.8,34.7,7.2,5.4,9.5,12.2,6.6,20.3a4.06,4.06,0,0,0,.5,3.4,7.52,7.52,0,0,0,5.2,3.6c8.9,1.8,26,3.5,49.6,5.8,44.6,4.3,111.9,10.9,180.3,24.7l-.2,1C2042,102,1974.7,95.4,1930.1,91.1c-23.7-2.3-40.8-4-49.7-5.8a8.79,8.79,0,0,1-5.8-4.1,5,5,0,0,1-.5-4.3c2.7-7.6.6-14.1-6.3-19.2-28.8-21.5-116.2-29.3-206.3-34.6-73.8-4.1-118,10.4-150.3,20.9-33.9,11.1-69.8,28.9-106.6,52.9a25.28,25.28,0,0,1-6.3,2.8c-8.4,2.5-26.8,7.2-56,10.4-12.8,1.4-26.3,2.6-39.9,3.4-14.5.9-30,1.7-46.4,2.6-66,3.6-140.8,7.7-187.8,16.4C1012.3,143.2,982.7,170.2,974.9,217.7Z"/><path d="M975,217.7l-1-.2c3.9-22.6,12.4-40.2,26.1-53.6,15.7-15.4,38.1-25.7,68.5-31.4,49.8-9.3,132.8-13.6,199.4-17.2,11-.6,21.5-1.1,31.4-1.7,13.2-.7,26-1.7,39.4-2.8,30.8-2.7,49-7,55.4-8.7a18.86,18.86,0,0,0,6-2.6c36.6-24.3,71.8-42.3,104.7-53.7,34.4-11.9,77.3-26.7,152.3-22.7,88.1,4.8,181.9,12.7,209.3,34.6,9.2,7.4,7.9,15.8,5.1,21.6a4,4,0,0,0,.2,3.7,7.26,7.26,0,0,0,5.1,3.7c6.3,1.3,20.2,2.3,39.5,3.8,43.9,3.4,117.3,9,193.5,24.6l-.2,1c-76.1-15.5-149.5-21.2-193.4-24.6-19.3-1.5-33.2-2.6-39.6-3.9a8,8,0,0,1-5.8-4.3,5.3,5.3,0,0,1-.2-4.6c2.6-5.4,3.9-13.4-4.8-20.4-27.1-21.8-120.7-29.6-208.6-34.5-74.8-3.9-117.5,10.8-151.9,22.7-32.8,11.3-67.9,29.3-104.5,53.5a23.51,23.51,0,0,1-6.3,2.7c-6.4,1.7-24.8,6-55.6,8.7-13.3,1.2-26.2,2.1-39.4,2.9-9.9.5-20.5,1.1-31.4,1.7-66.7,3.5-149.5,7.8-199.3,17.1C1012.1,144.2,983.2,170.2,975,217.7Z"/><path d="M975.2,217.7l-1-.2c3.9-22.2,12.4-39.4,25.9-52.7,15.8-15.4,38.4-25.7,69.3-31.5,53.7-10.1,146.4-14.6,214.1-17.9l13.3-.7c16.4-.8,29.5-1.7,38.2-2.3h.6c31.8-2.1,50.2-5.8,55-6.9a17.9,17.9,0,0,0,5.9-2.4c45.1-30.4,80.6-46.3,102.5-54.3l.8-.3c34.2-12.5,76.8-28,153-24.2,90.4,4.7,186.1,12.4,211.7,34.5,9.4,8.1,7.1,16.9,3.6,22.8a4.07,4.07,0,0,0-.1,4,7,7,0,0,0,5,3.8c4.1.8,14.3,1.4,29.8,2.2,42.6,2.3,121.8,6.7,206.4,24l-.2,1c-84.5-17.4-163.7-21.7-206.2-24-15.5-.8-25.7-1.4-29.9-2.2a8,8,0,0,1-5.7-4.4,5,5,0,0,1,.2-4.9c3.3-5.6,5.5-13.9-3.3-21.5-25.3-21.9-120.9-29.5-211.1-34.2-76-3.8-118.5,11.7-152.6,24.1l-.8.3c-21.8,8-57.3,23.8-102.3,54.2a19.51,19.51,0,0,1-6.3,2.6c-4.9,1.1-23.3,4.8-55.2,7h-.6c-8.7.6-21.8,1.4-38.2,2.3l-13.3.7c-67.7,3.3-160.4,7.9-214,17.9C1012.6,145.1,983.5,170.8,975.2,217.7Z"/><path d="M975.5,217.7l-1-.2c8.5-46.8,38-72.6,95.9-83.5,59.5-11.2,170.6-16,223.9-18.4,8.9-.4,16.9-.8,23.7-1.1,5.9-.3,10.8-.5,14.7-.7,25.1-1,44.7-3.4,54.6-5.2a16.41,16.41,0,0,0,5.8-2.3c34.6-23.9,70.3-43.4,100.3-54.9l1.9-.8c33.8-13,75.9-29.2,153.5-25.5,87.1,4.2,190.1,11.9,214.1,34.4,9.4,8.8,6.3,17.9,2,24a4.34,4.34,0,0,0-.4,4.4,6.66,6.66,0,0,0,5,3.9c2.3.4,9.4.6,20.2,1,37.4,1.1,125.1,3.7,219.1,23.2l-.2,1c-94-19.5-181.6-22-219-23.2-10.8-.3-18-.5-20.3-1a7.67,7.67,0,0,1-5.7-4.5,5.56,5.56,0,0,1,.5-5.3c4-5.8,7-14.4-1.9-22.8-23.8-22.2-126.6-29.9-213.5-34.1-77.4-3.7-119.4,12.5-153.1,25.5l-1.9.7c-30,11.5-65.5,31-100.1,54.8a15.91,15.91,0,0,1-6.2,2.5c-10,1.8-29.6,4.2-54.7,5.2-3.9.2-8.8.4-14.7.7-6.7.3-14.7.7-23.7,1.1-53.3,2.3-164.3,7.2-223.8,18.4C1013.1,145.9,983.8,171.4,975.5,217.7Z"/><path d="M975.6,217.7l-1-.2c5.8-31.1,22-68.6,96.6-82.7,41.8-7.9,118-14.2,220.5-18.2,17.2-.6,30-1.1,37.8-1.2,31.3-.5,50.6-3,54.2-3.5a12.83,12.83,0,0,0,5.7-2.2c19.8-14,58.9-39.7,98.1-55.5l2.3-.9c33.5-13.7,75.1-30.7,154.7-27.1,82.2,3.7,194,11.3,216.6,34.3,9.4,9.5,5.5,19,.5,25.3a4.47,4.47,0,0,0-.7,4.7,6.35,6.35,0,0,0,4.9,3.9c.8.2,4.6.1,10.4.1,31.2,0,126.2-.2,232.1,21.9l-.2,1c-105.8-22-200.7-21.9-231.9-21.8-6.3,0-9.7,0-10.6-.2a7.2,7.2,0,0,1-5.6-4.5,5.63,5.63,0,0,1,.9-5.7c4.7-5.9,8.5-14.9-.4-24-22.5-22.7-134-30.3-215.9-34-79.4-3.6-121,13.4-154.3,27l-2.3.9c-39.1,15.8-78.1,41.5-97.9,55.4a13.88,13.88,0,0,1-6.2,2.4c-3.6.5-22.9,2.9-54.3,3.5-7.8.1-20.6.6-37.8,1.2-102.4,4-178.6,10.3-220.3,18.2C997.5,149.8,981.3,187,975.6,217.7Z"/><path d="M975.8,217.8l-1-.2c5.9-30.7,22.3-67.7,97.3-82,69.1-13.2,216-19,254.3-18.6,26.8.3,46.5-1.1,53.8-1.7a12,12,0,0,0,5.7-2.1c12-8.7,54.6-38.5,95.9-56.2l3.2-1.4c33.1-14.2,74.3-31.9,155.4-28.5,83.9,3.6,198,11,219.1,34.1,9.4,10.3,4.6,20.1-1,26.5a5.24,5.24,0,0,0-1,5.6,5.47,5.47,0,0,0,4.7,3.4c1.1-.1,115.2-7.5,245.7,19.9l-.2,1c-130.4-27.3-244.4-19.9-245.5-19.8a6.6,6.6,0,0,1-5.6-4,6.37,6.37,0,0,1,1.1-6.6c5.4-6.1,9.9-15.4,1-25.2-23.2-25.6-170.1-31.8-218.3-33.9-80.9-3.4-122,14.2-155,28.4l-3.2,1.4c-41.2,17.6-83.7,47.4-95.7,56.1a12.32,12.32,0,0,1-6.2,2.3c-7.2.6-27,2-53.9,1.7-38.3-.4-185.1,5.4-254.1,18.6C997.9,150.7,981.6,187.4,975.8,217.8Z"/><path d="M1212,270.7a9.8,9.8,0,1,1,9.8-9.8h0A9.82,9.82,0,0,1,1212,270.7Zm0-18.6a8.8,8.8,0,1,0,8.8,8.8h0A8.75,8.75,0,0,0,1212,252.1Z"/><path d="M1212,275.8a14.9,14.9,0,1,1,14.9-14.9h0A14.94,14.94,0,0,1,1212,275.8Zm0-28.7a13.8,13.8,0,1,0,13.8,13.8A13.83,13.83,0,0,0,1212,247.1Z"/><path d="M1212,280.8a19.9,19.9,0,1,1,19.8-19.9h0A19.74,19.74,0,0,1,1212,280.8Zm0-38.7a18.8,18.8,0,1,0,18.8,18.8h0A18.78,18.78,0,0,0,1212,242.1Z"/><path d="M1212,285.9a25,25,0,1,1,25-25h0A25,25,0,0,1,1212,285.9Zm0-48.8a23.75,23.75,0,1,0,23.7,23.8h0a23.84,23.84,0,0,0-23.7-23.8Z"/><path d="M1212,291a30.1,30.1,0,1,1,30.1-30.1h0A30.13,30.13,0,0,1,1212,291Zm0-58.8a28.75,28.75,0,1,0,28.7,28.8h0a28.66,28.66,0,0,0-28.7-28.8Z"/><path d="M1212,296.1a35.15,35.15,0,1,1,35.1-35.2h0A35.23,35.23,0,0,1,1212,296.1Zm0-68.9a33.7,33.7,0,1,0,33.7,33.7h0a33.72,33.72,0,0,0-33.7-33.7Z"/><path d="M1212,301.1a40.25,40.25,0,1,1,40.2-40.3h0A40.22,40.22,0,0,1,1212,301.1Zm0-78.9a38.7,38.7,0,1,0,38.7,38.7h0A38.67,38.67,0,0,0,1212,222.2Z"/><path d="M1212,306.2a45.3,45.3,0,1,1,45.3-45.3h0A45.32,45.32,0,0,1,1212,306.2Zm0-89a43.7,43.7,0,1,0,43.7,43.7h0a43.81,43.81,0,0,0-43.7-43.7Z"/><path d="M1212,311.3a50.4,50.4,0,1,1,50.3-50.5h0A50.45,50.45,0,0,1,1212,311.3Zm0-99a48.65,48.65,0,1,0,48.6,48.7h0a48.55,48.55,0,0,0-48.6-48.7Z"/><path d="M1212,316.3a55.45,55.45,0,1,1,55.4-55.5h0A55.42,55.42,0,0,1,1212,316.3Zm0-109a53.65,53.65,0,1,0,53.6,53.7h0a53.62,53.62,0,0,0-53.6-53.7Z"/><path d="M1212,321.4a60.55,60.55,0,1,1,60.5-60.6v.1A60.52,60.52,0,0,1,1212,321.4Zm0-119.1a58.65,58.65,0,1,0,58.6,58.7h0a58.64,58.64,0,0,0-58.6-58.7Z"/><path d="M1212,326.5a65.6,65.6,0,1,1,65.6-65.6h0A65.7,65.7,0,0,1,1212,326.5Zm0-129.2a63.6,63.6,0,1,0,63.6,63.6h0A63.76,63.76,0,0,0,1212,197.3Z"/><path d="M1922.2,270.7a9.8,9.8,0,1,1,9.8-9.8h0A9.88,9.88,0,0,1,1922.2,270.7Zm0-18.6a8.8,8.8,0,1,0,8.8,8.8h0a8.94,8.94,0,0,0-8.8-8.8Z"/><path d="M1922.2,275.8a14.9,14.9,0,1,1,14.9-14.9h0A15,15,0,0,1,1922.2,275.8Zm0-28.7a13.8,13.8,0,1,0,13.8,13.8h0A14,14,0,0,0,1922.2,247.1Z"/><path d="M1922.2,280.9A19.9,19.9,0,1,1,1942,261h0A20,20,0,0,1,1922.2,280.9Zm0-38.7A18.8,18.8,0,1,0,1941,261h0a18.91,18.91,0,0,0-18.8-18.8Z"/><path d="M1922.2,286a25,25,0,1,1,25-25A25,25,0,0,1,1922.2,286Zm0-48.8A23.8,23.8,0,1,0,1946,261h0a23.92,23.92,0,0,0-23.8-23.8Z"/><path d="M1922.2,291a30.1,30.1,0,1,1,30.1-30.1h0A30.19,30.19,0,0,1,1922.2,291Zm0-58.8a28.7,28.7,0,1,0,28.7,28.7h0a28.83,28.83,0,0,0-28.7-28.7Z"/><path d="M1922.2,296.1a35.15,35.15,0,1,1,35.1-35.2h0A35.17,35.17,0,0,1,1922.2,296.1Zm0-68.9a33.7,33.7,0,1,0,33.7,33.7h0a33.84,33.84,0,0,0-33.7-33.7Z"/><path d="M1922.2,301.2a40.2,40.2,0,1,1,40.2-40.2h0A40.4,40.4,0,0,1,1922.2,301.2Zm0-79a38.7,38.7,0,1,0,38.7,38.7h0a38.92,38.92,0,0,0-38.7-38.7Z"/><path d="M1922.2,306.2a45.3,45.3,0,1,1,45.3-45.3h0A45.32,45.32,0,0,1,1922.2,306.2Zm0-89a43.7,43.7,0,1,0,43.7,43.7h0a43.94,43.94,0,0,0-43.7-43.7Z"/><path d="M1922.2,311.3a50.4,50.4,0,1,1,50.4-50.4h0A50.51,50.51,0,0,1,1922.2,311.3Zm0-99a48.65,48.65,0,1,0,48.6,48.7h0a48.67,48.67,0,0,0-48.6-48.7Z"/><path d="M1922.2,316.4a55.45,55.45,0,1,1,55.4-55.5h0A55.67,55.67,0,0,1,1922.2,316.4Zm0-109.1a53.65,53.65,0,1,0,53.6,53.7h0a53.69,53.69,0,0,0-53.6-53.7Z"/><path d="M1922.2,321.5a60.55,60.55,0,1,1,60.5-60.6h0A60.73,60.73,0,0,1,1922.2,321.5Zm0-119.2a58.65,58.65,0,1,0,58.6,58.7h0A58.83,58.83,0,0,0,1922.2,202.3Z"/><path d="M1922.2,326.5a65.6,65.6,0,1,1,65.6-65.6h0A65.77,65.77,0,0,1,1922.2,326.5Zm0-129.2a63.6,63.6,0,1,0,63.6,63.6h0A63.76,63.76,0,0,0,1922.2,197.3Z"/><path class="cls-3" d="M1351.8,167.9c13.2,0,29.7.1,46.3-.6,65.3-2.6,140.5-5.5,203-7.4,96.8-2.9,181.2-5.2,182-5.2v-1c-.8,0-85.2,2.3-182,5.2-62.5,1.9-137.7,4.8-203,7.4-16.6.7-33,.6-46.3.6-59.7-.2-107.6,1.2-134.9,3.8-17.3,1.7-31.3,5.9-42.6,11.7l.1-.1c12-6.1,26.1-10,42.4-11.7,105.9-10.7,565.7-22.1,570.3-22.2v-1c-4.6.1-464.5,11.5-570.4,22.2-18.6,1.9-34.6,6.7-47.7,14.4a88,88,0,0,0-45.3,76.8c0,48.5,39.6,87.9,88.3,87.9s88.3-39.4,88.3-87.9c0-1.2-.1-2.5-.2-3.7h-15.9c.1,1.2.1,2.5.1,3.7,0,39.8-32.5,72.1-72.4,72.1-39.1,0-70.6-31.1-72.3-69.7a110.07,110.07,0,0,1,.9-14.1c12.3-52.6,51.1-60.2,79.3-61.3,39.2-1.6,72.7,18,105.3,61.7,4.8,6.4,17.9,21,37.3,20.4,25.8-.9,66.3-3.9,105.4-6.9,35.2-2.7,68.5-5.2,84.6-5.5,36.8-.8,169.2-7,170.5-7.1l-.1-1c-1.3.1-133.7,6.3-170.5,7.1-16.1.4-49.4,2.9-84.6,5.6-39.1,3-79.6,6-105.4,6.9-19,.6-31.8-13.8-36.5-20-15.8-21.1-31.5-36.3-48.2-46.6-18.3-11.3-37.2-16.3-57.9-15.5-2.9.1-6,.3-9.1.6,2.9-.3,5.9-.5,9-.7,38.1-1.7,73.2,17,107.3,57.3,10.6,12.5,24.5,19.5,37.9,19,26.1-.9,65.8-3.8,104.3-6.6,35.7-2.6,69.3-5.1,86.6-5.5,40.8-1,170-6.9,171.3-7v-1c-1.3.1-130.4,6-171.3,6.9-17.3.4-51,2.9-86.6,5.5-38.4,2.8-78.2,5.7-104.3,6.6-13.2.5-26.7-6.3-37.1-18.7-34.3-40.5-69.7-59.4-108.1-57.7a122.71,122.71,0,0,0-22.7,3,121.72,121.72,0,0,1,22.5-3c37.5-1.9,73.2,15.5,109.2,53,6.6,6.8,20.3,18.2,38.5,17.6,26.3-.9,65.4-3.7,103.2-6.4,36.1-2.5,70.2-5,88.5-5.4,44.8-1.1,170.8-6.8,172-6.8v-1c-1.3.1-127.2,5.7-172,6.8-18.4.4-52.5,2.9-88.6,5.4-37.8,2.7-76.9,5.4-103.2,6.4-17.8.6-31.3-10.6-37.8-17.3-36.2-37.7-72.2-55.2-110-53.3a126.69,126.69,0,0,0-15.1,1.6,122.88,122.88,0,0,1,15-1.6c36.9-2,73.3,13.9,111.2,48.6,6.9,6.3,21.2,16.8,39.1,16.2,26.6-.9,65-3.6,102.1-6.1,36.5-2.5,71-4.9,90.5-5.3,48.8-1.2,171.6-6.6,172.8-6.7v-1c-1.2,0-124,5.5-172.8,6.7-19.6.5-54,2.8-90.5,5.3-37.1,2.5-75.5,5.2-102.1,6.1-17.6.6-31.6-9.7-38.4-15.9-38.2-34.9-74.8-50.9-112-48.9a120.93,120.93,0,0,0-26.7,4.3,120.21,120.21,0,0,1,26.6-4.4c35.8-2.1,73.9,12.8,113.2,44.3,8.8,7.1,22.9,15.4,39.7,14.8,26.8-.9,64.5-3.4,100.9-5.8,36.9-2.4,71.8-4.7,92.6-5.3,52.8-1.4,172.4-6.5,173.6-6.6v-1c-1.2,0-120.7,5.2-173.6,6.6-20.8.5-55.7,2.8-92.6,5.3-36.4,2.4-74.1,4.9-100.9,5.8-16.5.6-30.4-7.6-39.1-14.6-39.5-31.6-77.8-46.6-113.8-44.5a122.55,122.55,0,0,0-16,1.9,119.11,119.11,0,0,1,15.9-2c35.2-2.2,74,11.2,115.1,39.9,13.4,9.4,27,13.9,40.3,13.4,27-1,64-3.3,99.7-5.6,37.4-2.4,72.7-4.6,94.6-5.2,56.8-1.5,173.2-6.4,174.3-6.4v-1c-1.2.1-117.5,4.9-174.3,6.4-22,.6-57.3,2.8-94.7,5.2-35.8,2.3-72.7,4.6-99.7,5.6-13.1.5-26.5-4-39.7-13.2-41.3-28.8-80.3-42.3-115.8-40.1a122.32,122.32,0,0,0-22.5,3.4,129.38,129.38,0,0,1,22.3-3.5c34.7-2.3,74.1,9.7,117.1,35.5,14,8.4,27.8,12.4,40.9,12,27.1-1,63.4-3.2,98.4-5.3,37.8-2.3,73.6-4.5,96.8-5.1,60.8-1.7,174-6.3,175.1-6.3v-1c-1.1,0-114.3,4.7-175.1,6.3-23.3.6-59,2.8-96.8,5.1-35,2.1-71.3,4.3-98.4,5.3-13,.5-26.5-3.5-40.4-11.8-43.2-26-82.8-38-117.7-35.7a111.5,111.5,0,0,0-32.9,6.8,114.94,114.94,0,0,1,32.8-6.9c34.1-2.4,74.1,8.1,119.1,31.2,14.8,7.6,28.3,11.1,41.5,10.6,27.2-1,62.7-3.1,97-5.1,38.3-2.2,74.5-4.3,99.1-5,64.8-1.8,174.8-6.2,175.9-6.2v-1c-1.1,0-111.1,4.4-175.9,6.2-24.6.7-60.8,2.8-99.2,5-34.3,2-69.7,4.1-96.9,5.1-13,.5-26.4-2.9-41-10.5-45.2-23.1-85.5-33.7-119.7-31.3-16,1.1-29.9,4.7-41.6,10.7,11-5.7,24.6-9.6,41.5-10.8,33-2.4,74.8,6.9,121,26.8,15.6,6.8,29,9.7,42.1,9.2,27.2-1,61.8-2.9,95.3-4.8,38.9-2.2,75.7-4.2,101.7-4.9,68.8-1.9,175.6-6,176.6-6.1v-1c-1.1,0-107.8,4.1-176.6,6.1-26,.7-62.8,2.8-101.7,4.9-33.4,1.9-68,3.8-95.3,4.8-13,.5-26.2-2.4-41.7-9.1-46.3-20-88.4-29.3-121.5-26.9-14.7,1.1-27,4.2-37.3,8.7,10.2-4.5,22.4-7.6,37.1-8.8,32.4-2.5,74.9,5.3,123,22.5,10.2,3.6,25.7,8.4,42.7,7.8,27.1-1,60.8-2.8,93.3-4.5,37.8-2,77-4.1,104.5-4.9,72.8-2.1,176.4-5.9,177.4-6v-1c-1,0-104.6,3.9-177.4,6-27.6.8-66.7,2.9-104.6,4.9-32.5,1.7-66.1,3.5-93.3,4.5-16.8.6-32.2-4.1-42.3-7.7-48.2-17.2-90.9-25-123.4-22.5-19.3,1.5-35.8,6.6-49,15.2,0-.1.1-.1.1-.2,12.2-7.9,28-13.4,48.8-15.1,31.8-2.5,75,3.7,125,18.1,11.5,3.3,26.8,7,43.3,6.4,26.9-1,59.3-2.6,90.7-4.2,38.7-2,78.7-4,108-4.8,76.8-2.2,177.2-5.8,178.2-5.8v-1c-1,0-101.4,3.6-178.2,5.8-29.3.8-69.3,2.9-108,4.8-31.4,1.6-63.8,3.2-90.7,4.3-16.4.6-31.6-3.1-43-6.3-50.1-14.4-93.5-20.7-125.3-18.1-18.8,1.5-34.8,6.4-47.9,14.5l.2-.3c12-7.4,27.6-12.7,47.6-14.3,31.1-2.6,75,2.2,127,13.7,12.6,2.8,27.7,5.6,43.9,5,26.3-1,57.3-2.5,87.2-3.9,39.8-1.9,81-3.9,112.3-4.8,80.8-2.4,178-5.7,178.9-5.7v-1c-1,0-98.1,3.3-178.9,5.7-31.3.9-72.5,2.9-112.3,4.8-30,1.4-61,2.9-87.2,3.9-16.1.6-31.1-2.2-43.7-5-52-11.6-96-16.3-127.3-13.7a124.42,124.42,0,0,0-27.7,5.3,122.87,122.87,0,0,1,27.5-5.4c29.9-2.6,75.7.7,128.9,9.4,13.8,2.2,28.6,4.2,44.5,3.6,25.2-1,54.1-2.3,82.1-3.6,41.6-1.9,84.5-3.8,118.3-4.8,84.8-2.5,178.8-5.6,179.7-5.6v-1c-.9,0-94.9,3.1-179.7,5.6-33.8,1-76.8,2.9-118.3,4.8-28,1.3-56.9,2.6-82.1,3.6-15.8.6-30.6-1.4-44.3-3.6-53.3-8.6-99.1-11.9-129.2-9.4a124.27,124.27,0,0,0-28.4,5.6,124.67,124.67,0,0,1,28.3-5.7c29.1-2.6,75.6-.9,130.9,5,13.3,1.4,28.8,2.8,45.1,2.2q34.35-1.35,73.2-3.1c44.5-1.9,90.6-3.9,128.1-5,88.8-2.7,179.6-5.4,180.5-5.5v-1c-.9,0-91.7,2.8-180.5,5.5-37.5,1.1-83.5,3.1-128.1,5-26.1,1.1-50.6,2.2-73.4,3.1-16.3.6-31.7-.8-45-2.2-55.3-5.8-101.9-7.6-131.1-5a122.65,122.65,0,0,0-33.3,7.4,125.93,125.93,0,0,1,33.2-7.5c28.2-2.6,75.3-2.4,132.9.6,14.4.8,29.7,1.4,45.7.8,17.2-.7,35.3-1.4,53.7-2.2,51.1-2.1,104-4.2,148.4-5.5,92.8-2.8,180.3-5.3,181.2-5.4v-1c-.9,0-88.4,2.6-181.2,5.4-44.4,1.3-97.3,3.5-148.4,5.6-18.5.7-36.5,1.5-53.7,2.1-15.9.6-31.3-.1-45.6-.8-57.6-3-104.8-3.2-133-.6a130,130,0,0,0-27.5,5.4,128,128,0,0,1,27.4-5.5C1244.3,169.1,1292.2,167.7,1351.8,167.9Z"/><path class="cls-4" d="M2038.8,217.9a57,57,0,0,0-17.9-20.2c-22.9-16.3-68.4-20.4-100.4-19a57,57,0,0,0-8.3.9,81.61,81.61,0,0,0-21.3,5l-.5.1a73.69,73.69,0,0,0-24,13.4,82.48,82.48,0,0,0-23.3,29.4,10.09,10.09,0,0,0-.7,1.5c-5.3,10.6-8.2,21.5-8.5,31.4-1.4,48.7,39.6,88.4,88.3,88.4a88.47,88.47,0,0,0,88.3-88.4c0-1.2-.1-2.5-.2-3.8h-15.8c0,1.2.1,2.5.1,3.8a72.53,72.53,0,0,1-72.4,72.5c-39.9,0-71.9-32.5-72.4-72.5-.3-26.2,15-65.1,64.2-72.8a117.57,117.57,0,0,1,12-.6c31.2,0,55.6,9.9,72.7,29.4,26.1,30,26.8,72.8,24.8,86.8l2,.3c2-14.2,1.3-57.8-25.3-88.3-14.1-16.2-33.2-25.9-56.8-29,26.8,3,48.4,12.9,63.1,29a77.54,77.54,0,0,1,12.9,19.3c11.6,24.8,13.1,53.5,11.3,66.8l2,.3c1.6-11.6,1.2-40.8-11.5-67.9a80,80,0,0,0-13.3-19.8c-15.1-16.6-37.3-26.8-64.8-29.7,29.3,2.5,52.5,11.3,67.8,25.7a67.19,67.19,0,0,1,14.4,19.4c11.3,23.3,14.8,52.9,12.5,70.2l2,.3c2.4-17.5-1.2-47.7-12.7-71.3a69.35,69.35,0,0,0-14.8-20c-17.7-16.8-45.8-26-81.6-27,36,0,66.8,8.4,84.8,23a59,59,0,0,1,15.8,19.6c12.2,24.4,16.1,55.5,13.7,73.6l1.8.2c2.5-18.4-1.5-50-13.9-74.6a61.31,61.31,0,0,0-16.4-20.1c-14.2-11.6-36.4-19.3-62.8-22.1,24.9,1.8,50.8,7.2,66.2,18.1a56.47,56.47,0,0,1,17.4,19.6c13.2,25.4,17.4,58,14.9,77l1.7.2C2056.5,276.6,2052.1,243.6,2038.8,217.9Z"/><path d="M998.8,279.2h-1.2c-8-.3-27.9-2.4-28.1-2.4l.1-1c.2,0,20,2.1,28,2.4,5.4.2,10.2-1.1,15.4-2.5a59.05,59.05,0,0,1,14.4-2.7c13-.6,52.1-1,52.5-1v1c-.4,0-39.5.4-52.5,1a68.49,68.49,0,0,0-14.2,2.7C1008.5,277.9,1003.9,279.2,998.8,279.2Z"/><path d="M1000.1,281.5a20.9,20.9,0,0,1-2.5-.1c-4.6-.4-27-2.9-27.8-4l.4-.3.3-.4c1.1.6,18.4,3,27.1,3.7,5.3.4,10.3-.7,15.5-1.8a67.67,67.67,0,0,1,14.1-2.1c13.3-.3,50.7-.4,52.4-.3l-.1,1c-1.7-.1-39.1.1-52.3.3a64.86,64.86,0,0,0-13.9,2.1A58.41,58.41,0,0,1,1000.1,281.5Z"/><path d="M1001.5,293.9c-1.3,0-2.7-.1-4-.2-3.3-.4-25.8-3.5-27.1-5.4l.8-.6c1,1.1,16.7,3.8,26.4,5,5.4.6,10.4-.2,15.7-1.1a79.83,79.83,0,0,1,13.8-1.5l16.4.1c15.8.1,33.6.1,35.9.3l-.1,1c-2.3-.1-20.9-.2-35.9-.3l-16.4-.1a77.56,77.56,0,0,0-13.6,1.5A65.7,65.7,0,0,1,1001.5,293.9Z"/><path d="M1003.4,296.4a39,39,0,0,1-5.9-.4c-1-.2-24.6-4-26.4-6.8l.8-.5c1,1.5,13.9,4.4,25.8,6.4,5.4.9,10.5.3,16-.4a99.06,99.06,0,0,1,13.3-.9c7,.2,19.1.4,29.7.5s20,.3,22.5.4l-.1,1c-2.4-.1-11.7-.3-22.4-.4s-22.8-.3-29.8-.5a83.56,83.56,0,0,0-13.2.8A71.46,71.46,0,0,1,1003.4,296.4Z"/><path d="M1078.8,300c-2.7-.2-9.9-.3-18.2-.5-11.4-.3-25.7-.6-33.9-1.1a90.14,90.14,0,0,0-12.7.3c-5.7.4-11.1.7-16.7-.4-7.1-1.5-23.7-5.1-25.8-8.2l.8-.6c1.5,2.2,14,5.5,25.2,7.8,5.5,1.1,10.8.8,16.5.4a109.41,109.41,0,0,1,12.8-.3c8.2.5,22.4.8,33.8,1.1,8.3.2,15.5.4,18.3.5Z"/><path d="M1078.5,304.3c-2.9-.2-8.6-.4-15.3-.6-12.3-.4-27.5-1-36.7-1.7-4.2-.3-8.1-.3-11.9-.2-6,.1-11.6.1-17.3-1.3-10.2-2.5-22.9-6.2-25.1-9.6l.8-.5c1.6,2.4,10.3,5.6,24.5,9.1,5.6,1.4,11.2,1.3,17.1,1.2,3.8,0,7.8-.1,12,.2,9.2.7,24.4,1.3,36.7,1.7,6.6.2,12.4.4,15.3.6Z"/><path d="M1078.2,308.5c-2.9-.2-7.3-.4-12.4-.6-12.3-.5-29.2-1.3-39.5-2.4-3.8-.4-7.4-.5-10.9-.7-6.3-.3-12.3-.5-18.2-2.2-14.1-4.1-22.3-7.7-24.5-10.9l.8-.6c1.4,2.1,6.7,5.5,23.9,10.5,5.8,1.7,11.7,1.9,18,2.2,3.5.1,7.1.3,10.9.7,10.3,1.1,27.1,1.8,39.5,2.4,5.1.2,9.5.4,12.4.6Z"/><path d="M1078,312.8l-9-.5c-13.2-.7-31.2-1.6-42.9-3.1-3.2-.4-6.3-.7-9.3-1-6.9-.6-13.4-1.2-19.6-3.3-13.3-4.4-21.3-8.5-23.8-12.3l.8-.5c2.4,3.5,10.5,7.7,23.3,11.9,6.2,2,12.6,2.6,19.4,3.2,3,.3,6.1.5,9.4,1,11.6,1.5,29.6,2.4,42.8,3.1,3.5.2,6.5.3,9,.5Z"/><path d="M1077.7,317.1l-4.3-.3c-13.5-.8-34-2-47.5-4-2.3-.4-4.6-.7-6.9-1-7.8-1-15.1-2-22-4.6-8.5-3.2-19.4-8.2-23.1-13.7l.8-.6c2.9,4.3,10.7,8.9,22.7,13.4,6.8,2.5,14,3.5,21.8,4.5,2.3.3,4.5.6,6.9,1,13.5,2,33.9,3.2,47.4,4l4.3.3Z"/><path d="M1077.5,321.3c-18.5-1.1-37.5-2.4-51.7-4.9l-2.4-.4c-9.5-1.6-18.4-3.2-26.3-6.5s-18.1-8.6-22.5-15.1l.8-.6c4.3,6.3,14.3,11.5,22.1,14.7s16.3,4.8,26.1,6.5l2.4.4c14.1,2.5,33.1,3.8,51.5,4.9Z"/><path d="M1077.1,325.6c-14.3-.9-35.2-2.4-51.6-5.6-11.2-2.2-20.4-4.5-28.6-8.3-7.1-3.3-16.7-8.9-21.8-16.5l.8-.5c5,7.4,14.4,12.9,21.4,16.1,8.1,3.8,17.2,6,28.4,8.2,16.3,3.2,37.2,4.7,51.4,5.5Z"/><path d="M1076.8,329.9c-42.4-2.5-84-8.3-101.1-33.7l.8-.6c16.9,25,58.2,30.8,100.4,33.3Z"/><path d="M1011.3,197.3c-4.5-4.4.8-16.6,11.8-27.3a60.78,60.78,0,0,1,13.2-9.9c-.5-.8-1.4-2.2-1.7-2.7a68.64,68.64,0,0,0-18.8,13.2c-13.2,12.9-19.6,27.5-14.2,32.7,4.1,4,13.9,1.3,24.2-5.9a14.7,14.7,0,0,1-1-1.3C1018.9,199.2,1013.9,199.8,1011.3,197.3Z"/><path d="M1485.2,107.7c-22,0-37.3-1.7-37.8-11.2.1-8.6,9.4-9.8,9.4-9.8l.6-4.4a42.45,42.45,0,0,0-8.6,1.8c-19.9,6.4-17.7,25-4.9,27s41.4,0,41.4,0S1485.3,109.9,1485.2,107.7Z"/><path d="M1828.3,217.5c8.7-16.7,24.1-38.3,48.6-46.5,10.9-3.6,26.2-5.6,44.2-5.8h1.4c45,0,82.1,13.3,101.9,25.9a52.89,52.89,0,0,1,18.8,20.2c12.4,23.9,19.2,58.5,16.1,82.3l1.7.2c3.2-24.1-3.7-59.2-16.3-83.4a55.61,55.61,0,0,0-19.4-20.9c-20.1-12.7-57.5-26.2-102.8-26.2H1921c-18.2.1-33.6,2.2-44.7,5.8-40.1,13.4-57,61.5-61.7,78.1h1.7A167.9,167.9,0,0,1,1828.3,217.5Z"/><path d="M1873.8,167.2c11.1-3.6,27.1-5.6,46.2-5.8,47.2-.4,87.2,12.3,108.9,24.3a50.23,50.23,0,0,1,20.3,20.3c13.3,24.8,20.5,60.9,17.3,85.8l1.6.2c3.3-25.3-4.1-61.8-17.5-86.8a51.79,51.79,0,0,0-21-21c-21.9-12.1-62.1-24.8-109.7-24.5-19.3.2-35.4,2.2-46.7,5.9-25.3,8.3-42.2,31.4-51.9,49.2a194.37,194.37,0,0,0-13.8,32.6h1.8C1814.6,231.1,1833.7,180.3,1873.8,167.2Z"/><path d="M1870.8,163.4c11.3-3.6,28-5.7,48.1-5.9,48.8-.4,92.2,11.9,114.4,22.7a49.43,49.43,0,0,1,21.8,20.4c14.1,25.7,21.9,63.2,18.5,89.3l1.5.2c3.4-26.4-4.4-64.3-18.7-90.3a50.47,50.47,0,0,0-22.5-21.1c-22.4-10.8-66-23.2-115.1-22.8-20.3.2-37.1,2.3-48.6,6-25.5,8.2-43.4,32.1-53.9,50.6a215.14,215.14,0,0,0-15.7,35h1.7C1807.9,231.4,1829.5,176.7,1870.8,163.4Z"/><path d="M1867.8,159.5c11.6-3.7,28.9-5.7,50.1-5.9,47-.4,94.1,10.2,119.9,21a48.48,48.48,0,0,1,23.3,20.5c12.8,22.8,23.7,62,19.7,92.8l1.5.2c4-31.2-6.9-70.8-19.9-93.8a49.58,49.58,0,0,0-24-21.2c-24-10.1-70.1-21.6-120.5-21.1-21.4.2-38.8,2.3-50.5,6-25.7,8.1-44.7,32.8-56,52.2a222.88,222.88,0,0,0-17.6,37.3h1.6C1801,231.9,1825,173,1867.8,159.5Z"/><path d="M1864.8,155.7c11.8-3.7,29.8-5.7,52.1-6,48.3-.5,97.8,9.4,125.4,19.4a47.24,47.24,0,0,1,24.8,20.7c13.5,23.5,25,64.1,20.9,96.3l1.4.2c4.2-32.5-7.4-73.5-21.1-97.2a48.8,48.8,0,0,0-25.6-21.3c-27.8-10-77.5-20-125.9-19.5-22.4.3-40.6,2.4-52.5,6.1-25.9,8.1-45.9,33.6-58.1,53.6a242.55,242.55,0,0,0-19.5,39.6h1.5C1794.1,232.6,1821.3,169.2,1864.8,155.7Z"/><path d="M1861.8,151.8c12-3.7,30.8-5.8,54.1-6.1,49.4-.6,101.4,8.5,131,17.7a46.18,46.18,0,0,1,26.3,20.8c14.2,24.2,26.4,66.3,22.1,99.8l1.3.2c4.4-33.8-7.9-76.2-22.3-100.7a47.72,47.72,0,0,0-27.1-21.4c-29.7-9.3-81.8-18.4-131.4-17.8-23.5.3-42.3,2.4-54.5,6.1-45.5,13.9-76.2,83.4-81.7,97h1.4C1786.8,233.6,1816.8,165.6,1861.8,151.8Z"/><path d="M1797.7,203.4c13.7-21,35.4-47.7,61.1-55.4,12.3-3.7,31.7-5.8,56.1-6.1,50.1-.6,105.8,7.9,136.4,16.1a46.49,46.49,0,0,1,27.8,20.9c15,24.9,27.8,68.4,23.3,103.2l1.3.2c4.5-35.2-8.4-79-23.5-104.1a48,48,0,0,0-28.6-21.5c-30.7-8.2-86.6-16.8-136.8-16.1-24.9.3-43.9,2.4-56.4,6.2-26.3,7.9-48.3,35.1-62.2,56.6a292.66,292.66,0,0,0-23.6,44.2h1.4A293.2,293.2,0,0,1,1797.7,203.4Z"/><path d="M1855.8,144.1c12.7-3.8,32.2-5.8,58.1-6.2,50.8-.7,109.2,7,141.9,14.4a46.29,46.29,0,0,1,29.3,21c15.7,25.6,29.1,70.5,24.5,106.7l1.2.2c4.7-36.6-8.8-81.8-24.6-107.6a47.79,47.79,0,0,0-30.1-21.6c-32.8-7.4-91.3-15.1-142.2-14.5-26,.4-45.6,2.5-58.4,6.2-26.5,7.8-49.6,35.9-64.3,58.1-14.3,21.5-23.8,41.8-25.7,46.5h1.4C1771.5,237,1808.4,158.1,1855.8,144.1Z"/><path d="M2060.5,145.6c-35.1-6.7-96.3-13.5-147.7-12.8-27,.4-47.3,2.5-60.4,6.3-49.9,14.6-91.5,102.2-94.1,108.4h1.2c3.2-7.1,43.7-92.7,93.1-107.2,13-3.8,33.2-5.9,60.1-6.3,51.2-.7,112.3,6.1,147.4,12.8a46.41,46.41,0,0,1,30.8,21.2c13.3,21.2,31.1,68.1,25.7,110.2l1.2.2c5.4-42.4-12.5-89.6-25.8-111A48,48,0,0,0,2060.5,145.6Z"/><path d="M2064.9,140.1c-37.8-5.9-101.8-11.9-153.1-11.1-28.1.4-49,2.6-62.3,6.4-52.1,15-98.1,111-98.1,111.9h.7l.4.1c.3-.9,46.2-96.1,97.3-110.9,13.2-3.8,34.1-5.9,62-6.3,51.2-.7,115.2,5.2,152.9,11.1a46.93,46.93,0,0,1,32.4,21.3c13.9,21.8,32.5,70,26.9,113.7l1.1.1c5.6-44-13.1-92.6-27-114.5A48.69,48.69,0,0,0,2064.9,140.1Z"/><path d="M2069.3,134.6c-31.5-4-100.4-10.4-158.5-9.5-29.2.5-50.8,2.6-64.3,6.4-52.5,14.9-102,114.1-102,115h.7l.4.1c.3-.9,49.2-99.3,101.2-114.1,13.4-3.8,34.9-5.9,64-6.4,58.1-.9,126.9,5.5,158.4,9.5a47.54,47.54,0,0,1,33.9,21.4c14.5,22.3,33.9,71.9,28.1,117.2l1,.1c5.8-45.6-13.7-95.5-28.2-117.9A49.58,49.58,0,0,0,2069.3,134.6Z"/><path d="M2111,152.3c-8.9-13.5-23.4-21.5-41.7-23.2-52.4-4.7-179.3-14.3-225.8-1.4-52.9,14.7-105.8,117.3-105.8,118.1h.6l.3.1c.3-.9,13.3-26.4,33.5-54.2,17.9-24.6,44.8-55.6,71.6-63.1,46.4-12.9,173.1-3.3,225.5,1.4,18.1,1.6,32.2,9.5,41,22.7,12.6,19,34.6,68.5,28.1,119.5l1,.1C2145.8,221.2,2123.6,171.4,2111,152.3Z"/><rect class="cls-5" x="268.1" y="-110.9" width="1420" height="585"/><rect class="cls-6" y="-0.7" width="860.9" height="619.6"/><rect class="cls-7" x="1710" y="-0.7" width="860.9" height="619.6"/></svg>