<svg width="1300" height="455" viewBox="0 0 1300 455" fill="none" xmlns="http://www.w3.org/2000/svg">
<g clip-path="url(#clip0_11165_540)">
<rect width="1300" height="455" fill="#1E1E1E"/>
<path opacity="0.1" d="M625.932 -100.286C674.827 -67.6239 681.753 17.7591 683.256 70.4692C685.742 148.719 645.574 209.588 589.939 260.784C536.859 309.18 477.166 349.826 422.763 396.673C366.965 444.298 315.444 495.486 269.758 553.028C192.789 650.459 123.524 795.31 175.165 919.806C216.354 1019.02 333.352 1062.17 433.038 1066.94C485.755 1069.55 540.702 1062.22 592.931 1054.12C651.758 1045.53 710.186 1032.14 764.792 1009.44C851.745 974.169 936.594 896.595 917.447 794.236C901.359 708.018 813.827 647.952 759.672 586.189C726.836 548.681 700.355 505.338 695.906 454.73C692.009 408.39 703.79 360.622 713.713 315.263C740.099 195.266 806.247 5.47215 675.427 -78.028C671.386 -80.3488 667.905 -74.2862 671.946 -71.9655C767.553 -11.3731 749.404 112.722 730.654 207.862C713.282 293.993 675.129 391.268 692.774 480.277C710.964 569.441 796.013 629.978 852.968 694.298C884.635 729.712 911.189 770.726 913.073 820.019C915.291 880.569 875.261 932.665 828.673 966.453C731.156 1036.91 595.098 1050.62 478.28 1058.62C361.463 1066.62 220.476 1023.12 175.522 904.046C148.285 832.29 169.616 746.695 198.901 678.628C230.507 606.519 280.608 543.767 334.214 487.296C384.567 434.015 440.754 387.087 498.265 341.709C553.373 298.588 611.436 257.48 652.074 199.094C687.836 147.55 692.686 89.0043 686.354 28.463C681.061 -17.0971 670.144 -80.1133 628.634 -107.744C625.915 -108.515 622.434 -102.452 625.932 -100.286Z" fill="white"/>
<path d="M954 391C986.86 391 1013.5 364.36 1013.5 331.5C1013.5 298.639 986.86 272 954 272C921.139 272 894.5 298.639 894.5 331.5C894.5 364.36 921.139 391 954 391Z" fill="#262625"/>
<path d="M954 387C986.86 387 1013.5 360.36 1013.5 327.5C1013.5 294.639 986.86 268 954 268C921.139 268 894.5 294.639 894.5 327.5C894.5 360.36 921.139 387 954 387Z" fill="#3F3D3C"/>
<path d="M967.837 303.405H983.152V303.426L968.991 335.953H953.676L967.837 303.426" fill="#23C865"/>
<path d="M945.841 353.24L924.162 303.405H939.517L953.676 335.953L946.117 353.24" fill="white"/>
<g clip-path="url(#clip1_11165_540)">
<path d="M1139.42 284.121C1196.11 272.07 1231.83 214.104 1219.19 154.65C1206.55 95.1968 1150.35 56.7693 1093.66 68.8201C1036.96 80.871 1001.24 138.837 1013.88 198.29C1026.52 257.744 1082.72 296.172 1139.42 284.121Z" fill="#23613C"/>
<path d="M1133.12 279.146C1189.81 267.096 1225.53 209.13 1212.89 149.676C1200.26 90.2224 1144.05 51.7949 1087.36 63.8458C1030.66 75.8966 994.946 133.862 1007.58 193.316C1020.22 252.77 1076.43 291.197 1133.12 279.146Z" fill="#23C865"/>
<path d="M1148.43 139.604L1129.65 136.356L1126 157.49L1144.78 160.738L1148.43 139.604Z" fill="white"/>
<path d="M1143.95 166.613L1124.99 163.333L1121.33 184.468L1140.29 187.747L1143.95 166.613Z" fill="white"/>
<path d="M1139.28 193.578L1120.32 190.298L1116.67 211.433L1135.63 214.712L1139.28 193.578Z" fill="white"/>
<path d="M1099.9 132.764L1080.93 129.484L1068.18 203.206L1087.15 206.485L1099.9 132.764Z" fill="white"/>
<path d="M1124.47 135.459L1081.2 127.975L1077.55 149.11L1120.82 156.594L1124.47 135.459Z" fill="white"/>
</g>
</g>
<defs>
<clipPath id="clip0_11165_540">
<rect width="1300" height="455" fill="white"/>
</clipPath>
<clipPath id="clip1_11165_540">
<rect x="975.666" y="76.106" width="232.16" height="239.76" transform="rotate(-12 975.666 76.106)" fill="white"/>
</clipPath>
</defs>
</svg>
