<svg width="361" height="274" viewBox="0 0 361 274" fill="none" xmlns="http://www.w3.org/2000/svg">
<rect width="361" height="274" fill="#1E1E1E"/>
<mask id="mask0_11160_509" style="mask-type:alpha" maskUnits="userSpaceOnUse" x="2" y="0" width="280" height="274">
<rect x="2.27832" width="279.444" height="274" fill="#C4C4C4"/>
</mask>
<g mask="url(#mask0_11160_509)">
<path opacity="0.1" d="M200.399 -56.6979C223.242 -41.3541 226.478 -1.24277 227.18 23.5195C228.341 60.2796 209.576 88.8747 183.584 112.926C158.786 135.661 130.899 154.756 105.483 176.764C79.4157 199.137 55.3461 223.184 34.0025 250.216C-1.95557 295.988 -34.3149 364.036 -10.1891 422.522C9.05316 469.129 63.7121 489.404 110.284 491.643C134.912 492.869 160.582 489.424 184.982 485.618C212.464 481.586 239.761 475.294 265.272 464.628C305.894 448.06 345.534 411.618 336.589 363.531C329.073 323.028 288.18 294.81 262.88 265.795C247.54 248.174 235.168 227.812 233.09 204.038C231.269 182.268 236.773 159.828 241.409 138.519C253.736 82.1465 284.639 -7.01493 223.522 -46.2417C221.634 -47.332 220.008 -44.4839 221.896 -43.3936C266.562 -14.9285 258.083 43.3691 249.323 88.0638C241.208 128.527 223.383 174.224 231.627 216.04C240.124 257.927 279.858 286.366 306.466 316.582C321.26 333.219 333.665 352.487 334.546 375.644C335.582 404.089 316.881 428.563 295.116 444.436C249.558 477.535 185.994 483.974 131.42 487.733C76.845 491.492 10.9792 471.058 -10.0226 415.118C-22.7472 381.408 -12.7816 341.197 0.899746 309.221C15.6653 275.346 39.0712 245.866 64.1151 219.337C87.6387 194.306 113.888 172.26 140.756 150.943C166.501 130.685 193.627 111.373 212.612 83.9449C229.319 59.7305 231.586 32.2269 228.627 3.78575C226.155 -17.6175 221.054 -47.2214 201.662 -60.2017C200.392 -60.5638 198.765 -57.7158 200.399 -56.6979Z" fill="white"/>
</g>
<path d="M241.316 232.997C252.536 232.997 261.632 223.901 261.632 212.681C261.632 201.461 252.536 192.365 241.316 192.365C230.096 192.365 221 201.461 221 212.681C221 223.901 230.096 232.997 241.316 232.997Z" fill="#262625"/>
<path d="M241.316 231.632C252.536 231.632 261.632 222.536 261.632 211.316C261.632 200.096 252.536 191 241.316 191C230.096 191 221 200.096 221 211.316C221 222.536 230.096 231.632 241.316 231.632Z" fill="#3F3D3C"/>
<path d="M246.041 203.087H251.271V203.094L246.435 214.201H241.206L246.041 203.094" fill="#23C865"/>
<path d="M238.53 220.103L231.128 203.087H236.371L241.205 214.201L238.624 220.103" fill="white"/>
<g clip-path="url(#clip0_11160_509)">
<path d="M304.991 160.508C324.35 156.393 336.545 136.601 332.23 116.3C327.915 96.0002 308.724 82.8793 289.366 86.994C270.007 91.1087 257.812 110.901 262.127 131.201C266.442 151.501 285.633 164.622 304.991 160.508Z" fill="#23613C"/>
<path d="M302.841 158.808C322.199 154.694 334.394 134.901 330.079 114.601C325.764 94.301 306.573 81.18 287.215 85.2948C267.857 89.4095 255.662 109.202 259.977 129.502C264.292 149.802 283.483 162.923 302.841 158.808Z" fill="#23C865"/>
<path d="M308.069 111.162L301.657 110.053L300.409 117.269L306.821 118.378L308.069 111.162Z" fill="white"/>
<path d="M306.537 120.384L300.062 119.265L298.814 126.481L305.289 127.601L306.537 120.384Z" fill="white"/>
<path d="M304.944 129.591L298.47 128.472L297.222 135.688L303.696 136.808L304.944 129.591Z" fill="white"/>
<path d="M291.497 108.828L285.022 107.708L280.669 132.88L287.143 134L291.497 108.828Z" fill="white"/>
<path d="M299.888 109.747L285.113 107.191L283.865 114.408L298.64 116.963L299.888 109.747Z" fill="white"/>
</g>
<defs>
<clipPath id="clip0_11160_509">
<rect x="249.078" y="89.4814" width="79.2699" height="81.8652" transform="rotate(-12 249.078 89.4814)" fill="white"/>
</clipPath>
</defs>
</svg>
