<?xml version="1.0" encoding="utf-8"?>
<!-- Generator: Adobe Illustrator 25.4.1, SVG Export Plug-In . SVG Version: 6.00 Build 0)  -->
<svg version="1.1" id="Layer_1" xmlns="http://www.w3.org/2000/svg" xmlns:xlink="http://www.w3.org/1999/xlink" x="0px" y="0px"
	 viewBox="0 0 667.8 100" style="enable-background:new 0 0 667.8 100;" xml:space="preserve">
<style type="text/css">
	.st0{fill:#FFFFFF;}
	.st1{fill:#23C865;}
</style>
<g>
	<path class="st0" d="M506.7,100h28V72.7l-28,0V100z M510.2,76.1h21v20.5h-21V76.1z"/>
	<path class="st0" d="M608.7,100h28V72.7l-28,0V100z M612.2,76.1h21v20.5h-21V76.1z"/>
	<path class="st0" d="M569.8,72.7l0,23.9h-21l0-23.9h-3.4V100h28V72.7H569.8z"/>
	<path class="st0" d="M586.7,76.2l-0.1,20.4h11.4l0,3.4h-14.9l0.1-23.8h-6.4v-3.4l6.5,0l0-6.9l3.4,0l0,6.9h11.4l0,3.4L586.7,76.2
		L586.7,76.2z"/>
	<path class="st0" d="M667.8,72.9h-27.6V100h3.4V76.3h20.9V100h3.4V72.9z"/>
	<path class="st0" d="M541.7,65.8h-3.4l-0.1,34.2h3.4"/>
	<path class="st0" d="M605.1,72.9h-3.4l-0.1,27.1h3.4"/>
	<path class="st0" d="M503.2,76.2v-3.4l-28,0v12.1v3.5h3.5h21.1v8.3h-24.6v3.4h28v-3.4V88v-3.3h-24.5v-8.6L503.2,76.2z"/>
	<path class="st0" d="M317.8,99.9l27.9,0l0-27.2l-28,0V99.9z M321.3,76.2h21l0,20.4l-20.9,0V76.2z"/>
	<path class="st0" d="M383.1,96.6v-8.4v-12h21v12.1h3.5V72.8l-27.9,0v27.1h27.9v-3.3H383.1z"/>
	<path class="st0" d="M407.6,84.8H382v3.5h25.6V84.8z"/>
	<path class="st0" d="M303,76.2l-0.1,20.4h11.4l0,3.3h-14.9l0.1-23.7h-6.4v-3.4l6.5,0l0-6.9l3.4,0l0,6.9h11.4v3.4L303,76.2L303,76.2
		z"/>
	<path class="st0" d="M438.7,72.8h-27.6v27.1h3.4V76.2h20.9v23.7h3.4V72.8z"/>
	<path class="st0" d="M453.8,87.7l-8.3,4.1v4.8h20.4l0,3.3h-23.7V89.7l8.2-4.1l-6.7-4.1v-8.6H465l0,9.3l-7.6,3.8l14.7,9v4
		L453.8,87.7z M461.6,76.2l-14.5,0l0,3.4l6.9,4.3l7.7-3.9V76.2z"/>
	<path class="st0" d="M371.7,99.9l-14.4-13.7h-4.6v13.7h-3.4l0.1-34h3.4l-0.1,16.9h4.7l13-10l5.6,0l-15.4,11.7l16.4,15.4H371.7z"/>
	<path class="st0" d="M181.3,99.6h80.2V19.9h-70.2V0h-10V99.6L181.3,99.6z M191.3,29.9h60.1v59.7h-60.1V29.9z"/>
	<path class="st0" d="M171.3,0h-10v19.9H91.1v79.6h80.2L171.3,0L171.3,0z M161.3,89.6h-60.1V29.9h60.1V89.6z"/>
	<path class="st1" d="M80.7,20.1H0v79.5h9.8V30.2h61.1v69.4h9.9V20.1z"/>
	<path class="st0" d="M501.8,30.1v8.4v12h-20.9V38.3h-3.5v15.5l27.9,0V26.8h-27.9v3.3H501.8z"/>
	<path class="st0" d="M502.9,38.3h-25.6v3.5h25.6V38.3z"/>
	<path class="st0" d="M411.5,53.9l-14.4-13.7h-4.6v13.7h-3.4l0.1-34h3.4l-0.1,16.9h4.7l13-10l5.6,0l-15.4,11.7l16.4,15.4H411.5z"/>
	<path class="st0" d="M361.7,53.9V26.6h24V30h-20.6l0,20.4h20.6l0,3.4H361.7z"/>
	<path class="st0" d="M419,53.9V26.6h24V30h-20.6l0,20.4H443l0,3.4H419z"/>
	<path class="st0" d="M324,53.9v-34h3.4v34H324z"/>
	<path class="st0" d="M293.1,53.9h27.4V26.6h-24v-6.8h-3.4L293.1,53.9L293.1,53.9z M296.5,30h20.6v20.4h-20.6V30z"/>
	<path class="st0" d="M330.8,53.9h27.4V26.7l-24-0.1l-3.4,0.1L330.8,53.9L330.8,53.9z M334.2,30h20.6v20.4h-20.6V30z"/>
	<path class="st0" d="M543.2,26.7h-27.6v27.2h3.4V30.1h20.9v23.7h3.4V26.7z"/>
	<path class="st0" d="M473.9,26.6h-24v-6.8h-3.4v34h3.4v-3.4V50V30h20.6V50v0.5v3.4h3.4V26.6z"/>
	<path class="st0" d="M508.7,53.9V26.7h3.4v27.2H508.7z"/>
	<path class="st0" d="M512.1,21.4h-3.4v3.4h3.4V21.4z"/>
</g>
</svg>
