<svg width="580" height="70" viewBox="0 0 580 70" fill="none" xmlns="http://www.w3.org/2000/svg">
<path d="M107.471 0.000488281H101.857V11.1844V16.7549V55.8771H146.893V11.1844H107.471V0.000488281ZM107.471 16.7549H141.237V50.2637H107.471V16.7549Z" fill="white"/>
<path d="M90.5433 11.1839H51.1211V55.8766H96.1566V16.7544V11.1839V0H90.5433V11.1839ZM90.5433 50.3061H56.7773V16.7973H90.5433V50.3061Z" fill="white"/>
<path d="M45.3368 11.2696H0.30127V16.9258H45.3368V11.2696Z" fill="#23C865"/>
<path d="M45.3415 11.2696H39.8138V55.8766H45.3415V11.2696Z" fill="#23C865"/>
<path d="M5.57052 11.2688H0V55.8758H5.57052V11.2688Z" fill="#23C865"/>
<path d="M510.947 16.949V30.8165V50.5198H476.465V30.5661H470.689V56.1053L516.684 56.1246V11.479H470.689V16.949H510.947Z" fill="white"/>
<path d="M512.815 30.5662H470.709V36.3057H512.815V30.5662Z" fill="white"/>
<path d="M362.198 56.1248L338.498 33.5709H330.913V56.0863H325.291L325.426 0H331.048L330.913 27.9083H338.652L360.119 11.4214L369.418 11.4407L344.062 30.7396L371.151 56.1248H362.198Z" fill="white"/>
<path d="M280.166 56.1248V11.2866H319.653V16.8914H285.788L285.807 50.5201H319.673L319.653 56.1248H280.166Z" fill="white"/>
<path d="M374.617 56.1248V11.2866H414.104V16.8914H380.239L380.258 50.5201H414.124L414.104 56.1248H374.617Z" fill="white"/>
<path d="M218 56.125V0.154297H223.622V56.125H218Z" fill="white"/>
<path d="M229.299 56.1248H274.485V11.4214L234.92 11.2673L229.279 11.4022V56.1248H229.299ZM234.92 16.8721H268.805V50.5008H234.92V16.8721Z" fill="white"/>
<path d="M579.18 11.3638H533.705V56.1249H539.25V17.0263H573.635V56.1249H579.18V11.3638Z" fill="white"/>
<path d="M465.012 11.2674H425.448V0.0385742H419.807V56.1249H425.448V50.5008V49.7112V16.8722H459.332V49.7112V50.5008V56.1249H465.012V11.2674Z" fill="white"/>
<path d="M522.383 56.1244V11.3633H528.005V56.1244H522.383Z" fill="white"/>
<path d="M528.022 2.69604H522.4V8.32007H528.022V2.69604Z" fill="white"/>
<path d="M172.613 0.000488281H167V11.1844V16.7549V55.8771H212.036V11.1844H172.613V0.000488281ZM172.613 16.7549H206.379V50.2637H172.613V16.7549Z" fill="white"/>

</svg>
