<svg width="203" height="20" viewBox="0 0 203 20" fill="none" xmlns="http://www.w3.org/2000/svg">
<path d="M37.6048 0H35.6406V3.93508V5.89507V19.6603H51.3987V3.93508H37.6048V0ZM37.6048 5.89507H49.4195V17.6852H37.6048V5.89507Z" fill="white"/>
<path d="M31.6816 3.93508H17.8877V19.6603H33.6457V5.89507V3.93508V0H31.6816V3.93508ZM31.6816 17.7003H19.8668V5.91015H31.6816V17.7003Z" fill="white"/>
<path d="M15.8635 3.96513H0.105415V5.95528H15.8635V3.96513Z" fill="#23C865"/>
<path d="M15.8651 3.96513H13.9309V19.6602H15.8651V3.96513Z" fill="#23C865"/>
<path d="M1.94914 3.96484H0V19.6599H1.94914V3.96484Z" fill="#23C865"/>
<path d="M178.782 5.96367V10.843V17.7757H166.717V10.7549H164.696V19.7409L180.79 19.7477V4.03906H164.696V5.96367H178.782Z" fill="white"/>
<path d="M179.437 10.7549H164.704V12.7744H179.437V10.7549Z" fill="white"/>
<path d="M126.735 19.7476L118.443 11.812H115.788V19.7341H113.821L113.868 0H115.836L115.788 9.81959H118.496L126.008 4.01864L129.262 4.02541L120.389 10.8158L129.868 19.7476H126.735Z" fill="white"/>
<path d="M98.0322 19.7471V3.9707H111.849V5.94275H99.9993L100.006 17.7751H111.856L111.849 19.7471H98.0322Z" fill="white"/>
<path d="M131.08 19.7471V3.9707H144.897V5.94275H133.047L133.054 17.7751H144.904L144.897 19.7471H131.08Z" fill="white"/>
<path d="M76.2793 19.7481V0.0546875H78.2464V19.7481H76.2793Z" fill="white"/>
<path d="M80.2333 19.748H96.0441V4.01906L82.2004 3.96484L80.2266 4.01229V19.748H80.2333ZM82.2004 5.9369H94.0568V17.7692H82.2004V5.9369Z" fill="white"/>
<path d="M202.658 3.99805H186.746V19.7473H188.686V5.99043H200.718V19.7473H202.658V3.99805Z" fill="white"/>
<path d="M162.71 3.96455H148.866V0.0136719H146.893V19.7477H148.866V17.7689V17.4911V5.9366H160.723V17.4911V17.7689V19.7477H162.71V3.96455Z" fill="white"/>
<path d="M182.784 19.7473V3.99805H184.751V19.7473H182.784Z" fill="white"/>
<path d="M184.757 0.948242H182.79V2.92707H184.757V0.948242Z" fill="white"/>
<path d="M60.3987 0H58.4346V3.93508V5.89507V19.6603H74.1926V3.93508H60.3987V0ZM60.3987 5.89507H72.2135V17.6852H60.3987V5.89507Z" fill="white"/>
</svg>
