<svg width="360" height="151" viewBox="0 0 360 151" fill="none" xmlns="http://www.w3.org/2000/svg">
<rect width="361" height="151" fill="#1E1E1E"/>
<path d="M319.82 75.998C334.659 75.998 346.688 63.9687 346.688 49.1298C346.688 34.291 334.659 22.2617 319.82 22.2617C304.981 22.2617 292.952 34.291 292.952 49.1298C292.952 63.9687 304.981 75.998 319.82 75.998Z" stroke="white" stroke-miterlimit="10"/>
<path d="M294.044 40.7231C296.691 49.2224 299.036 58.3255 304.679 65.4315C307.303 68.7523 310.81 71.2603 314.944 72.2821C317.568 72.9091 320.424 72.8859 323.095 72.8626C326.067 72.8626 328.598 71.7712 330.897 69.9134C333.243 68.0324 335.054 65.6637 337.214 63.6202C338.398 62.5055 339.745 61.9482 341.347 61.716C342.764 61.507 344.157 61.4373 345.504 60.9264C350.056 59.2312 350.613 52.9147 350.566 48.8276C350.543 46.5286 350.404 44.0206 349.498 41.8842C348.291 39.0279 346.27 36.6592 344.505 34.128C342.485 31.2252 340.604 28.2295 338.537 25.35C337.051 23.3064 335.913 21.0538 334.334 19.0567C333.057 17.4312 331.547 16.1075 329.55 15.4341C327.251 14.6445 324.72 15.0161 322.514 15.8753C320.145 16.8042 318.079 18.4065 316.128 19.9856C313.852 21.8434 311.623 23.7476 309.37 25.6519C308.139 26.6969 306.839 27.649 305.469 28.485C304.099 29.321 302.496 29.5996 300.941 29.8319C298.433 30.2266 296.134 30.8072 294.16 32.4792C292.557 33.8261 292 35.6142 292 37.6345C292 39.144 292.418 40.9785 294.136 41.3036C294.322 41.3269 294.392 41.0482 294.206 41.025C291.582 40.5373 292.023 36.1947 292.906 34.4531C294.415 31.4806 298.015 30.575 301.01 30.1337C302.357 29.9247 303.658 29.6693 304.912 29.112C306.375 28.485 307.698 27.3703 308.929 26.3717C311.437 24.3746 313.829 22.215 316.314 20.1946C318.775 18.1743 321.423 16.2701 324.558 15.527C327.553 14.8303 330.549 15.6663 332.755 17.7563C334.636 19.5444 335.89 21.9363 337.283 24.096C339.118 26.9523 341.185 29.6693 343.066 32.5024C344.807 35.1497 346.851 37.6113 348.407 40.3747C349.847 42.906 350.148 45.6694 350.218 48.5257C350.288 51.1731 350.056 53.9133 349.127 56.3981C348.662 57.6521 347.942 58.6506 347.013 59.6027C345.759 60.8567 343.902 61.1122 342.23 61.3212C341.092 61.4605 339.977 61.5999 338.909 62.0643C337.678 62.6216 336.68 63.6434 335.797 64.642C333.684 66.9642 331.501 69.3793 328.807 71.0513C325.649 73.002 322.189 72.5375 318.682 72.4679C316.198 72.4214 313.782 71.8873 311.553 70.7959C306.212 68.2414 302.775 62.9467 300.314 57.745C297.713 52.2645 296.087 46.4125 294.276 40.6534C294.253 40.4676 293.974 40.5373 294.044 40.7231Z" fill="white"/>
<path d="M294.462 41.6524C295.205 39.3534 298.503 38.1226 300.569 37.4724C303.635 36.4971 306.491 37.4027 309.138 39.0283C311.646 40.5842 313.922 42.4884 316.384 44.114C318.892 45.786 321.493 47.249 324.279 48.4101C328.993 50.3607 335.496 51.4754 339.838 48.0385C343.298 45.2983 343.693 40.1894 342.764 36.1952C342.276 34.082 341.371 31.992 340.465 30.0181C339.467 27.7887 338.282 25.6291 336.773 23.7249C334.404 20.6827 330.387 18.198 326.555 20.1022C323.327 21.7045 321.934 25.8381 320.099 28.6712C318.984 30.3896 317.568 31.9223 315.617 32.6654C313.829 33.3389 311.809 33.4085 309.905 33.5246C304.865 33.8265 296.621 33.3389 294.787 39.4463C294.74 39.6321 295.019 39.7017 295.066 39.516C296.389 35.0573 301.498 34.3839 305.469 34.0587C309.069 33.7801 313.342 34.1981 316.662 32.5029C319.983 30.7844 321.423 26.7437 323.327 23.7713C324.372 22.1225 325.696 20.6131 327.623 19.9861C329.992 19.2197 332.5 20.2183 334.358 21.6813C338.236 24.7466 340.303 29.9716 341.928 34.5C343.554 39.0283 343.414 45.0893 339.211 48.2011C336.68 50.0821 333.057 50.1982 330.038 49.8034C326.834 49.3622 323.792 48.085 320.958 46.5987C318.288 45.2054 315.803 43.5102 313.365 41.7453C311.042 40.0501 308.767 38.2155 306.003 37.2634C303.565 36.4274 301.196 36.8919 298.874 37.8207C297.132 38.5406 294.764 39.6785 294.137 41.6292C294.137 41.7453 294.415 41.815 294.462 41.6524Z" fill="white"/>
<path d="M277.626 131.092L268.166 114.719L277.626 98.3467H296.529L305.973 114.719L296.529 131.092H277.626Z" stroke="black" stroke-miterlimit="10"/>
<path d="M277.626 131.092L268.166 114.719L277.626 98.3467H296.529L305.973 114.719L296.529 131.092H277.626Z" stroke="black" stroke-miterlimit="10"/>
<path d="M277.626 131.092L268.166 114.719L277.626 98.3467H296.529L305.973 114.719L296.529 131.092H277.626Z" stroke="white" stroke-miterlimit="10"/>
<path d="M268.672 115.004C271.946 112.757 275.759 111.286 278.59 108.423C281.374 105.639 282.308 101.668 284.712 98.6311C285.788 97.2707 287.386 95.8628 289.236 96.2425C290.708 96.543 291.847 97.8244 292.796 98.9001C293.761 100.007 294.599 101.21 295.643 102.238C297.114 103.662 298.791 104.832 300.579 105.813C302.319 106.762 304.264 107.395 305.799 108.66C306.621 109.341 307.143 110.242 307.238 111.302C307.333 112.441 306.447 113.28 305.72 114.023C304.391 115.368 303.189 116.886 302.398 118.61C301.638 120.24 301.227 121.996 300.326 123.578C299.345 125.286 297.889 126.251 295.896 126.125C294.045 126.014 292.242 125.096 290.644 124.242C287.085 122.328 283.7 120.145 280.061 118.389C276.455 116.649 272.626 115.289 268.624 114.94C268.624 115.004 268.624 115.067 268.624 115.146C270.871 115.004 272.468 117.076 273.607 118.737C274.968 120.699 276.075 122.818 277.325 124.827C279.16 127.754 281.533 131.345 285.392 131.329C288.873 131.313 289.648 127.374 289.901 124.638C290.233 120.888 289.648 117.06 290.549 113.359C291.024 111.381 292.036 109.641 293.492 108.217C294.773 106.968 296.371 106.05 297.225 104.405C297.81 103.282 298.063 101.494 297.257 100.419C296.418 99.3114 294.346 98.995 293.096 98.8368C290.723 98.5362 288.398 98.8842 286.104 99.5012C284.127 100.023 282.134 100.482 280.156 100.988C278.416 101.431 276.676 102.048 275.316 103.25C273.892 104.5 273.054 106.351 272.168 107.98C270.918 110.274 269.653 112.615 268.023 114.656C267.944 114.751 268.086 114.893 268.166 114.798C269.589 113.026 270.617 111.049 271.772 109.103C272.816 107.332 273.639 105.417 274.999 103.867C276.391 102.285 278.48 101.621 280.457 101.131C282.466 100.624 284.459 100.166 286.452 99.6277C289.015 98.9475 291.657 98.6786 294.251 99.2639C295.089 99.4537 295.975 99.691 296.687 100.166C297.51 100.719 297.589 101.7 297.51 102.602C297.32 104.816 295.659 106.114 294.077 107.442C292.701 108.597 291.546 109.989 290.882 111.682C289.553 115.004 289.838 118.674 289.806 122.17C289.774 125.413 289.616 131.123 285.187 131.139C283.13 131.139 281.422 129.874 280.125 128.387C278.638 126.678 277.451 124.717 276.312 122.787C275.221 120.936 274.161 119.022 272.816 117.345C271.788 116.079 270.333 114.846 268.608 114.956C268.482 114.972 268.482 115.146 268.608 115.162C273.56 115.605 278.179 117.582 282.513 119.876C285.867 121.648 289.031 123.878 292.495 125.413C293.903 126.03 295.437 126.504 296.988 126.346C298.427 126.188 299.471 125.239 300.262 124.084C301.211 122.66 301.702 120.999 302.287 119.417C303.015 117.424 304.391 115.716 305.846 114.213C307.001 113.026 307.792 111.919 307.159 110.226C306.621 108.755 305.04 107.854 303.727 107.189C301.844 106.24 299.962 105.402 298.222 104.184C296.735 103.155 295.453 101.906 294.314 100.514C292.875 98.7577 290.834 95.6255 288.145 96.0368C286.579 96.2741 285.345 97.508 284.396 98.7102C283.257 100.166 282.466 101.874 281.627 103.519C281.011 104.721 280.378 105.924 279.571 106.999C278.59 108.312 277.341 109.404 276.012 110.353C273.639 112.03 270.95 113.232 268.545 114.877C268.466 114.909 268.561 115.083 268.672 115.004Z" fill="white"/>
</svg>
