<svg width="294" height="70" viewBox="0 0 294 70" fill="none" xmlns="http://www.w3.org/2000/svg">
<path d="M107.471 4.72241H101.857V15.9063V21.4768V60.599H146.893V15.9063H107.471V4.72241ZM107.471 21.4768H141.237V54.9857H107.471V21.4768Z" fill="black"/>
<path d="M90.5433 15.9058H51.1211V60.5985H96.1566V21.4763V15.9058V4.72192H90.5433V15.9058ZM90.5433 55.028H56.7773V21.5192H90.5433V55.028Z" fill="black"/>
<path d="M45.3363 15.9915H0.300781V21.6477H45.3363V15.9915Z" fill="#23C865"/>
<path d="M45.3421 15.9915H39.8145V60.5985H45.3421V15.9915Z" fill="#23C865"/>
<path d="M5.57052 15.9907H0V60.5978H5.57052V15.9907Z" fill="#23C865"/>
<path d="M215.453 19.2372H226.731M247.409 19.2372H226.731M226.731 19.2372V8.09961M226.731 19.2372V57.7126H245.529" stroke="black" stroke-width="6.5"/>
<path d="M196.655 19.2375H160V57.7129H196.655" stroke="black" stroke-width="6.5"/>
<path d="M206.055 16.2001V60.7506M206.055 8.10007V0" stroke="black" stroke-width="6.5"/>
<path d="M255.865 16.2002V47.588H290.64M290.64 47.588V16.2002M290.64 47.588V65.8131H256.805" stroke="black" stroke-width="6.5"/>
</svg>
