<?xml version="1.0" encoding="utf-8"?>
<!-- Generator: Adobe Adobe Illustrator 24.2.0, SVG Export Plug-In . SVG Version: 6.00 Build 0)  -->
<svg version="1.1" id="Layer_1" xmlns="http://www.w3.org/2000/svg" xmlns:xlink="http://www.w3.org/1999/xlink" x="0px" y="0px"
	 width="640px" height="480px" viewBox="0 0 640 480" style="enable-background:new 0 0 640 480;" xml:space="preserve">
<style type="text/css">
	.st0{fill:#040404;}
	.st1{fill:none;stroke:#000000;stroke-miterlimit:10;}
	.st2{fill:#2BB35C;}
	.st3{fill:#FFFFFF;}
	.st4{stroke:#000000;stroke-miterlimit:10;}
	.st5{fill:none;stroke:#4ABA39;stroke-miterlimit:10;}
	.st6{fill:none;stroke:#000000;stroke-width:3;stroke-miterlimit:10;}
	.st7{stroke:#000000;stroke-width:3;stroke-miterlimit:10;}
	.st8{fill:none;stroke:#4ABA39;stroke-width:3;stroke-miterlimit:10;}
	.st9{fill:none;}
	.st10{fill:#FF0000;}
</style>
<g>
	<path id="B_17_" class="st0" d="M473.02,272.21h23.92v-23.34l-23.92-0.01V272.21z M476,251.78h17.93v17.5H476V251.78z"/>
	<path id="B_16_" class="st0" d="M560.28,272.21h23.92v-23.34l-23.92-0.01V272.21z M563.26,251.78h17.93v17.5h-17.93V251.78z"/>
	<g>
		<polygon class="st0" points="526.94,248.87 526.92,269.28 508.99,269.28 508.96,248.86 506.01,248.86 506.01,272.21 
			529.93,272.21 529.93,248.87 		"/>
	</g>
	<path d="M541.47,251.82l-0.1,17.45h9.79l-0.01,2.94h-12.74l0.11-20.38l-5.5,0v-2.95l5.53-0.01l0.01-5.9l2.94,0.01l-0.01,5.91
		l9.77,0l-0.03,2.95H541.47z"/>
	<polygon id="N_8_" points="610.85,248.99 587.26,248.99 587.26,272.21 590.13,272.21 590.13,251.93 607.98,251.93 607.98,272.21 
		610.85,272.21 	"/>
	<g>
		<polyline points="502.94,242.98 500.02,242.98 499.95,272.21 502.87,272.21 		"/>
	</g>
	<g>
		<polyline points="557.21,249 554.29,249 554.22,272.21 557.15,272.21 		"/>
	</g>
	<g>
		<g>
			<polygon class="st0" points="469.95,251.82 469.95,248.87 446.03,248.86 446.03,259.17 446.03,262.15 449.02,262.15 
				467.05,262.15 467.05,269.28 446.03,269.28 446.03,272.21 469.95,272.21 469.95,269.28 469.95,269.28 469.95,261.97 
				469.95,261.97 469.95,259.17 449.02,259.17 449.02,251.78 			"/>
		</g>
	</g>
</g>
<g>
	<path id="B_18_" class="st0" d="M311.33,272.11l23.91,0.04l0.01-23.24l-23.92-0.01V272.11z M314.31,251.82h17.93l-0.01,17.48
		l-17.92-0.04V251.82z"/>
	<g>
		<polygon class="st0" points="367.23,269.31 367.23,262.1 367.23,251.86 385.16,251.86 385.16,262.23 388.16,262.23 388.16,248.95 
			364.25,248.94 364.25,272.15 388.16,272.15 388.16,269.31 		"/>
		<rect x="366.25" y="259.25" class="st0" width="21.9" height="2.98"/>
	</g>
	<path d="M298.66,251.89l-0.1,17.42h9.79l-0.01,2.84H295.6l0.11-20.26l-5.5,0v-2.95l5.53-0.01l0.01-5.9l2.94,0.01l-0.01,5.91l9.77,0
		l0,2.95H298.66z"/>
	<polygon id="N_9_" points="414.82,248.93 391.22,248.93 391.22,272.15 394.1,272.15 394.1,251.88 411.95,251.88 411.95,272.15 
		414.82,272.15 	"/>
	<g>
		<path d="M427.74,261.67l-7.07,3.51l0,4.11h17.43l-0.02,2.86h-20.29v-8.76l7.06-3.51l-5.76-3.54v-7.39h18.22l0.01,7.97l-6.5,3.24
			l12.57,7.74v3.39L427.74,261.67z M434.42,251.87l-12.44-0.02l-0.01,2.87l5.87,3.66l6.58-3.32L434.42,251.87z"/>
	</g>
	<path d="M357.44,272.15l-12.31-11.71h-3.94l0,11.69h-2.92l0.07-29.12h2.92l-0.07,14.49h4.02l11.15-8.56l4.83,0.01l-13.17,10.02
		l14.07,13.18L357.44,272.15z"/>
</g>
<g>
	<path id="B_19_" class="st0" d="M194.56,271.84h68.65v-68.12h-60.09v-17.05h-8.56V271.84z M203.12,212.21h51.47v51.08h-51.47
		V212.21z"/>
	<path id="D_2_" class="st0" d="M185.94,186.67h-8.56v17.05H117.3v68.12h68.65V186.67z M177.39,263.35h-51.47v-51.14h51.47V263.35z"
		/>
	<polygon id="N_11_" class="st2" points="108.48,203.85 39.38,203.85 39.38,271.84 47.8,271.84 47.8,212.47 100.05,212.47 
		100.05,271.84 108.48,271.84 	"/>
</g>
<g>
	<g>
		<polygon class="st0" points="468.76,212.4 468.76,219.6 468.76,229.83 450.85,229.83 450.85,219.47 447.85,219.47 447.85,232.73 
			471.74,232.74 471.74,209.56 447.85,209.56 447.85,212.4 		"/>
		<rect x="447.86" y="219.47" class="st0" width="21.87" height="2.98"/>
	</g>
	<path d="M391.5,232.74l-12.31-11.71h-3.94l0,11.69h-2.92l0.07-29.12h2.92l-0.07,14.49h4.02l11.15-8.56l4.83,0.01l-13.17,10.02
		l14.07,13.18L391.5,232.74z"/>
	<path d="M348.89,232.74v-23.28l20.51,0v2.91l-17.59,0l0.01,17.46l17.59,0l-0.01,2.91L348.89,232.74z"/>
	<path d="M397.95,232.74v-23.28l20.51,0v2.91l-17.59,0l0.01,17.46l17.59,0l-0.01,2.91L397.95,232.74z"/>
	<path d="M316.6,232.74v-29.06h2.92v29.06H316.6z"/>
	<path id="B_21_" class="st0" d="M290.21,232.74h23.47v-23.29h-20.55v-5.83h-2.93V232.74z M293.13,212.36h17.6v17.46h-17.6V212.36z"
		/>
	<path id="B_20_" class="st0" d="M322.47,232.74h23.47v-23.21l-20.55-0.08l-2.93,0.07V232.74z M325.39,212.36h17.6v17.46h-17.6
		V212.36z"/>
	<polygon id="N_12_" points="504.2,209.5 480.58,209.5 480.58,232.74 483.46,232.74 483.46,212.44 501.32,212.44 501.32,232.74 
		504.2,232.74 	"/>
	<g>
		<polygon class="st0" points="444.9,209.45 424.35,209.45 424.35,203.62 421.42,203.62 421.42,232.74 424.35,232.74 424.35,229.82 
			424.35,229.41 424.35,212.36 441.95,212.36 441.95,229.41 441.95,229.82 441.95,232.74 444.9,232.74 		"/>
	</g>
	<g>
		<path d="M474.7,232.74V209.5h2.92v23.24H474.7z"/>
		<rect x="474.71" y="205" width="2.92" height="2.92"/>
	</g>
</g>
</svg>
