<svg width="179" height="333" viewBox="0 0 179 333" fill="none" xmlns="http://www.w3.org/2000/svg">
<path d="M127.804 37.3637V54.9407M113.867 330.68L127.804 318.596V294.977M113.867 330.68H65.7204M113.867 330.68V306.512M65.7204 330.68L51.7832 318.596V294.977M65.7204 330.68V306.512M51.7832 36.2651V54.9407M65.7204 38.4623V59.335M113.867 39.5608V59.335M51.7832 54.9407L65.7204 59.335M51.7832 54.9407V79.1091M65.7204 59.335H113.867M65.7204 59.335V84.6019M113.867 59.335L127.804 54.9407M113.867 59.335V84.6019M127.804 54.9407V79.1091M51.7832 79.1091L65.7204 84.6019M51.7832 79.1091V102.179M65.7204 84.6019H113.867M65.7204 84.6019V108.77M113.867 84.6019L127.804 79.1091M113.867 84.6019V108.77M127.804 79.1091V102.179M127.804 102.179L113.867 108.77M127.804 102.179V130.742M113.867 108.77H65.7204M113.867 108.77V138.431M65.7204 108.77L51.7832 102.179M65.7204 108.77V138.431M51.7832 102.179V130.742M51.7832 130.742L65.7204 138.431M51.7832 130.742V156.008M65.7204 138.431H113.867M65.7204 138.431V165.896M113.867 138.431L127.804 130.742M113.867 138.431V165.896M127.804 130.742V156.008M127.804 156.008L113.867 165.896M127.804 156.008V184.571M113.867 165.896H65.7204M113.867 165.896V194.458M65.7204 165.896L51.7832 156.008M65.7204 165.896V194.458M51.7832 156.008V184.571M51.7832 184.571L65.7204 194.458M51.7832 184.571V209.838M65.7204 194.458H113.867M65.7204 194.458V220.824M113.867 194.458L127.804 184.571M113.867 194.458V220.824M127.804 184.571V209.838M127.804 209.838L113.867 220.824M127.804 209.838V238.401M113.867 220.824H65.7204M113.867 220.824V250.485M65.7204 220.824L51.7832 209.838M65.7204 220.824V250.485M51.7832 209.838V238.401M51.7832 238.401L65.7204 250.485M51.7832 238.401V271.358M65.7204 250.485H113.867M65.7204 250.485V282.343M113.867 250.485L127.804 238.401M113.867 250.485V282.343M127.804 238.401V271.358M127.804 271.358L113.867 282.343M127.804 271.358V294.977M113.867 282.343H65.7204M113.867 282.343V306.512M65.7204 282.343L51.7832 271.358M65.7204 282.343V306.512M51.7832 271.358V294.977M51.7832 294.977L65.7204 306.512M65.7204 306.512H113.867M113.867 306.512L127.804 294.977" stroke="#23C865"/>
<path d="M137.94 152.844V110L153.145 114.394V157.238M137.94 152.844L153.145 157.238M137.94 152.844V195.688M153.145 157.238V200.631M137.94 238.532L153.145 244.025M137.94 238.532V195.688M137.94 238.532V281.376M153.145 244.025V200.631M153.145 244.025V287.418M153.145 200.631L137.94 195.688M137.94 281.376V324.22L153.145 330.811V287.418M137.94 281.376L153.145 287.418" stroke="#23C865" stroke-width="2"/>
<path d="M177.716 20.3579C177.716 21.4474 177.238 22.5924 176.164 23.7944C175.084 25.0024 173.445 26.2156 171.252 27.4027C166.867 29.7763 160.456 31.9451 152.448 33.7784C136.449 37.4412 114.297 39.7159 89.7937 39.7159C65.2905 39.7159 43.1383 37.4412 27.1391 33.7784C19.1315 31.9451 12.7201 29.7763 8.33509 27.4027C6.14195 26.2156 4.50306 25.0024 3.42327 23.7944C2.3489 22.5924 1.87109 21.4474 1.87109 20.3579C1.87109 19.2685 2.3489 18.1235 3.42327 16.9215C4.50306 15.7134 6.14195 14.5002 8.33509 13.3131C12.7201 10.9396 19.1315 8.77075 27.1391 6.93748C43.1383 3.27463 65.2905 1 89.7937 1C114.297 1 136.449 3.27463 152.448 6.93748C160.456 8.77075 166.867 10.9396 171.252 13.3131C173.445 14.5002 175.084 15.7134 176.164 16.9215C177.238 18.1235 177.716 19.2685 177.716 20.3579Z" stroke="#23C865" stroke-width="2"/>
</svg>
