<svg width="293" height="216" viewBox="0 0 293 216" fill="none" xmlns="http://www.w3.org/2000/svg">
<path d="M59 129L59 163L234 163L234 129.41" stroke="#23C865" stroke-dasharray="20 20"/>
<path d="M1 122L1 203L292 203L292 122.976" stroke="#23C865" stroke-dasharray="20 20"/>
<rect width="34" height="27" transform="translate(130 149)" fill="white"/>
<path d="M148.48 153.7C149.373 153.7 150.167 153.847 150.86 154.14C151.553 154.42 152.093 154.84 152.48 155.4C152.88 155.96 153.08 156.667 153.08 157.52C153.08 158.48 152.82 159.24 152.3 159.8C151.78 160.36 151.027 160.72 150.04 160.88V160.96C151.253 161.093 152.167 161.487 152.78 162.14C153.407 162.793 153.72 163.727 153.72 164.94C153.72 166.313 153.287 167.367 152.42 168.1C151.567 168.833 150.373 169.2 148.84 169.2C148.067 169.2 147.413 169.14 146.88 169.02C146.36 168.9 145.887 168.733 145.46 168.52V173.8H143.7V158.3C143.7 157.22 143.907 156.347 144.32 155.68C144.733 155 145.3 154.5 146.02 154.18C146.74 153.86 147.56 153.7 148.48 153.7ZM148.44 155.16C147.907 155.16 147.413 155.253 146.96 155.44C146.507 155.627 146.14 155.953 145.86 156.42C145.593 156.887 145.46 157.54 145.46 158.38V166.94C145.927 167.18 146.407 167.38 146.9 167.54C147.407 167.687 148 167.76 148.68 167.76C149.827 167.76 150.66 167.507 151.18 167C151.7 166.48 151.96 165.753 151.96 164.82C151.96 163.767 151.64 163 151 162.52C150.36 162.027 149.52 161.78 148.48 161.78H147.42V160.3H148.28C149.32 160.3 150.08 160.053 150.56 159.56C151.04 159.067 151.28 158.413 151.28 157.6C151.28 156.773 151.02 156.16 150.5 155.76C149.993 155.36 149.307 155.16 148.44 155.16Z" fill="#23C865"/>
<path d="M234.484 80.1952C234.484 84.8452 232.183 89.3705 227.82 93.5872C223.453 97.8068 217.083 101.653 209.129 104.904C193.226 111.404 171.188 115.448 146.793 115.448C122.399 115.448 100.361 111.404 84.4579 104.904C76.504 101.653 70.1335 97.8068 65.7672 93.5872C61.4039 89.3705 59.1025 84.8452 59.1025 80.1952C59.1025 75.5452 61.4039 71.0199 65.7672 66.8031C70.1335 62.5836 76.504 58.7376 84.4579 55.4864C100.361 48.9861 122.399 44.9426 146.793 44.9426C171.188 44.9426 193.226 48.9861 209.129 55.4864C217.083 58.7376 223.453 62.5836 227.82 66.8031C232.183 71.0199 234.484 75.5452 234.484 80.1952Z" stroke="#23C865" stroke-width="2"/>
<path d="M234.984 36.2526C234.984 41.0803 232.593 45.7272 228.167 50.0042C223.74 54.2825 217.308 58.1585 209.318 61.4242C193.342 67.9545 171.236 72.0051 146.793 72.0051C122.351 72.0051 100.245 67.9545 84.2687 61.4242C76.2793 58.1585 69.8469 54.2825 65.4198 50.0042C60.9941 45.7272 58.6025 41.0803 58.6025 36.2526C58.6025 31.4248 60.9941 26.7779 65.4198 22.501C69.8469 18.2226 76.2793 14.3466 84.2687 11.081C100.245 4.55061 122.351 0.5 146.793 0.5C171.236 0.5 193.342 4.55061 209.318 11.081C217.308 14.3466 223.74 18.2226 228.167 22.501C232.593 26.7779 234.984 31.4248 234.984 36.2526Z" stroke="#23C865"/>
<rect width="34" height="27" transform="translate(130 189)" fill="white"/>
<path d="M147.38 195.8C148.3 195.8 149.087 195.913 149.74 196.14C150.393 196.367 150.98 196.613 151.5 196.88L150.74 198.26C150.247 197.98 149.72 197.74 149.16 197.54C148.6 197.34 147.98 197.24 147.3 197.24C146.7 197.24 146.26 197.38 145.98 197.66C145.7 197.927 145.56 198.247 145.56 198.62C145.56 198.94 145.647 199.227 145.82 199.48C145.993 199.733 146.273 200 146.66 200.28C147.06 200.547 147.587 200.86 148.24 201.22C149.453 201.873 150.38 202.593 151.02 203.38C151.673 204.153 152 205.12 152 206.28C152 207.88 151.54 209.1 150.62 209.94C149.713 210.78 148.507 211.2 147 211.2C146.053 211.2 145.207 211.027 144.46 210.68C143.713 210.333 143.127 209.827 142.7 209.16C142.287 208.48 142.08 207.667 142.08 206.72C142.08 205.867 142.26 205.12 142.62 204.48C142.993 203.84 143.493 203.307 144.12 202.88C144.76 202.44 145.473 202.107 146.26 201.88C145.513 201.453 144.913 200.987 144.46 200.48C144.007 199.96 143.78 199.333 143.78 198.6C143.78 197.68 144.12 196.987 144.8 196.52C145.493 196.04 146.353 195.8 147.38 195.8ZM147.66 202.64C147.247 202.733 146.82 202.88 146.38 203.08C145.953 203.267 145.553 203.52 145.18 203.84C144.807 204.147 144.5 204.54 144.26 205.02C144.033 205.487 143.92 206.06 143.92 206.74C143.92 207.62 144.187 208.34 144.72 208.9C145.267 209.46 146.027 209.74 147 209.74C148.027 209.74 148.813 209.447 149.36 208.86C149.907 208.26 150.18 207.407 150.18 206.3C150.18 205.393 149.953 204.66 149.5 204.1C149.06 203.54 148.447 203.053 147.66 202.64Z" fill="#23C865"/>
</svg>
