<svg width="384" height="636" viewBox="0 0 384 636" fill="none" xmlns="http://www.w3.org/2000/svg">
<path d="M324.484 521.641C324.484 526.291 322.183 530.817 317.82 535.034C313.453 539.253 307.083 543.099 299.129 546.35C283.226 552.851 261.188 556.894 236.793 556.894C212.399 556.894 190.361 552.851 174.458 546.35C166.504 543.099 160.134 539.253 155.767 535.034C151.404 530.817 149.103 526.291 149.103 521.641C149.103 516.991 151.404 512.466 155.767 508.249C160.134 504.03 166.504 500.184 174.458 496.933C190.361 490.432 212.399 486.389 236.793 486.389C261.188 486.389 283.226 490.432 299.129 496.933C307.083 500.184 313.453 504.03 317.82 508.249C322.183 512.466 324.484 516.991 324.484 521.641Z" stroke="#23C865" stroke-width="2"/>
<path d="M324.984 477.699C324.984 482.527 322.593 487.174 318.167 491.451C313.74 495.729 307.308 499.605 299.318 502.871C283.342 509.401 261.236 513.452 236.793 513.452C212.351 513.452 190.245 509.401 174.269 502.871C166.279 499.605 159.847 495.729 155.42 491.451C150.994 487.174 148.603 482.527 148.603 477.699C148.603 472.871 150.994 468.224 155.42 463.947C159.847 459.669 166.279 455.793 174.269 452.527C190.245 445.997 212.351 441.946 236.793 441.946C261.236 441.946 283.342 445.997 299.318 452.527C307.308 455.793 313.74 459.669 318.167 463.947C322.593 468.224 324.984 472.871 324.984 477.699Z" stroke="#23C865"/>
<path d="M149.37 18.4996V477.699V522.74M324.218 521.641V476.6V18.4996" stroke="#23C865" stroke-width="2"/>
<path d="M274.804 37.3637V54.9407M260.867 330.68L274.804 318.596V294.977M260.867 330.68H212.72M260.867 330.68V306.512M212.72 330.68L198.783 318.596V294.977M212.72 330.68V306.512M198.783 36.2651V54.9407M212.72 38.4623V59.335M260.867 39.5608V59.335M198.783 54.9407L212.72 59.335M198.783 54.9407V79.1091M212.72 59.335H260.867M212.72 59.335V84.6019M260.867 59.335L274.804 54.9407M260.867 59.335V84.6019M274.804 54.9407V79.1091M198.783 79.1091L212.72 84.6019M198.783 79.1091V102.179M212.72 84.6019H260.867M212.72 84.6019V108.77M260.867 84.6019L274.804 79.1091M260.867 84.6019V108.77M274.804 79.1091V102.179M274.804 102.179L260.867 108.77M274.804 102.179V130.742M260.867 108.77H212.72M260.867 108.77V138.431M212.72 108.77L198.783 102.179M212.72 108.77V138.431M198.783 102.179V130.742M198.783 130.742L212.72 138.431M198.783 130.742V156.008M212.72 138.431H260.867M212.72 138.431V165.896M260.867 138.431L274.804 130.742M260.867 138.431V165.896M274.804 130.742V156.008M274.804 156.008L260.867 165.896M274.804 156.008V184.571M260.867 165.896H212.72M260.867 165.896V194.458M212.72 165.896L198.783 156.008M212.72 165.896V194.458M198.783 156.008V184.571M198.783 184.571L212.72 194.458M198.783 184.571V209.838M212.72 194.458H260.867M212.72 194.458V220.824M260.867 194.458L274.804 184.571M260.867 194.458V220.824M274.804 184.571V209.838M274.804 209.838L260.867 220.824M274.804 209.838V238.401M260.867 220.824H212.72M260.867 220.824V250.485M212.72 220.824L198.783 209.838M212.72 220.824V250.485M198.783 209.838V238.401M198.783 238.401L212.72 250.485M198.783 238.401V271.358M212.72 250.485H260.867M212.72 250.485V282.343M260.867 250.485L274.804 238.401M260.867 250.485V282.343M274.804 238.401V271.358M274.804 271.358L260.867 282.343M274.804 271.358V294.977M260.867 282.343H212.72M260.867 282.343V306.512M212.72 282.343L198.783 271.358M212.72 282.343V306.512M198.783 271.358V294.977M198.783 294.977L212.72 306.512M212.72 306.512H260.867M260.867 306.512L274.804 294.977" stroke="#23C865"/>
<path d="M193.715 431.559L177.244 440.897M193.715 431.559V388.166M193.715 431.559V474.952M177.244 440.897V397.778M177.244 440.897V484.016M177.244 397.778V354.66L193.715 344.773V388.166M177.244 397.778L193.715 388.166M193.715 474.952V518.346L177.244 527.134V484.016M193.715 474.952L177.244 484.016" stroke="#23C865" stroke-width="2"/>
<path d="M324.717 39.3725V83.315M324.717 39.3725L371.596 42.0234M324.717 39.3725V27.2883L371.596 22.894V42.0234M324.717 83.315L382.999 88.8078M324.717 83.315V128.356M382.999 88.8078V42.6682L371.596 42.0234M382.999 88.8078V132.476M382.999 176.144L324.717 173.397M382.999 176.144V132.476M382.999 176.144V219.811M324.717 173.397V128.356M324.717 173.397V218.438M324.717 128.356L382.999 132.476M382.999 219.811V263.479H324.717V218.438M382.999 219.811L324.717 218.438M324.717 368.941L382.999 370.589M324.717 368.941V320.055M324.717 368.941V417.827M382.999 370.589V320.879M382.999 370.589V420.299M382.999 320.879V271.169H324.717V320.055M382.999 320.879L324.717 320.055M324.717 417.827V466.713L382.999 470.009V420.299M324.717 417.827L382.999 420.299" stroke="#23C865" stroke-width="2"/>
<path d="M150.201 39.3725V83.315M150.201 39.3725L103.322 42.0234M150.201 39.3725V27.2883L103.322 22.894V42.0234M150.201 83.315L91.9186 88.8078M150.201 83.315V128.356M91.9186 88.8078V42.6682L103.322 42.0234M91.9186 88.8078V132.476M91.9186 176.144L150.201 173.397M91.9186 176.144V132.476M91.9186 176.144V219.811M150.201 173.397V128.356M150.201 173.397V218.438M150.201 128.356L91.9186 132.476M91.9186 219.811V263.479H150.201V218.438M91.9186 219.811L150.201 218.438M150.201 368.941L91.9186 370.589M150.201 368.941V320.055M150.201 368.941V417.827M91.9186 370.589V320.879M91.9186 370.589V420.299M91.9186 320.879V271.169H150.201V320.055M91.9186 320.879L150.201 320.055M150.201 417.827V466.713L91.9186 470.009V420.299M150.201 417.827L91.9186 420.299" stroke="#23C865" stroke-width="2"/>
<path d="M284.94 346.97V304.126L300.145 308.52V351.364M284.94 346.97L300.145 351.364M284.94 346.97V389.814M300.145 351.364V394.757M284.94 432.658L300.145 438.151M284.94 432.658V389.814M284.94 432.658V475.502M300.145 438.151V394.757M300.145 438.151V481.544M300.145 394.757L284.94 389.814M284.94 475.502V518.346L300.145 524.937V481.544M284.94 475.502L300.145 481.544" stroke="#23C865" stroke-width="2"/>
<path d="M284.94 101.99V59.1465L300.145 63.5407V106.385M284.94 101.99L300.145 106.385M284.94 101.99V144.834M300.145 106.385V149.778M284.94 187.678L300.145 193.171M284.94 187.678V144.834M284.94 187.678V230.522M300.145 193.171V149.778M300.145 193.171V236.564M300.145 149.778L284.94 144.834M284.94 230.522V273.366L300.145 279.958V236.564M284.94 230.522L300.145 236.564" stroke="#23C865" stroke-width="2"/>
<path d="M324.716 20.3579C324.716 21.4474 324.238 22.5924 323.164 23.7944C322.084 25.0024 320.445 26.2156 318.252 27.4027C313.867 29.7763 307.456 31.9451 299.448 33.7784C283.449 37.4412 261.297 39.7159 236.794 39.7159C212.291 39.7159 190.138 37.4412 174.139 33.7784C166.131 31.9451 159.72 29.7763 155.335 27.4027C153.142 26.2156 151.503 25.0024 150.423 23.7944C149.349 22.5924 148.871 21.4474 148.871 20.3579C148.871 19.2685 149.349 18.1235 150.423 16.9215C151.503 15.7134 153.142 14.5002 155.335 13.3131C159.72 10.9396 166.131 8.77075 174.139 6.93748C190.138 3.27463 212.291 1 236.794 1C261.297 1 283.449 3.27463 299.448 6.93748C307.456 8.77075 313.867 10.9396 318.252 13.3131C320.445 14.5002 322.084 15.7134 323.164 16.9215C324.238 18.1235 324.716 19.2685 324.716 20.3579Z" stroke="#23C865" stroke-width="2"/>
<path d="M51 47H10V543H50.506" stroke="#23C865" stroke-dasharray="20 20"/>
<path d="M149 550L149 584L324 584L324 550.41" stroke="#23C865" stroke-dasharray="20 20"/>
<path d="M91 543L91 624L382 624L382 543.976" stroke="#23C865" stroke-dasharray="20 20"/>
<rect width="23" height="67" transform="translate(0 262)" fill="white"/>
<path d="M10.5 303.2C9.19333 303.2 8.13333 302.74 7.32 301.82C6.50667 300.887 6.1 299.507 6.1 297.68C6.1 295.867 6.5 294.48 7.3 293.52C8.1 292.56 9.22 292.08 10.66 292.08C11.4467 292.08 12.1 292.22 12.62 292.5C13.1533 292.767 13.5933 293.173 13.94 293.72H14.06C14.1267 293.493 14.2133 293.247 14.32 292.98C14.4267 292.713 14.5533 292.48 14.7 292.28H16.08C15.9867 292.573 15.9 292.96 15.82 293.44C15.74 293.92 15.68 294.427 15.64 294.96C15.6 295.493 15.58 296 15.58 296.48V300.64C15.58 301.053 15.66 301.347 15.82 301.52C15.98 301.68 16.1733 301.76 16.4 301.76C16.5067 301.76 16.62 301.747 16.74 301.72C16.86 301.693 16.9467 301.673 17 301.66V302.94C16.9067 302.993 16.7533 303.047 16.54 303.1C16.3267 303.167 16.1067 303.2 15.88 303.2C15.3867 303.2 14.98 303.08 14.66 302.84C14.3533 302.6 14.1267 302.173 13.98 301.56H13.84C13.5333 302.013 13.1267 302.4 12.62 302.72C12.1133 303.04 11.4067 303.2 10.5 303.2ZM10.8 301.74C11.9067 301.74 12.6867 301.427 13.14 300.8C13.6067 300.16 13.84 299.153 13.84 297.78V297.66C13.84 296.327 13.62 295.313 13.18 294.62C12.7533 293.913 11.9533 293.56 10.78 293.56C9.80667 293.56 9.08667 293.913 8.62 294.62C8.15333 295.327 7.92 296.353 7.92 297.7C7.92 299.033 8.14667 300.04 8.6 300.72C9.06667 301.4 9.8 301.74 10.8 301.74Z" fill="#23C865"/>
<rect width="34" height="27" transform="translate(220 572)" fill="white"/>
<path d="M238.48 576.7C239.373 576.7 240.167 576.847 240.86 577.14C241.553 577.42 242.093 577.84 242.48 578.4C242.88 578.96 243.08 579.667 243.08 580.52C243.08 581.48 242.82 582.24 242.3 582.8C241.78 583.36 241.027 583.72 240.04 583.88V583.96C241.253 584.093 242.167 584.487 242.78 585.14C243.407 585.793 243.72 586.727 243.72 587.94C243.72 589.313 243.287 590.367 242.42 591.1C241.567 591.833 240.373 592.2 238.84 592.2C238.067 592.2 237.413 592.14 236.88 592.02C236.36 591.9 235.887 591.733 235.46 591.52V596.8H233.7V581.3C233.7 580.22 233.907 579.347 234.32 578.68C234.733 578 235.3 577.5 236.02 577.18C236.74 576.86 237.56 576.7 238.48 576.7ZM238.44 578.16C237.907 578.16 237.413 578.253 236.96 578.44C236.507 578.627 236.14 578.953 235.86 579.42C235.593 579.887 235.46 580.54 235.46 581.38V589.94C235.927 590.18 236.407 590.38 236.9 590.54C237.407 590.687 238 590.76 238.68 590.76C239.827 590.76 240.66 590.507 241.18 590C241.7 589.48 241.96 588.753 241.96 587.82C241.96 586.767 241.64 586 241 585.52C240.36 585.027 239.52 584.78 238.48 584.78H237.42V583.3H238.28C239.32 583.3 240.08 583.053 240.56 582.56C241.04 582.067 241.28 581.413 241.28 580.6C241.28 579.773 241.02 579.16 240.5 578.76C239.993 578.36 239.307 578.16 238.44 578.16Z" fill="#23C865"/>
<rect width="34" height="27" transform="translate(220 609)" fill="white"/>
<path d="M237.38 615.8C238.3 615.8 239.087 615.913 239.74 616.14C240.393 616.367 240.98 616.613 241.5 616.88L240.74 618.26C240.247 617.98 239.72 617.74 239.16 617.54C238.6 617.34 237.98 617.24 237.3 617.24C236.7 617.24 236.26 617.38 235.98 617.66C235.7 617.927 235.56 618.247 235.56 618.62C235.56 618.94 235.647 619.227 235.82 619.48C235.993 619.733 236.273 620 236.66 620.28C237.06 620.547 237.587 620.86 238.24 621.22C239.453 621.873 240.38 622.593 241.02 623.38C241.673 624.153 242 625.12 242 626.28C242 627.88 241.54 629.1 240.62 629.94C239.713 630.78 238.507 631.2 237 631.2C236.053 631.2 235.207 631.027 234.46 630.68C233.713 630.333 233.127 629.827 232.7 629.16C232.287 628.48 232.08 627.667 232.08 626.72C232.08 625.867 232.26 625.12 232.62 624.48C232.993 623.84 233.493 623.307 234.12 622.88C234.76 622.44 235.473 622.107 236.26 621.88C235.513 621.453 234.913 620.987 234.46 620.48C234.007 619.96 233.78 619.333 233.78 618.6C233.78 617.68 234.12 616.987 234.8 616.52C235.493 616.04 236.353 615.8 237.38 615.8ZM237.66 622.64C237.247 622.733 236.82 622.88 236.38 623.08C235.953 623.267 235.553 623.52 235.18 623.84C234.807 624.147 234.5 624.54 234.26 625.02C234.033 625.487 233.92 626.06 233.92 626.74C233.92 627.62 234.187 628.34 234.72 628.9C235.267 629.46 236.027 629.74 237 629.74C238.027 629.74 238.813 629.447 239.36 628.86C239.907 628.26 240.18 627.407 240.18 626.3C240.18 625.393 239.953 624.66 239.5 624.1C239.06 623.54 238.447 623.053 237.66 622.64Z" fill="#23C865"/>
</svg>
