<svg width="195" height="600" viewBox="0 0 195 600" fill="none" xmlns="http://www.w3.org/2000/svg">
<rect x="149.5" y="11" width="2" height="504" fill="#23C865"/>
<path d="M193.715 391.786L177.244 401.124M193.715 391.786V348.393M193.715 391.786V435.18M177.244 401.124V358.006M177.244 401.124V444.243M177.244 358.006V314.887L193.715 305V348.393M177.244 358.006L193.715 348.393M193.715 435.18V478.573L177.244 487.361V444.243M193.715 435.18L177.244 444.243" stroke="#23C865" stroke-width="2"/>
<path d="M51 103H10V599H50.506" stroke="#23C865" stroke-dasharray="20 20"/>
<rect width="23" height="67" transform="translate(0 318)" fill="white"/>
<path d="M10.5 359.2C9.19333 359.2 8.13333 358.74 7.32 357.82C6.50667 356.887 6.1 355.507 6.1 353.68C6.1 351.867 6.5 350.48 7.3 349.52C8.1 348.56 9.22 348.08 10.66 348.08C11.4467 348.08 12.1 348.22 12.62 348.5C13.1533 348.767 13.5933 349.173 13.94 349.72H14.06C14.1267 349.493 14.2133 349.247 14.32 348.98C14.4267 348.713 14.5533 348.48 14.7 348.28H16.08C15.9867 348.573 15.9 348.96 15.82 349.44C15.74 349.92 15.68 350.427 15.64 350.96C15.6 351.493 15.58 352 15.58 352.48V356.64C15.58 357.053 15.66 357.347 15.82 357.52C15.98 357.68 16.1733 357.76 16.4 357.76C16.5067 357.76 16.62 357.747 16.74 357.72C16.86 357.693 16.9467 357.673 17 357.66V358.94C16.9067 358.993 16.7533 359.047 16.54 359.1C16.3267 359.167 16.1067 359.2 15.88 359.2C15.3867 359.2 14.98 359.08 14.66 358.84C14.3533 358.6 14.1267 358.173 13.98 357.56H13.84C13.5333 358.013 13.1267 358.4 12.62 358.72C12.1133 359.04 11.4067 359.2 10.5 359.2ZM10.8 357.74C11.9067 357.74 12.6867 357.427 13.14 356.8C13.6067 356.16 13.84 355.153 13.84 353.78V353.66C13.84 352.327 13.62 351.313 13.18 350.62C12.7533 349.913 11.9533 349.56 10.78 349.56C9.80667 349.56 9.08667 349.913 8.62 350.62C8.15333 351.327 7.92 352.353 7.92 353.7C7.92 355.033 8.14667 356.04 8.6 356.72C9.06667 357.4 9.8 357.74 10.8 357.74Z" fill="#23C865"/>
<path d="M150.201 18.4784V62.421M150.201 18.4784L103.322 21.1293M150.201 18.4784V6.39425L103.322 2V21.1293M150.201 62.421L91.9186 67.9138M150.201 62.421V107.462M91.9186 67.9138V21.7741L103.322 21.1293M91.9186 67.9138V111.582M91.9186 155.25L150.201 152.503M91.9186 155.25V111.582M91.9186 155.25V198.917M150.201 152.503V107.462M150.201 152.503V197.544M150.201 107.462L91.9186 111.582M91.9186 198.917V242.585H150.201V197.544M91.9186 198.917L150.201 197.544M150.201 348.047L91.9186 349.695M150.201 348.047V299.161M150.201 348.047V396.933M91.9186 349.695V299.985M91.9186 349.695V399.405M91.9186 299.985V250.275H150.201V299.161M91.9186 299.985L150.201 299.161M150.201 396.933V445.819L91.9186 449.115V399.405M150.201 396.933L91.9186 399.405" stroke="#23C865" stroke-width="2"/>
</svg>
