<svg width="101" height="514" viewBox="0 0 101 514" fill="none" xmlns="http://www.w3.org/2000/svg">
<path d="M41.7168 18.4784V62.421M41.7168 18.4784L88.5963 21.1293M41.7168 18.4784V6.39425L88.5963 2V21.1293M41.7168 62.421L99.9995 67.9138M41.7168 62.421V107.462M99.9995 67.9138V21.7741L88.5963 21.1293M99.9995 67.9138V111.582M99.9995 155.25L41.7168 152.503M99.9995 155.25V111.582M99.9995 155.25V198.917M41.7168 152.503V107.462M41.7168 152.503V197.544M41.7168 107.462L99.9995 111.582M99.9995 198.917V242.585H41.7168V197.544M99.9995 198.917L41.7168 197.544M41.7168 348.047L99.9995 349.695M41.7168 348.047V299.161M41.7168 348.047V396.933M99.9995 349.695V299.985M99.9995 349.695V399.405M99.9995 299.985V250.275H41.7168V299.161M99.9995 299.985L41.7168 299.161M41.7168 396.933V445.819L99.9995 449.115V399.405M41.7168 396.933L99.9995 399.405" stroke="#23C865" stroke-width="2"/>
<path d="M1.94043 312.844V270L17.1446 274.394V317.238M1.94043 312.844L17.1446 317.238M1.94043 312.844V355.688M17.1446 317.238V360.631M1.94043 398.532L17.1446 404.025M1.94043 398.532V355.688M1.94043 398.532V441.376M17.1446 404.025V360.631M17.1446 404.025V447.418M17.1446 360.631L1.94043 355.688M1.94043 441.376V484.22L17.1446 490.811V447.418M1.94043 441.376L17.1446 447.418" stroke="#23C865" stroke-width="2"/>
<rect x="40.5" y="11" width="2" height="503" fill="#23C865"/>
</svg>
