<svg width="64" height="81" viewBox="0 0 64 81" fill="none" xmlns="http://www.w3.org/2000/svg">
<path d="M37.36 30.71C42.2733 30.71 46.7467 31.7 50.78 33.68C54.8133 35.66 58.0033 38.4833 60.35 42.15C62.6967 45.7433 63.87 49.9233 63.87 54.69C63.87 59.8233 62.5867 64.3333 60.02 68.22C57.4533 72.1067 53.9333 75.1133 49.46 77.24C45.06 79.2933 40.1467 80.32 34.72 80.32C23.94 80.32 15.5067 77.02 9.42 70.42C3.33333 63.82 0.29 54.3967 0.29 42.15C0.29 33.4233 1.94 25.9433 5.24 19.71C8.54 13.4767 13.1233 8.74666 18.99 5.52C24.93 2.29333 31.7867 0.679999 39.56 0.679999C43.6667 0.679999 47.59 1.15666 51.33 2.10999C55.1433 2.99 58.37 4.27333 61.01 5.96L54.41 19.05C50.5967 16.4833 45.7933 15.2 40 15.2C33.4733 15.2 28.3033 17.1067 24.49 20.92C20.6767 24.7333 18.6233 30.27 18.33 37.53C22.8767 32.9833 29.22 30.71 37.36 30.71ZM33.73 67.01C37.5433 67.01 40.6233 65.9833 42.97 63.93C45.39 61.8767 46.6 59.09 46.6 55.57C46.6 52.05 45.39 49.2633 42.97 47.21C40.6233 45.0833 37.47 44.02 33.51 44.02C29.6233 44.02 26.4333 45.12 23.94 47.32C21.4467 49.4467 20.2 52.1967 20.2 55.57C20.2 58.9433 21.41 61.6933 23.83 63.82C26.25 65.9467 29.55 67.01 33.73 67.01Z" fill="black"/>
</svg>
