<svg width="24" height="24" viewBox="0 0 24 24" fill="none" xmlns="http://www.w3.org/2000/svg">
<path d="M17.34 5.45997C17.1027 5.45997 16.8707 5.53035 16.6733 5.66221C16.476 5.79406 16.3222 5.98148 16.2313 6.20075C16.1405 6.42002 16.1168 6.6613 16.1631 6.89408C16.2094 7.12685 16.3237 7.34067 16.4915 7.5085C16.6593 7.67632 16.8731 7.79061 17.1059 7.83691C17.3387 7.88321 17.58 7.85945 17.7992 7.76862C18.0185 7.6778 18.2059 7.52399 18.3378 7.32665C18.4696 7.12931 18.54 6.89731 18.54 6.65997C18.54 6.34171 18.4136 6.03649 18.1885 5.81144C17.9635 5.5864 17.6583 5.45997 17.34 5.45997ZM21.94 7.87997C21.9206 7.05027 21.7652 6.22937 21.48 5.44997C21.2257 4.7831 20.83 4.17925 20.32 3.67997C19.8248 3.1674 19.2196 2.77415 18.55 2.52997C17.7727 2.23613 16.9509 2.07718 16.12 2.05997C15.06 1.99997 14.72 1.99997 12 1.99997C9.28 1.99997 8.94 1.99997 7.88 2.05997C7.04915 2.07718 6.22734 2.23613 5.45 2.52997C4.78168 2.77662 4.17693 3.16953 3.68 3.67997C3.16743 4.17515 2.77418 4.78041 2.53 5.44997C2.23616 6.22731 2.07721 7.04912 2.06 7.87997C2 8.93997 2 9.27997 2 12C2 14.72 2 15.06 2.06 16.12C2.07721 16.9508 2.23616 17.7726 2.53 18.55C2.77418 19.2195 3.16743 19.8248 3.68 20.32C4.17693 20.8304 4.78168 21.2233 5.45 21.47C6.22734 21.7638 7.04915 21.9228 7.88 21.94C8.94 22 9.28 22 12 22C14.72 22 15.06 22 16.12 21.94C16.9509 21.9228 17.7727 21.7638 18.55 21.47C19.2196 21.2258 19.8248 20.8325 20.32 20.32C20.8322 19.8225 21.2283 19.2182 21.48 18.55C21.7652 17.7706 21.9206 16.9497 21.94 16.12C21.94 15.06 22 14.72 22 12C22 9.27997 22 8.93997 21.94 7.87997ZM20.14 16C20.1327 16.6347 20.0178 17.2637 19.8 17.86C19.6403 18.2952 19.3839 18.6884 19.05 19.01C18.7256 19.3405 18.3332 19.5964 17.9 19.76C17.3037 19.9777 16.6748 20.0927 16.04 20.1C15.04 20.15 14.67 20.16 12.04 20.16C9.41 20.16 9.04 20.16 8.04 20.1C7.38089 20.1123 6.7246 20.0108 6.1 19.8C5.68578 19.628 5.31136 19.3728 5 19.05C4.66809 18.7287 4.41484 18.3352 4.26 17.9C4.01586 17.2951 3.88044 16.6519 3.86 16C3.86 15 3.8 14.63 3.8 12C3.8 9.36997 3.8 8.99997 3.86 7.99997C3.86448 7.35103 3.98295 6.70791 4.21 6.09997C4.38605 5.67788 4.65627 5.30163 5 4.99997C5.30381 4.65614 5.67929 4.38307 6.1 4.19997C6.70955 3.98001 7.352 3.86505 8 3.85997C9 3.85997 9.37 3.79997 12 3.79997C14.63 3.79997 15 3.79997 16 3.85997C16.6348 3.86725 17.2637 3.98222 17.86 4.19997C18.3144 4.36862 18.7223 4.64282 19.05 4.99997C19.3777 5.30715 19.6338 5.6827 19.8 6.09997C20.0223 6.7089 20.1373 7.35175 20.14 7.99997C20.19 8.99997 20.2 9.36997 20.2 12C20.2 14.63 20.19 15 20.14 16ZM12 6.86997C10.9858 6.87195 9.99496 7.1745 9.15266 7.73939C8.31035 8.30428 7.65438 9.10617 7.26763 10.0437C6.88089 10.9813 6.78072 12.0124 6.97979 13.0069C7.17886 14.0014 7.66824 14.9145 8.38608 15.6309C9.10392 16.3474 10.018 16.835 11.0129 17.0321C12.0077 17.2293 13.0387 17.1271 13.9755 16.7385C14.9123 16.3499 15.7129 15.6924 16.2761 14.849C16.8394 14.0056 17.14 13.0142 17.14 12C17.1413 11.3251 17.0092 10.6566 16.7512 10.0329C16.4933 9.40928 16.1146 8.84278 15.6369 8.36602C15.1592 7.88926 14.592 7.51165 13.9678 7.2549C13.3436 6.99815 12.6749 6.86733 12 6.86997ZM12 15.33C11.3414 15.33 10.6976 15.1347 10.15 14.7688C9.60234 14.4029 9.17552 13.8828 8.92348 13.2743C8.67144 12.6658 8.6055 11.9963 8.73399 11.3503C8.86247 10.7044 9.17963 10.111 9.64534 9.6453C10.111 9.17959 10.7044 8.86244 11.3504 8.73395C11.9963 8.60547 12.6659 8.67141 13.2743 8.92345C13.8828 9.17549 14.4029 9.6023 14.7688 10.1499C15.1347 10.6975 15.33 11.3414 15.33 12C15.33 12.4373 15.2439 12.8703 15.0765 13.2743C14.9092 13.6783 14.6639 14.0454 14.3547 14.3546C14.0454 14.6639 13.6784 14.9091 13.2743 15.0765C12.8703 15.2438 12.4373 15.33 12 15.33Z" fill="#1A1A1A"/>
</svg>
