<svg width="24" height="24" viewBox="0 0 24 24" fill="none" xmlns="http://www.w3.org/2000/svg">
<path d="M12 21H8V9H12V11C12.8526 9.91525 14.1456 9.26857 15.525 9.237C18.0056 9.25077 20.0072 11.2694 20 13.75V21H16V14.25C15.84 13.1326 14.8818 12.3036 13.753 12.306C13.2593 12.3216 12.7932 12.5378 12.4624 12.9046C12.1316 13.2715 11.9646 13.7573 12 14.25V21ZM6 21H2V9H6V21ZM4 7C2.89543 7 2 6.10457 2 5C2 3.89543 2.89543 3 4 3C5.10457 3 6 3.89543 6 5C6 5.53043 5.78929 6.03914 5.41421 6.41421C5.03914 6.78929 4.53043 7 4 7Z" fill="white"/>
</svg>
