<svg width="31" height="43" viewBox="0 0 31 43" fill="none" xmlns="http://www.w3.org/2000/svg">
<path d="M14.2313 16.5657C15.0123 17.3467 16.2787 17.3467 17.0597 16.5657L29.7876 3.83777C30.5687 3.05673 30.5687 1.7904 29.7876 1.00935C29.0066 0.228299 27.7403 0.228299 26.9592 1.00935L15.6455 12.3231L4.3318 1.00935C3.55075 0.228299 2.28442 0.228299 1.50337 1.00935C0.722322 1.7904 0.722322 3.05673 1.50337 3.83777L14.2313 16.5657ZM13.6455 12.8828V15.1515H17.6455V12.8828H13.6455Z" fill="#C4C4C4"/>
<path d="M14.2313 42.2766C15.0123 43.0577 16.2787 43.0577 17.0597 42.2766L29.7876 29.5487C30.5687 28.7677 30.5687 27.5013 29.7876 26.7203C29.0066 25.9392 27.7403 25.9392 26.9592 26.7203L15.6455 38.034L4.3318 26.7203C3.55075 25.9392 2.28442 25.9392 1.50337 26.7203C0.722322 27.5013 0.722322 28.7677 1.50337 29.5487L14.2313 42.2766ZM13.6455 38.5938V40.8624H17.6455V38.5938H13.6455Z" fill="black"/>
</svg>
