<svg width="72" height="80" viewBox="0 0 72 80" fill="none" xmlns="http://www.w3.org/2000/svg">
<path d="M46 18.75C46 15.0389 49.0396 12 52.7907 12C56.5418 12 59.5814 15.0389 59.5814 18.75C59.5814 22.4611 56.5418 25.5 52.7907 25.5C49.0396 25.5 46 22.4611 46 18.75Z" stroke="black" stroke-width="4"/>
<path d="M51.7753 26.2918L51.7511 26.2648L51.1754 25.6314L49.8206 24.1411L48.3475 24.3338L47.446 24.4512L47.2323 24.4795L46.544 24.5693L44.3765 30.1694L47.7331 30.2234L49.9057 33.3333L52.3758 26.9522L51.7753 26.2918Z" fill="black"/>
<path d="M59.0369 24.5693L58.3487 24.4795L58.1349 24.4519L57.2334 24.3338L55.7603 24.1411L54.4055 25.6314L53.8298 26.2648L53.8056 26.2918L53.2051 26.9522L55.6752 33.3333L57.8478 30.2234L61.2044 30.1694L59.0369 24.5693Z" fill="black"/>
<mask id="path-4-inside-1" fill="white">
<rect width="72" height="80" rx="3"/>
</mask>
<rect width="72" height="80" rx="3" stroke="black" stroke-width="16" mask="url(#path-4-inside-1)"/>
</svg>
