<svg width="34" height="34" viewBox="0 0 34 34" fill="none" xmlns="http://www.w3.org/2000/svg">
<g clip-path="url(#clip0)">
<path d="M16.7977 10.1753C13.9823 10.1753 11.6914 12.4662 11.6914 15.2816C11.6914 18.097 13.9823 20.3879 16.7977 20.3879C19.6131 20.3879 21.904 18.097 21.904 15.2816C21.904 12.4662 19.6131 10.1753 16.7977 10.1753Z" fill="black"/>
<path d="M6.39648 15.4071C6.39648 9.67437 11.0652 5.00561 16.798 5.00561C22.5308 5.00561 27.1995 9.67437 27.1995 15.4071C27.1995 21.1399 22.5308 25.8086 16.798 25.8086C11.0652 25.8086 6.39648 21.1399 6.39648 15.4071Z" stroke="black" stroke-width="4.95311"/>
<path d="M15.5301 26.6652L15.4998 26.6374L14.7807 25.9868L13.0886 24.4558L11.2487 24.6538L10.1228 24.7744L9.85588 24.8034L8.99625 24.8957L6.28906 30.6486L10.4814 30.704L13.195 33.8987L16.2801 27.3436L15.5301 26.6652Z" fill="black"/>
<path d="M24.5993 24.8957L23.7396 24.8034L23.4727 24.7751L22.3468 24.6538L20.5069 24.4558L18.8148 25.9868L18.0957 26.6374L18.0654 26.6652L17.3154 27.3436L20.4005 33.8987L23.1141 30.704L27.3065 30.6486L24.5993 24.8957Z" fill="black"/>
</g>
<defs>
<clipPath id="clip0">
<rect width="33.0207" height="33.0207" fill="white" transform="translate(0.287109 0.87793)"/>
</clipPath>
</defs>
</svg>
