<svg width="22" height="27" viewBox="0 0 22 27" fill="none" xmlns="http://www.w3.org/2000/svg">
<path d="M13.1696 10.4764C14.7832 10.4764 16.2523 10.8015 17.5769 11.4518C18.9015 12.102 19.9492 13.0292 20.7198 14.2334C21.4905 15.4135 21.8758 16.7863 21.8758 18.3517C21.8758 20.0376 21.4544 21.5187 20.6115 22.7952C19.7685 24.0716 18.6125 25.059 17.1434 25.7574C15.6984 26.4318 14.0848 26.769 12.3026 26.769C8.7623 26.769 5.99268 25.6852 3.99373 23.5177C1.99479 21.3501 0.99532 18.2554 0.99532 14.2334C0.99532 11.3675 1.5372 8.91092 2.62097 6.86381C3.70473 4.8167 5.20996 3.26331 7.13665 2.20363C9.08743 1.14395 11.3392 0.614107 13.8921 0.614107C15.2408 0.614107 16.5293 0.77065 17.7575 1.08374C19.0099 1.37274 20.0696 1.7942 20.9366 2.34813L18.7691 6.64706C17.5167 5.80413 15.9392 5.38267 14.0366 5.38267C11.8932 5.38267 10.1953 6.00884 8.94293 7.2612C7.69058 8.51355 7.01623 10.3319 6.9199 12.7161C8.41309 11.223 10.4963 10.4764 13.1696 10.4764ZM11.9775 22.3978C13.2298 22.3978 14.2413 22.0606 15.012 21.3863C15.8068 20.7119 16.2041 19.7967 16.2041 18.6407C16.2041 17.4847 15.8068 16.5695 15.012 15.8952C14.2413 15.1968 13.2057 14.8475 11.9052 14.8475C10.6288 14.8475 9.58114 15.2088 8.7623 15.9313C7.94345 16.6297 7.53403 17.5329 7.53403 18.6407C7.53403 19.7486 7.93141 20.6517 8.72617 21.3501C9.52093 22.0486 10.6047 22.3978 11.9775 22.3978Z" fill="black"/>
</svg>
