<svg width="490" height="27" viewBox="0 0 490 27" fill="none" xmlns="http://www.w3.org/2000/svg">
<path d="M0.830078 13.3779L152.486 13.3779" stroke="#23C865" stroke-width="7.5"/>
<path d="M174.889 13.5146L327.486 13.5146" stroke="#D1D3D4" stroke-width="7.5"/>
<path d="M345.004 13.5146L489.486 13.5146" stroke="#D1D3D4" stroke-width="7.5"/>
<path d="M150.371 13.5144C150.371 10.9914 151.119 8.52503 152.521 6.42722C153.923 4.32941 155.916 2.69438 158.248 1.72886C160.579 0.763343 163.144 0.510716 165.619 1.00293C168.095 1.49515 170.368 2.7101 172.152 4.49414C173.937 6.27818 175.152 8.55118 175.644 11.0257C176.137 13.5003 175.884 16.0652 174.918 18.3961C173.953 20.7271 172.317 22.7194 170.219 24.1211C168.121 25.5228 165.654 26.271 163.13 26.271C159.748 26.2651 156.506 24.9192 154.115 22.5282C151.723 20.1371 150.377 16.8959 150.371 13.5144ZM167.517 13.5144C167.517 12.6469 167.26 11.7989 166.778 11.0776C166.296 10.3563 165.611 9.79414 164.809 9.46216C164.007 9.13019 163.125 9.04332 162.274 9.21256C161.423 9.3818 160.642 9.79954 160.028 10.413C159.415 11.0264 158.997 11.8079 158.828 12.6587C158.658 13.5095 158.745 14.3914 159.077 15.1929C159.409 15.9944 159.972 16.6794 160.693 17.1613C161.414 17.6433 162.263 17.9005 163.13 17.9005C164.294 17.9005 165.41 17.4384 166.232 16.6159C167.055 15.7933 167.517 14.6777 167.517 13.5144Z" fill="#23C865"/>
<path d="M323.486 13.5144C323.486 10.9914 324.235 8.52503 325.637 6.42722C327.039 4.32941 329.031 2.69438 331.363 1.72886C333.694 0.763343 336.26 0.510716 338.735 1.00293C341.21 1.49515 343.483 2.7101 345.268 4.49414C347.052 6.27818 348.267 8.55118 348.76 11.0257C349.252 13.5003 348.999 16.0652 348.033 18.3961C347.068 20.7271 345.432 22.7194 343.334 24.1211C341.236 25.5228 338.769 26.271 336.246 26.271C332.863 26.2651 329.621 24.9192 327.23 22.5282C324.838 20.1371 323.492 16.8959 323.486 13.5144ZM340.633 13.5144C340.633 12.6469 340.375 11.7989 339.893 11.0776C339.411 10.3563 338.726 9.79414 337.924 9.46216C337.123 9.13019 336.241 9.04332 335.39 9.21256C334.539 9.3818 333.757 9.79954 333.143 10.413C332.53 11.0264 332.112 11.8079 331.943 12.6587C331.774 13.5095 331.86 14.3914 332.192 15.1929C332.524 15.9944 333.087 16.6794 333.808 17.1613C334.53 17.6433 335.378 17.9005 336.246 17.9005C337.409 17.9005 338.525 17.4384 339.348 16.6159C340.17 15.7933 340.633 14.6777 340.633 13.5144Z" fill="#D1D3D4"/>
</svg>
