<svg width="22" height="18" viewBox="0 0 22 18" fill="none" xmlns="http://www.w3.org/2000/svg">
<path d="M8.492 0.679565L7.90625 0.750065C7.90625 0.750065 5.27825 1.03732 3.359 2.57857H3.3365L3.3125 2.60107C2.882 2.99707 2.6945 3.48382 2.39825 4.19557C2.04904 5.05189 1.75175 5.92848 1.508 6.82057C0.9515 8.83282 0.5 11.2703 0.5 13.5001V13.6876L0.59375 13.8751C1.28825 15.0938 2.52125 15.8701 3.66425 16.4063C4.8065 16.9426 5.79425 17.2268 6.47675 17.2501L6.92225 17.2733L7.15625 16.8751L7.97675 15.4216C8.84675 15.6181 9.84875 15.7501 11 15.7501C12.1512 15.7501 13.1532 15.6181 14.0233 15.4216L14.8438 16.8751L15.0785 17.2733L15.5233 17.2501C16.2058 17.2268 17.1935 16.9426 18.3358 16.4063C19.4788 15.8701 20.7118 15.0938 21.4062 13.8751L21.5 13.6876V13.5001C21.5 11.2703 21.0485 8.83282 20.492 6.82057C20.2483 5.92848 19.951 5.05189 19.6017 4.19557C19.3055 3.48307 19.118 2.99707 18.6875 2.60182L18.6642 2.57782H18.6403C16.7225 1.03732 14.0938 0.750065 14.0938 0.750065L13.508 0.679565L13.2965 1.21882C13.2965 1.21882 13.0798 1.76632 12.9455 2.39107C12.3007 2.3021 11.6509 2.25501 11 2.25007C10.5988 2.25007 9.905 2.27632 9.0545 2.39107C8.9195 1.76632 8.70275 1.21882 8.70275 1.21882L8.492 0.679565ZM7.46075 2.39107C7.493 2.49607 7.52525 2.58682 7.5545 2.67232C6.58475 2.91232 5.5505 3.27832 4.60175 3.86707L5.39825 5.13307C7.34375 3.92557 10.1383 3.75007 11 3.75007C11.861 3.75007 14.6562 3.92557 16.6017 5.13307L17.3983 3.86707C16.4495 3.27832 15.4152 2.91232 14.4455 2.67157C14.4747 2.58682 14.507 2.49607 14.5392 2.39032C15.239 2.53132 16.5755 2.85382 17.6795 3.72682C17.6735 3.72982 17.9608 4.16332 18.2188 4.78132C18.4827 5.41732 18.7752 6.26407 19.0392 7.21882C19.5462 9.04957 19.9445 11.2793 19.9767 13.2421C19.5042 13.9628 18.629 14.6131 17.7028 15.0473C17.1219 15.3218 16.5073 15.5185 15.875 15.6323L15.5 15.0001C15.7227 14.9176 15.9425 14.8276 16.133 14.7421C17.2873 14.2351 17.9142 13.6876 17.9142 13.6876L16.9295 12.5626C16.9295 12.5626 16.508 12.9496 15.5233 13.3831C14.54 13.8166 13.0363 14.2501 11 14.2501C8.96375 14.2501 7.46075 13.8166 6.47675 13.3831C5.492 12.9496 5.0705 12.5626 5.0705 12.5626L4.08575 13.6876C4.08575 13.6876 4.71275 14.2351 5.867 14.7421C6.0575 14.8276 6.27725 14.9183 6.5 15.0001L6.125 15.6331C5.49236 15.5188 4.87755 15.3216 4.2965 15.0466C3.371 14.6131 2.495 13.9628 2.024 13.2421C2.0555 11.2793 2.45375 9.04957 2.9615 7.21882C3.18586 6.39069 3.4596 5.57673 3.78125 4.78132C4.03925 4.16332 4.3265 3.72982 4.3205 3.72682C5.4245 2.85382 6.761 2.53132 7.46075 2.39107ZM8.375 7.50007C7.79525 7.50007 7.28225 7.83082 6.96875 8.25007C6.65525 8.66932 6.5 9.18457 6.5 9.75007C6.5 10.3156 6.65525 10.8308 6.96875 11.2501C7.28225 11.6693 7.79525 12.0001 8.375 12.0001C8.95475 12.0001 9.46775 11.6693 9.78125 11.2501C10.0948 10.8308 10.25 10.3156 10.25 9.75007C10.25 9.18457 10.0948 8.66932 9.78125 8.25007C9.46775 7.83082 8.95475 7.50007 8.375 7.50007ZM13.625 7.50007C13.0452 7.50007 12.5323 7.83082 12.2188 8.25007C11.9052 8.66932 11.75 9.18457 11.75 9.75007C11.75 10.3156 11.9052 10.8308 12.2188 11.2501C12.5323 11.6693 13.0452 12.0001 13.625 12.0001C14.2048 12.0001 14.7177 11.6693 15.0312 11.2501C15.3448 10.8308 15.5 10.3156 15.5 9.75007C15.5 9.18457 15.3448 8.66932 15.0312 8.25007C14.7177 7.83082 14.2048 7.50007 13.625 7.50007ZM8.375 9.00007C8.41625 9.00007 8.46875 9.01507 8.5625 9.14107C8.65625 9.26632 8.75 9.48607 8.75 9.75007C8.75 10.0141 8.65625 10.2338 8.5625 10.3598C8.46875 10.4851 8.41625 10.5001 8.375 10.5001C8.33375 10.5001 8.28125 10.4851 8.1875 10.3591C8.06347 10.1804 7.99796 9.96758 8 9.75007C8 9.48607 8.09375 9.26632 8.1875 9.14032C8.28125 9.01507 8.33375 9.00007 8.375 9.00007ZM13.625 9.00007C13.6663 9.00007 13.7188 9.01507 13.8125 9.14107C13.9062 9.26632 14 9.48607 14 9.75007C14 10.0141 13.9062 10.2338 13.8125 10.3598C13.7188 10.4851 13.6663 10.5001 13.625 10.5001C13.5837 10.5001 13.5312 10.4851 13.4375 10.3591C13.3135 10.1804 13.248 9.96758 13.25 9.75007C13.25 9.48607 13.3438 9.26632 13.4375 9.14032C13.5312 9.01507 13.5837 9.00007 13.625 9.00007Z" fill="white"/>
</svg>
