<svg width="20" height="19" viewBox="0 0 20 19" fill="none" xmlns="http://www.w3.org/2000/svg">
<path d="M18.5522 0.997032C18.3115 1.01455 18.0751 1.07103 17.8525 1.16428H17.8495C17.6357 1.24903 16.6195 1.67653 15.0745 2.32453L9.53797 4.65628C5.56522 6.32878 1.65997 7.97578 1.65997 7.97578L1.70647 7.95778C1.70647 7.95778 1.43722 8.04628 1.15597 8.23903C0.982219 8.3496 0.832703 8.49426 0.716473 8.66428C0.578473 8.86678 0.467473 9.17653 0.508723 9.49678C0.576223 10.0383 0.927223 10.363 1.17922 10.5423C1.43422 10.7238 1.67722 10.8085 1.67722 10.8085H1.68322L5.34547 12.0423C5.50972 12.5695 6.46147 15.6985 6.69022 16.4193C6.82522 16.8498 6.95647 17.119 7.12072 17.3245C7.20022 17.4295 7.29322 17.5173 7.40497 17.5878C7.46307 17.6216 7.52501 17.6483 7.58947 17.6673L7.55197 17.6583C7.56322 17.6613 7.57222 17.6703 7.58047 17.6733C7.61047 17.6815 7.63072 17.6845 7.66897 17.6905C8.24872 17.866 8.71447 17.506 8.71447 17.506L8.74072 17.485L10.903 15.5163L14.527 18.2965L14.6095 18.3318C15.3647 18.6633 16.1297 18.4788 16.534 18.1533C16.9412 17.8255 17.0995 17.4063 17.0995 17.4063L17.1257 17.3388L19.9262 2.99203C20.0057 2.63803 20.026 2.30653 19.9382 1.98478C19.8477 1.65915 19.6388 1.37909 19.3525 1.19953C19.112 1.05337 18.8332 0.982819 18.5522 0.997032ZM18.4765 2.53453C18.4735 2.58178 18.4825 2.57653 18.4615 2.66728V2.67553L15.6872 16.873C15.6752 16.8933 15.655 16.9375 15.5995 16.9818C15.541 17.0283 15.4945 17.0575 15.2507 16.9608L10.8182 13.5625L8.14072 16.003L8.70322 12.4105L15.9452 5.66053C16.2437 5.38303 16.144 5.32453 16.144 5.32453C16.165 4.98403 15.6932 5.22478 15.6932 5.22478L6.56122 10.882L6.55822 10.867L2.18122 9.39328V9.39028L2.16997 9.38803C2.17765 9.38548 2.18516 9.38248 2.19247 9.37903L2.21647 9.36703L2.23972 9.35878C2.23972 9.35878 6.14797 7.71178 10.1207 6.03928C12.1097 5.20153 14.1137 4.35778 15.655 3.70678C17.1962 3.05953 18.3355 2.58478 18.4 2.55928C18.4615 2.53528 18.4322 2.53528 18.4765 2.53528V2.53453Z" fill="white"/>
</svg>
