<svg width="24" height="24" viewBox="0 0 24 24" fill="none" xmlns="http://www.w3.org/2000/svg">
<path d="M12.0149 20.8005H11.9909C11.9165 20.8005 4.47908 20.7861 2.60263 20.2766C1.57079 19.9986 0.764971 19.1923 0.487581 18.1603C0.150153 16.2567 -0.0127889 14.3263 0.00078273 12.3931C-0.0079351 10.4567 0.159416 8.52352 0.50077 6.61744C0.785783 5.58451 1.58807 4.7745 2.61822 4.4796C4.44311 4 11.6755 4 11.9825 4H12.0077C12.0832 4 19.5398 4.01439 21.3971 4.52397C22.4268 4.80335 23.231 5.60799 23.5098 6.63782C23.8579 8.54849 24.0214 10.4882 23.9978 12.4302C24.0062 14.3643 23.8384 16.2951 23.4966 18.1987C23.2156 19.2294 22.4093 20.0339 21.3779 20.3125C19.5554 20.7957 12.3218 20.8005 12.0149 20.8005ZM9.61684 8.80203L9.61085 15.9961L15.8601 12.3991L9.61684 8.80203Z" fill="white"/>
</svg>
