<svg width="542" height="507" viewBox="0 0 542 507" fill="none" xmlns="http://www.w3.org/2000/svg">
<g clip-path="url(#clip0_1424_188)">
<path opacity="0.0416667" fill-rule="evenodd" clip-rule="evenodd" d="M295.734 188.57C334.035 173.098 369.457 161.881 398.422 155.679C418.515 151.376 435.441 149.499 448.044 150.261C454.347 150.642 459.51 151.68 463.431 153.365C467.343 155.046 469.953 157.34 471.293 160.212C472.632 163.084 472.712 166.558 471.484 170.636C470.255 174.722 467.731 179.345 463.972 184.417C456.454 194.562 444.137 206.322 427.925 218.948C404.555 237.15 373.194 257.074 336.722 276.469C330.849 261.986 324.372 247.101 317.333 232.005C310.293 216.908 303.054 202.379 295.734 188.57ZM295.224 187.609C386.8 150.604 462.055 137.841 472.273 159.755C482.492 181.668 424.342 231.113 337.13 277.478C374.136 369.054 386.898 444.309 364.985 454.527C343.072 464.745 293.627 406.596 247.262 319.384C155.686 356.39 80.4309 369.152 70.2126 347.239C59.9943 325.325 118.144 275.88 205.356 229.516C168.35 137.94 155.588 62.6846 177.501 52.4663C199.414 42.248 248.859 100.397 295.224 187.609ZM206.317 229.006C190.845 190.704 179.628 155.283 173.425 126.317C169.122 106.225 167.245 89.2983 168.007 76.6952C168.388 70.393 169.426 65.2298 171.111 61.309C172.792 57.3964 175.086 54.7864 177.958 53.4469C180.831 52.1075 184.305 52.028 188.382 53.2552C192.469 54.485 197.091 57.0088 202.164 60.7679C212.308 68.2853 224.068 80.6029 236.694 96.8144C254.896 120.184 274.82 151.546 294.216 188.018C279.733 193.89 264.847 200.367 249.751 207.407C234.655 214.446 220.125 221.686 206.317 229.006ZM206.725 230.014C220.544 222.686 235.091 215.437 250.208 208.387C265.326 201.338 280.229 194.855 294.726 188.978C302.054 202.798 309.303 217.345 316.352 232.462C323.402 247.579 329.885 262.483 335.761 276.979C321.942 284.307 307.395 291.557 292.278 298.606C277.16 305.655 262.257 312.139 247.76 318.015C240.432 304.195 233.183 289.649 226.134 274.531C219.084 259.414 212.601 244.511 206.725 230.014ZM205.764 230.524C169.292 249.919 137.931 269.844 114.561 288.045C98.3492 300.672 86.0315 312.432 78.5142 322.576C74.7551 327.649 72.2313 332.271 71.0015 336.357C69.7742 340.435 69.8538 343.909 71.1932 346.781C72.5327 349.654 75.1427 351.948 79.0553 353.629C82.976 355.313 88.1393 356.351 94.4415 356.732C107.045 357.494 123.971 355.618 144.064 351.315C173.029 345.112 208.451 333.895 246.752 318.423C239.432 304.615 232.193 290.085 225.153 274.989C218.114 259.892 211.637 245.007 205.764 230.524ZM248.27 318.976C267.666 355.448 287.59 386.809 305.792 410.179C318.418 426.39 330.178 438.708 340.322 446.225C345.395 449.985 350.017 452.508 354.104 453.738C358.181 454.965 361.655 454.886 364.528 453.546C367.4 452.207 369.694 449.597 371.375 445.684C373.06 441.764 374.097 436.6 374.478 430.298C375.24 417.695 373.364 400.769 369.061 380.676C362.858 351.711 351.641 316.289 336.169 277.988C322.361 285.307 307.831 292.547 292.735 299.587C277.639 306.626 262.753 313.103 248.27 318.976Z" fill="black"/>
<path opacity="0.0833333" fill-rule="evenodd" clip-rule="evenodd" d="M301.014 191.548C340.142 179.588 376.061 171.578 405.177 167.958C425.374 165.447 442.237 165.056 454.607 166.896C460.792 167.816 465.797 169.286 469.521 171.287C473.236 173.283 475.613 175.772 476.687 178.722C477.761 181.671 477.539 185.106 475.976 189.024C474.41 192.949 471.521 197.293 467.374 201.973C459.081 211.334 445.912 221.874 428.826 232.933C404.195 248.875 371.531 265.827 333.869 281.817C329.325 267.019 324.219 251.773 318.576 236.269C312.933 220.766 307.044 205.804 301.014 191.548ZM300.594 190.555C394.147 161.947 469.503 155.851 477.694 178.355C485.885 200.859 424.24 244.627 334.185 282.847C362.793 376.4 368.89 451.756 346.385 459.947C323.881 468.138 280.113 406.493 241.894 316.438C148.34 345.047 72.984 351.143 64.7932 328.639C56.6024 306.135 118.247 262.366 208.302 224.147C179.694 130.593 173.598 55.2372 196.102 47.0464C218.606 38.8556 262.374 100.5 300.594 190.555ZM209.294 223.726C197.335 184.599 189.325 148.68 185.705 119.564C183.194 99.3668 182.803 82.5034 184.643 70.1337C185.563 63.9482 187.033 58.9432 189.033 55.2199C191.03 51.5045 193.519 49.1271 196.468 48.0534C199.418 46.9798 202.853 47.2012 206.771 48.7642C210.696 50.3304 215.039 53.2196 219.72 57.3667C229.081 65.6598 239.621 78.829 250.68 95.9148C266.622 120.546 283.574 153.21 299.563 190.871C284.766 195.416 269.519 200.522 254.016 206.164C238.513 211.807 223.551 217.696 209.294 223.726ZM209.61 224.757C223.879 218.719 238.858 212.822 254.383 207.171C269.908 201.521 285.173 196.41 299.984 191.863C306.021 206.132 311.919 221.111 317.569 236.636C323.22 252.161 328.33 267.426 332.877 282.237C318.609 288.274 303.63 294.172 288.105 299.822C272.58 305.473 257.315 310.584 242.503 315.13C236.466 300.862 230.569 285.883 224.918 270.358C219.268 254.833 214.157 239.568 209.61 224.757ZM208.618 225.177C170.957 241.166 138.292 258.118 113.662 274.061C96.5758 285.119 83.4066 295.66 75.1135 305.02C70.9665 309.701 68.0772 314.044 66.511 317.97C64.9481 321.888 64.7266 325.322 65.8003 328.272C66.874 331.222 69.2513 333.711 72.9668 335.707C76.69 337.708 81.695 339.178 87.8806 340.098C100.25 341.937 117.114 341.547 137.311 339.036C166.426 335.416 202.346 327.406 241.473 315.446C235.443 301.189 229.554 286.228 223.911 270.724C218.268 255.221 213.163 239.974 208.618 225.177ZM242.924 316.122C258.913 353.784 275.865 386.448 291.808 411.079C302.866 428.165 313.407 441.334 322.767 449.627C327.448 453.774 331.791 456.663 335.717 458.23C339.634 459.792 343.069 460.014 346.019 458.94C348.969 457.867 351.458 455.489 353.454 451.774C355.455 448.051 356.924 443.046 357.844 436.86C359.684 424.49 359.294 407.627 356.783 387.43C353.163 358.314 345.153 322.395 333.193 283.267C318.936 289.297 303.975 295.187 288.471 300.829C272.968 306.472 257.721 311.578 242.924 316.122Z" fill="black"/>
<path opacity="0.125" fill-rule="evenodd" clip-rule="evenodd" d="M305.963 194.947C345.599 186.525 381.729 181.722 410.767 180.664C430.911 179.93 447.582 181 459.628 183.883C465.651 185.325 470.462 187.207 473.963 189.502C477.456 191.792 479.587 194.453 480.391 197.456C481.196 200.459 480.681 203.829 478.801 207.559C476.917 211.297 473.691 215.333 469.196 219.593C460.206 228.112 446.303 237.375 428.491 246.811C402.814 260.413 369.124 274.319 330.586 286.844C327.38 271.852 323.658 256.369 319.429 240.586C315.2 224.803 310.681 209.533 305.963 194.947ZM305.634 193.932C400.404 173.781 475.278 174.271 481.417 197.181C487.555 220.091 422.958 257.953 330.809 287.887C350.959 382.658 350.469 457.532 327.559 463.671C304.649 469.809 266.788 405.211 236.853 313.063C142.083 333.213 67.2086 332.723 61.0699 309.813C54.9313 286.903 119.529 249.042 211.678 219.107C191.528 124.336 192.018 49.4624 214.928 43.3238C237.837 37.1851 275.699 101.783 305.634 193.932ZM212.693 218.778C204.271 179.141 199.468 143.012 198.41 113.973C197.676 93.8297 198.746 77.1583 201.629 65.113C203.071 59.0896 204.953 54.2785 207.248 50.7778C209.539 47.2844 212.199 45.1537 215.202 44.349C218.205 43.5443 221.575 44.0592 225.305 45.9394C229.043 47.8235 233.079 51.049 237.339 55.5446C245.858 64.5347 255.121 78.4374 264.557 96.2492C278.16 121.926 292.065 155.617 304.59 194.154C289.598 197.361 274.115 201.082 258.332 205.311C242.549 209.54 227.279 214.059 212.693 218.778ZM212.915 219.821C227.514 215.097 242.802 210.571 258.607 206.336C274.412 202.101 289.914 198.377 304.919 195.169C309.644 209.768 314.169 225.056 318.404 240.86C322.639 256.665 326.364 272.167 329.571 287.173C314.972 291.898 299.685 296.423 283.88 300.658C268.075 304.893 252.573 308.618 237.568 311.825C232.843 297.226 228.317 281.939 224.082 266.134C219.848 250.329 216.123 234.827 212.915 219.821ZM211.9 220.151C173.363 232.675 139.673 246.581 113.995 260.184C96.1836 269.62 82.2809 278.882 73.2908 287.402C68.7952 291.662 65.5697 295.697 63.6856 299.435C61.8054 303.166 61.2905 306.535 62.0952 309.538C62.8999 312.541 65.0306 315.202 68.524 317.492C72.0247 319.787 76.8358 321.67 82.8592 323.111C94.9045 325.994 111.576 327.065 131.719 326.33C160.758 325.272 196.888 320.47 236.524 312.047C231.805 297.461 227.286 282.191 223.057 266.409C218.828 250.626 215.107 235.142 211.9 220.151ZM237.897 312.84C250.421 351.377 264.327 385.068 277.93 410.745C287.366 428.557 296.628 442.46 305.148 451.45C309.408 455.945 313.444 459.171 317.182 461.055C320.912 462.935 324.281 463.45 327.284 462.645C330.287 461.841 332.948 459.71 335.239 456.217C337.534 452.716 339.416 447.905 340.857 441.881C343.74 429.836 344.811 413.165 344.077 393.021C343.018 363.983 338.216 327.853 329.794 288.216C315.207 292.935 299.938 297.454 284.155 301.683C268.372 305.912 252.888 309.634 237.897 312.84Z" fill="black"/>
<path opacity="0.166667" fill-rule="evenodd" clip-rule="evenodd" d="M310.548 198.732C350.377 193.844 386.434 192.225 415.173 193.687C435.108 194.702 451.463 197.197 463.097 201.08C468.915 203.022 473.498 205.294 476.754 207.861C480.002 210.422 481.875 213.231 482.409 216.263C482.944 219.295 482.145 222.574 479.968 226.092C477.787 229.617 474.257 233.32 469.454 237.135C459.85 244.763 445.335 252.701 426.949 260.473C400.444 271.676 366.007 282.486 326.908 291.516C325.039 276.45 322.704 260.854 319.894 244.918C317.084 228.983 313.944 213.529 310.548 198.732ZM310.311 197.702C405.543 186.003 479.366 192.949 483.445 216.08C487.523 239.211 420.528 270.987 327.038 292.565C338.737 387.797 331.791 461.62 308.66 465.698C285.529 469.777 253.753 402.782 232.175 309.291C136.943 320.99 63.1203 314.045 59.0416 290.914C54.963 267.783 121.958 236.007 215.449 214.429C203.75 119.197 210.695 45.374 233.826 41.2954C256.957 37.2168 288.733 104.212 310.311 197.702ZM216.478 214.192C211.591 174.363 209.971 138.306 211.434 109.567C212.448 89.6318 214.943 73.2774 218.826 61.6432C220.769 55.8255 223.041 51.2416 225.607 47.9862C228.168 44.7375 230.977 42.8652 234.009 42.3306C237.041 41.7959 240.321 42.5947 243.838 44.7715C247.363 46.9529 251.066 50.4832 254.881 55.2859C262.509 64.8901 270.447 79.4049 278.219 97.7911C289.422 124.296 300.233 158.733 309.262 197.832C294.196 199.701 278.6 202.036 262.665 204.846C246.729 207.656 231.275 210.796 216.478 214.192ZM216.608 215.241C231.418 211.84 246.89 208.695 262.847 205.881C278.805 203.067 294.419 200.731 309.499 198.862C312.9 213.672 316.045 229.144 318.859 245.101C321.673 261.058 324.009 276.673 325.878 291.753C311.068 295.154 295.597 298.299 279.639 301.113C263.682 303.927 248.067 306.263 232.987 308.132C229.586 293.322 226.441 277.85 223.627 261.893C220.813 245.935 218.477 230.321 216.608 215.241ZM215.578 215.478C176.479 224.507 142.042 235.318 115.537 246.521C97.1512 254.293 82.6363 262.231 73.0321 269.859C68.2294 273.674 64.6991 277.377 62.5178 280.902C60.3409 284.42 59.5421 287.699 60.0768 290.731C60.6114 293.763 62.4838 296.572 65.7324 299.133C68.9878 301.699 73.5717 303.971 79.3895 305.914C91.0236 309.797 107.378 312.292 127.313 313.306C156.052 314.769 192.109 313.149 231.938 308.262C228.542 293.465 225.402 278.011 222.592 262.075C219.782 246.14 217.447 230.544 215.578 215.478ZM233.224 309.162C242.254 348.261 253.064 382.698 264.267 409.203C272.039 427.589 279.977 442.104 287.605 451.708C291.42 456.511 295.123 460.041 298.648 462.222C302.166 464.399 305.445 465.198 308.477 464.663C311.509 464.129 314.318 462.256 316.879 459.008C319.446 455.752 321.718 451.168 323.66 445.351C327.543 433.716 330.038 417.362 331.053 397.427C332.515 368.688 330.896 332.631 326.008 292.802C311.211 296.198 295.757 299.338 279.822 302.148C263.886 304.958 248.29 307.293 233.224 309.162Z" fill="black"/>
<path opacity="0.208333" fill-rule="evenodd" clip-rule="evenodd" d="M314.74 202.868C354.45 201.483 390.158 202.998 418.38 206.92C437.958 209.642 453.875 213.514 465.016 218.349C470.587 220.767 474.913 223.403 477.902 226.216C480.886 229.023 482.49 231.955 482.756 234.992C483.022 238.029 481.951 241.195 479.5 244.477C477.044 247.766 473.242 251.114 468.175 254.463C458.043 261.159 443.04 267.736 424.233 273.815C397.121 282.579 362.218 290.271 322.871 295.804C322.327 280.781 321.37 265.195 319.974 249.233C318.577 233.272 316.813 217.757 314.74 202.868ZM314.595 201.831C409.545 198.51 481.766 211.732 483.793 234.901C485.82 258.07 416.992 283.633 322.908 296.85C326.23 391.799 313.007 464.02 289.838 466.047C266.669 468.075 241.107 399.247 227.89 305.163C132.94 308.484 60.7189 295.262 58.6918 272.093C56.6648 248.924 125.493 223.361 219.577 210.144C216.255 115.195 229.478 42.9733 252.647 40.9463C275.816 38.9193 301.378 107.747 314.595 201.831ZM220.613 209.999C219.229 170.289 220.743 134.581 224.666 106.359C227.387 86.7816 231.259 70.8645 236.094 59.7234C238.512 54.1522 241.149 49.8267 243.962 46.8369C246.768 43.8534 249.7 42.2488 252.737 41.9831C255.774 41.7174 258.941 42.7884 262.223 45.2392C265.512 47.6952 268.86 51.4972 272.208 56.5639C278.904 66.6961 285.482 81.699 291.561 100.506C300.325 127.619 308.017 162.521 313.549 201.868C298.526 202.412 282.94 203.369 266.979 204.766C251.018 206.162 235.502 207.926 220.613 209.999ZM220.65 211.045C235.553 208.968 251.086 207.201 267.07 205.803C283.053 204.404 298.658 203.447 313.694 202.905C315.771 217.807 317.538 233.34 318.937 249.324C320.335 265.308 321.292 280.912 321.835 295.949C306.932 298.026 291.399 299.793 275.415 301.191C259.431 302.59 243.827 303.547 228.79 304.089C226.714 289.187 224.947 273.653 223.548 257.67C222.15 241.686 221.193 226.082 220.65 211.045ZM219.614 211.19C180.266 216.723 145.364 224.415 118.252 233.178C99.4446 239.258 84.4417 245.835 74.3094 252.531C69.2427 255.88 65.4408 259.228 62.9848 262.517C60.534 265.799 59.463 268.965 59.7287 272.002C59.9944 275.039 61.5989 277.971 64.5825 280.778C67.5722 283.59 71.8978 286.227 77.469 288.645C88.6101 293.48 104.527 297.352 124.104 300.073C152.327 303.996 188.034 305.51 227.745 304.126C225.672 289.237 223.908 273.722 222.511 257.76C221.115 241.799 220.158 226.213 219.614 211.19ZM228.936 305.125C234.468 344.473 242.16 379.375 250.924 406.487C257.003 425.295 263.581 440.298 270.277 450.43C273.625 455.497 276.973 459.299 280.262 461.755C283.544 464.205 286.71 465.276 289.747 465.011C292.785 464.745 295.717 463.14 298.523 460.157C301.336 457.167 303.973 452.842 306.39 447.27C311.225 436.129 315.098 420.212 317.819 400.635C321.741 372.413 323.256 336.705 321.872 296.995C306.982 299.068 291.467 300.832 275.506 302.228C259.544 303.624 243.959 304.582 228.936 305.125Z" fill="black"/>
<path opacity="0.25" fill-rule="evenodd" clip-rule="evenodd" d="M318.515 207.313C357.802 209.375 392.891 213.95 420.389 220.254C439.464 224.627 454.829 229.82 465.401 235.551C470.687 238.416 474.726 241.39 477.432 244.422C480.133 247.448 481.463 250.479 481.463 253.497C481.463 256.515 480.133 259.546 477.432 262.572C474.726 265.604 470.687 268.578 465.401 271.443C454.829 277.174 439.464 282.367 420.389 286.74C392.891 293.044 357.802 297.619 318.515 299.681C319.275 284.816 319.676 269.361 319.676 253.497C319.676 237.633 319.275 222.178 318.515 207.313ZM318.462 206.278C412.4 211.196 482.493 230.47 482.493 253.497C482.493 276.524 412.4 295.798 318.462 300.715C313.544 394.654 294.27 464.747 271.243 464.747C248.216 464.747 228.942 394.654 224.025 300.715C130.086 295.798 59.9932 276.524 59.9932 253.497C59.9932 230.47 130.086 211.196 224.025 206.278C228.942 112.34 248.216 42.2469 271.243 42.2469C294.27 42.2469 313.544 112.34 318.462 206.278ZM225.059 206.225C227.121 166.938 231.696 131.849 238 104.351C242.374 85.2761 247.566 69.9107 253.297 59.3391C256.162 54.0527 259.136 50.0138 262.168 47.3076C265.194 44.607 268.225 43.2774 271.243 43.2774C274.262 43.2774 277.292 44.607 280.318 47.3076C283.35 50.0138 286.324 54.0527 289.189 59.3391C294.92 69.9107 300.113 85.2761 304.486 104.351C310.79 131.849 315.365 166.938 317.427 206.225C302.562 205.465 287.107 205.064 271.243 205.064C255.379 205.064 239.924 205.465 225.059 206.225ZM225.006 207.26C239.884 206.497 255.357 206.095 271.243 206.095C287.129 206.095 302.603 206.497 317.481 207.26C318.243 222.138 318.646 237.611 318.646 253.497C318.646 269.383 318.243 284.856 317.481 299.734C302.603 300.497 287.129 300.899 271.243 300.899C255.357 300.899 239.884 300.497 225.006 299.734C224.243 284.856 223.841 269.383 223.841 253.497C223.841 237.611 224.243 222.138 225.006 207.26ZM223.971 207.313C184.684 209.375 149.595 213.95 122.097 220.254C103.022 224.627 87.6569 229.82 77.0853 235.551C71.7989 238.416 67.76 241.39 65.0538 244.422C62.3532 247.448 61.0237 250.479 61.0237 253.497C61.0237 256.515 62.3532 259.546 65.0538 262.572C67.76 265.604 71.7989 268.578 77.0853 271.443C87.6569 277.174 103.022 282.367 122.097 286.74C149.595 293.044 184.684 297.619 223.971 299.681C223.211 284.816 222.81 269.361 222.81 253.497C222.81 237.633 223.211 222.178 223.971 207.313ZM225.059 300.769C227.121 340.056 231.696 375.145 238 402.643C242.374 421.718 247.566 437.083 253.297 447.655C256.162 452.941 259.136 456.98 262.168 459.686C265.194 462.387 268.225 463.716 271.243 463.716C274.262 463.716 277.292 462.387 280.318 459.686C283.35 456.98 286.324 452.941 289.189 447.655C294.92 437.083 300.113 421.718 304.486 402.643C310.79 375.145 315.365 340.056 317.427 300.769C302.562 301.529 287.107 301.93 271.243 301.93C255.379 301.93 239.924 301.529 225.059 300.769Z" fill="black"/>
<path opacity="0.291667" fill-rule="evenodd" clip-rule="evenodd" d="M321.85 212.028C360.418 217.451 394.629 224.991 421.205 233.581C439.639 239.54 454.345 245.987 464.277 252.551C469.243 255.833 472.97 259.114 475.377 262.338C477.78 265.555 478.829 268.659 478.569 271.636C478.308 274.613 476.736 277.487 473.811 280.238C470.881 282.995 466.641 285.579 461.18 287.949C450.259 292.688 434.657 296.484 415.468 299.151C387.805 302.996 352.804 304.481 313.88 303.124C315.912 288.529 317.641 273.321 319.01 257.676C320.378 242.031 321.317 226.754 321.85 212.028ZM321.886 211.003C414.107 223.958 481.572 249.014 479.585 271.725C477.598 294.435 406.807 307.395 313.738 304.14C300.783 396.361 275.726 463.826 253.016 461.839C230.306 459.852 217.345 389.061 220.601 295.991C128.38 283.036 60.915 257.98 62.9019 235.27C64.8887 212.559 135.68 199.599 228.749 202.854C241.704 110.634 266.761 43.1685 289.471 45.1554C312.181 47.1423 325.142 117.933 321.886 211.003ZM229.774 202.891C235.197 164.323 242.737 130.111 251.327 103.536C257.286 85.1012 263.733 70.3954 270.297 60.4638C273.579 55.4974 276.861 51.7707 280.085 49.3634C283.302 46.9611 286.405 45.9113 289.382 46.1717C292.359 46.4322 295.233 48.0049 297.984 50.9294C300.741 53.8599 303.326 58.0998 305.696 63.5607C310.435 74.4812 314.23 90.0831 316.898 109.273C320.743 136.936 322.227 171.937 320.87 210.861C306.276 208.829 291.068 207.1 275.423 205.731C259.777 204.362 244.5 203.424 229.774 202.891ZM229.632 203.907C244.371 204.438 259.666 205.377 275.334 206.747C291.001 208.118 306.227 209.85 320.834 211.886C320.302 226.625 319.364 241.92 317.993 257.587C316.623 273.254 314.891 288.48 312.855 303.088C298.116 302.556 282.821 301.618 267.153 300.247C251.486 298.876 236.26 297.144 221.653 295.108C222.185 280.369 223.123 265.074 224.494 249.407C225.864 233.74 227.596 218.514 229.632 203.907ZM228.607 203.87C189.683 202.514 154.682 203.998 127.019 207.843C107.83 210.51 92.2277 214.306 81.3072 219.045C75.8463 221.415 71.6064 224 68.6758 226.756C65.7514 229.507 64.1786 232.382 63.9182 235.358C63.6577 238.335 64.7075 241.439 67.1098 244.656C69.5171 247.88 73.2438 251.161 78.2102 254.444C88.1418 261.007 102.848 267.454 121.282 273.413C147.858 282.004 182.069 289.543 220.637 294.966C221.17 280.241 222.109 264.963 223.477 249.318C224.846 233.673 226.575 218.465 228.607 203.87ZM221.617 296.133C220.26 335.057 221.744 370.058 225.589 397.721C228.257 416.911 232.052 432.513 236.791 443.433C239.161 448.894 241.746 453.134 244.503 456.065C247.254 458.989 250.128 460.562 253.105 460.822C256.082 461.083 259.185 460.033 262.402 457.631C265.626 455.223 268.908 451.497 272.19 446.53C278.754 436.599 285.201 421.893 291.16 403.458C299.75 376.883 307.29 342.672 312.713 304.103C297.987 303.57 282.71 302.632 267.065 301.263C251.419 299.894 236.211 298.166 221.617 296.133Z" fill="black"/>
<path opacity="0.333333" fill-rule="evenodd" clip-rule="evenodd" d="M324.725 216.968C362.291 225.644 395.377 236.03 420.843 246.794C438.508 254.261 452.453 261.888 461.681 269.217C466.295 272.882 469.687 276.44 471.783 279.827C473.874 283.206 474.642 286.357 474.128 289.271C473.615 292.184 471.816 294.882 468.694 297.343C465.567 299.809 461.163 301.992 455.573 303.857C444.395 307.589 428.682 309.986 409.528 310.96C381.917 312.365 347.274 310.809 309.006 306.113C312.269 291.897 315.286 277.049 317.986 261.738C320.686 246.428 322.929 231.444 324.725 216.968ZM324.849 215.961C414.674 236.692 479.041 267.222 475.123 289.446C471.204 311.67 400.277 318.343 308.779 307.103C288.047 396.927 257.517 461.295 235.293 457.376C213.07 453.458 206.396 382.53 217.636 291.032C127.812 270.3 63.4444 239.771 67.3631 217.547C71.2818 195.323 142.209 188.65 233.707 199.89C254.439 110.066 284.969 45.6979 307.192 49.6165C329.416 53.5352 336.09 124.463 324.849 215.961ZM234.715 200.014C243.39 162.449 253.777 129.362 264.541 103.897C272.008 86.2315 279.634 72.2859 286.964 63.0583C290.629 58.444 294.186 55.0521 297.573 52.9563C300.953 50.8649 304.104 50.0974 307.017 50.611C309.93 51.1247 312.629 52.9236 315.089 56.0449C317.555 59.1726 319.738 63.5768 321.604 69.1663C325.335 80.3443 327.732 96.0573 328.707 115.211C330.112 142.822 328.556 177.466 323.86 215.733C309.643 212.47 294.795 209.453 279.485 206.753C264.175 204.054 249.19 201.81 234.715 200.014ZM234.487 201.004C248.976 202.8 263.978 205.044 279.31 207.748C294.641 210.451 309.507 213.473 323.736 216.741C321.94 231.229 319.695 246.231 316.992 261.563C314.288 276.895 311.267 291.76 307.999 305.989C293.51 304.193 278.508 301.948 263.176 299.245C247.845 296.542 232.979 293.52 218.75 290.252C220.546 275.763 222.791 260.761 225.494 245.43C228.198 230.098 231.219 215.233 234.487 201.004ZM233.479 200.879C195.212 196.183 160.569 194.627 132.957 196.032C113.804 197.007 98.0909 199.404 86.9129 203.135C81.3233 205.001 76.9192 207.184 73.7915 209.65C70.6702 212.111 68.8713 214.809 68.3576 217.722C67.844 220.635 68.6114 223.786 70.7029 227.166C72.7987 230.553 76.1906 234.111 80.8049 237.776C90.0325 245.105 103.978 252.732 121.643 260.198C147.109 270.962 180.195 281.349 217.761 290.024C219.557 275.549 221.8 260.565 224.5 245.254C227.199 229.944 230.216 215.096 233.479 200.879ZM218.626 291.26C213.93 329.527 212.374 364.17 213.779 391.782C214.754 410.935 217.15 426.648 220.882 437.826C222.748 443.416 224.931 447.82 227.396 450.948C229.857 454.069 232.556 455.868 235.469 456.382C238.382 456.895 241.533 456.128 244.913 454.036C248.299 451.941 251.857 448.549 255.522 443.934C262.852 434.707 270.478 420.761 277.945 403.096C288.709 377.63 299.096 344.544 307.771 306.978C293.295 305.182 278.311 302.939 263.001 300.24C247.691 297.54 232.843 294.523 218.626 291.26Z" fill="black"/>
<path opacity="0.375" fill-rule="evenodd" clip-rule="evenodd" d="M327.128 222.093C363.421 233.888 395.149 246.984 419.33 259.794C436.104 268.68 449.197 277.404 457.664 285.427C461.897 289.439 464.935 293.239 466.709 296.759C468.48 300.272 468.965 303.446 468.207 306.274C467.449 309.102 465.443 311.608 462.153 313.764C458.856 315.926 454.325 317.698 448.653 319.056C437.309 321.771 421.609 322.779 402.639 322.088C375.292 321.091 341.267 316.568 303.939 308.637C308.383 294.9 312.639 280.52 316.622 265.656C320.604 250.793 324.109 236.211 327.128 222.093ZM327.338 221.11C414.119 249.301 474.954 284.957 469.173 306.532C463.392 328.108 392.879 328.569 303.629 309.593C275.438 396.374 239.782 457.209 218.207 451.427C196.632 445.646 196.17 375.134 215.147 285.884C128.366 257.693 67.531 222.037 73.3121 200.462C79.0932 178.887 149.606 178.425 238.856 197.401C267.047 110.621 302.702 49.7858 324.278 55.5669C345.853 61.348 346.314 131.86 327.338 221.11ZM239.838 197.611C251.633 161.319 264.729 129.591 277.539 105.409C286.426 88.6351 295.149 75.5422 303.172 67.0758C307.184 62.8421 310.984 59.8045 314.505 58.0302C318.018 56.2595 321.191 55.7746 324.019 56.5324C326.847 57.2902 329.353 59.2968 331.51 62.5867C333.671 65.8835 335.444 70.4143 336.801 76.0868C339.516 87.4305 340.524 103.131 339.833 122.101C338.836 149.448 334.314 183.473 326.382 220.8C312.645 216.356 298.265 212.101 283.402 208.118C268.538 204.135 253.957 200.631 239.838 197.611ZM239.528 198.567C253.66 201.588 268.259 205.095 283.143 209.084C298.027 213.072 312.424 217.334 326.173 221.783C323.152 235.915 319.644 250.514 315.656 265.398C311.668 280.282 307.406 294.679 302.956 308.427C288.825 305.407 274.226 301.899 259.342 297.911C244.458 293.923 230.061 289.661 216.312 285.211C219.333 271.08 222.841 256.481 226.829 241.597C230.817 226.712 235.079 212.315 239.528 198.567ZM238.546 198.358C201.218 190.426 167.193 185.903 139.846 184.907C120.876 184.215 105.176 185.223 93.8321 187.938C88.1596 189.296 83.6287 191.068 80.3319 193.23C77.042 195.387 75.0354 197.892 74.2776 200.721C73.5198 203.549 74.0048 206.722 75.7754 210.235C77.5498 213.755 80.5874 217.556 84.8211 221.568C93.2875 229.591 106.38 238.314 123.155 247.2C147.336 260.011 179.064 273.106 215.356 284.901C218.376 270.783 221.881 256.201 225.863 241.338C229.846 226.474 234.102 212.094 238.546 198.358ZM216.103 286.194C208.171 323.521 203.648 357.547 202.652 384.893C201.96 403.864 202.968 419.564 205.683 430.907C207.041 436.58 208.814 441.111 210.975 444.408C213.132 447.698 215.638 449.704 218.466 450.462C221.294 451.22 224.467 450.735 227.98 448.964C231.5 447.19 235.301 444.152 239.313 439.918C247.336 431.452 256.059 418.359 264.945 401.585C277.756 377.404 290.852 345.676 302.646 309.383C288.528 306.363 273.947 302.859 259.083 298.876C244.22 294.894 229.839 290.638 216.103 286.194Z" fill="black"/>
<path opacity="0.416667" fill-rule="evenodd" clip-rule="evenodd" d="M329.052 227.356C363.816 242.115 393.968 257.763 416.704 272.479C432.475 282.687 444.631 292.417 452.287 301.057C456.115 305.378 458.782 309.387 460.227 313.011C461.67 316.627 461.875 319.797 460.883 322.52C459.892 325.243 457.698 327.541 454.268 329.383C450.831 331.23 446.211 332.587 440.502 333.436C429.083 335.134 413.517 334.774 394.874 332.456C367.998 329.115 334.842 321.721 298.724 310.681C304.29 297.521 309.726 283.71 314.935 269.399C320.144 255.089 324.857 241.015 329.052 227.356ZM329.343 226.405C412.471 261.684 469.374 302.086 461.813 322.859C454.252 343.632 384.693 338.004 298.336 311.597C263.056 394.724 222.655 451.627 201.882 444.067C181.109 436.506 186.736 366.946 213.144 280.589C130.016 245.31 73.1129 204.908 80.6737 184.135C88.2345 163.362 157.794 168.99 244.151 195.397C279.431 112.269 319.832 55.3666 340.605 62.9273C361.378 70.4881 355.751 140.048 329.343 226.405ZM245.102 195.689C259.861 160.925 275.509 130.773 290.225 108.037C300.434 92.2651 310.163 80.1089 318.804 72.4537C323.124 68.6257 327.133 65.9587 330.757 64.5129C334.373 63.0702 337.544 62.8658 340.267 63.8569C342.99 64.848 345.287 67.0425 347.13 70.4721C348.976 73.909 350.333 78.5289 351.182 84.2387C352.881 95.6569 352.52 111.223 350.202 129.867C346.861 156.743 339.467 189.899 328.427 226.017C315.267 220.45 301.457 215.014 287.146 209.805C272.835 204.597 258.761 199.884 245.102 195.689ZM244.714 196.604C258.386 200.802 272.477 205.519 286.807 210.735C301.138 215.951 314.965 221.395 328.136 226.968C323.939 240.639 319.221 254.73 314.005 269.061C308.789 283.392 303.346 297.218 297.773 310.39C284.101 306.192 270.01 301.475 255.679 296.259C241.349 291.043 227.522 285.599 214.351 280.026C218.548 266.355 223.265 252.264 228.481 237.933C233.697 223.602 239.141 209.776 244.714 196.604ZM243.763 196.313C207.645 185.273 174.489 177.879 147.613 174.538C128.97 172.22 113.403 171.86 101.985 173.558C96.2753 174.407 91.6553 175.764 88.2185 177.611C84.7888 179.453 82.5944 181.751 81.6033 184.474C80.6122 187.197 80.8166 190.367 82.2593 193.983C83.7051 197.607 86.3721 201.616 90.2001 205.937C97.8553 214.577 110.011 224.307 125.783 234.515C148.519 249.231 178.671 264.879 213.435 279.638C217.63 265.979 222.343 251.905 227.552 237.595C232.76 223.284 238.197 209.473 243.763 196.313ZM214.059 280.977C203.02 317.095 195.626 350.251 192.284 377.127C189.966 395.771 189.606 411.337 191.304 422.755C192.153 428.465 193.51 433.085 195.357 436.522C197.2 439.951 199.497 442.146 202.22 443.137C204.943 444.128 208.113 443.924 211.73 442.481C215.353 441.035 219.362 438.368 223.683 434.54C232.324 426.885 242.053 414.729 252.261 398.957C266.977 376.221 282.625 346.069 297.385 311.305C283.726 307.11 269.652 302.397 255.341 297.189C241.03 291.98 227.219 286.544 214.059 280.977Z" fill="black"/>
<path opacity="0.458333" fill-rule="evenodd" clip-rule="evenodd" d="M330.487 232.712C363.486 250.26 391.86 268.287 413.004 284.755C427.672 296.179 438.817 306.819 445.618 315.997C449.019 320.587 451.302 324.769 452.415 328.466C453.526 332.155 453.454 335.298 452.242 337.897C451.03 340.496 448.668 342.572 445.128 344.092C441.581 345.616 436.91 346.556 431.208 346.9C419.805 347.59 404.49 345.892 386.311 341.999C360.105 336.387 328.056 326.238 293.403 312.24C300.025 299.746 306.576 286.6 312.945 272.942C319.314 259.283 325.174 245.815 330.487 232.712ZM330.857 231.8C409.763 273.749 462.374 318.485 453.129 338.311C443.884 358.137 375.796 346.59 292.941 313.109C250.992 392.015 206.256 444.627 186.43 435.381C166.604 426.136 178.151 358.048 211.632 275.194C132.726 233.245 80.1145 188.509 89.3596 168.683C98.6048 148.856 166.693 160.403 249.547 193.884C291.496 114.978 336.232 62.3669 356.058 71.6121C375.885 80.8572 364.338 148.945 330.857 231.8ZM250.459 194.254C268.008 161.255 286.035 132.881 302.503 111.737C313.926 97.069 324.566 85.9245 333.745 79.123C338.334 75.7219 342.516 73.4385 346.213 72.3259C349.903 71.2155 353.046 71.2874 355.645 72.4993C358.244 73.7112 360.319 76.0727 361.84 79.6126C363.364 83.16 364.303 87.8315 364.648 93.5335C365.337 104.936 363.639 120.251 359.746 138.43C354.134 164.636 343.986 196.685 329.987 231.338C317.494 224.716 304.348 218.165 290.689 211.796C277.031 205.427 263.563 199.567 250.459 194.254ZM249.998 195.123C263.114 200.44 276.598 206.306 290.276 212.684C303.953 219.062 317.114 225.621 329.618 232.25C324.301 245.366 318.435 258.851 312.057 272.528C305.679 286.206 299.12 299.367 292.491 311.871C279.375 306.554 265.89 300.688 252.213 294.31C238.535 287.932 225.374 281.373 212.87 274.743C218.187 261.627 224.053 248.143 230.431 234.465C236.809 220.788 243.368 207.627 249.998 195.123ZM249.086 194.754C214.432 180.755 182.384 170.607 156.177 164.995C137.998 161.102 122.684 159.404 111.281 160.093C105.579 160.438 100.908 161.377 97.3602 162.901C93.8202 164.422 91.4587 166.497 90.2469 169.096C89.035 171.695 88.963 174.838 90.0734 178.528C91.1861 182.225 93.4695 186.407 96.8706 190.996C103.672 200.175 114.817 210.815 129.484 222.238C150.628 238.706 179.003 256.733 212.001 274.281C217.315 261.178 223.175 247.71 229.544 234.052C235.913 220.393 242.463 207.247 249.086 194.754ZM212.501 275.655C198.503 310.309 188.354 342.357 182.742 368.564C178.849 386.743 177.151 402.057 177.841 413.46C178.185 419.162 179.124 423.833 180.649 427.381C182.169 430.921 184.245 433.282 186.844 434.494C189.443 435.706 192.586 435.778 196.275 434.668C199.972 433.555 204.154 431.271 208.744 427.87C217.922 421.069 228.562 409.924 239.986 395.257C256.454 374.113 274.481 345.738 292.029 312.74C278.925 307.426 265.458 301.566 251.799 295.197C238.14 288.828 224.995 282.278 212.501 275.655Z" fill="black"/>
<path opacity="0.5" fill-rule="evenodd" clip-rule="evenodd" d="M331.433 238.119C362.446 258.262 388.86 278.478 408.282 296.534C421.755 309.06 431.823 320.509 437.736 330.142C440.692 334.96 442.582 339.279 443.36 343.019C444.137 346.752 443.795 349.843 442.376 352.301C440.957 354.758 438.451 356.6 434.83 357.794C431.202 358.99 426.516 359.513 420.866 359.361C409.567 359.057 394.618 356.063 377.034 350.658C351.686 342.866 320.971 330.099 288.02 313.312C295.625 301.568 303.215 289.175 310.671 276.261C318.127 263.347 325.065 250.577 331.433 238.119ZM331.875 237.251C406.036 285.405 454.038 334.039 443.215 352.785C432.392 371.531 366.273 354.277 287.49 314.129C239.336 388.29 190.702 436.291 171.956 425.468C153.211 414.646 170.464 348.527 210.612 269.744C136.452 221.59 88.45 172.956 99.2729 154.21C110.096 135.464 176.215 152.718 254.998 192.866C303.152 118.705 351.786 70.7037 370.531 81.5265C389.277 92.3493 372.023 158.468 331.875 237.251ZM255.865 193.309C276.008 162.295 296.224 135.881 314.281 116.459C326.806 102.986 338.255 92.9185 347.889 87.0058C352.706 84.0491 357.025 82.159 360.765 81.3811C364.498 80.6048 367.59 80.9467 370.047 82.3654C372.504 83.7841 374.346 86.2908 375.54 89.9113C376.737 93.5394 377.259 98.2251 377.107 103.875C376.804 115.175 373.809 130.124 368.404 147.707C360.612 173.055 347.845 203.77 331.058 236.721C319.315 229.116 306.921 221.526 294.007 214.07C281.093 206.614 268.323 199.676 255.865 193.309ZM255.335 194.126C267.805 200.498 280.591 207.443 293.523 214.909C306.455 222.375 318.862 229.975 330.616 237.589C324.244 250.059 317.299 262.845 309.832 275.777C302.366 288.709 294.766 301.116 287.152 312.869C274.682 306.497 261.897 299.552 248.965 292.086C236.033 284.62 223.625 277.02 211.872 269.406C218.244 256.936 225.189 244.15 232.655 231.218C240.122 218.286 247.722 205.879 255.335 194.126ZM254.468 193.683C221.517 176.896 190.802 164.129 165.454 156.337C147.87 150.932 132.921 147.938 121.622 147.634C115.971 147.482 111.286 148.005 107.658 149.201C104.037 150.395 101.53 152.237 100.112 154.694C98.6931 157.152 98.3511 160.244 99.1274 163.976C99.9054 167.716 101.795 172.035 104.752 176.853C110.665 186.486 120.733 197.935 134.205 210.461C153.627 228.517 180.042 248.733 211.055 268.876C217.423 256.418 224.36 243.648 231.816 230.734C239.272 217.82 246.863 205.427 254.468 193.683ZM211.429 270.274C194.643 303.225 181.875 333.94 174.083 359.288C168.678 376.871 165.684 391.82 165.38 403.12C165.228 408.77 165.751 413.456 166.947 417.084C168.141 420.704 169.983 423.211 172.441 424.63C174.898 426.048 177.99 426.39 181.722 425.614C185.462 424.836 189.782 422.946 194.599 419.989C204.233 414.076 215.682 404.009 228.207 390.536C246.263 371.114 266.479 344.7 286.623 313.686C274.164 307.319 261.394 300.381 248.48 292.925C235.566 285.469 223.173 277.879 211.429 270.274Z" fill="black"/>
<path opacity="0.541667" fill-rule="evenodd" clip-rule="evenodd" d="M331.89 243.53C360.72 266.057 385.011 288.26 402.596 307.731C414.795 321.237 423.73 333.39 428.727 343.394C431.226 348.397 432.716 352.817 433.161 356.571C433.604 360.316 433 363.334 431.39 365.634C429.78 367.933 427.15 369.533 423.479 370.397C419.8 371.264 415.137 371.375 409.581 370.738C398.471 369.464 383.995 365.224 367.131 358.38C342.82 348.515 313.648 333.283 282.619 313.897C291.127 302.978 299.677 291.418 308.139 279.333C316.601 267.247 324.54 255.26 331.89 243.53ZM332.402 242.713C401.342 296.569 444.458 348.641 432.175 366.184C419.892 383.726 356.213 361.02 282.026 314.656C228.171 383.597 176.099 426.713 158.556 414.43C141.014 402.147 163.72 338.468 210.083 264.281C141.143 210.426 98.0265 158.353 110.31 140.811C122.593 123.269 186.272 145.975 260.458 192.338C314.314 123.398 366.386 80.2813 383.929 92.5646C401.471 104.848 378.765 168.527 332.402 242.713ZM261.275 192.849C283.803 164.02 306.005 139.729 325.476 122.144C338.983 109.945 351.135 101.009 361.14 96.0126C366.142 93.5138 370.563 92.0234 374.316 91.5791C378.062 91.1358 381.08 91.7395 383.379 93.3496C385.679 94.9597 387.278 97.5892 388.142 101.261C389.009 104.94 389.12 109.603 388.483 115.159C387.209 126.269 382.969 140.744 376.126 157.609C366.26 181.92 351.028 211.092 331.642 242.121C320.723 233.612 309.163 225.063 297.078 216.601C284.993 208.138 273.005 200.199 261.275 192.849ZM260.683 193.609C272.423 200.964 284.426 208.912 296.528 217.386C308.63 225.859 320.203 234.42 331.131 242.937C323.776 254.678 315.828 266.681 307.354 278.783C298.88 290.885 290.32 302.458 281.802 313.386C270.061 306.03 258.059 298.083 245.957 289.609C233.855 281.135 222.281 272.574 211.354 264.057C218.709 252.316 226.657 240.314 235.131 228.212C243.605 216.11 252.165 204.536 260.683 193.609ZM259.866 193.098C228.837 173.712 199.665 158.479 175.354 148.614C158.49 141.771 144.014 137.53 132.904 136.257C127.348 135.62 122.685 135.731 119.006 136.597C115.334 137.462 112.705 139.061 111.095 141.361C109.485 143.66 108.881 146.678 109.324 150.424C109.769 154.177 111.259 158.597 113.758 163.6C118.755 173.605 127.69 185.757 139.889 199.264C157.474 218.735 181.765 240.937 210.594 263.464C217.945 251.735 225.884 239.747 234.346 227.662C242.808 215.577 251.358 204.016 259.866 193.098ZM210.843 264.874C191.457 295.903 176.225 325.075 166.359 349.386C159.516 366.25 155.276 380.726 154.002 391.836C153.365 397.392 153.476 402.055 154.342 405.734C155.207 409.405 156.806 412.035 159.106 413.645C161.405 415.255 164.423 415.859 168.169 415.415C171.922 414.971 176.342 413.481 181.345 410.982C191.35 405.985 203.502 397.05 217.009 384.851C236.48 367.266 258.682 342.975 281.21 314.145C269.48 306.795 257.492 298.856 245.407 290.394C233.322 281.932 221.762 273.382 210.843 264.874Z" fill="black"/>
<path opacity="0.583333" fill-rule="evenodd" clip-rule="evenodd" d="M331.87 248.903C358.339 273.589 380.363 297.564 396.014 318.268C406.871 332.63 414.63 345.377 418.691 355.667C420.722 360.812 421.81 365.297 421.924 369.034C422.038 372.764 421.183 375.686 419.398 377.813C417.613 379.94 414.884 381.29 411.191 381.825C407.491 382.362 402.886 382.069 397.466 380.963C386.626 378.749 372.727 373.323 356.697 365.125C333.59 353.306 306.155 335.78 277.248 314C286.574 303.973 295.996 293.318 305.377 282.138C314.758 270.958 323.616 259.829 331.87 248.903ZM332.445 248.142C395.741 307.16 433.742 362.194 420.124 378.422C406.507 394.651 345.71 366.784 276.598 314.698C217.58 377.994 162.546 415.995 146.318 402.377C130.089 388.76 157.956 327.963 210.042 258.851C146.746 199.834 108.745 144.799 122.363 128.571C135.98 112.342 196.777 140.209 265.889 192.295C324.907 128.999 379.941 90.9983 396.169 104.616C412.398 118.233 384.531 179.03 332.445 248.142ZM266.65 192.87C291.336 166.401 315.311 144.377 336.015 128.726C350.377 117.869 363.124 110.111 373.414 106.049C378.559 104.018 383.044 102.93 386.781 102.816C390.511 102.702 393.433 103.557 395.56 105.342C397.687 107.127 399.037 109.856 399.572 113.549C400.109 117.249 399.816 121.854 398.71 127.275C396.496 138.114 391.07 152.014 382.871 168.043C371.053 191.151 353.527 218.585 331.747 247.493C321.72 238.166 311.065 228.744 299.885 219.363C288.705 209.982 277.576 201.124 266.65 192.87ZM266 193.567C276.937 201.828 288.08 210.695 299.276 220.089C310.471 229.484 321.139 238.918 331.173 248.253C322.912 259.19 314.045 270.333 304.651 281.529C295.257 292.724 285.822 303.392 276.487 313.426C265.55 305.165 254.407 296.298 243.211 286.904C232.016 277.51 221.348 268.075 211.314 258.74C219.575 247.803 228.442 236.66 237.836 225.464C247.23 214.269 256.665 203.602 266 193.567ZM265.24 192.993C236.332 171.213 208.898 153.687 185.79 141.869C169.76 133.671 155.861 128.244 145.022 126.031C139.601 124.924 134.996 124.631 131.296 125.168C127.603 125.703 124.874 127.053 123.089 129.18C121.304 131.307 120.449 134.23 120.563 137.959C120.677 141.696 121.765 146.181 123.796 151.326C127.858 161.617 135.616 174.363 146.473 188.725C162.124 209.43 184.148 233.404 210.617 258.09C218.871 247.165 227.729 236.035 237.11 224.855C246.491 213.675 255.913 203.02 265.24 192.993ZM210.74 259.501C188.96 288.408 171.434 315.843 159.616 338.95C151.418 354.98 145.991 368.879 143.778 379.719C142.671 385.139 142.378 389.744 142.915 393.444C143.45 397.137 144.8 399.866 146.927 401.651C149.054 403.436 151.977 404.291 155.706 404.177C159.443 404.063 163.928 402.975 169.073 400.944C179.363 396.883 192.11 389.125 206.472 378.267C227.176 362.616 251.151 340.592 275.837 314.123C264.912 305.869 253.782 297.011 242.602 287.63C231.422 278.249 220.767 268.827 210.74 259.501Z" fill="black"/>
<path opacity="0.625" fill-rule="evenodd" clip-rule="evenodd" d="M331.38 254.197C355.333 280.804 374.968 306.326 388.606 328.077C398.066 343.165 404.611 356.394 407.726 366.883C409.284 372.129 409.969 376.641 409.76 380.334C409.55 384.018 408.456 386.824 406.514 388.766C404.571 390.709 401.766 391.803 398.081 392.012C394.389 392.222 389.876 391.537 384.631 389.979C374.141 386.864 360.912 380.318 345.824 370.858C324.073 357.221 298.551 337.586 271.945 313.633C281.999 304.557 292.201 294.87 302.409 284.662C312.617 274.454 322.304 264.251 331.38 254.197ZM332.011 253.497C389.294 317.107 421.994 374.612 407.177 389.429C392.359 404.247 334.855 371.546 271.244 314.264C207.634 371.546 150.129 404.247 135.312 389.429C120.495 374.612 153.195 317.107 210.477 253.497C153.195 189.886 120.495 132.382 135.312 117.564C150.129 102.747 207.634 135.448 271.244 192.73C334.855 135.448 392.359 102.747 407.177 117.564C421.994 132.382 389.294 189.886 332.011 253.497ZM271.945 193.361C298.551 169.408 324.073 149.773 345.824 136.136C360.912 126.676 374.141 120.13 384.631 117.015C389.876 115.457 394.389 114.772 398.081 114.982C401.766 115.191 404.571 116.285 406.514 118.228C408.456 120.17 409.55 122.975 409.76 126.66C409.969 130.353 409.284 134.865 407.726 140.111C404.611 150.6 398.066 163.829 388.606 178.917C374.968 200.668 355.333 226.19 331.38 252.797C322.304 242.743 312.617 232.54 302.409 222.332C292.201 212.124 281.999 202.437 271.945 193.361ZM271.244 193.992C281.308 203.075 291.524 212.773 301.746 222.995C311.968 233.217 321.666 243.433 330.749 253.497C321.666 263.561 311.968 273.777 301.746 283.999C291.524 294.221 281.308 303.919 271.244 313.001C261.18 303.919 250.964 294.221 240.742 283.999C230.52 273.777 220.823 263.561 211.74 253.497C220.823 243.433 230.52 233.217 240.742 222.995C250.964 212.773 261.18 203.075 271.244 193.992ZM270.544 193.361C243.938 169.408 218.415 149.773 196.664 136.136C181.576 126.676 168.348 120.13 157.858 117.015C152.612 115.457 148.1 114.772 144.408 114.982C140.723 115.191 137.917 116.285 135.975 118.228C134.033 120.17 132.938 122.975 132.729 126.66C132.519 130.353 133.204 134.865 134.762 140.111C137.877 150.6 144.423 163.829 153.883 178.917C167.52 200.668 187.155 226.19 211.109 252.797C220.184 242.743 229.871 232.54 240.079 222.332C250.287 212.124 260.49 202.437 270.544 193.361ZM211.109 254.197C187.155 280.804 167.52 306.326 153.883 328.077C144.423 343.165 137.877 356.394 134.762 366.883C133.204 372.129 132.519 376.641 132.729 380.334C132.938 384.018 134.033 386.824 135.975 388.766C137.917 390.709 140.723 391.803 144.407 392.012C148.1 392.222 152.612 391.537 157.858 389.979C168.348 386.864 181.576 380.318 196.664 370.858C218.415 357.221 243.938 337.586 270.544 313.633C260.49 304.557 250.287 294.87 240.079 284.662C229.871 274.454 220.184 264.251 211.109 254.197Z" fill="black"/>
<path opacity="0.666667" fill-rule="evenodd" clip-rule="evenodd" d="M330.433 259.37C351.739 287.649 368.884 314.487 380.446 337.092C388.465 352.773 393.774 366.371 395.939 376.974C397.022 382.277 397.308 386.782 396.783 390.402C396.259 394.014 394.939 396.684 392.858 398.43C390.777 400.176 387.919 401.013 384.27 400.901C380.614 400.79 376.227 399.726 371.193 397.739C361.127 393.765 348.658 386.176 334.608 375.555C314.353 360.244 290.9 338.699 266.751 312.805C277.439 304.73 288.326 296.065 299.263 286.888C310.2 277.711 320.624 268.493 330.433 259.37ZM331.115 258.734C382.069 326.344 409.33 385.819 393.454 399.141C377.578 412.462 323.741 375.287 266.006 313.367C198.397 364.321 138.922 391.582 125.6 375.706C112.279 359.831 149.454 305.993 211.374 248.258C160.42 180.649 133.158 121.174 149.034 107.852C164.91 94.5308 218.748 131.706 276.482 193.626C344.092 142.672 403.567 115.411 416.889 131.286C430.21 147.162 393.035 201 331.115 258.734ZM277.118 194.308C305.397 173.002 332.235 155.856 354.84 144.295C370.521 136.275 384.119 130.966 394.722 128.801C400.025 127.719 404.53 127.433 408.15 127.958C411.762 128.481 414.432 129.802 416.178 131.883C417.924 133.964 418.761 136.822 418.649 140.471C418.538 144.126 417.474 148.513 415.487 153.547C411.513 163.614 403.924 176.083 393.303 190.133C377.992 210.387 356.447 233.841 330.553 257.99C322.478 247.302 313.813 236.415 304.636 225.478C295.459 214.54 286.241 204.117 277.118 194.308ZM276.374 194.87C285.506 204.686 294.735 215.121 303.925 226.074C313.116 237.026 321.79 247.927 329.871 258.626C320.055 267.758 309.619 276.987 298.667 286.178C287.715 295.368 276.814 304.042 266.115 312.123C256.982 302.307 247.753 291.872 238.563 280.919C229.373 269.967 220.699 259.066 212.618 248.367C222.434 239.234 232.869 230.005 243.822 220.815C254.774 211.625 265.675 202.951 276.374 194.87ZM275.738 194.187C251.589 168.294 228.135 146.749 207.881 131.438C193.831 120.817 181.362 113.228 171.295 109.254C166.261 107.267 161.874 106.203 158.218 106.091C154.57 105.98 151.712 106.816 149.63 108.563C147.549 110.309 146.229 112.979 145.705 116.591C145.181 120.211 145.467 124.716 146.549 130.018C148.714 140.622 154.023 154.22 162.043 169.9C173.604 192.506 190.749 219.344 212.056 247.623C221.865 238.5 232.288 229.282 243.225 220.105C254.163 210.928 265.05 202.263 275.738 194.187ZM211.935 249.003C186.042 273.152 164.497 296.605 149.186 316.86C138.565 330.91 130.975 343.379 127.002 353.446C125.015 358.479 123.951 362.866 123.839 366.522C123.728 370.171 124.564 373.029 126.311 375.11C128.057 377.191 130.727 378.512 134.339 379.035C137.959 379.56 142.464 379.274 147.766 378.191C158.37 376.026 171.967 370.718 187.648 362.698C210.254 351.136 237.092 333.991 265.371 312.685C256.247 302.876 247.03 292.452 237.853 281.515C228.675 270.578 220.011 259.691 211.935 249.003Z" fill="black"/>
<path opacity="0.708333" fill-rule="evenodd" clip-rule="evenodd" d="M329.046 264.384C347.598 294.079 362.175 321.996 371.616 345.261C378.166 361.4 382.223 375.253 383.442 385.885C384.052 391.202 383.945 395.665 383.116 399.186C382.289 402.699 380.758 405.216 378.558 406.756C376.357 408.297 373.469 408.875 369.885 408.451C366.293 408.026 362.063 406.599 357.275 404.208C347.701 399.426 336.071 390.875 323.145 379.201C304.512 362.372 283.264 339.126 261.706 311.536C272.931 304.502 284.403 296.905 295.969 288.807C307.534 280.709 318.597 272.527 329.046 264.384ZM329.773 263.817C374.142 334.813 395.872 395.753 379.084 407.508C362.296 419.263 312.463 378.001 260.924 312.026C189.929 356.395 128.989 378.124 117.234 361.336C105.479 344.549 146.741 294.716 212.716 243.177C168.347 172.181 146.617 111.241 163.405 99.4861C180.193 87.7311 230.026 128.993 281.565 194.968C352.56 150.599 413.5 128.869 425.255 145.657C437.01 162.445 395.748 212.278 329.773 263.817ZM282.132 195.695C311.826 177.143 339.743 162.566 363.009 153.125C379.148 146.576 393.001 142.518 403.633 141.299C408.95 140.689 413.413 140.796 416.933 141.625C420.447 142.452 422.963 143.983 424.504 146.183C426.045 148.384 426.623 151.272 426.198 154.857C425.773 158.449 424.347 162.679 421.956 167.466C417.174 177.041 408.622 188.67 396.948 201.596C380.12 220.229 356.874 241.477 329.284 263.035C322.25 251.81 314.652 240.338 306.554 228.773C298.456 217.207 290.274 206.144 282.132 195.695ZM281.35 196.184C289.501 206.642 297.693 217.717 305.803 229.299C313.912 240.88 321.518 252.367 328.557 263.603C318.1 271.754 307.024 279.946 295.443 288.055C283.861 296.165 272.375 303.77 261.139 310.809C252.988 300.352 244.795 289.277 236.686 277.695C228.576 266.114 220.971 254.627 213.932 243.391C224.389 235.24 235.465 227.048 247.046 218.938C258.628 210.829 270.114 203.223 281.35 196.184ZM280.783 195.457C259.225 167.868 237.977 144.622 219.343 127.793C206.418 116.119 194.788 107.568 185.214 102.786C180.426 100.395 176.196 98.9682 172.604 98.543C169.02 98.1188 166.131 98.6965 163.931 100.237C161.73 101.778 160.2 104.295 159.372 107.808C158.543 111.329 158.437 115.792 159.046 121.108C160.265 131.741 164.323 145.594 170.872 161.733C180.313 184.998 194.89 212.915 213.443 242.609C223.892 234.467 234.955 226.285 246.52 218.187C258.086 210.089 269.558 202.492 280.783 195.457ZM213.205 243.958C185.615 265.517 162.369 286.764 145.54 305.398C133.866 318.324 125.315 329.953 120.533 339.527C118.142 344.315 116.716 348.545 116.291 352.137C115.866 355.722 116.444 358.61 117.985 360.81C119.526 363.011 122.042 364.542 125.556 365.369C129.076 366.198 133.539 366.304 138.856 365.695C149.488 364.476 163.341 360.418 179.48 353.869C202.746 344.428 230.663 329.851 260.357 311.299C252.215 300.849 244.033 289.786 235.935 278.221C227.836 266.656 220.239 255.183 213.205 243.958Z" fill="black"/>
<path opacity="0.75" fill-rule="evenodd" clip-rule="evenodd" d="M327.24 269.202C342.955 300.05 354.908 328.805 362.202 352.535C367.262 368.996 370.065 382.991 370.35 393.569C370.492 398.859 370.003 403.245 368.883 406.642C367.765 410.031 366.04 412.378 363.74 413.706C361.44 415.034 358.545 415.354 355.051 414.627C351.549 413.899 347.506 412.13 342.996 409.362C333.977 403.826 323.259 394.401 311.533 381.788C294.63 363.606 275.704 338.878 256.846 309.844C268.509 303.883 280.464 297.388 292.554 290.408C304.644 283.428 316.246 276.322 327.24 269.202ZM328.005 268.706C365.59 342.461 381.743 404.359 364.193 414.491C346.644 424.623 301.115 379.686 256.034 310.259C182.28 347.844 120.381 363.996 110.249 346.447C100.117 328.898 145.055 283.368 214.482 238.288C176.897 164.534 160.744 102.635 178.293 92.503C195.843 82.371 241.372 127.309 286.453 196.736C360.207 159.15 422.106 142.998 432.238 160.547C442.37 178.096 397.432 223.626 328.005 268.706ZM286.949 197.501C317.797 181.785 346.551 169.833 370.281 162.538C386.742 157.478 400.737 154.675 411.315 154.391C416.605 154.249 420.991 154.738 424.388 155.858C427.777 156.976 430.124 158.7 431.452 161.001C432.78 163.301 433.1 166.196 432.374 169.69C431.645 173.191 429.876 177.235 427.108 181.745C421.573 190.763 412.148 201.481 399.535 213.207C381.353 230.111 356.624 249.037 327.59 267.894C321.629 256.231 315.134 244.276 308.154 232.187C301.174 220.097 294.068 208.495 286.949 197.501ZM286.137 197.915C293.264 208.918 300.379 220.533 307.369 232.64C314.359 244.747 320.86 256.716 326.826 268.39C315.823 275.518 304.207 282.633 292.1 289.623C279.994 296.612 268.024 303.114 256.35 309.079C249.223 298.076 242.108 286.461 235.118 274.354C228.128 262.248 221.626 250.278 215.661 238.604C226.664 231.476 238.28 224.361 250.386 217.372C262.493 210.382 274.463 203.88 286.137 197.915ZM285.64 197.15C266.783 168.116 247.857 143.388 230.954 125.206C219.228 112.593 208.51 103.168 199.491 97.6326C194.981 94.8646 190.937 93.0952 187.436 92.3669C183.942 91.6401 181.047 91.9602 178.747 93.2883C176.446 94.6165 174.722 96.9632 173.604 100.353C172.484 103.749 171.995 108.136 172.137 113.425C172.421 124.003 175.225 137.998 180.285 154.459C187.579 178.19 199.532 206.944 215.247 237.792C226.241 230.672 237.843 223.566 249.933 216.586C262.023 209.606 273.978 203.111 285.64 197.15ZM214.896 239.1C185.863 257.957 161.134 276.883 142.952 293.787C130.339 305.513 120.914 316.231 115.379 325.25C112.611 329.759 110.841 333.803 110.113 337.305C109.386 340.799 109.707 343.693 111.035 345.994C112.363 348.294 114.709 350.019 118.099 351.136C121.495 352.256 125.882 352.746 131.172 352.603C141.75 352.319 155.745 349.516 172.206 344.456C195.936 337.161 224.69 325.209 255.538 309.494C248.418 298.5 241.313 286.897 234.333 274.808C227.353 262.718 220.858 250.763 214.896 239.1Z" fill="black"/>
<path opacity="0.791667" fill-rule="evenodd" clip-rule="evenodd" d="M325.04 273.79C337.86 305.525 347.154 334.875 352.293 358.874C355.858 375.523 357.413 389.547 356.782 399.99C356.466 405.212 355.606 409.49 354.211 412.738C352.818 415.98 350.917 418.143 348.537 419.253C346.157 420.363 343.279 420.428 339.9 419.412C336.514 418.393 332.684 416.301 328.481 413.187C320.076 406.958 310.332 396.752 299.87 383.32C284.789 363.956 268.28 337.971 252.209 307.751C264.21 302.885 276.543 297.519 289.052 291.686C301.56 285.853 313.599 279.855 325.04 273.79ZM325.836 273.367C356.498 349.245 367.073 411.599 348.916 420.065C330.759 428.532 289.79 380.351 251.374 308.09C175.497 338.751 113.142 349.326 104.676 331.169C96.2093 313.012 144.39 272.044 216.652 233.627C185.99 157.75 175.415 95.3958 193.572 86.9292C211.729 78.4626 252.698 126.644 291.114 198.905C366.991 168.243 429.345 157.669 437.812 175.825C446.279 193.982 398.098 234.951 325.836 273.367ZM291.537 199.701C323.272 186.882 352.621 177.587 376.621 172.448C393.269 168.883 407.294 167.328 417.737 167.959C422.958 168.275 427.237 169.135 430.485 170.531C433.727 171.923 435.89 173.824 436.999 176.204C438.109 178.584 438.175 181.463 437.158 184.841C436.139 188.227 434.048 192.057 430.934 196.26C424.705 204.665 414.499 214.409 401.066 224.871C381.703 239.952 355.717 256.461 325.498 272.532C320.632 260.532 315.265 248.198 309.433 235.69C303.6 223.181 297.601 211.142 291.537 199.701ZM290.701 200.039C296.773 211.49 302.779 223.543 308.62 236.068C314.461 248.594 319.833 260.943 324.702 272.954C313.251 279.026 301.199 285.033 288.673 290.873C276.147 296.714 263.798 302.086 251.787 306.955C245.715 295.505 239.709 283.452 233.868 270.926C228.027 258.4 222.655 246.052 217.786 234.04C229.237 227.968 241.289 221.962 253.815 216.121C266.341 210.28 278.69 204.908 290.701 200.039ZM290.278 199.243C274.208 169.024 257.699 143.039 242.618 123.675C232.156 110.242 222.412 100.036 214.007 93.8077C209.804 90.693 205.974 88.6018 202.588 87.5829C199.209 86.566 196.331 86.6319 193.951 87.7417C191.571 88.8515 189.67 91.0141 188.277 94.256C186.882 97.5046 186.022 101.783 185.706 107.005C185.075 117.447 186.63 131.472 190.195 148.12C195.334 172.12 204.628 201.469 217.448 233.205C228.889 227.14 240.928 221.141 253.436 215.308C265.945 209.476 278.278 204.109 290.278 199.243ZM216.99 234.463C186.77 250.533 160.785 267.042 141.421 282.123C127.989 292.585 117.783 302.329 111.554 310.734C108.44 314.937 106.349 318.767 105.33 322.153C104.313 325.532 104.379 328.41 105.488 330.79C106.598 333.17 108.761 335.071 112.003 336.464C115.251 337.86 119.529 338.72 124.751 339.035C135.194 339.667 149.218 338.112 165.867 334.546C189.867 329.407 219.216 320.113 250.951 307.293C244.887 295.852 238.888 283.813 233.055 271.305C227.222 258.797 221.856 246.463 216.99 234.463Z" fill="black"/>
<path opacity="0.833333" fill-rule="evenodd" clip-rule="evenodd" d="M322.471 278.115C332.36 310.471 338.984 340.173 341.977 364.25C344.054 380.951 344.377 394.896 342.855 405.125C342.095 410.24 340.879 414.378 339.225 417.457C337.574 420.53 335.516 422.495 333.077 423.383C330.637 424.271 327.797 424.088 324.558 422.796C321.311 421.5 317.72 419.111 313.849 415.682C306.109 408.824 297.393 397.934 288.248 383.806C275.065 363.438 261.047 336.427 247.825 305.284C260.061 301.526 272.669 297.304 285.489 292.638C298.309 287.972 310.681 283.102 322.471 278.115ZM323.291 277.768C346.948 355.129 351.989 417.443 333.38 424.216C314.771 430.989 278.578 380.014 246.973 305.545C169.612 329.202 107.298 334.243 100.525 315.634C93.7515 297.025 144.727 260.832 219.196 229.227C195.539 151.866 190.498 89.5519 209.107 82.7788C227.716 76.0056 263.909 126.981 295.514 201.45C372.875 177.793 435.189 172.752 441.962 191.361C448.735 209.97 397.76 246.163 323.291 277.768ZM295.861 202.27C328.217 192.38 357.919 185.757 381.996 182.763C398.697 180.687 412.642 180.364 422.871 181.885C427.986 182.646 432.124 183.862 435.203 185.516C438.276 187.167 440.241 189.225 441.129 191.664C442.017 194.103 441.834 196.944 440.542 200.183C439.246 203.429 436.857 207.021 433.428 210.891C426.57 218.632 415.68 227.348 401.552 236.493C381.184 249.676 354.173 263.694 323.03 276.916C319.272 264.679 315.05 252.072 310.384 239.251C305.718 226.431 300.848 214.059 295.861 202.27ZM295.009 202.531C300.002 214.33 304.878 226.717 309.551 239.555C314.224 252.393 318.45 265.016 322.21 277.263C310.41 282.256 298.024 287.132 285.186 291.805C272.348 296.478 259.725 300.704 247.477 304.464C242.485 292.665 237.608 280.278 232.936 267.44C228.263 254.602 224.037 241.979 220.277 229.731C232.076 224.739 244.463 219.862 257.301 215.19C270.138 210.517 282.762 206.291 295.009 202.531ZM294.662 201.711C281.44 170.568 267.422 143.557 254.239 123.189C245.094 109.061 236.378 98.1706 228.637 91.3129C224.767 87.8836 221.175 85.4944 217.929 84.1992C214.689 82.9068 211.849 82.7237 209.41 83.6115C206.971 84.4994 204.913 86.4653 203.262 89.5377C201.607 92.6165 200.392 96.7552 199.631 101.87C198.11 112.099 198.433 126.044 200.509 142.745C203.503 166.822 210.126 196.524 220.016 228.88C231.805 223.893 244.177 219.023 256.997 214.357C269.817 209.691 282.425 205.469 294.662 201.711ZM219.457 230.079C188.314 243.301 161.303 257.319 140.935 270.502C126.806 279.647 115.917 288.363 109.059 296.103C105.629 299.974 103.24 303.566 101.945 306.812C100.653 310.051 100.47 312.892 101.357 315.331C102.245 317.77 104.211 319.828 107.284 321.479C110.362 323.133 114.501 324.349 119.616 325.11C129.845 326.631 143.79 326.308 160.491 324.232C184.568 321.238 214.27 314.614 246.626 304.725C241.639 292.935 236.769 280.563 232.103 267.743C227.437 254.923 223.215 242.315 219.457 230.079Z" fill="black"/>
<path opacity="0.875" fill-rule="evenodd" clip-rule="evenodd" d="M319.56 282.148C326.511 314.858 330.474 344.674 331.347 368.638C331.953 385.261 331.07 399.019 328.691 408.959C327.501 413.93 325.948 417.9 324.054 420.789C322.163 423.672 319.968 425.43 317.489 426.094C315.011 426.759 312.231 426.334 309.152 424.782C306.067 423.227 302.737 420.565 299.221 416.855C292.191 409.436 284.547 397.963 276.76 383.264C265.534 362.074 254.059 334.271 243.723 302.469C256.095 299.823 268.872 296.752 281.897 293.262C294.922 289.772 307.523 286.042 319.56 282.148ZM320.398 281.877C337.027 360.085 336.622 421.875 317.716 426.941C298.81 432.006 267.565 378.698 242.862 302.652C164.653 319.281 102.864 318.877 97.7979 299.971C92.732 281.064 146.041 249.82 222.086 225.116C205.457 146.907 205.862 85.1183 224.768 80.0524C243.674 74.9865 274.919 128.295 299.622 204.34C377.831 187.712 439.62 188.116 444.686 207.022C449.752 225.928 396.443 257.173 320.398 281.877ZM299.894 205.178C332.603 198.228 362.419 194.265 386.383 193.391C403.006 192.786 416.764 193.669 426.705 196.048C431.675 197.238 435.646 198.791 438.535 200.685C441.418 202.575 443.176 204.771 443.84 207.249C444.504 209.727 444.079 212.508 442.527 215.586C440.973 218.671 438.311 222.001 434.601 225.517C427.182 232.548 415.709 240.191 401.01 247.978C379.82 259.204 352.017 270.68 320.214 281.015C317.568 268.644 314.497 255.866 311.007 242.841C307.517 229.817 303.788 217.215 299.894 205.178ZM299.033 205.362C302.932 217.409 306.666 230.025 310.161 243.068C313.656 256.111 316.73 268.904 319.377 281.287C307.329 285.186 294.713 288.921 281.67 292.416C268.627 295.91 255.835 298.984 243.451 301.631C239.552 289.584 235.818 276.968 232.323 263.925C228.828 250.882 225.754 238.089 223.107 225.706C235.155 221.807 247.771 218.072 260.814 214.577C273.857 211.082 286.649 208.009 299.033 205.362ZM298.761 204.524C288.425 172.722 276.95 144.919 265.724 123.729C257.937 109.03 250.293 97.5566 243.263 90.1376C239.747 86.4276 236.417 83.7658 233.332 82.211C230.253 80.6594 227.473 80.2344 224.994 80.8985C222.516 81.5625 220.321 83.3209 218.43 86.2038C216.536 89.0927 214.983 93.0631 213.793 98.0338C211.414 107.974 210.531 121.732 211.137 138.355C212.01 162.319 215.973 192.135 222.924 224.845C234.961 220.95 247.562 217.221 260.587 213.731C273.612 210.241 286.389 207.17 298.761 204.524ZM222.27 225.978C190.467 236.313 162.664 247.789 141.474 259.014C126.775 266.801 115.302 274.445 107.883 281.476C104.173 284.992 101.511 288.322 99.9565 291.407C98.4049 294.485 97.9799 297.266 98.644 299.744C99.308 302.222 101.066 304.418 103.949 306.308C106.838 308.202 110.809 309.755 115.779 310.945C125.72 313.324 139.478 314.207 156.101 313.602C180.065 312.728 209.881 308.765 242.59 301.815C238.696 289.777 234.967 277.176 231.477 264.152C227.987 251.127 224.916 238.349 222.27 225.978Z" fill="black"/>
<path opacity="0.916667" fill-rule="evenodd" clip-rule="evenodd" d="M316.344 285.865C320.369 318.666 321.703 348.36 320.499 372.027C319.663 388.445 317.609 401.913 314.41 411.494C312.811 416.285 310.94 420.06 308.826 422.741C306.717 425.416 304.404 426.958 301.907 427.398C299.41 427.839 296.709 427.181 293.813 425.388C290.91 423.592 287.86 420.685 284.719 416.729C278.436 408.82 271.899 396.867 265.499 381.725C256.273 359.897 247.37 331.538 239.934 299.339C252.342 297.799 265.185 295.876 278.308 293.562C291.432 291.248 304.158 288.662 316.344 285.865ZM317.192 285.67C326.827 364.097 321.107 424.892 302.058 428.251C283.009 431.61 256.84 376.437 239.07 299.445C160.644 309.08 99.8485 303.36 96.4897 284.311C93.1308 265.262 148.303 239.093 225.295 221.323C215.661 142.897 221.381 82.1015 240.43 78.7426C259.479 75.3838 285.647 130.556 303.417 207.548C381.844 197.914 442.639 203.634 445.998 222.683C449.357 241.732 394.185 267.9 317.192 285.67ZM303.612 208.396C336.413 204.371 366.107 203.038 389.774 204.242C406.192 205.077 419.66 207.132 429.241 210.33C434.032 211.93 437.807 213.801 440.488 215.914C443.163 218.023 444.705 220.336 445.145 222.833C445.586 225.33 444.928 228.031 443.135 230.928C441.339 233.831 438.432 236.88 434.476 240.022C426.567 246.304 414.614 252.841 399.472 259.241C377.644 268.468 349.285 277.371 317.086 284.806C315.546 272.399 313.623 259.555 311.309 246.432C308.995 233.309 306.409 220.582 303.612 208.396ZM302.749 208.503C305.55 220.699 308.14 233.441 310.457 246.582C312.774 259.724 314.698 272.583 316.238 285.002C304.041 287.803 291.3 290.393 278.158 292.71C265.017 295.027 252.158 296.951 239.739 298.491C236.938 286.294 234.348 273.553 232.031 260.411C229.713 247.27 227.789 234.411 226.25 221.992C238.446 219.191 251.188 216.601 264.329 214.284C277.471 211.966 290.33 210.042 302.749 208.503ZM302.553 207.655C295.118 175.456 286.215 147.096 276.988 125.269C270.588 110.127 264.051 98.1736 257.769 90.2642C254.627 86.3091 251.578 83.4017 248.675 81.6053C245.778 79.8127 243.077 79.1548 240.58 79.5951C238.083 80.0354 235.77 81.5773 233.661 84.2527C231.548 86.9336 229.677 90.7086 228.077 95.4997C224.879 105.081 222.824 118.549 221.989 134.966C220.785 158.633 222.118 188.328 226.143 221.128C238.329 218.331 251.056 215.745 264.179 213.431C277.302 211.117 290.146 209.194 302.553 207.655ZM225.402 222.187C193.203 229.623 164.843 238.526 143.016 247.752C127.874 254.152 115.921 260.689 108.011 266.972C104.056 270.113 101.149 273.163 99.3523 276.066C97.5597 278.962 96.9018 281.663 97.3421 284.16C97.7824 286.657 99.3243 288.97 102 291.079C104.681 293.193 108.456 295.064 113.247 296.663C122.828 299.862 136.296 301.916 152.713 302.752C176.38 303.956 206.075 302.622 238.875 298.597C236.078 286.411 233.492 273.685 231.178 260.561C228.864 247.438 226.942 234.595 225.402 222.187Z" fill="black"/>
<path opacity="0.958333" fill-rule="evenodd" clip-rule="evenodd" d="M312.85 289.242C313.987 321.876 312.743 351.22 309.519 374.412C307.283 390.5 304.101 403.581 300.127 412.736C298.141 417.315 295.974 420.869 293.662 423.326C291.356 425.778 288.946 427.097 286.451 427.315C283.955 427.533 281.353 426.653 278.656 424.639C275.953 422.621 273.202 419.496 270.45 415.333C264.947 407.006 259.542 394.677 254.546 379.222C247.344 356.941 241.023 328.259 236.476 295.924C248.822 295.477 261.63 294.691 274.747 293.543C287.864 292.395 300.614 290.946 312.85 289.242ZM313.701 289.123C316.431 367.151 305.565 426.501 286.525 428.167C267.485 429.833 246.478 373.271 235.617 295.955C157.589 298.684 98.2389 287.818 96.5732 268.778C94.9074 249.738 151.469 228.732 228.785 217.87C226.056 139.842 236.922 80.4921 255.962 78.8264C275.002 77.1606 296.009 133.722 306.87 211.039C384.898 208.309 444.248 219.175 445.914 238.215C447.58 257.255 391.018 278.262 313.701 289.123ZM306.989 211.89C339.622 210.753 368.966 211.997 392.159 215.221C408.247 217.457 421.327 220.639 430.483 224.613C435.061 226.6 438.616 228.766 441.073 231.078C443.525 233.384 444.843 235.794 445.062 238.29C445.28 240.785 444.4 243.387 442.386 246.084C440.368 248.787 437.243 251.538 433.079 254.29C424.753 259.793 412.424 265.198 396.968 270.194C374.688 277.396 346.006 283.717 313.671 288.264C313.224 275.918 312.437 263.11 311.29 249.993C310.142 236.876 308.693 224.126 306.989 211.89ZM306.13 211.921C307.836 224.167 309.289 236.932 310.438 250.068C311.587 263.203 312.374 276.026 312.819 288.383C300.573 290.09 287.808 291.542 274.673 292.691C261.537 293.84 248.714 294.627 236.357 295.072C234.65 282.826 233.198 270.061 232.049 256.926C230.9 243.791 230.113 230.967 229.668 218.61C241.914 216.904 254.679 215.451 267.814 214.302C280.949 213.153 293.773 212.367 306.13 211.921ZM306.01 211.069C301.464 178.734 295.143 150.052 287.941 127.772C282.945 112.316 277.54 99.9871 272.037 91.6606C269.285 87.4969 266.534 84.3725 263.831 82.3543C261.134 80.3402 258.532 79.4601 256.036 79.6784C253.541 79.8968 251.131 81.2153 248.824 83.6672C246.513 86.1241 244.346 89.6788 242.359 94.2571C238.386 103.413 235.204 116.493 232.968 132.581C229.744 155.774 228.5 185.118 229.637 217.751C241.873 216.047 254.623 214.598 267.74 213.45C280.857 212.303 293.665 211.516 306.01 211.069ZM228.816 218.73C196.481 223.276 167.799 229.597 145.519 236.799C130.063 241.795 117.734 247.2 109.407 252.703C105.244 255.455 102.119 258.206 100.101 260.909C98.087 263.606 97.2069 266.208 97.4252 268.704C97.6436 271.2 98.9622 273.609 101.414 275.916C103.871 278.227 107.426 280.394 112.004 282.381C121.159 286.354 134.24 289.536 150.328 291.772C173.521 294.996 202.865 296.24 235.498 295.103C233.794 282.867 232.345 270.117 231.197 257C230.05 243.883 229.263 231.075 228.816 218.73Z" fill="black"/>
<path fill-rule="evenodd" clip-rule="evenodd" d="M309.114 292.26C307.424 324.475 303.672 353.248 298.503 375.797C294.917 391.438 290.658 404.038 285.96 412.706C283.61 417.041 281.171 420.353 278.685 422.572C276.204 424.787 273.719 425.877 271.244 425.877C268.768 425.877 266.283 424.787 263.802 422.572C261.316 420.353 258.877 417.041 256.528 412.706C251.829 404.038 247.571 391.438 243.984 375.797C238.815 353.248 235.063 324.475 233.373 292.26C245.562 292.883 258.235 293.212 271.244 293.212C284.252 293.212 296.925 292.883 309.114 292.26ZM309.963 292.216C305.93 369.246 290.126 426.722 271.244 426.722C252.361 426.722 236.557 369.246 232.524 292.216C155.495 288.184 98.0186 272.379 98.0186 253.497C98.0186 234.615 155.495 218.81 232.524 214.778C236.557 137.748 252.361 80.272 271.244 80.272C290.126 80.272 305.93 137.748 309.963 214.778C386.992 218.81 444.469 234.615 444.469 253.497C444.469 272.379 386.992 288.184 309.963 292.216ZM310.007 215.626C342.222 217.317 370.995 221.068 393.543 226.238C409.185 229.824 421.784 234.082 430.453 238.781C434.788 241.131 438.1 243.569 440.319 246.056C442.533 248.537 443.624 251.022 443.624 253.497C443.624 255.972 442.533 258.457 440.319 260.938C438.1 263.425 434.788 265.863 430.453 268.213C421.784 272.912 409.185 277.17 393.543 280.756C370.995 285.926 342.222 289.677 310.007 291.368C310.63 279.179 310.959 266.505 310.959 253.497C310.959 240.489 310.63 227.815 310.007 215.626ZM309.158 215.582C309.784 227.782 310.114 240.471 310.114 253.497C310.114 266.523 309.784 279.212 309.158 291.412C296.958 292.037 284.27 292.367 271.244 292.367C258.217 292.367 245.529 292.037 233.329 291.412C232.704 279.212 232.374 266.523 232.374 253.497C232.374 240.471 232.704 227.782 233.329 215.582C245.529 214.957 258.217 214.627 271.244 214.627C284.27 214.627 296.958 214.957 309.158 215.582ZM309.114 214.734C307.424 182.519 303.672 153.746 298.503 131.197C294.917 115.556 290.658 102.956 285.96 94.2875C283.61 89.9527 281.171 86.6408 278.685 84.4217C276.204 82.2072 273.719 81.117 271.244 81.117C268.768 81.117 266.283 82.2072 263.802 84.4217C261.316 86.6408 258.877 89.9527 256.528 94.2875C251.829 102.956 247.571 115.556 243.984 131.197C238.815 153.746 235.063 182.519 233.373 214.734C245.562 214.111 258.235 213.782 271.244 213.782C284.252 213.782 296.925 214.111 309.114 214.734ZM232.481 215.626C200.265 217.317 171.492 221.068 148.944 226.238C133.302 229.824 120.703 234.082 112.034 238.781C107.699 241.131 104.387 243.569 102.168 246.056C99.9538 248.537 98.8636 251.022 98.8636 253.497C98.8636 255.972 99.9538 258.457 102.168 260.938C104.387 263.425 107.699 265.863 112.034 268.213C120.703 272.912 133.302 277.17 148.944 280.756C171.492 285.926 200.265 289.677 232.481 291.368C231.857 279.179 231.529 266.505 231.529 253.497C231.529 240.489 231.857 227.815 232.481 215.626Z" fill="black"/>
</g>
<defs>
<clipPath id="clip0_1424_188">
<rect width="541.645" height="507" fill="white"/>
</clipPath>
</defs>
</svg>
