<svg width="1435" height="293" viewBox="0 0 1435 293" fill="none" xmlns="http://www.w3.org/2000/svg">
<path d="M215.694 31.5059C212.633 21.922 208.484 15.0599 208.309 14.7715C207.628 13.6552 206.228 13.0746 204.959 13.3643C204.631 13.4389 196.797 15.2594 187.76 19.7527C175.56 25.8166 167.038 33.9121 163.112 43.16C159.844 50.8616 159.375 60.2768 161.693 70.6782C156.755 65.1871 151.199 60.3836 145.143 56.3397C143.294 52.7026 138.404 43.7484 130.76 34.3898C128.242 31.3089 123.399 35.1751 125.943 38.2869C131.094 44.5942 134.971 50.7972 137.396 55.0587L109.123 49.5715L82.2608 13.0939C84.8691 13.13 87.4865 13.381 90.091 13.8896C98.348 15.4989 106.504 19.6857 114.337 26.3316C117.406 28.9361 121.391 24.1957 118.363 21.6272C109.71 14.2861 100.599 9.64094 91.2833 7.82433C77.0622 5.05371 60.4758 8.69079 43.3127 18.3467C30.5205 25.5437 21.9661 33.4487 21.6092 33.7808C20.4647 34.8456 20.2824 36.7793 21.2406 38.023C22.495 40.5851 27.2488 49.8277 35.1617 59.7785C39.8263 65.6455 44.7455 70.6666 49.8342 74.7929C48.3884 75.9992 46.9814 77.261 45.6197 78.5883C38.3469 85.6707 32.7784 94.025 29.1226 103.158C25.8909 111.228 24.1529 119.909 24.0559 128.857C23.8955 143.489 28.154 157.601 36.3735 169.67C44.4028 181.458 55.6277 190.509 68.8336 195.843C72.5296 197.332 74.8663 191.609 71.1678 190.116C66.3831 188.183 61.888 185.708 57.742 182.763C58.2722 179.836 59.502 169.299 52.4723 158.392C51.4882 156.866 54.4302 150.874 56.1863 147.295C57.9994 143.606 59.8706 139.793 60.7448 136.202C61.6733 132.387 60.6284 129.186 57.7252 126.939C55.594 125.29 52.8046 124.436 50.3463 123.683C48.7492 123.194 46.9388 122.64 46.2922 122.103C44.9602 120.992 42.7851 116.886 41.0367 113.589C39.0969 109.932 37.2502 106.45 35.3648 104.307C39.6077 94.2748 46.4228 85.3977 54.9578 78.6064C62.7544 83.894 71.6528 87.5426 81.1111 88.2816C70.1423 96.7428 66.5938 107.548 71.6657 117.928C77.5885 130.048 89.7793 128.112 100.535 126.406C102.396 126.11 104.321 125.805 106.165 125.576C106.857 125.489 107.065 125.677 107.205 125.8C109.56 127.885 109.49 137.846 109.44 145.12C109.371 155.182 109.306 164.686 113.071 169.565C114.991 172.053 117.695 173.325 120.865 173.325C122.765 173.325 124.828 172.869 126.993 171.945C136.355 167.954 146.086 155.942 144.601 146.438C143.304 138.128 142.445 132.639 144.469 128.214C146.341 124.118 150.864 120.327 159.773 115.488C160.84 120.271 161.378 125.247 161.322 130.352C161.132 147.776 154.136 164.085 141.624 176.271C127.641 189.889 107.989 196.615 88.5482 194.482C84.5872 194.054 83.9031 200.19 87.8693 200.625C109.149 202.958 130.663 195.594 145.964 180.689C159.663 167.347 167.321 149.495 167.529 130.418C167.806 105.123 154.77 82.7134 134.924 69.804C139.025 66.893 142.08 64.376 143.774 62.9148C151.009 68.0826 157.427 74.4491 162.767 81.8662C175.585 99.6757 180.668 121.386 177.083 143.003C169.68 187.625 127.195 217.935 82.3668 210.562C60.653 206.992 41.6367 195.219 28.8187 177.41C15.9994 159.602 10.9159 137.889 14.5019 116.274C15.1459 112.384 9.02523 111.363 8.37864 115.267C4.52107 138.512 9.98994 161.86 23.7714 181.011C37.5554 200.159 58.0071 212.82 81.3555 216.661C86.2386 217.463 91.1268 217.859 95.9814 217.859C114.332 217.859 132.183 212.187 147.395 201.335C166.633 187.612 179.352 167.254 183.207 144.009C186.032 126.976 183.845 109.888 177.054 94.4357C180.188 93.5152 185.523 91.7282 191.365 88.8236C203.563 82.7597 212.086 74.6642 216.011 65.4163C219.939 56.1659 219.83 44.4397 215.694 31.5059ZM35.5458 116.473C37.8554 120.833 40.0396 124.952 42.3092 126.842C43.9166 128.18 46.1538 128.865 48.5216 129.59C54.5879 131.446 55.2927 132.358 54.7108 134.746C53.997 137.683 52.2744 141.19 50.6101 144.58C47.4043 151.11 44.377 157.274 47.2465 161.729C51.3162 168.042 52.0132 174.258 51.9434 178.124C33.456 161.528 25.9284 135.314 32.8146 111.488C33.7276 113.046 34.6872 114.856 35.5458 116.473ZM185.717 55.7475L176.896 34.4658C181.188 30.4695 186.168 27.462 190.41 25.3441C194.023 23.5391 197.46 22.1898 200.217 21.2332L185.717 55.7475ZM205.939 23.6292C207.172 26.2659 208.601 29.6661 209.822 33.5092C211.16 37.7269 212.389 42.954 212.633 48.4064L191.961 56.8972L205.939 23.6292ZM168.829 45.5662C169.745 43.411 170.928 41.4129 172.295 39.568L182.336 63.7915L173.325 85.2432C172.059 82.5692 170.568 79.057 169.304 75.0671C166.765 67.0784 164.624 55.4733 168.829 45.5662ZM188.714 83.2322C185.237 84.9703 181.919 86.2861 179.216 87.2349L188.567 64.9786L212.369 55.2003C212.024 57.8551 211.366 60.4866 210.294 63.0101C206.089 72.9171 196.238 79.4767 188.714 83.2322ZM76.7932 81.4735C75.6966 81.2598 74.6142 80.9985 73.5473 80.7011L107.899 55.6316L136.185 61.1201C125.881 69.2027 100.805 86.1573 76.7932 81.4735ZM45.3986 62.1397C38.052 54.2566 32.6672 45.8276 29.5752 40.4306L65.5709 47.4176L45.3986 62.1397ZM51.7559 20.9114L66.8163 41.3627L30.5878 34.3319C35.1488 30.7463 42.6777 25.3634 51.7559 20.9114ZM75.7961 43.1059L57.5377 18.3107C63.004 16.0744 68.8711 14.3144 74.8857 13.5316L100.144 47.8296L75.7961 43.1059ZM73.8641 49.0269L99.6075 54.0223L66.568 78.1326C60.3374 75.268 54.7302 71.1494 49.8239 66.5712L73.8641 49.0269ZM158.087 109.37C146.897 115.305 141.417 119.967 138.818 125.654C136.026 131.76 137.049 138.315 138.465 147.386C139.302 152.736 132.916 162.697 124.549 166.264C121.453 167.584 119.248 167.428 117.993 165.8C115.527 162.604 115.594 152.933 115.647 145.163C115.721 134.413 115.785 125.129 111.33 121.183C109.728 119.764 107.678 119.164 105.401 119.442C103.45 119.684 101.47 119.998 99.5571 120.302C88.1473 122.112 80.9676 122.837 77.2484 115.224C71.2222 102.894 83.4207 93.7611 88.9452 90.4072C90.0703 89.7249 91.1139 88.9202 92.0838 88.0241C105.436 86.4354 118.052 80.732 129.295 73.5878C142.775 81.6061 153.123 94.2954 158.087 109.37Z" fill="black"/>
<path d="M19.1867 291.24C17.8907 291.24 16.6347 291.056 15.4187 290.688C14.2187 290.32 13.2667 289.832 12.5627 289.224L13.6427 286.8C14.3307 287.344 15.1707 287.792 16.1627 288.144C17.1707 288.48 18.1787 288.648 19.1867 288.648C20.4347 288.648 21.3627 288.448 21.9707 288.048C22.5947 287.648 22.9067 287.12 22.9067 286.464C22.9067 285.984 22.7307 285.592 22.3787 285.288C22.0427 284.968 21.6107 284.72 21.0827 284.544C20.5547 284.368 19.8347 284.168 18.9227 283.944C17.6427 283.64 16.6027 283.336 15.8027 283.032C15.0187 282.728 14.3387 282.256 13.7627 281.616C13.2027 280.96 12.9227 280.08 12.9227 278.976C12.9227 278.048 13.1707 277.208 13.6667 276.456C14.1787 275.688 14.9387 275.08 15.9467 274.632C16.9707 274.184 18.2187 273.96 19.6907 273.96C20.7147 273.96 21.7227 274.088 22.7147 274.344C23.7067 274.6 24.5627 274.968 25.2827 275.448L24.2987 277.872C23.5627 277.44 22.7947 277.112 21.9947 276.888C21.1947 276.664 20.4187 276.552 19.6667 276.552C18.4347 276.552 17.5147 276.76 16.9067 277.176C16.3147 277.592 16.0187 278.144 16.0187 278.832C16.0187 279.312 16.1867 279.704 16.5227 280.008C16.8747 280.312 17.3147 280.552 17.8427 280.728C18.3707 280.904 19.0907 281.104 20.0027 281.328C21.2507 281.616 22.2747 281.92 23.0747 282.24C23.8747 282.544 24.5547 283.016 25.1147 283.656C25.6907 284.296 25.9787 285.16 25.9787 286.248C25.9787 287.176 25.7227 288.016 25.2107 288.768C24.7147 289.52 23.9547 290.12 22.9307 290.568C21.9067 291.016 20.6587 291.24 19.1867 291.24ZM36.2964 291.24C33.9764 291.24 32.1684 290.592 30.8724 289.296C29.5764 287.984 28.9284 286.112 28.9284 283.68V274.2H32.0484V283.56C32.0484 286.856 33.4724 288.504 36.3204 288.504C39.1524 288.504 40.5684 286.856 40.5684 283.56V274.2H43.6404V283.68C43.6404 286.112 42.9924 287.984 41.6964 289.296C40.4164 290.592 38.6164 291.24 36.2964 291.24ZM53.2179 291.24C51.9219 291.24 50.6659 291.056 49.4499 290.688C48.2499 290.32 47.2979 289.832 46.5939 289.224L47.6739 286.8C48.3619 287.344 49.2019 287.792 50.1939 288.144C51.2019 288.48 52.2099 288.648 53.2179 288.648C54.4659 288.648 55.3939 288.448 56.0019 288.048C56.6259 287.648 56.9379 287.12 56.9379 286.464C56.9379 285.984 56.7619 285.592 56.4099 285.288C56.0739 284.968 55.6419 284.72 55.1139 284.544C54.5859 284.368 53.8659 284.168 52.9539 283.944C51.6739 283.64 50.6339 283.336 49.8339 283.032C49.0499 282.728 48.3699 282.256 47.7939 281.616C47.2339 280.96 46.9539 280.08 46.9539 278.976C46.9539 278.048 47.2019 277.208 47.6979 276.456C48.2099 275.688 48.9699 275.08 49.9779 274.632C51.0019 274.184 52.2499 273.96 53.7219 273.96C54.7459 273.96 55.7539 274.088 56.7459 274.344C57.7379 274.6 58.5939 274.968 59.3139 275.448L58.3299 277.872C57.5939 277.44 56.8259 277.112 56.0259 276.888C55.2259 276.664 54.4499 276.552 53.6979 276.552C52.4659 276.552 51.5459 276.76 50.9379 277.176C50.3459 277.592 50.0499 278.144 50.0499 278.832C50.0499 279.312 50.2179 279.704 50.5539 280.008C50.9059 280.312 51.3459 280.552 51.8739 280.728C52.4019 280.904 53.1219 281.104 54.0339 281.328C55.2819 281.616 56.3059 281.92 57.1059 282.24C57.9059 282.544 58.5859 283.016 59.1459 283.656C59.7219 284.296 60.0099 285.16 60.0099 286.248C60.0099 287.176 59.7539 288.016 59.2419 288.768C58.7459 289.52 57.9859 290.12 56.9619 290.568C55.9379 291.016 54.6899 291.24 53.2179 291.24ZM66.2773 276.84H60.7093V274.2H74.9653V276.84H69.3973V291H66.2773V276.84ZM87.359 287.112H78.959L77.303 291H74.087L81.647 274.2H84.719L92.303 291H89.039L87.359 287.112ZM86.327 284.664L83.159 277.32L80.015 284.664H86.327ZM94.4396 274.2H97.5596V291H94.4396V274.2ZM117.032 274.2V291H114.464L105.2 279.624V291H102.104V274.2H104.672L113.936 285.576V274.2H117.032ZM132.429 287.112H124.029L122.373 291H119.157L126.717 274.2H129.789L137.373 291H134.109L132.429 287.112ZM131.397 284.664L128.229 277.32L125.085 284.664H131.397ZM151.414 282.264C152.342 282.568 153.078 283.08 153.622 283.8C154.166 284.504 154.438 285.384 154.438 286.44C154.438 287.896 153.878 289.024 152.758 289.824C151.638 290.608 150.006 291 147.862 291H139.51V274.2H147.382C149.366 274.2 150.894 274.592 151.966 275.376C153.038 276.144 153.574 277.208 153.574 278.568C153.574 279.4 153.382 280.136 152.998 280.776C152.614 281.416 152.086 281.912 151.414 282.264ZM142.63 276.648V281.28H147.046C148.134 281.28 148.966 281.088 149.542 280.704C150.134 280.304 150.43 279.728 150.43 278.976C150.43 278.208 150.134 277.632 149.542 277.248C148.966 276.848 148.134 276.648 147.046 276.648H142.63ZM147.67 288.552C150.086 288.552 151.294 287.744 151.294 286.128C151.294 284.512 150.086 283.704 147.67 283.704H142.63V288.552H147.67ZM157.768 274.2H160.888V291H157.768V274.2ZM165.432 274.2H168.552V288.36H177.336V291H165.432V274.2ZM179.799 274.2H182.919V291H179.799V274.2ZM190.871 276.84H185.303V274.2H199.559V276.84H193.991V291H190.871V276.84ZM208.914 285.072V291H205.794V285.12L199.194 274.2H202.53L207.45 282.384L212.418 274.2H215.49L208.914 285.072Z" fill="black"/>
<g clip-path="url(#clip0)">
<path d="M812.235 9.86143e-08C812.235 9.86143e-08 812.234 9.86143e-08 812.233 9.86143e-08H593.767C591.687 -0.000470735 590 1.68511 590 3.76478C590 3.76525 590 3.7662 590 3.76667V79.1H597.533V7.53333H808.467V90.4H676.633V97.9333H812.233C814.313 97.9338 816 96.2482 816 94.1685C816 94.1681 816 94.1671 816 94.1667V3.76667C816 1.687 814.315 0.000470932 812.235 9.86143e-08Z" fill="black"/>
<path d="M789.634 18.832H714.301V26.3654H789.634V18.832Z" fill="black"/>
<path d="M800.933 41.4336H725.6V48.9669H800.933V41.4336Z" fill="black"/>
<path d="M785.867 64.0352H710.533V71.5685H785.867V64.0352Z" fill="black"/>
<path d="M710.233 32.475C707.654 26.2765 700.539 23.3422 694.341 25.921C694.235 25.9653 694.13 26.0105 694.025 26.0575L663.483 41.9011C664.687 39.4047 665.32 36.6711 665.333 33.8997C665.333 23.4986 656.901 15.0664 646.5 15.0664C636.099 15.0664 627.667 23.4986 627.667 33.8997C627.681 37.988 629.038 41.9585 631.53 45.1997H631.373C620.681 45.2713 611.137 51.9181 607.362 61.9219L597.307 96.5794C594.914 102.797 598.014 109.779 604.232 112.172C607.067 113.264 610.21 113.246 613.033 112.121C616.276 110.814 618.799 108.176 619.961 104.878L623.9 92.3419V146.856C620.659 144.365 616.688 143.008 612.6 142.993C602.214 142.978 593.782 151.384 593.767 161.771C593.759 166.857 595.812 171.729 599.458 175.276C593.672 178.232 590.023 184.172 590 190.669V222.233C590 224.313 591.685 225.999 593.765 226C593.765 226 593.766 226 593.767 226H631.433C633.513 226 635.2 224.315 635.2 222.235C635.2 222.234 635.2 222.234 635.2 222.233V190.669C635.182 185.33 632.701 180.299 628.478 177.033H656.989C652.765 180.299 650.285 185.33 650.267 190.669V222.233C650.267 224.313 651.952 225.999 654.032 226C654.032 226 654.033 226 654.034 226H691.7C693.78 226 695.467 224.315 695.467 222.235C695.467 222.234 695.467 222.234 695.467 222.233V190.669C695.445 184.172 691.795 178.232 686.01 175.276C693.446 168.018 693.591 156.104 686.332 148.667C681.862 144.087 675.371 142.093 669.1 143.374V66.3209L703.679 48.3666C709.877 45.7883 712.811 38.673 710.233 32.475ZM646.5 22.5997C652.741 22.5997 657.8 27.6588 657.8 33.8997C657.8 40.1406 652.741 45.1997 646.5 45.1997C640.262 45.1931 635.207 40.1378 635.2 33.8997C635.2 27.6588 640.259 22.5997 646.5 22.5997ZM612.6 150.527C618.841 150.527 623.9 155.586 623.9 161.827C623.9 168.067 618.841 173.127 612.6 173.127C606.359 173.127 601.3 168.067 601.3 161.827C601.307 155.589 606.362 150.534 612.6 150.527ZM627.667 218.466H597.533V190.669C597.541 185.221 601.956 180.806 607.404 180.8H617.796C623.244 180.806 627.659 185.221 627.667 190.669V218.466ZM687.933 190.669V218.466H657.8V190.669C657.808 185.221 662.223 180.806 667.671 180.8H678.062C683.511 180.806 687.926 185.221 687.933 190.669ZM672.867 150.527C679.105 150.533 684.16 155.589 684.167 161.827C684.167 168.067 679.108 173.127 672.867 173.127C666.626 173.127 661.567 168.067 661.567 161.827C661.567 155.586 666.626 150.527 672.867 150.527ZM703.34 38.7587C702.836 40.0526 701.801 41.0682 700.497 41.547L663.599 60.6892C662.351 61.3371 661.567 62.6267 661.567 64.0331V146.856C654.511 152.073 652.067 161.515 655.706 169.5H650.267V105.466H642.733V169.5H629.761C630.833 167.131 631.397 164.565 631.419 161.966H631.433V67.7997C631.433 65.7191 629.746 64.0331 627.666 64.0335C626.021 64.034 624.567 65.1014 624.073 66.6707L612.826 102.461C611.974 104.811 609.377 106.026 607.027 105.174C606.862 105.114 606.7 105.045 606.543 104.966C604.37 103.843 603.448 101.221 604.44 98.9849L614.494 64.3273C617.206 57.3637 623.9 52.7656 631.373 52.7331H658.043C658.647 52.734 659.242 52.5885 659.777 52.3103L697.214 32.8776C699.46 31.9406 702.049 32.8992 703.142 35.0735C703.722 36.2195 703.794 37.5567 703.34 38.7587Z" fill="black"/>
<path d="M746.276 175.276C753.726 168.018 753.881 156.094 746.623 148.644C739.364 141.194 727.44 141.038 719.99 148.297C712.54 155.555 712.385 167.479 719.643 174.929C719.758 175.046 719.874 175.162 719.991 175.276C714.206 178.232 710.556 184.172 710.533 190.669V222.233C710.533 224.312 712.218 225.999 714.298 225.999C714.298 225.999 714.299 225.999 714.3 225.999H751.967C754.046 226 755.733 224.314 755.733 222.235C755.733 222.234 755.733 222.233 755.733 222.233V190.669C755.711 184.172 752.061 178.232 746.276 175.276ZM733.133 150.526C739.374 150.526 744.433 155.585 744.433 161.826C744.433 168.067 739.374 173.126 733.133 173.126C726.892 173.126 721.833 168.067 721.833 161.826C721.84 155.588 726.895 150.533 733.133 150.526ZM748.2 218.466H718.067V190.669C718.074 185.221 722.489 180.806 727.938 180.799H738.329C743.777 180.806 748.192 185.221 748.2 190.669V218.466Z" fill="black"/>
<path d="M806.542 175.276C813.992 168.018 814.148 156.094 806.889 148.644C799.631 141.194 787.707 141.038 780.257 148.297C772.807 155.555 772.652 167.479 779.91 174.929C780.024 175.046 780.14 175.162 780.257 175.276C774.472 178.232 770.822 184.172 770.8 190.669V222.233C770.799 224.312 772.485 225.999 774.565 225.999C774.565 225.999 774.566 225.999 774.566 225.999H812.233C814.313 226 815.999 224.314 816 222.235C816 222.234 816 222.233 816 222.233V190.669C815.977 184.172 812.328 178.232 806.542 175.276ZM793.4 150.526C799.641 150.526 804.7 155.585 804.7 161.826C804.7 168.067 799.641 173.126 793.4 173.126C787.159 173.126 782.1 168.067 782.1 161.826C782.106 155.588 787.162 150.533 793.4 150.526ZM808.466 218.466H778.333V190.669C778.341 185.221 782.756 180.806 788.204 180.799H798.595C804.043 180.806 808.459 185.221 808.466 190.669V218.466Z" fill="black"/>
</g>
<path d="M529.035 277.84H523.467V275.2H537.723V277.84H532.155V292H529.035V277.84ZM551.057 292L547.625 287.08C547.481 287.096 547.265 287.104 546.977 287.104H543.185V292H540.065V275.2H546.977C548.433 275.2 549.697 275.44 550.769 275.92C551.857 276.4 552.689 277.088 553.265 277.984C553.841 278.88 554.129 279.944 554.129 281.176C554.129 282.44 553.817 283.528 553.193 284.44C552.585 285.352 551.705 286.032 550.553 286.48L554.417 292H551.057ZM550.985 281.176C550.985 280.104 550.633 279.28 549.929 278.704C549.225 278.128 548.193 277.84 546.833 277.84H543.185V284.536H546.833C548.193 284.536 549.225 284.248 549.929 283.672C550.633 283.08 550.985 282.248 550.985 281.176ZM568.515 288.112H560.115L558.459 292H555.243L562.803 275.2H565.875L573.459 292H570.195L568.515 288.112ZM567.483 285.664L564.315 278.32L561.171 285.664H567.483ZM575.596 275.2H578.716V292H575.596V275.2ZM598.188 275.2V292H595.62L586.356 280.624V292H583.26V275.2H585.828L595.092 286.576V275.2H598.188ZM602.69 275.2H605.81V292H602.69V275.2ZM625.282 275.2V292H622.714L613.45 280.624V292H610.354V275.2H612.922L622.186 286.576V275.2H625.282ZM641.255 283.408H644.207V290.104C643.343 290.792 642.335 291.32 641.183 291.688C640.031 292.056 638.847 292.24 637.631 292.24C635.919 292.24 634.375 291.872 632.999 291.136C631.623 290.384 630.543 289.352 629.759 288.04C628.975 286.728 628.583 285.248 628.583 283.6C628.583 281.952 628.975 280.472 629.759 279.16C630.543 277.848 631.623 276.824 632.999 276.088C634.391 275.336 635.951 274.96 637.679 274.96C639.087 274.96 640.367 275.192 641.519 275.656C642.671 276.12 643.639 276.8 644.423 277.696L642.455 279.616C641.175 278.336 639.631 277.696 637.823 277.696C636.639 277.696 635.583 277.944 634.655 278.44C633.743 278.936 633.023 279.632 632.495 280.528C631.983 281.424 631.727 282.448 631.727 283.6C631.727 284.72 631.983 285.728 632.495 286.624C633.023 287.52 633.743 288.224 634.655 288.736C635.583 289.248 636.631 289.504 637.799 289.504C639.111 289.504 640.263 289.216 641.255 288.64V283.408ZM665.851 288.112H657.451L655.795 292H652.579L660.139 275.2H663.211L670.795 292H667.531L665.851 288.112ZM664.819 285.664L661.651 278.32L658.507 285.664H664.819ZM687.86 275.2V292H685.292L676.028 280.624V292H672.932V275.2H675.5L684.764 286.576V275.2H687.86ZM692.361 275.2H699.705C701.497 275.2 703.089 275.552 704.481 276.256C705.873 276.944 706.953 277.928 707.721 279.208C708.489 280.472 708.873 281.936 708.873 283.6C708.873 285.264 708.489 286.736 707.721 288.016C706.953 289.28 705.873 290.264 704.481 290.968C703.089 291.656 701.497 292 699.705 292H692.361V275.2ZM699.561 289.36C700.793 289.36 701.873 289.128 702.801 288.664C703.745 288.184 704.465 287.512 704.961 286.648C705.473 285.768 705.729 284.752 705.729 283.6C705.729 282.448 705.473 281.44 704.961 280.576C704.465 279.696 703.745 279.024 702.801 278.56C701.873 278.08 700.793 277.84 699.561 277.84H695.481V289.36H699.561ZM718.822 275.2H721.942V292H718.822V275.2ZM741.918 292L741.894 280.864L736.374 290.08H734.982L729.462 281.008V292H726.486V275.2H729.054L735.726 286.336L742.278 275.2H744.846L744.87 292H741.918ZM756.32 275.2C757.776 275.2 759.04 275.44 760.112 275.92C761.2 276.4 762.032 277.088 762.608 277.984C763.184 278.88 763.472 279.944 763.472 281.176C763.472 282.392 763.184 283.456 762.608 284.368C762.032 285.264 761.2 285.952 760.112 286.432C759.04 286.912 757.776 287.152 756.32 287.152H752.528V292H749.408V275.2H756.32ZM756.176 284.512C757.536 284.512 758.568 284.224 759.272 283.648C759.976 283.072 760.328 282.248 760.328 281.176C760.328 280.104 759.976 279.28 759.272 278.704C758.568 278.128 757.536 277.84 756.176 277.84H752.528V284.512H756.176ZM777.58 292L774.148 287.08C774.004 287.096 773.788 287.104 773.5 287.104H769.708V292H766.588V275.2H773.5C774.956 275.2 776.22 275.44 777.292 275.92C778.38 276.4 779.212 277.088 779.788 277.984C780.364 278.88 780.652 279.944 780.652 281.176C780.652 282.44 780.34 283.528 779.716 284.44C779.108 285.352 778.228 286.032 777.076 286.48L780.94 292H777.58ZM777.508 281.176C777.508 280.104 777.156 279.28 776.452 278.704C775.748 278.128 774.716 277.84 773.356 277.84H769.708V284.536H773.356C774.716 284.536 775.748 284.248 776.452 283.672C777.156 283.08 777.508 282.248 777.508 281.176ZM791.991 292.24C790.279 292.24 788.735 291.872 787.359 291.136C785.983 290.384 784.903 289.352 784.119 288.04C783.335 286.712 782.943 285.232 782.943 283.6C782.943 281.968 783.335 280.496 784.119 279.184C784.903 277.856 785.983 276.824 787.359 276.088C788.735 275.336 790.279 274.96 791.991 274.96C793.703 274.96 795.247 275.336 796.623 276.088C797.999 276.824 799.079 277.848 799.863 279.16C800.647 280.472 801.039 281.952 801.039 283.6C801.039 285.248 800.647 286.728 799.863 288.04C799.079 289.352 797.999 290.384 796.623 291.136C795.247 291.872 793.703 292.24 791.991 292.24ZM791.991 289.504C793.111 289.504 794.119 289.256 795.015 288.76C795.911 288.248 796.615 287.544 797.127 286.648C797.639 285.736 797.895 284.72 797.895 283.6C797.895 282.48 797.639 281.472 797.127 280.576C796.615 279.664 795.911 278.96 795.015 278.464C794.119 277.952 793.111 277.696 791.991 277.696C790.871 277.696 789.863 277.952 788.967 278.464C788.071 278.96 787.367 279.664 786.855 280.576C786.343 281.472 786.087 282.48 786.087 283.6C786.087 284.72 786.343 285.736 786.855 286.648C787.367 287.544 788.071 288.248 788.967 288.76C789.863 289.256 790.871 289.504 791.991 289.504ZM819.167 275.2L811.847 292H808.775L801.431 275.2H804.815L810.407 288.16L816.047 275.2H819.167ZM833.54 289.384V292H820.94V275.2H833.204V277.816H824.06V282.184H832.172V284.752H824.06V289.384H833.54ZM852.45 292L852.426 280.864L846.906 290.08H845.514L839.994 281.008V292H837.018V275.2H839.586L846.258 286.336L852.81 275.2H855.378L855.402 292H852.45ZM872.54 289.384V292H859.94V275.2H872.204V277.816H863.06V282.184H871.172V284.752H863.06V289.384H872.54ZM890.946 275.2V292H888.378L879.114 280.624V292H876.018V275.2H878.586L887.85 286.576V275.2H890.946ZM898.855 277.84H893.287V275.2H907.543V277.84H901.975V292H898.855V277.84Z" fill="black"/>
<g clip-path="url(#clip1)">
<path d="M1299.5 218.892L1298.82 222.193L1299.47 218.888C1297.65 218.529 1295.88 219.717 1295.52 221.542C1295.16 223.368 1296.34 225.139 1298.17 225.499C1298.18 225.5 1298.23 225.509 1298.23 225.511C1298.45 225.551 1298.66 225.572 1298.87 225.572C1300.45 225.572 1301.87 224.449 1302.17 222.835C1302.52 221.006 1301.33 219.241 1299.5 218.892Z" fill="black"/>
<path d="M1325.26 219.976L1325.59 223.327L1325.25 219.977C1323.4 220.167 1322.05 221.822 1322.24 223.673C1322.42 225.407 1323.88 226.698 1325.59 226.698C1325.7 226.698 1325.82 226.691 1325.94 226.681L1326.03 226.67C1327.87 226.454 1329.18 224.793 1328.97 222.95C1328.77 221.109 1327.1 219.783 1325.26 219.976Z" fill="black"/>
<path d="M1312.36 220.4C1312.36 220.4 1312.31 220.398 1312.31 220.398C1310.45 220.314 1308.9 221.756 1308.82 223.615C1308.74 225.473 1310.2 227.047 1312.05 227.131C1312.11 227.135 1312.16 227.135 1312.21 227.135C1314 227.135 1315.49 225.725 1315.57 223.918C1315.66 222.06 1314.22 220.484 1312.36 220.4Z" fill="black"/>
<path d="M1287.05 215.472L1287.01 215.456C1285.26 214.828 1283.35 215.744 1282.72 217.495C1282.09 219.246 1283.02 221.183 1284.77 221.813C1285.15 221.949 1285.53 222.012 1285.91 222.012C1287.29 222.012 1288.59 221.157 1289.08 219.781C1289.71 218.03 1288.8 216.1 1287.05 215.472Z" fill="black"/>
<path d="M1337.97 217.618L1338.8 220.883L1337.96 217.621C1336.16 218.084 1335.08 219.922 1335.54 221.724C1335.93 223.243 1337.3 224.254 1338.8 224.254C1339.08 224.254 1339.36 224.219 1339.64 224.145C1339.66 224.142 1339.72 224.126 1339.73 224.122C1341.52 223.635 1342.57 221.797 1342.09 220.006C1341.61 218.216 1339.77 217.151 1337.97 217.618Z" fill="black"/>
<path d="M1350.15 213.372L1351.49 216.464L1350.14 213.376C1348.44 214.12 1347.65 216.104 1348.4 217.81C1348.95 219.079 1350.19 219.835 1351.49 219.835C1351.94 219.835 1352.39 219.744 1352.83 219.554C1352.85 219.547 1352.9 219.524 1352.91 219.517C1354.6 218.754 1355.35 216.775 1354.59 215.081C1353.84 213.386 1351.85 212.627 1350.15 213.372Z" fill="black"/>
<path d="M1274.18 59.786C1274.72 59.786 1275.27 59.6562 1275.78 59.3859C1277.42 58.5103 1278.04 56.4695 1277.17 54.827C1276.29 53.1863 1274.25 52.5634 1272.61 53.4408L1272.57 53.4618C1270.93 54.3375 1270.33 56.3677 1271.2 58.0102C1271.81 59.1438 1272.98 59.786 1274.18 59.786Z" fill="black"/>
<path d="M1235.21 97.4181C1235.71 97.6795 1236.25 97.8041 1236.77 97.8041C1237.99 97.8041 1239.16 97.1478 1239.76 95.9985L1239.82 95.8809C1240.64 94.2104 1239.95 92.1906 1238.28 91.3712C1236.63 90.5535 1234.62 91.2273 1233.79 92.875C1232.93 94.521 1233.56 96.5547 1235.21 97.4181Z" fill="black"/>
<path d="M1230.47 110.093C1230.83 110.214 1231.19 110.272 1231.55 110.272C1232.95 110.272 1234.26 109.385 1234.74 107.982L1234.78 107.848C1235.33 106.071 1234.33 104.184 1232.55 103.639C1230.79 103.095 1228.92 104.074 1228.35 105.828C1227.76 107.589 1228.71 109.498 1230.47 110.093Z" fill="black"/>
<path d="M1241.86 85.6321C1242.46 86.0673 1243.15 86.2779 1243.84 86.2779C1244.88 86.2779 1245.91 85.7953 1246.57 84.8899L1246.61 84.8302C1247.69 83.3176 1247.34 81.2189 1245.83 80.138C1244.32 79.0553 1242.21 79.4027 1241.13 80.9118L1243.84 82.9087L1241.12 80.9258C1240.02 82.4314 1240.36 84.5389 1241.86 85.6321Z" fill="black"/>
<path d="M1262.75 67.0622C1263.45 67.0622 1264.16 66.8394 1264.77 66.3761C1266.28 65.2776 1266.6 63.1702 1265.5 61.6681C1264.4 60.166 1262.29 59.8414 1260.79 60.9399L1260.71 61.0013C1259.23 62.1261 1258.93 64.2441 1260.06 65.7269C1260.72 66.6007 1261.73 67.0622 1262.75 67.0622Z" fill="black"/>
<path d="M1227.46 161.186C1227.91 162.634 1229.24 163.562 1230.68 163.562C1231 163.562 1231.34 163.513 1231.67 163.411C1233.44 162.869 1234.44 160.995 1233.91 159.222C1233.4 157.454 1231.57 156.415 1229.78 156.901C1227.99 157.39 1226.93 159.243 1227.42 161.039C1227.43 161.074 1227.45 161.151 1227.46 161.186Z" fill="black"/>
<path d="M1252.57 75.9434C1253.44 75.9434 1254.32 75.6047 1254.98 74.9309C1256.29 73.6148 1256.29 71.4811 1254.98 70.1667C1253.66 68.8507 1251.53 68.8507 1250.21 70.1667L1250.16 70.2229C1248.86 71.5512 1248.88 73.6815 1250.21 74.9836C1250.87 75.6258 1251.72 75.9434 1252.57 75.9434Z" fill="black"/>
<path d="M1231.18 146.497C1230.95 144.667 1229.28 143.369 1227.44 143.586C1225.6 143.807 1224.28 145.483 1224.5 147.331L1224.52 147.466C1224.76 149.14 1226.2 150.34 1227.84 150.34C1228.01 150.34 1228.17 150.328 1228.34 150.304C1230.17 150.037 1231.44 148.331 1231.18 146.497Z" fill="black"/>
<path d="M1226.95 136.849C1226.99 136.849 1227.02 136.85 1227.05 136.85C1228.87 136.85 1230.37 135.406 1230.42 133.579L1230.42 133.436C1230.42 131.574 1228.91 130.066 1227.05 130.066C1225.21 130.066 1223.71 131.551 1223.68 133.392C1223.64 135.248 1225.1 136.794 1226.95 136.849Z" fill="black"/>
<path d="M1227.69 123.337C1227.89 123.372 1228.09 123.389 1228.29 123.389C1229.89 123.389 1231.31 122.243 1231.6 120.613C1231.61 120.564 1231.62 120.515 1231.62 120.466C1231.9 118.625 1230.62 116.912 1228.78 116.642C1226.96 116.372 1225.26 117.623 1224.96 119.438C1224.65 121.266 1225.86 123.008 1227.69 123.337Z" fill="black"/>
<path d="M1386.62 86.6954C1387.27 87.643 1388.32 88.1501 1389.39 88.1501C1390.05 88.1501 1390.72 87.9571 1391.3 87.5552C1392.83 86.5024 1393.22 84.4037 1392.17 82.87L1389.37 84.7441L1392.16 82.8542C1391.11 81.3136 1389.01 80.9117 1387.48 81.9558C1385.93 82.9999 1385.53 85.0951 1386.58 86.6357L1386.62 86.6954Z" fill="black"/>
<path d="M1403.82 120.599C1401.97 120.807 1400.64 122.475 1400.85 124.325L1400.87 124.47C1401.11 126.15 1402.55 127.362 1404.2 127.362C1404.36 127.362 1404.52 127.352 1404.68 127.329C1406.51 127.068 1407.78 125.385 1407.55 123.56C1407.34 121.715 1405.66 120.392 1403.82 120.599Z" fill="black"/>
<path d="M1398.14 111.091L1398.15 111.135C1398.58 112.604 1399.93 113.555 1401.38 113.555C1401.7 113.555 1402.02 113.511 1402.33 113.416C1404.12 112.892 1405.14 111.019 1404.62 109.233L1404.6 109.189C1404.08 107.403 1402.21 106.382 1400.42 106.908C1398.64 107.433 1397.61 109.305 1398.14 111.091Z" fill="black"/>
<path d="M1393.38 98.4931C1393.97 99.6881 1395.17 100.385 1396.42 100.385C1396.92 100.385 1397.42 100.274 1397.9 100.039C1399.57 99.2178 1400.26 97.2104 1399.44 95.5398L1396.38 96.9629L1399.43 95.5328C1398.64 93.8482 1396.64 93.1235 1394.95 93.9132C1393.27 94.7028 1392.54 96.7085 1393.33 98.3931L1393.38 98.4931Z" fill="black"/>
<path d="M1378.13 76.1716C1378.79 76.8454 1379.67 77.1823 1380.54 77.1823C1381.39 77.1823 1382.24 76.863 1382.9 76.219C1384.22 74.9275 1384.25 72.8165 1382.98 71.4864C1381.71 70.1264 1379.59 70.0439 1378.22 71.3039C1376.85 72.5655 1376.77 74.6976 1378.03 76.0645L1378.13 76.1716Z" fill="black"/>
<path d="M1404.92 134.665C1403.07 134.618 1401.52 136.069 1401.45 137.92C1401.37 139.765 1402.79 141.335 1404.63 141.439C1404.7 141.442 1404.76 141.444 1404.82 141.444C1406.6 141.444 1408.08 140.056 1408.18 138.261L1408.19 138.122C1408.24 136.264 1406.78 134.72 1404.92 134.665Z" fill="black"/>
<path d="M1356.59 59.6285L1356.67 59.6724C1357.17 59.9391 1357.71 60.0655 1358.24 60.0655C1359.44 60.0655 1360.6 59.4197 1361.21 58.2879C1362.08 56.6542 1361.47 54.6117 1359.84 53.7273L1358.21 56.6753L1359.83 53.7202C1358.2 52.8253 1356.15 53.4237 1355.25 55.0556C1354.36 56.6858 1354.96 58.7354 1356.59 59.6285Z" fill="black"/>
<path d="M1367.98 67.0191L1368.04 67.0595C1368.65 67.521 1369.36 67.7438 1370.07 67.7438C1371.09 67.7438 1372.09 67.2841 1372.76 66.4102C1373.88 64.9274 1373.59 62.8147 1372.11 61.6899L1372.09 61.6741C1370.61 60.5405 1368.5 60.8178 1367.36 62.2935C1366.23 63.7693 1366.51 65.8855 1367.98 67.0191Z" fill="black"/>
<path d="M1432.92 185.672L1417.1 169.828C1415.76 168.48 1413.97 167.738 1412.07 167.738C1410.16 167.738 1408.38 168.48 1407.03 169.828L1406.66 170.195L1405.63 169.156C1404.34 167.869 1403.35 166.373 1402.68 164.743C1402.62 164.527 1402.54 164.316 1402.44 164.118C1401.92 162.668 1401.65 161.126 1401.65 159.541V155.06C1401.96 155.221 1402.29 155.339 1402.65 155.4C1402.85 155.434 1403.04 155.449 1403.23 155.449C1404.83 155.449 1406.24 154.309 1406.54 152.687C1406.9 150.866 1405.71 149.095 1403.89 148.73C1403.09 148.571 1402.3 148.709 1401.63 149.071C1401.42 144.284 1399.47 139.813 1396.06 136.401L1380.72 121.031C1377.28 117.583 1372.7 115.685 1367.83 115.685C1364.06 115.685 1360.47 116.827 1357.44 118.941L1355.81 117.304V78.7698C1355.81 74.1249 1354.12 69.6432 1351.06 66.153C1348.89 63.6718 1347.69 60.4852 1347.69 57.1792V54.3558H1347.92C1351.85 54.3558 1355.04 51.1604 1355.04 47.2314V24.8196C1355.04 20.8907 1351.85 17.6953 1347.92 17.6953H1284.99C1281.06 17.6953 1277.86 20.8907 1277.86 24.8196V47.2314C1277.86 51.1604 1281.06 54.3558 1284.99 54.3558H1285.5V55.8333C1285.5 59.4656 1284.09 62.8804 1281.53 65.4476L1274.74 72.2526C1271.13 75.8639 1269.15 80.6631 1269.15 85.7695V107.506C1269.15 110.459 1269.86 113.247 1271.1 115.718C1266.64 115.976 1262.47 117.838 1259.28 121.031L1243.94 136.401C1240.33 140.013 1238.35 144.814 1238.35 149.918V159.541C1238.35 163.174 1236.94 166.589 1234.37 169.156L1233.35 170.184C1233.34 170.188 1233.34 170.191 1233.34 170.195L1232.97 169.828C1231.62 168.48 1229.84 167.738 1227.93 167.738C1226.03 167.738 1224.24 168.48 1222.9 169.828L1207.08 185.672C1204.31 188.449 1204.31 192.97 1207.08 195.747L1212.5 201.171C1213.81 202.489 1215.94 202.491 1217.26 201.177C1218.58 199.861 1218.58 197.729 1217.26 196.411L1211.85 190.985C1211.7 190.832 1211.7 190.585 1211.85 190.432L1227.67 174.588C1227.81 174.441 1228.05 174.439 1228.2 174.588L1230.95 177.343H1230.95L1268.5 214.955L1272.71 219.17C1272.86 219.323 1272.86 219.57 1272.71 219.723L1256.89 235.566C1256.74 235.716 1256.5 235.716 1256.35 235.566L1226.8 205.965C1225.49 204.648 1223.35 204.646 1222.04 205.96C1220.72 207.276 1220.72 209.408 1222.03 210.726L1251.59 240.327C1252.93 241.675 1254.72 242.417 1256.62 242.417C1258.53 242.417 1260.31 241.675 1261.66 240.327L1277.48 224.483C1280.25 221.707 1280.25 217.187 1277.48 214.409L1277.3 214.237L1279.3 212.239C1281.63 209.903 1284.72 208.499 1288.01 208.287C1292.65 207.987 1297 206.011 1300.28 202.724L1314.81 188.163C1319 187.063 1322.26 183.65 1323.15 179.375C1324.64 180.086 1326.31 180.486 1328.07 180.486C1334.41 180.486 1339.57 175.325 1339.57 168.98V160.98C1341.02 161.642 1342.62 162.014 1344.32 162.014C1350.66 162.014 1355.81 156.853 1355.81 150.508V126.857L1366.17 137.272C1366.83 137.933 1367.7 138.263 1368.56 138.263C1369.42 138.263 1370.28 137.937 1370.94 137.282C1372.26 135.97 1372.26 133.838 1370.95 132.518L1362.31 123.836C1363.98 122.914 1365.87 122.423 1367.83 122.423C1370.9 122.423 1373.78 123.62 1375.95 125.794L1391.29 141.162C1393.63 143.501 1394.91 146.611 1394.91 149.918V159.541C1394.91 164.972 1397.02 170.077 1400.86 173.916L1401.9 174.964L1397.01 179.86L1367.46 209.468L1365.81 207.817C1365.79 207.801 1365.78 207.783 1365.76 207.767L1365.47 207.476C1361.98 203.982 1357.35 201.882 1352.42 201.563C1349.43 201.368 1346.61 200.09 1344.48 197.957L1333.41 186.945C1332.09 185.633 1329.95 185.638 1328.64 186.958C1327.33 188.277 1327.33 190.411 1328.65 191.722L1339.72 202.724C1343 206.011 1347.35 207.987 1351.99 208.287C1355.28 208.499 1358.37 209.903 1360.7 212.237L1360.86 212.4C1360.95 212.5 1361.05 212.593 1361.14 212.681L1362.7 214.236L1362.52 214.409C1359.75 217.187 1359.75 221.706 1362.52 224.483L1378.34 240.327C1379.69 241.675 1381.47 242.417 1383.38 242.417C1385.28 242.417 1387.07 241.675 1388.42 240.327L1432.92 195.746C1435.69 192.968 1435.69 188.449 1432.92 185.672ZM1403.91 152.17L1403.85 152.159L1403.23 152.035L1403.91 152.17ZM1295.51 197.964C1293.39 200.09 1290.57 201.368 1287.58 201.563C1282.65 201.882 1278.02 203.982 1274.53 207.476L1272.54 209.468L1270.75 207.674C1270.73 207.652 1270.71 207.627 1270.68 207.606L1238.1 174.964L1239.14 173.916C1242.98 170.077 1245.09 164.972 1245.09 159.541V149.918C1245.09 146.611 1246.37 143.501 1248.71 141.162L1264.05 125.794C1266.22 123.62 1269.1 122.423 1272.17 122.423C1274.14 122.423 1276.03 122.918 1277.71 123.846L1269.05 132.515C1267.74 133.831 1267.74 135.964 1269.06 137.279C1269.72 137.935 1270.58 138.263 1271.44 138.263C1272.3 138.263 1273.17 137.933 1273.82 137.275L1284.16 126.919V168.98C1284.16 175.325 1289.32 180.486 1295.65 180.486C1297.44 180.486 1299.13 180.076 1300.64 179.346C1301.32 182.685 1303.46 185.5 1306.35 187.103L1295.51 197.964ZM1349.07 150.51C1349.07 153.138 1346.94 155.277 1344.32 155.277C1341.7 155.277 1339.57 153.138 1339.57 150.51V112.928C1339.57 111.068 1338.06 109.559 1336.2 109.559C1334.33 109.559 1332.83 111.068 1332.83 112.928V168.982C1332.83 171.611 1330.7 173.748 1328.07 173.748C1325.72 173.748 1323.77 172.025 1323.39 169.77V112.889C1323.39 111.028 1321.88 109.52 1320.02 109.52C1319.42 109.52 1318.86 109.678 1318.37 109.952C1317.31 110.519 1316.58 111.638 1316.58 112.928V168.98C1316.58 169.408 1316.61 169.828 1316.65 170.244V177.033C1316.65 179.661 1314.52 181.801 1311.9 181.801C1309.28 181.801 1307.15 179.661 1307.15 177.033V112.849C1307.15 110.989 1305.64 109.48 1303.78 109.48C1301.92 109.48 1300.41 110.989 1300.41 112.849V168.98C1300.41 171.609 1298.27 173.748 1295.65 173.748C1293.03 173.748 1290.9 171.609 1290.9 168.98V106.309C1290.9 104.447 1289.39 102.938 1287.53 102.938C1285.67 102.938 1284.16 104.447 1284.16 106.309V117.901C1283.88 117.992 1283.61 118.12 1283.35 118.289C1278.99 116.652 1275.89 112.437 1275.89 107.506V85.7695C1275.89 82.4618 1277.17 79.3523 1279.51 77.0132L1286.3 70.2083C1290.13 66.3689 1292.24 61.2643 1292.24 55.8333V54.3558H1299.02C1300.88 54.3558 1302.39 52.8467 1302.39 50.9866C1302.39 49.1248 1300.88 47.6175 1299.02 47.6175H1284.99C1284.77 47.6175 1284.6 47.4438 1284.6 47.2314V24.8196C1284.6 24.6073 1284.77 24.4336 1284.99 24.4336H1347.92C1348.13 24.4336 1348.3 24.6073 1348.3 24.8196V47.2314C1348.3 47.4455 1348.13 47.6175 1347.92 47.6175H1314.83C1312.97 47.6175 1311.46 49.1248 1311.46 50.9866C1311.46 52.8467 1312.97 54.3558 1314.83 54.3558H1340.95V57.1792C1340.95 62.1206 1342.74 66.8848 1346 70.5978C1347.98 72.858 1349.07 75.7603 1349.07 78.7698V150.51ZM1428.15 190.985L1383.65 235.566C1383.57 235.642 1383.48 235.679 1383.38 235.679C1383.27 235.679 1383.19 235.642 1383.11 235.566L1367.29 219.723C1367.14 219.57 1367.14 219.323 1367.29 219.17L1369.84 216.618L1369.84 216.617L1395.68 190.738L1411.8 174.588C1411.95 174.439 1412.19 174.439 1412.33 174.588L1428.15 190.432C1428.3 190.585 1428.3 190.832 1428.15 190.985Z" fill="black"/>
<path d="M1295.65 32.4336C1293.68 32.4336 1292.07 34.0462 1292.07 36.0273C1292.07 38.0102 1293.68 39.6211 1295.65 39.6211C1297.63 39.6211 1299.24 38.0102 1299.24 36.0273C1299.24 34.0462 1297.63 32.4336 1295.65 32.4336Z" fill="black"/>
<path d="M1413.17 186.012C1411.19 186.012 1409.58 187.624 1409.58 189.605C1409.58 191.587 1411.19 193.199 1413.17 193.199C1415.15 193.199 1416.76 191.587 1416.76 189.605C1416.76 187.624 1415.15 186.012 1413.17 186.012Z" fill="black"/>
<path d="M1261.14 220.383C1261.14 218.402 1259.54 216.789 1257.56 216.789C1255.58 216.789 1253.97 218.402 1253.97 220.383C1253.97 222.364 1255.58 223.977 1257.56 223.977C1259.54 223.977 1261.14 222.364 1261.14 220.383Z" fill="black"/>
</g>
<path d="M1222.03 292.24C1220.34 292.24 1218.8 291.872 1217.42 291.136C1216.06 290.384 1214.99 289.352 1214.21 288.04C1213.44 286.728 1213.06 285.248 1213.06 283.6C1213.06 281.952 1213.45 280.472 1214.23 279.16C1215.02 277.848 1216.09 276.824 1217.45 276.088C1218.82 275.336 1220.36 274.96 1222.06 274.96C1223.43 274.96 1224.69 275.2 1225.82 275.68C1226.96 276.16 1227.92 276.856 1228.7 277.768L1226.69 279.664C1225.47 278.352 1223.98 277.696 1222.2 277.696C1221.05 277.696 1220.02 277.952 1219.1 278.464C1218.19 278.96 1217.48 279.656 1216.97 280.552C1216.46 281.448 1216.2 282.464 1216.2 283.6C1216.2 284.736 1216.46 285.752 1216.97 286.648C1217.48 287.544 1218.19 288.248 1219.1 288.76C1220.02 289.256 1221.05 289.504 1222.2 289.504C1223.98 289.504 1225.47 288.84 1226.69 287.512L1228.7 289.432C1227.92 290.344 1226.95 291.04 1225.8 291.52C1224.66 292 1223.41 292.24 1222.03 292.24ZM1239.19 292.24C1237.48 292.24 1235.93 291.872 1234.56 291.136C1233.18 290.384 1232.1 289.352 1231.32 288.04C1230.53 286.712 1230.14 285.232 1230.14 283.6C1230.14 281.968 1230.53 280.496 1231.32 279.184C1232.1 277.856 1233.18 276.824 1234.56 276.088C1235.93 275.336 1237.48 274.96 1239.19 274.96C1240.9 274.96 1242.45 275.336 1243.82 276.088C1245.2 276.824 1246.28 277.848 1247.06 279.16C1247.85 280.472 1248.24 281.952 1248.24 283.6C1248.24 285.248 1247.85 286.728 1247.06 288.04C1246.28 289.352 1245.2 290.384 1243.82 291.136C1242.45 291.872 1240.9 292.24 1239.19 292.24ZM1239.19 289.504C1240.31 289.504 1241.32 289.256 1242.21 288.76C1243.11 288.248 1243.81 287.544 1244.33 286.648C1244.84 285.736 1245.09 284.72 1245.09 283.6C1245.09 282.48 1244.84 281.472 1244.33 280.576C1243.81 279.664 1243.11 278.96 1242.21 278.464C1241.32 277.952 1240.31 277.696 1239.19 277.696C1238.07 277.696 1237.06 277.952 1236.17 278.464C1235.27 278.96 1234.57 279.664 1234.05 280.576C1233.54 281.472 1233.29 282.48 1233.29 283.6C1233.29 284.72 1233.54 285.736 1234.05 286.648C1234.57 287.544 1235.27 288.248 1236.17 288.76C1237.06 289.256 1238.07 289.504 1239.19 289.504ZM1251.55 275.2H1254.67V289.36H1263.45V292H1251.55V275.2ZM1265.91 275.2H1269.03V289.36H1277.82V292H1265.91V275.2ZM1291.29 288.112H1282.89L1281.24 292H1278.02L1285.58 275.2H1288.65L1296.24 292H1292.97L1291.29 288.112ZM1290.26 285.664L1287.09 278.32L1283.95 285.664H1290.26ZM1310.28 283.264C1311.21 283.568 1311.94 284.08 1312.49 284.8C1313.03 285.504 1313.3 286.384 1313.3 287.44C1313.3 288.896 1312.74 290.024 1311.62 290.824C1310.5 291.608 1308.87 292 1306.73 292H1298.37V275.2H1306.25C1308.23 275.2 1309.76 275.592 1310.83 276.376C1311.9 277.144 1312.44 278.208 1312.44 279.568C1312.44 280.4 1312.25 281.136 1311.86 281.776C1311.48 282.416 1310.95 282.912 1310.28 283.264ZM1301.49 277.648V282.28H1305.91C1307 282.28 1307.83 282.088 1308.41 281.704C1309 281.304 1309.29 280.728 1309.29 279.976C1309.29 279.208 1309 278.632 1308.41 278.248C1307.83 277.848 1307 277.648 1305.91 277.648H1301.49ZM1306.53 289.552C1308.95 289.552 1310.16 288.744 1310.16 287.128C1310.16 285.512 1308.95 284.704 1306.53 284.704H1301.49V289.552H1306.53ZM1324.48 292.24C1322.77 292.24 1321.22 291.872 1319.85 291.136C1318.47 290.384 1317.39 289.352 1316.61 288.04C1315.82 286.712 1315.43 285.232 1315.43 283.6C1315.43 281.968 1315.82 280.496 1316.61 279.184C1317.39 277.856 1318.47 276.824 1319.85 276.088C1321.22 275.336 1322.77 274.96 1324.48 274.96C1326.19 274.96 1327.74 275.336 1329.11 276.088C1330.49 276.824 1331.57 277.848 1332.35 279.16C1333.14 280.472 1333.53 281.952 1333.53 283.6C1333.53 285.248 1333.14 286.728 1332.35 288.04C1331.57 289.352 1330.49 290.384 1329.11 291.136C1327.74 291.872 1326.19 292.24 1324.48 292.24ZM1324.48 289.504C1325.6 289.504 1326.61 289.256 1327.5 288.76C1328.4 288.248 1329.1 287.544 1329.62 286.648C1330.13 285.736 1330.38 284.72 1330.38 283.6C1330.38 282.48 1330.13 281.472 1329.62 280.576C1329.1 279.664 1328.4 278.96 1327.5 278.464C1326.61 277.952 1325.6 277.696 1324.48 277.696C1323.36 277.696 1322.35 277.952 1321.46 278.464C1320.56 278.96 1319.86 279.664 1319.34 280.576C1318.83 281.472 1318.58 282.48 1318.58 283.6C1318.58 284.72 1318.83 285.736 1319.34 286.648C1319.86 287.544 1320.56 288.248 1321.46 288.76C1322.35 289.256 1323.36 289.504 1324.48 289.504ZM1347.83 292L1344.39 287.08C1344.25 287.096 1344.03 287.104 1343.75 287.104H1339.95V292H1336.83V275.2H1343.75C1345.2 275.2 1346.47 275.44 1347.54 275.92C1348.63 276.4 1349.46 277.088 1350.03 277.984C1350.61 278.88 1350.9 279.944 1350.9 281.176C1350.9 282.44 1350.59 283.528 1349.96 284.44C1349.35 285.352 1348.47 286.032 1347.32 286.48L1351.19 292H1347.83ZM1347.75 281.176C1347.75 280.104 1347.4 279.28 1346.7 278.704C1345.99 278.128 1344.96 277.84 1343.6 277.84H1339.95V284.536H1343.6C1344.96 284.536 1345.99 284.248 1346.7 283.672C1347.4 283.08 1347.75 282.248 1347.75 281.176ZM1365.28 288.112H1356.88L1355.23 292H1352.01L1359.57 275.2H1362.64L1370.23 292H1366.96L1365.28 288.112ZM1364.25 285.664L1361.08 278.32L1357.94 285.664H1364.25ZM1374.93 277.84H1369.36V275.2H1383.62V277.84H1378.05V292H1374.93V277.84ZM1385.96 275.2H1389.08V292H1385.96V275.2ZM1401.47 292.24C1399.76 292.24 1398.22 291.872 1396.84 291.136C1395.46 290.384 1394.38 289.352 1393.6 288.04C1392.82 286.712 1392.42 285.232 1392.42 283.6C1392.42 281.968 1392.82 280.496 1393.6 279.184C1394.38 277.856 1395.46 276.824 1396.84 276.088C1398.22 275.336 1399.76 274.96 1401.47 274.96C1403.18 274.96 1404.73 275.336 1406.1 276.088C1407.48 276.824 1408.56 277.848 1409.34 279.16C1410.13 280.472 1410.52 281.952 1410.52 283.6C1410.52 285.248 1410.13 286.728 1409.34 288.04C1408.56 289.352 1407.48 290.384 1406.1 291.136C1404.73 291.872 1403.18 292.24 1401.47 292.24ZM1401.47 289.504C1402.59 289.504 1403.6 289.256 1404.5 288.76C1405.39 288.248 1406.1 287.544 1406.61 286.648C1407.12 285.736 1407.38 284.72 1407.38 283.6C1407.38 282.48 1407.12 281.472 1406.61 280.576C1406.1 279.664 1405.39 278.96 1404.5 278.464C1403.6 277.952 1402.59 277.696 1401.47 277.696C1400.35 277.696 1399.34 277.952 1398.45 278.464C1397.55 278.96 1396.85 279.664 1396.34 280.576C1395.82 281.472 1395.57 282.48 1395.57 283.6C1395.57 284.72 1395.82 285.736 1396.34 286.648C1396.85 287.544 1397.55 288.248 1398.45 288.76C1399.34 289.256 1400.35 289.504 1401.47 289.504ZM1428.75 275.2V292H1426.19L1416.92 280.624V292H1413.83V275.2H1416.39L1425.66 286.576V275.2H1428.75Z" fill="black"/>
<defs>
<clipPath id="clip0">
<rect width="226" height="226" fill="white" transform="translate(590)"/>
</clipPath>
<clipPath id="clip1">
<rect width="230" height="230" fill="white" transform="translate(1205 15)"/>
</clipPath>
</defs>
</svg>
