<svg width="221" height="735" viewBox="0 0 221 735" fill="none" xmlns="http://www.w3.org/2000/svg">
<path d="M171.798 19.0428C169.956 13.2499 167.46 9.10207 167.354 8.92775C166.945 8.25305 166.102 7.90208 165.338 8.07718C165.141 8.12231 160.426 9.22269 154.988 11.9386C147.647 15.6039 142.518 20.4972 140.156 26.087C138.189 30.7422 137.907 36.4332 139.302 42.7202C136.33 39.4012 132.987 36.4978 129.343 34.0534C128.23 31.855 125.288 26.4427 120.688 20.7859C119.172 18.9237 116.258 21.2606 117.789 23.1415C120.888 26.9539 123.221 30.7033 124.681 33.2791L107.667 29.9625L91.5021 7.91376C93.0717 7.93555 94.6468 8.0873 96.214 8.39468C101.183 9.36743 106.091 11.8981 110.804 15.9152C112.651 17.4895 115.05 14.6242 113.227 13.0717C108.02 8.63437 102.538 5.82663 96.9315 4.72859C88.3737 3.05391 78.3925 5.25232 68.0643 11.0888C60.3663 15.4389 55.2185 20.2171 55.0038 20.4179C54.3151 21.0614 54.2053 22.2303 54.782 22.982C55.5368 24.5306 58.3975 30.1173 63.1593 36.132C65.9662 39.6783 68.9265 42.7132 71.9887 45.2074C71.1187 45.9365 70.272 46.6992 69.4526 47.5015C65.076 51.7824 61.7251 56.8321 59.5251 62.3526C57.5804 67.2304 56.5345 72.4778 56.4761 77.8863C56.3796 86.7305 58.9422 95.2603 63.8885 102.555C68.7203 109.68 75.4751 115.151 83.422 118.375C85.6461 119.276 87.0523 115.816 84.8267 114.914C81.9473 113.746 79.2423 112.249 76.7474 110.469C77.0665 108.7 77.8065 102.331 73.5763 95.7381C72.984 94.816 74.7544 91.1942 75.8112 89.0308C76.9023 86.8013 78.0283 84.4963 78.5544 82.3259C79.1131 80.0201 78.4843 78.0847 76.7373 76.7267C75.4548 75.7299 73.7762 75.2139 72.2969 74.7587C71.3358 74.463 70.2463 74.1283 69.8572 73.8038C69.0557 73.1322 67.7468 70.6506 66.6946 68.6576C65.5273 66.4467 64.4161 64.3425 63.2815 63.0468C65.8347 56.9831 69.9358 51.6174 75.0719 47.5124C79.7637 50.7085 85.1185 52.9139 90.8102 53.3606C84.2096 58.4749 82.0742 65.0063 85.1263 71.2801C88.6904 78.6061 96.0265 77.4357 102.499 76.4046C103.619 76.2256 104.777 76.0412 105.887 75.9026C106.303 75.8505 106.429 75.9641 106.513 76.038C107.93 77.2987 107.888 83.3196 107.857 87.7165C107.816 93.7981 107.777 99.5428 110.043 102.492C111.198 103.996 112.825 104.764 114.733 104.764C115.876 104.764 117.118 104.489 118.421 103.93C124.054 101.518 129.91 94.2572 129.017 88.5126C128.236 83.4901 127.719 80.1718 128.937 77.4972C130.063 75.0217 132.785 72.7299 138.146 69.8055C138.789 72.6965 139.112 75.7042 139.079 78.7897C138.964 89.3219 134.754 99.1793 127.225 106.545C118.811 114.777 106.984 118.842 95.2857 117.553C92.902 117.294 92.4904 121.003 94.8771 121.266C107.682 122.676 120.629 118.225 129.837 109.216C138.08 101.151 142.689 90.3608 142.814 78.8294C142.981 63.5402 135.136 49.9948 123.193 42.1918C125.661 40.4323 127.499 38.911 128.519 38.0277C132.873 41.1514 136.735 44.9996 139.948 49.4828C147.662 60.2476 150.721 73.3704 148.563 86.4363C144.108 113.408 118.542 131.729 91.5659 127.272C78.4991 125.114 67.0557 117.999 59.3422 107.234C51.6279 96.4696 48.5688 83.3453 50.7268 70.2802C51.1143 67.9292 47.4311 67.3121 47.042 69.6716C44.7206 83.722 48.0116 97.8346 56.3049 109.41C64.5997 120.984 76.9069 128.637 90.9573 130.959C93.8958 131.443 96.8374 131.683 99.7587 131.683C110.801 131.683 121.544 128.254 130.698 121.695C142.275 113.4 149.928 101.095 152.248 87.0449C153.949 76.7493 152.633 66.4203 148.546 57.0803C150.432 56.5239 153.642 55.4438 157.158 53.6882C164.498 50.0229 169.627 45.1295 171.989 39.5397C174.353 33.9484 174.287 26.8606 171.798 19.0428ZM63.3904 70.4008C64.7803 73.0358 66.0946 75.526 67.4604 76.6684C68.4277 77.4769 69.774 77.8909 71.1989 78.3291C74.8494 79.4512 75.2735 80.0022 74.9233 81.4457C74.4937 83.2208 73.4572 85.3406 72.4556 87.3896C70.5265 91.3366 68.7047 95.0627 70.4315 97.7552C72.8805 101.572 73.3 105.329 73.258 107.666C62.1328 97.6338 57.6029 81.7889 61.7469 67.3876C62.2963 68.3292 62.8737 69.4234 63.3904 70.4008ZM153.759 33.6955L148.451 20.8319C151.033 18.4163 154.03 16.5985 156.583 15.3183C158.757 14.2273 160.826 13.4117 162.485 12.8335L153.759 33.6955ZM165.928 14.2818C166.67 15.8755 167.53 17.9307 168.264 20.2537C169.07 22.803 169.809 25.9625 169.956 29.2582L157.517 34.3904L165.928 14.2818ZM143.596 27.5415C144.147 26.2388 144.859 25.031 145.682 23.9159L151.725 38.5577L146.302 51.524C145.54 49.9077 144.643 47.7848 143.882 45.3731C142.354 40.5444 141.066 33.5297 143.596 27.5415ZM155.563 50.3085C153.47 51.359 151.473 52.1543 149.847 52.7279L155.474 39.2752L169.797 33.3647C169.59 34.9694 169.194 36.56 168.548 38.0853C166.018 44.0735 160.09 48.0385 155.563 50.3085ZM88.2118 49.2454C87.5519 49.1163 86.9006 48.9583 86.2586 48.7785L106.931 33.6254L123.952 36.9429C117.751 41.8284 102.661 52.0765 88.2118 49.2454ZM69.3195 37.5592C64.8986 32.7943 61.6581 27.6995 59.7975 24.4372L81.4586 28.6605L69.3195 37.5592ZM73.1451 12.639L82.208 25.0007L60.4068 20.7509C63.1515 18.5836 67.6822 15.33 73.1451 12.639ZM87.6118 26.0543L76.6245 11.067C79.9139 9.71529 83.4446 8.65149 87.064 8.17834L102.264 28.9096L87.6118 26.0543ZM86.4492 29.6333L101.941 32.6527L82.0586 47.226C78.3093 45.4945 74.935 43.0051 71.9825 40.2378L86.4492 29.6333ZM137.132 66.1074C130.398 69.6949 127.101 72.5128 125.537 75.9501C123.856 79.6411 124.472 83.6029 125.324 89.0861C125.828 92.3195 121.985 98.3404 116.95 100.497C115.087 101.294 113.76 101.2 113.004 100.216C111.52 98.2844 111.561 92.4386 111.593 87.7421C111.637 81.2442 111.676 75.6326 108.995 73.2474C108.031 72.3898 106.798 72.0272 105.427 72.1953C104.253 72.3416 103.061 72.5315 101.91 72.7151C95.0444 73.8093 90.7239 74.2474 88.4858 69.6459C84.8594 62.1931 92.2001 56.6726 95.5246 54.6454C96.2016 54.2329 96.8296 53.7465 97.4132 53.2049C105.448 52.2446 113.04 48.7972 119.806 44.479C127.918 49.3256 134.145 56.9955 137.132 66.1074Z" fill="black"/>
<path d="M16.1867 175.24C14.8907 175.24 13.6347 175.056 12.4187 174.688C11.2187 174.32 10.2667 173.832 9.56266 173.224L10.6427 170.8C11.3307 171.344 12.1707 171.792 13.1627 172.144C14.1707 172.48 15.1787 172.648 16.1867 172.648C17.4347 172.648 18.3627 172.448 18.9707 172.048C19.5947 171.648 19.9067 171.12 19.9067 170.464C19.9067 169.984 19.7307 169.592 19.3787 169.288C19.0427 168.968 18.6107 168.72 18.0827 168.544C17.5547 168.368 16.8347 168.168 15.9227 167.944C14.6427 167.64 13.6027 167.336 12.8027 167.032C12.0187 166.728 11.3387 166.256 10.7627 165.616C10.2027 164.96 9.92266 164.08 9.92266 162.976C9.92266 162.048 10.1707 161.208 10.6667 160.456C11.1787 159.688 11.9387 159.08 12.9467 158.632C13.9707 158.184 15.2187 157.96 16.6907 157.96C17.7147 157.96 18.7227 158.088 19.7147 158.344C20.7067 158.6 21.5627 158.968 22.2827 159.448L21.2987 161.872C20.5627 161.44 19.7947 161.112 18.9947 160.888C18.1947 160.664 17.4187 160.552 16.6667 160.552C15.4347 160.552 14.5147 160.76 13.9067 161.176C13.3147 161.592 13.0187 162.144 13.0187 162.832C13.0187 163.312 13.1867 163.704 13.5227 164.008C13.8747 164.312 14.3147 164.552 14.8427 164.728C15.3707 164.904 16.0907 165.104 17.0027 165.328C18.2507 165.616 19.2747 165.92 20.0747 166.24C20.8747 166.544 21.5547 167.016 22.1147 167.656C22.6907 168.296 22.9787 169.16 22.9787 170.248C22.9787 171.176 22.7227 172.016 22.2107 172.768C21.7147 173.52 20.9547 174.12 19.9307 174.568C18.9067 175.016 17.6587 175.24 16.1867 175.24ZM33.2964 175.24C30.9764 175.24 29.1684 174.592 27.8724 173.296C26.5764 171.984 25.9284 170.112 25.9284 167.68V158.2H29.0484V167.56C29.0484 170.856 30.4724 172.504 33.3204 172.504C36.1524 172.504 37.5684 170.856 37.5684 167.56V158.2H40.6404V167.68C40.6404 170.112 39.9924 171.984 38.6964 173.296C37.4164 174.592 35.6164 175.24 33.2964 175.24ZM50.2179 175.24C48.9219 175.24 47.6659 175.056 46.4499 174.688C45.2499 174.32 44.2979 173.832 43.5939 173.224L44.6739 170.8C45.3619 171.344 46.2019 171.792 47.1939 172.144C48.2019 172.48 49.2099 172.648 50.2179 172.648C51.4659 172.648 52.3939 172.448 53.0019 172.048C53.6259 171.648 53.9379 171.12 53.9379 170.464C53.9379 169.984 53.7619 169.592 53.4099 169.288C53.0739 168.968 52.6419 168.72 52.1139 168.544C51.5859 168.368 50.8659 168.168 49.9539 167.944C48.6739 167.64 47.6339 167.336 46.8339 167.032C46.0499 166.728 45.3699 166.256 44.7939 165.616C44.2339 164.96 43.9539 164.08 43.9539 162.976C43.9539 162.048 44.2019 161.208 44.6979 160.456C45.2099 159.688 45.9699 159.08 46.9779 158.632C48.0019 158.184 49.2499 157.96 50.7219 157.96C51.7459 157.96 52.7539 158.088 53.7459 158.344C54.7379 158.6 55.5939 158.968 56.3139 159.448L55.3299 161.872C54.5939 161.44 53.8259 161.112 53.0259 160.888C52.2259 160.664 51.4499 160.552 50.6979 160.552C49.4659 160.552 48.5459 160.76 47.9379 161.176C47.3459 161.592 47.0499 162.144 47.0499 162.832C47.0499 163.312 47.2179 163.704 47.5539 164.008C47.9059 164.312 48.3459 164.552 48.8739 164.728C49.4019 164.904 50.1219 165.104 51.0339 165.328C52.2819 165.616 53.3059 165.92 54.1059 166.24C54.9059 166.544 55.5859 167.016 56.1459 167.656C56.7219 168.296 57.0099 169.16 57.0099 170.248C57.0099 171.176 56.7539 172.016 56.2419 172.768C55.7459 173.52 54.9859 174.12 53.9619 174.568C52.9379 175.016 51.6899 175.24 50.2179 175.24ZM63.2773 160.84H57.7093V158.2H71.9653V160.84H66.3973V175H63.2773V160.84ZM84.359 171.112H75.959L74.303 175H71.087L78.647 158.2H81.719L89.303 175H86.039L84.359 171.112ZM83.327 168.664L80.159 161.32L77.015 168.664H83.327ZM91.4396 158.2H94.5596V175H91.4396V158.2ZM114.032 158.2V175H111.464L102.2 163.624V175H99.1037V158.2H101.672L110.936 169.576V158.2H114.032ZM129.429 171.112H121.029L119.373 175H116.157L123.717 158.2H126.789L134.373 175H131.109L129.429 171.112ZM128.397 168.664L125.229 161.32L122.085 168.664H128.397ZM148.414 166.264C149.342 166.568 150.078 167.08 150.622 167.8C151.166 168.504 151.438 169.384 151.438 170.44C151.438 171.896 150.878 173.024 149.758 173.824C148.638 174.608 147.006 175 144.862 175H136.51V158.2H144.382C146.366 158.2 147.894 158.592 148.966 159.376C150.038 160.144 150.574 161.208 150.574 162.568C150.574 163.4 150.382 164.136 149.998 164.776C149.614 165.416 149.086 165.912 148.414 166.264ZM139.63 160.648V165.28H144.046C145.134 165.28 145.966 165.088 146.542 164.704C147.134 164.304 147.43 163.728 147.43 162.976C147.43 162.208 147.134 161.632 146.542 161.248C145.966 160.848 145.134 160.648 144.046 160.648H139.63ZM144.67 172.552C147.086 172.552 148.294 171.744 148.294 170.128C148.294 168.512 147.086 167.704 144.67 167.704H139.63V172.552H144.67ZM154.768 158.2H157.888V175H154.768V158.2ZM162.432 158.2H165.552V172.36H174.336V175H162.432V158.2ZM176.799 158.2H179.919V175H176.799V158.2ZM187.871 160.84H182.303V158.2H196.559V160.84H190.991V175H187.871V160.84ZM205.914 169.072V175H202.794V169.12L196.194 158.2H199.53L204.45 166.384L209.418 158.2H212.49L205.914 169.072Z" fill="black"/>
<g clip-path="url(#clip0)">
<path d="M168.734 254C168.734 254 168.734 254 168.733 254H37.2667C36.0152 254 35.0003 255.014 35 256.266C35 256.266 35 256.266 35 256.267V301.6H39.5333V258.533H166.467V308.4H87.1333V312.933H168.733C169.985 312.934 171 311.919 171 310.668C171 310.668 171 310.667 171 310.667V256.267C171 255.015 169.986 254 168.734 254Z" fill="black"/>
<path d="M155.134 265.333H109.801V269.867H155.134V265.333Z" fill="black"/>
<path d="M161.935 278.933H116.602V283.466H161.935V278.933Z" fill="black"/>
<path d="M152.868 292.533H107.535V297.067H152.868V292.533Z" fill="black"/>
<path d="M107.353 273.543C105.801 269.813 101.519 268.047 97.7892 269.599C97.7255 269.625 97.662 269.653 97.5991 269.681L79.2198 279.215C79.9446 277.713 80.3251 276.068 80.3333 274.4C80.3333 268.141 75.2591 263.067 69 263.067C62.7409 263.067 57.6667 268.141 57.6667 274.4C57.6752 276.86 58.492 279.25 59.9914 281.2H59.8971C53.4631 281.243 47.7197 285.243 45.4482 291.263L39.3973 312.119C37.9569 315.861 39.8223 320.062 43.5643 321.502C45.2706 322.159 47.1618 322.148 48.8604 321.471C50.812 320.685 52.3306 319.097 53.0296 317.113L55.4 309.569V342.374C53.4495 340.875 51.0602 340.058 48.6 340.049C42.3502 340.04 37.276 345.099 37.2667 351.349C37.2621 354.41 38.4975 357.342 40.6913 359.476C37.2097 361.255 35.0136 364.83 35 368.739V387.734C34.9997 388.985 36.014 390 37.2655 390H37.2667H59.9333C61.1848 390.001 62.1997 388.986 62.2 387.735V387.734V368.739C62.189 365.526 60.6963 362.499 58.1551 360.534H75.3118C72.7703 362.499 71.2777 365.526 71.267 368.739V387.734C71.2667 388.985 72.281 390 73.5325 390H73.5336H96.2003C97.4518 390.001 98.4667 388.986 98.467 387.735V387.734V368.739C98.4534 364.83 96.2572 361.255 92.7756 359.476C97.2509 355.108 97.3379 347.939 92.9697 343.464C90.2797 340.708 86.3734 339.508 82.6003 340.279V293.91L103.409 283.106C107.138 281.554 108.904 277.273 107.353 273.543ZM69 267.6C72.7556 267.6 75.8 274.4 75.8 274.4C75.8 274.4 72.7556 281.2 69 281.2C65.2461 281.196 62.204 278.154 62.2 274.4C62.2 270.645 65.2444 267.6 69 267.6ZM48.6 344.583C52.3556 344.583 55.4 347.627 55.4 351.383C55.4 355.138 52.3556 358.183 48.6 358.183C44.8444 358.183 41.8 355.138 41.8 351.383C41.804 347.629 44.8461 344.587 48.6 344.583ZM57.6667 385.467H39.5333V368.739C39.5379 365.461 42.1947 362.804 45.4734 362.8H51.7266C55.005 362.804 57.6621 365.461 57.6667 368.739V385.467ZM93.9333 368.739V385.467H75.8V368.739C75.8045 365.461 78.4613 362.804 81.7401 362.8H87.9933C91.272 362.804 93.9288 365.461 93.9333 368.739ZM84.8667 344.583C88.6205 344.587 91.6627 347.629 91.6667 351.383C91.6667 355.138 88.6222 358.183 84.8667 358.183C81.1111 358.183 78.0667 355.138 78.0667 351.383C78.0667 347.627 81.1111 344.583 84.8667 344.583ZM103.205 277.324C102.901 278.103 102.278 278.714 101.494 279.002L79.2898 290.521C78.5384 290.911 78.0667 291.687 78.0667 292.534V342.374C73.8209 345.513 72.3501 351.195 74.5397 356H71.2667V317.467H66.7333V356H58.9269C59.5718 354.575 59.9115 353.031 59.9248 351.467H59.9333V294.8C59.933 293.548 58.9179 292.534 57.6661 292.534C56.6764 292.534 55.8012 293.176 55.5043 294.121L48.736 315.658C48.2232 317.073 46.6606 317.804 45.2462 317.291C45.147 317.255 45.0498 317.213 44.9552 317.166C43.6476 316.49 43.0926 314.912 43.6893 313.567L49.7398 292.711C51.3716 288.52 55.3997 285.753 59.8968 285.734H75.9462C76.3094 285.734 76.6676 285.647 76.99 285.479L99.5184 273.785C100.87 273.221 102.428 273.798 103.086 275.107C103.434 275.796 103.478 276.601 103.205 277.324Z" fill="black"/>
<path d="M129.044 359.476C133.527 355.108 133.621 347.933 129.253 343.449C124.885 338.966 117.709 338.873 113.226 343.241C108.743 347.608 108.65 354.784 113.017 359.267C113.086 359.338 113.156 359.407 113.226 359.476C109.745 361.255 107.549 364.829 107.535 368.739V387.733C107.535 388.985 108.549 389.999 109.801 390C109.801 390 109.802 390 109.802 390H132.468C133.72 390 134.735 388.986 134.735 387.734C134.735 387.734 134.735 387.733 134.735 387.733V368.739C134.722 364.829 132.525 361.255 129.044 359.476ZM121.135 344.582C124.891 344.582 127.935 347.627 127.935 351.382C127.935 355.138 124.891 358.182 121.135 358.182C117.38 358.182 114.335 355.138 114.335 351.382C114.339 347.628 117.381 344.586 121.135 344.582ZM130.202 385.466H112.068V368.739C112.073 365.46 114.73 362.804 118.009 362.8H124.262C127.54 362.804 130.197 365.46 130.202 368.739V385.466Z" fill="black"/>
<path d="M165.309 359.476C169.793 355.108 169.886 347.933 165.518 343.449C161.15 338.966 153.975 338.873 149.492 343.241C145.009 347.608 144.915 354.784 149.283 359.267C149.352 359.338 149.422 359.407 149.492 359.476C146.011 361.255 143.814 364.829 143.801 368.739V387.733C143.8 388.985 144.815 389.999 146.066 390C146.067 390 146.067 390 146.067 390H168.734C169.986 390 171 388.986 171.001 387.734C171.001 387.734 171.001 387.733 171.001 387.733V368.739C170.987 364.829 168.791 361.255 165.309 359.476ZM157.401 344.582C161.156 344.582 164.201 347.627 164.201 351.382C164.201 355.138 161.156 358.182 157.401 358.182C153.645 358.182 150.601 355.138 150.601 351.382C150.605 347.628 153.647 344.586 157.401 344.582ZM166.467 385.466H148.334V368.739C148.339 365.46 150.995 362.804 154.274 362.8H160.527C163.806 362.804 166.463 365.46 166.467 368.739V385.466Z" fill="black"/>
</g>
<path d="M22.8828 424.84H17.3148V422.2H31.5708V424.84H26.0028V439H22.8828V424.84ZM44.9043 439L41.4723 434.08C41.3283 434.096 41.1123 434.104 40.8243 434.104H37.0323V439H33.9123V422.2H40.8243C42.2803 422.2 43.5443 422.44 44.6163 422.92C45.7043 423.4 46.5363 424.088 47.1123 424.984C47.6883 425.88 47.9763 426.944 47.9763 428.176C47.9763 429.44 47.6643 430.528 47.0403 431.44C46.4323 432.352 45.5523 433.032 44.4003 433.48L48.2643 439H44.9043ZM44.8323 428.176C44.8323 427.104 44.4803 426.28 43.7762 425.704C43.0723 425.128 42.0403 424.84 40.6803 424.84H37.0323V431.536H40.6803C42.0403 431.536 43.0723 431.248 43.7762 430.672C44.4803 430.08 44.8323 429.248 44.8323 428.176ZM62.3629 435.112H53.9629L52.3069 439H49.0909L56.6509 422.2H59.7229L67.3069 439H64.0429L62.3629 435.112ZM61.3309 432.664L58.1629 425.32L55.0189 432.664H61.3309ZM69.4435 422.2H72.5635V439H69.4435V422.2ZM92.0356 422.2V439H89.4676L80.2036 427.624V439H77.1076V422.2H79.6756L88.9396 433.576V422.2H92.0356ZM96.5373 422.2H99.6573V439H96.5373V422.2ZM119.129 422.2V439H116.561L107.297 427.624V439H104.201V422.2H106.769L116.033 433.576V422.2H119.129ZM135.103 430.408H138.055V437.104C137.191 437.792 136.183 438.32 135.031 438.688C133.879 439.056 132.695 439.24 131.479 439.24C129.767 439.24 128.223 438.872 126.847 438.136C125.471 437.384 124.391 436.352 123.607 435.04C122.823 433.728 122.431 432.248 122.431 430.6C122.431 428.952 122.823 427.472 123.607 426.16C124.391 424.848 125.471 423.824 126.847 423.088C128.239 422.336 129.799 421.96 131.527 421.96C132.935 421.96 134.215 422.192 135.367 422.656C136.519 423.12 137.487 423.8 138.271 424.696L136.303 426.616C135.023 425.336 133.479 424.696 131.671 424.696C130.487 424.696 129.431 424.944 128.503 425.44C127.591 425.936 126.871 426.632 126.343 427.528C125.831 428.424 125.575 429.448 125.575 430.6C125.575 431.72 125.831 432.728 126.343 433.624C126.871 434.52 127.591 435.224 128.503 435.736C129.431 436.248 130.479 436.504 131.647 436.504C132.959 436.504 134.111 436.216 135.103 435.64V430.408ZM159.699 435.112H151.299L149.643 439H146.427L153.987 422.2H157.059L164.643 439H161.379L159.699 435.112ZM158.667 432.664L155.499 425.32L152.355 432.664H158.667ZM181.707 422.2V439H179.139L169.875 427.624V439H166.779V422.2H169.347L178.611 433.576V422.2H181.707ZM186.209 422.2H193.553C195.345 422.2 196.937 422.552 198.329 423.256C199.721 423.944 200.801 424.928 201.569 426.208C202.337 427.472 202.721 428.936 202.721 430.6C202.721 432.264 202.337 433.736 201.569 435.016C200.801 436.28 199.721 437.264 198.329 437.968C196.937 438.656 195.345 439 193.553 439H186.209V422.2ZM193.409 436.36C194.641 436.36 195.721 436.128 196.649 435.664C197.593 435.184 198.313 434.512 198.809 433.648C199.321 432.768 199.577 431.752 199.577 430.6C199.577 429.448 199.321 428.44 198.809 427.576C198.313 426.696 197.593 426.024 196.649 425.56C195.721 425.08 194.641 424.84 193.409 424.84H189.329V436.36H193.409ZM17.2248 451.2H20.3448V468H17.2248V451.2ZM40.3208 468L40.2968 456.864L34.7768 466.08H33.3848L27.8648 457.008V468H24.8888V451.2H27.4568L34.1288 462.336L40.6808 451.2H43.2488L43.2728 468H40.3208ZM54.7227 451.2C56.1787 451.2 57.4427 451.44 58.5147 451.92C59.6027 452.4 60.4347 453.088 61.0107 453.984C61.5867 454.88 61.8747 455.944 61.8747 457.176C61.8747 458.392 61.5867 459.456 61.0107 460.368C60.4347 461.264 59.6027 461.952 58.5147 462.432C57.4427 462.912 56.1787 463.152 54.7227 463.152H50.9307V468H47.8107V451.2H54.7227ZM54.5787 460.512C55.9387 460.512 56.9707 460.224 57.6747 459.648C58.3787 459.072 58.7307 458.248 58.7307 457.176C58.7307 456.104 58.3787 455.28 57.6747 454.704C56.9707 454.128 55.9387 453.84 54.5787 453.84H50.9307V460.512H54.5787ZM75.9824 468L72.5504 463.08C72.4064 463.096 72.1904 463.104 71.9024 463.104H68.1104V468H64.9904V451.2H71.9024C73.3584 451.2 74.6224 451.44 75.6944 451.92C76.7824 452.4 77.6144 453.088 78.1904 453.984C78.7664 454.88 79.0544 455.944 79.0544 457.176C79.0544 458.44 78.7424 459.528 78.1184 460.44C77.5104 461.352 76.6304 462.032 75.4784 462.48L79.3424 468H75.9824ZM75.9104 457.176C75.9104 456.104 75.5584 455.28 74.8544 454.704C74.1504 454.128 73.1184 453.84 71.7584 453.84H68.1104V460.536H71.7584C73.1184 460.536 74.1504 460.248 74.8544 459.672C75.5584 459.08 75.9104 458.248 75.9104 457.176ZM90.3931 468.24C88.6811 468.24 87.1371 467.872 85.7611 467.136C84.3851 466.384 83.3051 465.352 82.5211 464.04C81.7371 462.712 81.3451 461.232 81.3451 459.6C81.3451 457.968 81.7371 456.496 82.5211 455.184C83.3051 453.856 84.3851 452.824 85.7611 452.088C87.1371 451.336 88.6811 450.96 90.3931 450.96C92.1051 450.96 93.6491 451.336 95.0251 452.088C96.4011 452.824 97.4811 453.848 98.2651 455.16C99.0491 456.472 99.4411 457.952 99.4411 459.6C99.4411 461.248 99.0491 462.728 98.2651 464.04C97.4811 465.352 96.4011 466.384 95.0251 467.136C93.6491 467.872 92.1051 468.24 90.3931 468.24ZM90.3931 465.504C91.5131 465.504 92.5211 465.256 93.4171 464.76C94.3131 464.248 95.0171 463.544 95.5291 462.648C96.0411 461.736 96.2971 460.72 96.2971 459.6C96.2971 458.48 96.0411 457.472 95.5291 456.576C95.0171 455.664 94.3131 454.96 93.4171 454.464C92.5211 453.952 91.5131 453.696 90.3931 453.696C89.2731 453.696 88.2651 453.952 87.3691 454.464C86.4731 454.96 85.7691 455.664 85.2571 456.576C84.7451 457.472 84.4891 458.48 84.4891 459.6C84.4891 460.72 84.7451 461.736 85.2571 462.648C85.7691 463.544 86.4731 464.248 87.3691 464.76C88.2651 465.256 89.2731 465.504 90.3931 465.504ZM117.569 451.2L110.249 468H107.177L99.8331 451.2H103.217L108.809 464.16L114.449 451.2H117.569ZM131.942 465.384V468H119.342V451.2H131.606V453.816H122.462V458.184H130.574V460.752H122.462V465.384H131.942ZM150.852 468L150.828 456.864L145.308 466.08H143.916L138.396 457.008V468H135.42V451.2H137.988L144.66 462.336L151.212 451.2H153.78L153.804 468H150.852ZM170.942 465.384V468H158.342V451.2H170.606V453.816H161.462V458.184H169.574V460.752H161.462V465.384H170.942ZM189.348 451.2V468H186.78L177.516 456.624V468H174.42V451.2H176.988L186.252 462.576V451.2H189.348ZM197.258 453.84H191.69V451.2H205.946V453.84H200.378V468H197.258V453.84Z" fill="black"/>
<g clip-path="url(#clip1)">
<path d="M97.1091 676.223L96.7008 678.218L97.0943 676.221C95.9914 676.004 94.9203 676.721 94.7029 677.824C94.4855 678.928 95.2034 679.998 96.3074 680.216C96.3106 680.217 96.3413 680.222 96.3445 680.223C96.4739 680.248 96.6022 680.26 96.7295 680.26C97.6871 680.26 98.5408 679.582 98.7263 678.606C98.9384 677.501 98.2141 676.434 97.1091 676.223Z" fill="black"/>
<path d="M112.678 676.877L112.88 678.903L112.671 676.879C111.552 676.993 110.739 677.993 110.855 679.112C110.962 680.16 111.846 680.94 112.877 680.94C112.947 680.94 113.018 680.936 113.088 680.93L113.144 680.923C114.258 680.793 115.048 679.789 114.924 678.675C114.799 677.563 113.791 676.761 112.678 676.877Z" fill="black"/>
<path d="M104.884 677.134C104.884 677.134 104.856 677.133 104.855 677.133C103.733 677.082 102.795 677.954 102.744 679.077C102.694 680.2 103.577 681.151 104.7 681.202C104.732 681.204 104.762 681.204 104.794 681.204C105.876 681.204 106.777 680.353 106.826 679.26C106.877 678.137 106.008 677.185 104.884 677.134Z" fill="black"/>
<path d="M89.5881 674.154L89.5627 674.145C88.5043 673.765 87.3505 674.319 86.9708 675.377C86.5901 676.435 87.1522 677.606 88.2105 677.987C88.4385 678.068 88.6708 678.107 88.8988 678.107C89.7334 678.107 90.5171 677.59 90.8151 676.759C91.1958 675.7 90.6465 674.534 89.5881 674.154Z" fill="black"/>
<path d="M120.36 675.452L120.861 677.426L120.353 675.454C119.264 675.734 118.609 676.844 118.889 677.934C119.125 678.852 119.953 679.463 120.859 679.463C121.028 679.463 121.199 679.442 121.369 679.397C121.378 679.395 121.414 679.385 121.423 679.383C122.504 679.088 123.136 677.978 122.848 676.895C122.559 675.814 121.445 675.17 120.36 675.452Z" fill="black"/>
<path d="M127.722 672.885L128.529 674.754L127.716 672.887C126.685 673.337 126.213 674.536 126.662 675.567C126.996 676.334 127.745 676.791 128.53 676.791C128.801 676.791 129.078 676.736 129.342 676.621C129.35 676.617 129.383 676.603 129.391 676.599C130.413 676.137 130.863 674.941 130.407 673.918C129.951 672.893 128.749 672.434 127.722 672.885Z" fill="black"/>
<path d="M81.81 580.066C82.1366 580.066 82.4686 579.988 82.775 579.825C83.7677 579.295 84.142 578.062 83.6128 577.069C83.0836 576.078 81.8514 575.701 80.8587 576.232L80.8343 576.244C79.8428 576.774 79.4791 578.001 80.0082 578.993C80.373 579.678 81.0814 580.066 81.81 580.066Z" fill="black"/>
<path d="M58.2586 602.808C58.5608 602.966 58.8843 603.042 59.2035 603.042C59.9363 603.042 60.6447 602.645 61.0084 601.95L61.0445 601.879C61.5408 600.87 61.1251 599.649 60.1155 599.154C59.1134 598.66 57.9023 599.067 57.3996 600.063C56.88 601.058 57.2639 602.287 58.2586 602.808Z" fill="black"/>
<path d="M55.3922 610.468C55.6085 610.542 55.828 610.577 56.0454 610.577C56.8938 610.577 57.686 610.041 57.9734 609.193L57.9999 609.112C58.3308 608.038 57.7273 606.898 56.652 606.568C55.5862 606.239 54.4547 606.831 54.1143 607.891C53.7569 608.955 54.3285 610.109 55.3922 610.468Z" fill="black"/>
<path d="M62.2758 595.686C62.6374 595.949 63.0563 596.076 63.472 596.076C64.1009 596.076 64.7224 595.784 65.12 595.237L65.1465 595.201C65.7998 594.287 65.5866 593.018 64.6746 592.365C63.7616 591.711 62.489 591.921 61.8336 592.833L63.4742 594.04L61.8272 592.841C61.1655 593.751 61.367 595.025 62.2758 595.686Z" fill="black"/>
<path d="M74.9001 584.465C75.3274 584.465 75.758 584.33 76.126 584.05C77.0338 583.386 77.23 582.113 76.5661 581.205C75.9012 580.297 74.6275 580.101 73.7208 580.765L73.6699 580.802C72.7749 581.482 72.5967 582.762 73.2765 583.658C73.6773 584.186 74.285 584.465 74.9001 584.465Z" fill="black"/>
<path d="M53.5753 641.348C53.8447 642.222 54.6486 642.783 55.5181 642.783C55.7165 642.783 55.919 642.754 56.1184 642.692C57.1874 642.365 57.7908 641.232 57.4705 640.161C57.164 639.092 56.0558 638.464 54.9773 638.758C53.8924 639.054 53.253 640.174 53.5488 641.258C53.5552 641.28 53.569 641.326 53.5753 641.348Z" fill="black"/>
<path d="M68.7473 589.831C69.2765 589.831 69.8057 589.627 70.2055 589.219C70.9998 588.424 70.9998 587.134 70.2055 586.34C69.4101 585.545 68.1206 585.545 67.3252 586.34L67.2913 586.374C66.5044 587.177 66.5203 588.464 67.3231 589.251C67.7187 589.639 68.233 589.831 68.7473 589.831Z" fill="black"/>
<path d="M55.8254 632.47C55.6823 631.364 54.6716 630.579 53.5645 630.711C52.4489 630.844 51.6514 631.857 51.7839 632.974L51.7956 633.055C51.9441 634.067 52.8126 634.792 53.8063 634.792C53.9038 634.792 54.0035 634.785 54.1043 634.77C55.2125 634.609 55.9813 633.578 55.8254 632.47Z" fill="black"/>
<path d="M53.2683 626.639C53.2895 626.639 53.3097 626.64 53.3298 626.64C54.4264 626.64 55.332 625.767 55.3638 624.663L55.366 624.576C55.366 623.451 54.4539 622.54 53.3298 622.54C52.2131 622.54 51.3075 623.437 51.2937 624.55C51.264 625.672 52.1474 626.606 53.2683 626.639Z" fill="black"/>
<path d="M53.7128 618.473C53.8348 618.494 53.9546 618.505 54.0745 618.505C55.0416 618.505 55.8995 617.813 56.0767 616.827C56.082 616.798 56.0862 616.768 56.0904 616.738C56.2548 615.626 55.486 614.591 54.3724 614.427C53.2727 614.264 52.243 615.02 52.0659 616.117C51.8729 617.222 52.6089 618.275 53.7128 618.473Z" fill="black"/>
<path d="M149.759 596.328C150.154 596.901 150.788 597.207 151.435 597.207C151.833 597.207 152.236 597.091 152.588 596.848C153.513 596.212 153.748 594.943 153.111 594.016L151.419 595.149L153.105 594.007C152.473 593.076 151.207 592.833 150.277 593.464C149.346 594.095 149.103 595.361 149.734 596.292L149.759 596.328Z" fill="black"/>
<path d="M160.16 616.818C159.042 616.943 158.238 617.951 158.365 619.069L158.375 619.157C158.52 620.172 159.392 620.905 160.389 620.905C160.485 620.905 160.582 620.898 160.68 620.885C161.784 620.727 162.554 619.71 162.41 618.607C162.282 617.492 161.27 616.692 160.16 616.818Z" fill="black"/>
<path d="M156.724 611.072L156.732 611.099C156.993 611.986 157.804 612.561 158.685 612.561C158.874 612.561 159.067 612.535 159.259 612.477C160.339 612.16 160.956 611.029 160.639 609.949L160.631 609.923C160.314 608.843 159.182 608.226 158.102 608.544C157.024 608.861 156.407 609.993 156.724 611.072Z" fill="black"/>
<path d="M153.848 603.459C154.203 604.182 154.929 604.603 155.684 604.603C155.984 604.603 156.29 604.536 156.577 604.394C157.586 603.897 158.005 602.684 157.507 601.675L155.662 602.535L157.505 601.67C157.028 600.652 155.816 600.214 154.798 600.692C153.78 601.169 153.341 602.381 153.818 603.399L153.848 603.459Z" fill="black"/>
<path d="M144.633 589.969C145.032 590.376 145.559 590.58 146.087 590.58C146.601 590.58 147.115 590.387 147.512 589.998C148.31 589.217 148.328 587.942 147.559 587.138C146.796 586.316 145.511 586.266 144.686 587.027C143.86 587.79 143.809 589.078 144.571 589.905L144.633 589.969Z" fill="black"/>
<path d="M160.819 625.319C159.7 625.29 158.764 626.167 158.725 627.286C158.674 628.401 159.53 629.35 160.645 629.413C160.685 629.415 160.722 629.416 160.761 629.416C161.833 629.416 162.731 628.577 162.792 627.492L162.795 627.408C162.827 626.285 161.942 625.352 160.819 625.319Z" fill="black"/>
<path d="M131.612 579.971L131.661 579.998C131.964 580.159 132.29 580.235 132.61 580.235C133.335 580.235 134.036 579.845 134.404 579.161C134.934 578.174 134.561 576.939 133.576 576.405L132.591 578.186L133.57 576.401C132.584 575.86 131.346 576.221 130.805 577.208C130.266 578.193 130.626 579.431 131.612 579.971Z" fill="black"/>
<path d="M138.5 584.437L138.532 584.462C138.899 584.741 139.331 584.875 139.761 584.875C140.376 584.875 140.983 584.598 141.384 584.069C142.064 583.173 141.888 581.897 140.993 581.217L140.979 581.207C140.087 580.522 138.809 580.69 138.124 581.582C137.439 582.473 137.608 583.752 138.5 584.437Z" fill="black"/>
<path d="M177.743 656.145L168.185 646.57C167.372 645.756 166.291 645.307 165.141 645.307C163.991 645.307 162.909 645.756 162.097 646.57L161.875 646.792L161.247 646.164C160.472 645.387 159.872 644.482 159.465 643.497C159.429 643.367 159.381 643.239 159.32 643.12C159.008 642.244 158.845 641.311 158.845 640.354V637.645C159.031 637.743 159.234 637.814 159.451 637.851C159.568 637.871 159.683 637.881 159.798 637.881C160.764 637.881 161.619 637.191 161.798 636.212C162.015 635.111 161.302 634.041 160.2 633.82C159.715 633.724 159.236 633.807 158.833 634.026C158.708 631.133 157.525 628.431 155.468 626.369L146.195 617.08C144.114 614.996 141.347 613.849 138.405 613.849C136.127 613.849 133.957 614.539 132.127 615.817L131.142 614.828V591.54C131.142 588.732 130.123 586.024 128.274 583.915C126.958 582.415 126.233 580.489 126.233 578.491V576.785H126.373C128.747 576.785 130.678 574.854 130.678 572.479V558.935C130.678 556.561 128.747 554.629 126.373 554.629H88.3391C85.9657 554.629 84.0346 556.561 84.0346 558.935V572.479C84.0346 574.854 85.9657 576.785 88.3391 576.785H88.653V577.678C88.653 579.873 87.7993 581.937 86.2499 583.488L82.1448 587.601C79.9665 589.783 78.7671 592.684 78.7671 595.77V608.906C78.7671 610.691 79.1956 612.376 79.9496 613.869C77.2496 614.025 74.733 615.15 72.8051 617.08L63.5322 626.369C61.3539 628.552 60.1545 631.453 60.1545 634.538V640.354C60.1545 642.549 59.3019 644.613 57.7525 646.164L57.1321 646.786C57.129 646.788 57.1268 646.79 57.1247 646.792L56.9041 646.57C56.0908 645.756 55.0101 645.307 53.8595 645.307C52.7099 645.307 51.6282 645.756 50.8159 646.57L41.2567 656.145C39.5811 657.824 39.5811 660.556 41.2567 662.235L44.5304 665.513C45.3247 666.309 46.6143 666.31 47.4096 665.516C48.205 664.721 48.2071 663.432 47.4117 662.636L44.1391 659.357C44.0468 659.264 44.0468 659.115 44.1391 659.023L53.6983 649.447C53.7874 649.358 53.9327 649.357 54.0217 649.447L55.6835 651.112H55.6846L78.3758 673.843L80.9178 676.39C81.01 676.482 81.01 676.632 80.9178 676.724L71.3596 686.299C71.2695 686.389 71.1242 686.389 71.0351 686.299L53.1765 668.41C52.3822 667.614 51.0927 667.612 50.2973 668.407C49.5009 669.202 49.4998 670.491 50.2941 671.287L68.1538 689.176C68.9661 689.991 70.0478 690.439 71.1984 690.439C72.348 690.439 73.4286 689.991 74.242 689.176L83.8002 679.601C85.4758 677.924 85.4758 675.192 83.8002 673.513L83.6963 673.409L84.902 672.201C86.3104 670.79 88.1811 669.941 90.1695 669.813C92.9681 669.632 95.6013 668.438 97.5833 666.451L106.364 657.651C108.897 656.986 110.868 654.924 111.404 652.34C112.306 652.77 113.315 653.012 114.379 653.012C118.209 653.012 121.324 649.893 121.324 646.058V641.223C122.2 641.623 123.173 641.848 124.197 641.848C128.027 641.848 131.141 638.729 131.141 634.894V620.601L137.405 626.895C137.802 627.295 138.325 627.494 138.848 627.494C139.368 627.494 139.887 627.297 140.285 626.902C141.081 626.108 141.084 624.82 140.291 624.022L135.069 618.775C136.08 618.218 137.219 617.921 138.405 617.921C140.258 617.921 142.002 618.645 143.313 619.959L152.585 629.246C153.996 630.66 154.773 632.539 154.773 634.538V640.354C154.773 643.636 156.049 646.721 158.365 649.041L158.997 649.674L156.044 652.633L138.181 670.527L137.185 669.529C137.174 669.519 137.165 669.509 137.154 669.499L136.979 669.323C134.871 667.212 132.07 665.942 129.095 665.749C127.284 665.632 125.581 664.859 124.293 663.57L117.602 656.915C116.805 656.122 115.515 656.125 114.722 656.923C113.93 657.72 113.933 659.01 114.73 659.802L121.417 666.451C123.399 668.438 126.032 669.632 128.832 669.813C130.819 669.941 132.69 670.79 134.098 672.2L134.197 672.299C134.25 672.359 134.306 672.415 134.365 672.468L135.304 673.408L135.2 673.513C133.524 675.192 133.524 677.923 135.2 679.601L144.758 689.176C145.571 689.991 146.652 690.439 147.803 690.439C148.952 690.439 150.034 689.991 150.847 689.176L177.743 662.234C179.419 660.555 179.419 657.824 177.743 656.145ZM160.21 635.899L160.172 635.892L159.801 635.817L160.21 635.899ZM94.7009 663.574C93.4188 664.859 91.7157 665.632 89.9065 665.749C86.9297 665.942 84.1289 667.212 82.0207 669.323L80.8192 670.527L79.7375 669.443C79.7237 669.429 79.7099 669.414 79.6961 669.402L60.0029 649.674L60.6349 649.041C62.951 646.721 64.2268 643.636 64.2268 640.354V634.538C64.2268 632.539 65.0031 630.66 66.4146 629.246L75.6875 619.959C76.9982 618.645 78.7417 617.921 80.5954 617.921C81.7842 617.921 82.9274 618.22 83.9412 618.781L78.7109 624.02C77.9166 624.816 77.9177 626.105 78.713 626.899C79.1107 627.296 79.6314 627.494 80.1521 627.494C80.6739 627.494 81.1956 627.295 81.5933 626.897L87.8406 620.638V646.058C87.8406 649.893 90.9563 653.012 94.7858 653.012C95.8653 653.012 96.8876 652.764 97.7997 652.322C98.2132 654.341 99.5028 656.042 101.25 657.011L94.7009 663.574ZM127.07 634.895C127.07 636.484 125.781 637.777 124.197 637.777C122.613 637.777 121.324 636.484 121.324 634.895V612.183C121.324 611.059 120.413 610.147 119.288 610.147C118.163 610.147 117.252 611.059 117.252 612.183V646.059C117.252 647.648 115.964 648.939 114.379 648.939C112.957 648.939 111.777 647.898 111.549 646.535V612.16C111.549 611.035 110.638 610.124 109.513 610.124C109.151 610.124 108.811 610.219 108.516 610.384C107.872 610.727 107.434 611.404 107.434 612.183V646.058C107.434 646.317 107.449 646.57 107.477 646.822V650.925C107.477 652.513 106.188 653.806 104.604 653.806C103.02 653.806 101.732 652.513 101.732 650.925V612.135C101.732 611.011 100.82 610.099 99.6958 610.099C98.5706 610.099 97.6586 611.011 97.6586 612.135V646.058C97.6586 647.647 96.3701 648.939 94.7868 648.939C93.2025 648.939 91.914 647.647 91.914 646.058V608.183C91.914 607.058 91.0019 606.146 89.8778 606.146C88.7527 606.146 87.8417 607.058 87.8417 608.183V615.188C87.671 615.244 87.5055 615.321 87.3518 615.423C84.7186 614.433 82.8394 611.886 82.8394 608.906V595.77C82.8394 593.771 83.6167 591.892 85.0272 590.478L89.1323 586.365C91.4495 584.045 92.7252 580.96 92.7252 577.678V576.785H96.8187C97.9439 576.785 98.8548 575.873 98.8548 574.749C98.8548 573.624 97.9439 572.713 96.8187 572.713H88.3391C88.2107 572.713 88.1068 572.608 88.1068 572.479V558.935C88.1068 558.807 88.2107 558.702 88.3391 558.702H126.372C126.502 558.702 126.606 558.807 126.606 558.935V572.479C126.606 572.609 126.502 572.713 126.372 572.713H106.378C105.254 572.713 104.342 573.624 104.342 574.749C104.342 575.873 105.254 576.785 106.378 576.785H122.161V578.491C122.161 581.478 123.244 584.357 125.211 586.601C126.409 587.967 127.07 589.721 127.07 591.54V634.895ZM174.861 659.357L147.965 686.299C147.92 686.345 147.866 686.367 147.803 686.367C147.74 686.367 147.686 686.345 147.64 686.299L138.082 676.724C137.99 676.632 137.99 676.482 138.082 676.39L139.621 674.848L139.622 674.847L155.236 659.207L164.978 649.447C165.067 649.357 165.213 649.357 165.302 649.447L174.861 659.023C174.953 659.115 174.953 659.264 174.861 659.357Z" fill="black"/>
<path d="M94.7848 563.535C93.5897 563.535 92.6172 564.51 92.6172 565.707C92.6172 566.905 93.5897 567.879 94.7848 567.879C95.981 567.879 96.9535 566.905 96.9535 565.707C96.9535 564.51 95.981 563.535 94.7848 563.535Z" fill="black"/>
<path d="M165.805 656.351C164.609 656.351 163.637 657.325 163.637 658.522C163.637 659.72 164.609 660.694 165.805 660.694C167.001 660.694 167.973 659.72 167.973 658.522C167.973 657.325 167.001 656.351 165.805 656.351Z" fill="black"/>
<path d="M73.9301 677.123C73.9301 675.926 72.9576 674.951 71.7624 674.951C70.5662 674.951 69.5938 675.926 69.5938 677.123C69.5938 678.32 70.5662 679.295 71.7624 679.295C72.9576 679.295 73.9301 678.32 73.9301 677.123Z" fill="black"/>
</g>
<path d="M11.032 729.24C9.336 729.24 7.8 728.872 6.424 728.136C5.064 727.384 3.992 726.352 3.208 725.04C2.44 723.728 2.056 722.248 2.056 720.6C2.056 718.952 2.448 717.472 3.232 716.16C4.016 714.848 5.088 713.824 6.448 713.088C7.824 712.336 9.36 711.96 11.056 711.96C12.432 711.96 13.688 712.2 14.824 712.68C15.96 713.16 16.92 713.856 17.704 714.768L15.688 716.664C14.472 715.352 12.976 714.696 11.2 714.696C10.048 714.696 9.016 714.952 8.104 715.464C7.192 715.96 6.48 716.656 5.968 717.552C5.456 718.448 5.2 719.464 5.2 720.6C5.2 721.736 5.456 722.752 5.968 723.648C6.48 724.544 7.192 725.248 8.104 725.76C9.016 726.256 10.048 726.504 11.2 726.504C12.976 726.504 14.472 725.84 15.688 724.512L17.704 726.432C16.92 727.344 15.952 728.04 14.8 728.52C13.664 729 12.408 729.24 11.032 729.24ZM28.1899 729.24C26.4779 729.24 24.9339 728.872 23.5579 728.136C22.1819 727.384 21.1019 726.352 20.3179 725.04C19.5339 723.712 19.1419 722.232 19.1419 720.6C19.1419 718.968 19.5339 717.496 20.3179 716.184C21.1019 714.856 22.1819 713.824 23.5579 713.088C24.9339 712.336 26.4779 711.96 28.1899 711.96C29.9019 711.96 31.4459 712.336 32.8219 713.088C34.1979 713.824 35.2779 714.848 36.0619 716.16C36.8459 717.472 37.2379 718.952 37.2379 720.6C37.2379 722.248 36.8459 723.728 36.0619 725.04C35.2779 726.352 34.1979 727.384 32.8219 728.136C31.4459 728.872 29.9019 729.24 28.1899 729.24ZM28.1899 726.504C29.3099 726.504 30.3179 726.256 31.2139 725.76C32.1099 725.248 32.8139 724.544 33.3259 723.648C33.8379 722.736 34.0939 721.72 34.0939 720.6C34.0939 719.48 33.8379 718.472 33.3259 717.576C32.8139 716.664 32.1099 715.96 31.2139 715.464C30.3179 714.952 29.3099 714.696 28.1899 714.696C27.0699 714.696 26.0619 714.952 25.1659 715.464C24.2699 715.96 23.5659 716.664 23.0539 717.576C22.5419 718.472 22.2859 719.48 22.2859 720.6C22.2859 721.72 22.5419 722.736 23.0539 723.648C23.5659 724.544 24.2699 725.248 25.1659 725.76C26.0619 726.256 27.0699 726.504 28.1899 726.504ZM40.5451 712.2H43.6651V726.36H52.4491V729H40.5451V712.2ZM54.9123 712.2H58.0323V726.36H66.8163V729H54.9123V712.2ZM80.2926 725.112H71.8926L70.2366 729H67.0206L74.5806 712.2H77.6526L85.2366 729H81.9726L80.2926 725.112ZM79.2606 722.664L76.0926 715.32L72.9486 722.664H79.2606ZM99.2772 720.264C100.205 720.568 100.941 721.08 101.485 721.8C102.029 722.504 102.301 723.384 102.301 724.44C102.301 725.896 101.741 727.024 100.621 727.824C99.5012 728.608 97.8692 729 95.7252 729H87.3732V712.2H95.2452C97.2292 712.2 98.7572 712.592 99.8292 713.376C100.901 714.144 101.437 715.208 101.437 716.568C101.437 717.4 101.245 718.136 100.861 718.776C100.477 719.416 99.9492 719.912 99.2772 720.264ZM90.4932 714.648V719.28H94.9092C95.9972 719.28 96.8292 719.088 97.4052 718.704C97.9972 718.304 98.2932 717.728 98.2932 716.976C98.2932 716.208 97.9972 715.632 97.4052 715.248C96.8292 714.848 95.9972 714.648 94.9092 714.648H90.4932ZM95.5332 726.552C97.9492 726.552 99.1572 725.744 99.1572 724.128C99.1572 722.512 97.9492 721.704 95.5332 721.704H90.4932V726.552H95.5332ZM113.479 729.24C111.767 729.24 110.223 728.872 108.847 728.136C107.471 727.384 106.391 726.352 105.607 725.04C104.823 723.712 104.431 722.232 104.431 720.6C104.431 718.968 104.823 717.496 105.607 716.184C106.391 714.856 107.471 713.824 108.847 713.088C110.223 712.336 111.767 711.96 113.479 711.96C115.191 711.96 116.735 712.336 118.111 713.088C119.487 713.824 120.567 714.848 121.351 716.16C122.135 717.472 122.527 718.952 122.527 720.6C122.527 722.248 122.135 723.728 121.351 725.04C120.567 726.352 119.487 727.384 118.111 728.136C116.735 728.872 115.191 729.24 113.479 729.24ZM113.479 726.504C114.599 726.504 115.607 726.256 116.503 725.76C117.399 725.248 118.103 724.544 118.615 723.648C119.127 722.736 119.383 721.72 119.383 720.6C119.383 719.48 119.127 718.472 118.615 717.576C118.103 716.664 117.399 715.96 116.503 715.464C115.607 714.952 114.599 714.696 113.479 714.696C112.359 714.696 111.351 714.952 110.455 715.464C109.559 715.96 108.855 716.664 108.343 717.576C107.831 718.472 107.575 719.48 107.575 720.6C107.575 721.72 107.831 722.736 108.343 723.648C108.855 724.544 109.559 725.248 110.455 725.76C111.351 726.256 112.359 726.504 113.479 726.504ZM136.826 729L133.394 724.08C133.25 724.096 133.034 724.104 132.746 724.104H128.954V729H125.834V712.2H132.746C134.202 712.2 135.466 712.44 136.538 712.92C137.626 713.4 138.458 714.088 139.034 714.984C139.61 715.88 139.898 716.944 139.898 718.176C139.898 719.44 139.586 720.528 138.962 721.44C138.354 722.352 137.474 723.032 136.322 723.48L140.186 729H136.826ZM136.754 718.176C136.754 717.104 136.402 716.28 135.698 715.704C134.994 715.128 133.962 714.84 132.602 714.84H128.954V721.536H132.602C133.962 721.536 134.994 721.248 135.698 720.672C136.402 720.08 136.754 719.248 136.754 718.176ZM154.285 725.112H145.885L144.229 729H141.013L148.573 712.2H151.645L159.229 729H155.965L154.285 725.112ZM153.253 722.664L150.085 715.32L146.941 722.664H153.253ZM163.93 714.84H158.362V712.2H172.618V714.84H167.05V729H163.93V714.84ZM174.959 712.2H178.079V729H174.959V712.2ZM190.471 729.24C188.759 729.24 187.215 728.872 185.839 728.136C184.463 727.384 183.383 726.352 182.599 725.04C181.815 723.712 181.423 722.232 181.423 720.6C181.423 718.968 181.815 717.496 182.599 716.184C183.383 714.856 184.463 713.824 185.839 713.088C187.215 712.336 188.759 711.96 190.471 711.96C192.183 711.96 193.727 712.336 195.103 713.088C196.479 713.824 197.559 714.848 198.343 716.16C199.127 717.472 199.519 718.952 199.519 720.6C199.519 722.248 199.127 723.728 198.343 725.04C197.559 726.352 196.479 727.384 195.103 728.136C193.727 728.872 192.183 729.24 190.471 729.24ZM190.471 726.504C191.591 726.504 192.599 726.256 193.495 725.76C194.391 725.248 195.095 724.544 195.607 723.648C196.119 722.736 196.375 721.72 196.375 720.6C196.375 719.48 196.119 718.472 195.607 717.576C195.095 716.664 194.391 715.96 193.495 715.464C192.599 714.952 191.591 714.696 190.471 714.696C189.351 714.696 188.343 714.952 187.447 715.464C186.551 715.96 185.847 716.664 185.335 717.576C184.823 718.472 184.567 719.48 184.567 720.6C184.567 721.72 184.823 722.736 185.335 723.648C185.847 724.544 186.551 725.248 187.447 725.76C188.343 726.256 189.351 726.504 190.471 726.504ZM217.754 712.2V729H215.186L205.922 717.624V729H202.826V712.2H205.394L214.658 723.576V712.2H217.754Z" fill="black"/>
<defs>
<clipPath id="clip0">
<rect width="136" height="136" fill="white" transform="translate(35 254)"/>
</clipPath>
<clipPath id="clip1">
<rect width="139" height="139" fill="white" transform="translate(40 553)"/>
</clipPath>
</defs>
</svg>
