<svg width="103" height="131" viewBox="0 0 103 131" fill="none" xmlns="http://www.w3.org/2000/svg">
<path d="M102.846 106.844V131H6.039V111.785L55.449 65.12C60.695 60.118 64.233 55.848 66.063 52.31C67.893 48.65 68.808 45.051 68.808 41.513C68.808 36.389 67.039 32.485 63.501 29.801C60.085 26.995 55.022 25.592 48.312 25.592C42.7 25.592 37.637 26.69 33.123 28.886C28.609 30.96 24.827 34.132 21.777 38.402L0.183 24.494C5.185 17.052 12.078 11.257 20.862 7.10899C29.646 2.839 39.711 0.703998 51.057 0.703998C60.573 0.703998 68.869 2.29 75.945 5.46199C83.143 8.512 88.694 12.904 92.598 18.638C96.624 24.25 98.637 30.899 98.637 38.585C98.637 45.539 97.173 52.066 94.245 58.166C91.317 64.266 85.644 71.22 77.226 79.028L47.763 106.844H102.846Z" fill="black"/>
</svg>
