<svg width="360" height="152" viewBox="0 0 360 152" fill="none" xmlns="http://www.w3.org/2000/svg">
<g clip-path="url(#clip0_3_1161)">
<rect width="360" height="152" fill="white"/>
<path d="M257.043 142.689C276.322 131.663 272.625 107.908 266.897 89.758C261.659 73.1766 247.731 46.5152 247.731 46.5152L254.464 42.48L247.608 29.418H240.956C242.283 20.5846 234.54 11.821 223.95 16.8717C217.11 20.1386 213.059 36.403 229.361 39.3582C239.21 41.1421 242.401 27.4783 239.355 20.8801C237.779 18.9405 235.577 17.6105 233.127 17.1189" stroke="#231F20" stroke-opacity="0.6" stroke-width="0.268656" stroke-miterlimit="10"/>
<path d="M232.982 17.156C237.066 18.064 238.957 20.8258 238.925 20.858C241.8 27.4025 238.662 40.8353 229.253 39.2233C228.313 39.0673 227.387 38.841 226.481 38.5463C218.958 36.0747 217.089 30.1965 218.34 25.1135C219.179 21.7231 221.409 18.9022 223.896 17.7148C229.56 15.0282 234.573 16.5703 237.555 19.7727C238.826 21.122 239.776 22.7408 240.334 24.5085C240.892 26.2761 241.044 28.147 240.779 29.9816L247.35 29.901C247.35 29.901 254.077 42.6729 254.152 42.7965C254.228 42.92 247.64 46.7833 247.662 46.8209C247.769 46.9875 261.433 73.1492 266.57 89.5318C272.222 107.65 275.473 131.512 256.087 142.457" stroke="#231F20" stroke-opacity="0.6" stroke-width="0.268656" stroke-miterlimit="10"/>
<path d="M232.837 17.1938C236.765 18.0858 238.565 20.7938 238.495 20.8637C241.182 27.3114 238.108 40.5884 229.151 39.1323C228.252 38.9938 227.364 38.7854 226.497 38.509C219.179 36.1126 217.099 30.589 218.298 25.6404C218.66 24.1379 219.341 22.7308 220.294 21.5138C221.247 20.2967 222.45 19.2982 223.821 18.5855C229.329 15.958 234.39 17.6882 237.291 20.7938C239.672 23.3461 241.171 26.8332 240.607 30.5944L247.092 30.4439C247.092 30.4439 253.69 42.9257 253.841 43.1406C253.878 43.1997 247.549 47.0791 247.597 47.149C247.801 47.4821 261.213 73.1602 266.242 89.3333C271.814 107.419 274.629 131.389 255.13 142.248" stroke="#231F20" stroke-opacity="0.6" stroke-width="0.268656" stroke-miterlimit="10"/>
<path d="M232.692 17.1938C236.453 18.0697 238.167 20.7294 238.065 20.8314C240.591 27.1825 237.528 40.2875 229.038 39.0141C228.182 38.8891 227.338 38.695 226.513 38.4338C219.394 36.1448 217.105 30.9651 218.287 26.1616C218.666 24.7126 219.353 23.3625 220.302 22.2034C221.251 21.0443 222.438 20.1035 223.783 19.4452C225.957 18.3559 228.424 17.9976 230.817 18.4236C233.21 18.8496 235.402 20.0371 237.066 21.8094C239.376 24.2864 241.01 27.5371 240.456 31.1908L246.861 30.9651C246.861 30.9651 253.309 43.1567 253.556 43.4791C253.615 43.5651 247.49 47.3693 247.554 47.4713C247.866 47.971 261.046 73.1441 265.941 89.1291C271.47 107.167 273.813 131.254 254.206 142.033" stroke="#231F20" stroke-opacity="0.6" stroke-width="0.268656" stroke-miterlimit="10"/>
<path d="M232.542 17.1938C236.163 18.0535 237.775 20.6595 237.641 20.7992C239.994 27.0643 237.001 39.9866 228.942 38.8797C228.125 38.7713 227.32 38.5915 226.535 38.3424C219.619 36.1609 217.121 31.3305 218.298 26.672C219.066 23.5664 221.484 21.3849 223.762 20.2995C225.929 19.2732 228.366 18.9637 230.72 19.4158C233.075 19.868 235.224 21.0583 236.856 22.8141C239.097 25.2159 240.859 28.2249 240.327 31.7765L246.641 31.4702C246.641 31.4702 252.986 43.377 253.282 43.8015C253.362 43.9197 247.441 47.6487 247.527 47.783C247.946 48.4493 260.874 73.128 265.656 88.9142C271.115 106.914 273.012 131.109 253.298 141.807" stroke="#231F20" stroke-opacity="0.6" stroke-width="0.268656" stroke-miterlimit="10"/>
<path d="M232.397 17.1938C235.862 18.0428 237.378 20.595 237.233 20.7723C239.414 26.9514 236.475 39.6857 228.861 38.7508C228.087 38.6637 227.323 38.5055 226.578 38.2779C219.861 36.1663 217.153 31.6851 218.271 27.161C219.012 24.152 221.495 22.1908 223.708 21.1323C228.743 18.7306 233.955 20.955 236.604 23.8189C238.78 26.1508 240.671 28.9234 240.155 32.3622L246.383 31.986C246.383 31.986 252.6 43.5973 252.97 44.1346C253.072 44.2797 247.35 47.9281 247.463 48.1054C248 48.9328 260.654 73.1172 265.329 88.7046C270.702 106.662 272.168 130.97 252.336 141.587" stroke="#231F20" stroke-opacity="0.6" stroke-width="0.268656" stroke-miterlimit="10"/>
<path d="M232.268 17.2314C235.577 18.0643 236.996 20.5681 236.797 20.7723C238.807 26.8708 235.916 39.4224 228.737 38.6594C228.009 38.5868 227.289 38.4447 226.588 38.235C220.076 36.22 217.158 32.0774 218.238 27.6983C218.958 24.7807 221.505 23.0344 223.649 22.0081C228.523 19.6816 233.794 22.0726 236.362 24.829C238.468 27.0857 240.494 29.6218 239.989 32.9532L246.136 32.4965C246.136 32.4965 252.223 43.823 252.669 44.4678C252.787 44.6397 247.296 48.2289 247.404 48.4224C248.027 49.4164 260.45 73.1065 265.011 88.4951C270.331 106.414 271.336 130.83 251.391 141.367" stroke="#231F20" stroke-opacity="0.6" stroke-width="0.268656" stroke-miterlimit="10"/>
<path d="M232.106 17.2476C235.26 18.0643 236.588 20.5144 236.351 20.7562C238.189 26.7687 235.352 39.143 228.63 38.5412C227.94 38.4852 227.258 38.3592 226.594 38.1651C220.28 36.2523 217.153 32.4481 218.201 28.2141C218.899 25.3878 221.505 23.8565 223.574 22.8678C228.292 20.6165 233.611 23.1741 236.099 25.8392C238.135 28.0207 240.29 30.3203 239.806 33.5442L245.867 33.0069C245.867 33.0069 251.826 44.0433 252.315 44.7901C252.46 44.9943 247.146 48.4922 247.296 48.734C248.027 49.9 260.192 73.0957 264.646 88.2748C269.896 106.162 270.454 130.69 250.402 141.146" stroke="#231F20" stroke-opacity="0.6" stroke-width="0.268656" stroke-miterlimit="10"/>
<path d="M231.962 17.2637C234.96 18.0643 236.19 20.4875 235.927 20.7401C237.587 26.6505 234.804 38.8582 228.523 38.423C227.875 38.3858 227.234 38.2777 226.61 38.1006C220.501 36.2845 217.169 32.8242 218.18 28.7245C218.851 25.995 221.522 24.6786 223.553 23.7222C228.114 21.5729 233.482 24.2595 235.911 26.8439C237.877 28.9556 240.166 31.0135 239.672 34.1353L245.647 33.5227C245.647 33.5227 251.482 44.2689 252.095 45.1286C252.256 45.3597 247.146 48.7824 247.323 49.0564C248.156 50.3889 260.068 73.0903 264.415 88.0706C269.59 105.92 269.702 130.556 249.537 140.931" stroke="#231F20" stroke-opacity="0.6" stroke-width="0.268656" stroke-miterlimit="10"/>
<path d="M231.811 17.2744C234.659 18.0589 235.792 20.4123 235.497 20.724C236.985 26.5699 234.256 38.5788 228.421 38.3102C227.815 38.2887 227.215 38.1968 226.631 38.0361C220.721 36.3167 217.18 33.2003 218.153 29.2403C218.803 26.6021 221.538 25.4792 223.472 24.5818C227.878 22.4756 233.299 25.3663 235.62 27.8541C237.523 29.8959 239.919 31.712 239.484 34.7209L245.394 34.0385C245.394 34.0385 251.074 44.5 251.745 45.4618C251.928 45.7197 247.022 49.0618 247.216 49.3734C248.151 50.8725 259.81 73.0796 264.05 87.861C269.149 105.673 268.816 130.416 248.543 140.711" stroke="#231F20" stroke-opacity="0.6" stroke-width="0.268656" stroke-miterlimit="10"/>
<path d="M231.666 17.2905C234.352 18.0589 235.4 20.3586 235.067 20.7078C236.383 26.4678 233.708 38.294 228.318 38.1919C227.754 38.1899 227.193 38.1159 226.647 37.9716C220.936 36.3597 217.191 33.5657 218.131 29.7508C218.76 27.2093 221.554 26.3281 223.418 25.4523C227.668 23.4266 233.138 26.4786 235.379 28.8803C237.211 30.8469 239.758 32.4266 239.317 35.3281L245.126 34.5651C245.126 34.5651 250.697 44.7364 251.444 45.811C251.643 46.0958 246.942 49.3626 247.146 49.7119C248.188 51.3722 259.595 73.085 263.722 87.6676C268.751 105.442 267.972 130.293 247.602 140.507" stroke="#231F20" stroke-opacity="0.6" stroke-width="0.268656" stroke-miterlimit="10"/>
<path d="M231.521 17.3071C234.057 18.0594 235.003 20.3107 234.637 20.6868C235.782 26.3662 233.165 38.0205 228.189 38.0742C227.67 38.0895 227.151 38.0316 226.647 37.9023C221.129 36.4032 217.18 33.9423 218.088 30.2671C218.69 27.8223 221.548 27.1507 223.343 26.291C227.437 24.3405 232.955 27.559 235.11 29.8695C236.878 31.7662 239.554 33.0933 239.135 35.9035L244.852 35.0653C244.852 35.0653 250.3 44.9464 251.117 46.1231C251.337 46.4402 246.818 49.6318 247.081 50.0133C248.226 51.8401 259.375 73.0586 263.394 87.4424C268.348 105.174 267.128 130.137 246.63 140.271" stroke="#231F20" stroke-opacity="0.6" stroke-width="0.268656" stroke-miterlimit="10"/>
<path d="M231.376 17.3232C233.756 18.0594 234.599 20.257 234.207 20.6707C235.18 26.2641 232.628 37.7411 228.109 37.9614C227.632 37.9886 227.155 37.947 226.69 37.8378C221.365 36.4569 217.212 34.313 218.093 30.7829C218.674 28.4295 221.597 27.9728 223.327 27.1507C227.26 25.2701 232.832 28.6605 234.9 30.8796C236.598 32.7011 239.408 33.8026 239 36.4891L244.626 35.5757C244.626 35.5757 249.945 45.1721 250.837 46.4563C251.079 46.8055 246.78 49.9166 247.044 50.3303C248.29 52.3237 259.187 73.0532 263.098 87.2328C267.977 104.932 266.322 130.003 245.711 140.051" stroke="#231F20" stroke-opacity="0.6" stroke-width="0.268656" stroke-miterlimit="10"/>
<path d="M231.231 17.3389C233.45 18.0589 234.213 20.2081 233.783 20.6541C234.578 26.1615 232.09 37.4666 228.001 37.848C227.569 37.8935 227.132 37.8699 226.706 37.7782C221.581 36.537 217.223 34.6833 218.061 31.2928C218.598 29.0361 221.602 28.7997 223.262 28.0045C227.023 26.2045 232.66 29.7561 234.648 31.8893C236.26 33.6355 239.215 34.5006 238.828 37.0797L244.379 36.091C244.379 36.091 249.569 45.3973 250.536 46.7889C250.794 47.165 246.705 50.1955 246.985 50.6468C248.339 52.796 258.972 73.0419 262.782 87.0174C267.617 104.684 265.468 129.863 244.766 139.83" stroke="#231F20" stroke-opacity="0.6" stroke-width="0.268656" stroke-miterlimit="10"/>
<path d="M231.08 17.3496C233.149 18.0589 233.815 20.1544 233.353 20.638C233.976 26.0594 231.564 37.1925 227.899 37.7245C227.512 37.7931 227.115 37.7931 226.728 37.7245C221.79 36.6069 217.234 35.0755 218.04 31.814C218.577 29.6648 221.618 29.6272 223.209 28.8696C226.825 27.1394 232.499 30.8576 234.406 32.8994C235.97 34.5758 239.038 35.2045 238.662 37.6761L244.131 36.6015C244.131 36.6015 249.193 45.6122 250.235 47.1113C250.515 47.5196 246.625 50.4749 246.931 50.9638C248.387 53.285 258.752 73.0312 262.465 86.8025C267.198 104.432 264.651 129.718 243.82 139.604" stroke="#231F20" stroke-opacity="0.6" stroke-width="0.268656" stroke-miterlimit="10"/>
<path d="M230.935 17.3657C232.848 18.0589 233.423 20.1006 232.923 20.6218C233.374 25.9573 231.048 36.9239 227.792 37.6062C227.449 37.6906 227.092 37.7016 226.744 37.6385C222.005 36.6821 217.25 35.4301 218.013 32.3191C218.523 30.2505 221.634 30.4439 223.155 29.7185C226.615 28.0636 232.343 31.9484 234.164 33.9042C235.658 35.5161 238.855 35.8922 238.5 38.2564L243.873 37.1173C243.873 37.1173 248.811 45.8432 249.924 47.4498C250.225 47.885 246.539 50.765 246.866 51.2862C248.43 53.7793 258.547 73.0258 262.142 86.5983C266.801 104.19 263.813 129.583 242.869 139.389" stroke="#231F20" stroke-opacity="0.6" stroke-width="0.268656" stroke-miterlimit="10"/>
<path d="M230.79 17.3818C232.547 18.0588 233.025 20.0684 232.493 20.6057C232.773 25.8606 230.538 36.6498 227.69 37.4934C227.392 37.5899 227.076 37.6174 226.766 37.574C222.209 36.8003 217.261 35.8009 217.991 32.8349C218.48 30.8576 221.65 31.266 223.101 30.5728C226.406 28.9985 232.182 33.0445 233.923 34.9143C235.346 36.4403 238.678 36.5907 238.339 38.8474L243.632 37.6116C243.632 37.6116 248.468 46.0474 249.628 47.7614C249.951 48.2235 246.469 51.0229 246.813 51.5817C248.478 54.2414 258.338 72.999 261.831 86.3673C266.414 103.927 262.98 129.422 241.95 139.153" stroke="#231F20" stroke-opacity="0.6" stroke-width="0.268656" stroke-miterlimit="10"/>
<path d="M230.656 17.3984C232.268 18.0593 232.638 19.999 232.074 20.5847C232.182 25.759 230.065 36.3763 227.598 37.3757C227.34 37.4665 227.067 37.5119 226.792 37.51C222.618 36.1237 217.282 36.1775 217.981 33.3512C218.443 31.4653 221.677 32.0939 223.058 31.433C226.207 29.9285 232.031 34.1196 233.692 35.9196C235.051 37.3757 238.527 37.2897 238.183 39.439L243.395 38.144C243.395 38.144 248.075 46.295 249.338 48.1165C249.677 48.6055 246.399 51.3404 246.77 51.9207C248.537 54.747 258.139 73.0102 261.524 86.1797C266.027 103.701 262.158 129.31 240.999 138.954" stroke="#231F20" stroke-opacity="0.6" stroke-width="0.268656" stroke-miterlimit="10"/>
<path d="M230.5 17.4087C231.945 18.0588 232.235 19.9502 231.634 20.5681C231.569 25.6564 229.312 35.6934 227.48 37.257C227.19 37.3483 226.943 37.4128 226.803 37.445C222.838 36.1286 217.282 36.537 217.943 33.8504C218.383 32.0665 221.704 32.9048 222.994 32.2761C225.986 30.8522 231.865 35.2313 233.439 36.9185C234.728 38.3047 238.318 37.9931 238.011 40.0188L243.137 38.6862C243.137 38.6862 247.683 46.5471 249.021 48.4707C249.386 49.008 246.334 51.6408 246.7 52.2641C248.575 55.2569 257.913 73.0312 261.207 85.9965C265.635 103.481 261.325 129.196 240.053 138.76" stroke="#231F20" stroke-opacity="0.6" stroke-width="0.268656" stroke-miterlimit="10"/>
<path d="M230.349 17.4253C231.644 18.0593 231.838 19.8969 231.209 20.5524C230.967 25.5548 228.759 35.3876 227.378 37.1446L226.841 37.3757C223.08 36.1345 217.314 36.919 217.943 34.3775C218.362 32.6849 221.704 33.7381 222.961 33.1417C225.793 31.793 231.725 36.3387 233.219 37.9398C234.438 39.2509 238.157 38.6813 237.866 40.6264L242.906 39.181C242.906 39.181 247.312 46.7464 248.72 48.7774C249.102 49.3147 246.232 51.8992 246.641 52.5386C248.623 55.6926 257.699 72.9564 260.879 85.7337C265.226 103.191 260.482 129.009 239.097 138.492" stroke="#231F20" stroke-opacity="0.6" stroke-width="0.268656" stroke-miterlimit="10"/>
<path d="M230.204 17.4409C230.45 17.6023 230.661 17.8118 230.823 18.0566C230.986 18.3015 231.098 18.5767 231.152 18.8658C231.205 19.1549 231.2 19.4519 231.136 19.7388C231.072 20.0258 230.951 20.2969 230.779 20.5358C230.366 25.4522 228.211 35.0862 227.271 37.0259C227.121 37.1106 226.977 37.2057 226.841 37.3107C223.289 36.134 217.304 37.3107 217.9 34.8928C218.292 33.2809 221.715 34.5597 222.892 34.0009C225.578 32.7221 231.542 37.4343 232.955 38.9441C234.111 40.1853 237.958 39.3793 237.684 41.2062L242.638 39.6856C242.638 39.6856 246.936 46.9662 248.419 49.1101C248.822 49.685 246.152 52.1781 246.587 52.8712C248.666 56.1918 257.484 72.9828 260.557 85.5398C264.823 102.959 259.644 128.885 238.146 138.288" stroke="#231F20" stroke-opacity="0.6" stroke-width="0.268656" stroke-miterlimit="10"/>
<path d="M230.059 17.4575C231.043 18.0593 231.048 19.7948 230.349 20.5202C229.764 25.356 227.663 34.7804 227.169 36.9082C227.045 37.0008 226.939 37.1156 226.857 37.2467C223.52 36.1398 217.314 37.6658 217.873 35.4037C218.244 33.8993 221.731 35.4037 222.838 34.8664C225.352 33.6682 231.386 38.5416 232.714 39.9655C233.788 41.1315 237.781 40.0891 237.517 41.8085L242.391 40.1965C242.391 40.1965 246.555 47.1816 248.118 49.4383C248.537 50.0455 246.071 52.4634 246.506 53.1995C248.693 56.6866 257.253 72.9833 260.224 85.3415C264.41 102.729 258.795 128.756 237.184 138.079" stroke="#231F20" stroke-opacity="0.6" stroke-width="0.268656" stroke-miterlimit="10"/>
<path d="M229.914 17.4731C230.742 18.0588 230.65 19.7406 229.914 20.4982C229.157 25.248 227.104 34.4683 227.061 36.7949C226.957 36.8995 226.891 37.0355 226.873 37.1817C223.741 36.1393 217.325 38.0361 217.846 35.919C218.195 34.5059 221.742 36.2092 222.779 35.7149C225.138 34.5865 231.22 39.6319 232.45 40.9644C233.471 42.039 237.582 40.771 237.34 42.3829L242.127 40.7119C242.127 40.7119 246.163 47.4175 247.796 49.7709C248.237 50.405 245.974 52.7476 246.458 53.5321C248.747 57.1912 257.032 72.9935 259.891 85.1475C263.996 102.497 257.946 128.638 236.249 137.874" stroke="#231F20" stroke-opacity="0.6" stroke-width="0.268656" stroke-miterlimit="10"/>
<path d="M229.769 17.4844C230.441 18.0593 230.258 19.6874 229.49 20.4826C228.56 25.1464 226.561 34.1786 226.959 36.6771C226.883 36.8089 226.86 36.9644 226.895 37.1124C223.972 36.1452 217.341 38.4127 217.83 36.43C218.152 35.1136 221.763 37.0318 222.73 36.5697C224.933 35.4951 231.064 40.7285 232.225 41.9428C233.176 42.9637 237.42 41.4431 237.189 42.9476L241.891 41.2013C241.891 41.2013 245.803 47.6114 247.511 50.0777C247.973 50.7386 245.899 53.006 246.437 53.8013C248.828 57.6269 256.855 72.9403 259.633 84.8901C263.657 102.208 257.167 128.45 235.341 137.606" stroke="#231F20" stroke-opacity="0.6" stroke-width="0.268656" stroke-miterlimit="10"/>
<path d="M229.624 17.5005C230.161 18.0378 229.861 19.6497 229.087 20.4664C227.969 25.0497 226.008 33.8509 226.857 36.5374C226.824 36.6245 226.811 36.7175 226.818 36.8102C226.824 36.9029 226.85 36.9931 226.895 37.0747C224.181 36.1774 217.33 38.8103 217.76 36.9727C218.061 35.7476 221.736 37.8807 222.634 37.4509C224.745 36.4515 230.908 41.8246 231.983 42.9852C232.87 43.9308 237.238 42.1738 237.028 43.5708L241.644 41.744C241.644 41.744 245.405 47.8693 247.21 50.4431C247.689 51.1362 245.835 53.3177 246.356 54.1559C248.855 58.1427 256.613 72.9618 259.294 84.7128C263.233 101.993 256.312 128.342 234.374 137.418" stroke="#231F20" stroke-opacity="0.6" stroke-width="0.268656" stroke-miterlimit="10"/>
<path d="M229.474 17.5161C229.839 18.0534 229.474 19.5848 228.635 20.4498C227.357 24.9471 225.46 33.571 226.75 36.4402C226.753 36.634 226.817 36.8219 226.932 36.9775C224.428 36.1447 217.363 39.1268 217.798 37.4557C218.077 36.3274 221.812 38.6701 222.634 38.2778C224.525 37.3751 230.758 42.9148 231.768 43.9841C232.585 44.8545 237.087 42.8557 236.889 44.1506L241.402 42.2539C241.402 42.2539 245.056 48.0891 246.915 50.7649C247.415 51.4903 245.76 53.5966 246.308 54.467C248.908 58.6204 256.404 72.9505 258.983 84.492C262.841 101.745 255.485 128.197 233.434 137.197" stroke="#231F20" stroke-opacity="0.6" stroke-width="0.268656" stroke-miterlimit="10"/>
<path d="M229.329 17.5322C229.538 18.0695 229.071 19.5364 228.206 20.4337C226.755 24.845 225.412 33.0337 226.647 36.3274C226.711 36.542 226.815 36.7425 226.954 36.9184C224.659 36.1554 217.373 39.5298 217.76 37.993C218.013 36.9614 221.812 39.5244 222.569 39.159C224.299 38.3316 230.586 44.0378 231.499 45.0157C232.246 45.8163 236.872 43.5811 236.701 44.7632L241.15 42.7859C241.15 42.7859 244.674 48.3363 246.603 51.1196C247.141 51.8718 245.679 53.9028 246.243 54.8055C248.93 59.104 256.178 72.9666 258.66 84.3039C262.422 101.498 254.647 128.079 232.488 136.998" stroke="#231F20" stroke-opacity="0.6" stroke-width="0.268656" stroke-miterlimit="10"/>
<path d="M229.183 17.5488C229.237 18.0861 228.673 19.4831 227.776 20.4181C226.164 24.7166 224.761 32.7279 226.545 36.2097C226.65 36.4452 226.793 36.6614 226.97 36.8491C224.885 36.1613 217.384 39.901 217.733 38.461C217.964 37.5207 221.828 40.2986 222.515 39.9708C224.09 39.2186 230.43 45.0914 231.257 45.978C231.934 46.7033 236.7 44.2317 236.539 45.3063L240.897 43.2538C240.897 43.2538 244.293 48.5087 246.302 51.4048C246.84 52.1839 245.598 54.1397 246.184 55.0747C248.994 59.5612 255.958 72.9134 258.343 84.0465C262.024 101.24 253.814 127.896 231.542 136.73" stroke="#231F20" stroke-opacity="0.6" stroke-width="0.268656" stroke-miterlimit="10"/>
<path d="M229.044 17.5591C228.698 18.6266 228.118 19.6033 227.346 20.4176C225.551 24.6623 224.122 32.4641 226.438 36.1124C226.582 36.3687 226.763 36.6022 226.975 36.8056C225.094 36.1823 217.384 40.2927 217.696 39.0247C217.905 38.1757 221.828 41.1739 222.451 40.873C223.864 40.196 230.253 46.2461 231 47.036C231.612 47.6915 236.502 44.9781 236.373 45.9614L240.671 43.8121C240.671 43.8121 243.938 48.7823 246.044 51.7805C246.582 52.5918 245.561 54.467 246.173 55.4395C249.085 60.0927 255.78 72.9559 258.069 83.8848C261.664 101.036 253.024 127.805 230.64 136.541" stroke="#231F20" stroke-opacity="0.6" stroke-width="0.268656" stroke-miterlimit="10"/>
<path d="M228.893 17.5757C228.635 18.0593 227.706 19.236 226.921 20.3804C224.305 24.1416 223.504 32.1637 226.336 35.9625C226.528 36.2363 226.754 36.4853 227.007 36.704C225.342 36.1667 217.411 40.6317 217.69 39.498C217.873 38.7458 221.86 41.9535 222.413 41.6902C223.671 41.1099 230.118 47.3105 230.774 48.0198C231.311 48.6054 236.341 45.6502 236.212 46.5099L240.403 44.3069C240.403 44.3069 243.551 48.9869 245.7 52.1194C246.286 52.9576 245.448 54.7576 246.077 55.7678C249.096 60.6036 255.517 72.9617 257.715 83.708C261.218 100.827 252.154 127.698 229.656 136.364" stroke="#231F20" stroke-opacity="0.6" stroke-width="0.268656" stroke-miterlimit="10"/>
<path d="M228.743 17.5913C228.334 18.0534 227.33 19.2032 226.492 20.3638C223.805 24.125 222.902 31.8892 226.228 35.8599C226.466 36.1525 226.735 36.4191 227.029 36.6551C225.567 36.1662 217.422 41.0181 217.663 40.0294C217.825 39.3685 221.876 42.7966 222.36 42.5655C223.461 42.0282 229.952 48.4061 230.532 49.0133C231.005 49.5506 236.158 46.3267 236.045 47.0843L240.155 44.8008C240.155 44.8008 243.164 49.196 245.394 52.4091C245.996 53.2742 245.362 54.9989 246.012 56.0413C249.139 61.0276 255.291 72.9075 257.392 83.4442C260.804 100.531 251.31 127.504 228.705 136.101" stroke="#231F20" stroke-opacity="0.6" stroke-width="0.268656" stroke-miterlimit="10"/>
<path d="M228.598 17.6074C227.655 18.4252 226.804 19.3442 226.062 20.3477C223.284 24.0337 222.3 31.6312 226.126 35.7417C226.403 36.0548 226.713 36.3376 227.05 36.5853C225.793 36.1715 217.432 41.3888 217.642 40.5399C217.782 40.0026 221.892 43.6187 222.306 43.4199C223.251 42.9685 229.791 49.5022 230.29 50.0395C230.693 50.4748 235.98 47.0467 235.884 47.6915L239.903 45.3327C239.903 45.3327 242.788 49.4378 245.093 52.753C245.716 53.6503 245.281 55.2998 245.958 56.3744C249.182 61.5273 255.066 72.9183 257.075 83.24C260.396 100.3 250.477 127.375 227.765 135.897" stroke="#231F20" stroke-opacity="0.6" stroke-width="0.268656" stroke-miterlimit="10"/>
<path d="M228.453 17.6187C227.376 18.3689 226.423 19.2847 225.632 20.3321C222.768 23.9697 221.72 31.3362 226.024 35.6293C226.345 35.9616 226.694 36.2654 227.067 36.5374C226.024 36.1935 217.443 41.7816 217.621 41.0723C217.733 40.6048 221.919 44.4574 222.252 44.2962C223.042 43.9254 229.63 50.6257 230.043 51.0663C230.457 51.5069 235.798 47.7618 235.717 48.3045L239.656 45.8651C239.656 45.8651 242.412 49.68 244.792 53.1081C245.432 54.0322 245.201 55.6012 245.899 56.7134C249.231 62.0328 254.846 72.9349 256.758 83.0417C259.982 100.069 249.644 127.252 226.819 135.698" stroke="#231F20" stroke-opacity="0.6" stroke-width="0.268656" stroke-miterlimit="10"/>
<path d="M228.308 17.6343C227.107 18.3192 226.053 19.2317 225.202 20.3208C222.252 23.9262 221.14 31.0671 225.917 35.5214C226.284 35.8647 226.675 36.1808 227.088 36.467C226.25 36.1876 217.454 42.1464 217.594 41.5823C217.685 41.2061 221.924 45.2736 222.198 45.1446C222.827 44.8437 229.474 51.7106 229.801 52.0652C230.129 52.4198 235.62 48.4491 235.556 48.8789L239.409 46.3697C239.409 46.3697 242.036 49.8945 244.486 53.43C245.147 54.381 245.126 55.8747 245.84 57.0192C249.279 62.5052 254.62 72.9183 256.441 82.8102C259.568 99.8053 248.811 127.09 225.874 135.434" stroke="#231F20" stroke-opacity="0.6" stroke-width="0.268656" stroke-miterlimit="10"/>
<path d="M228.163 17.6504C226.847 18.2643 225.688 19.1681 224.772 20.294C221.726 23.8617 220.565 30.7769 225.815 35.3924C226.222 35.7537 226.653 36.0875 227.104 36.3918C226.481 36.1823 217.465 42.5064 217.572 42.0819C217.642 41.8025 221.941 46.0903 222.145 45.9882C222.618 45.7625 229.312 52.7959 229.56 53.0646C229.807 53.3332 235.438 49.1368 235.389 49.4592L239.151 46.8748C239.151 46.8748 241.649 50.0986 244.175 53.7523C244.857 54.7303 245.034 56.1488 245.786 57.3308C249.322 62.978 254.383 72.9129 256.124 82.5845C259.155 99.5474 247.979 126.934 224.928 135.203" stroke="#231F20" stroke-opacity="0.6" stroke-width="0.268656" stroke-miterlimit="10"/>
<path d="M228.012 17.667C226.592 18.2182 225.332 19.1159 224.348 20.2783C221.199 23.8138 219.995 30.4872 225.707 35.2747C226.157 35.6537 226.631 36.0036 227.126 36.3224C226.706 36.1881 217.481 42.883 217.545 42.5982C217.594 42.4102 221.957 46.8967 222.096 46.8484C222.408 46.6979 229.151 53.8925 229.318 54.0698C229.484 54.2472 235.26 49.8358 235.228 50.0508L238.909 47.3642C238.909 47.3642 241.284 50.314 243.884 54.0591C244.583 55.0692 244.959 56.4125 245.727 57.6268C249.37 63.4406 254.168 72.8757 255.807 82.37C258.736 99.3007 247.146 126.79 223.982 134.978" stroke="#231F20" stroke-opacity="0.6" stroke-width="0.268656" stroke-miterlimit="10"/>
<path d="M227.867 17.6826C226.343 18.1719 224.979 19.0628 223.918 20.2617C220.694 23.7704 219.426 30.2181 225.605 35.1614C226.098 35.5461 226.611 35.9048 227.142 36.236C226.932 36.1661 217.47 43.221 217.524 43.0921C217.578 42.9631 221.973 47.713 222.043 47.6807C222.199 47.6055 228.996 54.9667 229.076 55.058C229.157 55.1493 235.078 50.507 235.062 50.6359L238.662 47.901C238.662 47.901 240.908 50.5553 243.578 54.4132C244.304 55.4556 244.889 56.7129 245.668 57.9649C249.429 63.9451 253.927 72.8914 255.49 82.1815C258.29 99.0853 246.313 126.671 223.042 134.779" stroke="#231F20" stroke-opacity="0.6" stroke-width="0.268656" stroke-miterlimit="10"/>
<path d="M227.722 17.6934C221.812 19.1065 215.788 29.0951 227.185 36.193L217.513 43.624L228.845 56.0896L238.415 48.4115C238.415 48.4115 252.272 63.9398 255.173 81.9666C257.892 98.8382 245.502 126.537 222.096 134.559" stroke="#231F20" stroke-opacity="0.6" stroke-width="0.268656" stroke-miterlimit="10"/>
<path d="M179.853 63.193C176.393 62.4408 172.304 60.1142 171.874 53.6772C170.477 32.4695 208.089 35.4946 192.023 63.5154C181.535 81.8216 156.668 98.8436 140.538 107.849C115.934 121.588 124.569 140.878 148.264 138.32" stroke="#231F20" stroke-opacity="0.6" stroke-width="0.268656" stroke-miterlimit="10"/>
<path d="M179.853 63.1936C176.629 62.5004 172.868 60.1094 172.513 53.6939C171.288 32.8193 207.342 35.3769 191.411 63.0324C180.917 81.215 156.485 99.0322 141.172 108.167C117.686 122.137 126.24 140.674 149.425 138.288" stroke="#231F20" stroke-opacity="0.6" stroke-width="0.268656" stroke-miterlimit="10"/>
<path d="M179.853 63.193C176.925 62.5536 173.475 60.1034 173.163 53.7309C172.089 33.1895 206.611 35.2904 190.814 62.5697C180.31 80.6287 156.367 99.2304 141.822 108.488C119.47 122.716 127.922 140.48 150.602 138.266" stroke="#231F20" stroke-opacity="0.6" stroke-width="0.263283" stroke-miterlimit="10"/>
<path d="M179.853 63.1931C177.166 62.6075 174.061 60.0982 173.787 53.7203C172.922 33.5121 205.859 35.1509 190.191 62.0594C179.681 79.9895 156.233 99.365 142.445 108.773C121.254 123.227 129.587 140.238 151.752 138.196" stroke="#231F20" stroke-opacity="0.6" stroke-width="0.263283" stroke-miterlimit="10"/>
<path d="M179.853 63.1926C177.408 62.6553 174.647 60.0923 174.426 53.7359C173.738 33.8554 205.117 35.0321 189.578 61.5699C179.074 79.3764 156.136 99.5041 143.074 109.074C123.059 123.748 131.253 140.017 152.907 138.148" stroke="#231F20" stroke-opacity="0.6" stroke-width="0.263283" stroke-miterlimit="10"/>
<path d="M179.853 63.1932C177.661 62.7203 175.232 60.0875 175.066 53.7472C174.528 34.216 204.435 34.9413 188.966 61.0869C178.488 78.7859 156.066 99.6283 143.713 109.386C124.908 124.253 132.93 139.808 154.078 138.111" stroke="#231F20" stroke-opacity="0.6" stroke-width="0.263283" stroke-miterlimit="10"/>
<path d="M179.853 63.1935C177.913 62.7744 175.818 60.0825 175.705 53.7637C175.35 34.5656 203.704 34.845 188.353 60.5983C177.876 78.1791 156.029 99.7253 144.353 109.692C126.74 124.737 134.606 139.594 155.239 138.073" stroke="#231F20" stroke-opacity="0.6" stroke-width="0.25791" stroke-miterlimit="10"/>
<path d="M179.853 63.193C178.171 62.8276 176.403 60.0819 176.339 53.7793C176.156 34.9196 202.973 34.737 187.741 60.1088C177.263 77.5661 156.012 99.7946 144.987 109.998C128.593 125.193 136.277 139.378 156.399 138.03" stroke="#231F20" stroke-opacity="0.6" stroke-width="0.25791" stroke-miterlimit="10"/>
<path d="M179.853 63.193C178.424 62.8868 176.989 60.0766 176.978 53.7901C176.978 35.269 202.232 34.6242 187.133 59.6253C176.656 76.959 153.997 98.1505 145.621 110.304C127.986 122.63 137.948 139.163 157.581 137.987" stroke="#231F20" stroke-opacity="0.6" stroke-width="0.25791" stroke-miterlimit="10"/>
<path d="M179.853 63.1936C178.676 62.9411 177.569 60.0719 177.618 53.8068C177.757 35.6242 201.507 34.5173 186.521 59.1369C176.043 76.3309 153.664 98.0652 146.26 110.611C129.491 122.76 139.624 138.949 158.726 137.944" stroke="#231F20" stroke-opacity="0.6" stroke-width="0.252536" stroke-miterlimit="10"/>
<path d="M179.853 63.1932C178.929 62.9944 178.155 60.0714 178.241 53.8224C178.536 35.9783 200.754 34.4094 185.892 58.6582C175.415 75.7501 153.315 97.9841 146.878 110.928C130.984 122.894 141.279 138.739 159.876 137.912" stroke="#231F20" stroke-opacity="0.6" stroke-width="0.252536" stroke-miterlimit="10"/>
<path d="M179.853 63.193C179.187 63.048 178.735 60.0659 178.897 53.8331C179.343 36.3328 200.034 34.2964 185.296 58.1638C174.818 75.1321 152.998 97.8872 147.528 111.229C132.484 123.05 142.967 138.524 161.052 137.863" stroke="#231F20" stroke-opacity="0.6" stroke-width="0.252536" stroke-miterlimit="10"/>
<path d="M179.853 63.193C179.439 63.107 179.316 60.0604 179.53 53.8491C180.132 36.6874 199.298 34.1835 184.683 57.6801C174.206 74.5249 152.665 97.8012 148.146 111.535C133.999 123.152 144.627 138.309 162.197 137.82" stroke="#231F20" stroke-opacity="0.6" stroke-width="0.252536" stroke-miterlimit="10"/>
<path d="M179.853 63.1932C179.692 63.161 179.896 60.0607 180.17 53.8655C180.917 37.0423 198.562 34.0763 184.071 57.1914C173.593 73.9126 152.332 97.7155 148.802 111.841C135.519 123.281 146.298 138.089 163.379 137.783" stroke="#231F20" stroke-opacity="0.6" stroke-width="0.247163" stroke-miterlimit="10"/>
<path d="M179.853 63.193C179.944 63.193 180.476 60.0551 180.809 53.876C181.701 37.3966 197.826 33.9632 183.458 56.7076C172.975 73.3052 151.999 97.6293 149.436 112.147C137.029 123.431 147.99 137.879 164.54 137.74" stroke="#231F20" stroke-opacity="0.6" stroke-width="0.247163" stroke-miterlimit="10"/>
<path d="M179.853 63.1928C180.197 63.2734 181.051 60.0549 181.465 53.892C182.496 37.7726 197.106 33.8503 182.867 56.2185C172.379 72.6925 151.703 97.5432 150.091 112.454C138.555 123.538 149.683 137.664 165.722 137.707" stroke="#231F20" stroke-opacity="0.6" stroke-width="0.247163" stroke-miterlimit="10"/>
<path d="M179.853 63.1931C180.455 63.3274 181.631 60.0498 182.083 53.9083C183.254 38.106 196.348 33.7377 182.239 55.7352C171.75 72.0856 151.332 97.4574 150.709 112.76C140.038 123.673 151.332 137.45 166.866 137.654" stroke="#231F20" stroke-opacity="0.6" stroke-width="0.24179" stroke-miterlimit="10"/>
<path d="M179.853 63.1933C180.707 63.3813 182.206 60.05 182.722 53.9193C184.028 38.4608 195.618 33.625 181.648 55.2464C171.154 71.4732 151.021 97.3716 151.365 113.072C141.569 123.818 153.03 137.251 168.048 137.616" stroke="#231F20" stroke-opacity="0.6" stroke-width="0.24179" stroke-miterlimit="10"/>
<path d="M179.853 63.1932C180.96 63.435 182.781 60.0445 183.362 53.9353C184.796 38.8207 194.871 33.5175 181.014 54.7574C170.514 70.8767 150.666 97.2856 151.999 113.378C143.074 123.931 154.685 137.02 169.193 137.557" stroke="#231F20" stroke-opacity="0.6" stroke-width="0.24179" stroke-miterlimit="10"/>
<path d="M179.853 63.1929C181.212 63.4938 183.356 60.0442 184.001 53.9457C185.559 39.175 194.129 33.3989 180.401 54.2735C169.902 70.2478 150.311 97.1939 152.611 113.684C144.552 124.059 156.372 136.788 170.342 137.53" stroke="#231F20" stroke-opacity="0.6" stroke-width="0.24179" stroke-miterlimit="10"/>
<path d="M179.853 63.1933C181.465 63.5479 183.926 60.0447 184.635 53.9623C186.322 39.5301 193.388 33.2812 179.799 53.785C169.295 69.6357 150.011 97.1084 153.261 113.991C146.077 124.2 158.038 136.59 171.53 137.487" stroke="#231F20" stroke-opacity="0.6" stroke-width="0.236417" stroke-miterlimit="10"/>
<path d="M179.853 63.1929C181.723 63.6013 184.501 60.0389 185.274 53.978C187.08 39.8844 192.641 33.168 179.181 53.301C168.666 69.0228 149.667 97.0221 153.885 114.297C147.577 124.323 159.698 136.38 172.691 137.449" stroke="#231F20" stroke-opacity="0.6" stroke-width="0.236417" stroke-miterlimit="10"/>
<path d="M179.853 63.1931C181.975 63.6605 185.07 60.039 185.914 53.9889C187.837 40.2391 191.899 33.0338 178.569 52.8122C168.048 68.3942 149.334 96.9362 154.519 114.603C149.081 124.452 161.369 136.165 173.862 137.407" stroke="#231F20" stroke-opacity="0.6" stroke-width="0.236417" stroke-miterlimit="10"/>
<path d="M179.853 63.1931C182.228 63.7304 185.64 60.0337 186.553 54.0051C188.59 40.5723 191.153 32.9371 177.956 52.3287C167.425 67.7979 149.001 96.8503 155.153 114.915C150.586 124.586 163.046 135.95 175.001 137.364" stroke="#231F20" stroke-opacity="0.6" stroke-width="0.231044" stroke-miterlimit="10"/>
<path d="M179.853 63.1934C182.48 63.7683 186.204 60.0286 187.193 54.0215C189.342 40.9487 190.416 32.8192 177.344 51.84C166.807 67.1856 148.667 96.7646 155.792 115.243C152.095 124.732 164.717 135.757 176.167 137.342" stroke="#231F20" stroke-opacity="0.6" stroke-width="0.231044" stroke-miterlimit="10"/>
<path d="M179.853 63.1933C182.738 63.8219 186.768 60.0285 187.827 54.059C190.078 41.3247 189.664 32.7277 176.731 51.3724C166.178 66.573 148.334 96.6785 156.426 115.522C153.6 124.834 166.388 135.515 177.328 137.278" stroke="#231F20" stroke-opacity="0.6" stroke-width="0.231044" stroke-miterlimit="10"/>
<path d="M179.853 63.1929C182.991 63.8807 187.332 60.0228 188.45 54.0586C190.803 41.6629 188.901 32.593 176.092 50.8777C165.539 65.9655 147.974 96.603 157.033 115.844C155.083 124.978 168.037 135.316 178.467 137.251" stroke="#231F20" stroke-opacity="0.6" stroke-width="0.231044" stroke-miterlimit="10"/>
<path d="M179.853 63.1936C183.243 63.9351 187.913 60.0181 189.105 54.0593C191.561 41.9967 188.165 32.4594 175.511 50.3788C164.943 65.3375 147.668 96.5016 157.7 116.135C156.625 125.097 169.735 135.086 179.654 137.192" stroke="#231F20" stroke-opacity="0.6" stroke-width="0.225671" stroke-miterlimit="10"/>
<path d="M179.853 63.1935C183.496 63.9887 188.45 60.0126 189.745 54.0592C192.297 42.3351 187.418 32.3303 174.899 49.8789C164.319 64.7087 147.335 96.3994 158.334 116.43C158.124 125.215 171.412 134.86 180.815 137.138" stroke="#231F20" stroke-opacity="0.6" stroke-width="0.225671" stroke-miterlimit="10"/>
<path d="M179.853 63.1929C183.748 64.0472 188.987 60.0066 190.379 54.0908C193.028 42.6944 186.666 32.2222 174.26 49.4054C163.669 64.1063 146.975 96.3289 158.941 116.752C159.602 125.349 173.056 134.661 181.954 137.116" stroke="#231F20" stroke-opacity="0.6" stroke-width="0.225671" stroke-miterlimit="10"/>
<path d="M179.853 63.1931C184.006 64.1011 189.562 59.9692 191.018 54.1071C193.759 43.0439 185.919 32.1042 173.674 48.9221C163.067 63.4886 146.669 96.2431 159.602 117.064C161.133 125.489 174.754 134.451 183.141 137.073" stroke="#231F20" stroke-opacity="0.6" stroke-width="0.220298" stroke-miterlimit="10"/>
<path d="M179.853 63.1933C184.259 64.1551 190.115 59.9694 191.674 54.1181C194.5 43.3719 185.183 31.9808 173.077 48.4333C162.444 62.8655 149.624 94.3359 160.268 117.37C163.862 125.178 176.457 134.237 184.329 137.031" stroke="#231F20" stroke-opacity="0.6" stroke-width="0.220298" stroke-miterlimit="10"/>
<path d="M179.853 63.1933C184.511 64.2142 190.664 59.9694 192.297 54.1342C195.204 43.7265 184.415 31.8573 172.449 47.9498C161.815 62.253 148.447 94.5669 160.875 117.671C165.007 125.344 178.101 134.016 185.468 137.015" stroke="#231F20" stroke-opacity="0.6" stroke-width="0.220298" stroke-miterlimit="10"/>
<path d="M179.853 63.193C184.764 64.2676 191.206 59.9691 192.931 54.15C195.924 44.0593 183.63 31.7012 171.842 47.4605C161.165 61.6133 147.254 94.9212 161.509 117.983C166.2 125.569 179.778 133.806 186.628 136.95" stroke="#231F20" stroke-opacity="0.6" stroke-width="0.220298" stroke-miterlimit="10"/>
<path d="M179.853 63.1931C185.022 64.3214 191.749 59.9692 193.571 54.1608C196.644 44.4033 182.894 31.5938 171.229 46.977C160.547 61.0008 146.104 95.335 162.143 118.289C167.42 125.811 181.449 133.592 187.789 136.907" stroke="#231F20" stroke-opacity="0.6" stroke-width="0.214925" stroke-miterlimit="10"/>
<path d="M179.853 63.1934C185.274 64.3755 192.292 59.9373 194.21 54.1773C197.342 44.7368 182.153 31.4867 170.617 46.4884C159.929 60.3887 144.997 95.8136 162.783 118.596C168.693 126.118 183.12 133.377 188.955 136.864" stroke="#231F20" stroke-opacity="0.6" stroke-width="0.214925" stroke-miterlimit="10"/>
<path d="M121.007 26.4463C117.922 36.7466 131.833 45.8164 139.189 31.7657C147.668 15.5658 111.716 9.19863 117.659 35.1669C123.145 59.131 120.265 101.068 114 114.399C112.78 116.989 107.241 136.864 84.4479 136.864" stroke="#231F20" stroke-opacity="0.6" stroke-width="0.161193" stroke-miterlimit="10"/>
<path d="M121.291 26.6454C118.261 36.7738 131.952 45.8328 139.13 32.2388C147.426 16.4526 112.017 10.3541 117.724 36.0484C122.968 59.8029 119.986 101.262 113.425 114.496C112.377 116.607 108.509 129.874 95.0706 134.86C91.5003 136.148 87.7274 136.783 83.9321 136.735" stroke="#231F20" stroke-opacity="0.6" stroke-width="0.161193" stroke-miterlimit="10"/>
<path d="M121.582 26.8653C118.605 36.8163 132.075 45.8593 139.071 32.6844C147.19 17.3065 112.318 11.4767 117.794 36.9077C122.801 60.4419 119.706 101.428 112.839 114.592C111.727 116.741 107.81 129.803 94.5011 134.747C90.9528 136.023 87.2029 136.648 83.4324 136.59" stroke="#231F20" stroke-opacity="0.6" stroke-width="0.166567" stroke-miterlimit="10"/>
<path d="M121.861 27.048C118.932 36.827 132.193 45.8539 139.006 33.125C146.943 18.1555 112.678 12.5835 117.858 37.7566C122.656 61.0652 119.432 101.578 112.248 114.667C111.077 116.817 107.117 129.712 93.926 134.607C90.3946 135.901 86.6555 136.534 82.895 136.477" stroke="#231F20" stroke-opacity="0.6" stroke-width="0.166567" stroke-miterlimit="10"/>
<path d="M122.146 27.2529C119.271 36.8547 132.355 45.8869 138.942 33.5771C146.738 19.0374 112.974 13.6966 117.922 38.6171C122.511 61.7215 119.11 101.751 111.668 114.754C110.427 116.903 106.424 129.627 93.3565 134.484C89.85 135.762 86.1376 136.382 82.4061 136.311" stroke="#231F20" stroke-opacity="0.6" stroke-width="0.166567" stroke-miterlimit="10"/>
<path d="M122.43 27.4565C119.61 36.8809 132.473 45.9024 138.883 34.0278C146.507 19.9073 113.285 14.8458 117.987 39.4815C122.35 62.3549 118.804 101.923 111.088 114.845C109.782 117.032 105.715 129.546 92.7924 134.36C89.304 135.635 85.6088 136.249 81.8957 136.171" stroke="#231F20" stroke-opacity="0.6" stroke-width="0.17194" stroke-miterlimit="10"/>
<path d="M122.715 27.6552C119.943 36.9077 132.602 45.9238 138.835 34.4844C146.287 20.7776 113.613 15.9794 118.062 40.3411C122.199 62.9995 118.508 102.089 110.513 114.931C109.143 117.139 105.059 129.438 92.2443 134.242C88.7769 135.509 85.1031 136.118 81.4121 136.036" stroke="#231F20" stroke-opacity="0.6" stroke-width="0.17194" stroke-miterlimit="10"/>
<path d="M123 27.8598C120.281 36.935 132.731 45.9349 138.775 34.9254C146.061 21.6324 113.93 17.0974 118.132 41.1959C122.044 63.6394 118.202 102.245 109.938 115.012C108.498 117.236 104.371 129.369 91.6694 134.108C88.2304 135.369 84.585 135.972 80.9232 135.886" stroke="#231F20" stroke-opacity="0.6" stroke-width="0.17194" stroke-miterlimit="10"/>
<path d="M123.285 28.0581C120.598 36.9613 132.86 45.9506 138.7 35.387C145.814 22.513 114.226 18.2683 118.18 42.0712C121.872 64.2944 117.869 102.422 109.336 115.113C107.832 117.354 103.668 129.298 91.0676 133.994C87.6437 135.254 84.0115 135.852 80.3644 135.757" stroke="#231F20" stroke-opacity="0.6" stroke-width="0.177313" stroke-miterlimit="10"/>
<path d="M123.57 28.2622C120.953 36.9882 132.989 45.9935 138.641 35.8437C145.589 23.3835 114.537 19.3697 118.223 42.9308C121.689 64.9606 117.525 102.572 108.734 115.199C107.16 117.461 102.953 129.218 90.498 133.871C87.0936 135.126 83.4808 135.718 79.8539 135.617" stroke="#231F20" stroke-opacity="0.6" stroke-width="0.177313" stroke-miterlimit="10"/>
<path d="M123.854 28.4774C121.291 37.0368 133.123 46.0045 138.577 36.3114C145.358 24.2703 114.849 20.5199 118.315 43.8338C121.539 65.6272 117.24 102.788 108.17 115.328C106.531 117.601 102.26 129.175 89.95 133.785C86.5681 135.039 82.9755 135.627 79.3703 135.515" stroke="#231F20" stroke-opacity="0.6" stroke-width="0.177313" stroke-miterlimit="10"/>
<path d="M124.139 28.6655C121.63 37.0475 133.273 46.0099 138.518 36.7251C145.132 25.1246 115.166 21.6374 118.358 44.6559C121.367 66.2343 116.869 102.911 107.568 115.377C105.854 117.671 101.572 129.057 89.3589 133.645C85.9985 134.895 82.4271 135.479 78.8438 135.365" stroke="#231F20" stroke-opacity="0.6" stroke-width="0.182686" stroke-miterlimit="10"/>
<path d="M124.424 28.8696C121.963 37.0743 133.402 46.0259 138.453 37.2033C144.901 25.995 115.472 22.7711 118.444 45.5209C121.227 66.8844 116.558 103.072 107.01 115.468C105.226 117.779 100.906 128.976 88.8163 133.506C85.4745 134.746 81.9228 135.323 78.3602 135.204" stroke="#231F20" stroke-opacity="0.6" stroke-width="0.182686" stroke-miterlimit="10"/>
<path d="M124.709 29.0684C122.301 37.1012 133.51 46.042 138.394 37.6653C144.675 26.8761 115.784 23.9102 118.513 46.3967C121.071 67.5399 116.23 103.244 106.429 115.565C104.576 117.897 100.223 128.906 88.252 133.393C84.9301 134.63 81.3974 135.201 77.855 135.075" stroke="#231F20" stroke-opacity="0.6" stroke-width="0.182686" stroke-miterlimit="10"/>
<path d="M124.993 29.2725C122.656 37.128 133.639 46.0634 138.335 38.1059C144.449 27.7411 116.096 25.0331 118.573 47.2402C120.905 68.1953 115.886 103.384 105.844 115.64C103.92 117.993 99.5517 128.809 87.6772 133.253C84.3776 134.488 80.8652 135.055 77.3447 134.919" stroke="#231F20" stroke-opacity="0.6" stroke-width="0.188059" stroke-miterlimit="10"/>
<path d="M125.278 29.4717C122.978 37.1552 133.773 46.0854 138.27 38.563C144.224 28.612 116.407 26.1672 118.637 48.111C120.743 68.8297 115.542 103.545 105.258 115.732C103.265 118.096 98.8102 128.729 87.1129 133.135C83.8332 134.366 80.3398 134.927 76.8395 134.785" stroke="#231F20" stroke-opacity="0.6" stroke-width="0.188059" stroke-miterlimit="10"/>
<path d="M125.563 29.6758C123.312 37.1981 133.902 46.1068 138.211 39.0143C143.998 29.4877 116.719 27.3062 118.701 48.9706C120.582 69.4798 115.198 103.701 104.678 115.823C102.614 118.203 98.1439 128.649 86.5434 133.017C83.2831 134.234 79.8111 134.782 76.3345 134.629" stroke="#231F20" stroke-opacity="0.6" stroke-width="0.188059" stroke-miterlimit="10"/>
<path d="M125.848 29.8799C123.65 37.2088 134.036 46.1282 138.152 39.4655C143.778 30.3635 117.025 28.4399 118.766 49.8356C120.421 70.1245 114.854 103.852 104.092 115.925C101.943 118.316 97.4562 128.579 85.9739 132.899C82.7365 134.117 79.2852 134.666 75.8295 134.511" stroke="#231F20" stroke-opacity="0.6" stroke-width="0.193432" stroke-miterlimit="10"/>
<path d="M126.133 30.0894C123.983 37.2463 134.165 46.1603 138.088 39.9329C143.558 31.2392 117.337 29.552 118.836 50.7006C120.26 70.7746 114.505 104.002 103.512 116C101.303 118.413 96.7631 128.487 85.4097 132.77C82.1924 133.986 78.7608 134.535 75.3244 134.382" stroke="#231F20" stroke-opacity="0.6" stroke-width="0.193432" stroke-miterlimit="10"/>
<path d="M126.417 30.2827C124.322 37.2678 134.3 46.171 138.029 40.3734C143.337 32.1203 117.643 30.7018 118.9 51.5602C120.093 71.4408 114.156 104.152 102.926 116.091C100.648 118.515 96.0754 128.407 84.8402 132.646C81.6494 133.855 78.2438 134.395 74.8354 134.231" stroke="#231F20" stroke-opacity="0.6" stroke-width="0.193432" stroke-miterlimit="10"/>
<path d="M126.702 30.4819C124.66 37.2897 134.429 46.209 137.964 40.8359C143.122 33.0127 117.949 31.8574 118.965 52.4365C119.932 72.086 113.801 104.309 102.346 116.188C99.9923 118.633 95.3876 128.337 84.2706 132.534C81.0905 133.739 77.6947 134.272 74.2981 134.097" stroke="#231F20" stroke-opacity="0.6" stroke-width="0.198805" stroke-miterlimit="10"/>
<path d="M126.981 30.686C124.999 37.3218 134.563 46.209 137.905 41.2818C142.907 33.8884 118.261 32.9804 119.029 53.2907C119.765 72.7307 113.452 104.443 101.765 116.269C99.3368 118.725 94.6944 128.246 83.7064 132.388C80.55 133.591 77.1771 134.122 73.8038 133.947" stroke="#231F20" stroke-opacity="0.6" stroke-width="0.198805" stroke-miterlimit="10"/>
<path d="M127.266 30.8848C125.332 37.3325 134.697 46.2465 137.846 41.7331C142.682 34.748 118.567 34.114 119.094 54.1504C119.604 73.3807 113.092 104.588 101.18 116.355C98.6813 118.827 94.0067 128.176 83.1369 132.275C80.0029 133.477 76.6501 134.003 73.2987 133.818" stroke="#231F20" stroke-opacity="0.6" stroke-width="0.198805" stroke-miterlimit="10"/>
<path d="M127.551 31.0889C125.67 37.3754 134.826 46.2787 137.76 42.1844C142.472 35.6668 118.852 35.253 119.137 55.0153C119.416 74.0308 112.716 104.733 100.578 116.446C97.9989 118.929 93.2921 128.079 82.5459 132.152C79.4341 133.352 76.1016 133.872 72.7722 133.678" stroke="#231F20" stroke-opacity="0.6" stroke-width="0.204178" stroke-miterlimit="10"/>
<path d="M127.836 31.293C126.009 37.4022 134.961 46.3055 137.722 42.641C142.295 36.5694 119.174 36.3921 119.223 55.875C119.271 74.6809 112.383 104.872 100.014 116.532C97.3648 119.036 92.6258 127.998 82.0031 132.028C78.911 133.223 75.5976 133.738 72.2885 133.538" stroke="#231F20" stroke-opacity="0.6" stroke-width="0.204178" stroke-miterlimit="10"/>
<path d="M128.121 31.4917C126.342 37.4021 135.106 46.343 137.663 43.0923C142.101 37.4773 119.481 37.5257 119.287 56.74C119.104 75.3363 112.023 105.012 99.4066 116.623C96.6825 119.138 91.8843 127.907 81.4067 131.91C78.3283 133.099 75.029 133.609 71.7351 133.404" stroke="#231F20" stroke-opacity="0.6" stroke-width="0.204178" stroke-miterlimit="10"/>
<path d="M128.405 31.7017C126.681 37.4563 135.224 46.381 137.599 43.5225C141.897 38.3751 119.787 38.6437 119.357 57.584C118.938 75.9654 111.663 105.131 98.8478 116.688C96.0484 119.214 91.2449 127.811 80.864 131.76C77.8149 132.947 74.5441 133.456 71.2784 133.254" stroke="#231F20" stroke-opacity="0.6" stroke-width="0.209551" stroke-miterlimit="10"/>
<path d="M128.69 31.895C127.019 37.4831 135.353 46.4293 137.54 44.0006C141.736 39.3314 120.088 39.8042 119.421 58.4651C118.771 76.6423 111.303 105.286 98.2675 116.801C95.3929 119.342 90.5571 127.757 80.2998 131.663C77.2693 132.841 74.0174 133.34 70.7733 133.125" stroke="#231F20" stroke-opacity="0.6" stroke-width="0.209551" stroke-miterlimit="10"/>
<path d="M128.975 32.0991C127.363 37.5098 135.476 46.4829 137.475 44.4573C141.575 40.2931 120.389 40.9486 119.486 59.3354C118.599 77.2978 110.943 105.431 97.6819 116.898C94.7375 119.444 89.8641 127.681 79.7304 131.545C76.7222 132.721 73.4904 133.215 70.2683 132.99" stroke="#231F20" stroke-opacity="0.6" stroke-width="0.209551" stroke-miterlimit="10"/>
<path d="M129.26 32.3032C127.691 37.5366 135.31 46.1659 137.416 44.9032C140.64 40.5724 120.69 42.0769 119.55 60.1897C118.433 77.9478 110.577 105.56 97.1016 116.978C94.0765 119.541 89.1762 127.595 79.1608 131.416C76.1725 132.588 72.9595 133.077 69.7578 132.845" stroke="#231F20" stroke-opacity="0.6" stroke-width="0.214925" stroke-miterlimit="10"/>
<path d="M129.544 32.502C128.029 37.5634 135.428 46.1765 137.357 45.3598C140.404 41.4374 120.99 43.2106 119.626 61.0547C118.272 78.5979 110.228 105.689 96.5213 117.069C93.421 119.643 88.4616 127.509 78.5966 131.292C75.6282 132.461 72.4347 132.948 69.2527 132.716" stroke="#231F20" stroke-opacity="0.6" stroke-width="0.214925" stroke-miterlimit="10"/>
<path d="M129.829 32.7061C128.368 37.6117 135.552 46.2087 137.293 45.8111C140.162 42.2971 121.291 44.355 119.68 61.9304C118.068 79.2641 109.852 105.834 95.9357 117.166C92.7602 119.756 87.7954 127.439 78.0271 131.185C75.0787 132.343 71.9066 132.821 68.7477 132.582" stroke="#231F20" stroke-opacity="0.6" stroke-width="0.220298" stroke-miterlimit="10"/>
<path d="M130.114 32.9053C128.701 37.6121 135.67 46.2091 137.233 46.2628C139.92 43.1572 121.592 45.4945 119.744 62.7798C117.917 79.9093 109.492 105.953 95.3553 117.247C92.1046 119.842 87.1076 127.349 77.4574 131.051C74.5314 132.208 71.3793 132.68 68.2426 132.431" stroke="#231F20" stroke-opacity="0.6" stroke-width="0.220298" stroke-miterlimit="10"/>
<path d="M130.399 33.1094C129.039 37.6497 135.788 46.209 137.164 46.7463C139.667 44.0598 121.877 46.6604 119.798 63.6716C117.734 80.5862 109.116 106.119 94.759 117.36C91.433 119.971 86.4038 127.295 76.8826 130.954C73.9828 132.103 70.8575 132.57 67.7484 132.319" stroke="#231F20" stroke-opacity="0.6" stroke-width="0.220298" stroke-miterlimit="10"/>
<path d="M130.684 33.3135C129.378 37.6818 135.912 46.209 137.131 47.1761C139.458 44.8872 122.205 47.7779 119.9 64.5098C117.595 81.2417 108.761 106.211 94.1786 117.424C90.772 120.041 85.7159 127.187 76.313 130.803C73.4337 131.96 70.325 132.431 67.2324 132.179" stroke="#231F20" stroke-opacity="0.6" stroke-width="0.225671" stroke-miterlimit="10"/>
<path d="M130.968 33.5117C129.711 37.7027 136.03 46.2353 137.051 47.6215C139.2 45.7463 122.479 48.9111 119.943 65.3528C117.407 81.7945 108.396 106.323 93.6144 117.499C90.138 120.126 85.0174 127.09 75.7649 130.663C72.9015 131.807 69.8102 132.265 66.738 132.001" stroke="#231F20" stroke-opacity="0.6" stroke-width="0.225671" stroke-miterlimit="10"/>
<path d="M131.253 33.7163C130.05 37.73 136.148 46.2464 136.992 48.0786C138.947 46.6064 122.774 50.0506 120.007 66.2344C117.219 82.5257 108.03 106.463 93.0234 117.601C89.4664 120.24 84.3458 127.026 75.19 130.556C72.3519 131.695 69.2847 132.148 66.2384 131.878" stroke="#231F20" stroke-opacity="0.6" stroke-width="0.225671" stroke-miterlimit="10"/>
<path d="M131.538 33.915C130.388 37.7568 136.272 46.2732 136.911 48.5299C138.69 47.4553 123.048 51.2165 120.056 67.094C117.025 83.1758 107.649 106.592 92.4216 117.693C88.8055 120.358 83.6527 126.945 74.6205 130.438C71.7927 131.573 68.7353 132.019 65.7011 131.738" stroke="#231F20" stroke-opacity="0.6" stroke-width="0.231044" stroke-miterlimit="10"/>
<path d="M131.823 34.1191C130.721 37.7836 136.39 46.2731 136.868 48.9812C138.48 48.331 123.36 52.3286 120.136 67.959C116.864 83.8312 107.3 106.715 91.8574 117.779C88.1499 120.465 82.9649 126.859 74.0509 130.314C71.248 131.443 68.2151 131.884 65.2067 131.598" stroke="#231F20" stroke-opacity="0.6" stroke-width="0.231044" stroke-miterlimit="10"/>
<path d="M132.107 34.3184C131.06 37.8109 136.508 46.2843 136.803 49.4383C138.222 49.1965 123.65 53.4681 120.201 68.8191C116.687 84.4871 106.934 106.839 91.2771 117.87C87.5159 120.557 82.2771 126.779 73.4867 130.191C70.7033 131.315 67.6898 131.752 64.7017 131.464" stroke="#231F20" stroke-opacity="0.6" stroke-width="0.231044" stroke-miterlimit="10"/>
<path d="M132.392 34.5225C131.398 37.8377 136.626 46.295 136.744 49.8896C137.98 50.0561 123.94 54.6072 120.265 69.6841C116.504 85.1372 106.569 106.957 90.7129 117.956C86.8496 120.643 81.6055 126.698 72.9386 130.067C70.1775 131.19 67.1839 131.622 64.2181 131.324" stroke="#231F20" stroke-opacity="0.6" stroke-width="0.236417" stroke-miterlimit="10"/>
<path d="M132.677 34.7266C131.731 37.8645 136.75 46.3056 136.685 50.3408C137.76 50.9211 124.225 55.7462 120.335 70.5491C116.321 85.7927 106.204 107.086 90.1112 118.047C86.1673 120.734 80.8963 126.644 72.3477 129.944C69.6088 131.065 66.6352 131.491 63.6916 131.185" stroke="#231F20" stroke-opacity="0.6" stroke-width="0.236417" stroke-miterlimit="10"/>
<path d="M132.962 34.9253C132.07 37.8966 136.868 46.3217 136.621 50.7975C137.497 51.7808 124.515 56.8798 120.399 71.4087C116.139 86.4535 105.838 107.204 89.5255 118.155C85.5118 120.841 80.2032 126.558 71.7942 129.841C69.075 130.958 66.1202 131.379 63.1973 131.066" stroke="#231F20" stroke-opacity="0.6" stroke-width="0.236417" stroke-miterlimit="10"/>
<path d="M133.241 35.1294C132.408 37.9234 137.002 46.3323 136.562 51.2487C137.255 52.6457 124.8 58.0189 120.442 72.2737C115.934 87.0928 105.451 107.323 88.9237 118.225C84.8294 120.911 79.4939 126.456 71.1924 129.702C68.4934 130.809 65.56 131.223 62.6599 130.905" stroke="#231F20" stroke-opacity="0.6" stroke-width="0.24179" stroke-miterlimit="10"/>
<path d="M133.526 35.3276C132.742 37.9497 137.11 46.3425 136.503 51.6995C137.04 53.5049 125.085 59.152 120.528 73.1382C115.768 87.7477 105.108 107.44 88.3596 118.315C84.19 121.002 78.8223 126.375 70.6283 129.599C67.9511 130.703 65.0384 131.114 62.1603 130.792" stroke="#231F20" stroke-opacity="0.6" stroke-width="0.24179" stroke-miterlimit="10"/>
<path d="M133.811 35.5327C133.08 37.9775 136.401 46.2789 136.438 52.1571C136.438 54.3923 125.364 60.292 120.593 73.9988C115.58 88.3988 104.742 107.559 87.7792 118.402C83.5291 121.121 78.1076 126.295 70.0802 129.455C67.421 130.556 64.5251 130.961 61.6659 130.631" stroke="#231F20" stroke-opacity="0.6" stroke-width="0.24179" stroke-miterlimit="10"/>
<path d="M134.096 35.7358C133.419 38.0033 136.685 46.2994 136.379 52.6074C136.25 55.2295 125.633 61.4247 120.657 74.8629C115.392 89.0479 104.377 107.676 87.199 118.493C82.8683 121.217 77.4468 126.208 69.5107 129.33C66.873 130.427 63.9976 130.826 61.1609 130.491" stroke="#231F20" stroke-opacity="0.6" stroke-width="0.247163" stroke-miterlimit="10"/>
<path d="M134.38 35.9355C133.757 38.0311 136.927 46.311 136.315 53.0597C136.041 56.0794 125.928 62.5593 120.733 75.7235C115.209 89.6936 104.017 107.796 86.624 118.579C82.2234 121.309 76.7644 126.129 68.9518 129.207C66.3359 130.3 63.4808 130.695 60.6665 130.352" stroke="#231F20" stroke-opacity="0.6" stroke-width="0.247163" stroke-miterlimit="10"/>
<path d="M134.665 36.1392C134.09 38.0574 137.147 46.3212 136.277 53.5158C135.852 56.9331 126.229 63.6925 120.808 76.588C115.032 90.3431 103.662 107.908 86.0544 118.67C81.5517 121.432 76.0658 126.047 68.3876 129.083C65.7911 130.171 62.9549 130.56 60.1614 130.212" stroke="#231F20" stroke-opacity="0.6" stroke-width="0.247163" stroke-miterlimit="10"/>
<path d="M134.95 36.3384C134.412 38.0846 137.346 46.3377 136.196 53.9676C135.616 57.7932 126.487 64.8213 120.856 77.4535C114.817 90.9883 103.275 108.026 85.4473 118.757C80.8909 121.502 75.3727 125.967 67.8073 128.966C65.231 130.044 62.4166 130.428 59.6456 130.078" stroke="#231F20" stroke-opacity="0.6" stroke-width="0.252536" stroke-miterlimit="10"/>
<path d="M135.235 36.5371C134.767 38.1061 137.529 46.3538 136.132 54.4135C135.401 58.6475 126.767 65.9495 120.921 78.3077C114.618 91.6277 102.91 108.134 84.867 118.842C80.23 121.594 74.6849 125.881 67.2378 128.836C64.6817 129.906 61.8871 130.277 59.1405 129.911" stroke="#231F20" stroke-opacity="0.6" stroke-width="0.252536" stroke-miterlimit="10"/>
<path d="M135.519 36.7412C135.1 38.1382 137.701 46.3752 136.057 54.8755C135.165 59.5178 127.024 67.0832 120.969 79.1781C114.408 92.2777 102.528 108.252 84.2652 118.939C79.553 121.701 73.9757 125.811 66.6575 128.724C64.116 129.798 61.3322 130.17 58.5978 129.798" stroke="#231F20" stroke-opacity="0.6" stroke-width="0.252536" stroke-miterlimit="10"/>
<path d="M135.804 36.9453C135.439 38.165 137.867 46.3966 136.014 55.3267C134.939 60.3828 127.315 68.2222 121.05 80.0431C114.226 92.9385 102.179 108.37 83.7011 119.03C78.9083 121.792 73.3041 125.731 66.1041 128.6C63.5921 129.672 60.8366 130.043 58.1304 129.675" stroke="#231F20" stroke-opacity="0.6" stroke-width="0.25791" stroke-miterlimit="10"/>
<path d="M136.089 37.1499C135.777 38.2245 138.029 46.4132 135.949 55.7785C134.74 61.2537 127.589 69.3134 121.114 80.9032C112.133 96.8405 99.0018 110.046 83.1154 119.117C78.2796 121.884 72.6164 125.645 65.5346 128.471C63.0438 129.545 60.3068 129.916 57.62 129.546" stroke="#231F20" stroke-opacity="0.6" stroke-width="0.25791" stroke-miterlimit="10"/>
<path d="M136.374 37.3481C136.11 38.224 138.179 46.4341 135.89 56.2346C134.515 62.1128 127.863 70.4626 121.179 81.7677C111.804 97.4196 98.477 110.33 82.5351 119.202C77.5918 121.975 71.9232 125.559 64.9704 128.336C62.495 129.404 59.7727 129.767 57.1041 129.384" stroke="#231F20" stroke-opacity="0.6" stroke-width="0.25791" stroke-miterlimit="10"/>
<path d="M136.659 37.5527C136.449 38.2512 138.33 46.4506 135.826 56.6864C134.289 62.9783 128.137 71.586 121.243 82.6278C113.629 94.8301 101.089 108.704 81.9548 119.294C76.931 122.072 71.2355 125.478 64.4009 128.229C61.9479 129.282 59.2508 129.634 56.6099 129.245" stroke="#231F20" stroke-opacity="0.6" stroke-width="0.263283" stroke-miterlimit="10"/>
<path d="M136.943 37.751C136.787 38.2883 138.48 46.4662 135.767 57.1372C134.063 63.8428 128.411 72.7192 121.307 83.4654C113.43 95.4367 100.723 108.789 81.3691 119.352C76.27 122.136 70.5423 125.37 63.8313 128.078C61.3999 129.128 58.723 129.474 56.1047 129.078" stroke="#231F20" stroke-opacity="0.6" stroke-width="0.263283" stroke-miterlimit="10"/>
<path d="M137.228 37.9556C137.913 44.5399 137.398 51.1938 135.707 57.5943C133.838 64.7083 128.679 73.8265 121.377 84.3524C113.226 96.098 100.358 108.924 80.7888 119.471C75.1118 122.633 69.262 125.475 63.267 127.982C60.854 129.023 58.196 129.36 55.5996 128.955" stroke="#231F20" stroke-opacity="0.6" stroke-width="0.263283" stroke-miterlimit="10"/>
<path d="M137.513 38.1489C137.459 38.3209 138.786 46.4987 135.643 58.0295C133.623 65.5518 128.953 74.9225 121.442 85.2013C113.027 96.7159 99.9762 109.01 80.2085 119.557C74.5193 122.632 68.6745 125.41 62.6975 127.88C60.307 128.92 57.6693 129.255 55.0945 128.847" stroke="#231F20" stroke-opacity="0.6" stroke-width="0.268656" stroke-miterlimit="10"/>
<path d="M137.798 38.3589C137.798 38.3589 145.352 93.8685 62.128 127.735C59.7653 128.773 57.1528 129.105 54.6056 128.692" stroke="#231F20" stroke-opacity="0.6" stroke-width="0.268656" stroke-miterlimit="10"/>
<path d="M421.455 140.314C414.47 145.074 386.804 137.391 356.542 125.226C326.281 113.061 295.16 125.822 276.483 133.286C263.287 138.557 258.752 126.51 219.238 135.166C200.851 139.196 188.52 136.628 161.59 118.784C151.429 112.051 146.078 100.768 120.518 121.594C91.1482 145.526 60.7149 130.685 53.0958 125.774C45.4767 120.863 18.2834 98.0166 3.29239 122.115C-4.83714 135.172 -38 124.656 -38 124.656" stroke="#231F20" stroke-opacity="0.6" stroke-width="0.268656" stroke-miterlimit="10"/>
<path d="M-37.4626 124.925C-37.4626 124.925 -4.90694 135.015 3.51273 122.399C18.853 99.4131 45.5735 121.163 53.1334 125.983C60.8009 130.846 90.9548 145.418 120.013 122.437C137.572 108.542 145.61 109.541 152.359 113.614C155.223 115.355 157.845 117.676 160.881 119.611C187.408 136.547 199.868 139.196 218.115 135.381C243.014 130.18 253.991 133.086 262.121 134.51C266.559 135.289 270.18 135.585 274.817 133.79C293.527 126.59 324.395 114.06 354.178 125.731C356.557 126.655 358.914 127.55 361.249 128.417C388.432 138.567 412.375 144.537 418.559 140.356" stroke="#231F20" stroke-opacity="0.6" stroke-width="0.274029" stroke-miterlimit="10"/>
<path d="M-36.9738 125.194C-36.9738 125.194 -5.03596 134.865 3.6846 122.7C19.3526 100.821 45.5949 121.502 53.1173 126.209C60.8223 131.045 90.7022 145.327 119.454 123.291C136.696 110.079 144.783 110.906 151.612 114.775C154.476 116.387 157.098 118.606 160.112 120.454C186.236 136.482 198.836 139.212 216.933 135.617C241.332 130.782 252.342 133.597 260.519 134.994C264.893 135.757 268.477 136.036 273.098 134.312C291.807 127.327 322.407 115.162 351.76 126.204C354.119 127.096 356.462 127.945 358.772 128.788C385.761 138.583 409.688 144.402 415.598 140.378" stroke="#231F20" stroke-opacity="0.6" stroke-width="0.279402" stroke-miterlimit="10"/>
<path d="M-36.4633 125.446C-36.4633 125.446 -5.14874 134.725 3.91033 122.985C19.8846 102.213 45.697 121.808 53.1603 126.413C60.9137 131.201 90.5088 145.219 118.959 124.13C135.885 111.589 144.009 112.266 150.924 115.914C153.793 117.424 156.415 119.514 159.414 121.287C185.124 136.407 197.864 139.212 215.831 135.838C239.726 131.346 250.757 134.081 258.988 135.467C263.287 136.198 266.876 136.472 271.454 134.817C290.179 128.052 320.516 116.204 349.412 126.687C351.755 127.541 354.082 128.353 356.397 129.164C383.182 138.605 407.098 144.247 412.74 140.41" stroke="#231F20" stroke-opacity="0.6" stroke-width="0.284775" stroke-miterlimit="10"/>
<path d="M-35.9529 125.731C-35.9529 125.731 -5.27783 134.607 4.08214 123.297C20.3412 103.636 45.7345 122.152 53.1494 126.655C60.9458 131.394 90.2508 145.133 118.406 125C135.009 113.125 143.181 113.657 150.183 117.08C153.046 118.482 155.674 120.454 158.651 122.131C183.947 136.348 196.832 139.222 214.644 136.068C238.033 131.931 249.107 134.585 257.382 135.956C261.642 136.659 265.199 136.912 269.74 135.338C288.481 128.809 318.56 117.252 346.994 127.187C349.321 127.998 351.637 128.799 353.91 129.551C380.496 138.637 404.417 144.101 409.79 140.448" stroke="#231F20" stroke-opacity="0.6" stroke-width="0.290148" stroke-miterlimit="10"/>
<path d="M-35.4424 125.973C-35.4424 125.973 -5.4121 134.452 4.281 123.582C20.798 105.028 45.8044 122.464 53.1763 126.865C61.0211 131.555 90.0252 145.026 117.896 125.838C134.165 114.641 142.386 115.028 149.484 118.225C152.343 119.514 154.975 121.373 157.931 122.958C182.808 136.278 195.843 139.217 213.515 136.289C236.394 132.49 247.506 135.075 255.823 136.423C260.031 137.106 263.577 137.342 268.058 135.838C286.815 129.551 316.636 118.284 344.609 127.665C346.919 128.439 349.219 129.175 351.47 129.922C377.863 138.648 401.741 143.946 406.851 140.469" stroke="#231F20" stroke-opacity="0.6" stroke-width="0.295521" stroke-miterlimit="10"/>
<path d="M-34.9266 126.236C-34.9266 126.236 -5.56251 134.296 4.47984 123.856C21.2332 106.404 45.8528 122.781 53.1764 127.08C61.0641 131.727 89.7673 144.918 117.353 126.687C133.295 116.156 141.559 116.398 148.753 119.375C151.601 120.551 154.239 122.292 157.184 123.786C181.626 136.219 194.822 139.212 212.35 136.509C234.723 133.06 245.872 135.575 254.26 136.896C258.402 137.557 261.938 137.778 266.376 136.359C285.155 130.309 314.734 119.326 342.223 128.16C344.523 128.896 346.801 129.594 349.036 130.309C375.225 138.68 399.092 143.801 403.933 140.518" stroke="#231F20" stroke-opacity="0.6" stroke-width="0.300894" stroke-miterlimit="10"/>
<path d="M-34.4162 126.499C-34.4162 126.499 -5.72377 134.177 4.67858 124.146C21.6415 107.79 45.9387 123.071 53.1871 127.284C61.1285 131.883 89.5147 144.795 116.826 127.52C132.408 117.65 140.742 117.762 148.039 120.503C150.881 121.577 153.525 123.189 156.448 124.602C180.46 136.149 193.812 139.19 211.205 136.713C233.063 133.602 244.255 136.053 252.664 137.358C256.753 137.992 260.278 138.196 264.667 136.821C283.473 131.018 312.768 120.309 339.81 128.6C342.094 129.299 344.362 129.954 346.575 130.642C372.565 138.659 396.416 143.602 400.983 140.496" stroke="#231F20" stroke-opacity="0.6" stroke-width="0.306268" stroke-miterlimit="10"/>
<path d="M-33.9057 126.763C-33.9057 126.763 -5.90103 134.038 4.87744 124.436C22.023 109.16 46.0033 123.399 53.2032 127.499C61.1877 132.05 89.2568 144.693 116.3 128.369C131.565 119.16 139.941 119.138 147.319 121.653C150.156 122.615 152.805 124.119 155.712 125.414C179.283 136.08 192.786 139.158 210.055 136.918C231.408 134.135 242.632 136.526 251.09 137.81C255.125 138.422 258.639 138.61 262.98 137.326C281.786 131.765 310.849 121.325 337.419 129.078C339.687 129.739 341.938 130.357 344.131 131.013C369.921 138.675 393.762 143.446 398.06 140.523" stroke="#231F20" stroke-opacity="0.6" stroke-width="0.311641" stroke-miterlimit="10"/>
<path d="M-33.3898 127.025C-33.3898 127.025 -6.08904 133.892 5.0763 124.725C22.3831 110.519 46.0732 123.71 53.214 127.713C61.2737 132.221 88.9882 144.568 115.773 129.212C130.689 120.663 139.109 120.524 146.604 122.802C149.43 123.656 152.085 125.037 154.981 126.268C178.085 136.063 191.797 139.163 208.911 137.159C229.748 134.709 241.015 137.046 249.521 138.303C253.492 138.894 256.995 139.066 261.293 137.852C280.137 132.538 308.926 122.367 335.029 129.583C337.285 130.206 339.515 130.786 341.691 131.41C367.283 138.717 391.124 143.311 395.138 140.571" stroke="#231F20" stroke-opacity="0.6" stroke-width="0.317014" stroke-miterlimit="10"/>
<path d="M-32.8795 127.289C-32.8795 127.289 -6.28791 133.737 5.26966 125.017C22.7162 111.863 46.1376 124.028 53.2247 127.934C61.2844 132.389 88.6873 144.451 115.241 130.084C129.808 122.185 138.281 121.933 145.868 123.969C148.683 124.727 151.343 125.984 154.223 127.123C176.887 136.053 190.76 139.175 207.739 137.402C228.061 135.252 239.376 137.568 247.925 138.804C251.842 139.341 255.334 139.524 259.585 138.385C278.45 133.318 306.986 123.405 332.621 130.089C334.857 130.675 337.07 131.217 339.23 131.808C364.624 138.761 388.426 143.183 392.193 140.62" stroke="#231F20" stroke-opacity="0.6" stroke-width="0.322387" stroke-miterlimit="10"/>
<path d="M-32.369 127.553C-32.369 127.553 -6.50284 133.576 5.47383 125.307C23.0332 113.19 46.2128 124.34 53.2408 128.149C61.3757 132.555 88.4347 144.322 114.72 130.911C128.932 123.663 137.459 123.303 145.175 125.097C147.98 125.747 150.645 126.886 153.514 127.929C175.71 135.988 189.772 139.137 206.616 137.6C226.422 135.8 237.78 138.041 246.377 139.255C250.235 139.793 253.717 139.943 257.919 138.874C276.811 134.038 305.095 124.393 330.252 130.551C332.476 131.088 334.674 131.599 336.807 132.163C362.002 138.761 385.794 143.006 389.292 140.631" stroke="#231F20" stroke-opacity="0.6" stroke-width="0.32776" stroke-miterlimit="10"/>
<path d="M-31.8586 127.81C-31.8586 127.81 -6.72852 133.404 5.67263 125.602C23.3287 114.496 46.2826 124.651 53.2569 128.364C61.4348 132.721 88.1392 144.187 114.199 131.754C128.029 125.15 136.626 124.694 144.46 126.268C147.249 126.805 149.919 127.832 152.778 128.783C174.507 136.015 188.778 139.137 205.467 137.847C224.756 136.359 236.158 138.562 244.803 139.749C248.602 140.287 252.078 140.399 256.232 139.4C275.15 134.844 303.182 125.43 327.861 131.056C330.069 131.561 332.251 132.028 334.368 132.56C359.363 138.804 383.139 142.871 386.363 140.679" stroke="#231F20" stroke-opacity="0.6" stroke-width="0.338506" stroke-miterlimit="10"/>
<path d="M-31.3427 128.074C-31.3427 128.074 -6.97026 133.211 5.87148 125.892C23.6028 115.775 46.3525 124.963 53.2731 128.579C61.4993 132.877 87.8437 144.037 113.672 132.598C127.153 126.628 135.81 126.091 143.762 127.386C146.54 127.843 149.215 128.735 152.058 129.589C173.314 135.988 187.762 139.083 204.338 138.041C223.107 136.859 234.551 139.035 243.25 140.19C247.007 140.795 250.844 140.687 254.561 139.873C273.506 135.575 301.307 126.381 325.486 131.502C327.678 131.969 329.843 132.399 331.934 132.899C356.731 138.809 380.49 142.683 383.446 140.668" stroke="#231F20" stroke-opacity="0.6" stroke-width="0.343879" stroke-miterlimit="10"/>
<path d="M-30.8323 128.337C-30.8323 128.337 -7.19058 133.006 6.07027 126.188C23.8768 117.053 46.4224 125.279 53.2838 128.804C61.5638 133.054 87.5321 143.887 113.146 133.457C126.256 128.116 134.982 127.509 143.026 128.546C145.827 128.987 148.595 129.617 151.311 130.432C172.083 136.01 186.736 139.062 203.172 138.272C221.441 137.396 232.918 139.545 241.66 140.684C245.38 141.257 249.172 141.161 252.857 140.399C271.83 136.364 299.356 127.396 323.079 132.007C325.26 132.431 327.377 132.829 329.483 133.302C354.081 138.83 377.841 142.549 380.528 140.722" stroke="#231F20" stroke-opacity="0.6" stroke-width="0.349252" stroke-miterlimit="10"/>
<path d="M-30.3218 128.6C-30.3218 128.6 -7.46998 132.78 6.26907 126.451C24.1347 118.251 46.4922 125.564 53.3 128.992C61.6283 133.194 87.2151 143.688 112.619 134.274C125.353 129.556 134.155 128.901 142.311 129.669C145.106 130.006 147.875 130.538 150.596 131.26C170.891 136.026 185.742 139.024 202.049 138.492C219.781 137.912 231.317 140.039 240.107 141.152C243.789 141.694 247.537 141.611 251.192 140.904C270.191 137.143 297.465 128.38 320.709 132.49C322.858 132.872 325.008 133.226 327.066 133.672C351.443 138.846 375.193 142.387 377.594 140.743" stroke="#231F20" stroke-opacity="0.6" stroke-width="0.354626" stroke-miterlimit="10"/>
<path d="M-29.806 128.864C-29.806 128.864 -7.72784 132.534 6.46793 126.763C24.3819 119.482 46.5621 125.898 53.3107 129.234C61.6928 133.377 86.8927 143.522 112.093 135.145C124.451 131.04 133.327 130.309 141.596 130.846C144.371 131.079 147.126 131.499 149.844 132.104C169.644 136.069 184.732 139.626 200.889 138.723C218.083 137.74 229.689 140.556 238.527 141.641C242.172 142.147 245.873 142.073 249.494 141.421C268.525 137.923 295.547 129.374 318.307 132.985C320.457 133.323 322.574 133.646 324.615 134.059C348.794 138.895 372.527 142.248 374.677 140.781" stroke="#231F20" stroke-opacity="0.6" stroke-width="0.359999" stroke-miterlimit="10"/>
<path d="M-29.2956 129.127C-29.2956 129.127 -7.9912 132.265 6.66666 127.053C24.6344 120.669 46.6373 126.204 53.3268 129.449C61.7572 133.538 86.5595 143.312 111.566 135.994C123.537 132.49 132.521 131.222 140.882 131.985C143.606 132.232 146.303 132.458 149.108 132.92C168.424 136.106 183.705 139.561 199.728 138.933C216.417 138.282 228.055 141.044 236.942 142.103C240.549 142.579 244.207 142.518 247.796 141.92C266.854 138.696 293.629 130.341 315.905 133.457C318.055 133.753 320.14 134.043 322.16 134.425C346.162 138.89 369.862 142.081 371.743 140.802" stroke="#231F20" stroke-opacity="0.6" stroke-width="0.365372" stroke-miterlimit="10"/>
<path d="M-28.7851 129.39C-28.7851 129.39 -8.2598 131.969 6.86552 127.343C24.8869 121.83 46.7072 126.516 53.3376 129.664C61.8217 133.699 86.2211 143.097 111.039 136.843C122.629 133.925 131.688 132.695 140.167 133.13C142.886 133.275 145.578 133.399 148.372 133.753C167.178 136.171 182.679 139.47 198.584 139.158C214.762 138.836 226.438 141.55 235.373 142.576C238.945 143.024 242.562 142.973 246.12 142.425C265.205 139.476 291.727 131.314 313.525 133.941C315.675 134.199 317.727 134.452 319.731 134.801C343.534 138.911 367.219 141.926 368.831 140.83" stroke="#231F20" stroke-opacity="0.6" stroke-width="0.370745" stroke-miterlimit="10"/>
<path d="M-28.2747 129.653C-28.2747 129.653 -8.51778 131.658 7.06426 127.633C25.1448 122.969 46.7769 126.822 53.3536 129.885C61.8915 133.855 85.8825 142.818 110.513 137.686C120.04 135.712 129.722 134.572 139.447 134.28C142.182 134.206 144.919 134.308 147.641 134.586C165.979 136.252 181.664 138.82 197.434 139.379C213.102 139.916 224.837 142.065 233.799 143.054C237.33 143.467 240.9 143.427 244.422 142.936C263.539 140.249 289.808 132.276 311.129 134.425C313.24 134.64 315.298 134.86 317.281 135.177C340.885 138.938 364.564 141.775 365.897 140.856" stroke="#231F20" stroke-opacity="0.6" stroke-width="0.376118" stroke-miterlimit="10"/>
<path d="M-27.7589 129.916C-27.7589 129.916 -8.77564 131.313 7.26311 127.923C25.4135 124.092 46.8522 127.128 53.3644 130.072C61.9614 133.989 85.544 142.5 109.986 138.508C120.802 136.74 130.033 136.015 138.732 135.402C141.454 135.233 144.183 135.233 146.905 135.402C164.765 136.327 180.654 138.734 196.289 139.583C211.436 140.405 223.198 142.543 232.23 143.51C235.723 143.897 239.249 143.868 242.734 143.424C261.879 141.044 287.901 133.215 308.738 134.892C310.833 135.058 312.875 135.247 314.836 135.537C338.242 138.938 361.894 141.603 362.974 140.872" stroke="#231F20" stroke-opacity="0.6" stroke-width="0.381491" stroke-miterlimit="10"/>
<path d="M-27.2538 130.18C-27.2538 130.18 -9.03355 130.954 7.45653 128.213C25.6875 125.194 46.9167 127.434 53.3752 130.314C62.0151 134.172 85.2055 142.2 109.454 139.384C119.889 138.17 129.211 137.482 138.012 136.574C140.719 136.253 143.446 136.146 146.169 136.252C163.519 137.203 179.638 138.675 195.134 139.825C209.77 140.899 221.57 143.049 230.65 144.005C234.106 144.36 237.59 144.342 241.042 143.951C260.208 141.85 285.999 134.188 306.347 135.403C308.432 135.526 310.452 135.682 312.397 135.94C335.603 138.987 359.24 141.474 360.046 140.926" stroke="#231F20" stroke-opacity="0.6" stroke-width="0.386864" stroke-miterlimit="10"/>
<path d="M-26.7164 130.443C-15.2268 130.437 -3.74634 129.792 7.6715 128.509C25.9992 126.279 47.0081 127.741 53.4021 130.535C62.1012 134.328 84.8939 141.818 108.944 140.206C119.002 139.54 128.416 138.906 137.314 137.702C140.012 137.345 142.728 137.132 145.449 137.063C162.358 136.552 178.649 138.567 194.006 140.023C208.132 141.361 219.969 143.564 229.098 144.456C232.514 144.789 235.955 144.789 239.371 144.456C258.574 142.656 284.086 135.129 303.967 135.859C306.035 135.94 308.039 136.063 309.968 136.289C332.976 138.976 356.596 141.297 357.134 140.932" stroke="#231F20" stroke-opacity="0.6" stroke-width="0.392237" stroke-miterlimit="10"/>
<path d="M-26.2221 130.701C-26.2221 130.701 -9.50097 130.164 7.85956 128.799C26.3001 127.348 47.0833 128.036 53.4075 130.75C62.1656 134.473 84.5715 141.426 108.407 141.077C118.078 140.937 127.589 140.378 136.589 138.874C139.275 138.422 141.962 138.116 144.702 137.912C161.155 136.708 177.634 138.492 192.845 140.265C206.461 141.877 218.335 144.086 227.512 144.951C230.893 145.247 234.293 145.247 237.673 144.951C256.903 143.452 282.162 136.058 301.565 136.354C303.623 136.386 305.611 136.483 307.513 136.676C330.322 139.008 353.931 141.152 354.2 140.975" stroke="#231F20" stroke-opacity="0.6" stroke-width="0.397611" stroke-miterlimit="10"/>
<path d="M-25.7117 130.964C-25.7117 130.964 41.1352 125.844 53.4181 130.964C65.7011 136.085 103.802 146.407 135.869 140.018C167.935 133.629 204.327 143.462 225.938 145.429C247.549 147.395 282.463 135.08 305.073 137.057C327.683 139.035 351.282 141.001 351.282 141.001" stroke="#231F20" stroke-opacity="0.6" stroke-width="0.402984" stroke-miterlimit="10"/>
<path d="M114 0H0V152H114V0Z" fill="url(#paint0_linear_3_1161)"/>
<path d="M363 0H245V152H363V0Z" fill="url(#paint1_linear_3_1161)"/>
</g>
<defs>
<linearGradient id="paint0_linear_3_1161" x1="0" y1="76" x2="114" y2="76" gradientUnits="userSpaceOnUse">
<stop offset="0.27" stop-color="white"/>
<stop offset="1" stop-color="white" stop-opacity="0"/>
</linearGradient>
<linearGradient id="paint1_linear_3_1161" x1="245" y1="76" x2="363" y2="76" gradientUnits="userSpaceOnUse">
<stop stop-color="white" stop-opacity="0"/>
<stop offset="0.84" stop-color="white"/>
</linearGradient>
<clipPath id="clip0_3_1161">
<rect width="360" height="152" fill="white"/>
</clipPath>
</defs>
</svg>
