<?xml version="1.0" encoding="utf-8"?>
<!-- Generator: Adobe Illustrator 25.4.1, SVG Export Plug-In . SVG Version: 6.00 Build 0)  -->
<svg version="1.1" id="Layer_1" xmlns="http://www.w3.org/2000/svg" xmlns:xlink="http://www.w3.org/1999/xlink" x="0px" y="0px"
	 viewBox="0 0 783.6 282.9" style="enable-background:new 0 0 783.6 282.9;" xml:space="preserve">
<style type="text/css">
	.st0{fill:none;stroke:#231F20;stroke-width:0.5;stroke-miterlimit:10;}
	.st1{fill:none;stroke:#231F20;stroke-width:0.49;stroke-miterlimit:10;}
	.st2{fill:none;stroke:#231F20;stroke-width:0.48;stroke-miterlimit:10;}
	.st3{fill:none;stroke:#231F20;stroke-width:0.47;stroke-miterlimit:10;}
	.st4{fill:none;stroke:#231F20;stroke-width:0.46;stroke-miterlimit:10;}
	.st5{fill:none;stroke:#231F20;stroke-width:0.45;stroke-miterlimit:10;}
	.st6{fill:none;stroke:#231F20;stroke-width:0.44;stroke-miterlimit:10;}
	.st7{fill:none;stroke:#231F20;stroke-width:0.43;stroke-miterlimit:10;}
	.st8{fill:none;stroke:#231F20;stroke-width:0.42;stroke-miterlimit:10;}
	.st9{fill:none;stroke:#231F20;stroke-width:0.41;stroke-miterlimit:10;}
	.st10{fill:none;stroke:#231F20;stroke-width:0.4;stroke-miterlimit:10;}
	.st11{fill:none;stroke:#231F20;stroke-width:0.3;stroke-miterlimit:10;}
	.st12{fill:none;stroke:#231F20;stroke-width:0.31;stroke-miterlimit:10;}
	.st13{fill:none;stroke:#231F20;stroke-width:0.32;stroke-miterlimit:10;}
	.st14{fill:none;stroke:#231F20;stroke-width:0.33;stroke-miterlimit:10;}
	.st15{fill:none;stroke:#231F20;stroke-width:0.34;stroke-miterlimit:10;}
	.st16{fill:none;stroke:#231F20;stroke-width:0.35;stroke-miterlimit:10;}
	.st17{fill:none;stroke:#231F20;stroke-width:0.36;stroke-miterlimit:10;}
	.st18{fill:none;stroke:#231F20;stroke-width:0.37;stroke-miterlimit:10;}
	.st19{fill:none;stroke:#231F20;stroke-width:0.38;stroke-miterlimit:10;}
	.st20{fill:none;stroke:#231F20;stroke-width:0.39;stroke-miterlimit:10;}
	.st21{fill:none;stroke:#231F20;stroke-width:0.51;stroke-miterlimit:10;}
	.st22{fill:none;stroke:#231F20;stroke-width:0.52;stroke-miterlimit:10;}
	.st23{fill:none;stroke:#231F20;stroke-width:0.53;stroke-miterlimit:10;}
	.st24{fill:none;stroke:#231F20;stroke-width:0.54;stroke-miterlimit:10;}
	.st25{fill:none;stroke:#231F20;stroke-width:0.55;stroke-miterlimit:10;}
	.st26{fill:none;stroke:#231F20;stroke-width:0.56;stroke-miterlimit:10;}
	.st27{fill:none;stroke:#231F20;stroke-width:0.57;stroke-miterlimit:10;}
	.st28{fill:none;stroke:#231F20;stroke-width:0.58;stroke-miterlimit:10;}
	.st29{fill:none;stroke:#231F20;stroke-width:0.59;stroke-miterlimit:10;}
	.st30{fill:none;stroke:#231F20;stroke-width:0.6;stroke-miterlimit:10;}
	.st31{fill:none;stroke:#231F20;stroke-width:0.61;stroke-miterlimit:10;}
	.st32{fill:none;stroke:#231F20;stroke-width:0.63;stroke-miterlimit:10;}
	.st33{fill:none;stroke:#231F20;stroke-width:0.64;stroke-miterlimit:10;}
	.st34{fill:none;stroke:#231F20;stroke-width:0.65;stroke-miterlimit:10;}
	.st35{fill:none;stroke:#231F20;stroke-width:0.66;stroke-miterlimit:10;}
	.st36{fill:none;stroke:#231F20;stroke-width:0.67;stroke-miterlimit:10;}
	.st37{fill:none;stroke:#231F20;stroke-width:0.68;stroke-miterlimit:10;}
	.st38{fill:none;stroke:#231F20;stroke-width:0.69;stroke-miterlimit:10;}
	.st39{fill:none;stroke:#231F20;stroke-width:0.7;stroke-miterlimit:10;}
	.st40{fill:none;stroke:#231F20;stroke-width:0.71;stroke-miterlimit:10;}
	.st41{fill:none;stroke:#231F20;stroke-width:0.72;stroke-miterlimit:10;}
	.st42{fill:none;stroke:#231F20;stroke-width:0.73;stroke-miterlimit:10;}
	.st43{fill:none;stroke:#231F20;stroke-width:0.74;stroke-miterlimit:10;}
	.st44{fill:none;stroke:#231F20;stroke-width:0.75;stroke-miterlimit:10;}
	.st45{fill:url(#SVGID_1_);}
	.st46{fill:url(#SVGID_00000069356167365546398180000001684152311700457144_);}
</style>
<path class="st0" d="M549.1,265.6c35.9-20.5,29-64.7,18.3-98.5c-9.8-30.9-35.7-80.5-35.7-80.5l12.5-7.5l-12.8-24.3h-12.4
	c2.5-16.4-11.9-32.8-31.6-23.4c-12.7,6.1-20.3,36.3,10.1,41.8c18.3,3.3,24.3-22.1,18.6-34.4c-2.9-3.6-7-6.1-11.6-7"/>
<path class="st0" d="M504.3,31.9c7.6,1.7,11.1,6.8,11.1,6.9c5.3,12.2-0.5,37.2-18,34.2c-1.7-0.3-3.5-0.7-5.2-1.3
	c-14-4.6-17.5-15.5-15.1-25c1.6-6.3,5.7-11.6,10.3-13.8c10.5-5,19.9-2.1,25.4,3.8c4.8,5.1,7,12.1,6,19l12.2-0.2
	c0,0,12.5,23.8,12.7,24s-12.1,7.4-12.1,7.5c0.2,0.3,25.6,49,35.2,79.5c10.5,33.7,16.6,78.1-19.5,98.5"/>
<path class="st0" d="M504.1,32c7.3,1.7,10.7,6.7,10.5,6.8c5,12-0.7,36.7-17.4,34c-1.7-0.3-3.3-0.6-4.9-1.2
	c-13.6-4.5-17.5-14.7-15.3-23.9c1.4-5.7,5.1-10.4,10.3-13.1c10.2-4.9,19.7-1.7,25.1,4.1c4.4,4.8,7.2,11.2,6.2,18.2l12.1-0.3
	c0,0,12.3,23.2,12.6,23.6c0.1,0.1-11.7,7.3-11.6,7.5c0.4,0.6,25.3,48.4,34.7,78.5c10.4,33.7,15.6,78.3-20.7,98.5"/>
<path class="st0" d="M503.8,32c7,1.6,10.2,6.6,10,6.8c4.7,11.8-1,36.2-16.8,33.8c-1.6-0.2-3.2-0.6-4.7-1.1
	C479,67.3,474.8,57.6,477,48.7c1.4-5.5,5.2-10,10.2-12.5c8.3-4.2,18.4-2.4,24.7,4.4c4.3,4.6,7.3,10.7,6.3,17.5l11.9-0.4
	c0,0,12,22.7,12.5,23.3c0.1,0.2-11.3,7.2-11.2,7.4c0.6,0.9,25.1,47.8,34.2,77.5c10.3,33.6,14.7,78.4-21.8,98.5"/>
<path class="st0" d="M503.5,32c6.7,1.6,9.7,6.5,9.5,6.7c4.4,11.7-1.2,35.7-16.2,33.7c-1.5-0.2-3-0.5-4.5-1
	c-12.9-4.1-17.5-13-15.3-21.7c1.4-5.8,5.9-9.8,10.2-11.9c8.3-3.9,18.1-2,24.4,4.7c4.2,4.5,7.4,10.1,6.5,16.7l11.8-0.6
	c0,0,11.8,22.2,12.4,23c0.2,0.2-10.9,7.2-10.7,7.4c0.8,1.2,24.8,47.2,33.7,76.6c10.2,33.5,13.7,78.5-23,98.4"/>
<path class="st0" d="M503.2,32c6.5,1.6,9.3,6.3,9,6.7c4.1,11.5-1.4,35.2-15.6,33.5c-1.4-0.2-2.9-0.5-4.2-0.9
	C479.9,67.3,474.9,59,477,50.5c1.4-5.6,6-9.2,10.1-11.2c9.4-4.5,19.1-0.3,24,5c4,4.3,7.6,9.5,6.6,15.9l11.6-0.7
	c0,0,11.6,21.6,12.3,22.6c0.2,0.3-10.5,7.1-10.2,7.4c1,1.5,24.5,46.6,33.2,75.6c10,33.4,12.7,78.7-24.2,98.4"/>
<path class="st0" d="M503,32.1c6.2,1.5,8.8,6.2,8.4,6.6c3.7,11.4-1.6,34.7-15,33.3c-1.4-0.1-2.7-0.4-4-0.8
	c-12.1-3.8-17.5-11.5-15.5-19.6c1.3-5.4,6.1-8.7,10.1-10.6c9.1-4.3,18.9,0.1,23.7,5.2c3.9,4.2,7.7,8.9,6.8,15.1l11.4-0.8
	c0,0,11.3,21.1,12.2,22.3c0.2,0.3-10,7-9.8,7.4c1.2,1.8,24.3,45.9,32.8,74.6c9.9,33.3,11.8,78.8-25.3,98.4"/>
<path class="st0" d="M502.7,32.1c5.9,1.5,8.3,6.1,7.9,6.5c3.4,11.2-1.9,34.2-14.4,33.1c-1.3-0.1-2.6-0.3-3.8-0.7
	c-11.8-3.6-17.6-10.6-15.6-18.5c1.3-5.3,6.1-8.1,10-10c8.8-4.2,18.7,0.6,23.3,5.5c3.8,4.1,7.8,8.3,6.9,14.3l11.3-1
	c0,0,11.1,20.5,12,21.9c0.3,0.4-9.6,6.9-9.3,7.3c1.4,2.2,24,45.3,32.3,73.6c9.8,33.3,10.8,78.9-26.5,98.4"/>
<path class="st0" d="M502.4,32.1c5.6,1.5,7.9,6,7.4,6.5c3.1,11-2.1,33.7-13.8,32.9c-1.2-0.1-2.4-0.3-3.6-0.6
	c-11.4-3.4-17.6-9.8-15.7-17.5c1.2-5.1,6.2-7.5,10-9.3c8.5-4,18.5,1,23,5.8c3.7,3.9,7.9,7.8,7,13.6l11.1-1.1c0,0,10.9,20,12,21.6
	c0.3,0.4-9.2,6.8-8.9,7.3c1.5,2.5,23.7,44.7,31.8,72.6c9.6,33.2,9.8,79.1-27.7,98.4"/>
<path class="st0" d="M502.1,32.1c5.3,1.5,7.4,5.8,6.9,6.4c2.8,10.9-2.3,33.2-13.2,32.7c-1.1,0-2.2-0.2-3.3-0.5
	c-11-3.2-17.6-9-15.8-16.4c1.2-4.9,6.3-7,9.9-8.7c8.2-3.9,18.3,1.5,22.6,6.1c3.5,3.8,8,7.2,7.2,12.8l11-1.3c0,0,10.6,19.5,11.8,21.3
	c0.3,0.5-8.8,6.7-8.4,7.3c1.7,2.8,23.4,44.1,31.3,71.6c9.5,33.1,8.9,79.2-28.9,98.4"/>
<path class="st0" d="M501.9,32.2c5,1.4,7,5.7,6.3,6.4c2.5,10.7-2.5,32.7-12.6,32.5c-1,0-2.1-0.1-3.1-0.4c-10.6-3-17.6-8.2-15.9-15.3
	c1.2-4.7,6.4-6.4,9.8-8c7.9-3.8,18.1,1.9,22.3,6.4c3.4,3.7,8.1,6.6,7.3,12l10.8-1.4c0,0,10.4,18.9,11.8,20.9c0.4,0.5-8.4,6.6-8,7.3
	c1.9,3.1,23.2,43.5,30.8,70.6c9.4,33.1,7.9,79.3-30,98.3"/>
<path class="st0" d="M501.6,32.2c4.7,1.4,6.5,5.6,5.8,6.3c2.1,10.6-2.7,32.3-12,32.4c-1,0-1.9-0.1-2.9-0.3
	c-10.3-2.8-17.6-7.4-15.9-14.2c1.1-4.5,6.4-5.8,9.8-7.4c7.6-3.6,17.9,2.4,21.9,6.7c3.3,3.5,8.3,6,7.5,11.2l10.6-1.6
	c0,0,10.1,18.4,11.7,20.6c0.4,0.6-8,6.5-7.5,7.2c2.1,3.4,22.9,42.9,30.4,69.7c9.2,33,7,79.5-31.2,98.3"/>
<path class="st0" d="M501.3,32.2c4.4,1.4,6,5.5,5.3,6.2c1.8,10.4-2.9,31.8-11.4,32.2c-0.9,0.1-1.8,0-2.6-0.2
	c-9.9-2.6-17.6-6.6-16-13.1c1.1-4.4,6.5-5.2,9.7-6.8c7.3-3.5,17.7,2.8,21.5,6.9c3.2,3.4,8.4,5.4,7.6,10.4l10.5-1.7
	c0,0,9.9,17.9,11.6,20.2c0.5,0.7-7.5,6.4-7.1,7.2c2.3,3.7,22.6,42.3,29.9,68.7c9.1,32.9,6,79.6-32.4,98.3"/>
<path class="st0" d="M501.1,32.3c4.1,1.3,5.5,5.3,4.8,6.2c1.5,10.2-3.1,31.3-10.8,32c-0.8,0.1-1.6,0-2.4-0.1
	c-9.5-2.3-17.6-5.8-16.1-12.1c1-4.2,6.6-4.6,9.7-6.1c7-3.3,17.5,3.3,21.2,7.2c3,3.2,8.5,4.9,7.8,9.7l10.3-1.8
	c0,0,9.7,17.3,11.5,19.9c0.5,0.7-7.1,6.3-6.6,7.2c2.5,4,22.3,41.7,29.4,67.7c9,32.9,5,79.7-33.5,98.3"/>
<path class="st0" d="M500.8,32.3c3.9,1.3,5.1,5.2,4.2,6.1c1.2,10.1-3.3,30.8-10.1,31.8c-0.7,0.1-1.5,0.1-2.2,0
	c-9.2-2.1-17.7-4.9-16.2-11c1-4,6.7-4.1,9.6-5.5c6.7-3.2,17.3,3.7,20.8,7.5c2.9,3.1,8.6,4.3,7.9,8.9l10.2-2c0,0,9.4,16.8,11.4,19.6
	c0.5,0.8-6.7,6.3-6.2,7.2c2.7,4.3,22,41.1,28.9,66.7c8.8,32.8,4.1,79.9-34.7,98.3"/>
<path class="st0" d="M500.5,32.3c3.6,1.3,4.6,5.1,3.7,6.1c0.8,9.9-3.5,30.3-9.5,31.6c-0.6,0.2-1.3,0.2-2,0.1
	c-8.8-1.8-17.7-4.1-16.2-9.9c1-3.8,6.7-3.5,9.6-4.8c6.4-3.1,17.1,4.2,20.5,7.8c2.8,3,8.7,3.7,8.1,8.1l10-2.1c0,0,9.2,16.2,11.3,19.2
	c0.6,0.8-6.3,6.2-5.7,7.1c2.9,4.6,21.7,40.5,28.4,65.7c8.7,32.7,3.1,80-35.9,98.2"/>
<path class="st0" d="M500.2,32.3c3.3,1.3,4.2,5,3.2,6c0.5,9.8-3.6,29.9-8.9,31.4c-0.6,0.2-1.1,0.2-1.7,0.2
	c-8.5-1.4-17.7-3.3-16.3-8.8c0.9-3.7,6.8-2.9,9.5-4.2c6.1-2.9,16.9,4.6,20.1,8.1c2.6,2.8,8.8,3.1,8.2,7.3l9.9-2.3
	c0,0,9,15.7,11.2,18.9c0.6,0.9-5.9,6.1-5.2,7.1c3.1,4.9,21.5,39.9,28,64.7c8.5,32.7,2.1,80.1-37,98.2"/>
<path class="st0" d="M500,32.4c3,1.2,3.7,4.8,2.6,5.9c0.2,9.6-3.7,29.4-8.3,31.2c-0.5,0.2-1,0.3-1.5,0.2c-7.8-2.6-17.7-2.5-16.4-7.7
	c0.9-3.5,6.9-2.3,9.5-3.6c5.9-2.8,16.7,5,19.8,8.3c2.5,2.7,9,2.6,8.4,6.6l9.7-2.4c0,0,8.7,15.2,11.1,18.6c0.6,0.9-5.5,6-4.8,7.1
	c3.3,5.3,21.2,39.3,27.5,63.8c8.4,32.6,1.2,80.3-38.2,98.2"/>
<path class="st0" d="M499.7,32.4c2.7,1.2,3.2,4.7,2.1,5.9c-0.1,9.5-4.3,28.1-7.7,31.1c-0.5,0.2-1,0.3-1.3,0.3
	c-7.4-2.5-17.7-1.7-16.5-6.7c0.8-3.3,7-1.8,9.4-2.9c5.6-2.7,16.5,5.5,19.4,8.6c2.4,2.6,9.1,2,8.5,5.8l9.5-2.5c0,0,8.5,14.6,11,18.2
	c0.7,1-5,5.9-4.3,7.1c3.5,5.6,20.9,38.7,27,62.8c8.2,32.5,0.2,80.4-39.4,98.2"/>
<path class="st0" d="M499.4,32.4c2.4,1.2,2.8,4.6,1.6,5.8c-0.5,9.3-4.6,27.6-7.1,30.9l-1,0.4c-7-2.3-17.7-0.8-16.6-5.6
	c0.8-3.2,7-1.2,9.3-2.3c5.3-2.5,16.3,6,19.1,8.9c2.3,2.4,9.2,1.4,8.6,5l9.4-2.7c0,0,8.2,14.1,10.8,17.9c0.7,1-4.6,5.8-3.9,7
	c3.7,5.9,20.6,38,26.5,61.8c8.1,32.5-0.7,80.5-40.5,98.2"/>
<path class="st0" d="M499.2,32.5c1.9,1.2,2.4,3.7,1.2,5.6c0,0-0.1,0.1-0.1,0.1c-0.8,9.2-4.8,27.1-6.5,30.7c-0.3,0.2-0.5,0.3-0.8,0.5
	c-6.6-2.2-17.8,0-16.6-4.5c0.7-3,7.1-0.6,9.3-1.7c5-2.4,16.1,6.4,18.7,9.2c2.1,2.3,9.3,0.8,8.8,4.2l9.2-2.8c0,0,8,13.6,10.8,17.5
	c0.8,1.1-4.2,5.7-3.4,7c3.9,6.2,20.3,37.4,26,60.8c7.9,32.4-1.7,80.7-41.7,98.2"/>
<path class="st0" d="M498.9,32.5c1.8,1.1,1.8,4.3,0.5,5.7c-1.1,9-5,26.5-5.9,30.5c-0.2,0.2-0.4,0.4-0.6,0.6
	c-6.2-2.1-17.8,0.8-16.7-3.4c0.7-2.8,7.2,0,9.2-1c4.7-2.2,15.9,6.8,18.4,9.5c2,2.2,9.4,0.2,8.9,3.4l9.1-3c0,0,7.8,13,10.7,17.2
	c0.8,1.1-3.8,5.6-3,7c4.1,6.5,20,36.8,25.5,59.8c7.8,32.4-2.7,80.8-42.9,98.2"/>
<path class="st0" d="M498.6,32.5c1.5,1.1,1.4,4.2,0,5.6c-1.4,8.8-5.2,26-5.3,30.3c-0.2,0.2-0.3,0.4-0.4,0.7
	c-5.8-1.9-17.8,1.6-16.8-2.3c0.6-2.6,7.2,0.5,9.2-0.4c4.4-2.1,15.7,7.3,18,9.8c1.9,2,9.6-0.4,9.1,2.6l8.9-3.1
	c0,0,7.5,12.5,10.5,16.9c0.8,1.2-3.4,5.5-2.5,7c4.3,6.8,19.7,36.2,25,58.8c7.6,32.3-3.6,80.9-44,98.1"/>
<path class="st0" d="M498.4,32.5c1.2,1.1,0.9,4.1-0.5,5.6c-1.7,8.7-5.5,25.5-4.7,30.1c-0.1,0.2-0.2,0.5-0.1,0.8
	c-5.4-1.8-17.8,2.4-16.9-1.3c0.6-2.4,7.3,1.1,9.1,0.3c4.1-2,15.5,7.7,17.7,10c1.8,1.9,9.7-0.9,9.2,1.9l8.8-3.2
	c0,0,7.3,11.9,10.5,16.5c0.9,1.2-3,5.4-2,6.9c4.5,7.1,19.4,35.6,24.6,57.9c7.5,32.2-4.6,81.1-45.2,98.1"/>
<path class="st0" d="M498.1,32.6c1,1,0.4,4-1,5.5c-2.1,8.5-5.7,24.9-4.1,29.9c-0.1,0.3-0.1,0.7,0.1,1c-5-1.7-17.8,3.2-17-0.2
	c0.6-2.3,7.4,1.7,9.1,0.9c3.9-1.9,15.4,8.1,17.4,10.3c1.6,1.8,9.8-1.5,9.4,1.1l8.6-3.4c0,0,7,11.4,10.4,16.2
	c0.9,1.3-2.6,5.3-1.6,6.9c4.7,7.4,19.1,35,24.1,56.9c7.3,32.2-5.5,81.2-46.4,98.1"/>
<path class="st0" d="M497.8,32.6c0.7,1,0,3.8-1.6,5.5c-2.4,8.4-5.9,24.4-3.5,29.8c0,0.4,0.1,0.7,0.3,1c-4.7-1.6-17.8,4-17,0.9
	c0.5-2.1,7.5,2.3,9,1.5c3.5-1.7,15.1,8.6,17,10.6c1.5,1.6,9.9-2.1,9.5,0.3l8.4-3.5c0,0,6.8,10.9,10.3,15.8c0.9,1.3-2.2,5.3-1.1,6.9
	c4.8,7.7,18.8,34.4,23.6,55.9c7.2,32.1-6.5,81.3-47.5,98.1"/>
<path class="st0" d="M497.5,32.6c0.4,1-0.5,3.7-2.1,5.4c-2.7,8.2-5.2,23.5-2.9,29.6c0.1,0.4,0.3,0.8,0.6,1.1
	c-4.3-1.4-17.8,4.9-17.1,2c0.5-1.9,7.5,2.8,9,2.2c3.2-1.5,14.9,9.1,16.6,10.9c1.4,1.5,10-2.7,9.7-0.5l8.3-3.7
	c0,0,6.6,10.3,10.2,15.5c1,1.4-1.7,5.2-0.7,6.9c5,8,18.5,33.8,23.1,54.9c7,32-7.5,81.5-48.7,98.1"/>
<path class="st0" d="M497.3,32.7c0.1,1-1,3.6-2.6,5.3c-3,8-5.6,22.9-2.3,29.4c0.2,0.4,0.5,0.8,0.8,1.2c-3.9-1.3-17.8,5.7-17.2,3
	c0.4-1.8,7.6,3.4,8.9,2.8c2.9-1.4,14.7,9.5,16.3,11.2c1.3,1.3,10.1-3.2,9.8-1.2l8.1-3.8c0,0,6.3,9.8,10.1,15.2
	c1,1.4-1.3,5.1-0.2,6.8c5.2,8.3,18.2,33.2,22.6,53.9c6.8,32-8.4,81.6-49.9,98.1"/>
<path class="st0" d="M497,32.7c-0.6,2-1.7,3.8-3.2,5.3c-3.3,7.9-6,22.4-1.7,29.2c0.3,0.5,0.6,0.9,1,1.3c-3.5-1.2-17.9,6.5-17.3,4.1
	c0.4-1.6,7.7,4,8.9,3.4c2.6-1.3,14.5,10,15.9,11.5c1.1,1.2,10.2-3.8,10-2l8-4c0,0,6.1,9.2,10,14.8c1,1.5-0.9,5,0.2,6.8
	c5.4,8.7,17.9,32.6,22.1,52.9c6.7,31.9-9.4,81.7-51,98"/>
<path class="st0" d="M496.7,32.7c-0.5,0.9-2.2,3.1-3.7,5.2c-4.9,7-6.4,21.9-1.1,29c0.4,0.5,0.8,1,1.2,1.4c-3.1-1-17.9,7.3-17.3,5.2
	c0.3-1.4,7.8,4.6,8.8,4.1C487,76.5,499,88,500.2,89.4c1,1.1,10.4-4.4,10.1-2.8l7.8-4.1c0,0,5.9,8.7,9.9,14.5
	c1.1,1.6-0.5,4.9,0.7,6.8c5.6,9,17.6,32,21.7,52c6.5,31.9-10.3,81.9-52.2,98"/>
<path class="st0" d="M496.4,32.7c-0.8,0.9-2.6,3-4.2,5.2c-5,7-6.7,21.5-0.5,28.8c0.4,0.5,0.9,1,1.5,1.5c-2.7-0.9-17.9,8.1-17.4,6.3
	c0.3-1.2,7.8,5.2,8.7,4.7c2-1,14.1,10.9,15.2,12c0.9,1,10.5-5,10.3-3.6l7.6-4.2c0,0,5.6,8.2,9.8,14.2c1.1,1.6-0.1,4.8,1.2,6.8
	c5.8,9.3,17.3,31.4,21.2,51c6.3,31.8-11.3,82-53.4,98"/>
<path class="st0" d="M496.2,32.8c-1.8,1.5-3.3,3.2-4.7,5.1c-5.2,6.9-7,21,0.1,28.6c0.5,0.6,1.1,1.1,1.7,1.6
	c-2.3-0.8-17.9,8.9-17.5,7.4c0.3-1,7.9,5.7,8.7,5.4c1.8-0.8,13.9,11.3,14.9,12.3c0.8,0.8,10.6-5.6,10.4-4.4l7.5-4.4
	c0,0,5.4,7.6,9.7,13.8c1.2,1.7,0.3,4.7,1.6,6.7c6,9.6,17,30.8,20.7,50c6.2,31.8-12.3,82.1-54.5,98"/>
<path class="st0" d="M495.9,32.8c-2,1.4-3.8,3.1-5.2,5c-5.3,6.8-7.3,20.5,0.7,28.5c0.6,0.6,1.2,1.2,1.9,1.7
	c-1.9-0.6-17.9,9.8-17.6,8.4c0.2-0.9,8,6.3,8.6,6c1.5-0.7,13.7,11.8,14.5,12.6s10.7-6.2,10.6-5.1l7.3-4.5c0,0,5.1,7.1,9.6,13.5
	c1.2,1.7,0.8,4.6,2.1,6.7c6.2,9.9,16.7,30.2,20.2,49c6,31.7-13.2,82.3-55.7,98"/>
<path class="st0" d="M495.6,32.8c-2.2,1.3-4.2,3-5.8,5c-5.5,6.7-7.6,20,1.3,28.3c0.7,0.6,1.4,1.2,2.2,1.8
	c-1.6-0.5-17.9,10.6-17.7,9.5c0.2-0.7,8.1,6.9,8.6,6.6c1.2-0.6,13.5,12.2,14.1,12.9s10.8-6.7,10.7-5.9l7.2-4.7c0,0,4.9,6.6,9.5,13.1
	c1.2,1.8,1.2,4.6,2.5,6.7c6.4,10.2,16.3,29.6,19.7,48c5.8,31.6-14.2,82.4-56.9,97.9"/>
<path class="st0" d="M495.4,32.8c-2.4,1.1-4.6,2.8-6.3,4.9c-5.7,6.6-7.8,19.5,1.9,28.1c0.8,0.7,1.6,1.3,2.4,1.9
	c-1.2-0.4-17.9,11.4-17.7,10.6c0.1-0.5,8.1,7.5,8.5,7.3c0.9-0.4,13.3,12.7,13.8,13.2s10.9-7.3,10.9-6.7l7-4.8c0,0,4.7,6,9.3,12.8
	c1.3,1.8,1.6,4.5,3,6.7c6.6,10.5,16,29,19.2,47c5.6,31.6-15.2,82.5-58.1,97.9"/>
<path class="st0" d="M495.1,32.9c-2.6,1-5,2.7-6.8,4.9c-5.9,6.6-8.1,19,2.5,27.9c0.8,0.7,1.7,1.4,2.6,1.9
	c-0.8-0.2-18,12.2-17.8,11.7c0.1-0.3,8.2,8,8.5,7.9c0.6-0.3,13.1,13.1,13.4,13.4s11.1-7.9,11-7.5l6.8-5c0,0,4.4,5.5,9.3,12.5
	c1.3,1.9,2,4.4,3.4,6.6c6.8,10.8,15.7,28.4,18.8,46.1c5.5,31.5-16.1,82.7-59.2,97.9"/>
<path class="st0" d="M494.8,32.9c-2.8,0.9-5.4,2.6-7.4,4.8c-6,6.5-8.4,18.5,3.1,27.7c0.9,0.7,1.9,1.4,2.9,2
	c-0.4-0.1-18,13-17.9,12.8s8.3,8.6,8.4,8.5c0.3-0.1,12.9,13.6,13.1,13.7s11.2-8.5,11.1-8.2l6.7-5.1c0,0,4.2,4.9,9.2,12.1
	c1.3,1.9,2.4,4.3,3.9,6.6c7,11.1,15.4,27.8,18.3,45.1c5.2,31.5-17.1,82.8-60.4,97.9"/>
<path class="st0" d="M494.5,32.9c-11,2.6-22.2,21.2-1,34.4l-18,13.8l21.1,23.2l17.8-14.3c0,0,25.8,28.9,31.2,62.5
	c5.1,31.4-18,82.9-61.6,97.9"/>
<path class="st0" d="M405.5,117.6c-6.4-1.4-14-5.7-14.9-17.7c-2.6-39.5,67.4-33.8,37.5,18.3c-19.5,34.1-65.8,65.7-95.8,82.5
	c-45.8,25.6-29.7,61.5,14.4,56.7"/>
<path class="st0" d="M405.5,117.6c-6-1.3-13-5.7-13.7-17.7c-2.3-38.8,64.8-34.1,35.2,17.4c-19.5,33.8-65,67-93.5,84
	c-43.7,26-27.8,60.5,15.4,56.1"/>
<path class="st1" d="M405.5,117.6c-5.5-1.2-11.9-5.8-12.5-17.6c-2-38.2,62.2-34.3,32.9,16.4c-19.5,33.6-64.1,68.2-91.2,85.5
	c-41.6,26.5-25.9,59.5,16.3,55.4"/>
<path class="st1" d="M405.5,117.6c-5-1.1-10.8-5.8-11.3-17.6c-1.6-37.6,59.7-34.6,30.5,15.5c-19.6,33.4-63.2,69.4-88.9,86.9
	c-39.4,26.9-23.9,58.6,17.3,54.8"/>
<path class="st1" d="M405.5,117.6c-4.5-1-9.7-5.8-10.1-17.6c-1.3-37,57.1-34.8,28.2,14.6C404,147.7,361.3,185.2,337,203
	c-37.2,27.3-22,57.6,18.3,54.1"/>
<path class="st1" d="M405.5,117.6c-4.1-0.9-8.6-5.8-8.9-17.6c-1-36.3,54.7-35,25.9,13.7c-19.5,32.9-61.2,71.7-84.2,89.9
	c-35,27.7-20.1,56.6,19.3,53.5"/>
<path class="st2" d="M405.5,117.6c-3.6-0.8-7.5-5.8-7.7-17.6c-0.7-35.7,52.1-35.2,23.5,12.7c-19.5,32.7-60.2,72.8-81.9,91.4
	c-32.8,28-18.1,55.7,20.3,52.8"/>
<path class="st2" d="M405.5,117.6c-3.1-0.7-6.4-5.8-6.5-17.5c-0.3-35.1,49.6-35.4,21.2,11.8c-19.5,32.5-59,73.9-79.6,92.9
	c-30.5,28.3-16.2,54.7,21.2,52.2"/>
<path class="st2" d="M405.5,117.6c-2.7-0.6-5.3-5.8-5.4-17.5c0-34.5,47-35.7,18.9,10.9c-19.5,32.3-61.7,71.7-77.3,94.3
	c-32.8,22.9-14.3,53.7,22.3,51.5"/>
<path class="st3" d="M405.5,117.6c-2.2-0.5-4.2-5.8-4.2-17.5c0.3-33.8,44.5-35.9,16.6,9.9c-19.5,32-61.1,72.4-74.9,95.8
	c-31.2,22.6-12.4,52.7,23.2,50.9"/>
<path class="st3" d="M405.5,117.6c-1.7-0.4-3.2-5.8-3-17.4c0.5-33.2,41.9-36.1,14.2,9c-19.5,31.8-60.6,73.2-72.6,97.3
	c-29.6,22.3-10.4,51.8,24.2,50.2"/>
<path class="st3" d="M405.5,117.6c-1.2-0.3-2.1-5.8-1.8-17.4c0.8-32.6,39.3-36.4,11.9,8.1c-19.5,31.6-60.1,73.9-70.3,98.8
	c-28,22-8.5,50.8,25.2,49.6"/>
<path class="st3" d="M405.5,117.6c-0.8-0.2-1-5.8-0.6-17.4c1.1-31.9,36.8-36.6,9.6,7.1c-19.5,31.3-59.6,74.7-68,100.2
	c-26.3,21.6-6.5,49.8,26.1,48.9"/>
<path class="st4" d="M405.5,117.6c-0.3-0.1,0.1-5.8,0.6-17.4c1.4-31.3,34.2-36.8,7.3,6.2c-19.5,31.1-59.1,75.4-65.6,101.7
	c-24.7,21.3-4.7,48.9,27.1,48.3"/>
<path class="st4" d="M405.5,117.6c0.2,0,1.2-5.8,1.8-17.3c1.7-30.7,31.7-37.1,4.9,5.3c-19.5,30.9-58.5,76.2-63.3,103.2
	c-23.1,21-2.7,47.9,28.1,47.6"/>
<path class="st4" d="M405.5,117.6c0.6,0.2,2.2-5.8,3-17.3c1.9-30,29.1-37.3,2.6,4.3c-19.5,30.7-58,76.9-61,104.7
	c-21.5,20.6-0.8,46.9,29.1,47"/>
<path class="st5" d="M405.5,117.6c1.1,0.2,3.3-5.8,4.1-17.3c2.2-29.4,26.5-37.5,0.3,3.4c-19.5,30.4-57.5,77.7-58.7,106.1
	c-19.9,20.3,1.2,45.9,30.1,46.3"/>
<path class="st5" d="M405.5,117.6c1.6,0.3,4.4-5.8,5.3-17.3c2.4-28.8,24-37.8-2,2.5c-19.5,30.2-57,78.4-56.4,107.6
	c-18.2,20,3.1,45,31,45.7"/>
<path class="st5" d="M405.5,117.6c2.1,0.4,5.5-5.9,6.5-17.2c2.7-28.1,21.4-38-4.4,1.5c-19.5,30-56.5,79.1-54,109.1
	c-16.6,19.6,5,44,32,45"/>
<path class="st5" d="M405.5,117.6c2.5,0.6,6.5-5.9,7.7-17.2c2.9-27.5,18.9-38.2-6.7,0.6c-19.5,29.7-56,79.9-51.7,110.6
	c-15,19.3,7,43,33,44.4"/>
<path class="st6" d="M405.5,117.6c3,0.7,7.6-5.9,8.9-17.2c3.1-26.9,16.3-38.5-9-0.3c-19.5,29.5-55.4,80.6-49.4,112
	c-13.4,19,8.9,42.1,34,43.7"/>
<path class="st6" d="M405.5,117.6c3.5,0.8,8.6-5.9,10.1-17.2c3.4-26.2,13.7-38.7-11.3-1.3c-19.6,29.3-54.9,81.4-47.1,113.5
	c-11.7,18.7,10.8,41.1,35,43.1"/>
<path class="st6" d="M405.5,117.6c4,0.9,9.7-5.9,11.3-17.1c3.6-25.6,11.1-39-13.7-2.2c-19.6,29-54.4,82.1-44.8,115
	c-10.1,18.3,12.8,40.1,36,42.4"/>
<path class="st7" d="M405.5,117.6c4.4,1,10.8-5.9,12.5-17.1c3.8-25,8.6-39.2-16-3.1c-19.6,28.8-53.9,82.9-42.4,116.5
	c-8.5,18,14.7,39.1,36.9,41.8"/>
<path class="st7" d="M405.5,117.6c4.9,1.1,11.8-5.9,13.7-17.1c4-24.3,6-39.5-18.3-4.1c-19.6,28.6-53.4,83.6-40.1,118
	c-6.9,17.7,16.6,38.2,37.9,41.1"/>
<path class="st7" d="M405.5,117.6c5.4,1.2,12.9-5.9,14.8-17c4.2-23.7,3.4-39.7-20.6-5c-19.6,28.3-52.9,84.3-37.8,119.4
	c-5.3,17.3,18.5,37.2,38.9,40.5"/>
<path class="st7" d="M405.5,117.6c5.8,1.3,13.9-5.9,16-17c4.4-23.1,0.8-40-23-5.9c-19.6,28.1-52.3,85.1-35.5,120.9
	c-3.6,17,20.5,36.2,39.9,39.8"/>
<path class="st8" d="M405.5,117.6c6.3,1.4,15-5.9,17.2-17c4.6-22.4-1.8-40.2-25.3-6.8c-19.7,27.8-51.8,85.8-33.1,122.4
	c-2,16.7,22.4,35.3,40.9,39.2"/>
<path class="st8" d="M405.5,117.6c6.8,1.5,16-5.9,18.4-17c4.8-21.8-4.3-40.4-27.6-7.8c-19.7,27.6-51.3,86.6-30.8,123.9
	c-0.4,16.4,24.3,34.3,41.8,38.5"/>
<path class="st8" d="M405.5,117.6c7.2,1.6,17-5.9,19.6-16.9c4.9-21.2-6.9-40.7-30-8.7c-19.7,27.4-50.8,87.3-28.5,125.3
	c1.2,16,26.3,33.3,42.8,37.9"/>
<path class="st9" d="M405.5,117.6c7.7,1.7,18.1-6,20.8-16.9c5.1-20.6-9.5-41-32.3-9.7c-19.7,27.1-50.3,88.1-26.2,126.8
	c2.9,15.7,28.2,32.4,43.8,37.2"/>
<path class="st9" d="M405.5,117.6c8.2,1.8,19.1-6,22-16.9c5.3-20-12.1-41.2-34.6-10.6C373,117,349.2,175.6,369,218.4
	c6.7,14.5,30.1,31.4,44.8,36.6"/>
<path class="st9" d="M405.5,117.6c8.7,1.9,20.1-6,23.2-16.9c5.4-19.4-14.7-41.5-36.9-11.5C371.9,115.9,347,176,370.1,219
	c7.7,14.3,32.1,30.4,45.8,36"/>
<path class="st9" d="M405.5,117.6c9.1,2,21.1-6,24.3-16.8c5.6-18.8-17.3-41.8-39.2-12.4c-19.9,26.3-45.8,88.3-19.2,131.2
	c8.7,14.1,34,29.4,46.8,35.3"/>
<path class="st10" d="M405.5,117.6c9.6,2.1,22.1-6,25.5-16.8c5.7-18.2-19.9-42-41.6-13.4c-19.9,26.1-46.8,90-16.9,132.7
	c9.8,14,35.9,28.5,47.7,34.6"/>
<path class="st10" d="M405.5,117.6c10.1,2.2,23.1-6.1,26.7-16.8c5.8-17.6-22.4-42.2-43.9-14.3c-19.9,25.9-47.7,91.8-14.6,134.2
	c11,14,37.9,27.5,48.7,34"/>
<path class="st11" d="M295.9,49.2c-5.7,19.2,20.1,36.1,33.8,9.9c15.8-30.1-51.1-42-40.1,6.3c10.2,44.6,4.9,122.7-6.8,147.5
	c-2.3,4.8-12.6,41.8-55,41.8"/>
<path class="st11" d="M296.5,49.6c-5.6,18.9,19.8,35.7,33.2,10.4c15.4-29.4-50.5-40.7-39.8,7.1c9.8,44.2,4.2,121.4-8,146
	c-2,3.9-9.1,28.6-34.2,37.9c-6.6,2.4-13.7,3.6-20.7,3.5"/>
<path class="st12" d="M297,50c-5.5,18.5,19.5,35.3,32.5,10.8c15.1-28.6-49.8-39.5-39.6,7.9c9.3,43.8,3.6,120.1-9.2,144.6
	c-2.1,4-9.4,28.3-34.1,37.5c-6.6,2.4-13.6,3.5-20.6,3.4"/>
<path class="st12" d="M297.5,50.3c-5.5,18.2,19.2,35,31.9,11.3c14.8-27.9-49-38.2-39.4,8.6c8.9,43.4,2.9,118.8-10.4,143.1
	c-2.2,4-9.5,28-34.1,37.1c-6.6,2.4-13.5,3.6-20.5,3.5"/>
<path class="st12" d="M298,50.7c-5.4,17.9,19,34.7,31.3,11.8c14.5-27.1-48.3-37-39.1,9.4c8.5,43,2.2,117.5-11.6,141.7
	c-2.3,4-9.8,27.7-34.1,36.7c-6.5,2.4-13.4,3.5-20.4,3.4"/>
<path class="st13" d="M298.6,51.1c-5.2,17.5,18.7,34.3,30.6,12.2c14.2-26.3-47.6-35.7-38.9,10.1c8.1,42.6,1.5,116.2-12.8,140.3
	c-2.4,4.1-10,27.4-34.1,36.3c-6.5,2.4-13.4,3.5-20.3,3.4"/>
<path class="st13" d="M299.1,51.5c-5.2,17.2,18.4,34,30,12.7c13.9-25.5-46.9-34.4-38.7,10.9c7.7,42.2,0.8,114.9-14,138.8
	c-2.5,4.1-10.1,27-34,35.9c-6.5,2.4-13.3,3.5-20.2,3.3"/>
<path class="st13" d="M299.6,51.8C294.6,68.7,317.8,85.5,329,65c13.6-24.7-46.2-33.2-38.4,11.7c7.3,41.8,0.1,113.6-15.2,137.4
	c-2.7,4.1-10.4,26.7-34,35.5c-6.4,2.3-13.2,3.5-20,3.3"/>
<path class="st14" d="M300.2,52.2c-5,16.6,17.8,33.3,28.7,13.6c13.2-24-45.6-31.9-38.2,12.4c6.9,41.4-0.6,112.3-16.5,135.9
	c-2.8,4.2-10.5,26.4-34,35.1c-6.4,2.3-13.1,3.5-19.9,3.3"/>
<path class="st14" d="M300.7,52.6c-4.9,16.2,17.5,33,28,14.1c12.9-23.2-44.9-30.7-38,13.2c6.5,41-1.3,111-17.7,134.5
	c-2.9,4.2-10.8,26.1-33.9,34.8c-6.3,2.3-13.1,3.4-19.8,3.2"/>
<path class="st14" d="M301.2,53c-4.8,15.9,17.2,32.6,27.4,14.6c12.6-22.4-44.2-29.4-37.7,14c6,40.6-2,109.7-18.9,133.1
	c-3,4.2-11,25.8-33.9,34.3c-6.3,2.3-13,3.4-19.7,3.2"/>
<path class="st15" d="M301.8,53.3c-4.7,15.6,17,32.3,26.8,15c12.3-21.6-43.5-28.1-37.5,14.8c5.6,40.2-2.8,108.4-20.1,131.6
	c-3.2,4.3-11.2,25.5-33.9,34c-6.3,2.3-12.9,3.4-19.6,3.2"/>
<path class="st15" d="M302.3,53.7C297.7,69,319,85.7,328.4,69.2c12-20.9-42.8-26.9-37.2,15.5c5.2,39.8-3.5,107.1-21.3,130.2
	c-3.3,4.3-11.4,25.1-33.9,33.6c-6.2,2.3-12.8,3.4-19.5,3.2"/>
<path class="st15" d="M302.8,54.1c-4.5,14.9,16.4,31.6,25.5,16c11.7-20.1-42.1-25.6-37,16.2c4.8,39.3-4.2,105.8-22.5,128.7
	c-3.5,4.3-11.5,24.8-33.8,33.2c-6.2,2.3-12.8,3.4-19.4,3.1"/>
<path class="st16" d="M303.4,54.5c-4.4,14.6,16.1,31.3,24.8,16.4c11.4-19.3-41.4-24.3-36.8,17c4.3,39-5,104.5-23.7,127.3
	c-3.6,4.4-11.7,24.5-33.8,32.8c-6.1,2.3-12.7,3.4-19.2,3.1"/>
<path class="st16" d="M303.9,54.8c-4.3,14.3,15.8,30.9,24.2,16.9c11.1-18.5-40.7-23.1-36.5,17.8c3.9,38.6-5.8,103.2-24.9,125.8
	c-3.7,4.4-12,24.2-33.8,32.4c-6.1,2.3-12.6,3.3-19.1,3.1"/>
<path class="st16" d="M304.4,55.2c-4.2,14,15.5,30.6,23.5,17.4c10.8-17.7-40-21.8-36.3,18.5c3.5,38.2-6.5,101.9-26.1,124.4
	c-3.8,4.4-12.2,23.9-33.8,32c-6.1,2.3-12.5,3.3-19,3"/>
<path class="st17" d="M304.9,55.6c-4.1,13.6,15.2,30.2,22.9,17.8c10.5-16.9-39.3-20.5-36.1,19.3c3.1,37.8-7.3,100.5-27.3,123
	c-4,4.4-12.4,23.6-33.7,31.6c-6,2.3-12.4,3.3-18.9,3"/>
<path class="st17" d="M305.5,56c-4,13.3,15,29.9,22.2,18.3c10.2-16.2-38.6-19.3-35.8,20c2.6,37.4-8.1,99.2-28.5,121.5
	c-4.1,4.5-12.6,23.2-33.7,31.2c-6,2.3-12.4,3.3-18.8,3"/>
<path class="st17" d="M306,56.4c-3.9,13,14.7,29.6,21.6,18.8c9.9-15.4-37.9-18-35.6,20.8c2.2,37-8.8,97.9-29.7,120.1
	c-4.2,4.5-12.8,22.9-33.7,30.8c-5.9,2.3-12.3,3.3-18.6,3"/>
<path class="st18" d="M306.5,56.7c-3.8,12.7,14.4,29.3,21,19.3c9.6-14.6-37.2-16.7-35.4,21.6c1.8,36.6-9.6,96.5-30.9,118.6
	c-4.4,4.6-12.9,22.6-33.6,30.4c-5.9,2.2-12.2,3.2-18.6,2.9"/>
<path class="st18" d="M307,57.1c-3.7,12.3,14.1,28.9,20.3,19.7c9.3-13.8-36.6-15.5-35.1,22.3c1.4,36.2-10.4,95.2-32.1,117.2
	c-4.5,4.6-13.2,22.3-33.6,30c-5.9,2.2-12.2,3.2-18.4,2.9"/>
<path class="st18" d="M307.6,57.5c-3.6,12,13.8,28.6,19.7,20.2c9-13-35.9-14.2-34.9,23.1c1,35.8-11.2,93.9-33.3,115.8
	c-4.6,4.6-13.4,22-33.6,29.6c-5.8,2.2-12.1,3.2-18.3,2.9"/>
<path class="st19" d="M308.1,57.9c-3.5,11.7,13.5,28.3,19,20.7c8.8-12.1-35.2-12.9-34.7,23.9c0.5,35.4-12,92.5-34.5,114.3
	c-4.8,4.6-13.6,21.6-33.6,29.2c-5.8,2.2-12,3.2-18.2,2.8"/>
<path class="st19" d="M308.6,58.2c-3.4,11.4,13.3,27.9,18.4,21.1c8.5-11.3-34.5-11.6-34.4,24.6c0.1,35-12.7,91.2-35.8,112.9
	c-4.9,4.7-13.8,21.3-33.5,28.8c-5.8,2.2-11.9,3.2-18.1,2.8"/>
<path class="st19" d="M309.2,58.6c-3.3,11,13,27.6,17.8,21.6c8.3-10.4-33.8-10.4-34.2,25.4c-0.3,34.6-13.5,89.8-37,111.4
	c-5.1,4.7-14,21-33.5,28.4c-5.7,2.2-11.9,3.2-18,2.8"/>
<path class="st20" d="M309.7,59c-3.2,10.7,12.7,27.3,17.1,22c8-9.6-33.1-9.1-34,26.2c-0.8,34.2-14.3,88.5-38.2,110
	c-5.2,4.7-14.1,20.7-33.5,28.1c-5.7,2.2-11.8,3.2-17.8,2.8"/>
<path class="st20" d="M310.2,59.4c-3.1,10.4,12.4,27.1,16.5,22.5c7.8-8.7-32.5-7.8-33.7,26.9c-1.2,33.8-15.1,87.1-39.4,108.6
	c-5.4,4.7-14.4,20.4-33.4,27.7c-5.6,2.2-11.7,3.1-17.7,2.7"/>
<path class="st20" d="M310.8,59.7c-3,10.1,12.1,26.8,15.8,23c7.6-7.8-31.8-6.5-33.5,27.7c-1.6,33.4-15.9,85.8-40.6,107.1
	c-5.5,4.7-14.6,20.1-33.4,27.3c-5.6,2.2-11.6,3.1-17.6,2.7"/>
<path class="st10" d="M311.3,60.1c-2.9,9.7,11.3,25.8,15.2,23.5c6-8.1-31.1-5.3-33.2,28.5c-2.1,33.1-16.7,84.4-41.8,105.7
	c-5.6,4.8-14.8,19.8-33.4,26.9c-5.6,2.2-11.5,3.1-17.5,2.7"/>
<path class="st10" d="M311.8,60.5c-2.8,9.4,11,25.5,14.5,23.9c5.7-7.3-30.5-4-33,29.2c-2.5,32.7-17.5,83.1-43,104.3
	c-5.8,4.8-15,19.4-33.4,26.5c-5.5,2.2-11.5,3.1-17.4,2.6"/>
<path class="st9" d="M312.4,60.9C309.6,70,323,86,326.2,85.3c5.3-6.5-29.8-2.7-32.8,30c-3,32.3-18.3,81.7-44.2,102.8
	c-5.9,4.8-15.1,19.1-33.3,26.1c-5.5,2.2-11.4,3-17.3,2.6"/>
<path class="st9" d="M312.9,61.2c-2.6,8.8,10.3,24.8,13.2,24.9c5-5.8-29.1-1.4-32.5,30.7c-3.4,31.9-19.1,80.4-45.4,101.4
	c-6.1,4.8-15.4,18.8-33.3,25.7c-5.4,2.2-11.3,3-17.1,2.6"/>
<path class="st9" d="M313.4,61.6c-2.5,8.5,10,24.4,12.6,25.4c4.7-5-28.5-0.2-32.3,31.5c-3.8,31.5-19.9,79-46.6,99.9
	c-6.2,4.9-15.6,18.5-33.3,25.3c-5.4,2.1-11.2,3-17,2.5"/>
<path class="st8" d="M313.9,62c-2.4,8.1,9.7,24,12,25.8c4.3-4.3-27.8,1.1-32.1,32.3s-20.7,77.6-47.9,98.5
	c-6.3,4.9-15.8,18.2-33.2,24.9c-5.4,2.2-11.1,3-16.9,2.6"/>
<path class="st8" d="M314.5,62.4c-2.3,7.8,9.4,23.7,11.3,26.3c4-3.5-27.1,2.4-31.8,33s-21.5,76.3-49,97c-6.5,4.9-16,17.9-33.2,24.5
	c-5.3,2.1-11.1,3-16.8,2.5"/>
<path class="st8" d="M315,62.7c-2.2,7.5,9.1,23.3,10.7,26.7c3.6-2.7-26.5,3.7-31.6,33.8c-5.2,30.3-22.3,74.9-50.2,95.6
	c-6.6,4.9-16.1,17.5-33.2,24.1c-5.3,2.1-11,3-16.7,2.5"/>
<path class="st7" d="M315.5,63.1c-2.1,7.1,8.8,23,10,27.2c3.3-2-25.8,5-31.4,34.5c-5.6,29.9-23.1,73.5-51.4,94.2
	c-6.7,5-16.3,17.2-33.1,23.7c-5.3,2.1-11,2.9-16.6,2.4"/>
<path class="st7" d="M316.1,63.5c-2,6.8,8.5,22.6,9.4,27.7c3-1.2-25.1,6.2-31.1,35.3c-6.1,29.5-23.9,72.1-52.6,92.7
	c-6.9,5-16.6,16.9-33.1,23.3c-5.2,2.1-10.9,2.9-16.5,2.4"/>
<path class="st7" d="M316.6,63.9c-2,6.5,8.2,22.3,8.7,28.1c2.6-0.4-24.5,7.5-30.9,36.1c-6.5,29.2-24.7,70.8-53.8,91.3
	c-7,5-16.8,16.6-33.1,22.9c-5.2,2.1-10.8,2.9-16.4,2.4"/>
<path class="st6" d="M317.1,64.2c-1.9,6.2,7.9,21.9,8.1,28.6c2.3,0.3-23.8,8.8-30.7,36.8c-7,28.8-25.5,69.4-55,89.8
	c-7.2,5-16.9,16.3-33.1,22.5c-5.1,2.1-10.7,2.9-16.2,2.3"/>
<path class="st6" d="M317.6,64.6c-1.8,5.8,7.6,21.5,7.5,29.1c2,1.1-23.2,10.1-30.4,37.6c-7.5,28.4-26.3,68-56.2,88.4
	c-7.3,5-17.1,16-33.1,22.1c-5.1,2.1-10.6,2.9-16.1,2.3"/>
<path class="st6" d="M318.2,65c-1.7,5.5,7.3,21.2,6.8,29.5c1.6,1.8-22.5,11.3-30.2,38.4c-7.9,28-27.1,66.6-57.5,87
	c-7.5,5-17.4,15.6-33,21.8c-5.1,2.1-10.6,2.9-16,2.3"/>
<path class="st5" d="M318.7,65.4c-1.5,5.2,7,20.8,6.2,30c1.3,2.6-21.9,12.6-30,39.1c-8.4,27.6-27.9,65.2-58.7,85.5
	c-7.6,5-17.6,15.3-33,21.4c-5,2.1-10.5,2.8-15.9,2.2"/>
<path class="st5" d="M319.2,65.7c-1.5,4.9,6.7,20.5,5.5,30.5c1,3.4-21.2,13.9-29.7,39.9c-8.9,27.2-28.7,63.8-59.9,84.1
	c-7.8,5-17.8,15-33,21c-5,2.1-10.4,2.8-15.8,2.2"/>
<path class="st5" d="M319.8,66.1c-1.4,4.6,4.8,20,4.9,30.9c0,4.2-20.6,15.1-29.5,40.7c-9.3,26.8-29.5,62.5-61.1,82.6
	c-7.9,5.1-18,14.7-32.9,20.6c-4.9,2-10.3,2.8-15.7,2.2"/>
<path class="st4" d="M320.3,66.5c-1.3,4.2,4.8,19.7,4.2,31.4c-0.2,4.9-20,16.4-29.3,41.4c-9.8,26.4-30.3,61.1-62.3,81.2
	c-8.1,5.1-18.1,14.4-32.9,20.2c-4.9,2-10.3,2.8-15.5,2.2"/>
<path class="st4" d="M320.8,66.9c-1.2,3.9,4.7,19.3,3.6,31.9c-0.5,5.6-19.3,17.7-29,42.2c-10.3,26-31.1,59.7-63.5,79.8
	c-8.2,5.1-18.4,14.1-32.9,19.8c-4.9,2-10.2,2.8-15.4,2.1"/>
<path class="st4" d="M321.4,67.3c-1.1,3.6,4.6,19,3,32.3c-0.8,6.4-18.7,18.9-28.8,42.9c-10.8,25.6-31.9,58.3-64.7,78.3
	c-8.4,5.1-18.6,13.7-32.9,19.4c-4.8,2-10.1,2.7-15.3,2.1"/>
<path class="st3" d="M321.9,67.6c-1,3.2,4.5,18.6,2.3,32.8c-1.1,7.1-18.1,20.2-28.5,43.7c-11.2,25.2-32.7,56.9-65.9,76.9
	c-8.5,5.1-18.8,13.4-32.8,19c-4.8,2-10,2.7-15.2,2.1"/>
<path class="st3" d="M322.4,68c-0.9,2.9,4.3,18.3,1.7,33.3c-1.4,7.9-17.4,21.5-28.3,44.5c-11.7,24.8-33.5,55.5-67.1,75.4
	c-8.6,5.1-18.9,13.1-32.8,18.6c-4.8,2-10,2.7-15.1,2"/>
<path class="st3" d="M322.9,68.4c-0.8,2.6,4.1,17.9,1,33.8c-1.7,8.6-16.8,22.7-28.1,45.2c-12.2,24.4-34.3,54.1-68.3,74
	c-8.8,5.1-19.1,12.8-32.8,18.2c-4.7,2-9.9,2.7-15,2"/>
<path class="st2" d="M323.5,68.8c-0.7,2.3,3.8,17.6,0.4,34.2c-2,9.4-16.2,24-27.9,46c-12.7,24-35.1,52.7-69.5,72.6
	c-8.9,5.1-19.4,12.5-32.8,17.8c-4.7,2-9.8,2.7-14.8,2"/>
<path class="st2" d="M324,69.1c-0.6,2,3.6,17.2-0.3,34.7c-2.2,10.2-15.6,25.2-27.6,46.8c-16.7,29.7-41.2,54.2-70.7,71.1
	c-9,5.1-19.5,12.1-32.7,17.4c-4.6,2-9.7,2.7-14.7,2"/>
<path class="st2" d="M324.5,69.5c-0.5,1.6,3.4,16.9-0.9,35.2c-2.6,10.9-14.9,26.5-27.4,47.5c-17.4,29.1-42.3,53.2-71.9,69.7
	c-9.2,5.2-19.8,11.8-32.7,17c-4.6,2-9.7,2.7-14.6,1.9"/>
<path class="st1" d="M325.1,69.9c-0.4,1.3,3.1,16.6-1.5,35.6c-2.9,11.7-14.3,27.7-27.1,48.3c-14.2,22.7-37.5,48.5-73.1,68.2
	c-9.4,5.2-19.9,11.5-32.7,16.6c-4.6,2-9.6,2.6-14.5,1.9"/>
<path class="st1" d="M325.6,70.3c-0.3,1,2.9,16.2-2.2,36.1c-3.2,12.5-13.7,29-26.9,49c-14.7,22.3-38.3,47.1-74.3,66.8
	c-9.5,5.2-20.1,11.2-32.6,16.2c-4.5,2-9.5,2.6-14.4,1.9"/>
<path class="st1" d="M326.1,70.6c1.3,12.3,0.3,24.6-2.8,36.6c-3.5,13.2-13.1,30.2-26.7,49.8c-15.2,21.9-39.1,45.7-75.5,65.4
	c-10.6,5.9-21.5,11.2-32.6,15.8c-4.5,1.9-9.4,2.6-14.3,1.8"/>
<path class="st0" d="M326.6,71c-0.1,0.3,2.4,15.5-3.5,37c-3.8,14-12.5,31.4-26.4,50.6c-15.7,21.4-39.9,44.3-76.7,63.9
	c-10.6,5.7-21.5,10.9-32.6,15.5c-4.4,1.9-9.4,2.6-14.1,1.8"/>
<path class="st0" d="M327.2,71.4c0,0,14.1,103.3-140.8,166.3c-4.4,1.9-9.3,2.5-14,1.8"/>
<path class="st0" d="M855.1,261.1c-13,8.9-64.5-5.4-120.8-28.1s-114.2,1.1-149,15c-24.6,9.8-33-12.6-106.5,3.5
	c-34.2,7.5-57.2,2.7-107.3-30.5c-18.9-12.5-28.9-33.5-76.4,5.2c-54.7,44.5-111.3,16.9-125.5,7.8s-64.8-51.7-92.7-6.8
	C61.7,251.6,0,232,0,232"/>
<path class="st21" d="M1,232.5c0,0,60.6,18.8,76.3-4.7c28.5-42.8,78.3-2.3,92.3,6.7c14.3,9.1,70.4,36.2,124.5-6.6
	c32.7-25.9,47.6-24,60.2-16.4c5.3,3.2,10.2,7.6,15.9,11.2c49.4,31.5,72.6,36.5,106.5,29.4c46.3-9.7,66.8-4.3,81.9-1.6
	c8.3,1.4,15,2,23.6-1.3c34.8-13.4,92.3-36.7,147.7-15c4.4,1.7,8.8,3.4,13.2,5c50.6,18.9,95.2,30,106.7,22.2"/>
<path class="st22" d="M1.9,233c0,0,59.4,18,75.7-4.6c29.2-40.7,78-2.2,92,6.5c14.3,9,69.9,35.6,123.5-5.4
	c32.1-24.6,47.1-23.1,59.9-15.9c5.3,3,10.2,7.1,15.8,10.6c48.6,29.8,72.1,34.9,105.8,28.2c45.4-9,65.9-3.8,81.1-1.2
	c8.1,1.4,14.8,1.9,23.4-1.3c34.8-13,91.8-35.6,146.4-15.1c4.4,1.7,8.8,3.2,13,4.8c50.2,18.2,94.8,29.1,105.8,21.6"/>
<path class="st23" d="M2.9,233.5c0,0,58.3,17.3,75.1-4.6c29.7-38.7,77.8-2.2,91.7,6.4c14.4,8.9,69.5,35,122.5-4.2
	c31.5-23.3,46.6-22.1,59.5-15.3c5.3,2.8,10.2,6.7,15.8,10c47.9,28.1,71.6,33.4,105,27.1c44.5-8.4,65-3.3,80.3-0.7
	c8,1.4,14.7,1.9,23.2-1.2c34.8-12.6,91.3-34.6,145.1-15.1c4.4,1.6,8.7,3.1,13,4.6c49.8,17.6,94.4,28.1,104.9,20.9"/>
<path class="st24" d="M3.8,234c0,0,57.1,16.5,74.5-4.5c30.3-36.6,77.5-2.1,91.3,6.2c14.5,8.8,69.1,34.4,121.4-3.1
	c30.9-22.1,46.1-21.1,59.1-14.7c5.3,2.6,10.2,6.3,15.8,9.4c47.1,26.5,71.1,31.8,104.2,25.9c43.5-7.7,64.1-2.8,79.5-0.2
	c7.9,1.3,14.5,1.8,23-1.1c34.9-12.1,90.9-33.7,143.8-15.2c4.3,1.5,8.6,3,12.9,4.4c49.5,16.9,94,27.1,104,20.3"/>
<path class="st25" d="M4.8,234.4c0,0,55.9,15.8,73.9-4.4c30.7-34.5,77.3-2.1,91,6.1c14.6,8.7,68.6,33.8,120.5-1.9
	c30.3-20.8,45.6-20.1,58.8-14.2c5.3,2.4,10.2,5.9,15.7,8.8c46.3,24.8,70.6,30.3,103.5,24.8c42.6-7.1,63.3-2.3,78.7,0.2
	c7.8,1.3,14.4,1.7,22.8-1.1c34.9-11.7,90.4-32.7,142.5-15.2c4.3,1.4,8.6,2.8,12.8,4.2c49.1,16.2,93.6,26.1,103.1,19.6"/>
<path class="st26" d="M5.7,234.9c0,0,54.7,15,73.3-4.4c31.2-32.5,77-2,90.6,6c14.7,8.6,68.1,33.2,119.4-0.7
	c29.7-19.6,45-19.1,58.4-13.6c5.3,2.2,10.2,5.4,15.7,8.2c45.5,23.1,70,28.7,102.7,23.7c41.6-6.4,62.4-1.7,78,0.7
	c7.7,1.2,14.3,1.6,22.5-1c35-11.3,90-31.7,141.2-15.3c4.3,1.4,8.5,2.7,12.7,4c48.7,15.6,93.2,25.1,102.2,19"/>
<path class="st27" d="M6.7,235.4c0,0,53.4,14.3,72.8-4.4c31.6-30.4,76.8-2,90.3,5.8c14.8,8.6,67.6,32.6,118.4,0.4
	c29-18.4,44.5-18.2,58.1-13.1c5.3,2,10.2,5,15.6,7.6c44.7,21.5,69.5,27.2,101.9,22.5c40.7-5.8,61.5-1.2,77.2,1.2
	c7.6,1.2,14.2,1.6,22.3-1c35-10.8,89.5-30.7,139.9-15.3c4.2,1.3,8.5,2.5,12.6,3.8c48.4,14.9,92.8,24.1,101.3,18.3"/>
<path class="st28" d="M7.6,235.9c0,0,52.1,13.5,72.2-4.3c31.9-28.4,76.5-1.9,89.9,5.7c14.9,8.5,67.1,32,117.4,1.6
	c28.4-17.1,44-17.2,57.7-12.5c5.3,1.8,10.2,4.6,15.6,7c43.9,19.9,69,25.6,101.1,21.4c39.7-5.2,60.6-0.7,76.4,1.7
	c7.5,1.1,14,1.5,22.1-0.9c35-10.4,89.1-29.8,138.5-15.4c4.2,1.2,8.4,2.4,12.5,3.6c48,14.3,92.4,23.1,100.4,17.7"/>
<path class="st29" d="M8.6,236.4c0,0,50.8,12.8,71.6-4.3c32.2-26.4,76.3-1.9,89.6,5.6c15,8.4,66.6,31.4,116.4,2.8
	c27.8-15.9,43.4-16.2,57.4-11.9c5.3,1.6,10.2,4.2,15.6,6.4c43,18.2,68.5,24,100.4,20.3c38.8-4.6,59.8-0.2,75.6,2.1
	c7.4,1.1,13.9,1.4,21.9-0.8c35.1-9.9,88.7-28.8,137.2-15.4c4.2,1.2,8.3,2.2,12.4,3.4c47.6,13.6,92,22.2,99.5,17.1"/>
<path class="st30" d="M9.5,236.9c0,0,49.5,12,71-4.2c32.5-24.5,76.1-1.8,89.2,5.4c15,8.3,66,30.7,115.4,4
	c27.1-14.7,42.9-15.2,57-11.4c5.2,1.4,10.2,3.8,15.5,5.9c42.2,16.6,68,22.4,99.6,19.1c37.8-4,58.9,0.3,74.8,2.6
	c7.3,1,13.8,1.3,21.7-0.8c35.1-9.4,88.2-27.9,135.9-15.4c4.2,1.1,8.3,2.1,12.3,3.2c47.3,12.9,91.6,21.2,98.6,16.4"/>
<path class="st31" d="M10.5,237.4c0,0,48.1,11.2,70.4-4.2c32.7-22.6,75.8-1.8,88.9,5.3c15.1,8.2,65.5,30.1,114.4,5.1
	c26.5-13.5,42.3-14.2,56.7-10.8c5.2,1.2,10.2,3.3,15.5,5.3c41.3,15,67.5,20.9,98.8,18c36.9-3.4,58,0.8,74,3.1
	c7.2,1,13.7,1.3,21.5-0.7c35.2-9,87.8-27,134.6-15.5c4.1,1,8.2,1.9,12.2,3c46.9,12.3,91.2,20.2,97.7,15.8"/>
<path class="st32" d="M11.4,237.9c0,0,46.8,10.4,69.8-4.1c32.9-20.7,75.6-1.8,88.6,5.1c15.2,8.1,64.9,29.5,113.4,6.3
	c25.7-12.3,41.7-13.1,56.3-10.2c5.2,1,10.2,2.9,15.5,4.7c40.4,13.5,67,19.3,98.1,16.9c35.9-2.8,57.1,1.3,73.2,3.5
	c7.1,1,13.5,1.2,21.3-0.6c35.2-8.5,87.4-26,133.3-15.5c4.1,0.9,8.2,1.8,12.1,2.8c46.5,11.6,90.8,19.2,96.8,15.1"/>
<path class="st33" d="M12.4,238.4c0,0,45.4,9.6,69.3-4.1c33-18.8,75.3-1.7,88.2,5c15.3,8,64.3,28.8,112.4,7.5
	c25.1-11.1,41.2-12.1,56-9.7c5.2,0.9,10.1,2.5,15.4,4.1c39.6,11.9,66.4,17.7,97.3,15.7c34.9-2.2,56.2,1.9,72.4,4
	c7,1.1,14.1,0.9,21-0.6c35.3-8,87-25.1,132-15.6c4.1,0.9,8.1,1.7,12,2.6c46.2,11,90.4,18.2,95.9,14.5"/>
<path class="st34" d="M13.3,238.8c0,0,44,8.7,68.7-4c33.1-17,75.1-1.7,87.9,4.9c15.4,7.9,63.7,28.1,111.4,8.7
	c24.4-9.9,40.6-11.1,55.6-9.1c5.2,0.8,10.4,2,15.4,3.5c38.7,10.4,65.9,16.1,96.5,14.6c34-1.6,55.4,2.4,71.6,4.5
	c6.9,1.1,14,0.9,20.8-0.5c35.3-7.5,86.5-24.2,130.7-15.6c4.1,0.8,8,1.5,11.9,2.4c45.8,10.3,90,17.2,95,13.8"/>
<path class="st35" d="M14.3,239.3c0,0,42.5,7.8,68.1-4c33.2-15.3,74.9-1.6,87.5,4.7c15.5,7.8,63.1,27.4,110.4,9.8
	c23.7-8.8,40.1-10,55.3-8.6c5.2,0.6,10.4,1.6,15.4,3c37.8,8.9,65.4,14.5,95.8,13.5c33-1.1,54.5,2.9,70.8,5c6.9,1,13.8,0.9,20.6-0.5
	c35.4-7,86.1-23.3,129.4-15.7c4,0.7,8,1.4,11.8,2.2c45.4,9.6,89.6,16.2,94,13.2"/>
<path class="st36" d="M15.2,239.8c0,0,41.1,6.8,67.5-3.9c33.3-13.6,74.6-1.6,87.2,4.6c15.6,7.7,62.5,26.6,109.4,11
	c23-7.6,39.5-9,54.9-8c5.2,0.4,10.3,1.2,15.4,2.3c36.9,7.4,64.9,14,95,12.3c32-1.8,53.6,3.4,70.1,5.4c6.8,0.9,13.7,0.8,20.4-0.4
	c35.4-6.5,85.7-22.4,128.1-15.7c4,0.6,7.9,1.2,11.7,2c45,9,89.2,15.2,93.2,12.5"/>
<path class="st37" d="M16.2,240.3c0,0,39.7,5.8,66.9-3.9c33.4-11.9,74.4-1.6,86.8,4.5c15.7,7.6,61.9,25.8,108.4,12.2
	c22.3-6.5,39-8.9,54.6-7.5c5.1,0.5,10.1,0.9,15.3,1.7c36,5.9,64.4,12.4,94.2,11.2c31.1-1.2,52.7,3.9,69.3,5.9
	c6.7,0.9,13.5,0.8,20.2-0.3c35.5-6,85.3-21.6,126.8-15.8c4,0.6,7.9,1.1,11.6,1.8c44.7,8.3,88.8,14.2,92.3,11.9"/>
<path class="st38" d="M17.1,240.8c0,0,38.2,4.8,66.3-3.8c33.5-10.3,74.1-1.5,86.5,4.3c15.8,7.5,61.2,25,107.4,13.4
	c21.6-5.4,38.4-7.7,54.2-6.9c5.1,0.3,10.1,0.5,15.3,1.2c35,4.5,63.9,10.6,93.5,10.1c30.1-0.6,51.8,4.5,68.5,6.4
	c6.6,0.8,13.4,0.7,20-0.3c35.5-5.5,84.9-20.7,125.5-15.8c4,0.5,7.8,0.9,11.5,1.6c44.3,7.7,88.4,13.3,91.4,11.2"/>
<path class="st39" d="M18.1,241.3c0,0,36.8,3.7,65.8-3.8c33.7-8.7,73.9-1.5,86.1,4.2c15.9,7.4,60.5,24.1,106.4,14.5
	c17.7-3.7,35.7-5.8,53.9-6.3c5.1-0.1,10.2,0.1,15.2,0.6c34.1,3.1,63.3,7.9,92.7,8.9c29.2,1,51,5,67.7,6.8c6.6,0.8,13.2,0.7,19.8-0.2
	c35.6-5,84.5-19.8,124.2-15.8c3.9,0.4,7.8,0.8,11.5,1.4c43.9,7,88,12.3,90.5,10.6"/>
<path class="st40" d="M19.1,241.8c0,0,35.3,2.6,65.2-3.7c33.8-7.1,73.7-1.5,85.8,4c16,7.3,59.9,23.1,105.4,15.7
	c20.1-3.3,37.3-4.6,53.5-5.8c5.1-0.3,10.1-0.3,15.2,0c33.2,1.7,62.8,6.2,91.9,7.8c28.2,1.5,50.1,5.5,66.9,7.3
	c6.5,0.7,13.1,0.7,19.5-0.2c35.6-4.4,84.1-19,122.8-15.9c3.9,0.3,7.7,0.7,11.3,1.2c43.6,6.3,87.6,11.3,89.6,9.9"/>
<path class="st41" d="M20,242.3c0,0,33.9,1.4,64.6-3.7c33.9-5.6,73.4-1.4,85.5,3.9c16.1,7.2,59.2,22.1,104.4,16.9
	c19.4-2.3,36.8-3.5,53.1-5.2c5-0.6,10.1-0.8,15.2-0.6c32.3,1.8,62.3,4.5,91.1,6.7c27.2,2,49.2,6,66.1,7.8c6.4,0.7,12.9,0.6,19.3-0.1
	C555,264,603,249.7,640.9,252c3.9,0.2,7.6,0.5,11.3,1c43.2,5.7,87.2,10.3,88.7,9.3"/>
<path class="st42" d="M21,242.8c21.4,0,42.8-1.2,64-3.6c34.1-4.1,73.2-1.4,85.1,3.8c16.2,7.1,58.6,21,103.4,18
	c18.7-1.2,36.2-2.4,52.8-4.7c5-0.7,10.1-1.1,15.1-1.2c31.5-0.9,61.8,2.8,90.4,5.5c26.3,2.5,48.3,6.6,65.3,8.2
	c6.4,0.6,12.8,0.6,19.1,0c35.7-3.4,83.2-17.4,120.2-16c3.8,0.1,7.6,0.4,11.2,0.8c42.8,5,86.8,9.3,87.8,8.6"/>
<path class="st43" d="M21.9,243.2c0,0,31.1-1,63.4-3.5c34.3-2.7,73-1.4,84.8,3.6c16.3,6.9,58,19.9,102.4,19.2
	c18-0.3,35.7-1.3,52.5-4.1c5-0.8,10-1.4,15.1-1.8c30.6-2.2,61.3,1.1,89.6,4.4c25.3,3,47.4,7.1,64.5,8.7c6.3,0.6,12.6,0.6,18.9,0
	c35.8-2.8,82.8-16.6,118.9-16c3.8,0.1,7.5,0.2,11.1,0.6c42.5,4.3,86.4,8.3,86.9,8"/>
<path class="st44" d="M22.9,243.7c0,0,124.4-9.5,147.3,0s93.8,28.7,153.4,16.9c59.7-11.9,127.4,6.4,167.6,10.1
	s105.2-19.3,147.3-15.6c42.1,3.7,86,7.3,86,7.3"/>
<linearGradient id="SVGID_1_" gradientUnits="userSpaceOnUse" x1="0" y1="30.13" x2="249.97" y2="30.13" gradientTransform="matrix(1 0 0 -1 0 171.78)">
	<stop  offset="0.27" style="stop-color:#FFFFFF"/>
	<stop  offset="1" style="stop-color:#FFFFFF;stop-opacity:0"/>
</linearGradient>
<rect y="0.4" class="st45" width="250" height="282.5"/>
<linearGradient id="SVGID_00000106859510417609394530000008902965863057091247_" gradientUnits="userSpaceOnUse" x1="526.8" y1="30.53" x2="859.6786" y2="30.53" gradientTransform="matrix(1 0 0 -1 0 171.78)">
	<stop  offset="0" style="stop-color:#FFFFFF;stop-opacity:0"/>
	<stop  offset="0.84" style="stop-color:#FFFFFF"/>
</linearGradient>
<rect x="526.8" y="0" style="fill:url(#SVGID_00000106859510417609394530000008902965863057091247_);" width="332.9" height="282.5"/>
</svg>
