<svg xmlns="http://www.w3.org/2000/svg" xmlns:xlink="http://www.w3.org/1999/xlink" viewBox="0 0 1280 692"><defs><style>.cls-1{fill:none;stroke:#000;stroke-miterlimit:10;}.cls-2{fill:url(#linear-gradient);}</style><linearGradient id="linear-gradient" x1="0.35" y1="-371.19" x2="397" y2="-371.19" gradientTransform="translate(0 717.89)" gradientUnits="userSpaceOnUse"><stop offset="0.1" stop-color="#fff"/><stop offset="0.23" stop-color="#fff" stop-opacity="0.99"/><stop offset="0.35" stop-color="#fff" stop-opacity="0.94"/><stop offset="0.46" stop-color="#fff" stop-opacity="0.87"/><stop offset="0.56" stop-color="#fff" stop-opacity="0.77"/><stop offset="0.67" stop-color="#fff" stop-opacity="0.65"/><stop offset="0.77" stop-color="#fff" stop-opacity="0.49"/><stop offset="0.87" stop-color="#fff" stop-opacity="0.3"/><stop offset="0.96" stop-color="#fff" stop-opacity="0.09"/><stop offset="1" stop-color="#fff" stop-opacity="0"/></linearGradient></defs><title>presskit</title><g id="Layer_2" data-name="Layer 2"><path class="cls-1" d="M12.41,476c187.83,7,332.9-99.21,431.39-144C545,286,675,347,611,412c-57.86,58.77-176.49,89.54-269.37,138C234.3,606,36.15,620,12.41,623s274.52-2,462.36-128,289-165,383.92-84c109.86,93.72-36.12,188-161,190s-292.07-61-334.39-7,330.27,28.67,434.5-11c86.69-33,167.19-114,219.82-54C1089,610.36,884.49,675,622.35,655S69.17,623,27.89,647"/><path class="cls-1" d="M28.19,646.84c40.57-23.58,328.05-12.22,587.19,7.27,258.5,19.55,460-43.6,390.89-123.75C956.08,472.17,884.11,551,799.83,583.31,787.61,588,770.4,592,748.77,597c-71.74,16.47-182.22,26.36-260.22,26.3-79,0-137.77-7.15-118.79-30.67,35.43-43.87,153.93-10.64,261.7,1.14,22.82,2.52,45.18,4.13,66.23,3.86,122-1.77,264.31-93.83,155.09-185.3-86.94-72.65-179.13-45.52-337.95,55.9-14,8.89-28.39,18.38-43.41,28.33-72,47.69-156.41,76.48-233.48,95C110.3,622.3,3.19,623.19,18.59,621c21.26-3,171.64-14.16,280.27-53.34a369.56,369.56,0,0,0,46.27-20.12c59.19-31.38,127.61-55.47,183.91-83.15,31.28-15.43,58.86-32.24,78.82-52.48C670.33,348.52,542,289.21,441.63,335,343.88,379.69,199.94,484.68,13.26,478.26"/><path class="cls-1" d="M28.49,646.74c39.86-23.17,323.77-12.44,579.93,6.53,254.84,19.11,453.34-42.6,386.5-121.5-47.76-56.38-111.2,20.15-193.07,51.9-11.17,4.34-28,7.53-50.73,13-73.5,17.74-190.3,26.63-263.77,25.15-74.48-1.46-130.52-7.27-111.13-30.58,35.88-43.13,152.71-11.92,257.11-.83,22.24,2.42,44,4,64.36,3.83,119-1.54,257.76-91.39,149.17-180.61-86.54-70.8-178.36-43.54-335.61,56.48-13.91,8.79-28.23,18.21-43.18,28-73,47.77-155.1,75-230,92.86C113.11,621,8.73,621.52,24.76,619c21.92-3.41,170.74-14.83,278.06-53.76a362.87,362.87,0,0,0,45.81-20.16c58.55-31.54,124.85-55.84,179.37-82.44,30.5-15,57.37-31.24,76.73-50.82,60.94-61.76-65.7-119.38-165.27-73.72-97,44.51-239.83,148.28-425.34,142.44"/><path class="cls-1" d="M28.8,646.64c39.14-22.76,319.49-12.66,572.65,5.79,251.2,18.67,446.63-41.59,382.12-119.24C938.22,478.61,883.32,552.86,803.88,584c-10.14,4-26.59,6.36-50.42,12.38-75.24,19-198.38,26.9-267.31,24-69.92-2.88-123.27-7.39-103.47-30.51,36.32-42.39,151.51-13.4,252.52-2.79,21.66,2.27,42.76,4,62.49,3.79C813.83,589.93,948.9,502,841,415c-86.16-68.95-177.41-41.25-333.29,57.05-13.83,8.73-28.06,18.05-42.93,27.66-74,47.84-153.79,73.54-226.63,90.73C115.91,619.73,14.28,619.88,30.94,617.07c22.57-3.8,169.94-15.23,275.83-54.18a344.24,344.24,0,0,0,45.36-20.2C410.09,511.12,474.28,486.6,527,461c29.76-14.48,55.9-30.24,74.65-49.16,59.42-60.14-65.53-116.07-164.31-70.58C341,385.58,199.32,488.14,15,482.88"/><path class="cls-1" d="M29.1,646.53c38.43-22.34,315.22-12.87,565.39,5.06C842,669.82,1034.38,611,972.21,534.6c-42.93-52.78-89.31,19.16-166.3,49.8-9.11,3.62-25.17,5.18-50.1,11.73C678.81,616.35,549.34,623.31,485,619c-65.37-4.3-116-7.51-95.81-30.42,36.76-41.65,150.3-14.75,247.93-4.77,21.09,2.16,41.54,3.87,60.62,3.76,113.22-.63,244.85-86.72,137.35-171.21-85.62-67.29-176.59-39.17-331,57.63-13.77,8.63-27.91,17.87-42.7,27.31-75.06,47.92-152.52,71.91-223.2,88.61C118.65,618.16,19.83,618.24,37.12,615.12c23.23-4.21,169.07-15.82,273.61-54.61a334.7,334.7,0,0,0,44.91-20.24c57.33-31.69,119.4-56.42,170.27-81,29-14,54.42-29.25,72.56-47.49,57.89-58.52-65.36-112.77-163.35-67.45C339.58,388.53,199,489.88,15.82,485.19"/><path class="cls-1" d="M29.4,646.43c37.72-21.93,311-13.09,558.12,4.32,243.9,17.78,433.13-39.53,373.34-114.73-40.53-51-78.41,18.57-152.92,48.74-8.07,3.27-23.76,4-49.79,11.09-78.75,21.43-214.55,27.45-274.4,21.71-60.82-5.72-108.79-7.62-88.15-30.34,37.18-40.91,149.09-16.09,243.33-6.73,20.52,2,40.35,4,58.76,3.73C808,582.8,936,499.89,829.12,417.7c-85.2-65.49-175.77-37.09-328.62,58.2-13.71,8.55-27.75,17.71-42.46,27-76.1,48-151.22,70.39-219.77,86.49-116.84,27.43-212.9,27.23-195,23.79,23.89-4.6,168.21-16.4,271.39-55a323.1,323.1,0,0,0,44.46-20.29c56.7-31.8,116.65-56.74,165.73-80.3,28.21-13.54,52.94-28.25,70.47-45.83,56.36-56.9-65.19-109.46-162.39-64.3-94.8,44.07-234.24,144.2-416.27,140.09"/><path class="cls-1" d="M29.7,646.33c37-21.52,306.68-13.32,550.85,3.58,240.26,17.34,426.33-38.48,369-112.48C911.36,488.22,882,555.34,810,585.12c-7,2.91-22.34,2.82-49.47,10.44C680,618.2,537.86,623.29,482.55,616.14,426.29,609,381,608.4,402.06,585.88c37.6-40.19,147.87-17.44,238.74-8.7,19.94,1.92,39.13,3.91,56.89,3.69,107.38-1.31,231.83-81.94,125.52-161.81-84.78-63.7-175-35-326.29,58.77-13.66,8.46-27.6,17.53-42.23,26.64-77.14,48-149.92,68.87-216.34,84.36C124.22,615.44,30.92,615,49.47,611.2c24.55-5,167.34-17,269.17-55.46a312.27,312.27,0,0,0,44-20.32c56.08-31.92,113.91-57.06,161.19-79.59,27.44-13.07,51.46-27.25,68.37-44.17,54.85-55.28-65-106.15-161.42-61.16C336.72,394.42,198.41,493.34,17.53,489.81"/><path class="cls-1" d="M30,646.22c36.3-21.1,302.39-13.53,543.58,2.85C810.2,666,993.07,611.65,938.16,538.84,902.38,491.41,881.42,556,812,585.48c-6,2.56-20.93,1.63-49.16,9.8-82.26,23.82-230.72,28-281.5,19.43-51.7-8.56-94.32-7.86-72.82-30.18,38-39.45,146.66-18.79,234.15-10.66,19.36,1.79,37.92,3.86,55,3.66C802.16,576.31,923,498,817.3,420.41c-84.37-61.9-174.15-33-324,59.34-13.6,8.38-27.45,17.35-42,26.3-78.19,48.12-148.62,67.37-212.92,82.24-111.42,25.78-202,25-182.78,21,25.21-5.37,166.47-17.58,266.94-55.88A302.51,302.51,0,0,0,366.14,533c55.45-32,111.17-57.39,156.64-78.87,26.68-12.61,50-26.23,66.29-42.52,53.45-53.53-64.84-102.84-160.46-58C335.29,397.37,198.1,495.07,18.39,492.12"/><path class="cls-1" d="M30.31,646.12c35.59-20.69,298.15-14.23,536.31,2.11,233,16,412.6-36.34,360.18-108-33.42-45.68-46,16.12-112.77,45.58-5,2.2-19.51.44-48.84,9.16-84,25-238.78,28.18-285.05,18.28-47.13-10.08-87.09-8-65.16-30.09,38.4-38.73,145.45-20.14,229.56-12.64,18.79,1.68,36.71,3.81,53.15,3.63C799.25,573.06,916.5,497,811.39,421.76c-83.95-60.1-173.35-30.89-321.63,59.92-13.54,8.29-27.3,17.17-41.76,26-79.23,48.18-147.32,65.85-209.49,80.12C129.79,612.71,42,611.7,61.83,607.28c25.86-5.75,165.6-18.17,264.72-56.3a293.86,293.86,0,0,0,43.09-20.4c54.82-32.16,108.43-57.71,152.1-78.16,25.9-12.14,48.55-25.22,64.2-40.85,51.94-51.9-64.66-99.54-159.5-54.89C333.85,400.32,197.8,496.81,19.24,494.43"/><path class="cls-1" d="M30.61,646c34.88-20.28,293.88-14.51,529.05,1.37C789,662.88,965.32,612.13,915.45,541.67c-31.09-43.93-35.5,14.77-99.4,44.54-3.95,1.84-18.09-.76-48.52,8.51-85.79,26.15-246.85,28.44-288.59,17.14-42.56-11.53-79.87-8.1-57.5-30,38.78-38,144.23-21.49,225-14.6,18.21,1.56,35.5,3.41,51.28,3.6C796.33,572,910,496.06,805.47,423.11c-83.53-58.3-172.54-28.82-319.3,60.49-13.47,8.21-27.15,17-41.52,25.63-80.29,48.23-146,64.33-206.06,78-106,24.12-191,22.84-170.59,18.11,26.53-6.15,164.74-18.77,262.5-56.73a284.6,284.6,0,0,0,42.64-20.44A1625.67,1625.67,0,0,1,520.7,450.71c25.13-11.66,47.07-24.22,62.11-39.19,50.44-50.25-64.49-96.23-158.54-51.75-91.85,43.49-226.78,138.77-404.17,137"/><path class="cls-1" d="M30.91,645.91c34.17-19.86,289.62-14.78,521.78.64,225.71,15,398.67-34.15,351.41-103.47-28.78-42.2-25.35,12.75-86,43.49-2.93,1.49-16.68-2-48.2,7.87-87.57,27.3-254.92,28.69-292.14,16-38-13-72.65-8.21-49.84-29.93,39.16-37.29,143-22.85,220.37-16.57,17.64,1.43,34.3,3.31,49.42,3.56,95.72,1.56,205.78-72.39,101.87-143-83.12-56.51-171.73-26.76-317,61.07-13.42,8.11-27,16.81-41.28,25.28C360,559.1,296.59,573.63,238.67,586.69,135.36,610,53.1,608.43,74.18,603.37c27.18-6.53,163.87-19.37,260.28-57.15a276.86,276.86,0,0,0,42.18-20.48c53.57-32.41,103-58.35,143-76.74,24.37-11.19,45.61-23.21,60-37.53,48.94-48.6-64.32-92.92-157.58-48.6C331,406.21,197.19,500.27,21,499.05"/><path class="cls-1" d="M31.22,645.81c33.45-19.45,285.34-15.06,514.5-.09,222.07,14.49,391.61-33,347-101.22-26.49-40.5-16.18,9.15-72.64,42.43-1.94,1.14-15.26-3.16-47.89,7.23-89.33,28.44-263,28.94-295.68,14.84-33.42-14.4-65.44-8.33-42.18-29.85,39.53-36.57,141.8-24.21,215.78-18.53,17.06,1.31,33.08,3.22,47.55,3.53,92.8,1.94,199.26-70,96-138.34C710.93,371.1,622.71,401.11,479,487.45c-13.36,8-26.86,16.63-41.05,24.95-82.41,48.34-143.41,61.31-199.21,73.75C138.14,608.59,58.65,606.8,80.36,601.41c27.84-6.91,163-20,258.05-57.57a269,269,0,0,0,41.73-20.52c52.95-32.54,100.21-58.67,138.47-76,23.6-10.71,44.13-22.21,57.93-35.87,47.44-47-64.14-89.61-156.61-45.46-90.37,43.2-223,136-398.13,135.4"/><path class="cls-1" d="M31.52,645.71c32.74-19,281.07-15.33,507.24-.83,218.42,14,384.47-31.91,342.63-99-24.22-38.82-.61,18.19-59.25,41.38-.69,1.11-13.85-4.36-47.57,6.59-91.11,29.57-271,29.19-299.23,13.7-28.83-15.85-58.23-8.46-34.52-29.77,39.89-35.87,140.58-25.57,211.19-20.5,16.48,1.18,31.87,3.13,45.68,3.49,89.88,2.35,192.74-67.62,90-133.64-82.3-52.91-170.13-22.64-312.3,62.22-13.3,7.94-26.72,16.44-40.81,24.61-83.49,48.38-142.12,59.79-195.79,71.62-97.9,21.6-174.63,19.56-152.3,13.84,28.51-7.29,162.14-20.57,255.84-58a260.65,260.65,0,0,0,41.27-20.56c52.32-32.66,97.46-59,133.93-75.32,22.83-10.23,42.66-21.2,55.84-34.21,45.94-45.31-64-86.3-155.65-42.32-89.64,43.06-221.18,134.69-395.1,134.62"/><path class="cls-1" d="M31.82,645.6c32-18.62,276.8-15.6,500-1.56C746.57,657.55,909,613.27,870,547.33c-22-37.18,10.44,17.95-45.87,40.32.36.78-12.44-5.56-47.26,6C684,624.3,497.83,623.05,474.13,606.15c-24.23-17.28-51-8.58-26.86-29.69C487.53,541.3,586.64,549.53,653.88,554c15.91,1.06,30.66,3,43.81,3.46,86.95,2.76,186.21-65.22,84.13-128.93-81.9-51.12-169.34-20.6-310,62.78-13.25,7.86-26.57,16.25-40.58,24.27C346.71,564,290.46,573.85,238.91,585.08c-95.2,20.74-169.17,18.46-146.2,12.41,29.16-7.67,161.26-21.18,253.61-58.41a252.69,252.69,0,0,0,40.82-20.6c51.69-32.79,94.72-59.3,129.39-74.61,22.07-9.75,41.18-20.2,53.75-32.54,44.44-43.67-63.8-83-154.7-39.19C326.69,415.05,196.27,505.47,23.51,506"/><path class="cls-1" d="M32.12,645.5c31.32-18.21,272.53-15.88,492.71-2.3,211.13,13,369.93-29.62,333.86-94.46C838.9,513.16,880.17,566.46,826.2,588c1.4.44-11-6.78-46.94,5.3C684.6,625.14,492.15,623,472.93,604.72c-19.62-18.71-43.82-8.7-19.2-29.6,40.6-34.46,138.15-28.31,202-24.44,15.33.93,29.45,3,41.94,3.43,84,3.17,179.68-62.84,78.22-124.24-81.49-49.32-168.54-18.54-307.64,63.36-13.19,7.76-26.43,16.06-40.34,23.93C342.28,565.62,288.42,573.91,239,584.54c-92.5,19.89-163.7,17.37-140.1,11,29.82-8.06,160.39-21.8,251.39-58.84a245.61,245.61,0,0,0,40.36-20.64c51.07-32.92,92-59.62,124.84-73.9,21.31-9.26,39.72-19.19,51.67-30.88,43-42-63.63-79.69-153.74-36C325.26,418,196,507.2,24.37,508.29"/><path class="cls-1" d="M32.43,645.4c30.6-17.8,268.25-16.15,485.43-3,207.49,12.52,362.5-28.47,329.48-92.21-17.63-34,32.52,17.49-19.11,38.23,2.45.12-9.62-8-46.63,4.65-96.43,33-295.13,30-309.87,10.27-15-20.12-36.62-8.83-11.54-29.53,40.94-33.76,136.93-29.67,197.42-26.4,14.76.8,28.24,2.87,40.08,3.39,81.1,3.61,173.15-60.44,72.31-119.54-81.1-47.52-167.76-16.5-305.32,63.94-13.12,7.67-26.29,15.86-40.1,23.59C337.85,567.24,286.37,574,239.07,584c-89.79,19-158.23,16.28-134,9.58,30.48-8.43,159.51-22.41,249.16-59.26a238.39,238.39,0,0,0,39.91-20.68c50.44-33.05,89.24-59.93,120.3-73.19,20.54-8.77,38.24-18.19,49.57-29.22,41.46-40.36-63.45-76.38-152.77-32.91C323.83,421,195.66,508.93,25.22,510.6"/><path class="cls-1" d="M32.73,645.29c29.89-17.38,264-16.42,478.17-3.77,203.83,12,366.24-34.11,325.08-89.95-9.07-34.9,43.57,17.25-5.73,37.17,3.5-.21-8.21-9.2-46.31,4-98.21,34.06-303.15,30.33-313.41,9.12-10.4-21.5-29.43-9-3.88-29.44,41.27-33.08,135.7-31,192.83-28.37,14.18.66,27,2.78,38.21,3.36,78.16,4.06,166.62-58.06,66.39-114.85-80.69-45.72-167-14.45-303,64.51C448,504.67,435,512.75,421.23,520.33c-87.82,48.52-136.9,53.72-182.07,63.14-87.1,18.16-152.78,15.18-127.92,8.15,31.15-8.81,158.65-23,247-59.68a231.6,231.6,0,0,0,39.45-20.72C447.45,478,484.14,451,513.4,438.74c19.78-8.28,36.77-17.18,47.48-27.56,40-38.7-63.27-73.07-151.81-29.76-86.68,42.47-213.72,129.25-383,131.49"/><path class="cls-1" d="M33,645.19c29.18-17,259.71-16.69,470.9-4.51,200.19,11.55,360-33.45,320.7-87.7-6.35-33.33,54.61,17,7.65,36.12,4.55-.54-6.8-10.41-46,3.37-100,35.17-311.2,30.66-317,8-5.8-22.85-22.24-9.09,3.78-29.36,41.59-32.39,134.47-32.43,188.24-30.33,13.6.52,25.81,2.69,36.34,3.32,75.22,4.53,160.09-55.66,60.48-110.15C677.88,390,592,421.51,457.52,499c-13,7.49-26,15.47-39.63,22.91-88.92,48.54-135.6,52.19-178.65,61-84.4,17.29-147.31,14.09-121.82,6.73,31.81-9.18,157.77-23.64,244.72-60.1a224.48,224.48,0,0,0,39-20.76c49.18-33.32,83.74-60.54,111.21-71.77,19-7.78,35.3-16.18,45.39-25.89,38.48-37.05-63.1-69.77-150.85-26.63C321,426.84,195.05,512.4,26.93,515.22"/><path class="cls-1" d="M33.33,645.08c28.47-16.55,255.43-17,463.63-5.24C693.51,650.9,850.65,607,813.28,554.4c-3.63-31.76,65.65,16.78,21,35.06,5.59-.86-5.39-11.62-45.68,2.73-101.77,36.27-319.27,31-320.5,6.83s-15.06-9.23,11.44-29.28C521.48,538,613,532.88,663.22,537.43c13,1.18,24.59,2.61,34.47,3.3,72.28,5,153.55-53.27,54.57-105.46-79.9-42.12-165.39-10.37-298.32,65.66-12.95,7.41-25.88,15.28-39.4,22.58-90,48.55-134.29,50.67-175.22,58.89-81.7,16.4-141.84,13-115.72,5.31,32.46-9.57,156.9-24.27,242.5-60.53a219,219,0,0,0,38.55-20.8c48.55-33.45,81-60.83,106.66-71.06,18.26-7.27,33.83-15.17,43.31-24.23,37-35.38-62.93-66.46-149.89-23.49-85.2,42.19-210,126.53-377,129.93"/><path class="cls-1" d="M33.64,645c27.75-16.14,251.15-17.23,456.36-6,192.9,10.58,347.4-32.14,311.93-83.19-.91-30.19,76.69,16.55,34.41,34,6.64-1.2-4-12.85-45.36,2.08-103.56,37.37-327.37,31.34-324,5.68s-7.88-9.36,19.1-29.19c42.22-31,132.18-38.49,179.06-34.28,12.39,1.11,23.37,2.52,32.6,3.26,69.32,5.55,147-50.88,48.65-100.75-79.5-40.33-164.61-8.35-296,66.23-12.9,7.32-25.74,15.08-39.16,22.23-91.13,48.56-133,49.15-171.8,56.77-79,15.52-136.37,11.91-109.62,3.89,33.12-9.94,156-24.89,240.27-61A211.75,211.75,0,0,0,408.15,504c47.92-33.59,78.25-61.13,102.12-70.35,17.5-6.76,32.36-14.16,41.22-22.57,35.51-33.71-62.76-63.15-148.93-20.35-84.46,42-208.12,125.17-373.92,129.15"/><path class="cls-1" d="M33.94,644.88C61,629.15,280.82,627.38,483,638.16c189.26,10.09,341.13-31.49,307.54-80.94,1.82-28.62,87.74,16.32,47.8,33,7.69-1.52-2.58-14.06-45,1.44-105.34,38.46-335.48,31.66-327.6,4.53,7.83-26.93-.69-9.5,26.77-29.11C535,536.68,623.42,526.91,667,530.81c11.82,1.06,22.16,2.44,30.74,3.23,66.36,6.1,140.46-48.49,42.74-96.06-79.12-38.52-163.83-6.31-293.65,66.8-12.84,7.23-25.61,14.89-38.93,21.9-92.23,48.56-131.68,47.62-168.37,54.64-76.3,14.62-130.9,10.83-103.53,2.47C169.74,573.47,291.1,558.27,374,522.41a205.53,205.53,0,0,0,37.64-20.87c47.29-33.73,75.5-61.42,97.58-69.64,16.74-6.23,30.89-13.16,39.12-20.91,34-32-62.58-59.84-148-17.21-83.73,41.9-206.26,123.82-370.9,128.37"/><path class="cls-1" d="M34.24,644.77c26.34-15.31,242.61-17.76,441.83-7.45,185.6,9.61,334.85-30.83,303.15-78.68,4.54-27.06,98.79,16.08,61.18,31.91,8.73-1.85-1.18-15.28-44.73.8-107.14,39.55-343.61,32-331.15,3.39,12.35-28.33,6.49-9.65,34.43-29C541.77,536,628.62,523.9,668.82,527.5c11.24,1,20.94,2.35,28.87,3.19,63.39,6.69,133.91-46.08,36.83-91.36-78.73-36.72-163.06-4.29-291.33,67.38-12.78,7.14-25.47,14.68-38.69,21.56-93.34,48.55-130.37,46.09-164.94,52.52-73.61,13.69-125.43,9.73-97.43,1C176.58,571.14,296.4,555.68,378,520a198.67,198.67,0,0,0,37.19-20.91c46.67-33.87,72.75-61.7,93-68.93,16-5.69,29.41-12.15,37-19.24,32.58-30.36-62.41-56.54-147-14.07-83,41.75-204.39,122.45-367.88,127.58"/><path class="cls-1" d="M34.54,644.67c25.63-14.9,238.34-18,434.56-8.19,182,9.13,328.57-30.17,298.77-76.43,7.26-25.48,109.83,15.85,74.56,30.86,9.78-2.18.23-16.5-44.42.16-108.92,40.64-351.72,32.26-334.69,2.24,16.87-29.73,13.66-9.79,42.09-28.95,43.11-29.05,128.39-43.51,165.28-40.18,10.66,1,19.71,2.28,27,3.16,60.4,7.34,127.36-43.68,30.92-86.66-78.35-34.91-162.29-2.26-289,67.95-12.72,7-25.33,14.48-38.45,21.22-94.47,48.55-129.07,44.56-161.52,50.4-70.91,12.76-120,8.65-91.33-.38,35.11-11.06,153.39-26.78,233.61-62.22a193.62,193.62,0,0,0,36.73-20.95c46-34,70-62,88.49-68.22,15.24-5.14,28-11.14,35-17.58,31.12-28.66-62.24-53.23-146-10.93C313.8,441.57,193.52,521.06,31.2,526.77"/><path class="cls-1" d="M34.85,644.57c24.91-14.49,234.06-18.29,427.28-8.92,178.32,8.64,322.3-29.53,294.39-74.19,10-23.91,120.87,15.62,87.93,29.81,10.83-2.5,1.64-17.72-44.09-.48-110.72,41.73-359.84,32.54-338.24,1.09,21.39-31.14,20.83-9.94,49.75-28.86,43.4-28.41,127.09-45.25,160.69-42.15,10.08.93,18.49,2.2,25.13,3.13,57.38,8,120.8-41.29,25-82-78-33.11-161.51-.24-286.66,68.53-12.67,7-25.2,14.27-38.22,20.88-95.59,48.53-127.75,43-158.09,48.28-68.22,11.8-114.5,7.55-85.24-1.8,35.78-11.44,152.52-27.43,231.39-62.65a187.61,187.61,0,0,0,36.28-21c45.41-34.16,67.22-62.24,84-67.51,14.49-4.56,26.48-10.13,32.86-15.92,29.67-27-62.07-49.92-145.08-7.79-81.51,41.46-200.66,119.73-361.83,126"/><path class="cls-1" d="M35.15,644.46c24.2-14.06,229.78-18.55,420-9.65,174.67,8.16,316-28.87,290-71.93,12.71-22.35,131.92,15.38,101.32,28.76,11.88-2.84,3-19-43.78-1.14-112.5,42.82-367.94,32.82-341.78,0,25.92-32.57,28-10.1,57.41-28.79,43.69-27.76,125.76-47,156.1-44.11,9.5.91,17.25,2.12,23.26,3.09,54.33,8.84,114.25-38.88,19.09-77.27-77.58-31.3-160.74,1.77-284.33,69.1-12.61,6.87-25.07,14.07-38,20.55C297.74,581.53,268,574.52,239.8,579.18c-65.52,10.82-109,6.47-79.14-3.22,36.44-11.81,151.64-28.07,229.17-63.07a182.24,182.24,0,0,0,35.82-21c44.78-34.3,64.44-62.49,79.41-66.79,13.74-4,25-9.12,30.76-14.27,28.24-25.22-61.88-46.61-144.11-4.65-80.78,41.32-198.8,118.38-358.8,125.25"/><path class="cls-1" d="M35.45,644.36C58.94,630.71,261,625.55,448.2,634c171,7.69,309.74-28.22,285.61-69.68,15.43-20.77,143,15.14,114.7,27.71,12.92-3.17,4.45-20.18-43.46-1.78C690.75,634.13,429,623.31,459.72,589c30.45-34,35.15-10.25,65.07-28.7,44-27.13,124.39-48.83,151.5-46.08,8.92.9,16,2,21.4,3.06,51.24,9.72,107.68-36.48,13.18-72.58-77.21-29.49-160,3.79-282,69.68-12.56,6.78-24.94,13.86-37.75,20.2-97.86,48.47-125.13,40-151.24,44-62.83,9.81-103.56,5.38-73-4.64,37.1-12.19,150.75-28.71,226.94-63.49a177,177,0,0,0,35.37-21.07C473.3,455,490.79,426.71,504,423.36c13-3.3,23.54-8.11,28.68-12.61,26.83-23.46-61.71-43.3-143.15-1.51-80,41.18-196.93,117-355.78,124.47"/><path class="cls-1" d="M35.75,644.26C58.53,631,257,625.18,441.24,633.13c167.37,7.22,303.46-27.56,281.22-67.42,18.15-19.21,154,14.9,128.08,26.65,14-3.49,5.85-21.4-43.15-2.42-116.09,45-384.15,33.36-348.87-2.34,35-35.4,42.31-10.41,72.72-28.62,44.25-26.49,123-45.2,146.92-48,8.33-1,14.77,2,19.53,3,48.08,10.75,101.12-34.06,7.26-67.87-76.83-27.68-159.21,5.79-279.66,70.24C412.78,523,400.47,530,387.78,536.2,288.78,584.62,264,574.61,240,578.11c-60.15,8.75-98.1,4.29-66.95-6.07,37.76-12.56,149.87-29.36,224.72-63.91A172.29,172.29,0,0,0,432.65,487c43.52-34.6,58.81-62.95,70.32-65.37,12.25-2.58,22.07-7.09,26.59-10.94,25.44-21.67-61.54-40-142.2,1.62C308.07,453.36,192.3,528,34.62,536"/><path class="cls-1" d="M36.06,644.15c22.06-12.82,217-19.33,398.21-11.86C598,639,731.45,605.38,711.11,567.12c20.87-17.64,165,14.67,141.46,25.6,15-3.82,7.25-22.63-42.83-3.06-117.89,46.07-392.26,33.63-352.43-3.48,39.53-36.84,49.48-10.58,80.39-28.54,44.52-25.87,121.58-46.67,142.33-50,7.71-1.24,13.51,1.89,17.66,3,44.82,12,94.55-31.66,1.35-63.18-76.46-25.87-158.45,7.79-277.34,70.82-12.44,6.6-24.68,13.44-37.27,19.53C284.29,586.15,262,574.65,240.05,577.57c-57.46,7.65-92.63,3.21-60.86-7.49,38.43-12.93,149-30,222.5-64.33a166.79,166.79,0,0,0,34.46-21.15c42.88-34.75,55.82-65,65.78-64.66,11-3.89,20.6-6.07,24.5-9.28,24.1-19.82-61.37-36.69-141.24,4.77C306.64,456.31,192,529.72,35.47,538.33"/><path class="cls-1" d="M36.36,644.05C57.71,631.64,249,624.46,427.3,631.45c160.08,6.28,290.91-26.25,272.45-62.92,23.6-16.07,176.09,14.44,154.85,24.55,16.06-4.14,8.65-23.86-42.52-3.7-119.68,47.14-400.35,33.9-356-4.63,44.07-38.26,56.64-10.75,88-28.46,44.79-25.24,121-45,137.74-52,7.23-.24,12.54,1.09,15.79,3,43.28,4.45,88-29.24-4.56-58.48-76.1-24.05-157.7,9.79-275,71.4-12.39,6.5-24.55,13.23-37,19.18C279.79,587.68,259.93,574.69,240.13,577c-54.77,6.49-87.16,2.12-54.76-8.9,39.09-13.31,148.1-30.67,220.28-64.76a161.62,161.62,0,0,0,34-21.2c42.25-34.89,53.06-65.37,61.24-63.94,10.18-3.44,19.12-5.05,22.41-7.62,22.82-17.86-61.2-33.38-140.28,7.91-77.81,40.74-191.33,112.93-346.7,122.12"/><path class="cls-1" d="M36.66,644c20.64-12,208.4-19.85,383.68-13.34C576.77,636.42,705,605,688.4,570c26.32-14.5,187.14,14.2,168.22,23.5,17.12-4.48,10.06-25.09-42.19-4.35C693,637.32,406,623.27,454.91,583.32c48.61-39.68,63.79-10.92,95.71-28.37,45.06-24.63,119.82-46.31,133.15-54,6.65-.34,11.33,1,13.92,2.93,40.36,4.67,81.41-26.82-10.47-53.79-75.73-22.23-157,11.78-272.68,72-12.33,6.42-24.42,13-36.8,18.85C275.3,589.19,257.93,574.72,240.21,576.5c-52.07,5.22-81.69,1-48.66-10.33C231.3,552.49,338.77,534.84,409.6,501a157.3,157.3,0,0,0,33.55-21.24c41.62-35,50.3-65.73,56.69-63.23,9.41-3,17.65-4,20.32-6,21.66-15.72-61-30.07-139.31,11.05C303.77,462.2,191.38,533.19,37.18,543"/><path class="cls-1" d="M37,643.84c19.93-11.58,204.13-20.1,376.41-14.07,152.78,5.35,278.35-24.94,263.68-58.41,29-12.93,198.18,14,181.6,22.45,18.16-4.81,11.46-26.32-41.88-5-123.27,49.29-416.54,34.43-363.06-6.92,53.16-41.11,70.94-11.11,103.37-28.3,45.32-24,118.6-47.58,128.55-55.91,6.09-.45,10.13.86,12.06,2.89,37.45,4.91,74.83-24.39-16.39-49.09C605.94,431.09,525.11,465.27,411,524c-12.28,6.32-24.3,12.8-36.57,18.51C270.79,590.7,255.94,574.74,240.29,576c-49.37,3.84-76.22-.05-42.57-11.75,40.42-14.05,146.34-32,215.84-65.6a153.05,153.05,0,0,0,33.1-21.28c41-35.2,47.53-66.1,52.14-62.52,8.62-2.55,16.16-3,18.23-4.29,20.69-13.22-60.85-26.77-138.35,14.18C302.34,465.15,191.08,534.92,38,545.26"/><path class="cls-1" d="M37.27,643.74c19.21-11.17,199.84-20.35,369.14-14.81,149.13,4.88,272.07-24.28,259.29-56.16,31.76-11.36,209.22,13.74,195,21.4,19.21-5.13,12.86-27.55-41.56-5.63-125.07,50.36-424.72,34.59-366.61-8.07,57.62-42.65,78.09-11.29,111-28.21,45.58-23.42,117.39-48.86,124-57.89,5.51-.54,8.92.75,10.19,2.86,34.53,5.14,68.25-22-22.3-44.39-75-18.57-155.44,15.76-268,73.12-12.23,6.23-24.17,12.6-36.33,18.17C266.28,592.2,254,574.76,240.37,575.43c-46.65,2.28-70.75-1.14-36.47-13.18,41.08-14.42,145.44-32.65,213.62-66a148.56,148.56,0,0,0,32.64-21.32c40.33-35.36,44.77-66.47,47.6-61.81a103.17,103.17,0,0,1,16.14-2.63c16.75-14.77-60.68-23.46-137.39,17.32C300.91,468.1,190.77,536.65,38.89,547.57"/><path class="cls-1" d="M37.57,643.64c18.5-10.76,195.57-20.6,361.87-15.55,145.48,4.42,265.79-23.63,254.9-53.9,34.49-9.79,220.27,13.5,208.37,20.34,20.25-5.46,14.26-28.78-41.25-6.27-126.87,51.43-432.8,34.86-370.15-9.22C513.48,535,536.55,567.57,570,550.91c45.84-22.82,116.17-50.13,119.37-59.85,4.93-.65,7.71.64,8.32,2.83,31.62,5.36,61.67-19.53-28.21-39.7-74.65-16.74-154.7,17.74-265.69,73.7-12.17,6.13-24,12.37-36.09,17.83-105.93,48-115.65,29-127.25,29.17-43.89.46-65.28-2.23-30.37-14.6C251.82,545.5,354.63,527,421.47,493.85a144.24,144.24,0,0,0,32.19-21.36c39.69-35.52,42-66.84,43.06-61.1,7.06-1.67,13-1.33,14-1,15.22-13.15-60.5-20.15-136.43,20.47-74.86,40.15-183.87,107.49-334.6,119"/><path class="cls-1" d="M37.87,643.53c17.8-10.34,191.29-20.84,354.61-16.28,141.83,4,259.51-23,250.51-51.65,37.21-8.22,231.31,13.27,221.75,19.3,21.3-5.8,15.66-30-40.93-6.93-128.67,52.51-440.89,35.14-373.7-10.35,66.72-45.5,92.38-11.67,126.35-28,46.1-22.23,114.95-51.41,114.78-61.82,4.35-.75,6.5.52,6.45,2.79,28.71,5.6,55.08-17.09-34.13-35-74.28-14.91-153.95,19.71-263.35,74.26-12.11,6-23.91,12.16-35.86,17.5-107.1,47.84-114.47,29.46-123.82,27-40.5,6.84-59.81-3.31-24.27-16,42.4-15.16,143.66-34,209.17-66.87a140.16,140.16,0,0,0,31.73-21.4c39-35.68,39.25-67.2,38.51-60.39,6.28-1.22,11.54-.33,12,.69,13.71-11.52-60.32-16.84-135.46,23.61C298,474,190.16,540.12,40.59,552.19"/><path class="cls-1" d="M38.17,643.43c17.09-9.93,187-21.09,347.34-17,138.18,3.51,253.23-22.32,246.13-49.39,39.93-6.66,242.35,13,235.13,18.24,22.34-6.12,17.06-31.25-40.62-7.57-130.47,53.58-449,35.42-377.25-11.5,71.29-46.91,99.54-11.87,134-28,46.35-21.64,113.73-52.67,110.19-63.78,3.77-.86,5.29.41,4.58,2.76,25.79,5.82,48.49-14.65-40-30.3-73.93-13.07-153.21,21.68-261,74.84-12.06,6-23.79,11.94-35.62,17.15-108.28,47.72-113.17,28-120.4,24.93-37.78,6.09-54.34-4.4-18.18-17.44,43.07-15.53,142.77-34.68,207-67.3a136,136,0,0,0,31.28-21.43c38.41-35.84,36.49-67.57,34-59.68,5.5-.78,10.06.67,9.87,2.36,12.18-9.91-60.15-13.54-134.5,26.74C296.61,476.94,189.86,541.85,41.45,554.5"/><path class="cls-1" d="M38.48,643.33c16.37-9.52,182.73-21.33,340.06-17.75,134.53,3,247-21.67,241.75-47.15,42.65-5.09,253.39,12.8,248.51,17.19,23.39-6.45,18.46-32.48-40.3-8.21-132.27,54.65-457.06,35.69-380.8-12.65,75.84-48.33,106.68-12.06,141.68-27.88C636,525.81,701.89,492.93,695,481.13c3.2-1,4.09.3,2.72,2.72,22.88,6.06,41.91-12.19-46-25.6C578.16,447,499.26,481.9,393.05,533.66c-12,5.86-23.67,11.73-35.39,16.82-109.46,47.58-111.86,26.53-117,22.8-35.06,5.34-48.87-5.48-12.08-18.86,43.73-15.9,141.87-35.36,204.73-67.72a132.09,132.09,0,0,0,30.82-21.47c37.77-36,33.73-67.94,29.43-59,4.71-.33,8.58,1.66,7.78,4,10.65-8.29-60-10.23-133.54,29.88C295.18,479.89,189.55,543.58,42.3,556.81"/><path class="cls-1" d="M38.78,643.22c15.66-9.1,178.45-21.56,332.8-18.48,130.88,2.61,240.67-21,237.35-44.9,45.38-3.51,264.44,12.57,261.89,16.14,24.44-6.77,19.86-33.72-40-8.85-134.07,55.71-465.13,36-384.34-13.8,80.4-49.75,113.82-12.27,149.34-27.8,46.86-20.49,111.29-55.22,101-67.72,2.62-1.05,2.88.19.85,2.7,20,6.28,35.32-9.74-51.87-20.91-73.22-9.38-151.74,25.61-256.35,76-12,5.76-23.54,11.5-35.15,16.48-110.65,47.43-110.55,25-113.55,20.67-32.33,4.6-43.4-6.56-6-20.28,44.39-16.27,141-36.05,202.5-68.14a128.21,128.21,0,0,0,30.37-21.51c37.13-36.18,31-68.3,24.89-58.26,3.93.11,7.1,2.66,5.69,5.68,9.13-6.67-59.81-6.92-132.58,33-71.91,39.58-176.41,102.06-322.5,115.87"/><path class="cls-1" d="M39.08,643.12c15-8.69,174.18-21.8,325.53-19.22,127.23,2.16,234.4-20.36,233-42.64,48.1-2,275.49,12.33,275.27,15.08,25.49-7.1,21.26-35-39.66-9.49C697.31,643.63,360,623.09,445.3,571.91c84.95-51.17,121-12.49,157-27.72,47.11-19.92,110.07-56.5,96.41-69.69,2-1.16,1.67.08-1,2.66,17,6.52,28.73-7.28-57.78-16.21-72.87-7.52-151,27.56-254,76.56C374,543.18,362.47,548.79,351,553.65c-111.84,47.27-109.24,23.59-110.11,18.56-29.62,3.84-37.94-7.65.1-21.7C286,533.86,381,513.76,441.25,481.94a124.93,124.93,0,0,0,29.91-21.55c36.48-36.35,28.21-68.67,20.34-57.55,3.16.56,5.62,3.66,3.61,7.34,7.6-5-59.64-3.61-131.62,36.16C292.31,485.78,188.94,547.05,44,561.43"/><path class="cls-1" d="M39.38,643c14.24-8.28,169.9-22,318.27-20,123.57,1.73,228.12-19.7,228.58-40.39,50.82-.38,286.53,12.1,288.65,14,26.54-7.44,22.66-36.19-39.35-10.14-137.68,57.84-481.3,36.51-391.43-16.09,89.5-52.59,128.1-12.7,164.65-27.64,47.37-19.36,108.86-57.77,91.83-71.65,1.46-1.26.46,0-2.89,2.63,14.13,6.74,22.13-4.81-63.69-11.52-72.52-5.66-150.28,29.51-251.7,77.14C370.45,545,359,550.5,347.63,555.24c-113,47.09-107.93,22.12-106.69,16.43-26.89,3.1-32.47-8.73,6.2-23.12,45.73-17,139.18-37.44,198.06-69A121.12,121.12,0,0,0,474.66,458c35.83-36.52,25.45-69,15.8-56.84,2.37,1,4.14,4.66,1.51,9,6.09-3.42-59.46-.3-130.66,39.31-70.43,39.29-172.67,99.34-316.45,114.3"/><path class="cls-1" d="M39.69,642.91c13.52-7.86,165.69-25.71,311-20.69,119.86,4.14,221.84-19.05,224.2-38.14,53.54,1.19,297.57,11.87,302,13,27.58-7.76,24.05-37.43-39-10.78-139.48,58.9-489.38,36.78-395-17.24C537,515,578.14,556.13,615.21,541.5c47.63-18.8,107.65-59.05,87.24-73.62.88-1.37-.75-.15-4.76,2.59,11.22,7,15.54-2.33-69.6-6.81-72.17-3.8-149.56,31.45-249.37,77.7-11.8,5.47-23.17,10.84-34.44,15.47C230,603.73,237.66,577.48,241,571.14c-24.17,2.34-27-9.82,12.3-24.55,46.39-17.38,138.27-38.14,195.84-69.41a118,118,0,0,0,29-21.63c35.18-36.7,22.69-69.41,11.26-56.13,1.59,1.45,2.66,5.66-.58,10.67,4.56-1.81-59.29,3-129.7,42.44-69.69,39.14-170.81,98-313.42,113.52"/><path class="cls-1" d="M40,642.81c12.81-7.45,161.4-25.94,303.72-21.43C459.93,625.06,559.28,603,563.52,585.5c56.27,2.76,309.25,14.8,315.42,11.93,27-12.55,25.45-38.66-38.72-11.42-141.28,60-497.47,37.06-398.53-18.38,98.62-55.44,142.39-13.15,180-27.48,47.88-18.24,106.43-60.31,82.64-75.58.32-1.47-1.95-.27-6.62,2.55,8.31,7.21,8.95.15-75.52-2.11-71.81-1.93-148.83,33.39-247,78.28-11.75,5.37-23.05,10.61-34.21,15.12-115.44,46.7-105.3,19.18-99.83,12.19-21.45,1.6-21.53-10.9,18.4-26,47.05-17.75,137.36-38.84,193.61-69.83a114.59,114.59,0,0,0,28.55-21.67c34.52-36.87,19.93-69.77,6.71-55.41.81,1.88,1.19,6.64-2.66,12.32,3-.18-59.11,6.31-128.74,45.58-69,39-169,96.62-310.4,112.74"/><path class="cls-1" d="M40.29,642.71c12.1-7,157.11-26.16,296.46-22.17C449.32,623.76,546,602.8,552.17,586.91c59,4.33,319.77,12.4,328.8,10.88,30.42-5.11,26.85-39.9-38.41-12.06-143.08,61-505.55,37.33-402.07-19.53C543.66,509.35,590,552.82,628.13,538.81c48.13-17.7,105.21-61.59,78-77.56-.26-1.57-3.16-.37-8.49,2.53,5.39,7.44,2.36,2.64-81.43,2.58-71.46-.05-148.11,35.32-244.7,78.86-11.7,5.27-22.93,10.38-34,14.78-116.66,46.48-104,17.71-96.41,10.06-18.72.85-16.06-12,24.49-27.39,47.72-18.12,136.46-39.55,191.4-70.25a111.54,111.54,0,0,0,28.09-21.71c33.87-37,17.17-70.14,2.17-54.7,0,2.33-.29,7.64-4.75,14,1.51,1.44-58.94,9.62-127.78,48.72-68.22,38.86-167.08,95.27-307.37,112"/><path class="cls-1" d="M40.59,642.6C52,636,193.41,616.25,329.78,619.7c108.94,2.76,203-17.08,211-31.37,61.71,5.89,330.85,12.08,342.18,9.82,31.32-6.23,28.24-41.13-38.09-12.71C700,647.54,331.28,623.05,439.29,564.77,547,506.5,596,551.16,634.59,537.46c48.38-17.15,104-62.86,73.46-79.52-.84-1.67-4.37-.49-10.36,2.49,2.48,7.67-4.22,5.14-87.34,7.28C539.24,469.54,463,505,368,547.14c-11.65,5.17-22.8,10.16-33.74,14.45-117.87,46.24-102.68,16.24-93,7.94-16,.1-10.59-13.08,30.59-28.81C320.23,522.22,407.4,500.45,461,470a108.42,108.42,0,0,0,27.64-21.75c33.21-37.23,14.41-70.51-2.37-54a40.79,40.79,0,0,1-6.84,15.64c0,3.06-58.77,12.93-126.82,51.86C285.15,500.51,187.41,555.71,48.28,573"/><path class="cls-1" d="M40.9,642.5c10.67-6.21,148.52-26.54,281.92-23.64,105.29,2.29,196.73-16.43,206.64-29.12,64.44,7.47,341.91,11.78,355.56,8.78,32.27-7.1,29.65-42.38-37.77-13.36-146.69,63.16-521.71,37.89-409.16-21.81,112.28-59.7,163.81-13.85,203-27.23,48.64-16.62,102.77-64.14,68.87-81.49-1.42-1.78-5.59-.6-12.23,2.46-.44,7.9-10.81,7.63-93.26,12-70.74,3.72-146.67,39.16-240,80-11.6,5.07-22.68,9.93-33.5,14.1-119.1,46-101.38,14.78-89.56,5.82-13.28-.65-5.11-14.16,36.69-30.23,49-18.86,134.63-41,187-71.1a105.75,105.75,0,0,0,27.19-21.79c32.54-37.41,11.64-70.87-6.92-53.28-1.54,3.22-4.55,8.83-8.94,17.31-2.26,4.37-58.59,16.23-125.85,55-66.74,38.56-163.35,92.54-301.33,110.39"/><path class="cls-1" d="M41.2,642.4c10-5.8,144.22-26.71,274.65-24.38,101.65,1.82,190.45-15.77,202.26-26.87,67.16,9,353,11.48,368.94,7.73,33.24-7.8,31-43.62-37.45-14-148.51,64.22-529.8,38.16-412.71-23,116.84-61.11,171-14.1,210.62-27.15,48.89-16.08,98.4-60,64.28-83.45-2.26-1.56-6.8-.72-14.1,2.42-3.35,8.13-17.39,10.15-99.17,16.67-70.39,5.62-146,41.08-237.71,80.58-11.54,5-22.55,9.7-33.26,13.77-120.32,45.72-100.06,13.3-86.13,3.69-10.55-1.39.39-15.15,42.79-31.65,49.74-19.13,133.71-41.7,184.72-71.52a102.94,102.94,0,0,0,26.74-21.83c31.87-37.6,6.24-73.76-11.47-52.57-2.78,3.32-5.56,10.06-11,19-3.66,6-58.42,19.54-124.89,58.14C282.29,506.41,186.8,559.17,50,577.6"/><path class="cls-1" d="M41.5,642.29c9.25-5.38,139.93-26.84,267.38-25.11,98,1.34,184.18-15.11,197.88-24.61,69.88,10.6,364,11.17,382.32,6.67,34.22-8.41,32.44-44.85-37.14-14.64C701.63,649.88,314.06,623,435.69,560.49,557.08,498,613.77,546.15,654,533.43c49.15-15.55,98-62.27,59.68-85.43-2.77-1.67-8-.82-16,2.4-6.27,8.35-24,12.66-105.08,21.36-70,7.52-145.25,43-235.38,81.16-11.49,4.86-22.43,9.47-33,13.43-121.56,45.42-98.76,11.83-82.71,1.57-7.83-2.14,5.86-16.25,48.88-33.08,50.41-19.51,132.8-42.43,182.51-71.94A100.29,100.29,0,0,0,499.17,441c31.2-37.78,4.08-73.68-16-51.86-3.48,3.78-6.8,11.2-13.11,20.63-5.09,7.6-58.25,22.85-123.93,61.28C280.85,509.35,186.5,560.91,50.84,579.91"/><path class="cls-1" d="M41.8,642.19c8.54-5,135.65-23.7,260.12-25.85,94.36-1.62,177.89-14.46,193.49-22.36,72.6,12.17,375,10.88,395.7,5.62,35.21-9,33.83-46.09-36.82-15.28-152.12,66.34-546,38.71-419.8-25.25,125.94-64,185.22-14.6,225.94-27,49.4-15,97.33-64.33,55.09-87.39-3.31-1.81-9.21-.94-17.83,2.36-9.18,8.59-30.55,15.18-111,26.07C517,482.54,442.15,518,353.65,554.84c-11.44,4.77-22.31,9.24-32.79,13.09-122.79,45.12-97.44,10.37-79.28-.55-5.1-2.89,11.33-17.33,55-34.5,51.07-19.88,131.87-43.15,180.28-72.36,11.29-6.81,19.76-14.37,25.83-21.91,30.53-38,1.75-73.69-20.55-51.15-4.21,4.25-8.14,12.3-15.2,22.29-6.54,9.25-58.08,26.16-123,64.42C279.42,512.3,186.19,562.64,51.7,582.22"/><path class="cls-1" d="M42.11,642.08c7.83-4.55,131.36-23.87,252.84-26.58,90.71-2,171.62-13.8,189.1-20.1C559.38,609.14,870.12,606,893.14,600c36.21-9.46,35.23-47.33-36.51-15.92-153.92,67.4-554,39-423.35-26.4,130.51-65.38,192.37-14.86,233.61-26.9,49.66-14.5,96.51-66.24,50.5-89.36-3.86-1.94-11-2.32-19.7,2.33-13.21,7-37.12,17.7-116.91,30.76C511.49,485.8,437,521.23,350.07,556.77c-11.39,4.66-22.19,9-32.56,12.75-124,44.79-96.13,8.9-75.85-2.67-2.38-3.64,16.8-18.43,61.08-35.92,51.73-20.26,130.94-43.9,178.06-72.8,11.15-6.84,19.47-14.41,25.37-21.94,29.86-38.16-.7-73.77-25.09-50.44-4.94,4.72-9.52,13.36-17.3,24-8,10.89-57.9,29.46-122,67.55-63.79,38-155.89,87.11-289.23,107.27"/><path class="cls-1" d="M42.41,642c7.12-4.14,127.08-24,245.58-27.31,87.05-2.41,165.33-13.16,184.71-17.86,78.05,15.31,397.11,10.29,422.47,3.52,37.22-9.94,36.62-48.58-36.19-16.57C703.24,652.21,296.84,623,432.08,556.21c135.06-66.79,199.51-15.12,241.27-26.81,49.92-14,95.58-68,45.91-91.33-4.41-2.07-12-2.18-21.57,2.29C681.82,447.8,654,460.6,574.87,475.82,506,489.07,431.74,524.47,346.49,558.69c-11.35,4.56-22.07,8.78-32.32,12.42-125.28,44.44-94.82,7.42-72.42-4.8.33-4.39,22.26-19.51,67.16-37.34,52.4-20.64,130-44.64,175.84-73.22,11-6.87,19.19-14.46,24.92-22,29.18-38.35-3.21-73.9-29.64-49.73-5.67,5.19-10.92,14.41-19.38,25.62-9.47,12.54-57.72,32.77-121,70.69-63.05,37.85-154,85.75-286.2,106.49"/><path class="cls-1" d="M42.71,641.88c6.41-3.73,122.8-24.2,238.31-28a1798.5,1798.5,0,0,0,180.33-15.61c80.77,16.88,408.13,10,435.84,2.47,38.24-10.39,38-49.82-35.87-17.21C703.78,653,291.11,623,430.88,554.79c139.61-68.22,206.65-15.39,248.93-26.74,50.18-13.47,94.59-69.72,41.32-93.29-5-2.2-13.15-2.1-23.44,2.25-18.59,7.86-50.24,22.78-128.73,40.16-68.54,15.17-142.43,50.52-226,83.45-11.3,4.45-22,8.54-32.09,12.07-126.53,44.08-93.51,6-69-6.92,3.06-5.13,27.73-20.6,73.26-38.76,53.06-21,129.08-45.38,173.62-73.64,10.9-6.91,18.9-14.5,24.46-22,28.5-38.55-5.77-74.07-34.18-49-6.42,5.67-12.34,15.45-21.47,27.28-10.95,14.2-57.55,36.08-120.08,73.84-62.32,37.69-152.16,84.39-283.18,105.7"/><path class="cls-1" d="M43,641.77c5.7-3.31,118.53-24.34,231.05-28.78,79.74-3.15,154.2-21.5,175.94-13.35,80.06,30,419.16,9.7,449.22,1.41,39.26-10.83,39.42-51.06-35.55-17.85-159.35,70.57-578.3,39.8-434-29.84s213.79-15.66,256.59-26.65c50.45-13,93.55-71.36,36.72-95.27-5.53-2.32-14.27-2-25.3,2.23C676.33,441.94,640.89,459,563,478.52c-68.15,17.1-141.73,52.39-223.72,84-11.24,4.34-21.82,8.31-31.84,11.74-127.79,43.68-89.67,8.61-65.57-9,6.65-4.88,33.2-21.69,79.36-40.19C375,503.67,449.41,478.93,492.66,451c10.77-6.95,18.62-14.55,24-22.06,27.81-38.74-8.37-74.27-38.72-48.31-7.17,6.14-13.78,16.48-23.56,28.94C442,425.4,397,449,335.27,486.54c-61.58,37.55-150.3,83-280.16,104.92"/><path class="cls-1" d="M43.32,641.67c5-2.9,114.24-24.47,223.77-29.52,76.1-3.51,146.67-14,171.55-11.1,87.92,10.23,430.2,9.42,462.61.36C941.53,590.16,942,549,866,582.91c-161.3,71.32-586.38,40.08-437.53-31S649.42,536,692.72,525.36c50.72-12.45,92.49-72.93,32.14-97.23-6.09-2.45-15.42-2-27.17,2.19-24.16,8.68-63.35,27.87-140.56,49.55-67.76,19-141,54.25-221.39,84.6-11.2,4.23-21.7,8.07-31.61,11.4-129,43.27-89.3,5.87-62.14-11.17,9.14-5.73,38.66-22.78,85.46-41.6,54.38-21.77,127.2-46.89,169.17-74.49,10.63-7,18.32-14.6,23.55-22.11,27.12-38.93-11-74.48-43.27-47.59-7.92,6.61-15.22,17.5-25.64,30.61-13.92,17.48-57.21,42.69-118.17,80.11S184.67,571.3,56,593.77"/><path class="cls-1" d="M43.62,641.57c4.27-2.49,110-24.58,216.5-30.26,72.45-3.86,140.48-12.89,167.17-8.85,90.49,13.71,441.23,9.13,476-.69,41.3-11.66,42.15-53.67-34.92-19.14C705.27,655.05,273.89,623,427.28,550.51S655.36,534.29,699.18,524c51-12,91.39-74.48,27.55-99.2-6.66-2.58-16.59-2-29,2.16-27,9.08-69.89,30.41-146.47,54.25-67.37,21-140.34,56.09-219.06,85.16-11.15,4.12-21.58,7.84-31.38,11.06-130.31,42.84-88.52,3.58-58.71-13.29,11.7-6.61,44.13-23.86,91.55-43,55.05-22.14,126.26-47.64,167-74.91,10.51-7,18-14.65,23.1-22.15C550.09,385,510,349.36,475.86,377.2c-8.68,7.08-16.67,18.53-27.74,32.27-15.41,19.13-57,46-117.2,83.25S184.36,573,56.82,596.08"/><path class="cls-1" d="M43.92,641.46c3.56-2.06,105.69-24.67,209.24-31,68.8-4.2,134.23-11.8,162.78-6.59,93,17,452.26,8.84,489.37-1.74,42.32-12.07,43.55-54.9-34.61-19.79C705.82,655.87,268.15,623,426.08,549.08s235.22-16.5,279.56-26.41c51.26-11.45,90.27-76,23-101.16-7.23-2.71-17.77-2.05-30.91,2.12-29.82,9.48-76.42,33-152.38,58.95-67,22.9-139.64,57.94-216.73,85.74-11.11,4-21.46,7.6-31.14,10.72-131.58,42.37-87.55,1.52-55.29-15.41,14.3-7.51,49.6-25,97.65-44.45,55.71-22.52,125.3-48.4,164.73-75.33,10.37-7.08,17.74-14.7,22.64-22.19,25.72-39.32-16.31-75-52.35-46.17C465.38,383,456.69,395,445,409.42c-16.9,20.78-56.86,49.31-116.24,86.39s-144.7,79-271.07,102.59"/><path class="cls-1" d="M44.22,641.36c2.85-1.65,101.42-24.74,202-31.73,65.16-4.53,128-10.73,158.4-4.34,95.48,20.05,463.28,8.55,502.75-2.79,43.35-12.46,44.95-56.11-34.29-20.43C706.38,656.69,262.41,623,424.87,547.65s242.38-16.79,287.23-26.32c51.53-11,89.13-77.48,18.37-103.13-7.8-2.83-19-2.09-32.78,2.09-32.67,9.86-83,35.52-158.3,63.64C472.83,508.77,400.45,543.7,325,570.25c-11.06,3.89-21.34,7.36-30.91,10.38-132.85,41.88-86.47-.38-51.86-17.54C259.16,554.7,297.3,537,346,517.22c56.37-22.89,124.34-49.17,162.5-75.75,10.23-7.13,17.46-14.74,22.19-22.23,25-39.52-19-75.24-56.89-45.46-10.2,8-19.59,20.56-31.92,35.59-18.4,22.42-56.69,52.62-115.28,89.54s-142.83,77.59-268,101.8"/><path class="cls-1" d="M44.53,641.26c2.13-1.24,97.15-24.78,194.7-32.47,61.51-4.84,121.63-9.68,154-2.08,97.95,23,474.32,8.26,516.14-3.85,44.38-12.85,46.36-57.33-34-21.07C706.93,657.5,256.67,623,423.67,546.23S673.2,529.14,718.56,520c51.8-10.46,88-78.94,13.77-105.1-8.36-2.94-20.13-2.12-34.64,2.06-35.53,10.24-89.47,38.08-164.21,68.34-66.15,26.78-138.25,61.6-212.06,86.89-11,3.77-21.22,7.13-30.67,10-134.14,41.37-85.34-2.18-48.44-19.65,19.57-9.27,60.54-27.14,109.84-47.3,57-23.26,123.38-49.93,160.29-76.17,10.09-7.18,17.16-14.79,21.73-22.27,24.31-39.72-21.67-75.51-61.44-44.75-11,8.49-21,21.57-34,37.25-19.9,24.07-56.52,55.93-114.32,92.68s-141,76.23-265,101"/><path class="cls-1" d="M44.83,641.15c1.42-.82,92.89-24.79,187.43-33.2,57.87-5.15,115.29-8.64,149.62.17,100.39,25.75,485.35,8,529.51-4.9,45.41-13.24,47.77-58.55-33.65-21.71C707.49,658.32,250.94,623,422.47,544.8S679.14,527.42,725,518.64c52.08-10,86.83-80.39,9.18-107.07-8.93-3.07-21.32-2.17-36.51,2-38.4,10.61-96,40.63-170.12,73C461.84,515.35,390,550,317.83,574.1c-11,3.65-21.08,6.88-30.43,9.7-135.41,40.82-84.15-3.92-45-21.78,22.23-10.14,66-28.23,115.94-48.71,57.7-23.65,122.41-50.72,158.06-76.6,10-7.23,16.87-14.84,21.29-22.31,23.58-39.92-24.38-75.79-66-44-11.72,8.94-22.47,22.6-36.1,38.91-21.34,25.74-56.33,59.23-113.35,95.81S183.14,580,60.24,605.33"/><path class="cls-1" d="M45.13,641.05c.71-.41,88.63-24.76,180.16-33.94,54.24-5.43,108.93-7.61,145.24,2.42,102.83,28.43,496.36,7.65,542.89-5.95s49.17-59.77-33.34-22.35C708,659.14,245.2,623,421.27,543.37s263.82-17.67,310.21-26.08c52.35-9.48,85.72-82,4.59-109-9.5-3.21-22.52-2.23-38.38,2-41.27,11-102.43,43.3-176,77.73-65.25,30.76-136.85,65.22-207.4,88-10.92,3.53-21,6.65-30.19,9.37-136.71,40.25-82.95-5.61-41.59-23.91,24.9-11,71.48-29.31,122-50.13,58.36-24,121.44-51.49,155.84-77,9.81-7.28,16.56-14.9,20.83-22.35,22.78-40.17-27-76-70.53-43.32-12.48,9.43-23.95,23.6-38.19,40.57-22.87,27.36-56.16,62.54-112.39,98.95-56.41,36.54-137.24,73.52-259,99.46"/><path class="cls-1" d="M45.43,641s208.48-61,313.75-30,507.4,7.41,556.27-7c47.48-14,50.57-61-33-23-173.83,79-643,42-462.36-39s271-18,317.87-26c52.63-9,84.5-83.25,0-111-60.89-20-251.82,118-427.27,173s-114.56,3-68.11-17c59.35-25.56,219.82-82,281.74-129s-1-105-54.69-65C412.7,409.36,375.69,541,62,610"/><rect class="cls-2" x="0.35" y="1.39" width="396.65" height="690.61"/></g></svg>