<svg width="174" height="32" viewBox="0 0 174 32" fill="none" xmlns="http://www.w3.org/2000/svg">
<g clip-path="url(#clip0)">
<path d="M80.2029 10.9315C80.2029 5.09233 76.3454 0.654297 68.3958 0.654297H52.4023V31.3455H59.9289V7.28731H68.4429C71.5948 7.28731 72.723 9.06304 72.723 11.1181C72.723 13.2204 71.5472 14.9489 68.3954 14.9489H61.1043L71.453 31.3455H80.0145C80.0145 31.3455 72.9581 20.3207 73.0056 20.3207C77.3808 19.2934 80.2029 16.2569 80.2029 10.9315Z" fill="#00205B"/>
<path d="M47.3215 0.654297H39.7949V31.3459H47.3215V0.654297Z" fill="#00205B"/>
<path d="M20.5562 19.7603H14.2224L18.9094 10.3242H19.004L29.5407 31.3455H38.196L22.4376 0.654297H15.7584L0 31.3455H8.46687L11.0195 26.2071H23.7076L20.5562 19.7603Z" fill="#00205B"/>
<path d="M107.674 15.4163C110.074 14.1078 111.344 12.006 111.344 8.92272C111.344 3.97102 107.628 0.654297 101.371 0.654297H83.7773V31.3455H102.077C108.474 31.3455 112.661 27.9352 112.661 22.75C112.66 19.1535 110.638 16.444 107.674 15.4163ZM91.3048 7.14742H101.371C102.877 7.14742 104.053 8.31506 104.053 9.85692C104.053 11.3988 102.877 12.5664 101.324 12.5664H91.3044V7.14742H91.3048ZM101.559 24.8987H91.3044V18.639H101.559C103.394 18.639 104.805 19.9474 104.805 21.7223C104.805 23.5439 103.394 24.8987 101.559 24.8987Z" fill="#00205B"/>
<path d="M136.417 17.7983C136.417 22.4568 134.253 25.039 129.973 25.039C125.739 25.039 123.575 22.4568 123.575 17.7983V0.654297H115.861V17.2379C115.861 26.7212 120.895 31.9999 129.973 31.9999C139.051 31.9999 144.132 26.7212 144.132 17.2379V0.654297H136.417V17.7983Z" fill="#00205B"/>
<path d="M164.216 12.8468C157.071 11.1191 155.514 10.9541 155.514 8.9224C155.514 7.35066 157.301 6.58666 160.312 6.58666C164.31 6.58666 168.568 7.58281 170.99 9.06273L173.389 2.80305C170.285 1.16808 165.721 0 160.406 0C152.456 0 147.987 3.92436 147.987 9.20262C147.987 14.8824 151.325 17.1899 158.994 18.8258C164.965 20.1329 166.238 20.9484 166.238 22.6094C166.238 24.4137 164.592 25.2258 161.346 25.2258C156.642 25.2258 152.385 24.091 148.975 22.2361L146.67 28.776C150.386 30.7379 155.937 31.9996 161.534 31.9996C169.343 31.9996 174 28.4022 174 22.3759C174 17.5412 170.851 14.4354 164.216 12.8468Z" fill="#00205B"/>
</g>
<defs>
<clipPath id="clip0">
<rect width="174" height="32" fill="white"/>
</clipPath>
</defs>
</svg>
