<svg width="114" height="68" viewBox="0 0 114 68" fill="none" xmlns="http://www.w3.org/2000/svg">
<path d="M32.8996 25.1449C32.8996 26.5273 33.0496 27.6482 33.3121 28.4701C33.6121 29.2921 33.9871 30.1888 34.5121 31.1603C34.6996 31.4592 34.7746 31.7581 34.7746 32.0196C34.7746 32.3932 34.5496 32.7668 34.0621 33.1405L31.6996 34.7097C31.3621 34.9339 31.0246 35.046 30.7246 35.046C30.3496 35.046 29.9746 34.8591 29.5996 34.5229C29.0746 33.9624 28.6246 33.3646 28.2496 32.7668C27.8746 32.1317 27.4996 31.4218 27.0871 30.5625C24.1621 33.9998 20.4871 35.7185 16.0621 35.7185C12.9121 35.7185 10.3996 34.8218 8.56211 33.0284C6.72461 31.235 5.78711 28.8438 5.78711 25.8548C5.78711 22.6789 6.91211 20.1009 9.19961 18.1581C11.4871 16.2152 14.5246 15.2438 18.3871 15.2438C19.6621 15.2438 20.9746 15.3559 22.3621 15.5427C23.7496 15.7295 25.1746 16.0284 26.6746 16.3647V13.6372C26.6746 10.7976 26.0746 8.8174 24.9121 7.65916C23.7121 6.50092 21.6871 5.94048 18.7996 5.94048C17.4871 5.94048 16.1371 6.08993 14.7496 6.42619C13.3621 6.76245 12.0121 7.17344 10.6996 7.69652C10.0996 7.95806 9.64961 8.10751 9.38711 8.18223C9.12461 8.25696 8.93711 8.29432 8.78711 8.29432C8.26211 8.29432 7.99961 7.9207 7.99961 7.13608V5.30531C7.99961 4.70751 8.07461 4.25916 8.26211 3.99762C8.44961 3.73608 8.78711 3.47454 9.31211 3.213C10.6246 2.54048 12.1996 1.98004 14.0371 1.53169C15.8746 1.04597 17.8246 0.821796 19.8871 0.821796C24.3496 0.821796 27.6121 1.83059 29.7121 3.84817C31.7746 5.86575 32.8246 8.92949 32.8246 13.0394V25.1449H32.8996ZM17.6746 30.824C18.9121 30.824 20.1871 30.5998 21.5371 30.1515C22.8871 29.7031 24.0871 28.8811 25.0996 27.7603C25.6996 27.0504 26.1496 26.2657 26.3746 25.369C26.5996 24.4723 26.7496 23.3888 26.7496 22.1185V20.5493C25.6621 20.2877 24.4996 20.0636 23.2996 19.9141C22.0996 19.7647 20.9371 19.6899 19.7746 19.6899C17.2621 19.6899 15.4246 20.1756 14.1871 21.1844C12.9496 22.1932 12.3496 23.613 12.3496 25.4811C12.3496 27.2372 12.7996 28.5449 13.7371 29.4416C14.6371 30.3756 15.9496 30.824 17.6746 30.824ZM47.7871 34.8592C47.1121 34.8592 46.6621 34.7471 46.3621 34.4855C46.0621 34.2613 45.7996 33.7383 45.5746 33.0284L36.7621 4.14707C36.5371 3.39982 36.4246 2.9141 36.4246 2.65256C36.4246 2.05476 36.7246 1.7185 37.3246 1.7185H40.9996C41.7121 1.7185 42.1996 1.83059 42.4621 2.09212C42.7621 2.3163 42.9871 2.83938 43.2121 3.54927L49.5121 28.2833L55.3621 3.54927C55.5496 2.80202 55.7746 2.3163 56.0746 2.09212C56.3746 1.86795 56.8996 1.7185 57.5746 1.7185H60.5746C61.2871 1.7185 61.7746 1.83059 62.0746 2.09212C62.3746 2.3163 62.6371 2.83938 62.7871 3.54927L68.7121 28.5822L75.1996 3.54927C75.4246 2.80202 75.6871 2.3163 75.9496 2.09212C76.2496 1.86795 76.7371 1.7185 77.4121 1.7185H80.8996C81.4996 1.7185 81.8371 2.0174 81.8371 2.65256C81.8371 2.83938 81.7996 3.02619 81.7621 3.25037C81.7246 3.47454 81.6496 3.77344 81.4996 4.18443L72.4621 33.0657C72.2371 33.813 71.9746 34.2987 71.6746 34.5229C71.3746 34.7471 70.8871 34.8965 70.2496 34.8965H67.0246C66.3121 34.8965 65.8246 34.7844 65.5246 34.5229C65.2246 34.2613 64.9621 33.7756 64.8121 33.0284L58.9996 8.92949L53.2246 32.991C53.0371 33.7383 52.8121 34.224 52.5121 34.4855C52.2121 34.7471 51.6871 34.8592 51.0121 34.8592H47.7871ZM95.9746 35.8679C94.0246 35.8679 92.0746 35.6438 90.1996 35.1954C88.3246 34.7471 86.8621 34.2613 85.8871 33.7009C85.2871 33.3646 84.8746 32.991 84.7246 32.6548C84.5746 32.3185 84.4996 31.9449 84.4996 31.6086V29.7031C84.4996 28.9185 84.7996 28.5449 85.3621 28.5449C85.5871 28.5449 85.8121 28.5822 86.0371 28.657C86.2621 28.7317 86.5996 28.8811 86.9746 29.0306C88.2496 29.591 89.6371 30.0394 91.0996 30.3383C92.5996 30.6372 94.0621 30.7866 95.5621 30.7866C97.9246 30.7866 99.7621 30.3756 101.037 29.5537C102.312 28.7317 102.987 27.5361 102.987 26.0042C102.987 24.9581 102.65 24.0987 101.975 23.3888C101.3 22.6789 100.025 22.0438 98.1871 21.446L92.7496 19.7646C90.0121 18.9053 87.9871 17.635 86.7496 15.9537C85.5121 14.3097 84.8746 12.4789 84.8746 10.5361C84.8746 8.96685 85.2121 7.58443 85.8871 6.38883C86.5621 5.19322 87.4621 4.14707 88.5871 3.32509C89.7121 2.46575 90.9871 1.83059 92.4871 1.38223C93.9871 0.933883 95.5621 0.74707 97.2121 0.74707C98.0371 0.74707 98.8996 0.784433 99.7246 0.896521C100.587 1.00861 101.375 1.15806 102.162 1.30751C102.912 1.49432 103.625 1.68114 104.3 1.90531C104.975 2.12949 105.5 2.35366 105.875 2.57784C106.4 2.87674 106.775 3.17564 107 3.5119C107.225 3.81081 107.337 4.22179 107.337 4.74487V6.50092C107.337 7.28553 107.037 7.69652 106.475 7.69652C106.175 7.69652 105.687 7.54707 105.05 7.24817C102.912 6.27674 100.512 5.79103 97.8496 5.79103C95.7121 5.79103 94.0246 6.12729 92.8621 6.83718C91.6996 7.54707 91.0996 8.63058 91.0996 10.1625C91.0996 11.2086 91.4746 12.1053 92.2246 12.8152C92.9746 13.5251 94.3621 14.235 96.3496 14.8701L101.675 16.5515C104.375 17.4108 106.325 18.6064 107.487 20.1383C108.65 21.6701 109.212 23.4262 109.212 25.369C109.212 26.9756 108.875 28.4328 108.237 29.7031C107.562 30.9734 106.662 32.0943 105.5 32.991C104.337 33.9251 102.95 34.5976 101.337 35.0833C99.6496 35.6064 97.8871 35.8679 95.9746 35.8679Z" fill="#252F3E"/>
<path fill-rule="evenodd" clip-rule="evenodd" d="M103.062 54.0257C90.7245 63.1049 72.7995 67.9247 57.387 67.9247C35.787 67.9247 16.3245 59.9664 1.62451 46.74C0.462006 45.6939 1.51201 44.2741 2.89951 45.0961C18.7995 54.2873 38.412 59.8543 58.6995 59.8543C72.387 59.8543 87.4245 57.0148 101.262 51.1862C103.325 50.2521 105.087 52.5312 103.062 54.0257Z" fill="#FF9900"/>
<path fill-rule="evenodd" clip-rule="evenodd" d="M108.199 48.1974C106.624 46.1798 97.7742 47.2259 93.7617 47.7117C92.5617 47.8611 92.3742 46.815 93.4617 46.0303C100.512 41.0985 112.099 42.5183 113.449 44.1622C114.799 45.8435 113.074 57.3886 106.474 62.9182C105.462 63.7776 104.487 63.3292 104.937 62.2084C106.437 58.5095 109.774 50.1776 108.199 48.1974Z" fill="#FF9900"/>
</svg>
