<svg width="141" height="40" fill="none" xmlns="http://www.w3.org/2000/svg"><g clip-path="url(#clip0)"><path d="M76.044 25.853c0 4.347-5.409 4.089-5.409 4.089h-5.409v-7.855h5.41c5.566-.037 5.409 3.766 5.409 3.766zM65.227 10.108h4.122c4.28.227 4.118 3.413 4.118 3.413 0 3.96-4.732 4.025-4.732 4.025h-3.508v-7.438zm9.818 8.982s3.702-1.577 3.67-5.762c0 0 .563-6.858-8.524-7.694H60.108v28.75h11.557s9.656.03 9.656-8.112c0 0 .228-5.54-6.277-7.181zM48.95 0H91.4v40.002H48.95V0zM27.093 25.853c0 4.347-5.409 4.089-5.409 4.089h-5.41v-7.855h5.41c5.567-.037 5.41 3.766 5.41 3.766zM16.276 10.108h4.122c4.28.227 4.119 3.413 4.119 3.413 0 3.96-4.733 4.025-4.733 4.025h-3.508v-7.438zm9.818 8.982s3.703-1.577 3.67-5.762c0 0 .563-6.858-8.524-7.694H11.156v28.75h11.558s9.656.03 9.656-8.112c0 0 .228-5.54-6.277-7.181zM0 0h42.45v40.002H0V0zm131.691 7.695v5.312s-5.184-3.187-10.914-3.25c0 0-10.689-.21-11.171 10.245 0 0-.386 9.616 11.042 10.164 0 0 4.795.578 11.3-3.57v5.5s-8.726 5.185-18.834 1.192c0 0-8.498-3.103-8.821-13.286 0 0-.354-10.472 10.979-13.949 0 0 3.027-1.159 8.465-.644 0 0 3.251.322 7.954 2.286zm-33.79 32.307h42.45V0h-42.45v40.002z" fill="#000"/></g><defs><clipPath id="clip0"><path fill="#fff" d="M0 0h140.351v40H0z"/></clipPath></defs></svg>