<svg width="87" height="84" viewBox="0 0 87 84" fill="none" xmlns="http://www.w3.org/2000/svg">
<path d="M24.1835 34.8537C22.9983 34.9791 20.8296 34.9791 19.6443 34.9791V29.6633H23.7043C24.3096 29.6633 24.8896 29.7887 25.4948 29.7887C25.4948 29.6633 25.3687 29.4376 25.3687 29.3122C25.3687 29.1869 25.4948 28.9612 25.4948 28.8358C24.8896 28.8358 24.3096 28.9612 23.7043 28.9612H19.6443V24.3475H22.1409L24.1835 24.4728C24.7887 24.4728 25.3687 24.5982 25.9739 24.5982C25.9739 24.4728 25.8478 24.2472 25.8478 24.1218C25.8478 23.8961 25.9739 23.7707 25.9739 23.52H17.8539V35.7815H26.1C26.1 35.6561 25.9739 35.4305 25.9739 35.3051C25.9739 35.0794 26.1 34.954 26.1 34.7033C25.4948 34.8537 24.7635 34.8537 24.1835 34.8537ZM40.9026 23.52H40.1965V35.9069C40.3226 35.7815 40.5496 35.7815 40.8017 35.7815C40.9278 35.7815 41.1548 35.7815 41.2809 35.9069V26.1027H41.5078L50.233 34.7033C50.7122 35.1797 51.0652 35.5308 51.3174 35.8818H51.9226V23.52C51.6704 23.52 51.5696 23.6454 51.3174 23.6454C51.0904 23.6454 50.9643 23.52 50.7122 23.52V32.8478H50.5861L40.9026 23.52ZM15.9374 33.9009C15.5843 34.2519 13.8948 35.3051 11.6252 35.3051C8.52348 35.3051 6.25391 33.1737 6.25391 29.6382C6.25391 26.6794 8.04435 23.9713 11.7513 23.9713C13.8948 23.9713 15.3322 25.1499 15.6852 25.5009H15.8113C15.9374 25.0245 16.0383 24.5481 16.1643 24.0967C14.853 23.6203 13.2896 23.2693 11.8522 23.2693C7.54 23.2693 4.2113 25.6263 4.2113 29.6382C4.2113 33.5248 6.96 36.0072 11.373 36.0072C12.9365 36.0072 14.6009 35.7815 15.7861 35.0543L15.9374 33.9009ZM29.6809 29.1869V24.2472C30.513 24.2472 32.7826 24.1218 33.5139 24.2472C35.0774 24.4728 35.7835 25.3003 35.7835 26.4788C35.7835 27.883 34.6991 28.8358 33.1609 29.0866C32.1774 29.3122 30.0339 29.1869 29.6809 29.1869ZM37.6748 34.3773L33.4887 29.6633C35.5061 29.4376 37.6748 28.3594 37.6748 26.2531C37.6748 24.4728 36.2374 23.5451 33.1357 23.5451H27.9913V35.9319C28.3443 35.8066 28.5965 35.8066 28.9496 35.8066C29.1765 35.8066 29.5548 35.8066 29.7817 35.9319V29.914H31.4461L33.0096 31.569L35.4052 34.277C35.8843 34.8788 36.2374 35.3302 36.7165 35.9319C37.0696 35.8066 37.4226 35.8066 37.9017 35.8066C38.2548 35.8066 38.6078 35.8066 38.9861 35.9319L38.633 35.4555L37.6748 34.3773ZM26.1757 61.5582C24.8643 61.3827 23.5783 61.1069 22.3174 60.7558C25.4948 63.8651 29.353 66.2722 33.6148 67.7516L35.0774 66.1719C31.8243 65.169 28.7983 63.5893 26.1757 61.5582ZM19.5435 20.6364L22.04 20.6615C25.167 16.6746 33.1609 10.7319 43.9287 10.7319C46.2739 10.7319 48.5435 11.0078 50.7122 11.5343C49.8548 10.6567 48.947 9.82925 47.9887 9.07702C46.6522 8.90149 45.3157 8.80119 43.9287 8.80119C34.2957 8.77612 25.4191 13.089 19.5435 20.6364ZM43.9035 67.5761C42.5165 67.5761 41.18 67.4507 39.8435 67.2752L38.2548 68.9803C40.0956 69.3063 41.9617 69.5069 43.8783 69.5069C52.6287 69.5069 60.5217 65.8961 66.12 60.0788L65.5904 57.797C60.32 63.7899 52.553 67.5761 43.9035 67.5761ZM69.5496 55.8913C72.0461 52.1552 73.7356 47.8675 74.3661 43.2287L74.4922 43.2537L79.4348 8.4L77.493 8.12418L73.9878 32.8979C71.92 23.169 65.1365 15.1451 56.1087 11.2836C56.9156 12.3367 57.647 13.4149 58.3278 14.5684C66.9017 19.483 72.7017 28.6603 72.7017 39.1666C72.7017 44.2818 71.3148 49.071 68.9191 53.2334L69.5496 55.8913ZM15.1304 39.1415V38.4645L13.1635 38.4143V39.1164C13.1635 41.6239 13.4661 44.1313 14.0965 46.5385C14.7774 49.2466 15.8365 51.754 17.173 54.086C18.2574 54.6878 19.367 55.2143 20.527 55.6657C18.4591 52.8573 16.8957 49.6478 15.9878 46.0872C15.4078 43.8305 15.1304 41.4985 15.1304 39.1415ZM59.5383 30.3654C59.5383 46.037 46.627 58.8 30.74 58.8C17.5261 58.8 6.02696 49.9737 2.82435 37.311C2.24435 35.0543 1.96696 32.7224 1.96696 30.3654C1.96696 14.6937 14.8783 1.93075 30.74 1.93075C46.627 1.93075 59.5383 14.6937 59.5383 30.3654ZM30.74 0C13.7939 0 0 13.6155 0 30.3654C0 32.8728 0.302609 35.3803 0.933043 37.7875C1.0087 38.0382 1.08435 38.289 1.16 38.5397H1.13478L8.8513 65.7958L10.7426 65.2693L5.92609 48.2937C11.5748 55.9415 20.6783 60.7558 30.74 60.7558C35.7835 60.7558 40.5496 59.5522 44.7609 57.3958L20.1991 84H22.847L53.4609 50.8263C57.6217 46.3379 60.4209 40.6209 61.2278 34.277L73.0043 84H75.0217L60.6983 23.4699C58.353 13.5403 51.0652 5.49134 41.5583 1.95582H87V0" fill="#3366CC"/>
</svg>
