<svg width="131" height="75" viewBox="0 0 131 75" fill="none" xmlns="http://www.w3.org/2000/svg">
<g clip-path="url(#clip0)">
<path d="M77.17 21.9073V4.77452H70.877V0H89.5119V4.77452H83.2128V21.9073H77.17Z" fill="#7FDD9B"/>
<path d="M105.2 21.9073V13.1469H98.1561V21.9073H92.1133V0H98.1561V8.40932H105.2V0H111.249V21.9073H105.2Z" fill="#7FDD9B"/>
<path d="M130.975 0H115.85V4.71291H130.975V0Z" fill="#7FDD9B"/>
<path d="M130.999 13.3007L115.85 13.3068L115.868 8.6001H130.999V13.3007Z" fill="#7FDD9B"/>
<path d="M130.999 21.9072H115.85L115.868 17.1943H130.999V21.9072Z" fill="#7FDD9B"/>
<path d="M16.9442 47.6837C15.0337 48.3675 13.0134 48.7002 10.9869 48.6694C7.40395 48.6694 4.67555 47.7083 2.80168 45.7862C0.927809 43.864 -0.00607409 41.0609 2.97264e-05 37.3769C2.97264e-05 33.7482 0.97664 30.9451 2.92986 28.9552C4.88308 26.9653 7.59928 25.9673 11.0846 25.9488C12.9706 25.9427 14.8445 26.2507 16.6329 26.8668V31.4811C15.1558 31.1361 13.642 30.9451 12.1222 30.9143C10.1995 30.9143 8.74679 31.4257 7.76408 32.4483C6.78747 33.471 6.29306 34.9804 6.29306 36.9826V37.6787C6.29306 39.6378 6.76916 41.1349 7.72135 42.1699C8.67355 43.2049 10.0774 43.7224 11.933 43.7162C13.6176 43.6854 15.3023 43.4821 16.9442 43.1001V47.6837Z" fill="#3DCC68"/>
<path d="M20.1367 48.2506V26.3433H26.1856V43.3159H35.2375V48.2506H20.1367Z" fill="#3DCC68"/>
<path d="M43.8748 26.3433H37.832V48.2506H43.8748V26.3433Z" fill="#3DCC68"/>
<path d="M66.6469 48.2506V34.7218L62.8869 43.2543H57.5949L53.835 34.7218V48.2506H48.6406V26.3433H55.0557L60.3172 38.2272L65.6458 26.3433H71.8412V48.2506H66.6469Z" fill="#3DCC68"/>
<path d="M89.5735 48.2506L88.3833 44.0121H81.7423L80.6192 48.2506H74.2285L81.8705 26.3433H88.5359L96.1778 48.2506H89.5735ZM82.8593 39.7119H87.2846L85.0628 31.5922L82.8593 39.7119Z" fill="#3DCC68"/>
<path d="M100.944 48.2506V31.1178H94.6445V26.3433H113.279V31.1178H106.986V48.2506H100.944Z" fill="#3DCC68"/>
<path d="M130.975 26.3433H115.85V31.0562H130.975V26.3433Z" fill="#3DCC68"/>
<path d="M130.999 39.6501H115.85L115.868 34.9434H130.999V39.6501Z" fill="#3DCC68"/>
<path d="M130.999 48.2505H115.85L115.868 43.5376H130.999V48.2505Z" fill="#3DCC68"/>
<path d="M130.975 52.686H115.85V57.3989H130.975V52.686Z" fill="#1B945A"/>
<path d="M20.1426 67.4778V74.5934H14.3379V52.686H23.2311C25.7154 52.686 27.6869 53.3452 29.1335 54.6636C30.6168 56.0559 31.4164 58.0397 31.3126 60.085C31.4164 62.1303 30.6168 64.1141 29.1335 65.5064C27.6808 66.8248 25.7154 67.484 23.2311 67.4778H20.1426ZM20.1426 63.0544H22.3339C23.1518 63.1037 23.9514 62.8203 24.5557 62.2659C25.5933 61.0029 25.5933 59.1671 24.5557 57.9041C23.9514 57.3435 23.1518 57.054 22.3339 57.1094H20.1426V63.0544Z" fill="#1B945A"/>
<path d="M34.2559 74.5934V52.686H40.2986V69.6587H49.3506V74.5934H34.2559Z" fill="#1B945A"/>
<path d="M51.8281 74.5934V52.686H66.9534V57.3004H57.7122V61.1262H65.226V65.7405H57.7122V69.979H67.0144V74.5934H51.8281Z" fill="#1B945A"/>
<path d="M70.3945 74.5934V52.686H78.8849C82.2237 52.686 84.8117 53.6348 86.649 55.5323C88.4862 57.4298 89.4079 60.1281 89.4079 63.6212C89.4628 65.6666 89.0417 67.6934 88.1871 69.5478C87.4303 71.1311 86.2156 72.4433 84.6958 73.312C83.0233 74.2053 81.1495 74.6427 79.2573 74.5934H70.3945ZM76.4373 57.3435V69.899H78.5065C81.6622 69.899 83.2369 67.8967 83.2369 63.8861V63.3194C83.2369 59.3334 81.6805 57.3435 78.5675 57.3435H76.4373Z" fill="#1B945A"/>
<path d="M103.918 70.3238C104.565 70.3238 105.218 70.2807 105.859 70.1944V66.153H102.258V61.9145H111.249V73.2316C110.04 73.8354 108.752 74.2789 107.428 74.5438C105.932 74.8642 104.413 75.0305 102.887 75.0305C100.86 75.0921 98.8458 74.6301 97.0452 73.6875C95.4643 72.8189 94.1825 71.4758 93.3829 69.8494C92.504 67.995 92.0767 65.9559 92.1317 63.9044C92.1317 60.208 93.151 57.3494 95.1836 55.3226C97.2161 53.2957 100.097 52.2915 103.814 52.3038C104.986 52.3161 106.158 52.4455 107.306 52.6981C108.38 52.9137 109.424 53.2587 110.419 53.7269V58.1565C109.405 57.8238 108.368 57.565 107.318 57.3925C106.347 57.22 105.365 57.1215 104.376 57.1091C102.288 57.1091 100.744 57.6451 99.737 58.7048C98.7299 59.7644 98.2355 61.3908 98.2355 63.5594V64.0337C98.2355 68.2476 100.134 70.3546 103.936 70.3546" fill="#1B945A"/>
<path d="M130.999 65.9932H115.85L115.868 61.2803H130.999V65.9932Z" fill="#1B945A"/>
<path d="M130.999 74.5933H115.85L115.868 69.8804H130.999V74.5933Z" fill="#1B945A"/>
</g>
<defs>
<clipPath id="clip0">
<rect width="131" height="75" fill="white"/>
</clipPath>
</defs>
</svg>
