<svg xmlns="http://www.w3.org/2000/svg" viewBox="0 0 179 28"><title>Artboard 1</title><path d="M90.7,15.6l.4.3a6.8,6.8,0,0,1,0-1.1.9.9,0,0,0-.4.5h-.4Zm16.3,3.1-.3-.2a.3.3,0,0,0,0,.6.3.3,0,0,0,.3-.3Zm0-1.1h0v.2h-.1v.4h.3a.6.6,0,0,1,.1.4.5.5,0,0,1-.4.5h1c-.6-.1-.3-.5-.3-.5l.8-.4a1.5,1.5,0,0,1-1.1-.8h-.3Zm-.3,1.8a.6.6,0,0,1,0-1.1v-.4h-.2v-.2H106a.1.1,0,0,0,0,.2c.5.4.2.7.2.7l-.4.2-.8.6Zm-6.8-2.2h.1l.5.2a.2.2,0,0,0,.2.3h.6l.2.2a.3.3,0,0,0,.2-.2l.4-.2h.2a.3.3,0,0,0,.2-.3l.2-.4h1.3l1.2-.5-.5.4-.3.4-.2.2a.6.6,0,0,0-.1.3v.4l.3.2.3.2-.7.3a1,1,0,0,1-.6-.1c-.9-.2-1.2.2-1.2.2a.9.9,0,0,1-.5.2v.2a.6.6,0,0,1-.5,0,1.7,1.7,0,0,1,.2-.8c-.1-.6-1.5-.5-1.5-.5l-.3-.3h-.1l-.8-.7a2.1,2.1,0,0,1-.2.8l-.2.4h-.3v-.3a9,9,0,0,0,.4-1.4h.7l.3.4h0C99.7,17,99.8,17.1,99.9,17.1Zm2.8-.4v.2h-.2c-.1,0-.2.1-.2.3h-.3l-.2-.2c-.1,0-.2.1-.2.3H101c0-.1-.1-.3-.2-.3l-.2.2-.4-.2h0a.2.2,0,0,0-.2-.2h-.1v-.2h0l1.4.3h.5l.2-.3Zm-3-4.1h0a.2.2,0,0,0-.2.2h0l-.2-.2h-.1l-.4-.5c-.5-.7-1.3,0-1.3,0h-.1a.3.3,0,0,0,0-.6l.8-2L98,9.2a.5.5,0,0,0-.4-.8c-.3-.7-.7-.4-.7-.4s-.7-.3-.7-.3-.7-.2-.7-.2V6.4H94.4V7.5c-.6-.3-.7.3-.7.3s-.7.4-.7.4-.5.4-.5.4-.7.7-.7.7l.6,2a30.4,30.4,0,0,1-1.9,2.4l-.7-.2H90a2,2,0,0,1,0-.7c.2-.9-.2-1.3-.2-1.3a1.8,1.8,0,0,0-.2-.8c.4-.5-.2-.9-.2-.9h-.1v-1h-.1c-.1-.4-.4-.1-.4-.1a.3.3,0,0,0-.5-.1.3.3,0,0,0-.5,0l-.2-.7-.7.3.2.8c-.5-.1-.4.4-.4.4s-.2.4-.2.4-.3.5-.3.5l.5.8c-.4.4,0,.7,0,.7s.3.2.3.2a2,2,0,0,0,.1,1.3,4.3,4.3,0,0,1-1.2.9l-1.2.4-2.9.8-1.7.5c-1.3.4-1.7,0-1.7,0s-.1-.7-.1-.7a1.6,1.6,0,0,1,1-.8l.6.5a1.3,1.3,0,0,0,.8.3h.4a.5.5,0,0,1-.1-.3c0-.1-.2-.3-.2-.3h3.8a3.2,3.2,0,0,0,1.5-.5,1.5,1.5,0,0,0,.5-1.7A1.7,1.7,0,0,0,85,10.6a3,3,0,0,0-1.2-.1l-1.1-.2c0,.1.3.6.3.6h-.3l-.3-.2a1.3,1.3,0,0,0-1-.2l.7.7a5,5,0,0,1-1.3-.4,2.5,2.5,0,0,0,1.1,1.3,2.7,2.7,0,0,0,2.1,0l.9-.5h.6v.2c0,.8-.7.8-.7.8a17.1,17.1,0,0,1-4.2.1,1.7,1.7,0,0,0,.2-.8h-.2c-1-.1-1.3.1-1.3.1a1.5,1.5,0,0,0-.5.7l-1.1.7a2.4,2.4,0,0,0-.8,1.4c0,.9.4,1,.4,1s.2,1.1.2,1.1a1.4,1.4,0,0,0,.4-.5,9,9,0,0,1,2.3-.8,2.4,2.4,0,0,0-.5,1.1,1.6,1.6,0,0,1-.8-.1c-.3,0-.3.2-.3.2v.3l-.2.5c-1.1,0-.9.5-.9.5v1.6c.2.6.6.5.6.5v-.6h.3a1.5,1.5,0,0,0,.8.8h.1c.2,0,.2.2.2.2h.2v-.4H80c.1,0,.2.2.2.2h.1a1.5,1.5,0,0,0,.1-.4c.2-.1.1-.5.1-.5a1.9,1.9,0,0,1,.8.1v.4a1.1,1.1,0,0,0,.7.6h3.7l2.9-.2h.1c.4.1.9-.3.9-.3V21l.7-.2.3.2h.2a.9.9,0,0,0,.3-.4.8.8,0,0,0,.5.1h.2l.4.2a1.1,1.1,0,0,0,.2-.9h.1V20H93c-.5.2-.2.5-.2.5l.3.2h.2v.2a.5.5,0,0,0,.6-.2v-.3a1.3,1.3,0,0,1-.1-.4v.3h.1l.8.6.7-.6a2,2,0,0,0,.9.3c.2,0,0-.2,0-.2a2.5,2.5,0,0,0,1.6.4c.1-.1,0-.2,0-.2s.5.2.5.2a.8.8,0,0,0,.6,0h-.1c.2,0,.1-.2.1-.2l.3.2a.5.5,0,0,0,.4.1h.6a.2.2,0,0,0,0-.2,17.3,17.3,0,0,0,4.5.4c3.5,0,3.9-.7,3.9-.7a.3.3,0,0,0,.1-.3v-.2h.4l-.3.5v.2c.6.6,1.5-.1,1.5-.1v-.2l.3-.3h.4a.7.7,0,0,1-.1.5.7.7,0,0,0,.8-.5l-.3-1.6a1.8,1.8,0,0,0-1.4-.5v-.4a.5.5,0,0,0-.4-.3h-1V16.2h.5a4.9,4.9,0,0,0,1.3.2.5.5,0,0,1,.3.4v.3c.8-.1.7-1,.7-1s.4-1.8.4-1.8a1.2,1.2,0,0,0-.3-.6h0a1.4,1.4,0,0,0-.8-1.2h-.3a1.4,1.4,0,0,1-.5-.4,1,1,0,0,0-.1,1,18.9,18.9,0,0,0-3,.4,3.9,3.9,0,0,1-1.6-.2c-.6-.3-.5-.8-.5-.8a.6.6,0,0,1,.7-.6h.2a1.5,1.5,0,0,1,.9.1,5.6,5.6,0,0,0,2.9,0,2.2,2.2,0,0,0,1.1-1.5,1.5,1.5,0,0,1-1.2.4h-.4a1,1,0,0,1,.6-.6,1.6,1.6,0,0,0-1.3.2,2.4,2.4,0,0,1-1.1.5,1.8,1.8,0,0,0,.9-.8,2.3,2.3,0,0,1-1,.2,3.2,3.2,0,0,0-2.1.7,1.6,1.6,0,0,0-.5,1.9,1.3,1.3,0,0,0,.7.6l1,.3a21.1,21.1,0,0,0,3.3-.1h.4a1.5,1.5,0,0,0-.5.9h1.5a.3.3,0,0,0,.3-.2c.3.4-.3.9-.3.9s-1.1.1-1.1.1a6.6,6.6,0,0,0-1.5-.3,12.2,12.2,0,0,0-2.5-.7.3.3,0,0,0-.3-.1h-.2a.4.4,0,0,0-.6-.2l-1.1-.5h-.2a3.8,3.8,0,0,0,1.1-2.6A2.4,2.4,0,0,0,103,8.8c-.2-.6-1-.6-1-.6h-.1v.2c0,.1.1.3.1.3h-.3l-2-1.1c-.5-.1-.3.3-.3.3h.1l1.7,1.3a3.3,3.3,0,0,1-.8.8h-.2l-.3.3v.4h-.4v.2c.2.2.7.2.7.2l.4.4h.2l.3-.4.5-.2h.4a2,2,0,0,0-.7.6h-.7v.3h-.1a.4.4,0,0,0-.7-.3.5.5,0,0,0,0,.7Zm0,.5v-.2h.3c.3,0,.4-.4.4-.4h.1v.3a1.7,1.7,0,0,0-.5.6Zm.2-.7a.3.3,0,0,1,.2-.4c.3,0,.3.4.3.4l-.2.2C100,12.6,99.9,12.5,99.9,12.5Zm-13.6,5a1.7,1.7,0,0,1-1,.4l-.2.3h1s0-.3.3-.2.2-.6,1.1-.4h.3l.2.2v-.3a.3.3,0,0,1,.3-.1l-.2-.2A.9.9,0,0,1,88,17h.6v-.3h.2l-.3-.2a2.4,2.4,0,0,1-2.4.5l-.9-.4a1.3,1.3,0,0,0,1.2.7Zm-4,0,1.4.2-.2.2-.5.3a1.2,1.2,0,0,0-.1.7l.5.2.5.2H82.5v-.2c-.1-.6-1.1-.7-1.1-.7v-.3l.3-.4h.4Zm17.7,2v.2s.1.1.4.2a1.4,1.4,0,0,0,0-.5Zm-11.4-.4h.2l-.2-.2a.5.5,0,0,0-.2-.4v.4h.1v.2Zm.8.8v.4l.3-.3h-.1l-.2-.2Zm1.1-2.4H91a.3.3,0,0,1,.3-.3l-1-.3-.7-.4h-.4a1.9,1.9,0,0,1,.7.3h0A.9.9,0,0,1,90.6,17.5Zm1.3.9v-.2l.4.4a.4.4,0,0,1-.1.4h-.4v-.3ZM61.6,5.4s3.7,1.8,4.2,2.2.2.6.2.6a1,1,0,0,1-.6.3c-.4.1-.3.4-.3.4v8.5a3,3,0,0,0,3.4.8.7.7,0,0,0,.5-.7s.1-8,.1-8.3a.3.3,0,0,0-.3-.3L67,7.8c-.3-.2,0-.4,0-.4l3-2.1a.6.6,0,0,1,.7-.1l4.8,2.7c.5.4.2.5.2.5L74.5,9.5a.4.4,0,0,0-.1.5v7.8c-.3,2-3.6,2.3-3.6,2.3-4,0-5.8-1.6-5.8-1.6a4.4,4.4,0,0,0-3.4-.3c-2.3.8-2.5,2.2-2.5,2.2S60.1,22,60.1,22a5.3,5.3,0,0,0,3.6.3l4.6-1.5a8.7,8.7,0,0,1,3.2-.1,4.2,4.2,0,0,1,2.2,1.1,3.2,3.2,0,0,1,.9,2.3c.1,2.8-3.5,3.8-3.5,3.8-1.6.3-2.1,0-2.1,0s.1-.4.1-.4-2.1.1.2,0,2.5-1.1,2.5-1.1-.4-1.7-.4-1.7a6,6,0,0,0-3.6,1.1,9.6,9.6,0,0,1-7.5.3c-3.3-1.2-2.9-3.6-2.9-3.6a5.1,5.1,0,0,1,2.1-4.2V9a.6.6,0,0,0-.3-.3,6.9,6.9,0,0,1-1.6-.8.3.3,0,0,1,.1-.4l3.2-2C61.1,4.9,61.6,5.4,61.6,5.4ZM.2,4c-.5-.3,0-.5,0-.5L5,.2H17.6c2.7.2,2.5,3.6,2.5,3.6V16.1a10.2,10.2,0,0,0-6.5,4.4c-4.1-1.1-11.2-.1-11.2-.1s-.2-.4-.2-.4a8.5,8.5,0,0,1,7.1-4h.9V4.1Zm6.3.7c.9-.4.7.2.7.2v6.9a5.9,5.9,0,0,1-2.4,4.5c-.7.9-3.4,2-3.4,2s-.4-.5-.4-.5a4.1,4.1,0,0,0,.9-2.1V7.2A.5.5,0,0,1,2,6.9ZM10.6,16a12.8,12.8,0,0,1,3.8,1V11.7h0a2.2,2.2,0,0,0-3.7.1Zm3.7-4.9V8.9a2.3,2.3,0,0,1-3.7-.3v2.5A2.5,2.5,0,0,1,14.3,11.1Zm0-2.8V4.6c.2-.6-.7-.5-.7-.5h-3V7.9C12.3,10.6,14.1,8.5,14.3,8.3ZM48.7,2.5,54.9.6c.7-.2.7.2.7.2s-.1,15,0,15.5.4.4.4.4l1.5,1a.3.3,0,0,1,.1.4l-3.1,2.3L49.1,18c-.5-.3-.2-.5-.2-.5l.9-.9s.1-12.2-.1-12.9a1.8,1.8,0,0,0-1-.9C48.5,2.5,48.7,2.5,48.7,2.5ZM42.5,5a.6.6,0,0,0,.6.3A5.4,5.4,0,0,0,46,2.8C46.5,1,45.3.5,45.3.5A1.8,1.8,0,0,0,43.5.4a3.2,3.2,0,0,0-1.5,1.8A4,4,0,0,0,42.5,5Zm-.9.8a35,35,0,0,0-3.5,2.3c-.2.4,0,.5,0,.5l1.8,1c.4.1.2.3.2.3v6.2a2.3,2.3,0,0,1,0,.6l-.8.7a.4.4,0,0,0-.1.6l5,2.4L48,17.9c.3-.1,0-.4,0-.4l-1.7-.9a.3.3,0,0,1-.1-.4s-.2-6.1,0-6.7.3-.3.3-.3l.8-.4c.4-.2,0-.5,0-.5s-4.7-2.3-5-2.6A.4.4,0,0,0,41.6,5.8ZM21,16.2s.4,3.6,5.3,4.2l3.2-2.5a.3.3,0,0,1,.4,0l5.5,2.6,3.3-2.5a.5.5,0,0,0-.1-.6l-2.3-1.5V9.7s0-.3.2-.3l.9-.7s.1-.2-.1-.6-5.7-2.9-5.7-2.9-.2-.3-.7,0-6,2.3-8.3,5.2C22.5,10.5,20.7,11.7,21,16.2Zm4.7-2a5.1,5.1,0,0,1-.4-3.5,3.2,3.2,0,0,1,2.2-2.6l2.9,1.8v7.1s-.4.6-1.3.2A8,8,0,0,1,25.7,14.2ZM163,6a31.3,31.3,0,0,0-3.5,2.3c-.2.4-.1.5-.1.5l1.8,1c.4.1.2.3.2.3v6.2a2.3,2.3,0,0,1,0,.6l-.8.6a.4.4,0,0,0-.1.6l5,2.4,3.7-2.5c.3-.1,0-.4,0-.4l-1.7-.9a.3.3,0,0,1-.2-.4s-.2-6.1,0-6.7.3-.3.3-.3l.8-.4c.4-.2,0-.4,0-.4s-4.7-2.3-5-2.6A.4.4,0,0,0,163,6ZM113.5,4c-.8-.4-.2-.6-.2-.6L117.1,1c.2-.2.4.1.4.1l3.5,2L126.2.4a.3.3,0,0,1,.4,0l4,2.2L134.6.2c.4-.4.6-.1.6-.1L140,2.8c.4.2.2.3.2.3V15.5a2.8,2.8,0,0,0,1.5,2.1c.4.3.2.5.2.5l-3.7,2.5a4.6,4.6,0,0,1-3.5-3.5V5.3a.6.6,0,0,0-.4-.5L132,3.6V8.8h2.6L132,12.4v4.4l1.8,1.2c.2.3-.1.3-.1.3l-3.8,2.3-5.6-2.9c-.5-.3-.1-.5-.1-.5l1.2-.7V12.7h-2.7v4.9l.9.5a.3.3,0,0,1,0,.5l-3.8,2-4.9-2.5c-.4-.3,0-.5,0-.5l1.4-.8V5.9L113.6,4Zm18.1-.6c-.7-.2-.6.2-.6.2V8.8h.6Zm0,9.2H131v3.5l.3.2.3.2Zm-9-.7,2.2-3.1h.5V5.3a1.1,1.1,0,0,0-.3-.4l-2.3-1.2Zm-.4-8.3c-.7,0-.7.5-.7.5V16.9h.2l.6.4Zm20,12.6s.4,3.6,5.3,4.2l3.2-2.5a.3.3,0,0,1,.4,0l5.5,2.6,3.3-2.5a.5.5,0,0,0-.1-.6l-2.3-1.5V9.7s0-.3.2-.3l.9-.7s.1-.2-.1-.6-5.7-2.9-5.7-2.9-.2-.3-.7,0-6,2.3-8.3,5.2C143.9,10.5,142,11.7,142.4,16.2Zm4.7-2a5.1,5.1,0,0,1-.4-3.5,3.2,3.2,0,0,1,2.2-2.6l2.9,1.8v7.1s-.4.6-1.3.2A8,8,0,0,1,147,14.2Zm23-11.7L176.2.6c.7-.2.7.2.7.2s-.1,15.1,0,15.7.4.4.4.4l1.5,1a.3.3,0,0,1,.1.4l-3.1,2.3-5.4-2.4c-.5-.3-.2-.5-.2-.5l.9-.8s.1-12.5-.1-13.1a1.8,1.8,0,0,0-1-.9C169.8,2.5,170.1,2.5,170.1,2.5Zm-6.2,2.7a.6.6,0,0,0,.6.3,5.5,5.5,0,0,0,2.8-2.6c.5-1.8-.7-2.2-.7-2.2a1.8,1.8,0,0,0-1.8-.1,3.2,3.2,0,0,0-1.5,1.8A4,4,0,0,0,163.9,5.2Z"/></svg>