<svg width="179" height="28" fill="none" xmlns="http://www.w3.org/2000/svg"><path fill-rule="evenodd" clip-rule="evenodd" d="M90.741 15.554l.398.287c-.05-.43.026-1.148.026-1.148-.3.19-.374.55-.374.55l-.424.047.374.264zm16.324 3.107c-.05-.095-.126-.166-.251-.166-.123 0-.248.119-.248.287 0 .168.125.286.248.286a.276.276 0 0 0 .275-.286c-.001-.047-.024-.073-.024-.12zm-.011-1.122c.007.02.011.046.011.07a.284.284 0 0 1-.057.166.307.307 0 0 1-.144.106v.352a.513.513 0 0 1 .35.189c.081.104.124.23.124.359a.535.535 0 0 1-.376.53c.615-.045 1-.1 1-.1-.599-.12-.251-.454-.251-.454.275-.216.798-.384.798-.384-.622-.072-.971-.55-1.122-.836h-.333v.002zm-.313 1.787c-.239-.038-.424-.262-.424-.544 0-.271.171-.489.398-.539v-.35a.331.331 0 0 1-.18-.088.31.31 0 0 1-.093-.173l-.002.002c-.248.07-.473.07-.473.07-.05.12.05.169.05.169.523.358.175.693.175.693-.249.216-.374.216-.374.216-.249.072-.847.575-.847.575.666.019 1.276 0 1.77-.03zm-6.83-2.218a.223.223 0 0 0 .126-.038l.497.206c0 .143.1.264.225.264a.218.218 0 0 0 .185-.116l.422.06c.028.12.113.2.215.2.115 0 .231-.102.246-.248l.353-.16c.042.06.104.097.175.097.123 0 .249-.12.249-.264l.225-.357c.423.032.849.024 1.271-.024a11.393 11.393 0 0 1 1.221-.527c-.201.143-.4.264-.526.407-.125.12-.241.247-.348.382a.647.647 0 0 0-.21.242.616.616 0 0 0-.065.31c.019.136.07.266.149.381.125.143.3.217.3.217l.275.238c-.225.168-.724.286-.724.286-.275.098-.647-.07-.647-.07-.873-.19-1.171.19-1.171.19-.175.191-.499.217-.499.217l.149.216c-.324.096-.497-.025-.497-.025-.026-.406.198-.813.198-.813-.1-.645-1.496-.527-1.496-.527l-.347-.313-.076-.072-.797-.717c0 .216-.1.526-.223.79-.1.214-.225.407-.225.407l-.299-.145a.808.808 0 0 0 .124-.262c.248-.574.423-1.388.423-1.388.149 0 .275.025.374.048.075.048.125.073.125.073a3.6 3.6 0 0 0 .19.078l.275.374a.284.284 0 0 0-.04.145c-.001.142.073.238.199.238zm2.783-.372l-.145.198a.243.243 0 0 0-.195-.112c-.125 0-.225.118-.225.286 0 .023.002.046.008.067l-.318.142c-.033-.112-.135-.21-.238-.21-.123 0-.223.143-.223.287l-.38-.063a.262.262 0 0 0 .006-.056c0-.142-.102-.288-.225-.288-.094 0-.171.08-.205.18l-.44-.19a.245.245 0 0 0 .022-.107c0-.12-.1-.239-.225-.239-.02 0-.04.003-.058.01l-.117-.202h-.003a13.37 13.37 0 0 0 1.422.336h.549l.175-.264c.227.121.519.19.815.225zm-2.954-4.084c.02.024.04.047.06.067l-.03.054a.114.114 0 0 0-.057-.017c-.1 0-.175.095-.175.191l-.024-.023-.2-.216-.073-.072-.45-.454c-.523-.67-1.32 0-1.32 0l-.124-.096c.422-.24.05-.55.05-.55l.822-2.033-.225-.263c.4-.79-.447-.814-.447-.814-.25-.717-.699-.382-.699-.382-.149-.694-.699-.335-.699-.335-.198-.478-.672-.192-.672-.192l.023-1.124-.546.024-.6-.024.05 1.148c-.596-.287-.698.287-.698.287-.697-.383-.697.359-.697.359-.574-.168-.549.359-.549.359-.772.07-.672.717-.672.717l.597 1.96c-.149.36-1.918 2.44-1.918 2.44l-.749-.214-.05-.12c.175.096.3.048.3.048-.074-.24.024-.717.024-.717.225-.933-.174-1.268-.174-1.268.025-.383-.25-.837-.25-.837.374-.454-.174-.909-.174-.909l-.075-.12-.024-.98c-.1 0-.15-.12-.15-.12-.15-.407-.424-.143-.424-.143-.2-.43-.523-.096-.523-.096-.275-.359-.55 0-.55 0l-.223-.694-.748.286.25.766c-.55-.12-.374.406-.374.406-.474.024-.25.43-.25.43-.448.048-.274.527-.274.527l.498.789c-.399.43-.024.718-.024.718.125.216.275.216.275.216-.225.646.074 1.315.074 1.315-.324.359-.797.645-1.22.86-.623.288-1.172.431-1.172.431-.973.216-2.89.814-2.89.814-.674.166-1.745.477-1.745.477-1.346.384-1.695-.023-1.695-.023-.324-.192-.075-.695-.075-.695.324-.621.997-.765.997-.765.474.288.648.454.648.454.299.289.823.264.823.264l.025-.095c.224.024.373-.048.373-.048-.15-.143-.15-.311-.15-.311 0-.12-.173-.31-.173-.31l3.464-.144c.125-.022.224-.022.323-.048 1.196-.215 1.471-.478 1.471-.478.822-.622.474-1.65.474-1.65-.45-1.005-1.321-1.053-1.321-1.053-.674-.167-1.171-.072-1.171-.072-.374.025-1.146-.167-1.146-.167-.026.143.298.597.298.597a.874.874 0 0 1-.622-.19c-.4-.359-1.047-.192-1.047-.192.1.192.698.67.698.67-.349.024-1.295-.358-1.295-.358.174.79 1.121 1.34 1.121 1.34 1.122.454 2.093-.024 2.093-.024.474-.287.947-.455.947-.455a.562.562 0 0 1 .64.138c.05.057.087.125.108.197-.05.814-.673.837-.673.837-1.795.359-4.187.12-4.187.12.174-.216.2-.766.2-.766l-.2.048c-1.046-.096-1.321.12-1.321.12-.374.215-.548.67-.548.67-.474.191-.848.43-1.123.67-.697.646-.772 1.363-.772 1.363-.05.861.448.981.448.981-.448.836.225 1.148.225 1.148.299-.214.423-.455.423-.455.598-.429 2.343-.788 2.343-.788-.35.263-.55 1.051-.55 1.051-.297.096-.797-.072-.797-.072-.274-.022-.274.193-.274.193l-.125.286-.174.527c-1.072-.048-.922.55-.922.55l-.15 1.601c.25.597.648.503.648.503v-.598h.274c.324.645.823.79.823.79h.15c.174-.049.25.192.25.192l.174.022.024-.406.199-.023c.125.048.2.239.2.239h.148c.05-.096.075-.36.075-.36.2-.12.15-.548.15-.548.398-.073.822.072.822.072l-.024.357c.298.479.673.551.673.551.25.07.622.118 1.071.143.773.048 1.745.022 2.642 0 .974-.047 1.947-.12 2.916-.216.1.142.149.12.149.12.424.143.897-.288.897-.288l-.148.288c.323-.024.673-.24.673-.24a.687.687 0 0 0 .348.24l.076-.072.1.142c.198-.096.323-.429.323-.429.225.19.55.143.55.143l.1.143.072-.12c.15.097.424.215.424.215.3-.358.175-.883.175-.883l.076.118.073-.286c.149.142.4.142.4.142-.473.19-.2.527-.2.527a.55.55 0 0 0 .25.214c.08-.01.159.01.224.055.064.044.109.11.124.186.374.168.6-.216.6-.216l.05-.287c-.076-.168-.076-.43-.076-.43l.075.31.124.072.847.645.724-.574c.398.264.947.264.947.264.199 0 .05-.239.05-.239.649.503 1.62.382 1.62.382.148-.118.05-.19.05-.19.175-.073.473.168.473.168.249.166.623.022.623.022-.024-.118-.15-.142-.15-.142.176 0 .076-.239.076-.239.173.023.324.214.324.214.149.193.424.145.424.145l.023-.12c.175.12.573.142.573.142.101-.095.025-.238.025-.238 1.795.527 4.46.429 4.46.429 3.465-.023 3.939-.669 3.939-.669.125-.144.05-.31.05-.31v-.191c.175-.098.449-.024.449-.024l-.251.502-.073.168c.597.645 1.494-.072 1.494-.072v-.216c.175-.07.324-.262.324-.262l.4.096c.05.216-.1.454-.1.454.623.166.846-.454.846-.454l-.322-1.604c-.499-.55-1.396-.455-1.396-.455l-.026-.407c-.05-.142-.223-.238-.374-.262l-.192-.066-.182.066c-.275.023-.674.023-.674.023v-.023l.05-.55v-.622l-.05-.216.526.073c.398.166 1.321.166 1.321.166.298.12.298.407.298.407l-.1.336c.848-.073.748-.982.748-.982.597-.479.447-1.77.447-1.77-.075-.31-.198-.502-.275-.575l-.023-.022c0-.814-.848-1.173-.848-1.173-.148-.12-.324-.12-.324-.12-.198-.047-.473-.359-.473-.359-.324.574-.05 1.004-.05 1.004-.499-.096-2.993.383-2.993.383-.596.144-1.592-.167-1.592-.167-.625-.335-.524-.766-.524-.766.123-.694.722-.598.722-.598h.175c.524-.095.898.096.898.096 1.046.478 2.914 0 2.914 0 .897-.335 1.147-1.46 1.147-1.46-.598.527-1.171.432-1.171.432a3.297 3.297 0 0 0-.374.096c.1-.407.597-.599.597-.599-.647-.263-1.344.192-1.344.192-.349.359-1.123.478-1.123.478.573-.215.873-.813.873-.813-.374.215-1.046.167-1.046.167-1.022-.192-2.144.693-2.144.693-1.022.909-.523 1.914-.523 1.914.125.286.423.502.747.621.474.216.971.264.971.264 1.072.12 3.266-.12 3.266-.12.199-.048.424-.048.424-.048-.4.288-.474.934-.474.934.399-.143.697-.143.697-.143l-.023.096c.473-.073.871 0 .871 0 .25.022.3-.19.3-.19.298.428-.3.908-.3.908-.349.335-1.121.07-1.121.07-.424-.19-1.521-.263-1.521-.263-.199-.239-2.467-.669-2.467-.669-.126-.216-.349-.12-.349-.12l-.2-.025c-.199-.454-.647-.19-.647-.19-.324-.048-.847-.334-1.148-.503-.149-.071-.223-.142-.223-.142 1.196-1.268 1.12-2.63 1.12-2.63-.148-1.963-1.818-2.273-1.818-2.273-.248-.574-1.046-.622-1.046-.622l-.05.12.074.167c-.024.12.125.336.125.336l-.324.071-2.019-1.124c-.497-.12-.298.286-.298.286l.1.144 1.745 1.316c-.176.334-.772.765-.772.765l-.226.048-.275.286.026.383c-.125.096-.4.096-.4.096l-.024.24c.173.24.672.24.672.24l.399.381c.125.073.225-.023.225-.023l.348-.382.474-.215c.125.071.35.096.35.096-.324.12-.672.573-.672.573-.275-.072-.724.024-.724.024l-.05.263-.015.063-.108-.063c-.176-.693-.725-.263-.725-.263a.527.527 0 0 0-.045.685zm.012.5c.06-.026.109-.108.109-.206a.185.185 0 0 0-.019-.08l.034-.08c.078.06.176.093.276.093.257-.008.356-.364.356-.364h.063l-.063.287c-.25.143-.473.621-.473.621l-.283-.27zm.156-.683c-.134-.266.152-.384.152-.384.349-.048.275.382.275.382-.093.113-.169.155-.231.16-.135.01-.194-.156-.196-.158zm-13.605 5.046c-.2.168-.549.407-.997.431l-.2.309.474.12.1.048.424.12s.024-.264.349-.216c0 0 .224-.575 1.121-.382 0 0 .15-.048.349.048.075.048.15.096.224.166l-.1-.31s.1-.143.348-.096c0 0-.1-.096-.174-.24a.863.863 0 0 1-.174-.478s.298-.118.598-.07V16.7h.174l-.324-.19s-.823.883-2.368.454a3.757 3.757 0 0 1-.872-.36s.3.718 1.247.694c0 0-.073.096-.199.216zm-4.012 0c.498.143 1.371.216 1.371.216-.075.07-.15.143-.224.19-.274.217-.498.265-.498.265-.15.238-.074.67-.074.67.074.096.298.166.498.238.25.096.498.169.498.169a2.41 2.41 0 0 1-.922 0c-.275-.025-.448-.098-.448-.098l.124-.239c-.1-.622-1.071-.693-1.071-.693l.05-.286c.124-.145.25-.31.3-.431a.625.625 0 0 0 .074-.143c.05.048.174.096.299.143h.023v-.001zm17.746 1.985c-.075.048-.125.096-.125.19 0 0 .05.143.373.24 0 0 .05-.263-.025-.55-.001 0-.124.048-.223.12zm-11.366-.432l.174-.048s-.174-.142-.198-.238c0 0 0-.19-.224-.359l.024.168v.239l.075.072v.19l.15-.024zm.798.839l.025.359.324-.337a.143.143 0 0 1-.073-.018.135.135 0 0 1-.052-.052c-.124-.096-.199-.239-.199-.239l-.025.287zm1.126-2.383c.19-.02.349-.008.438.095-.002-.152.067-.305.305-.344 0 0-.524-.095-.997-.263-.299-.096-.598-.216-.698-.36l-.224.073-.175.07v.073s.473.07.723.264v-.098c0 .001.453.083.628.49zm1.315.947c0-.048.026-.096.026-.168l.373.384s.074.238-.075.382c0 0-.073-.07-.173-.118a.483.483 0 0 0-.2-.048l-.024-.31c0-.002.05-.05.073-.122zM61.606 5.41S65.32 7.23 65.768 7.59c.474.358.224.598.224.598s-.174.238-.598.334c-.425.072-.298.407-.298.407l-.05 8.491c1.745 1.65 3.39.765 3.39.765.623-.19.548-.717.548-.717s.126-7.988.075-8.252c-.05-.286-.299-.286-.299-.286s-1.545-.934-1.794-1.1c-.275-.167.024-.43.024-.43s2.617-1.746 2.992-2.081c.373-.31.673-.12.673-.12s4.311 2.32 4.81 2.679c.497.359.249.478.249.478l-1.221 1.172c-.25.24-.126.455-.126.455l-.05 7.845c-.323 2.008-3.613 2.297-3.613 2.297-3.963.048-5.807-1.579-5.807-1.579-1.57-.933-3.39-.288-3.39-.288-2.316.765-2.492 2.201-2.492 2.201-.075 1.03 1.122 1.53 1.122 1.53 1.47.91 3.613.335 3.613.335 1.82-.597 4.636-1.506 4.636-1.506 1.769-.359 3.164-.073 3.164-.073 1.595.337 2.219 1.054 2.219 1.054 1.021 1.004.947 2.295.947 2.295.074 2.824-3.54 3.78-3.54 3.78-1.62.311-2.067-.048-2.067-.048-1.147-.24.074-.358.074-.358s-2.094.118.174.022c2.269-.07 2.518-1.122 2.518-1.122.823-1.413-.448-1.651-.448-1.651-1.745-.239-3.638 1.124-3.638 1.124-4.237 1.817-7.452.31-7.452.31-3.29-1.219-2.866-3.563-2.866-3.563.075-3.037 2.069-4.232 2.069-4.232l-.124-9.4c-.1-.24-.35-.312-.35-.312s-1.37-.527-1.595-.813c-.2-.287.125-.407.125-.407l3.165-2.01c.372-.503.845-.001.845-.001zM.198 3.978c-.473-.311.05-.478.05-.478L5.008.15h12.585c2.717.239 2.493 3.587 2.493 3.587l-.05 12.341c-4.411.813-6.53 4.403-6.53 4.403-4.113-1.125-11.165-.12-11.165-.12-.623.047-.2-.407-.2-.407C4.585 15.839 9.27 15.96 9.27 15.96c.303-.006.599.002.887.02l.025-11.878-9.983-.125zm6.28.67c.922-.407.748.191.748.191v6.864c-.074 2.894-2.442 4.474-2.442 4.474-.698.909-3.365 1.96-3.365 1.96-.921.335-.373-.526-.373-.526.872-1.243.872-2.13.872-2.13V7.23c0-.24.1-.335.1-.335l4.46-2.249zm4.1 11.367c2.179.21 3.777.95 3.777.95l-.033-5.306-.034.024c-.005-.005-1.748-2.215-3.702.081l-.008 4.25zm3.74-4.894l-.013-2.225c-.667.599-2.223 1.607-3.714-.26l-.005 2.52c1.642-1.599 3.119-.603 3.732-.035zM14.3 8.314l-.023-3.715c.174-.622-.722-.455-.722-.455l-2.955-.037-.007 3.811c1.672 2.659 3.536.596 3.707.396zm34.395-5.82S54.178.796 54.876.629c.722-.167.673.167.673.167s-.148 14.972-.024 15.499c.124.527.374.384.374.384s1.27.861 1.545.98c.3.12.15.406.15.406l-3.09 2.297s-5.035-2.129-5.433-2.367c-.498-.336-.175-.527-.175-.527l.898-.861s.148-12.246-.1-12.892c-.25-.646-1.047-.91-1.047-.91-.175-.263.049-.311.049-.311zM42.54 5.03c.174.406.622.335.622.335 1.995-.765 2.792-2.584 2.792-2.584C46.453.988 45.282.51 45.282.51c-1.047-.598-1.82-.12-1.82-.12-1.196.621-1.52 1.818-1.52 1.818-.298 1.578.599 2.822.599 2.822zm-.897.813s-3.24 1.914-3.49 2.273c-.25.358-.049.526-.049.526s1.396.837 1.77.98c.398.12.248.312.248.312l.1 6.218c.05.168 0 .598 0 .598s-.55.43-.848.67c-.348.286-.075.575-.075.575l5.01 2.415s3.389-2.344 3.688-2.463c.299-.12 0-.359 0-.359s-1.47-.813-1.72-.933c-.248-.12-.148-.359-.148-.359s-.2-6.148-.05-6.674c.125-.503.299-.335.299-.335s.448-.12.847-.36c.374-.239.026-.454.026-.454s-4.661-2.343-5.01-2.63c-.35-.288-.598 0-.598 0zM20.995 16.199c-.012-.048.386 3.612 5.271 4.21l3.24-2.51s.174-.288.424-.05l5.482 2.56 3.34-2.51s.15-.288-.1-.575l-2.318-1.484V9.742s-.024-.286.174-.334l.898-.693s.15-.24-.15-.55c-.274-.335-5.731-2.918-5.731-2.918s-.2-.287-.699.048c0 0-5.956 2.296-8.299 5.237.001 0-1.868 1.147-1.532 5.668zm4.673-1.96c.15.261-.997-1.556-.448-3.541 0 0 .075-1.746 2.193-2.63l2.866 1.793-.05 7.08s-.374.598-1.295.192c0 0-2.369-1.124-3.266-2.895zm137.346-8.206s-3.239 1.89-3.49 2.273c-.248.359-.05.526-.05.526s1.397.837 1.77.957c.399.12.249.334.249.334l.1 6.219c.05.168 0 .597 0 .597s-.549.407-.848.647c-.348.287-.073.573-.073.573l5.009 2.44s3.39-2.344 3.688-2.488c.299-.118 0-.358 0-.358s-1.446-.814-1.719-.932c-.251-.12-.151-.359-.151-.359s-.199-6.147-.05-6.673c.125-.478.301-.334.301-.334s.447-.12.847-.36c.374-.239.023-.43.023-.43s-4.66-2.343-5.009-2.63c-.323-.288-.597-.002-.597-.002zM113.468 4c-.772-.406-.223-.598-.223-.598l3.887-2.392c.198-.167.373.073.373.073l3.54 1.985s4.784-2.44 5.109-2.63c.198-.12.373.047.373.047l4.039 2.153 4.062-2.44c.447-.359.572-.12.572-.12l4.761 2.679c.398.24.223.31.223.31v12.391c.175 1.53 1.521 2.13 1.521 2.13.374.286.199.502.199.502l-3.665 2.51c-3.164-1.03-3.463-3.492-3.463-3.492V5.268c-.075-.407-.373-.502-.373-.502l-2.447-1.197.018 5.262h2.628l-2.615 3.619.016 4.355 1.828 1.188c.249.286-.149.334-.149.334l-3.789 2.272-5.632-2.87c-.523-.336-.125-.527-.125-.527l1.221-.74v-3.804h-2.682l.011 4.882.903.549c.275.286-.05.477-.05.477l-3.763 2.033-4.91-2.488c-.423-.264.024-.477.024-.477l1.396-.765V5.914l-2.692-1.865-.126-.049zm18.15-.578c-.744-.222-.628.22-.628.22l.049 4.808v.383h.599l-.02-5.411zm.033 9.237h-.612v3.517c.024.096.324.214.324.214l.301.196-.013-3.927zm-8.977-.68l2.209-3.147h.473V5.268c-.073-.19-.348-.382-.348-.382l-2.348-1.172.014 8.264zm-.351-8.342c-.689.014-.728.46-.728.46l-.052 12.773c0 .07.225.118.225.118l.578.351-.023-13.702zm20.047 12.562c-.012-.048.386 3.612 5.272 4.21l3.239-2.51s.175-.288.424-.05l5.482 2.56 3.34-2.51s.149-.288-.1-.575l-2.317-1.484V9.742s-.023-.286.175-.334l.898-.693s.148-.24-.149-.55c-.275-.335-5.733-2.918-5.733-2.918s-.199-.287-.699.048c0 0-5.956 2.296-8.299 5.237-.001 0-1.869 1.147-1.533 5.668zm4.673-1.96c.149.261-.997-1.556-.447-3.541 0 0 .074-1.746 2.192-2.63l2.866 1.793-.05 7.08s-.374.598-1.296.192c0 0-2.367-1.124-3.265-2.895zm23.024-11.745s5.456-1.698 6.18-1.865c.697-.167.672.167.672.167s-.148 15.14-.025 15.667c.125.525.374.407.374.407s1.271.861 1.546.98c.298.12.148.406.148.406l-3.089 2.297s-5.034-2.129-5.432-2.392c-.499-.31-.176-.525-.176-.525l.898-.838s.148-12.46-.1-13.107c-.249-.646-1.046-.884-1.046-.884-.174-.29.05-.313.05-.313zm-6.156 2.727c.175.407.622.334.622.334 1.995-.79 2.793-2.606 2.793-2.606.497-1.77-.674-2.249-.674-2.249-1.046-.621-1.818-.12-1.818-.12-1.198.622-1.52 1.818-1.52 1.818-.3 1.579.597 2.823.597 2.823z" fill="#000"/></svg>