<svg width="183" height="53" viewBox="0 0 183 53" fill="none" xmlns="http://www.w3.org/2000/svg">
<g clip-path="url(#clip0)">
<path d="M0 21.6H11.43V9.8H38.34V0H0V21.6Z" fill="#FF0000"/>
<path d="M0 52.9999H38.34V43.1999H11.43V31.3999H0V52.9999Z" fill="#FF0000"/>
<path d="M11.4297 21.6001H36.0397V31.4001H11.4297V21.6001Z" fill="#FF0000"/>
<path d="M86.0006 4.87005C84.3749 3.30927 82.4399 2.10673 80.3206 1.34005C77.5925 0.379766 74.7119 -0.0743461 71.8206 4.95669e-05H48.1406V53H59.5706V31.4H71.8206C74.6985 31.4696 77.5651 31.0155 80.2806 30.06C82.4142 29.2984 84.3632 28.0956 86.0006 26.5301C87.4233 25.1219 88.5132 23.4136 89.1906 21.5301C90.5238 17.7714 90.5238 13.6687 89.1906 9.91005C88.5158 8.01352 87.4259 6.29162 86.0006 4.87005ZM78.0006 18.73C77.4144 19.5142 76.636 20.1341 75.7406 20.5301C74.6992 20.9752 73.597 21.2617 72.4706 21.38C71.1896 21.5311 69.9006 21.6046 68.6106 21.6H59.5706V9.80005H68.6206C69.9106 9.79552 71.1996 9.86898 72.4806 10.0201C73.6084 10.1365 74.7115 10.4266 75.7506 10.88C76.6439 11.2703 77.4195 11.8874 78.0006 12.67C78.6 13.5527 78.9014 14.6039 78.8606 15.67C78.9144 16.7564 78.6125 17.8307 78.0006 18.73Z" fill="#FF0000"/>
<path d="M155.469 43.2V0H144.039V53H182.379V43.2H155.469Z" fill="#FF0000"/>
<path d="M97.4199 21.6H108.85V9.8H135.76V0H97.4199V21.6Z" fill="#FF0000"/>
<path d="M97.4199 31.3999H108.85V52.9999H97.4199V31.3999Z" fill="#FF0000"/>
<path d="M108.85 21.6001H133.46V31.4001H108.85V21.6001Z" fill="#FF0000"/>
</g>
<defs>
<clipPath id="clip0">
<rect width="182.4" height="53" fill="white"/>
</clipPath>
</defs>
</svg>
