<svg xmlns="http://www.w3.org/2000/svg" viewBox="0 0 177 30"><defs><style>.a{fill:#5a5657;}.b{fill:#ef821e;}.c{fill:#595657;}.d{fill:#ef831e;}.e{fill:#fefefe;}.f{fill:#fcfcfb;}</style></defs><title>Artboard 1</title><path class="a" d="M77.6,27.6c-.1,1.5-.1,1.5-1.6,1.5H72.9c-.7,0-.9-.2-.9-.9q0-9.7,0-19.4c0-2.6,0-5.1,0-7.7,0-.7.1-1,.9-.9h3.8c.7,0,.9.2.9.9,0,3.8,0,7.5,0,11.3v.9a7.6,7.6,0,0,1,6.7-2.4,8.2,8.2,0,0,1,6.2,3.3,10.3,10.3,0,0,1-.6,13A9.2,9.2,0,0,1,77.6,27.6Z"/><path class="a" d="M61.7,13.1v-.8c0-1.7,0-1.7,1.8-1.7h4.1c.5,0,.7.1.7.6,0,5.8,0,11.6,0,17.4,0,.5-.2.6-.7.6H62.8c-.8,0-1.2-.2-1-1a5.8,5.8,0,0,0,0-.6c-2.7,2.7-5.8,2.8-8.9,1.4s-5-4.4-5.2-8a9.5,9.5,0,0,1,2.7-7.5c2.9-3,8.4-3.5,11.2-.4Z"/><path class="b" d="M133.9,10.9a11.2,11.2,0,0,1,7.7,2.7,9.1,9.1,0,0,1-1.8,14.6,12.3,12.3,0,0,1-11.6.2,8.7,8.7,0,0,1-5.1-8.7,8.9,8.9,0,0,1,6.7-8.3A11.5,11.5,0,0,1,133.9,10.9Z"/><path class="a" d="M46.9,5.4l-1-.2c-1.9-.3-2.6.3-2.7,2.2s0,2.2,0,3.3.2.7.7.7h4.6a12.8,12.8,0,0,0-2.7,4.3c-.2.5-.5.3-.9.3s-1.7,0-1.7,1.8c0,3.5,0,7,0,10.5,0,.7-.2.9-.8.8H37.5c-.6,0-.8-.2-.8-.8,0-3.8,0-7.6,0-11.4,0-.7-.2-.9-.9-.9s-1.9,0-1.9-2a9.3,9.3,0,0,0,0-1.6c-.1-1,.3-1.1,1.1-1.1s1.7,0,1.7-1.6a23.7,23.7,0,0,1,.1-3.4A7.9,7.9,0,0,1,46,.2c.6.1.9.4.9,1S46.9,4,46.9,5.4Z"/><path class="b" d="M171.2,10.9a13.9,13.9,0,0,1,4.6.8c.5.2.6.3.3.8s-.9,1.7-1.3,2.6-.5.5-.9.3a5.7,5.7,0,0,0-3.6-.4c-.7.2-1.3.5-1.3,1.3s.6,1.2,1.2,1.4l2.5.6c2.7.7,4.1,2.1,4.4,4.3a5.8,5.8,0,0,1-3.3,6.1,12,12,0,0,1-9.6.3c-2.5-.9-2.5-.9-1.3-3.2.3-.6.5-1.5,1.1-1.8s1.2.5,1.8.8a11.5,11.5,0,0,0,2.4.7,3.4,3.4,0,0,0,2-.3,1.3,1.3,0,0,0,.9-1.2,1.2,1.2,0,0,0-.8-1.3l-1.7-.6-1.6-.4c-1.9-.5-3.4-1.3-3.8-3.4a5.5,5.5,0,0,1,2-5.6A9,9,0,0,1,171.2,10.9Z"/><path class="b" d="M152.3,29.7a14.2,14.2,0,0,1-6.5-1.6c-.5-.3-.5-.5-.3-.9l1.5-3c.2-.5.4-.5.8-.3a10.5,10.5,0,0,0,3.7,1.4,3.2,3.2,0,0,0,2.1-.3,1.3,1.3,0,0,0,.8-1.2,1.3,1.3,0,0,0-.8-1.3,8.7,8.7,0,0,0-2.2-.7l-1.3-.3c-1.8-.5-3.2-1.4-3.6-3.3a5.6,5.6,0,0,1,1.7-5.5,7.7,7.7,0,0,1,4.6-1.9,14.8,14.8,0,0,1,6.1.7c.6.2.8.4.4,1a24.7,24.7,0,0,0-1.3,2.4c-.2.5-.5.6-1,.4a5.7,5.7,0,0,0-3.6-.4c-.7.2-1.3.5-1.3,1.3s.6,1.2,1.2,1.4l2.6.6c2.1.6,3.8,1.6,4.1,4a5.7,5.7,0,0,1-2.4,5.9A10.5,10.5,0,0,1,152.3,29.7Z"/><path class="b" d="M108.1,24c0,1.5,0,2.9,0,4.3s-.3.7-.7.8c-5.2,1.9-11.8-.7-12.9-7s4.6-12.5,11.6-11l.6.2a1.4,1.4,0,0,1,1.3,1.7c-.1,1.2,0,2.4,0,3.8a4.9,4.9,0,0,0-4.2-.9,4.1,4.1,0,0,0-2.3,1.5,4.9,4.9,0,0,0,0,5.7C102.8,25,104.8,25.2,108.1,24Z"/><path class="b" d="M116.4,14.2c2.5-2.8,5.6-3,8.9-2.7a9.2,9.2,0,0,0-3.5,4.5.6.6,0,0,1-.6.5c-3.5.3-4.8,1.6-4.9,5.2s0,4.3,0,6.5-.3,1-1,1h-3.8c-.5,0-.7-.2-.7-.7,0-5.5,0-10.9,0-16.4,0-.5.1-.7.6-.7h4.3c.5,0,.6.2.6.6S116.4,13.3,116.4,14.2Z"/><path class="c" d="M10.5,17.6,2.9,25.2c-.5.5-.8.7-1.4,0S0,24.1,0,23.4s1-1.2,1.6-1.8l5.9-5.9c.5-.4.4-.7,0-1.1L.3,7.4C-.1,7-.1,6.7.3,6.3S1.6,4.7,2.3,4.6,3.5,5.7,4.1,6.3l6.3,6.4c0,.5-.5.8-.8,1.1s-1.4,1,0,2.6S10.5,17,10.5,17.6Z"/><path class="b" d="M18.2,12.7,25.9,5c.5-.5.7-.4,1.1,0l1.4,1.4c.5.4.4.6,0,1l-7.1,7.1c-.5.5-.5.8,0,1.3l7.1,7c.4.4.5.7,0,1.1L27,25.3c-.4.5-.7.5-1.2,0l-7.6-7.7c.1-.7.7-1,1.1-1.4s.9-.9,0-1.9S18.2,13.5,18.2,12.7Z"/><path class="b" d="M10.5,17.6l-2-2.1c-.3-.3-.3-.5,0-.8l2-2,1.4-1.5a7.2,7.2,0,0,1,2.4-2.5l7.6-7.6c.5-.5.8-.5,1.3,0S24.8,2.4,24.8,3s-1,1.2-1.6,1.8l-6.5,6.5c-.1.7-.8,1-1.2,1.5L14.4,14h-.1c-1,.9-1,.9-.2,2a.8.8,0,0,1,.2.5A5.1,5.1,0,0,1,11.9,19Z"/><path class="c" d="M14.3,13.8l2.4-2.4,1.5,1.3L20,14.6c.5.4.5.7,0,1.2l-1.8,1.9A9.4,9.4,0,0,0,16.8,19a5.1,5.1,0,0,1-2.4,2.4L6.7,29.1c-.5.5-.8.6-1.3,0L4.3,27.9c-.6-.5-.5-.8,0-1.3L11.9,19a22.2,22.2,0,0,0,2.4-2.4C15.4,15.6,15.1,14.7,14.3,13.8Z"/><path class="a" d="M14.3,8.8a22.4,22.4,0,0,1-2.4,2.4L4.2,3.6c-.5-.5-.6-.8,0-1.2S5.4.8,6.1.8s1.2,1,1.8,1.6Z"/><path class="d" d="M14.4,21.4,16.8,19l7.7,7.7c.4.4.5.7,0,1s-1.2,1.8-2,1.7-1.3-1.1-1.9-1.7Z"/><path class="e" d="M82.5,24.5a4,4,0,0,1-4.2-4.2,4.3,4.3,0,0,1,8.5,0A4,4,0,0,1,82.5,24.5Z"/><path class="e" d="M62,20.3a4,4,0,0,1-4.4,4.2,4,4,0,0,1-4.4-4.1,4.2,4.2,0,0,1,4.4-4.3A4.1,4.1,0,0,1,62,20.3Z"/><path class="e" d="M133.9,24.5a4,4,0,0,1-4.3-4.2,4.1,4.1,0,0,1,4.3-4.3,4,4,0,0,1,4.3,4.2A3.9,3.9,0,0,1,133.9,24.5Z"/><path class="f" d="M14.3,13.8c1.7,1.6,1.7,1,0,2.7h-.1C12.9,15.1,12.9,15.1,14.3,13.8Z"/></svg>