<svg xmlns="http://www.w3.org/2000/svg" viewBox="0 0 470 173"><defs><style>.a{fill:#221f20;}.b{fill:#bebebe;}.c{fill:#8e0000;}.d{fill:#fff;}</style></defs><title>Artboard 1</title><path class="a" d="M183,92h4v17h13v5H187v26a5.8,5.8,0,0,0,1.3,4,4.4,4.4,0,0,0,3.3,1.4c4,0,6-3.8,6.3-11.5H201a24.1,24.1,0,0,1-1.8,9.7,13.3,13.3,0,0,1-5,5.7,13.8,13.8,0,0,1-7.3,2,12.1,12.1,0,0,1-6.1-1.5,11.2,11.2,0,0,1-4.2-4.4,13.2,13.2,0,0,1-1.6-6.4V114h-7v-5.1a13,13,0,0,0,10.3-4.4c2.4-2.8,4-6.9,4.6-12.3M63.7,142.4c2.1,6.1,3.9,10.2,5.6,12.4a4.6,4.6,0,0,0,3.5,2.1,2.9,2.9,0,0,0,2.6-1.3c.6-.9,1-2.7,1.2-5.6H81c0,5.4-1.5,9.7-4.3,12.8a13.7,13.7,0,0,1-10.6,4.7A12.9,12.9,0,0,1,56,163.3q-3.7-4.2-4.8-15l-4.6.8a39.1,39.1,0,0,1-4.9.3,35.1,35.1,0,0,1-26.1-10.8C8.5,131.4,5,122.3,5,111.2S8.5,91,15.6,83.8,31.4,73,41.9,73A36.2,36.2,0,0,1,68.5,83.8C75.7,91,79.3,100,79.3,110.6a39.5,39.5,0,0,1-3.7,17.5,44.7,44.7,0,0,1-11.9,14.3M59,130a80.4,80.4,0,0,0,2.5-20.7c0-8-.8-14.2-2.5-18.8s-4-7.9-7-10a16.4,16.4,0,0,0-10.1-3.2,16.3,16.3,0,0,0-10.2,3.4,19,19,0,0,0-6.5,9.4c-1.8,5.7-2.7,12.6-2.7,20.8,0,9.9,1.3,17.7,4,23.3q.3-7,4.5-11.1c2.8-2.7,6.7-4,11.6-4a16.5,16.5,0,0,1,9.4,2.7,22.1,22.1,0,0,1,7,8.2m-7.8,11.1v-2.7c0-4.8-1-8.5-2.9-10.9a9.1,9.1,0,0,0-14.1-.7,10.3,10.3,0,0,0-2.8,7.4,13.7,13.7,0,0,0,2.6,7.8,16.8,16.8,0,0,0,7.7,1.9,17.2,17.2,0,0,0,5.2-.7,13.8,13.8,0,0,0,4.2-2.1"/><path class="a" d="M79,108.9l18-1v27.3a9,9,0,0,0,2,6,6.6,6.6,0,0,0,5.2,2.2,8.3,8.3,0,0,0,7.2-3.7,14.2,14.2,0,0,0,2.7-8.6V117.8a4.6,4.6,0,0,0-1.3-3.6,5.1,5.1,0,0,0-3.5-1.2H108v-4l18-1v33.2a4.8,4.8,0,0,0,1.4,3.5,5.1,5.1,0,0,0,3.5,1.3H133v4.1l-16.7.5a45.9,45.9,0,0,1-1.2-9.3q-4.2,5.4-8,7.5a15.6,15.6,0,0,1-8,2.2,12.5,12.5,0,0,1-6.9-1.8,11.9,11.9,0,0,1-4.5-5.5,23.1,23.1,0,0,1-1.7-9.2V118.1c0-2-.4-3.3-1.4-4.2s-2.8-1.3-5.6-1.3Zm71-2.2a26.9,26.9,0,0,1,12.6,3,20.6,20.6,0,0,1,8.5,7.7,22,22,0,0,1,2.8,11.5c0,7.1-2.4,12.6-7.3,16.4a26.2,26.2,0,0,1-16.5,5.7,24.9,24.9,0,0,1-11.9-2.9,21.1,21.1,0,0,1-8.3-7.9A22.2,22.2,0,0,1,127,129a21,21,0,0,1,6.6-15.8c4.2-4.4,9.7-6.5,16.4-6.5m.2,4.1a8.2,8.2,0,0,0-7.2,4c-1.8,2.7-2.7,7.3-2.7,14s.9,11.7,2.7,14.3a8.4,8.4,0,0,0,7.2,3.9,8.4,8.4,0,0,0,7.4-4c1.9-2.7,2.8-7.4,2.8-14s-.9-11.5-2.8-14.2a8.4,8.4,0,0,0-7.4-4m49.7-1.8,19.1-.8v34.9a2.6,2.6,0,0,0,.9,2.1,4.5,4.5,0,0,0,2.8.8H225v4H201v-4h1.8c1.6,0,2.7-.3,3.3-1a5,5,0,0,0,1-3.5V117.9a4.1,4.1,0,0,0-1.4-3.4c-.6-.6-2.1-.5-3.7-.5H200v-5h-.1Zm11.7-23.6a7.2,7.2,0,0,1,7.1,7.1,6.6,6.6,0,0,1-2.1,5,6.9,6.9,0,0,1-5,2.1,6.6,6.6,0,0,1-5-2.1,6.9,6.9,0,0,1-2.1-5,6.7,6.7,0,0,1,2.1-5,6.6,6.6,0,0,1,5-2.1M271.9,109l18.1-.8v34.9a2.6,2.6,0,0,0,.9,2.1,4.1,4.1,0,0,0,2.7.8H296v4H272v-4h2.8c1.6,0,2.7-.3,3.3-1a5,5,0,0,0,1-3.5V117.9a4.1,4.1,0,0,0-1.4-3.4c-.6-.6-2.1-.5-3.7-.5H272v-5h-.1Zm10.9-23.6a7.2,7.2,0,0,1,7.1,7.1,6.6,6.6,0,0,1-2.1,5,6.9,6.9,0,0,1-5,2.1,6.6,6.6,0,0,1-5-2.1,6.9,6.9,0,0,1-2.1-5,7.2,7.2,0,0,1,7.1-7.1"/><path class="a" d="M244.9,85l20.1-.7v53.1a22.1,22.1,0,0,0,.5,5.8,4,4,0,0,0,1.8,2.1c.8.4,2.3.5,4.7.5v3.5l-16.8.5-1.2-7.9c-2.6,3.3-4.9,5.6-6.9,6.7a16.8,16.8,0,0,1-7.8,1.7,18,18,0,0,1-13.7-5.6c-3.5-3.7-5.3-8.8-5.3-15.2s1.9-12.7,5.6-16.8a18,18,0,0,1,13.9-6.2,15.8,15.8,0,0,1,7.9,1.9,18.9,18.9,0,0,1,6.3,6.3V96.2a12.9,12.9,0,0,0-.6-4.7,3.7,3.7,0,0,0-1.6-2c-.7-.4-2.1-.5-4.2-.5H245V85Zm-1.5,27.3a8,8,0,0,0-7.5,4.4c-1.4,2.4-2,6.2-2,11.5A33.7,33.7,0,0,0,235,138a9.7,9.7,0,0,0,3.2,4.8,7.5,7.5,0,0,0,4.8,1.6,8.3,8.3,0,0,0,7.1-3.8c2.4-3.3,3.6-7.5,3.6-12.7s-1-8.6-3.1-11.4-4.4-4.2-7.2-4.2m98.1,32.6,1.8,3.2a18.8,18.8,0,0,1-4.9,2.5,14.1,14.1,0,0,1-4.7.7,10.6,10.6,0,0,1-6.2-1.6c-1.5-1.1-2.9-3.1-4.3-6.1a31.2,31.2,0,0,1-8.1,6.1,18.8,18.8,0,0,1-8.1,1.6c-4.2,0-7.4-.9-9.8-2.8a9.1,9.1,0,0,1-3.5-7.3c0-4.5,2.1-8,6.5-10.7s11-4.3,22.7-6.4v-6a7.9,7.9,0,0,0-2.3-5.8,8.5,8.5,0,0,0-6.3-2.2,10,10,0,0,0-5.3,1.3c-1,.5-1.5,1.1-1.5,1.6a2.8,2.8,0,0,0,.6,1.3,7.5,7.5,0,0,1,1.2,4,5.1,5.1,0,0,1-1.6,4,6.2,6.2,0,0,1-4.4,1.5,6.4,6.4,0,0,1-4.7-1.6,5.5,5.5,0,0,1-1.7-4.3c0-2.8,1.5-5.4,4.7-7.5s8.6-4.1,14.4-4.1a31.8,31.8,0,0,1,11.6,2,11.2,11.2,0,0,1,5.3,4.5,14.8,14.8,0,0,1,2,7.9v21.1a5.2,5.2,0,0,0,.9,3.5,3,3,0,0,0,2.4,1,7,7,0,0,0,3.2-1.3m-18.5-17q-9.3,1.2-12.6,3.9a8.5,8.5,0,0,0-3.3,6.9,6.8,6.8,0,0,0,1.5,4.7,5.6,5.6,0,0,0,4.3,1.6,9.2,9.2,0,0,0,7.2-3.1,12.1,12.1,0,0,0,2.9-8.4Z"/><path class="a" d="M394,145.8V150H369v-4h3a3.8,3.8,0,0,0,3-1,4,4,0,0,0,1-3V124.3q0-4.5-2.1-6.9a7,7,0,0,0-5.5-2.4,9.3,9.3,0,0,0-7.5,3.4c-1.9,2.3-2.9,5.6-2.9,10V142a4,4,0,0,0,1,3,3.6,3.6,0,0,0,2.6,1H365v4H339v-4h3.8a6.6,6.6,0,0,0,2.9-1.4,6,6,0,0,0,1.3-3V117.4a5.8,5.8,0,0,0-1.7-3.3c-.9-.8-3.7-1.1-3.7-1.1H340v-3.8l17.1-.9a61.3,61.3,0,0,1,1.4,8.9,27,27,0,0,1,7.7-7.2,16.6,16.6,0,0,1,8.6-2.4,12.5,12.5,0,0,1,9.7,4c2.3,2.7,3.5,6.5,3.5,11.3v19a4.2,4.2,0,0,0,.9,3.1,4.2,4.2,0,0,0,3,1H394v-.2Zm17.9-39.1a27.2,27.2,0,0,1,12.6,3,20.6,20.6,0,0,1,8.5,7.7,22,22,0,0,1,2.8,11.5c0,7.1-2.4,12.6-7.3,16.4A26.2,26.2,0,0,1,412,151a24.9,24.9,0,0,1-11.9-2.9,21.1,21.1,0,0,1-8.3-7.9,22.2,22.2,0,0,1-2.9-11.2,21,21,0,0,1,6.6-15.8c4.2-4.4,9.7-6.5,16.4-6.5m.2,4.1a8.2,8.2,0,0,0-7.2,4c-1.8,2.7-2.7,7.3-2.7,14s.9,11.7,2.7,14.3a8.4,8.4,0,0,0,7.2,3.9,8.4,8.4,0,0,0,7.4-4c1.9-2.7,2.8-7.4,2.8-14s-.9-11.5-2.8-14.2a8.4,8.4,0,0,0-7.4-4"/><path class="b" d="M93,156h.9l3.1,3.9V156h1v6H97l-3-3.7V162H93Z"/><path class="b" d="M100.2,159.2a3.3,3.3,0,1,1,3.3,3.2A3.1,3.1,0,0,1,100.2,159.2Zm5.2,0a1.9,1.9,0,0,0-1.9-2,1.9,1.9,0,0,0-1.9,1.9,1.9,1.9,0,0,0,1.9,2A1.8,1.8,0,0,0,105.4,159.2Z"/><path class="b" d="M109,156h1.1l2.9,3.9V156h1v6h-.8l-3.2-3.7V162h-1Z"/><path class="b" d="M120,156h2.9a3,3,0,0,1,1.8.7,2,2,0,0,1,.5,1.4,1.9,1.9,0,0,1-1.3,1.9l1.5,2h-2l-1.3-2H121v2h-1v-5.9Zm2.8,3c.7.1,1.1-.3,1.1-.8s-.4-.9-1.1-1.2H121v2Zm4.2-3h1v6h-1Z"/><path class="b" d="M130.7,159.2A3.1,3.1,0,0,1,134,156a3.2,3.2,0,0,1,2.5,1l-.9,1a2.6,2.6,0,0,0-1.6-.7,1.8,1.8,0,0,0-1.8,1.9,1.8,1.8,0,0,0,1.8,2,2.4,2.4,0,0,0,1.6-.7l.9.9a3.2,3.2,0,0,1-2.6,1.1A3.2,3.2,0,0,1,130.7,159.2Z"/><path class="b" d="M138,156h5v1h-3v2h3v1h-3v1h3v1h-5v-6Z"/><path class="b" d="M144.6,156h1.4l1.5,4.2,1.5-4.2h1.4l-2.4,6H147Z"/><path class="b" d="M152,156h5v1h-3v2h3v1h-3v1h3v1h-5v-6Z"/><path class="b" d="M164.8,156h1.2l2.6,6h-1.2l-.6-1h-2.6l-.6,1h-1.2Zm1.4,4-.8-2-.8,2Zm3.8-4h2v5h3v1h-5Zm6.1,3.2a3.1,3.1,0,0,1,3.3-3.2,3.2,3.2,0,0,1,2.5,1l-.9,1a2.6,2.6,0,0,0-1.6-.7,1.8,1.8,0,0,0-1.8,1.9,1.8,1.8,0,0,0,1.8,2,2.4,2.4,0,0,0,1.6-.7l.9.9a3.2,3.2,0,0,1-2.6,1.1A3.3,3.3,0,0,1,176.1,159.2Z"/><path class="b" d="M184,160v-5h1v4.5c0,1,.5,1.5,1.3,1.5s1.3-.5,1.7-1.5V156h1v3.4a2.5,2.5,0,0,1-2.7,2.8c-1.7.2-2.7-.7-2.7-2.2Z"/><path class="b" d="M191,156h1.5l3.5,3.9V156h1v6h-1.4l-3.6-3.7V162h-1Z"/><path class="b" d="M203,156h4v1h-3v2h3v1h-3v2h-1v-5.9Zm6,0h1v6h-1Z"/><path class="b" d="M213,156h1.1l2.9,3.9V156h1v6h-.8l-3.2-3.7V162h-1Z"/><path class="b" d="M222.7,156H224l2.6,6h-1.2l-.6-1H222l-.6,1h-1.2Zm1.5,4-.8-2-.8,2Z"/><path class="b" d="M229,156h.7l3.3,3.9V156h1v6h-1.2l-2.8-3.7V162h-1Z"/><path class="b" d="M236,161l3.3-4H236v-1h5v1l-3.3,4H241v1h-5Zm8-5h1v6h-1Zm5.2,0h1.2l2.6,6h-1.2l-.6-1h-2.6l-.6,1h-1.2Zm1.4,4-.8-2-.8,2Zm4.4-4h1.5l1.5,2.5,1.5-2.5H261v6h-1v-3.8l-2.2,2.7-1.8-2.6V162h-1v-6Z"/><path class="b" d="M263,156h5v1h-3v2h3v1h-3v1h3v1h-5v-6Z"/><path class="b" d="M270,156h1.4l3.6,3.9V156h1v6h-1.5l-3.5-3.7V162h-1Z"/><path class="b" d="M280,157h-3v-1h5v1h-1v5h-1v-5Z"/><path class="b" d="M283.9,159.2a3.3,3.3,0,1,1,3.3,3.2A3.1,3.1,0,0,1,283.9,159.2Zm5.2,0a1.9,1.9,0,0,0-1.9-2,1.9,1.9,0,0,0-1.9,1.9,1.9,1.9,0,0,0,1.9,2A1.8,1.8,0,0,0,289.1,159.2Z"/><path class="b" d="M296,156h2a2,2,0,0,1,2.1,1.5,2.2,2.2,0,0,1-2.2,2.5H297v2h-1v-5.9Zm2.1,2.8c.7,0,1.1-.4,1.1-.9s-.4-.9-1.1-.9H297v1.9Z"/><path class="b" d="M303,160v-5h1v4.5c-.1,1,.4,1.5,1.2,1.5s1.3-.5,1.8-1.5V156h1v3.4a2.6,2.6,0,0,1-2.8,2.8c-1.7.2-2.7-.7-2.7-2.2Z"/><path class="b" d="M310,156h2.8a1.9,1.9,0,0,1,1.5.6,1.3,1.3,0,0,1,.4,1.1,1.3,1.3,0,0,1-.8,1.3c.7.3,1.2.7,1.2,1.5s-.9,1.6-2.2,1.6H310v-6Zm2.7,2c.6.6,1,.4,1-.1s-.3-.6-.9-.9H311v1Zm.4,3c.6.1,1-.1,1-.6s-.3-.7-1-.4H312v1Z"/><path class="b" d="M317,156h2.8a1.9,1.9,0,0,1,1.5.6,1.3,1.3,0,0,1,.4,1.1,1.3,1.3,0,0,1-.8,1.3c.7.3,1.2.7,1.2,1.5s-.9,1.6-2.2,1.6H317v-6Zm2.9,2c.6.6,1,.4,1-.1s-.3-.6-.9-.9h-1v1Zm.4,3c.6.1,1-.1,1-.6s-.3-.7-1-.4H319v1Z"/><path class="b" d="M324,156h2v5h3v1h-5Zm7,0h1v6h-1Z"/><path class="b" d="M334.3,159.2a3.1,3.1,0,0,1,3.3-3.2,3.2,3.2,0,0,1,2.5,1l-.9,1a2.6,2.6,0,0,0-1.6-.7,1.8,1.8,0,0,0-1.8,1.9,1.8,1.8,0,0,0,1.8,2,2.4,2.4,0,0,0,1.6-.7l.9.9a3.2,3.2,0,0,1-2.6,1.1A3.2,3.2,0,0,1,334.3,159.2Z"/><path class="b" d="M341.4,159.2a3.3,3.3,0,1,1,3.3,3.2A3.2,3.2,0,0,1,341.4,159.2Zm5.2,0a1.9,1.9,0,0,0-1.9-2,1.9,1.9,0,0,0-1.9,1.9,1.9,1.9,0,0,0,1.9,2A1.8,1.8,0,0,0,346.6,159.2Z"/><path class="a" d="M442.7,133.5l7.3-.3V147a.8.8,0,0,0,.3.9c.2.2,1.1.1,1.1.1H453v2H443v-2h.8s1,.1,1.2-.2a10,10,0,0,1,1-1.4V137c-.6-.6-.8-1.1-1.1-1.4a2.6,2.6,0,0,0-1.4-.6h-.7v-1.5Zm4.4-9.4a3,3,0,0,1,2,.8,2.6,2.6,0,0,1,.8,2,2.8,2.8,0,0,1-.8,2,2.6,2.6,0,0,1-2,.8,2.8,2.8,0,0,1-2-.8,2.6,2.6,0,0,1-.8-2,2.8,2.8,0,0,1,.8-2,2.7,2.7,0,0,1,2-.8"/><path class="c" d="M438.6,144.6a3,3,0,0,1,2,.8,2.6,2.6,0,0,1,.8,2,2.8,2.8,0,0,1-.8,2,2.6,2.6,0,0,1-2,.8,2.8,2.8,0,0,1-2-.8,2.6,2.6,0,0,1-.8-2,2.7,2.7,0,0,1,2.8-2.8"/><path class="a" d="M458,127h1v7h5v1h-5v10.7a3.4,3.4,0,0,0,.6,1.6,1.7,1.7,0,0,0,1.4.6c1.6,0,2.6-3.9,2.6-3.9H466a8.9,8.9,0,0,1-.8,4,5.8,5.8,0,0,1-2.1,2.4,6.4,6.4,0,0,1-3.1.8,5.1,5.1,0,0,1-2.6-.6,4.4,4.4,0,0,1-1.8-1.8,5.5,5.5,0,0,1-.6-2.6V136h-3v-2.3a5.2,5.2,0,0,0,4.1-1.7,10.3,10.3,0,0,0,1.9-5.1M161.6,7h67.9l.8,27h-4.2c-.8-8.3-2.7-14-5.8-17.2s-7.7-4.8-14-4.8H194.8c-1.7,0-2.9.3-3.6,1a3.8,3.8,0,0,0-1.1,3V42h4.1c8.3,0,13-5,14.3-15H213V62h-4.6a21.4,21.4,0,0,0-1.9-8.9,12.8,12.8,0,0,0-4.6-5.2,12,12,0,0,0-6.8-1.9H190V74a4.4,4.4,0,0,0,1.2,3.4,6.1,6.1,0,0,0,4.2,1.6H203v5H162V79h6.9a4.9,4.9,0,0,0,3.8-1.4,4.4,4.4,0,0,0,1.3-3.4v-58a3.5,3.5,0,0,0-1.4-3.2c-.8-.6-2.7-.9-5.4-.9h-5.5V7Z"/><path class="a" d="M257.5,77.3l1.8,3.2a18.7,18.7,0,0,1-4.8,2.5,14.2,14.2,0,0,1-4.7.7,10.5,10.5,0,0,1-6.2-1.6,14.1,14.1,0,0,1-4.2-6.1c-3,2.9-5.6,5-8.1,6.1a18.9,18.9,0,0,1-8.1,1.6c-4.1,0-7.4-.9-9.7-2.8a9.1,9.1,0,0,1-3.5-7.3c0-4.4,2.1-8,6.5-10.7s11-4.2,22.6-6.4V50.7a7.8,7.8,0,0,0-2.3-5.7,8.5,8.5,0,0,0-6.3-2.2,9.9,9.9,0,0,0-5.2,1.3c-1,.6-1.5,1.1-1.5,1.7a2.8,2.8,0,0,0,.6,1.3,7.5,7.5,0,0,1,1.2,3.9,5.4,5.4,0,0,1-1.6,4,6.1,6.1,0,0,1-4.3,1.5,6.4,6.4,0,0,1-4.6-1.6,5.4,5.4,0,0,1-1.7-4.2c0-2.8,1.5-5.3,4.6-7.6s8.7-4,14.4-4a31.2,31.2,0,0,1,11.5,2,10.6,10.6,0,0,1,5.2,4.4,14.7,14.7,0,0,1,2,7.9v21a5.2,5.2,0,0,0,.9,3.4,3,3,0,0,0,2.4,1,8.5,8.5,0,0,0,3.1-1.5M238.9,61c-6.2.8-10.5,2.1-12.7,3.9a8.6,8.6,0,0,0-3.3,7,6.4,6.4,0,0,0,1.6,4.7,5.7,5.7,0,0,0,4.4,1.6,9.2,9.2,0,0,0,7.2-3.1,12.2,12.2,0,0,0,2.9-8.5V61h-.1ZM293,24h4V41h14v5H297V72a5.4,5.4,0,0,0,1.3,4,4.9,4.9,0,0,0,3.6,1.4c4.3,0,6.5-3.8,6.7-11.4h2a24.9,24.9,0,0,1-1.8,9.8,12.7,12.7,0,0,1-4.9,5.7,13.5,13.5,0,0,1-7.2,2,12.2,12.2,0,0,1-6.1-1.5,11.2,11.2,0,0,1-4.1-4.4,13.4,13.4,0,0,1-1.5-6.4V46h-7V41.3a13.4,13.4,0,0,0,10.4-4.4c2.5-2.8,4-6.9,4.6-12.4"/><path class="a" d="M265,24h4V41h14v5H269V72a5.4,5.4,0,0,0,1.3,4,4.9,4.9,0,0,0,3.6,1.4c4.3,0,6.5-3.8,6.7-11.4h2a24.9,24.9,0,0,1-1.8,9.8,12.7,12.7,0,0,1-4.9,5.7,13.5,13.5,0,0,1-7.2,2,12.2,12.2,0,0,1-6.1-1.5,11.2,11.2,0,0,1-4.1-4.4,13.4,13.4,0,0,1-1.5-6.4V46h-7V41.3a13.4,13.4,0,0,0,10.4-4.4c2.4-2.8,4-6.9,4.6-12.4m65.5,14.6a26.6,26.6,0,0,1,12.6,3,21.1,21.1,0,0,1,8.6,7.8,22,22,0,0,1,2.8,11.5c0,7.2-2.4,12.7-7.3,16.5a26.4,26.4,0,0,1-16.6,5.8,24.3,24.3,0,0,1-12-3,21.6,21.6,0,0,1-8.4-8,22.4,22.4,0,0,1-2.9-11.3,21.4,21.4,0,0,1,6.6-15.9c4.4-4.3,10-6.4,16.6-6.4m.3,4.2a8.2,8.2,0,0,0-7.2,4q-2.7,4.1-2.7,14.1t2.7,14.4a8.5,8.5,0,0,0,7.2,4,8.8,8.8,0,0,0,7.5-4.1c1.9-2.7,2.8-7.4,2.8-14s-.9-11.6-2.8-14.3a8.6,8.6,0,0,0-7.5-4.1M72,42.9l18-.8V77a2.8,2.8,0,0,0,.9,2.2,4.1,4.1,0,0,0,2.7.8H97v4H72V80h2.8c1.6,0,2.6-.3,3.2-1a5.1,5.1,0,0,0,.9-3.5V51.7a4.5,4.5,0,0,0-1.4-3.5A5.6,5.6,0,0,0,73.9,47H72V42.9ZM83.4,19.3a6.7,6.7,0,0,1,5,2.1,7.2,7.2,0,0,1,0,10.2,7.2,7.2,0,0,1-12.2-5,6.9,6.9,0,0,1,2.1-5.1,6.7,6.7,0,0,1,5.1-2.2"/><path class="a" d="M96,19l19-1V76.6a3.2,3.2,0,0,0,1,2.5,4.1,4.1,0,0,0,2.9.9H122v4H97V80h3a4.6,4.6,0,0,0,3.1-1,4.5,4.5,0,0,0,1-3.1V27.6a4.4,4.4,0,0,0-1.3-3.4A4.9,4.9,0,0,0,99.2,23H96Z"/><path class="d" d="M115.1,29.6c-1.1-.4-2.5.1-4.1,1.8a19.5,19.5,0,0,0-4,6.5,18.5,18.5,0,0,0-1.5,7.5c0,2.3.7,3.6,1.8,4.1h.6c1,.1,2.1-.5,3.4-1.9a21.1,21.1,0,0,0,3.9-6.5,19.9,19.9,0,0,0,1.6-7.5,5.4,5.4,0,0,0-.9-3.5,1.6,1.6,0,0,0-.8-.6m29.1,16.6s-4.2-6.2-3.3-7,1.9-3.3,5-2.3c0,0,3.2-1.5,4.6-.8l3.2.7,3.6,2.6,3.8,3.3s2.4.2,2.6,1l.5,2.2a3.3,3.3,0,0,1,2.1,3.4s1.6,3.3-4.9,8.8l-2.8,2.2.8.6,4.4,2.2,2.2.6,3.2,8.3h1.9l1.9,4.3v1.6l1.3,6L164,96.2v1.5l11.6,9.9.5.7s-16.8,11.3-24.9,10.8L138.4,107l-9.9-13.1L147.2,82l-7.1-10.2-.5,2.6-4.8,2.2-2.3-2.1-3.8,2.1-4.3-.9-3.5-9.8-.6-5.9L118.8,55l-.4-1,1-1.3,2.2-.2,1.9.3.9.3,1.1-.4,1.1,1.3-.6,1.9,1.9-.2v2.4l-1.1,1.6-1.7.3,4.4,8.7.5-3.7,6-2,2.6-.5,4.1-1,.6,1.3,2.3-2.9,1.3-.4v-.6l-3.9-.8-.8-2.1,2.9-5.5-2.3-.7Z"/><path class="a" d="M130,67h-.3M145,60h0m-21-7h0m41.8,28.4v-.2c-.1,0-.2.1-.3-.2h-.1a4.1,4.1,0,0,0-.2,1h-.4c-.1-.7-.2-.7-.3-.7H164l-.4-.3c0,.1,0,.3.4.5v1.7a1.5,1.5,0,0,0-.1,1.3,2.2,2.2,0,0,0,.1.8,2,2,0,0,1,.1.7,1.5,1.5,0,0,1,.1.7,1.4,1.4,0,0,0,.2-.6,1.4,1.4,0,0,0,.2-.7c.1-.2.1-.4.2-.5s.1-.2.1-.3a10.3,10.3,0,0,0,.4-1.4h.1a.4.4,0,0,0,.1-.3c0-.1.1-.2.2-.4v-.2l.2-.2h-.1v-.2M150.3,47.8l-1.2-.5-.4-.3h-.6a.3.3,0,0,0-.1.2c-.1,0-.2.2-.4.5l-.2.5c0,.1,0,.2.1.2l.2.2a.9.9,0,0,0,.7.3h1.2l-.6-.3-.7-.3h-.1v-.3h1.2L151,49h.1l-.8-.8m.4-6.1a44.5,44.5,0,0,1,8.2,7.2,7.1,7.1,0,0,1,2,5.4,17.7,17.7,0,0,1-.4,2,5.4,5.4,0,0,1-.5,1.1h0l.5-.3c2-2.8,1.5-5.9-1.5-9.4l-.2-.3L157,46.7h0a38.2,38.2,0,0,0-8.6-7.8,5.6,5.6,0,0,0-4.1-1,3.2,3.2,0,0,0-1.3,1c-.5,1-.5,1.8,0,2.2h.1l1.9,4c.3-2,.9-3.2,1.9-3.8s2.2-.3,3.8.9m-5.1,7.5c-.2,0-.3.1-.3.2V50h.2c.2,0,.3-.1.3-.4h-.3m.3-1.8h.1v-.3c0-.1,0-.2-.2-.2h-.7a.3.3,0,0,0-.1.2c0,.1-.1.2-.1.3h.1V48h.4a.3.3,0,0,0-.1.2h.1l.4-.2v-.3m6.5-1.9-.6-.4-1.6-.3c-1.5-.2-2.2-.1-2.2.4h.3c.1,0,.1.1.2-.8h.4c.1.8.4,1,.4,1h1.8l.2-1h.2a5.3,5.3,0,0,0,.6,1h.9"/><path class="c" d="M114.6,31.1c-1-.4-2.1.1-3.5,1.5a17.8,17.8,0,0,0-3.4,5.6,16.2,16.2,0,0,0-1.3,6.4c0,2,.6,3.1,1.5,3.5h.5c.9.1,1.8-.5,3-1.6a17.6,17.6,0,0,0,3.3-5.6,18.6,18.6,0,0,0,1.4-6.4,4.7,4.7,0,0,0-.8-3l-.7-.5"/><path class="a" d="M145.5,46.7h.1c0-.1,0-.2-.2-.3l-.4-.2v.4l.2.2h.3m13.7,5.4-.5.2-.7.2h0s-.2.3,0,.3h.7c.3,0,.5.2.7.5a1.3,1.3,0,0,1,.1.6.9.9,0,0,1-.3.6c-.2.2-.3.3-.3.4s0,.1.1.1l1-.2h0a1.1,1.1,0,0,1-.1-.7,2,2,0,0,1,.1-.5v-.4a1,1,0,0,0-.2-.7.9.9,0,0,0-.8-.4m-1.3.9h-.2c0,.5-.1.5-.1.5h.6c-.7,0-.6.1-.6.2l.2.3.4.2h0a.6.6,0,0,0,0,.7c.2,0,.4-.3.4-.9A2.7,2.7,0,0,0,157.7,53Z"/><path class="a" d="M156.2,56.3c.1-.1,0-.1,0,0l-.9-.3a.8.8,0,0,1-.2-.5.4.4,0,0,1-.1-.3V55c-.1,0-.4.2-.7.7a2.5,2.5,0,0,0-.5,1.1c0,.3.2.5.6.5l1.4-.2a3.5,3.5,0,0,0,1.2-.5h-.4l-.4-.2Z"/><path class="a" d="M163.6,53.6l.8-.2a.8.8,0,0,0,.2-.4v-.3H164v-.5a1.7,1.7,0,0,0-.2-.5c-.4-.4-.7-.1-.7.7s.2,1.2.5,1.2M149.4,38.3l.3.3.5.3,3.1,2.3,1.1,1c.5.4.8.8,1.1.9l1.1,1,.6.9a3,3,0,0,0,.4.8l.4.4h0l1.2,1.2.2.3.2.2,1.2.8a2.6,2.6,0,0,1,1.2,2.4c.1,1,.2,1.4.5,1.4s.4-.8.3-2.5a2.7,2.7,0,0,0-.6-1.7,7.8,7.8,0,0,0-2.2-1.7,6.6,6.6,0,0,1-1.6-1.7,9.6,9.6,0,0,0-1.4-1.7l-4-3.4a27,27,0,0,0-4.9-3s-.1,0-.1.2a4.6,4.6,0,0,0,1.4,1.2m.2,54.6-2.9,1.9a83.1,83.1,0,0,0,15.2,15.7l.4-.3,2.5-1.6a86.4,86.4,0,0,1-15.2-15.7M125.8,55.7h.2v-.4a2.6,2.6,0,0,0-.5-1.8,3.6,3.6,0,0,1,.3,2.1m23.1,28L131.8,94.5l2,3,17.1-10.8Zm2.8,4.5L135,99l.6.9,16.7-10.8ZM138.9,99.6l-2.5,1.6a104.9,104.9,0,0,0,15.7,15.5l2-1.3a86.7,86.7,0,0,1-15.2-15.8m6.9-4.2-2.7,1.7a86.2,86.2,0,0,0,15.2,15.7l.5-.3,2.2-1.4a89.8,89.8,0,0,1-15.2-15.7"/><path class="a" d="M177,107a1,1,0,0,0-.4-.5,118.2,118.2,0,0,1-9.5-7.7l-.3-.2-.3-.3-.3-.2-.2-.2-.3-.2-.3-.2-.3-.3-.2-.2.3-.2.3-.2h.1v-.2l.2-.3c0-.2.1-.3.1-.4v-.2l.2-.2.2-.2.3-.2c4.6-3.9,7-7.5,7.3-10.7V82.9l-2-4.5v-.2l1-.2v-.2c-.4-.1-.3-.2-.2-.4a2.6,2.6,0,0,0,.2-2.3l-.7-2.4a4.8,4.8,0,0,0-1.1-1.7h.3c-.1-.1-.1-.3-.2-.3s-.1-.2-.2-.4-.1-.2-.1-.3,0-.1-.1-.2v-.4h-.1a45,45,0,0,0-3.5-5.7h0l-.2-.2a22.9,22.9,0,0,0-2.8-1.4H161v-.2h-.3c-.1-.2-.1-.3-.3-.3H160c.3,0,.2-.1.1-.1l-.3-.2h.3c.1,0,.1-.1.2-.2h.1l.3-.2.3-.2.3-.2.2-.3a25.9,25.9,0,0,0,4.1-4h.1c1.6-2.7,1.6-5.2,0-7.6h-.1l-.6-.7c-.3-1.9-1.2-2.9-2.9-3a48.6,48.6,0,0,0-7-5.1,19.6,19.6,0,0,0-6.8-2.8h-.1c-.1.9-.2,1-.2,1h-.3a.1.1,0,0,1-.1.1h-.8c-.1.1-.3.1-.4-.3h-.1a6.9,6.9,0,0,0-4.6,2.2c-.9,1.1-.8,2.5.3,4.1l2,3.6c0,.1-.1.3-1,.4v.9c.9,0,.9.1.8.1l.2.3h0l-.5.3v.3c0,.1-.1.2-.4.3v.3h-.7L116.9,29.6a3.6,3.6,0,0,0-1.2-.8c-1.4-.6-3.1,0-5,2a22,22,0,0,0-4.2,7,20.7,20.7,0,0,0-1.6,8c.1,2.8.8,4.5,2.4,5l.8.2h.8l6.1.9v.3h.2a.3.3,0,0,1,.1.2l.2.2c.1,0,.1,0,.2.4h.2l.2-.4h.1a6.3,6.3,0,0,0,1.5,3.4h.1a3.3,3.3,0,0,0,1,.6h.2c.1,0,0,.1,0,.1v.2l.3.3c0,.1,0,.2.7.4h0a2.8,2.8,0,0,0,.5,2.5,3.7,3.7,0,0,0,.2.9,41.1,41.1,0,0,0,1.3,7.8,29.8,29.8,0,0,0,1.6,4.8l.2.3.2.3.2.4c.1.1.2.2.2.3l.2.3.2.3.7.7h.2c.1,0,.1,0,.1.2h.1l.2,1h.8s.1-.5.2-.5.2.5.2.5h.8l.5-.5h2l.5-.2.3-.2h.3l.3-.2.4-.2h.4l.6-.4h.2l.3.2.4.2.9.2h.6c.1,0,.3.7.3.7h.2l2.5-2h-.1a1.5,1.5,0,0,0,1.1-.4l.3-.4.3-.6a1.5,1.5,0,0,0,.1.7,4.3,4.3,0,0,0,.1.5c.6,2.9,1.2,5.4,1.4,7.4h0c.4,0,.5.2.5.3s-.5.2-.5.2h0l1,.3h0c-.2.1-.2.2-.2.3a.4.4,0,0,1,.1.3l-.3.2-.3.2c-.1,0-.2.1-.3-.3h-.1c0,.5-.1.6-.2.6h-.3l-.2.2h-.4l-.3.2a100,100,0,0,1-11.7,6.9l-.4.4a.7.7,0,0,0-.1.5l.2.5c7.3,10.5,14.8,18.7,22.5,24.6h.3s.1,1,.2,1h.4a54.5,54.5,0,0,0,24.2-11.3c.2-.1.2-.3.3-.5s.1,0,0-.2M115.2,41a19,19,0,0,1-4,6.6c-1.2,1.3-2.4,2-3.3,1.9h-.6c-1.1-.5-1.6-1.8-1.6-4a20.5,20.5,0,0,1,1.5-7.6,19,19,0,0,1,4-6.6c1.5-1.6,2.8-2.1,3.9-1.7a1.2,1.2,0,0,1,.7.5h.1a5,5,0,0,1,.9,3.3,20.8,20.8,0,0,1-1.6,7.7m54.6,30.8a1.1,1.1,0,0,1,1.5.9l.7,2.4a1.7,1.7,0,0,1-.5,1.9h-.1l-.8.5-1.1.5-3.4,1.6-.6.2q-1,.3-1.5-.3l-.3-.5-.8-2.4a1.1,1.1,0,0,0-.1-.5c0-.2,0-.5.1-.6l.2-.3V75a2.3,2.3,0,0,1,1.1-.7l1.6-.7,3.9-1.8ZM165,81h0c.1.2.2.2.2,1h.1c.1-.8.2-.8.3-.9l.4.2h0c-.3,0-.3.1-.4.2s-.1.1-.1.2-.1.2-.2.4a.4.4,0,0,0-.1.3h-.1c-.1.4-.3.9-.4,1.4v.3a.8.8,0,0,1-.2.5,6.4,6.4,0,0,0-.2.7c-.1.2-.1.4-.2.6a1.7,1.7,0,0,0-.1-.7c0-.2-.1-.5-.1-.7a2.2,2.2,0,0,1-.1-.8,1.3,1.3,0,0,1,.3-1.3V81.2c-.5,0-.5-.3-.6-.5l.4.3h.4M160,66v.3a12.4,12.4,0,0,0,1.1-4.4l.8.3a15.2,15.2,0,0,1,3.6,1.7,52,52,0,0,1,4.1,7.7l-1.7.8L164.4,74c-.5.2-.9.5-1.2,0h-.1a5.8,5.8,0,0,1-.1,1h-.1c0-.4-.1-.5-.2-.5h-.1l-.3-.3-.8-1.4a1.2,1.2,0,0,0-.5-.8h0c.3-.1.2-.2.2-.3a17.8,17.8,0,0,1-.5-5.1M161,92h.9l.6-.2a27.3,27.3,0,0,0,1.8-2.5c.2-.5.5-.9.7-1.3h0l.6-1.4c.3-.7.7-1.4,1.2-2.3l1.5-3.5.2-.2a.1.1,0,0,0,.1-.1,2.1,2.1,0,0,1,1.1-.5h-.3s.1.2-.4.1h.4a1.9,1.9,0,0,0-1.1.4,7.6,7.6,0,0,1,1.3-1l2.3-1.1c0,.1.1.2.1.3l1,4.6h0a26.9,26.9,0,0,1-2.5,4.7,19.1,19.1,0,0,0-1.9,2.4l-.3.4-1,1.2-.5.5c-.1,0-.1.1-.2.2h-.1a15.3,15.3,0,0,0-1.8,1.8l-.3-.5h-.1v.3h-.1l.4.4-.2.2a4.7,4.7,0,0,1-2.3.9v-.2h.8l.2-.2h-.4l-.2.3V95h.1a4.9,4.9,0,0,1-.4,1h-.2v-.4H161V96s.4.2.4.3a.2.2,0,0,1-.2.2h-.4l-.3-.2a2.1,2.1,0,0,1,.7-1.6l.7-.7h.1c.1,0,.1-.1,0-.1h0c.1,0,0-.1-.1.2h-.1v-.2l-.8.7a1.6,1.6,0,0,0-.4.7h-.1v.4a.6.6,0,0,0-.1.4l-.2.9h-.3s-.1-.7-.3-.8h-.2a5.7,5.7,0,0,1,1.2-2.3h.1c0-.1.1-.1-.5-.2h0c.6,0,.5-.2.5-.2h-.1v.2h-.2c-.1.2-.2.3-.1.5h0a1.5,1.5,0,0,0-.8.8,1.9,1.9,0,0,0-.3.8V96h-.4l-.3-.5H158l.5-1.2a1.9,1.9,0,0,1,.5-.9l.5-.5h.1c.1,0,0-.1,0-.2h-.2l-.6.6-.6,1-.2.4h0l-.3.4h-.2a1.5,1.5,0,0,1,.1-.6,6.2,6.2,0,0,1,1.1-2l.2-.2h.1c.1,0,.4,1,.4,1h.1c.2-.2,1-.1,1.8.2m-18-36.4c0-.2,0-.3.1-.4h.8l.5-.2a4.8,4.8,0,0,0,1.3-1.9h0s.5-.6.5-.8.1-.5-.5-.7h0c.5-.2.5-.5.4-.7a1.8,1.8,0,0,0-.9-1.3l-.4-.3-.3-.2V49h-.2s0,1.1.1,1.1H144v-.3a2,2,0,0,1,.2-1.7l.3-.6.5-.7v-.4a1.6,1.6,0,0,1-.3-.6l-2.1-4q-1.5-2.1-.3-3.3a4.1,4.1,0,0,1,4-1.5h.1a8.1,8.1,0,0,1,8.5,1.2,39.5,39.5,0,0,1,7.1,5.2c1.4,0,2.3.8,2.5,2.6l.7.9a6,6,0,0,1,0,6.8,25.9,25.9,0,0,1-4.1,4c-.1.1-.1.3-.3.4h-.1l-1,.7h.3l-.3.3h-.1c-.1-.3-.2-.1-.3,0l-.5.5c-.1.1-.2-.5-.2-.5H158v.9h-.1s.1.1.1-.2h.1v1h.1s.2-1,.3-1h.3l.8.6a1.4,1.4,0,0,1-.2.6,12.7,12.7,0,0,1-2.5,4.5,2.7,2.7,0,0,1-.6-1h-.1v-.2H156v-.2a1,1,0,0,0-.5-.6l-.2-.6H155v.6h.3a.8.8,0,0,1,.4.4v.4l-1,.9h-.1a21.1,21.1,0,0,1-2.7,1.8h-.2l-.9.3h0s.4,0,0,.1h0l-.4.9h-.2a1.3,1.3,0,0,0-.8.1l-.6-.3h0l-1.1-1.4-.2-.2-.7-.9a.2.2,0,0,1,0-.3h0c-.2,0-.3-.1-.3-.2l-.6-1c0-.1,0-.2-.1-.2V64c.1-.2.4-.3.4-.5s.6-.7,1-.7a.8.8,0,0,0-.7.2l-.4.4-.2.2-.4.4h-.2l-.2.2H145c.1-.4.1-.8.2-1.2a4.6,4.6,0,0,1,.8-2h-.4a1.4,1.4,0,0,1,.4-.7h.2l.9-.3h.9v2.6s-.6.1-.5-.3h0a6.7,6.7,0,0,1,.1,1h.1s0-.1.1,0v.3c0-.2-.1-.3-.9-.5v-.3c.7,0,.7-.1.7.5H147V61.5l1-.2V59.5c-.3-.3-.2-.7-.2-1.1a8.2,8.2,0,0,0,2.1-.2h.6a4.6,4.6,0,0,0,2.8-1.1h.1v.8h-.1V58H153a11.8,11.8,0,0,0-2.6-.2,5.6,5.6,0,0,0-3,1.2h-.8a7.9,7.9,0,0,0-2.2-.9c-.6-.3-1-.6-1-1.1v-.2Zm6.8,18.9.5-.2.5.2a.7.7,0,0,1,0,1l-.5.2-.5-.2c-.2-.1-.2-.3-.2-.5a.4.4,0,0,1,.2-.5m-.3-3.5a.7.7,0,0,1,0-1l.5-.2.5.2a.7.7,0,0,1,0,1c-.1.2-.3.2-.5.2l-.5-.2m.9,8,.5-.2.5.2a.7.7,0,0,1,0,1c-.1.2-.3.2-.5.2l-.5-.2a.7.7,0,0,1,0-1M128,55v-.4c-.1,0-.1-.1,0-.2h.7c.1,0,.1-.1.1-.2l.2-.3.7.5h2.1l8.1,1.2,2.2,1.7H142v.4l.7.4.3.4h.2l.5.3h.4c.2.1.6,1,.6,1h1.4l-.6-1h-.1v.5l-.3.3-.2.2h0l-1.4,1H143s-.3-.7-.4-.6a7,7,0,0,1-1.7-.4h-.1l-.7,1h-.2l-2.8,1.1h-.5s-.2.3-.3.3H136c-.1,0-.3.5-.3.5h-.1s-1.3-1-2-.7l-2.4,1-.7.3-.3.2a5.5,5.5,0,0,0-1.2,2.3h0a3,3,0,0,1,1,.4V67h-.5c-.1-.1-.1.1-.1.1H129v-.4h.2a13.7,13.7,0,0,1-1.5-2.5c-.1-.1-.1-.3-.2-.4s-.1-.1-.1-.2a1.7,1.7,0,0,0-.2-.5v-.3l-.2-.3a.4.4,0,0,0-.1-.3v-.9l.5-.3h0l-.7-.3.3-.2.3-.2.3-.2h.1c.1-.1.2-.1.2-.2s.1-.1.2-.2h.1l.6-.7v-.2l.5-1.7v-.2s-.4-.1-.4-.2H128V55Zm-9.1-1.3c0,.1,0,.2-.1.2a5.7,5.7,0,0,1-.8-2.6l4.7.7h2.7a4.5,4.5,0,0,1-.5.8h-.1c-.2,0-.5.3-.5.3H124v-.4h-.2l-.2.5H122a2.4,2.4,0,0,0-3.1,1.3m5-1.5h0Zm7.9,21.1-.8.5a8.7,8.7,0,0,1-3,1.2,7.4,7.4,0,0,1-3.1-.9l.2.3a17.2,17.2,0,0,1-2.7-6.6,41.8,41.8,0,0,1-1.3-7.7H121c-.1-.4-.2-.7-.1-.9a7.4,7.4,0,0,1-1.3-3.4h.4l1.4.4h.6a.8.8,0,0,1,.6.2c.2.2.4.3.5.2h.8l1.4.3.5.3.4.3a.5.5,0,0,0,.4-.3l.2-.3a.3.3,0,0,1-.1-.2l-.6-.4-1.1-.8v-.4a2,2,0,0,0,.2,1.1,2.2,2.2,0,0,0-.7,1.1h-.1c-.1-.8-.4-.9-.4-.9v-.7l.3-.9a4.3,4.3,0,0,0-.3-2,9,9,0,0,1,0,3.3.9.9,0,0,1-1.2-.1.7.7,0,0,0,.1-.5,1.3,1.3,0,0,1,.1-.6V54.4a3.9,3.9,0,0,0-.2-.6l-.2-.8h-.1a10.8,10.8,0,0,1,.4,1.9v1.5a.9.9,0,0,1-1.1-.3c0-.2.1-1.1.1-1.1h.2l-.2-.6V54h-.5a1.4,1.4,0,0,1-.2.4l-.3.2c-.1.1-.2.1.4.2V55h0l-.5.2a3.4,3.4,0,0,1-1.2-.4,2,2,0,0,1,0-1.1,2.3,2.3,0,0,1,2.9-1.1q1.4-.6,1.8.3h1.1c.5-.3.9-.2.9.1h.4a5.2,5.2,0,0,1,0,2.5c.2.1.5-.5.5-.5h.8a9.2,9.2,0,0,1,0,2.4l-.6.7-.7.5-.9.4c-.3.1-.4.2-.4.4a4.5,4.5,0,0,0,.5,1.3c.2.4.5.7.6.9l.6,1.5a16.9,16.9,0,0,0,2,3.4,10.2,10.2,0,0,1,1.3,1.8l.7-.4h.1a3,3,0,0,1,.2,1c.1.6.3,1.2.5,2s.1,1.3.2,3.1Zm6.3-.1-2.4,1h-.2v1h-.3s-.3-.7-.6-.8l-.3-.2h-.1l-.3-.4v-.2l-.3-.4c-.1-.2-.1-.4-.3-.8l-.4-.8-.4-.8a6.4,6.4,0,0,0-.6-1.6,3.1,3.1,0,0,1-.2-.8.8.8,0,0,0-.2-.4c0-.2-.3-.4-.3-.4v-.2l-.2-.4-.3-.8c-.3-1.2,0-2,.9-2.3l2.4-1a1.5,1.5,0,0,1,1.6.3h.1c.1,0,.1.1.1.2l.3.5.3.7,1.9,4.9.3.9a2.6,2.6,0,0,1,.3,1.1,1.3,1.3,0,0,1-.8,1.9m3.9-11.8a7.7,7.7,0,0,0-.7,1.6,17,17,0,0,0-1,4.8c0,.4-.1.7-.1,1.1v1a.7.7,0,0,0,.1.5h-.3l-.7.3-.3-.9-2.2-5.8-.3-.7-.3-.5h0l4.1-1.8.7-.2,1.6-.4-.6.9m9.9,55.8c-7.8-6-15.4-14.2-22.8-24.8a98.9,98.9,0,0,0,14.9-9.2c1.8-1.3,3.6-2.6,5.3-4.1a101.1,101.1,0,0,0,9.1,11.4H158a4.2,4.2,0,0,0-1.2,2.2,2.8,2.8,0,0,0-.1.8l.4.3H157v.2l.3.2.3.3h.1c.1,0,.1,0,.1.2h.4l.2.2h.2a3.6,3.6,0,0,1,.3.7h.8l1.1-.4a.8.8,0,0,0,.2-.5v-.2h.6l.9.9.4.3a108.1,108.1,0,0,0,12.2,10.2,48.8,48.8,0,0,1-23.4,11.3m-9.2-21.1-2.9,1.7a83.1,83.1,0,0,0,15.2,15.7l.5-.3,2.4-1.4a83.1,83.1,0,0,1-15.2-15.7"/><path class="a" d="M153.1,90.4l-2.5,1.8A90.2,90.2,0,0,0,165.8,108l.4-.3,2.1-1.5a93.9,93.9,0,0,1-15.2-15.8M173,83.2h0Zm0-.2h0M162,95.3h0"/><path class="d" d="M165,81h0c.1.2.2.2.2,1h.1c.1-.8.2-.8.3-.9l.4.2h0l-.4.2c-.1,0-.1.1-.1.2s-.1.2-.2.4a.4.4,0,0,0-.1.3h-.1l-.4,1.4v.3a.8.8,0,0,1-.2.5,6.4,6.4,0,0,0-.2.7c-.1.2-.1.4-.2.6a1.7,1.7,0,0,0-.1-.7c0-.2-.1-.5-.1-.7a2.2,2.2,0,0,1-.1-.8,1.3,1.3,0,0,1,.3-1.3V81.2c-.5,0-.5-.3-.6-.5l.4.3h.4"/></svg>