<svg width="164" height="75" fill="none" xmlns="http://www.w3.org/2000/svg"><path d="M34.184 22.682l5.798-.28v10.764a.787.787 0 0 0 .25.665c.259.184.577.27.895.244h.86v1.258h-7.803v-1.258h.894a1.317 1.317 0 0 0 .967-.314c.22-.319.32-.701.286-1.084v-7.339a1.443 1.443 0 0 0-.286-1.014 1.438 1.438 0 0 0-1.11-.384h-.608l-.143-1.258zm3.579-7.304c.607 0 1.19.235 1.62.655.43.42.67.988.67 1.581.005.29-.05.58-.161.848-.112.27-.278.514-.488.72a2.266 2.266 0 0 1-1.605.634 2.314 2.314 0 0 1-1.576-.716 2.206 2.206 0 0 1-.608-1.59c-.002-.272.05-.542.154-.794.105-.252.26-.481.455-.674.425-.401.985-.637 1.575-.664" fill="#000"/><path d="M41.664 15.343l6.085-.315v17.894a.856.856 0 0 0 .322.769 1.189 1.189 0 0 0 .895.28h.823v1.258h-7.803V33.97h.895a1.243 1.243 0 0 0 .895-.314c.218-.28.32-.63.286-.979V18a1.435 1.435 0 0 0-.394-1.119 1.4 1.4 0 0 0-1.038-.384h-.966v-1.153zM62.496 11.603h21.475l.251 8.178h-1.646a8.675 8.675 0 0 0-1.826-5.138 5.71 5.71 0 0 0-2.028-1.25 5.819 5.819 0 0 0-2.374-.322h-3.58a1.503 1.503 0 0 0-1.145.35.992.992 0 0 0-.394.909v7.932h1.325c2.612 0 4.116-1.503 4.581-4.473h1.468v10.974H77.17a6.853 6.853 0 0 0-.68-2.936 3.917 3.917 0 0 0-1.074-1.503 4.338 4.338 0 0 0-2.183-.594h-1.647v8.562a1.163 1.163 0 0 0 .394.979c.34.31.787.485 1.253.49h2.183v1.502h-12.92V33.76h2.182a1.573 1.573 0 0 0 1.146-.384c.138-.132.247-.29.32-.464.074-.174.111-.361.11-.55V14.33a1.13 1.13 0 0 0-.394-.979 3.657 3.657 0 0 0-1.683-.28h-1.682v-1.467z" fill="#000"/><path d="M92.737 33.76l.572 1.049c-.451.348-.96.62-1.503.804a4.356 4.356 0 0 1-1.503.21 3.355 3.355 0 0 1-1.897-.49 4.444 4.444 0 0 1-1.36-1.852 10.038 10.038 0 0 1-2.506 1.852 5.772 5.772 0 0 1-2.541.49 4.506 4.506 0 0 1-3.007-1.014 2.845 2.845 0 0 1-.82-.993 2.775 2.775 0 0 1-.29-1.244 3.709 3.709 0 0 1 .56-1.915 3.83 3.83 0 0 1 1.481-1.37 25.053 25.053 0 0 1 7.158-1.922v-1.887c.02-.325-.033-.65-.157-.953a2.202 2.202 0 0 0-.558-.795 2.905 2.905 0 0 0-1.969-.699 3.648 3.648 0 0 0-1.682.42c-.322 0-.466.314-.466.489a.898.898 0 0 0 .18.42c.237.354.373.764.393 1.187.003.456-.177.895-.5 1.224a2.252 2.252 0 0 1-1.397.489 2.287 2.287 0 0 1-1.467-.524 1.78 1.78 0 0 1-.423-.59 1.747 1.747 0 0 1-.15-.704c.047-.459.205-.9.46-1.29.255-.388.6-.712 1.008-.946a7.906 7.906 0 0 1 4.58-1.258 9.068 9.068 0 0 1 3.58.629c.68.278 1.254.754 1.647 1.363.44.73.663 1.564.644 2.411v6.43c-.043.368.046.738.25 1.05a.915.915 0 0 0 .787.315c.38-.042.74-.187 1.039-.42l-.143.034zm-5.691-5.207a8.887 8.887 0 0 0-4.01 1.188 2.77 2.77 0 0 0-.787 1c-.18.388-.265.811-.25 1.237a1.949 1.949 0 0 0 .501 1.468 1.793 1.793 0 0 0 1.36.49c.43.017.858-.058 1.254-.22.396-.164.75-.411 1.037-.725a3.47 3.47 0 0 0 .7-1.26c.142-.464.184-.95.123-1.43l.072-1.748zM103.546 17.334h1.217v5.348h4.259v1.642h-4.259v7.829c-.034.452.106.901.394 1.258a1.473 1.473 0 0 0 1.109.42c1.289 0 1.969-1.154 2.041-3.496h1.252a6.845 6.845 0 0 1-.608 3.04 4.268 4.268 0 0 1-1.611 1.748 4.483 4.483 0 0 1-2.398.63 3.941 3.941 0 0 1-2.004-.455 3.144 3.144 0 0 1-1.36-1.363 4.344 4.344 0 0 1-.537-1.992v-7.619H98.75v-1.642a4.17 4.17 0 0 0 1.803-.295c.57-.23 1.08-.583 1.49-1.033a6.895 6.895 0 0 0 1.503-3.845" fill="#000"/><path d="M94.635 17.334h1.253v5.348h4.259v1.642h-4.259v7.829c-.034.452.106.901.394 1.258a1.427 1.427 0 0 0 1.11.42c1.288 0 2.004-1.154 2.075-3.496h1.217a6.845 6.845 0 0 1-.608 3.04 3.844 3.844 0 0 1-1.61 1.748c-.691.41-1.484.627-2.291.63a4.052 4.052 0 0 1-2.04-.455 3.535 3.535 0 0 1-1.36-1.363 4.32 4.32 0 0 1-.502-1.992v-7.619h-2.29v-1.642a4.168 4.168 0 0 0 1.822-.287 4.08 4.08 0 0 0 1.506-1.041 6.651 6.651 0 0 0 1.468-3.845M115.431 21.983a8.43 8.43 0 0 1 4.009.908 6.811 6.811 0 0 1 2.72 2.377 6.847 6.847 0 0 1 .859 3.495c.072.968-.1 1.938-.499 2.827a5.998 5.998 0 0 1-1.791 2.275 8.068 8.068 0 0 1-5.226 1.782 7.956 7.956 0 0 1-3.901-.838 6.629 6.629 0 0 1-2.667-2.488 6.417 6.417 0 0 1-.913-3.488 6.43 6.43 0 0 1 .528-2.664 6.563 6.563 0 0 1 1.584-2.23 7.19 7.19 0 0 1 2.446-1.492 7.316 7.316 0 0 1 2.851-.43v-.034zm0 1.328a2.663 2.663 0 0 0-1.313.312 2.583 2.583 0 0 0-.977.91 7.876 7.876 0 0 0-.824 4.334 8.42 8.42 0 0 0 .824 4.474c.238.382.575.696.977.91.402.216.855.323 1.313.313.461 0 .913-.116 1.314-.337.401-.22.738-.537.977-.921a7.611 7.611 0 0 0 .895-4.334 7.843 7.843 0 0 0-.895-4.648 2.625 2.625 0 0 0-.98-.906 2.702 2.702 0 0 0-1.311-.317M67.968 38.304h1.217v5.207h4.295v1.468h-4.295v8.038c-.017.456.135.903.43 1.258.137.141.305.251.49.324.185.072.384.105.583.096 1.325 0 2.005-1.189 2.076-3.495h1.253a7.5 7.5 0 0 1-.644 3.04 3.853 3.853 0 0 1-1.54 1.538c-.7.384-1.487.588-2.29.594a3.907 3.907 0 0 1-2.004-.42 3.146 3.146 0 0 1-1.36-1.362 3.95 3.95 0 0 1-.609-2.062v-7.584h-2.29v-1.468a4.204 4.204 0 0 0 1.805-.314 4.114 4.114 0 0 0 1.487-1.049 6.583 6.583 0 0 0 1.468-3.844M29.997 53.716a15.819 15.819 0 0 0 1.754 3.88c.13.174.295.32.486.43a1.6 1.6 0 0 0 .623.198.987.987 0 0 0 .481-.082.962.962 0 0 0 .378-.302c.254-.55.388-1.145.394-1.747h1.396a5.817 5.817 0 0 1-1.36 3.984 4.54 4.54 0 0 1-1.612 1.164 4.641 4.641 0 0 1-1.967.373 4.203 4.203 0 0 1-1.762-.313 4.115 4.115 0 0 1-1.46-1.015 8.036 8.036 0 0 1-1.36-4.753c-.494.048-.985.13-1.467.245h-1.468a11.482 11.482 0 0 1-4.598-.764 11.26 11.26 0 0 1-3.884-2.521 11.574 11.574 0 0 1-2.572-3.91A11.36 11.36 0 0 1 11.207 44a11.798 11.798 0 0 1 3.365-8.492c1.074-1.114 2.373-2 3.814-2.601a11.62 11.62 0 0 1 4.561-.894 11.73 11.73 0 0 1 4.596.888 11.498 11.498 0 0 1 3.851 2.607 11.49 11.49 0 0 1 2.667 3.818c.615 1.435.926 2.978.912 4.535a13.697 13.697 0 0 1-1.145 5.417 13.47 13.47 0 0 1-3.58 4.473l-.25-.035zm-1.36-3.67c.583-2.06.884-4.187.895-6.325a17.84 17.84 0 0 0-.788-5.837 7.024 7.024 0 0 0-2.54-3.075 5.313 5.313 0 0 0-3.222-.979 5.203 5.203 0 0 0-3.186.979 5.8 5.8 0 0 0-2.04 2.9 21.733 21.733 0 0 0-.823 6.431 16.762 16.762 0 0 0 1.217 7.2c-.018-.648.1-1.291.346-1.892.247-.601.616-1.147 1.085-1.603a5.158 5.158 0 0 1 3.58-1.224 5.21 5.21 0 0 1 3.042.84 6.658 6.658 0 0 1 2.29 2.55l.144.035zm-2.684 3.46v-.803a5.25 5.25 0 0 0-.895-3.495 3.024 3.024 0 0 0-3.973-.42l-.466.455c-.58.606-.9 1.407-.894 2.236-.003.87.286 1.717.823 2.412a5.403 5.403 0 0 0 2.434.559 5.419 5.419 0 0 0 1.682-.175c.481-.136.93-.361 1.324-.664" fill="#000"/><path d="M34.828 43.476l5.798-.314v8.422a2.582 2.582 0 0 0 .645 1.887c.212.226.473.403.764.518.291.115.605.165.918.147.448-.002.89-.107 1.288-.308.398-.2.742-.49 1.003-.846a4.2 4.2 0 0 0 .895-2.551v-4.229a1.437 1.437 0 0 0-.394-1.118 1.674 1.674 0 0 0-1.146-.35h-.644v-1.258l5.87-.314v10.24c-.015.2.016.4.09.588.075.188.19.356.34.495.294.239.656.385 1.038.42h.608v1.258h-5.19a13.159 13.159 0 0 1-.358-2.901 8.73 8.73 0 0 1-2.613 2.341 5.031 5.031 0 0 1-2.54.664 4.271 4.271 0 0 1-2.292-.489 3.517 3.517 0 0 1-1.467-1.712 6.604 6.604 0 0 1-.537-2.866v-4.928a1.54 1.54 0 0 0-.43-1.188 2.555 2.555 0 0 0-1.61-.35l-.036-1.258z" fill="#000"/><path d="M57.52 42.777a8.612 8.612 0 0 1 3.973.944 6.357 6.357 0 0 1 2.72 2.377 6.859 6.859 0 0 1 .895 3.494 5.92 5.92 0 0 1-.508 2.825 6.063 6.063 0 0 1-1.783 2.278 8.25 8.25 0 0 1-5.226 1.747 7.858 7.858 0 0 1-3.865-.664 6.874 6.874 0 0 1-2.649-2.481 6.21 6.21 0 0 1-.93-3.495c-.026-.92.149-1.836.513-2.685a6.501 6.501 0 0 1 1.598-2.243 7.175 7.175 0 0 1 2.413-1.561 7.314 7.314 0 0 1 2.849-.5v-.036zm0 1.294a2.628 2.628 0 0 0-1.316.307c-.403.215-.74.531-.975.916a8.354 8.354 0 0 0-.859 4.333 8.046 8.046 0 0 0 .86 4.474c.233.388.568.71.97.93.403.221.858.334 1.32.328a2.952 2.952 0 0 0 1.3-.361c.398-.219.737-.526.99-.897a8.05 8.05 0 0 0 .895-4.334 8.014 8.014 0 0 0-.895-4.473 2.62 2.62 0 0 0-.974-.926 2.699 2.699 0 0 0-1.316-.333M73.48 43.476l5.763-.244V53.96a.821.821 0 0 0 .25.699c.262.175.58.25.895.21h.86v1.258H73.48v-1.224h.859a1.209 1.209 0 0 0 .966-.314c.22-.319.32-.7.286-1.083v-7.34c.02-.2-.008-.403-.083-.591a1.293 1.293 0 0 0-.346-.492H73.48v-1.608zm3.58-7.269c.3.009.597.076.871.197.274.12.522.293.728.507.206.214.367.466.473.741.106.275.156.568.147.862a2.382 2.382 0 0 1-.609 1.432c-.21.21-.46.376-.737.49a2.301 2.301 0 0 1-2.484-.49 2.198 2.198 0 0 1-.483-.723 2.156 2.156 0 0 1-.161-.85 2.139 2.139 0 0 1 .608-1.537c.208-.21.459-.375.736-.483.278-.109.576-.159.875-.146M96.139 43.476l5.762-.244V53.96a.824.824 0 0 0 .251.699c.261.175.58.25.895.21h1.002v1.258h-7.91v-1.224h.751a1.209 1.209 0 0 0 .967-.314c.22-.319.32-.7.286-1.083v-7.34a1.437 1.437 0 0 0-.43-1.083h-1.682l.108-1.608zm3.579-7.269c.299.009.594.076.866.197.273.121.518.294.721.51a2.15 2.15 0 0 1 .596 1.6 1.957 1.957 0 0 1-.608 1.432c-.202.21-.446.378-.717.493a2.193 2.193 0 0 1-.858.172 2.319 2.319 0 0 1-1.61-.664c-.22-.2-.391-.445-.503-.717a1.95 1.95 0 0 1-.142-.856c-.01-.286.042-.571.153-.837.111-.265.279-.504.491-.701.208-.21.459-.375.736-.483.278-.109.576-.159.875-.146" fill="#000"/><path d="M87.62 36.102l6.442-.245v16.426a5.562 5.562 0 0 0 0 1.713c.106.26.294.48.537.629.46.09.935.09 1.395 0v1.258l-5.333.175-.393-2.447a7.525 7.525 0 0 1-2.291 2.062 5.479 5.479 0 0 1-2.47.49 5.629 5.629 0 0 1-2.365-.402 5.513 5.513 0 0 1-1.965-1.346 6.51 6.51 0 0 1-1.683-4.718 7.502 7.502 0 0 1 1.754-5.207 5.788 5.788 0 0 1 1.982-1.449 5.918 5.918 0 0 1 2.42-.508 5.363 5.363 0 0 1 2.542.629 5.414 5.414 0 0 1 1.968 1.922v-5.487c.09-.486.09-.983 0-1.468a1.118 1.118 0 0 0-.43-.629 3.666 3.666 0 0 0-1.324 0h-.787v-1.398zm-.466 8.423a2.589 2.589 0 0 0-1.345.362c-.405.24-.732.587-.946 1a7.634 7.634 0 0 0-.68 3.496 9.946 9.946 0 0 0 .394 3.075 3.49 3.49 0 0 0 1.002 1.503c.45.312.987.482 1.539.49a2.81 2.81 0 0 0 1.297-.315c.4-.208.741-.508.994-.874a6.251 6.251 0 0 0 1.145-3.95 5.91 5.91 0 0 0-1.074-3.494 2.836 2.836 0 0 0-.983-.92 2.915 2.915 0 0 0-1.307-.373M118.366 54.555l.573.979a7.707 7.707 0 0 1-1.503.803 4.138 4.138 0 0 1-1.468.175 3.356 3.356 0 0 1-1.933-.454 4.551 4.551 0 0 1-1.36-1.887 9.352 9.352 0 0 1-2.505 1.887 6.4 6.4 0 0 1-2.542.454 4.845 4.845 0 0 1-3.042-.839 2.879 2.879 0 0 1-.816-.994 2.809 2.809 0 0 1-.293-1.242c.01-.67.205-1.326.564-1.898a3.79 3.79 0 0 1 1.476-1.352 22.524 22.524 0 0 1 7.158-1.993v-1.782a2.357 2.357 0 0 0-.169-.963 2.4 2.4 0 0 0-.547-.82 2.868 2.868 0 0 0-1.968-.663 3.358 3.358 0 0 0-1.647.384c-.358 0-.501.315-.501.49a.748.748 0 0 0 0 .419c.238.355.374.765.394 1.188a1.667 1.667 0 0 1-.537 1.258 2.365 2.365 0 0 1-1.414.468 2.365 2.365 0 0 1-1.414-.468 1.739 1.739 0 0 1-.536-1.328 2.75 2.75 0 0 1 .428-1.294c.25-.39.595-.714 1.003-.943a7.873 7.873 0 0 1 4.582-1.223 9.69 9.69 0 0 1 3.579.594c.684.288 1.26.776 1.646 1.398.426.736.648 1.567.645 2.412v6.395c-.042.379.046.76.25 1.084a1.041 1.041 0 0 0 .752.314c.391-.062.76-.218 1.074-.454l.071-.105zm-5.906-5.172a9.538 9.538 0 0 0-4.008 1.223c-.34.267-.612.61-.792.998-.18.388-.265.813-.246 1.239a1.917 1.917 0 0 0 .501 1.432c.17.184.381.327.617.418.236.091.49.128.743.107a2.96 2.96 0 0 0 1.254-.22c.396-.163.75-.41 1.037-.724a3.757 3.757 0 0 0 .93-2.621l-.036-1.852z" fill="#000"/><path d="M135.046 54.904v1.259h-7.767v-1.258h.788a1.17 1.17 0 0 0 .854-.226 1.116 1.116 0 0 0 .434-.753v-5.732a3.125 3.125 0 0 0-.644-2.236 2.076 2.076 0 0 0-.764-.587 2.122 2.122 0 0 0-.954-.182 2.96 2.96 0 0 0-1.274.283 2.885 2.885 0 0 0-1.017.8 4.742 4.742 0 0 0-.895 3.076v4.229a1.135 1.135 0 0 0 .322.943.913.913 0 0 0 .824.315h1.002v1.258h-8.232v-1.189h1.038c.339.01.669-.102.93-.314a1.27 1.27 0 0 0 .322-.979v-7.514a1.185 1.185 0 0 0-.465-1.048 1.587 1.587 0 0 0-1.181-.384h-.537v-1.189l5.405-.28c.207.912.362 1.834.465 2.762a8.545 8.545 0 0 1 2.398-2.237 5.65 5.65 0 0 1 2.72-.734 4.06 4.06 0 0 1 1.662.306c.525.217.996.542 1.381.952a5.151 5.151 0 0 1 1.073 3.495v5.871c-.02.354.095.703.322.979.287.213.644.313 1.003.28l.787.035z" fill="#000"/><path d="M140.84 42.952c1.394-.004 2.554.145 3.794.769a6.294 6.294 0 0 1 2.863 2.376 6.552 6.552 0 0 1 .895 3.495 5.92 5.92 0 0 1-.508 2.825 6.056 6.056 0 0 1-1.783 2.278 8.286 8.286 0 0 1-5.261 1.747 7.75 7.75 0 0 1-3.758-.664 7.089 7.089 0 0 1-2.32-2.153 6.881 6.881 0 0 1-1.127-2.926 6.836 6.836 0 0 1 .291-3.112 6.971 6.971 0 0 1 1.652-2.678 7.178 7.178 0 0 1 2.426-1.505 7.312 7.312 0 0 1 2.836-.452zm0 1.258a2.736 2.736 0 0 0-1.308.322 2.66 2.66 0 0 0-.983.901 8.698 8.698 0 0 0-.823 4.334 8.42 8.42 0 0 0 .823 4.473c.237.387.573.706.974.927.402.22.856.335 1.317.332a2.882 2.882 0 0 0 1.304-.354c.399-.219.738-.53.987-.905a7.74 7.74 0 0 0 .894-4.333 8.006 8.006 0 0 0-.859-4.613 2.613 2.613 0 0 0-.974-.926c-.402-.221-.891-.16-1.352-.158z" fill="#000"/><path d="M39.395 59.832V62h-.36v-2.84h.28l1.76 2.212v-2.208h.36V62h-.304l-1.736-2.168zm3.87 2.188c-.2 0-.382-.04-.548-.12a1.399 1.399 0 0 1-.692-.788 1.525 1.525 0 0 1 .004-1.076c.07-.173.164-.327.284-.46.12-.133.262-.239.424-.316.166-.08.344-.12.536-.12.2 0 .382.043.544.128.163.083.303.192.42.328.118.136.208.29.272.464a1.481 1.481 0 0 1-.008 1.068c-.066.173-.16.327-.28.46-.117.13-.258.236-.424.316-.162.077-.34.116-.532.116zm-.972-1.44a1.194 1.194 0 0 0 .268.776.959.959 0 0 0 .308.248c.12.061.254.092.4.092a.853.853 0 0 0 .408-.096 1.01 1.01 0 0 0 .304-.256c.086-.107.15-.227.192-.36a1.246 1.246 0 0 0-.004-.82 1.035 1.035 0 0 0-.2-.356.958.958 0 0 0-.308-.248.834.834 0 0 0-.392-.092.853.853 0 0 0-.408.096c-.12.064-.222.148-.308.252a1.26 1.26 0 0 0-.26.764zm3.173-.748V62h-.36v-2.84h.28l1.76 2.212v-2.208h.36V62h-.304l-1.736-2.168zM49.196 62v-2.84h1.215c.126 0 .24.027.344.08.107.05.198.12.273.208a.94.94 0 0 1 .2.908.824.824 0 0 1-.309.44.713.713 0 0 1-.243.116L51.364 62h-.408l-.649-1.02h-.752V62h-.36zm.36-1.34h.86a.411.411 0 0 0 .2-.048.486.486 0 0 0 .156-.128.704.704 0 0 0 .136-.416.57.57 0 0 0-.044-.224.578.578 0 0 0-.112-.188.45.45 0 0 0-.165-.128.418.418 0 0 0-.196-.048h-.835v1.18zM51.824 62v-2.84h.36V62h-.36zm.855-1.44c0-.17.03-.34.088-.508.062-.17.15-.323.264-.456a1.278 1.278 0 0 1 1-.452c.254 0 .471.057.652.172.182.115.316.264.404.448l-.284.184a.797.797 0 0 0-.352-.376.813.813 0 0 0-.216-.08 1.048 1.048 0 0 0-.22-.024.865.865 0 0 0-.42.1.94.94 0 0 0-.304.256 1.112 1.112 0 0 0-.188.356c-.04.13-.06.263-.06.396 0 .15.024.292.072.428.051.133.12.252.208.356.088.104.192.187.312.248a.85.85 0 0 0 .392.092.967.967 0 0 0 .456-.116c.072-.043.14-.095.2-.156a.769.769 0 0 0 .156-.228l.3.164a.89.89 0 0 1-.192.284 1.365 1.365 0 0 1-.936.376c-.194 0-.373-.043-.536-.128a1.473 1.473 0 0 1-.424-.332 1.62 1.62 0 0 1-.276-.468 1.558 1.558 0 0 1-.096-.536zm4.839 1.12V62H55.59v-2.84h1.892v.32H55.95v.92h1.332v.3H55.95v.98h1.568zm.574-2.52l.94 2.388.936-2.388h.38L59.188 62h-.312l-1.164-2.84h.38zm4.567 2.52V62H60.73v-2.84h1.892v.32H61.09v.92h1.332v.3H61.09v.98h1.568zm2.244-2.52h.304l1.16 2.84h-.384l-.336-.832h-1.192l-.332.832h-.384l1.164-2.84zm.664 1.728l-.512-1.312-.528 1.312h1.04zM66.747 62v-2.84h.36v2.52h1.583V62h-1.944zm2.061-1.44c0-.17.03-.34.088-.508.062-.17.15-.323.264-.456a1.278 1.278 0 0 1 1-.452c.254 0 .471.057.652.172.182.115.316.264.404.448l-.284.184a.797.797 0 0 0-.352-.376.813.813 0 0 0-.216-.08 1.048 1.048 0 0 0-.22-.024.865.865 0 0 0-.42.1.94.94 0 0 0-.304.256 1.112 1.112 0 0 0-.188.356c-.04.13-.06.263-.06.396 0 .15.024.292.072.428.051.133.12.252.208.356.088.104.192.187.312.248a.85.85 0 0 0 .392.092.967.967 0 0 0 .456-.116c.072-.043.139-.095.2-.156a.769.769 0 0 0 .156-.228l.3.164a.89.89 0 0 1-.192.284 1.365 1.365 0 0 1-.936.376c-.194 0-.373-.043-.536-.128a1.473 1.473 0 0 1-.424-.332 1.62 1.62 0 0 1-.276-.468 1.558 1.558 0 0 1-.096-.536zm4.079 1.136a.805.805 0 0 0 .412-.096.75.75 0 0 0 .26-.248c.067-.104.113-.221.14-.352.027-.133.04-.268.04-.404V59.16h.36v1.436c0 .192-.023.375-.068.548-.043.17-.112.321-.208.452-.096.13-.221.235-.376.312a1.252 1.252 0 0 1-.556.112c-.227 0-.417-.04-.572-.12a1.064 1.064 0 0 1-.376-.316 1.364 1.364 0 0 1-.204-.456c-.04-.173-.06-.35-.06-.532V59.16h.36v1.436c0 .141.013.279.04.412.03.13.076.247.14.348a.798.798 0 0 0 .26.248c.11.061.245.092.408.092zm2.211-1.864V62h-.36v-2.84h.28l1.76 2.212v-2.208h.36V62h-.304l-1.736-2.168zM78.828 62v-2.84h1.876v.32h-1.516v.948h1.276v.3h-1.276V62h-.36zm2.332 0v-2.84h.36V62h-.36zm1.4-2.168V62h-.36v-2.84h.28l1.76 2.212v-2.208h.36V62h-.305l-1.736-2.168zm3.581-.672h.304l1.16 2.84h-.383l-.337-.832h-1.192l-.331.832h-.384l1.163-2.84zm.664 1.728l-.512-1.312-.528 1.312h1.04zm1.54-1.056V62h-.36v-2.84h.28l1.76 2.212v-2.208h.36V62h-.305l-1.736-2.168zm2.506 1.888l1.832-2.24h-1.796v-.32h2.216v.28l-1.8 2.24h1.8V62H90.85v-.28zm2.735.28v-2.84h.36V62h-.36zm1.903-2.84h.304l1.16 2.84h-.384l-.336-.832h-1.192L94.71 62h-.384l1.164-2.84zm.664 1.728l-.512-1.312-.528 1.312h1.04zM99.788 62v-2.196l-.944 1.684h-.204l-.948-1.684V62h-.36v-2.84h.38l1.028 1.844 1.032-1.844h.376V62h-.36zm2.968-.32V62h-1.928v-2.84h1.892v.32h-1.532v.92h1.332v.3h-1.332v.98h1.568zm.854-1.848V62h-.36v-2.84h.28l1.76 2.212v-2.208h.36V62h-.304l-1.736-2.168zm4.766-.352h-.98V62h-.36v-2.52h-.98v-.32h2.32v.32zm1.475 2.54c-.2 0-.382-.04-.548-.12a1.414 1.414 0 0 1-.42-.324 1.525 1.525 0 0 1-.268-1.54c.07-.173.164-.327.284-.46.12-.133.262-.239.424-.316.166-.08.344-.12.536-.12.2 0 .382.043.544.128.163.083.303.192.42.328.118.136.208.29.272.464a1.481 1.481 0 0 1-.008 1.068c-.066.173-.16.327-.28.46-.117.13-.258.236-.424.316-.162.077-.34.116-.532.116zm-.972-1.44a1.201 1.201 0 0 0 .268.776.965.965 0 0 0 .308.248c.12.061.254.092.4.092a.853.853 0 0 0 .408-.096c.12-.067.222-.152.304-.256a1.09 1.09 0 0 0 .192-.36 1.23 1.23 0 0 0-.004-.82 1.03 1.03 0 0 0-.2-.356.954.954 0 0 0-.308-.248.833.833 0 0 0-.392-.092.853.853 0 0 0-.408.096c-.12.064-.222.148-.308.252a1.268 1.268 0 0 0-.26.764zm3.824 1.42v-2.84h1.184c.126 0 .24.027.344.08.107.05.198.12.272.208a.915.915 0 0 1 .18.292.87.87 0 0 1 .064.328c0 .117-.02.23-.06.34a.912.912 0 0 1-.172.292.8.8 0 0 1-.264.204.746.746 0 0 1-.34.076h-.848V62h-.36zm.36-1.34h.828a.439.439 0 0 0 .356-.172.716.716 0 0 0 .136-.42.596.596 0 0 0-.044-.232.566.566 0 0 0-.276-.312.446.446 0 0 0-.196-.044h-.804v1.18zm3.3 1.036a.803.803 0 0 0 .412-.096.743.743 0 0 0 .26-.248c.067-.104.114-.221.14-.352a2.03 2.03 0 0 0 .04-.404V59.16h.36v1.436c0 .192-.022.375-.068.548-.042.17-.112.321-.208.452-.096.13-.221.235-.376.312a1.25 1.25 0 0 1-.556.112c-.226 0-.417-.04-.572-.12a1.07 1.07 0 0 1-.376-.316 1.376 1.376 0 0 1-.204-.456c-.04-.173-.06-.35-.06-.532V59.16h.36v1.436c0 .141.014.279.04.412.03.13.076.247.14.348a.808.808 0 0 0 .26.248c.11.061.246.092.408.092zm4.032-.428c0 .11-.023.21-.068.3a.673.673 0 0 1-.18.232.805.805 0 0 1-.264.148.958.958 0 0 1-.32.052h-1.348v-2.84h1.412a.56.56 0 0 1 .268.064.696.696 0 0 1 .332.4.748.748 0 0 1-.06.652.636.636 0 0 1-.3.268.739.739 0 0 1 .528.724zm-.364-.064a.481.481 0 0 0-.036-.184.469.469 0 0 0-.228-.268.387.387 0 0 0-.176-.04h-1.016v.976h.988a.42.42 0 0 0 .184-.04.534.534 0 0 0 .148-.104.497.497 0 0 0 .136-.34zm-1.456-1.732v.948h.904a.423.423 0 0 0 .176-.036.44.44 0 0 0 .136-.104.441.441 0 0 0 .092-.148.481.481 0 0 0 .036-.184.554.554 0 0 0-.032-.188.474.474 0 0 0-.088-.152.36.36 0 0 0-.132-.1.378.378 0 0 0-.164-.036h-.928zm4.504 1.796c0 .11-.023.21-.068.3a.673.673 0 0 1-.18.232.805.805 0 0 1-.264.148.962.962 0 0 1-.32.052h-1.348v-2.84h1.412c.098 0 .188.021.268.064a.714.714 0 0 1 .332.4.748.748 0 0 1-.06.652c-.07.12-.17.21-.3.268a.739.739 0 0 1 .528.724zm-.364-.064a.481.481 0 0 0-.036-.184.486.486 0 0 0-.228-.268.39.39 0 0 0-.176-.04h-1.016v.976h.988a.424.424 0 0 0 .184-.04.534.534 0 0 0 .148-.104.515.515 0 0 0 .136-.34zm-1.456-1.732v.948h.904a.426.426 0 0 0 .176-.036.452.452 0 0 0 .136-.104.458.458 0 0 0 .092-.148.481.481 0 0 0 .036-.184.554.554 0 0 0-.032-.188.493.493 0 0 0-.088-.152.381.381 0 0 0-.296-.136h-.928zM123.582 62v-2.84h.36v2.52h1.584V62h-1.944zm2.336 0v-2.84h.36V62h-.36zm.855-1.44a1.464 1.464 0 0 1 .352-.964 1.28 1.28 0 0 1 1-.452c.254 0 .471.057.652.172.182.115.316.264.404.448l-.284.184a.774.774 0 0 0-.156-.228.806.806 0 0 0-.412-.228 1.043 1.043 0 0 0-.22-.024.867.867 0 0 0-.42.1.943.943 0 0 0-.304.256 1.13 1.13 0 0 0-.188.356c-.04.13-.06.263-.06.396 0 .15.024.292.072.428.051.133.12.252.208.356.088.104.192.187.312.248a.85.85 0 0 0 .392.092.964.964 0 0 0 .456-.116c.072-.043.139-.095.2-.156a.769.769 0 0 0 .156-.228l.3.164a.88.88 0 0 1-.192.284 1.355 1.355 0 0 1-.6.332c-.114.03-.226.044-.336.044a1.14 1.14 0 0 1-.536-.128 1.481 1.481 0 0 1-.424-.332 1.634 1.634 0 0 1-.276-.468 1.558 1.558 0 0 1-.096-.536zm4.032 1.46c-.2 0-.383-.04-.548-.12a1.389 1.389 0 0 1-.692-.788 1.525 1.525 0 0 1 .004-1.076c.069-.173.164-.327.284-.46.12-.133.261-.239.424-.316.165-.08.344-.12.536-.12.2 0 .381.043.544.128.162.083.302.192.42.328.117.136.208.29.272.464a1.481 1.481 0 0 1-.008 1.068c-.067.173-.16.327-.28.46-.118.13-.259.236-.424.316-.163.077-.34.116-.532.116zm-.972-1.44c0 .144.022.284.067.42.049.133.115.252.201.356a.954.954 0 0 0 .308.248c.12.061.253.092.4.092a.853.853 0 0 0 .408-.096c.12-.067.221-.152.304-.256.085-.107.149-.227.192-.36a1.256 1.256 0 0 0-.004-.82 1.046 1.046 0 0 0-.2-.356.965.965 0 0 0-.308-.248.836.836 0 0 0-.392-.092.853.853 0 0 0-.408.096c-.12.064-.223.148-.308.252a1.184 1.184 0 0 0-.193.356c-.045.133-.067.27-.067.408z" fill="#BFBFBF"/><path d="M55.409 32.558c-.227-.532-.358-1.088-.49-1.645-.086-.373-.161-.745-.247-1.158-.121.308-.379.403-.631.497-.238.085-.465.204-.712.259-.228.05-.45.03-.627-.13-.116-.104-.202-.084-.318-.024a4.404 4.404 0 0 1-.97.377c-.666.174-1.05.04-1.51-.527-.353-.437-.545-.959-.69-1.486-.248-.89-.47-1.789-.526-2.713a.998.998 0 0 0-.131-.442 2.95 2.95 0 0 1-.278-.736c-.015-.06-.01-.14-.091-.174-.495-.214-.692-.636-.803-1.113-.025-.105-.045-.17-.177-.15-.075.01-.146-.04-.156-.109-.025-.144-.131-.144-.237-.159-.495-.07-.99-.144-1.485-.213a1.346 1.346 0 0 0-.283-.01c-.474.024-.818-.194-.99-.632-.176-.457-.181-.934-.13-1.406.15-1.327.65-2.51 1.448-3.569.223-.293.48-.546.783-.755.475-.333.98-.313 1.44.06.817.66 1.686 1.257 2.534 1.883 1.666 1.228 3.333 2.45 5 3.678.035.025.07.05.105.08.081.07.182.06.273.07.146.014.08-.13.116-.195.101-.203.238-.397.217-.646-.005-.074-.005-.144-.045-.208-.207-.363-.41-.731-.621-1.094-.324-.552-.243-.954.267-1.337.323-.243.677-.358 1.086-.293.056.01.111.005.167-.02.636-.239 1.282-.239 1.888.05.91.432 1.758.969 2.525 1.62a.208.208 0 0 1-.182.134c-.262-.12-.46-.328-.697-.482-.525-.348-1.05-.7-1.62-.979-.566-.278-1.167-.343-1.748-.104-.288.119-.59.104-.873.193a.692.692 0 0 0-.343.209.137.137 0 0 1-.061.045c-.066.02-.106.07-.137.13-.05.089-.075.178-.04.277.015.08.025.16-.005.239-.01.025-.015 0-.005.015.015.025.01-.025.03-.015.121.13.172.298.258.442.131.224.262.453.373.686.02.045.036.114.116.07.091.064-.02.179.066.243.025.075-.01.14-.025.209a.421.421 0 0 0-.025.16c0 .054 0 .108-.016.163-.02.07-.045.14-.075.204-.116.184-.197.373-.106.586.03.03.07.025.11.02.072.005.127.04.188.07l.045.03c.04.034.08.07.116.109.111.13.172.278.197.442.005.13.01.264-.01.393-.086.402-.303.71-.687.89l-.035.014c-.076.04-.207.015-.212.15-.005.124.08.193.177.243.267.144.56.184.863.174.066 0 .136-.03.202.015a.24.24 0 0 1 .04.114.427.427 0 0 1-.015.16 1.83 1.83 0 0 0 0 .62c.01.055.016.11.016.165-.01.064 0 .139-.091.159-.117-.055-.081-.164-.091-.254-.015-.169.055-.348-.04-.512-.258.045-.405.17-.41.448-.005.144-.07.288-.1.437-.02.06-.031.12-.051.179-.05.139.025.144.131.119.111.035.121.144.172.224.055.094.116.189.161.288.02.035.046.07.071.104.106.144.212.293.333.428.137.139.278.278.425.412.14.095.227-.054.338-.08a.843.843 0 0 0 .313-.248c.07-.044.156-.074.227-.124.278-.184.566-.353.823-.567.05-.034.096-.08.142-.119.106-.094.106-.189.01-.288-.056-.055-.132-.104-.111-.199.065-.084.126-.025.176.01.091.065.152.15.197.248.036.08.076.16.121.234.066.114.127.124.213.015.171-.224.333-.457.449-.716.03-.064.05-.149.151-.144.324.03.38.095.394.423.01.228.016.457.01.685 0 .07.006.135.03.204.036.363-.004.726.046 1.089.02.139.04.278.056.422.025.214.161.388.222.592 0 .084-.056.149-.066.233-.02.15-.015.268.172.313.111.03.136.12.131.239l-.015.745c0 .07-.005.15.086.17.227.044.232.218.237.387 0 .03 0 .065-.005.094.026.269.046.532.086.8.01.06.015.125-.005.184-.055.045-.111.09-.1.18.04.313 0 .63.024.949.016.194-.025.243-.237.263.02.055.116.06.101.14-.146.208-.374.258-.606.278-.141.01-.288.014-.434 0-.227-.02-.43.064-.637.134-.202-.045-.318-.204-.439-.343a36.427 36.427 0 0 1-1.949-2.44c-.015-.02.005.005-.01-.015-.167-.234-.167-.234-.43-.14-.105-.024-.211-.01-.317-.02-.122-.01-.212.016-.233.155-.005.034-.03.09-.055.09-.258-.006-.243.327-.465.362-.025.005-.04.03-.025.06.08.149-.05.173-.131.203-.132.04-.268.04-.354-.094-.055-.08-.09-.174-.192-.224.046.065.026.115-.03.164z" fill="#000"/><path d="M61.807 31.833c-.015-.08-.03-.154-.035-.234-.005-.11-.076-.169-.167-.159-.136.015-.136-.07-.136-.144 0-.288.01-.572.025-.86.005-.094-.035-.134-.11-.169-.071-.035-.178.01-.203-.1a.614.614 0 0 1 .036-.367c.015-.035.035-.065.05-.095.091.045.116.145.187.21.086.099.161.104.273.024.192-.14.419-.219.64-.308.137-.06.284-.104.41-.184.177-.124.389-.179.586-.263.141-.065.166-.14.106-.274a12.499 12.499 0 0 0-1.076-1.953.666.666 0 0 0-.257-.214c-.319-.174-.662-.288-.99-.427-.162-.03-.06.1-.091.15 0 .034-.005.069-.015.108-.025.075-.02.15-.02.224 0 .05-.005.1-.016.15-.03.099-.02.198-.02.297 0 .085.005.17-.01.254a.106.106 0 0 1-.05.08c-.06-.065-.03-.145-.036-.214-.005-.274-.005-.542-.035-.81-.015-.17-.1-.22-.247-.2-.061.01-.096.01-.106-.059-.056-.074-.01-.144.01-.214.07-.233-.05-.392-.303-.392-.036 0-.076.01-.111.005a.096.096 0 0 1-.05-.025c-.016-.03-.011-.07.014-.085.207-.109.313-.333.51-.447.06-.03.091-.09.147-.13.04-.024.08-.049.11-.084.051-.05.077-.124.162-.139.04 0 .081.005.122-.005.212-.134.388-.308.575-.472.056-.05.101-.11.177-.13.106.006.136-.064.141-.153.04-.16.197-.239.273-.373.121-.224.222-.452.288-.7.025-.06.02-.125.02-.19v-.228c0-.065.01-.13-.025-.189a2.103 2.103 0 0 0-.46-.845.377.377 0 0 1-.08-.184c-.046-.283-.203-.472-.46-.596-.056-.035-.121-.03-.182-.035a.774.774 0 0 1-.454-.378l.166-.119.212.194c.061.139.203.074.303.11a.98.98 0 0 1 .344.158c.01.035.035.055.07.065a.96.96 0 0 1 .203.363c.02.09.02.189.07.268.258.263.41.581.5.93.04.059-.005.134.03.193.02.09.02.174.005.264-.04.084-.005.178-.035.268-.06.199-.131.388-.217.576-.152.343-.43.577-.672.84a.528.528 0 0 0-.106.105c-.308.263-.616.532-.929.795-.065-.005-.1.04-.141.08-.086.034-.111.094-.015.129.141.054.207.159.247.288.035.114.162.08.227.144.056.045.132.05.197.07l.106.045c.026.034.066.024.106.034.132.05.263.095.39.144.388.15.691.378.903.756.318.561.636 1.123.904 1.71.025.06.04.124.136.134.273.035.42.213.505.452.096.278.182.557.268.84a.68.68 0 0 1-.101.626c-.06.085-.06.16-.035.259.116.492.222.984.313 1.48.06.319-.071.617-.197.905-.313.726-.828 1.312-1.384 1.859-.187.184-.389.358-.586.537-.171.154-.373.283-.424.531a.123.123 0 0 1-.05.08c-.223.13-.101.219.025.333 1.03.94 2.106 1.819 3.252 2.624.273.189.273.353.005.562a17.068 17.068 0 0 1-4.944 2.669 17.97 17.97 0 0 1-2.16.581.575.575 0 0 1-.51-.11c-2.112-1.6-3.91-3.498-5.54-5.56a39.46 39.46 0 0 1-1.243-1.656c-.181-.253-.151-.387.122-.521a31.034 31.034 0 0 0 4.004-2.366c.157-.11.263-.204.162-.403-.01-.06.035-.12-.016-.189.096.005.162.04.207.115.152.248.268.268.5.094-.035-.035-.11-.05-.096-.114.01-.065.076-.05.122-.06.106-.03.186-.084.181-.204-.005-.099.04-.144.137-.114.151.05.176-.065.171-.15-.01-.113.04-.128.127-.123.151.01.308-.06.454.03-.04.124-.156.174-.252.243-1.293.994-2.626 1.923-4.05 2.724a25.1 25.1 0 0 1-1.359.715c-.186.09-.186.105-.065.274a40.159 40.159 0 0 0 2.58 3.24c.384.432.788.845 1.192 1.262.858.875 1.777 1.69 2.747 2.446.141.109.278.144.454.109a16.778 16.778 0 0 0 4.6-1.68 17.287 17.287 0 0 0 2.147-1.387c.166-.124.171-.134.005-.248a33.38 33.38 0 0 1-2.202-1.725c-.252-.208-.495-.432-.742-.646-.07-.06-.152-.119-.167-.218.05-.075.056-.145-.03-.2-.02-.014.005.006-.015-.01-.263-.262-.268-.262.01-.496a.642.642 0 0 0 .227-.393c.101-.149.258-.238.389-.353.631-.546 1.197-1.153 1.616-1.873.197-.343.358-.706.318-1.119-.091-.497-.202-.989-.318-1.48-.015-.07-.04-.125-.126-.08-.45.233-.92.422-1.369.656-.04.02-.08.05-.066.1.02.064.046.133.112.168.06.035.085-.035.116-.07.12-.123.237-.263.424-.297.076 0 .187-.025.207.05.025.089-.096.094-.157.119a.816.816 0 0 0-.282.183c-.122.09-.167.244-.288.333-.06.01-.071.06-.081.11-.212.318-.333.67-.45 1.029a4.206 4.206 0 0 1-.338.77c-.066.12-.136.243-.298.258a.443.443 0 0 0-.106-.035c-.065-.01-.09-.044-.07-.104.015-.054.065-.045.11-.04.137.025.172-.01.162-.144-.01-.144-.01-.288.005-.432.02-.219-.03-.438-.02-.656.005-.095.035-.13.116-.05.015.01.025.025.03.045.016.06.016.12.036.179l.015.074c.015.085-.04.18.05.244a.046.046 0 0 0 .036-.015c.03-.06.005-.12.015-.179.096-.338.192-.676.338-.999.036-.08.06-.159.046-.248-.01-.025.02-.05 0-.075 0 .015-.01.02-.026.025-.025.005-.045.01-.07.01-.121.015-.243.02-.369.015-.076-.035-.151-.055-.177-.154z" fill="#000"/><path d="M61.615 20.486c-.116-.005-.262.085-.303-.11.102.036.203.075.303.11zM62.301 21.35c-.08-.074-.075-.173-.07-.268.045.08.06.174.07.269zM62.802 23.006a.315.315 0 0 1 .035-.268c.005.089.01.178-.035.268zM61.398 26.028c-.086.024-.156.03-.197-.07a.281.281 0 0 1 .197.07zM60.742 25.401c.02-.064.056-.114.142-.079-.036.045-.076.085-.142.08zM62.03 20.715c-.026.015-.056.04-.081 0-.01-.015.005-.045.01-.065.04.005.065.025.07.065zM62.832 22.474c-.06-.055-.025-.13-.03-.194.04.06.035.124.03.194zM61.61 26.112c-.05.025-.096.05-.106-.035.045-.015.08-.01.106.035zM61.807 24.522c.005-.065.04-.1.106-.104a.141.141 0 0 1-.106.104z" fill="#000"/><path d="M62.105 36.942c.98.924 2.035 1.764 3.13 2.554.066.05.132.095.208.154a16.31 16.31 0 0 1-1.995 1.352c-1.59.92-3.297 1.55-5.105 1.919-.116.025-.192-.01-.278-.075-1.954-1.476-3.636-3.22-5.166-5.109a53.44 53.44 0 0 1-1.52-1.993c-.08-.114-.085-.159.05-.224 1.485-.715 2.88-1.575 4.217-2.524.526-.373 1.035-.776 1.556-1.163.262-.15.262-.15.444.104.58.795 1.192 1.566 1.833 2.316.162.189.333.358.52.517.015.064-.025.104-.07.134a.723.723 0 0 0-.299.447c-.03.08-.02.16-.025.239-.005.06.015.14-.05.169-.071.03-.106-.05-.147-.095-.227-.253-.434-.521-.646-.785-.142-.179-.136-.179-.323-.05-.121.08-.233.175-.359.25-.121.069-.116.133-.04.238a25.337 25.337 0 0 0 2.626 2.883c.535.506 1.09.988 1.666 1.45.121.1.227.115.353.015.112-.09.233-.174.354-.248.116-.075.126-.13.01-.224a27.3 27.3 0 0 1-2.47-2.221c-.292-.299-.58-.607-.858-.925-.05-.054-.12-.114-.08-.208.12-.035.186.03.247.119.06.094.136.164.268.114.065-.025.11 0 .136.065.015.035.025.074.06.094.203.094.425.114.637.189.066.025.116-.055.156-.114.04-.06.056-.145.157-.134.237.243.51.457.757.69.026.025.04.05.046.08z" fill="#FEFEFE"/><path d="M50.388 26.227c.258.61.57 1.192.985 1.72.131.282.293.55.333.869a.96.96 0 0 0-.086-.413c-.025-.054-.07-.109-.015-.174l.197-.104c.046 0 .076.02.086.06.046.109.076.218.106.333.116.377.192.76.202 1.153 0 .074.02.159-.055.204-.354.218-.702.452-1.137.477-.338.02-.646-.08-.924-.279-.328-.407-.505-.89-.646-1.381-.253-.895-.465-1.795-.53-2.724a1.071 1.071 0 0 0-.162-.527c-.161-.248-.232-.537-.288-.825.046-.054.111-.03.157-.015.262.07.535.09.783.224.065.035.13.04.202.035a1.29 1.29 0 0 1 .691.159c.076.04.157.09.217-.005.061-.1-.04-.144-.1-.184-.097-.065-.187-.124-.238-.224.005.239-.086.308-.313.229-.05-.055-.045-.124-.045-.194 0-.233.025-.467-.016-.7l-.015-.045c.005.034.02.07.03.104.016.174.006.353.006.527 0 .119-.01.238-.142.293a.26.26 0 0 1-.267-.03c-.096-.074-.05-.164-.03-.253.035-.095.02-.194.024-.289v.1c0 .06-.01.12-.025.184-.025.1-.08.169-.192.164-.1-.005-.202-.025-.212-.154l.015-.19a.42.42 0 0 1-.09-.158c-.016-.04-.03-.09-.091-.07-.046.015-.076.05-.056.1.02.054.01.099-.045.124-.152-.015-.328-.02-.39-.18-.07-.183.026-.337.168-.466a.503.503 0 0 1 .297-.15c.243-.02.49.026.733-.03.015-.004.04 0 .055.01.207.175.445.12.677.09.106-.01.182.035.222.134a.833.833 0 0 1 .056.552c-.04.15.01.189.151.189.232 0 .252.03.252.253 0 .21-.09.373-.257.497-.086.065-.172.125-.263.19-.328.114-.343.148-.186.466.055.105.12.21.171.324zM60.058 25.655c.01 0 .025.005.035.01 0 .12-.095.174-.171.233-.41.334-.823.662-1.237.99-.06.05-.122.119-.218.08-.075-.066-.156-.03-.232 0a4.359 4.359 0 0 1-.429.143c-.151.04-.278 0-.363-.129-.177-.263-.283-.547-.152-.865.02-.044.015-.11.076-.12.055-.014.09.036.126.07.05.055.09.174.182.12.08-.045.02-.154-.005-.224a1.915 1.915 0 0 1-.096-.825c.06-.065.136-.055.212-.04.177.03.348.07.52.11.177.04.207.094.157.268a5.214 5.214 0 0 1-.344.79c-.066.13-.131.254-.182.388.127-.234.318-.422.47-.636.111-.16.222-.313.273-.512a.716.716 0 0 0-.081-.557l-.05-.03a6.947 6.947 0 0 1-1.102-.263c-.242-.084-.49-.015-.732.005-.237.02-.464-.03-.692-.065-.04-.005-.09-.02-.08-.08.343-.178.55-.456.641-.83.111 0 .096.1.121.16.046.104.076.214.172.283.05.035.106.055.161.025.071-.04.036-.104.01-.15-.105-.178-.085-.342-.01-.53.127-.304.071-.612-.015-.915a.44.44 0 0 0-.09-.164c-.086-.095-.142-.085-.192.03-.091.193-.132.208-.319.104-.07-.04-.136-.085-.217-.114-.222-.085-.222-.085-.126-.319.101-.03.222-.024.298-.114.146-.02.283-.015.394.105.05.054.126.04.192.044.141.07.288.125.454.065-.086-.05-.252-.025-.227-.144.015-.09.177-.07.273-.07.171.005.323.1.48.17.08.024.191.118.237.054.065-.09-.066-.154-.121-.219-.112-.124-.253-.199-.4-.278-.045-.025-.116-.045-.1-.12.01-.054.065-.074.116-.084.126-.03.252-.075.384-.1.12 0 .227.07.353.055.106-.02.182.04.263.085.262.149.52.303.792.442.268.134.455.373.652.597.222.253.429.526.651.78.081.09.116.179-.01.263-.121-.064-.106-.243-.252-.283-.142-.095-.288-.15-.465-.09-.263.095-.394.483-.232.706.035.05.06.11.08.164.026.06.036.144.117.154.075.01.096-.07.131-.114.096-.189.08-.268-.076-.442-.172-.1-.166-.16 0-.274.05.015.096.025.147.01.12-.04.242-.06.318.07.08.129.096.268.02.407-.04.07-.096.13-.116.214a.678.678 0 0 1-.414.298c-.152.04-.303.075-.46.11-.131-.01-.267 0-.353-.125.01-.144.156-.154.237-.228.025-.02.08-.02.066-.07-.01-.04-.056-.05-.091-.055-.111-.02-.172.05-.232.125a1.015 1.015 0 0 0-.268.353c-.066.129-.015.203.131.208.238.01.46-.06.677-.139.192-.045.374-.114.515-.253.03-.03.076-.065.116-.035.045.04.01.094-.02.134-.091.13-.167.263-.268.383-.242.283-.217.497-.01.8z" fill="#fff"/><path d="M56.4 25.466c-.031.01-.072.015-.087.035-.181.288-.5.258-.772.293-.5.06-.96.214-1.41.427-.12.06-.246.1-.363.155-.171.08-.333.144-.53.03-.166-.095-.358-.04-.535.03-.242.089-.485.183-.727.277-.394.155-.53.373-.52.796v.144a3.35 3.35 0 0 1-.586-.915c-.136-.293-.248-.596-.379-.894-.05-.114-.045-.174.076-.249.273-.174.525-.377.57-.73.026-.194.005-.373-.116-.532-.11-.154-.055-.308.121-.373.036-.015.086-.025.101-.05.101-.198.273-.129.425-.109.954.134 1.903.274 2.858.403a.51.51 0 0 1 .252.114c.197.15.394.293.591.442.02.015.05.025.056.045.141.452.54.517.924.596.005 0 .01 0 .02.005.02.01.055.02.03.06z" fill="#FEFEFE"/><path d="M61.58 20.675c.297.124.46.348.5.666.005.04.02.09.05.12.242.248.384.546.48.87.04.059-.005.133.03.198v.243c-.035.06.005.135-.03.194a2.428 2.428 0 0 1-.581 1.079c-.015.084-.07.134-.152.159-.252.213-.5.427-.752.64-.055-.054-.035-.113-.005-.173.364-.726.167-1.387-.237-2.023-.076-.12-.187-.218-.233-.358.006-.1.066-.074.117-.05.348.17.575.423.595.826.005.124.03.243.076.377.157-.318.136-.949-.182-1.197-.156-.125-.308-.259-.48-.368a1.773 1.773 0 0 1-.535-.522c-.282-.442-.691-.76-1.08-1.094-.58-.497-1.197-.939-1.899-1.262.232.204.48.398.737.562.55.353 1.01.81 1.515 1.217.147.12.243.284.339.448.03.054.065.11.025.174-.076.02-.116-.035-.162-.075a16.703 16.703 0 0 0-1.64-1.387c-.309-.228-.617-.457-.945-.655-.298-.174-.616-.294-.97-.274-.07.005-.141.01-.202-.03-.015-.015-.015-.03-.005-.05.06-.02.121-.054.182-.05.298.026.54-.133.813-.208.702-.194 1.358-.07 1.97.293.696.418 1.393.835 2.024 1.352.152.11.253.284.45.338.05.025.126-.02.187.02z" fill="#fff"/><path d="M61.004 26.56c.005-.035.005-.065.01-.1.025-.045.01-.094.015-.144.015-.084.06-.1.126-.045.343.154.707.249 1.035.438.116.07.212.149.283.263.404.621.747 1.272 1.055 1.943.086.184.015.244-.136.299-.202.079-.414.139-.601.258-.146.055-.283.12-.43.174-.277-.08-.555-.18-.757-.383-.217-.219-.126-.522-.156-.8-.091.015-.08.08-.091.13-.09.352.01.675.136.998.05.124.106.264-.07.348a.75.75 0 0 1-.162-.233c-.09-.19-.202-.368-.237-.577-.05-.348-.01-.69.05-1.034.04-.223.005-.417-.141-.591 0-.085-.005-.17-.005-.254.04-.104-.005-.213.03-.318.005-.044.005-.09.01-.134.04-.074 0-.164.035-.238z" fill="#FEFEFE"/><path d="M58.045 21.455c-.146.08-.323.09-.515.16.242.124.46.228.61.412.036.045.072.084.102.134.03.045.035.095-.015.134-.04.035-.086.03-.121-.005-.05-.06-.137-.025-.187-.074a.815.815 0 0 0-.359-.279c-.076-.034-.151-.06-.227-.099-.187-.094-.293-.05-.358.144-.02.06-.01.124-.036.184-.06.035-.131.075-.182 0-.096-.144-.247-.124-.389-.14-.04-.113-.146-.143-.247-.183.01-.065.015-.13.025-.194.187-.03.026-.1.02-.154 0-.08.061-.144.04-.229-.014-.367.107-.7.324-.989.187-.248.46-.258.742-.188.263.064.48.223.697.372a13.218 13.218 0 0 1 2.167 1.82c.207.218.414.437.57.7.354.582.318 1.188.091 1.8-.05.133-.121.258-.187.387-.02.005-.055.01-.065.025a3.091 3.091 0 0 1-.49.467c-.172-.08-.283-.442-.177-.601.151-.224.313-.448.46-.681-.167.159-.359.278-.591.308-.066-.045-.187-.02-.197-.144.242-.1.54-.07.742-.279.035-.034.066-.07.101-.104.242-.094.232-.348.343-.522.051-.06.081-.124.01-.194-.323-.323-.57-.71-.893-1.033a2.243 2.243 0 0 0-.647-.473c-.237-.104-.449-.248-.671-.382-.04-.025-.076-.04-.121-.015-.334-.239-.717-.249-1.106-.244-.056 0-.137.01-.116.085.015.064.096.044.151.03.172-.05.354-.035.53-.03.066-.005.147-.015.172.074z" fill="#fff"/><path d="M52.863 30.078l-.05-.034c-.04-.035-.08-.065-.096-.12-.07-.015-.101-.074-.126-.129a8.795 8.795 0 0 1-.535-1.317c-.036-.12-.101-.229-.101-.353-.04-.13-.086-.258-.127-.388-.121-.377-.01-.61.359-.755.181-.07.368-.13.545-.214.258-.114.475-.08.667.12.106.064.161.168.207.278.192.457.368.924.555 1.381.02.055.04.105.025.165-.13.228-.151.223-.368.08a3.486 3.486 0 0 1-.793-.717.607.607 0 0 0-.08-.08c-.031-.029-.066-.079-.112-.054-.06.03-.03.09-.02.134a2.3 2.3 0 0 0 .576 1.014c.207.219.202.299-.006.517-.136.144-.287.278-.424.428-.025.024-.05.06-.096.044z" fill="#FEFEFE"/><path d="M61.005 24.785c-.045.055-.096.11-.141.164-.056.01-.066-.03-.076-.07 0-.114.055-.213.09-.322.238-.746.056-1.397-.454-1.979-.772-.88-1.676-1.605-2.65-2.25a1.668 1.668 0 0 0-.566-.26.66.66 0 0 0-.748.309c-.09.144-.156.298-.202.462-.02.07-.02.15-.086.204-.015.03-.035.064-.065.124-.217-.467-.505-.87-.687-1.327a.71.71 0 0 1 .677-.83c.404-.025.767.095 1.096.303 1.176.756 2.227 1.67 3.186 2.68.293.307.55.655.727 1.043.242.527.283 1.053.025 1.59-.03.065-.055.134-.126.16z" fill="#000"/><path d="M58.495 26.967c.55-.412 1.106-.825 1.6-1.302.152-.055.43.025.516.149.03.045.01.09-.005.14-.026.108-.096.213-.096.332a4.715 4.715 0 0 1-.591.944c-.081.1-.127.095-.187-.01a3.194 3.194 0 0 1-.177-.347c-.055-.13-.131-.254-.308-.234-.025.1.015.194.015.293.005.115.036.234-.055.333-.253.229-.556.398-.844.577-.06-.02-.05-.065-.045-.11.005-.05.02-.099.03-.144.01-.064.036-.164-.04-.179-.096-.02-.086.09-.096.145-.03.134-.046.268-.06.402-.066.14-.198.194-.319.264-.146-.085-.131-.244-.166-.373-.036-.125-.061-.249-.107-.373 0-.02 0-.04.01-.055.006-.005.006-.015.01-.015.319-.09.561-.323.864-.437.015-.01.036-.005.05 0z" fill="#FEFEFE"/><path d="M52.864 30.078c.177-.209.404-.377.57-.596.087-.114.092-.199-.02-.303a2.204 2.204 0 0 1-.61-.974c-.016-.05-.036-.095-.046-.145-.01-.064-.045-.149.025-.188.081-.05.142.034.187.084.263.298.535.577.869.8.146.1.222.1.323-.03.172.14.202.333.217.532.025.443-.03.527-.454.691-.207.08-.41.16-.617.239-.176.064-.323.03-.444-.11z" fill="#fff"/><path d="M55.312 26.43c-.263.487-.394 1.01-.48 1.55-.03.02-.056.02-.081 0a.758.758 0 0 1-.076-.362c.005-.199.015-.397-.09-.556-.006.198.03.427-.087.64-.06.115-.03.259-.005.388a.75.75 0 0 1 0 .318c-.015.06-.045.13-.11.14-.081.01-.102-.065-.122-.12a8.27 8.27 0 0 1-.192-.566 8.328 8.328 0 0 0-.151-.463c-.066-.178-.147-.348-.313-.457-.04-.025-.066-.06-.066-.11.465-.188.92-.412 1.394-.576.156-.01.318-.02.379.174z" fill="#FEFEFE"/><path d="M58.495 26.967c-.192.144-.434.199-.6.378-.077.08-.213.015-.309.064-.212.03-.328-.1-.43-.253-.11-.17-.166-.363-.236-.552a.418.418 0 0 1 .005-.209c.055-.06.035-.129.02-.193-.005-.045-.005-.09-.01-.14a2.676 2.676 0 0 1 0-.636c.005-.05.005-.094.01-.144.02-.12.09-.169.207-.169.06 0 .126 0 .187-.02a.437.437 0 0 1 .212 0c.02.01.035.02.04.04.03.333.06.666.177.99.02.049.015.118-.05.148-.076.035-.137-.01-.188-.06-.055-.054-.06-.148-.146-.193-.162.318-.111.616.076.904.086.134.192.19.353.134.172-.06.344-.119.52-.183.091-.025.167-.04.162.094z" fill="#fff"/><path d="M55.944 24.532c.303.09.61.134.919.074.318-.064.606.01.904.105.272.084.56.129.843.189-.035.054-.096.064-.151.06-.43-.026-.839.108-1.253.173-.09-.005-.177.03-.267.04a1.84 1.84 0 0 1-.9-.07.911.911 0 0 1-.267-.139c-.096-.074-.151-.169-.131-.293.02-.13.141-.08.212-.114.025-.01.06-.015.09-.025zM56.096 22.096c-.05.154-.066.279.157.308.09.015.176.095.262.14.08.044.142.054.152-.07.005-.09.04-.194.13-.209.107-.02.168.085.208.164.167.348.212.716.07 1.084-.065.174-.09.318.006.482.04.064.12.169 0 .224a.236.236 0 0 1-.293-.07.867.867 0 0 1-.147-.298c-.02-.05 0-.114-.06-.15.03-.148.01-.293.015-.442.005-.169.01-.343-.197-.407-.045-.03-.096-.055-.116-.114.02-.035.076-.045.066-.105-.061.015-.03.075-.066.105-.076-.005-.126-.06-.192-.085-.04-.005-.08-.02-.121.005-.03 0-.086 0-.081-.03.03-.209-.025-.437.156-.606.076 0 .081.03.051.074zM53.541 26.823c.343.189.43.532.535.86l.278.864c.116-.094.116-.198.106-.308-.01-.134-.025-.273-.035-.407-.005-.035-.015-.09 0-.11.197-.228.09-.502.116-.755.005-.045-.01-.104.045-.124.197.358.106.755.192 1.133.03.04.03.09.03.14-.005.054-.035.108-.005.163.006.253-.065.502-.005.756.02.079-.065.084-.11.099-.082.02-.167.144-.258.01-.147-.18-.182-.408-.268-.611-.217-.512-.394-1.04-.631-1.541-.01-.015-.005-.035-.005-.055-.005-.045-.05-.09.015-.114z" fill="#fff"/><path d="M61.003 24.785c.49-.875.222-1.655-.348-2.37-.647-.816-1.424-1.501-2.237-2.152a15.207 15.207 0 0 0-1.222-.885 1.964 1.964 0 0 0-.975-.328c-.429-.025-.752.283-.782.626-.005.055-.016.11-.02.164-.006.025-.006.05-.01.075h-.036v-.343c-.04-.11.035-.194.066-.284.045-.044.07-.109.146-.119.005-.005.015-.01.02-.02.066-.084.162-.124.248-.179.03-.015.06-.03.096-.024.505-.06.944.099 1.358.372a17.951 17.951 0 0 1 2.565 2.073c.116.02.167.124.248.189.176.149.303.347.474.507a.21.21 0 0 1 .07.149c.269.357.521.725.637 1.163.111.432.091.85-.116 1.257-.025.055-.07.104-.056.174-.05.005-.1.01-.126-.045z" fill="#000"/><path d="M56.173 21.043c.015-.224.09-.428.202-.616.237-.418.6-.537 1.045-.338.434.188.798.482 1.172.76a12.787 12.787 0 0 1 1.868 1.7c.555.63.707 1.332.43 2.122-.021.064-.046.13-.066.194-.036.044.005.124-.071.144-.04.055-.066.12-.132.154-.04-.09.03-.154.061-.224.207-.482.318-.969.182-1.49a1.957 1.957 0 0 0-.45-.796c-.787-.91-1.711-1.66-2.716-2.32a1.44 1.44 0 0 0-.445-.205c-.338-.094-.595.01-.772.308-.157.259-.197.547-.268.835-.05-.015-.126-.01-.055-.094.03-.035.015-.09.015-.134z" fill="#000"/><path d="M45.098 18.314a4.35 4.35 0 0 1 1.095-1.391c.142-.115.293-.214.475-.269.313-.094.58.005.747.284.096.159.152.328.157.512-.01.318-.015.64-.035.959-.005.054.005.114-.03.159-.127 0-.087-.1-.092-.16-.01-.188-.005-.372-.005-.56 0-.185-.045-.359-.13-.523-.163-.308-.445-.407-.768-.273-.303.124-.53.343-.738.581a4.365 4.365 0 0 0-.45.602c-.03.055-.065.11-.13.129-.046.01-.076-.005-.096-.05z" fill="#fff"/><path d="M59.595 35.361c.01-.278.237-.412.404-.586.298-.199.641-.154.974-.154.273 0 .526-.05.718-.269.267-.149.343-.432.459-.68.177-.378.242-.8.455-1.163.05-.085.106-.164.161-.249.01-.04.03-.064.07-.08.112-.099.147-.263.284-.342.06.134-.03.238-.076.352-.212.512-.47 1.01-.707 1.511-.07.15-.126.299-.207.443-.227.387-.566.601-1.025.596-.243-.005-.48.035-.722.045-.253.015-.57.298-.637.552-.015.064-.005.139-.075.183-.071 0-.056-.064-.071-.104-.015-.02-.015-.04-.005-.055z" fill="#000"/><path d="M62.381 31.927h.07c.031 0 .031.025.036.045.046.09.025.169-.02.253-.162.328-.263.681-.358 1.034-.03.065-.006.15-.076.194-.157-.045-.056-.19-.106-.274 0-.02-.005-.04-.005-.06-.036-.064.005-.138-.03-.198l.004-.01-.01-.01c-.03-.303-.065-.601-.096-.904-.005-.05-.045-.11.02-.154.051.044.101.099.182.084.127.025.258.01.39 0z" fill="#FEFDFD"/><path d="M56.94 26.594c.1.045.075.15.106.229.1.268.212.527.54.591v.04c-.167.104-.136.258-.116.413.015.134.11.273-.005.407a2.102 2.102 0 0 1-.41-.407c-.045-.194-.06-.393-.095-.587-.005-.025-.005-.05-.015-.075-.03-.084-.046-.213-.162-.193-.096.015-.05.134-.066.209 0 .01-.005.024-.005.034-.01.035-.02.08-.07.075-.061-.105-.122-.209-.177-.308 0-.144.076-.259.156-.368.076-.105.197-.1.319-.06z" fill="#FDFDFD"/><path d="M47.456 18.578c.071-.075.036-.164.036-.249.005-.293-.015-.586.076-.875.096.542.025 1.069-.111 1.59-.263 1.02-.662 1.979-1.369 2.784-.146.169-.303.338-.495.457-.066.015-.09-.025-.1-.08.004-.039.03-.069.06-.089.727-.546 1.141-1.307 1.464-2.122.162-.407.283-.825.354-1.262.01-.06.025-.12.085-.154z" fill="#fff"/><path d="M49.399 24.502c-.02.239.07.343.252.283.127-.04.101-.159.132-.248.09.01.04.08.05.124.015.06-.02.134.066.169.328.06.167-.229.267-.383.03.214.182.279.314.363.08.05.197.095.1.229-.08.114-.161.129-.282.044a1.046 1.046 0 0 0-.697-.178.403.403 0 0 1-.268-.06c-.217-.124-.47-.13-.707-.199a1.974 1.974 0 0 0-.166-.035c-.02-.074-.02-.119.08-.094.142.03.283.02.43.01.07.094.166.154.278.11.151-.06.085-.215.116-.329.096.055.04.13.035.194z" fill="#58585A"/><path d="M45.512 22.21c.015.04.04.065.08.08-.01.01-.014.02-.024.03-.258.184-.536.358-.854.199-.368-.179-.429-.542-.454-.905.06-.208.025-.417.035-.626.005-.07-.03-.154.056-.204.1.055.065.155.07.234.01.219-.015.437.04.651.021.08.041.154.077.229.146.323.388.437.737.358.08-.025.151-.075.237-.045z" fill="#fff"/><path d="M48.198 23.9c-.142-.203-.187-.422-.227-.64-.015-.075.015-.09.075-.08.435.06.869.12 1.344.184-.096.08-.177.104-.253.09-.43-.1-.737.059-.94.447z" fill="#FDFBFC"/><path d="M44.371 20.79c-.075.163-.02.337-.03.506-.005.11 0 .219-.076.318-.075-.82.106-1.595.4-2.35.12-.323.247-.652.438-.945l.086.04c.01.045-.01.084-.03.124a6.876 6.876 0 0 0-.702 2.122c-.01.07-.025.14-.086.184z" fill="#fff"/><path d="M53.52 26.932c.09.09.136.209.181.323.233.582.46 1.163.687 1.745.02.044.025.094.04.144-.005.045.006.094-.05.12-.07-.18-.141-.354-.217-.533-.237-.62-.44-1.252-.763-1.839.056-.04.071.05.122.04zM52.637 30.004c-.227-.478-.45-.96-.616-1.462-.06-.104-.136-.203-.106-.338.01-.03.02-.054.035-.084.238.502.359 1.049.632 1.536.05.084.09.179.13.268-.024.025-.05.055-.075.08z" fill="#000"/><path d="M58.272 31.778c-.005.134-.076.214-.212.214-.137 0-.212-.085-.212-.214 0-.134.08-.214.212-.214.131 0 .217.075.212.214z" fill="#868687"/><path d="M57.767 28.91c.146.005.222.09.217.214-.005.124-.08.214-.217.204-.132-.005-.212-.085-.212-.214 0-.134.09-.194.212-.204z" fill="#868688"/><path d="M58.061 30.441c-.015.124-.065.214-.212.209-.136-.005-.217-.075-.222-.204 0-.13.086-.209.212-.214.141-.005.207.08.222.209z" fill="#868788"/><path d="M56.207 26.52c.055-.04.106-.085.161-.125.05-.03.101-.05.152.006.05.054.055.104.005.163-.066.08-.127.165-.192.249-.06.03-.121.055-.202.094 0-.144.025-.268.076-.387z" fill="#FBF8F8"/><path d="M51.607 28.23c.04.148.136.278.151.437.005.084 0 .174 0 .258-.08 0-.096-.065-.1-.104-.036-.284-.162-.532-.289-.78-.015-.035-.035-.07.01-.095.107.07.162.184.228.283z" fill="#B2B3B4"/><path d="M59.211 27.265c.005-.149.03-.298-.015-.447-.02-.065-.015-.134.055-.184.01.08.081.104.132.154.141.14.141.219-.005.353a3.538 3.538 0 0 1-.167.124z" fill="#878788"/><path d="M56.095 22.096c-.005-.03-.01-.06-.04-.08.025-.059.045-.113.07-.173.132 0 .298-.055.248.184-.07.11-.142.204-.278.07z" fill="#5A585A"/><path d="M50.389 26.227a1.12 1.12 0 0 1-.222-.343c-.162-.319-.122-.388.237-.453-.247.17-.242.164-.126.467.04.105.106.21.11.329z" fill="#5E5A5D"/><path d="M48.703 24.338c.005-.03.03-.075.02-.085-.172-.164.046-.174.101-.203.121-.065.091.074.116.124.026.05.066.104.046.169-.096 0-.187-.005-.283-.005z" fill="#5E5B5D"/><path d="M55.313 26.43c-.1-.119-.232-.164-.383-.184.171-.05.343-.109.55-.104-.06.11-.111.199-.166.288z" fill="#888688"/><path d="M56.4 22.852c.258.025.293.104.197.407a1.024 1.024 0 0 0-.197-.407z" fill="#D5D2D4"/><path d="M49.667 23.404c.161.03.318.054.48.084-.177.01-.359.094-.516-.05-.01-.03-.005-.05.036-.034z" fill="#fff"/><path d="M56.167 21.5c.01.005.02.01.036.015.065.03.156.07.12.154-.04.084-.11-.02-.17-.015-.011-.055-.021-.104.014-.154z" fill="#655559"/><path d="M56.934 25.436v.636a1.136 1.136 0 0 1 0-.636zM56.857 26.117c-.055-.124-.02-.258-.03-.383-.005-.064.03-.139-.04-.188.096-.05.075.03.075.07-.005.163-.005.332-.005.501zM56.934 25.173c.065-.055.151-.065.232-.075.06.045.141-.03.197.04-.081.045-.167.035-.253.03-.096-.005-.146.035-.171.12 0-.036 0-.075-.005-.115z" fill="#58585A"/><path d="M51.92 28.205l.106.338c-.026-.01-.046-.025-.071-.035-.06-.105-.06-.224-.086-.338.015-.01.025-.01.04.005 0 .01.006.02.01.03z" fill="#585357"/><path d="M54.768 28.13v-.15h.065c-.005.04-.005.08-.01.12-.01.025-.02.045-.055.03z" fill="#DDCDD0"/><path d="M49.667 23.404l-.035.034a.263.263 0 0 1-.167-.06c.09-.01.146-.014.202.026z" fill="#000"/><path d="M54.768 28.13l.056-.025-.03.179c-.04-.05-.026-.104-.026-.154z" fill="#B0B4B2"/><path d="M55.98 22.658c.036-.12.076-.055.122-.005a.1.1 0 0 1-.121.005z" fill="#6B555A"/><path d="M52.711 29.924c.03.04.066.08.096.12-.065-.01-.1-.05-.096-.12zM51.904 28.17c-.015 0-.026 0-.04-.005l-.061-.045c.06-.04.1-.035.1.05z" fill="#000"/><path d="M56.677 27.27c.04.05.03.105.025.16a.137.137 0 0 1-.065-.085.544.544 0 0 0 .04-.075z" fill="#CDB4B6"/><path d="M59.645 35.525c.026-.303.182-.517.44-.685a.65.65 0 0 1 .368-.12c.232 0 .47-.015.702-.03.394-.024.717-.188.899-.541.379-.736.732-1.481 1.05-2.242.01-.02.005-.05.01-.074.107-.18.303-.2.5-.289-.1-.005-.176-.01-.247-.01-.035-.054-.01-.099.03-.129.278-.204.58-.348.924-.422.142.427.197.87.303 1.302.015.07.026.144.04.219-.237.61-.52 1.202-.974 1.69-.247.268-.434.586-.717.82-.258.208-.465.477-.762.636-.102.084-.218.149-.339.203-.096.045-.182.045-.257-.034-.04-.015-.076.005-.111.024-.228.125-.38.328-.571.487-.162.01-.177-.084-.141-.203.085-.274.277-.472.49-.651-.203.114-.329.293-.45.477-.03.044-.056.1-.08.149-.097.174-.203.238-.324.189-.111-.045-.146-.174-.101-.363a.948.948 0 0 1 .44-.631c-.172.05-.273.169-.35.318-.05.104-.095.218-.16.318-.066.1-.157.169-.288.12-.132-.055-.086-.16-.071-.26.055-.357.272-.606.586-.785-.268.135-.475.314-.536.617-.02.09-.065.164-.166.179-.091.015-.142-.04-.167-.12-.01-.054-.03-.119.03-.159z" fill="#fff"/><path d="M63.943 29.184c.121.07.192.174.227.308.066.223.136.442.207.66.08.264.025.443-.197.612-.182.14-.394.219-.61.293-.37.025-.612-.194-.84-.432-.191-.199-.282-.452-.373-.7-.015-.05-.02-.1.015-.14.414-.233.869-.398 1.298-.601a.395.395 0 0 1 .273 0z" fill="#FEFEFE"/><path d="M62.377 29.78c.161.641.494 1.123 1.191 1.277-.399.219-.813.403-1.227.577-.162.064-.343.03-.424-.134-.162-.328-.308-.666-.328-1.044a.434.434 0 0 1 .202-.398c.177-.124.363-.233.586-.278zM61.494 35.809c.035-.03.06-.08.116-.07.005.005.01.01.01.015.04.258.05.263.288.124a.653.653 0 0 0 .263-.258c.176-.114.323-.259.48-.393.333-.278.595-.621.888-.94.434-.476.727-1.028 1-1.594.03-.065.07-.13.111-.194.04.427-.136.795-.338 1.148-.465.805-1.111 1.451-1.823 2.042-.06.055-.127.105-.187.16-.086.129-.192.243-.318.337-.197.15-.384.15-.57.015.02-.124-.127-.05-.152-.124.005-.144.156-.174.232-.268zM61.428 29.939c.096-.094.086-.209.035-.308a1.752 1.752 0 0 1-.161-1.074c.015-.099.045-.188.146-.183.106.01.08.119.076.198-.025.214-.025.423.08.617a.41.41 0 0 0 .263.198c.192.045.329.214.525.239.005.02 0 .035-.02.045-.242.114-.5.194-.712.372-.096.085-.166-.034-.232-.104z" fill="#fff"/><path d="M64.32 30.983c-.232.11-.47.213-.696.328-.102.05-.223.094-.253.223-.182.065-.308.194-.414.338-.07.095-.116.13-.177 0a.376.376 0 0 0-.06-.094c-.096-.124-.061-.184.086-.248.459-.204.919-.428 1.368-.652.136-.07.141.005.146.105zM61.428 36.181c.232.13.394.11.591-.064.096-.085.172-.2.293-.259.01.249-.157.388-.349.492-.13.075-.12.125-.02.214.106.094.192.209.293.318-.025.04-.106 0-.131.06-.288-.234-.57-.462-.808-.746.04-.044.086-.04.131-.015zM61.877 24.194c.05-.055.1-.105.151-.16.02.12.026.224-.151.16zM61.161 26.266c-.217-.06-.066.15-.147.194 0-.055-.015-.114 0-.164.026-.1.081-.094.147-.03zM60.968 26.932c0 .105.01.214-.03.313.005-.099-.04-.213.03-.313zM61.002 26.56a.513.513 0 0 1-.03.243c.01-.085-.029-.169.03-.244zM61.08 25.044c-.01.034-.03.05-.056.044-.02 0-.035-.015-.02-.034.015-.02.035-.03.055-.045.01.015.015.03.02.035zM60.746 25.019c.025-.05.045-.1.07-.144.006.03.006.064.041.08-.02.039-.055.069-.11.064zM61.58 20.675c-.066-.005-.137.005-.197-.035.066.005.141-.03.197.035zM62.615 22.961c0-.064-.004-.134.03-.194-.005.065.025.134-.03.194zM62.644 22.524c-.04-.06-.03-.13-.03-.199.055.055.025.13.03.199zM57.534 35.411c.07.005.091.055.121.094a24.302 24.302 0 0 0 2.576 2.848 23.89 23.89 0 0 0 1.828 1.58c.13.1.116.15-.015.23a8.156 8.156 0 0 0-.556.362c-.131.095-.227.07-.348-.025a31.243 31.243 0 0 1-2.343-2.107 24.728 24.728 0 0 1-2.005-2.276c-.096-.12-.086-.174.05-.249.207-.119.404-.258.601-.392.036-.025.066-.045.091-.065zM57.316 32.682c.046-.005.056.025.076.05.167.249.333.502.505.746.086.124-.035.134-.09.169-.93.576-1.859 1.143-2.788 1.72-.707.437-1.42.869-2.126 1.311-.101.065-.151.06-.217-.044a8.948 8.948 0 0 0-.42-.622c-.085-.114-.08-.169.051-.253 1.399-.855 2.798-1.715 4.197-2.575l.727-.447a.36.36 0 0 1 .085-.055zM59.974 41.39c-.01.065-.05.084-.09.104-.228.13-.455.249-.677.383-.09.055-.126 0-.177-.045-.429-.363-.868-.71-1.282-1.088a25.446 25.446 0 0 1-3.131-3.36c-.086-.114-.076-.154.045-.219.197-.099.39-.208.581-.323.106-.064.177-.06.252.04.445.582.92 1.143 1.425 1.68a27.989 27.989 0 0 0 2.035 1.968c.308.268.626.527.939.79.03.03.06.05.08.07zM60.998 40.764c.005.05-.02.064-.05.084-.223.134-.44.269-.662.408-.076.044-.116.005-.167-.04a27.99 27.99 0 0 1-1.378-1.178 25.656 25.656 0 0 1-2.98-3.196c-.03-.04-.055-.084-.09-.119-.071-.07-.05-.114.025-.159.202-.12.399-.238.596-.368.096-.064.151-.04.217.045a23.394 23.394 0 0 0 2.545 2.823 24.141 24.141 0 0 0 1.792 1.56c.061.055.107.105.152.14zM59.596 35.361l.015.045c.02.1 0 .199.01.293.01.045.055.085.015.14.086.198.263.337.404.491a26.198 26.198 0 0 0 3.065 2.848c.127.1.162.164-.005.259a1.941 1.941 0 0 0-.368.258c-.167.154-.288.11-.45-.02a29.909 29.909 0 0 1-2.626-2.405 24.66 24.66 0 0 1-1.671-1.939c-.096-.124-.091-.183.05-.268a4.34 4.34 0 0 0 .48-.333c.091-.07.142-.06.212.03.263.338.53.666.813 1.014.05-.15-.015-.293.056-.413zM58.903 42.051c-.025.02-.055.04-.085.06-.142.084-.283.164-.42.253-.086.06-.136.015-.197-.035-.51-.402-1-.825-1.49-1.252a34.459 34.459 0 0 1-1.847-1.78 34.606 34.606 0 0 1-1.227-1.351c-.066-.08-.061-.124.025-.174.187-.11.368-.224.55-.338.081-.05.127-.035.182.04.869 1.148 1.858 2.196 2.914 3.18.484.453.99.875 1.5 1.293.035.024.085.04.095.104zM53.335 37.449c-.086-.05-.132-.134-.182-.209-.045-.075.046-.09.086-.114 1.616-1.02 3.237-2.033 4.848-3.057.176-.114.181.055.247.12.101.094-.015.124-.066.158-1.61 1.014-3.221 2.028-4.837 3.042a.81.81 0 0 1-.096.06z" fill="#000"/><path d="M59.64 35.839l-.03-.1c.01-.015.01-.04.035-.045.075.125.156.115.222-.005.04-.07.066-.149.09-.223.076-.259.299-.378.506-.507.03-.02.075-.02.116.01-.076.119-.202.184-.308.258-.242.17-.293.428-.354.681-.015.065.02.094.071.114.08.03.162 0 .202-.064.066-.105.116-.224.167-.333a.762.762 0 0 1 .353-.378c.056-.025.136-.055.167.015.025.06-.056.07-.096.09a.885.885 0 0 0-.43.67c-.014.1-.014.2.097.234.1.035.166-.03.217-.114.1-.18.197-.363.338-.517.076-.085.167-.154.263-.214.035-.02.09-.08.126-.01.025.05-.03.075-.06.1-.223.163-.405.362-.5.62-.041.1-.026.175.1.18.101 0 .137-.09.197-.144.046-.04.071-.105.147-.09.035.055.171-.03.156.105l-.126.014c-.066 0-.07.06-.096.1-.111.194-.257.233-.444.114-.05-.035-.091-.075-.167-.07-.217.02-.308-.054-.358-.253-.243.09-.293.075-.394-.15-.056-.084-.152-.039-.207-.088z" fill="#575759"/><path d="M49.082 24.934c.116.115.252.2.313.343.03.065.05.13.03.2-.01.044-.04.088-.085.084-.061-.01-.046-.055-.03-.1.035-.139-.061-.228-.122-.333-.04-.07-.07-.134-.106-.194z" fill="#B3B4B6"/><path d="M49.9 24.83c-.086 0-.08-.06-.08-.114-.006-.06.02-.125-.031-.18l-.015-.596c-.005-.035-.035-.08.04-.074.071.228.05.467.04.7-.004.09-.035.19.046.264z" fill="#767678"/><path d="M49.398 24.502c-.02-.06.02-.134-.035-.189 0-.08-.025-.164.05-.278.016.189.046.328-.014.467z" fill="#79797B"/><path d="M50.228 24.204l-.076-.353c.091.06.121.144.111.238-.025.03.01.085-.035.115z" fill="#858687"/><path d="M49.313 23.756c.025.065.05.13.08.194-.095-.04-.095-.12-.125-.184.01 0 .025-.005.045-.01z" fill="#838385"/><path d="M50.229 24.204c.015-.035 0-.085.04-.115.005.095.025.19-.01.289-.06-.055-.02-.12-.03-.174z" fill="#545356"/><path d="M49.808 23.866c-.015.025-.025.05-.04.074-.03-.04-.05-.09-.015-.129.025-.02.05.025.055.055z" fill="#9B9B9D"/><path d="M60.06 23.483c-.102.095-.122.174.04.224-.112.054-.172.11-.066.228.066.075.096.174.141.264-.02.034-.035.064-.055.094-.081.11-.157.124-.222-.01-.066-.129-.091-.283-.213-.382-.015-.015-.035-.05-.03-.065.076-.194.056-.442.273-.562a.486.486 0 0 1 .59.055c-.14.094-.297.13-.459.154z" fill="#B1B2B4"/><path d="M56.944 22.166c-.091-.164.01-.288.11-.393.097-.104.198-.034.304.02.202.105.424.17.58.343.03.035.071.065-.015.08-.232-.1-.46-.244-.737-.14.096.085.248.055.364.155-.228.07-.43.124-.606-.065zM59.554 24.542c.03.1.182.024.197.144-.232.1-.48.154-.732.164-.126.005-.227-.045-.182-.184.06-.189.147-.368.344-.462.075.064.02.149.035.223.086.11.227.075.338.115z" fill="#58585A"/><path d="M58.044 21.455a1.223 1.223 0 0 0-.681.005c-.056.015-.106.045-.162.02-.05-.025-.111-.04-.111-.11 0-.059.045-.089.096-.104.035-.01.07-.024.11-.024.314-.02.622.03.92.114.09.025.197.064.212.184-.146.03-.258-.06-.384-.085zM60.059 23.483a.846.846 0 0 1 .46-.154c.16.04.18.184.226.303-.01.05-.025.095-.025.144-.015.204-.086.353-.318.378-.03-.075.02-.12.066-.164.11-.11.11-.229.055-.363-.055-.134-.141-.189-.283-.114-.07.045-.141.08-.181-.03z" fill="#59595B"/><path d="M58.646 24.915c.025.139-.081.094-.142.094-.313 0-.62.025-.924.12-.07.004-.141.01-.217.01-.066-.026-.141.019-.197-.04.475-.11.95-.23 1.444-.2l.036.015z" fill="#58585A"/><path d="M60.176 24.199c-.151-.1-.207-.269-.278-.413-.045-.084.121-.074.202-.08.182.19.197.289.076.493z" fill="#5A5A5C"/><path d="M59.222 24.422c-.06-.064-.03-.149-.035-.223.025-.164.151-.164.273-.15.085.01.14.06.14.15.006.11-.085.03-.12.05-.091.05-.172.114-.258.173z" fill="#B1B2B4"/><path d="M60.66 22.24c-.262-.283-.53-.561-.793-.844-.106-.363-.389-.577-.656-.825-.591-.552-1.268-.99-1.909-1.471-.05-.04-.09-.085-.136-.13-.015-.015-.025-.04-.015-.104.161.08.328.154.49.244.706.397 1.327.904 1.938 1.436.293.253.536.541.758.855.187.268.474.427.737.611.576.412.55.78.455 1.407-.006.034-.02.079-.066.084-.056.005-.076-.045-.086-.084-.025-.115-.055-.23-.066-.348-.02-.418-.227-.661-.65-.83z" fill="#58585A"/><path d="M61.731 23.443V23.3c.005-.074 0-.169.101-.174.086-.005.136.075.146.15.02.099.051.173.152.223.086.04.06.124-.01.184-.08.07-.187.1-.283.06-.146-.06-.096-.2-.106-.299z" fill="#58595B"/><path d="M56.287 22.738c-.02-.06-.09-.12.01-.174.036-.02.07-.015.106.01.03.02.035.05.03.08-.02.084-.08.084-.146.084z" fill="#5F6062"/><path d="M44.371 20.79c.086-.731.328-1.422.616-2.098.05-.12.131-.224.197-.338.237-.353.475-.706.788-.999.151-.14.318-.268.51-.348.358-.154.687-.03.853.318.101.214.126.443.126.676 0 .194-.005.388-.005.582-.12.77-.368 1.5-.732 2.191-.298.567-.671 1.069-1.212 1.442-.126.054-.247.114-.394.119-.277.015-.47-.104-.596-.343-.14-.268-.161-.557-.156-.85 0-.12 0-.238.005-.353z" fill="#8E0000"/><path d="M59.644 35.694c-.01.015-.025.03-.035.045v-.328c.01.04.025.08.035.12v.163z" fill="#48484A"/><path d="M62.18 35.625c-.04.179-.348.417-.525.412-.08-.005-.12-.03-.075-.114.03-.055.055-.114.035-.179.055.114.136.134.247.07.106-.07.212-.13.318-.19z" fill="#B0B1B2"/><path d="M61.271 36.072c-.055.06-.106.12-.166.174-.046.045-.096.11-.177.055.156-.2.328-.388.565-.497-.07.094-.146.184-.222.268z" fill="#B1B2B4"/><path d="M156.183 49.014h.567v2.012h2v.568h-2V54.7a.646.646 0 0 0 .2.486.674.674 0 0 0 .228.125.79.79 0 0 0 .272.037c.617 0 .933-.46.967-1.35H159c0 .403-.102.803-.3 1.174-.164.25-.412.456-.717.595a2.629 2.629 0 0 1-1.066.23 2.139 2.139 0 0 1-.934-.163 1.365 1.365 0 0 1-.633-.526 1.34 1.34 0 0 1-.283-.797V51.58H154v-.567c.288.011.575-.03.841-.122.265-.09.502-.23.692-.405.415-.425.654-.945.684-1.486M151 50.92l2.226-.099v4.309a.34.34 0 0 0 .097.28c.101.07.224.1.345.085H154V56h-3v-.491h.332a.451.451 0 0 0 .373-.127.682.682 0 0 0 .111-.434V52a.524.524 0 0 0-.166-.435H151v-.645zm1.382-2.92a.87.87 0 0 1 .618.283.894.894 0 0 1 .24.644.982.982 0 0 1-.235.575.87.87 0 0 1-.623.266.861.861 0 0 1-.622-.266.88.88 0 0 1-.248-.631.874.874 0 0 1 .235-.618.814.814 0 0 1 .622-.252" fill="#000"/><path d="M149.369 54.233a.875.875 0 0 1 .618.283.91.91 0 0 1 .239.643.969.969 0 0 1-.235.576.876.876 0 0 1-.622.265.857.857 0 0 1-.622-.265.9.9 0 0 1-.249-.632.878.878 0 0 1 .235-.617.81.81 0 0 1 .622-.253" fill="#8E0000"/></svg>