<svg width="130" height="33" viewBox="0 0 130 33" fill="none" xmlns="http://www.w3.org/2000/svg">
<path d="M79.1933 9.38395C77.1018 9.38395 75.4589 9.8385 73.8151 10.7459C73.8151 5.90223 73.8151 1.51315 73.9653 0L63.9535 1.8156V2.72384L64.9993 2.87506C66.3428 3.17752 66.7932 3.93365 67.0891 5.751C67.3903 9.38395 67.2393 28.7594 67.0891 31.9386C69.7787 32.5444 72.6183 32.999 75.458 32.999C83.3774 32.999 88.1585 28.0032 88.1585 20.1316C88.1585 13.926 84.2739 9.38395 79.1933 9.38395V9.38395ZM75.7566 31.3329C75.1586 31.3329 74.4105 31.3329 73.9635 31.1825C73.8134 29.0636 73.665 20.1316 73.8134 12.2608C74.7099 11.9574 75.307 11.8062 76.0551 11.8062C79.3443 11.8062 81.1374 15.7416 81.1374 20.5844C81.1365 26.6413 78.8948 31.3329 75.7566 31.3329V31.3329ZM26.2983 0.604909H0V1.96683L1.49447 2.11805C3.43591 2.42051 4.18401 3.6312 4.4817 6.50714C4.93125 11.9566 4.78111 21.7968 4.4817 26.4875C4.18315 29.3643 3.43677 30.7271 1.49447 30.8765L0 31.1808V32.3914H16.8845V31.1808L15.0914 30.8765C13.1491 30.7262 12.4019 29.3643 12.1033 26.4875C11.9532 24.5189 11.8039 21.3396 11.8039 17.4051L15.39 17.5563C17.6317 17.5563 18.6766 19.3728 19.1253 21.9454H20.4705V11.2013H19.1253C18.6758 13.7748 17.6317 15.5904 15.39 15.5904L11.8048 15.7425C11.8048 10.5955 11.9541 5.75187 12.1042 2.87594H17.3331C21.3687 2.87594 23.4603 5.44855 24.9539 9.9906L26.4484 9.53605L26.2983 0.604909V0.604909Z" fill="black"/>
<path d="M34.8168 9.08165C42.2883 9.08165 46.0236 14.2286 46.0236 21.04C46.0236 27.5488 41.8396 33 34.3681 33C26.8974 33 23.1621 27.8522 23.1621 21.04C23.1621 14.5311 27.3453 9.08165 34.8168 9.08165V9.08165ZM34.3681 10.5957C31.0806 10.5957 30.1841 15.1369 30.1841 21.04C30.1841 26.7918 31.6785 31.4842 34.6675 31.4842C38.1017 31.4842 38.9999 26.9431 38.9999 21.04C38.9999 15.2881 37.5072 10.5957 34.3681 10.5957ZM90.1011 21.1921C90.1011 14.9856 93.9857 9.08165 101.606 9.08165C107.88 9.08165 110.87 13.7749 110.87 19.9805H96.9738C96.8236 25.5811 99.5132 29.6686 104.893 29.6686C107.284 29.6686 108.479 29.0646 109.974 28.0043L110.571 28.7604C109.076 30.8793 105.79 33 101.606 33C94.8822 32.9991 90.1011 28.1555 90.1011 21.1921V21.1921ZM96.9738 18.3161L103.997 18.164C103.997 15.1369 103.548 10.5957 101.009 10.5957C98.4691 10.5957 97.1222 14.8335 96.9738 18.3161V18.3161ZM128.654 10.2932C126.861 9.53534 124.471 9.08165 121.781 9.08165C116.254 9.08165 112.815 12.4113 112.815 16.3475C112.815 20.2838 115.353 21.9482 118.943 23.1598C122.678 24.5208 123.724 25.5811 123.724 27.3976C123.724 29.2141 122.379 30.8785 119.988 30.8785C117.15 30.8785 115.057 29.2141 113.414 24.672L112.367 24.9762L112.517 31.6363C114.31 32.3925 117.597 32.9991 120.437 32.9991C126.264 32.9991 130.001 29.9702 130.001 25.2787C130.001 22.0994 128.356 20.2838 124.471 18.7689C120.287 17.1046 118.794 16.0451 118.794 14.0765C118.794 12.1088 120.141 10.746 121.934 10.746C124.622 10.746 126.415 12.4113 127.762 16.4988L128.806 16.1963L128.654 10.2932V10.2932ZM65.4474 9.68744C62.9081 8.17517 58.4246 8.93043 56.0345 14.3807L56.1829 9.08253L46.1729 11.0502V11.9585L47.2187 12.1097C48.5647 12.2618 49.161 13.0179 49.3111 14.9865C49.6096 18.6194 49.4604 24.978 49.3111 28.1564C49.161 29.9711 48.5647 30.8793 47.2187 31.0314L46.1729 31.1835V32.3942H60.0684V31.1835L58.2754 31.0314C56.7817 30.8793 56.3331 29.9711 56.1829 28.1564C55.8844 25.2796 55.8844 19.5277 56.0345 15.8947C56.7809 14.8344 60.0684 13.927 63.0565 15.8947L65.4474 9.68744V9.68744Z" fill="black"/>
</svg>
