<svg width="183" height="95" viewBox="0 0 183 95" fill="none" xmlns="http://www.w3.org/2000/svg">
<path d="M117.793 66.5716L114.737 73.1495H111.971L111.674 66.5716H111.568L110.228 73.1495H107.324L109.344 63.3027H114.116L114.189 68.9629H114.314L116.677 63.3027H121.588L119.575 73.1495H116.512L117.911 66.5716H117.793Z" fill="#003E69"/>
<path d="M130.293 69.3519L130.108 65.6208H129.996L128.214 69.3519H130.293ZM128.372 63.3232H132.795L133.455 73.1633H130.287L130.24 71.4217H127.402L126.63 73.1633H123.646L128.372 63.3232Z" fill="#003E69"/>
<path d="M152.748 65.6271H150.623L151.098 63.3027H158.517L158.042 65.6271H155.917L154.372 73.1495H151.204L152.748 65.6271Z" fill="#003E69"/>
<path d="M171.164 63.3027H175.461L176.405 69.184H176.497L177.705 63.3027H180.715L178.702 73.1495H174.405L173.593 67.1276H173.488L172.253 73.1495H169.145L171.164 63.3027Z" fill="#003E69"/>
<path d="M142.934 67.4024C143.831 67.4024 144.214 66.9536 144.214 66.3574C144.214 65.8685 143.937 65.6273 143.29 65.6273H142.491L142.128 67.4024H142.934ZM139.765 63.2896H144.445C146.729 63.2896 147.534 64.5757 147.534 65.8015C147.529 66.4381 147.291 67.0501 146.867 67.519C146.442 67.9879 145.862 68.2805 145.237 68.3402V68.4742C145.623 68.5115 145.978 68.7023 146.225 69.0048C146.473 69.3073 146.592 69.697 146.557 70.0885C146.557 70.7583 146.419 71.4282 146.419 72.2521C146.426 72.5463 146.455 72.8396 146.504 73.1296H143.112C143.084 72.9409 143.066 72.7508 143.059 72.5602C143.059 71.7363 143.283 71.1602 143.283 70.2559C143.298 70.1455 143.287 70.0332 143.251 69.9278C143.216 69.8224 143.156 69.7267 143.079 69.6483C143.001 69.5698 142.906 69.5107 142.802 69.4756C142.698 69.4404 142.587 69.4301 142.478 69.4454H141.66L140.907 73.1296H137.785L139.765 63.2896Z" fill="#003E69"/>
<path d="M162.537 63.3027H165.706L163.692 73.1495H160.518L162.537 63.3027Z" fill="#003E69"/>
<path d="M2.01975 63.3027H5.18797L3.65006 70.8251H6.75229L6.29685 73.1495H0L2.01975 63.3027Z" fill="#003E69"/>
<path d="M38.7053 63.3027H41.8735L41.0089 67.5362H41.0881L43.8933 63.3027H47.2727L43.7679 67.9515L45.5236 73.1495H42.1441L40.8306 68.7754H40.7514L39.8604 73.1495H36.6855L38.7053 63.3027Z" fill="#003E69"/>
<path d="M55.1458 69.4586H53.2581L52.499 73.1495H49.3242L51.344 63.3027H54.5188L53.7597 67.0003H55.6541L56.4065 63.3027H59.5814L57.5616 73.1495H54.3868L55.1458 69.4586Z" fill="#003E69"/>
<path d="M77.4436 63.3027H84.11L83.6282 65.6271H80.1366L79.8395 67.0807H83.0078L82.5259 69.3983H79.3643L79.0739 70.8251H82.7239L82.2487 73.1495H75.4238L77.4436 63.3027Z" fill="#003E69"/>
<path d="M65.2932 63.3027H71.9597L71.4844 65.6271H67.9862L67.6892 67.0807H70.8574L70.3756 69.3983H67.2139L66.9235 70.8251H70.5736L70.0983 73.1495H63.2734L65.2932 63.3027Z" fill="#003E69"/>
<path d="M14.911 70.8253C16.3037 70.8253 16.8911 67.3086 16.8911 66.4981C16.9055 66.3835 16.8943 66.267 16.8583 66.1574C16.8223 66.0477 16.7625 65.9477 16.6833 65.8648C16.604 65.7818 16.5074 65.718 16.4006 65.678C16.2937 65.6381 16.1794 65.623 16.0661 65.634C14.6338 65.634 14.0859 69.211 14.0859 69.9545C14.0705 70.0696 14.0809 70.1868 14.1164 70.2973C14.1518 70.4078 14.2115 70.5087 14.2909 70.5924C14.3702 70.6762 14.4672 70.7407 14.5746 70.781C14.682 70.8213 14.797 70.8365 14.911 70.8253ZM16.4159 63.1689C18.7723 63.1689 20.0461 64.5086 20.0461 66.6454C20.0461 69.2311 18.7261 73.2836 14.5744 73.2836C12.2774 73.2836 10.9375 71.9975 10.9375 69.8272C10.9375 66.967 12.3962 63.1689 16.4159 63.1689Z" fill="#003E69"/>
<path d="M91.7743 70.8253H92.6984C93.9855 70.8253 94.8765 69.1038 94.8765 66.9804C94.8765 66.2101 94.5399 65.6407 93.4047 65.6407H92.837L91.7743 70.8253ZM90.1506 63.2896H93.7413C96.8039 63.2896 98.0712 65.0312 98.0712 66.9536C98.0712 70.611 95.8006 73.1296 91.9987 73.1296H88.1309L90.1506 63.2896Z" fill="#003E69"/>
<path d="M32.1784 69.4588C32.0079 70.572 31.4346 71.5808 30.5705 72.2881C29.7063 72.9954 28.6135 73.3503 27.5053 73.2836C25.1621 73.2836 23.875 71.9439 23.875 69.8205C23.875 67.3421 25.1225 63.1689 29.3534 63.1689C31.2939 63.1689 32.845 63.8991 32.7922 65.9957C32.7796 66.3299 32.7487 66.6631 32.6998 66.9938H29.7494C29.7841 66.7901 29.8039 66.5841 29.8088 66.3775C29.8142 66.2749 29.7975 66.1724 29.76 66.0771C29.7225 65.9817 29.6651 65.8956 29.5917 65.825C29.5183 65.7543 29.4306 65.7006 29.3348 65.6676C29.2389 65.6346 29.1372 65.6232 29.0366 65.634C27.5845 65.634 27.0564 69.1708 27.0564 69.9612C27.0413 70.0742 27.0513 70.1893 27.0857 70.2979C27.1201 70.4065 27.1781 70.5059 27.2553 70.5888C27.3326 70.6717 27.4271 70.7359 27.5321 70.7769C27.637 70.8178 27.7496 70.8343 27.8617 70.8253C28.3501 70.8253 28.7989 70.4435 29.1818 69.4856L32.1784 69.4588Z" fill="#003E69"/>
<path d="M133.984 27.1566H116.555C118.841 18.4139 120.908 11 120.908 11C120.908 11 113.062 19.5203 106.091 27.1566L37 27.303L104.382 29.0277C99.1954 34.6247 96.4659 37.8138 96.3698 37.9277L96.3965 37.9005C96.6208 37.6999 105.947 29.0657 105.947 29.0657L114.146 29.2772L112.912 35.845L74.4913 57.9132L74.3364 58C74.3364 58 104.847 41.7295 112.549 37.7704C112.549 37.7704 109.846 52.0992 109.846 52.1589C109.847 52.1499 109.847 52.1408 109.846 52.1318V52.1589L109.878 52.0179C110.129 51.085 111.748 45.45 113.954 37.1141C123.98 31.9184 134 27.1566 134 27.1566H133.984ZM115.909 19.8566L114.531 27.1729H107.998L115.909 19.8566ZM115.951 29.3368L123.894 29.5429L114.461 34.9664C114.995 33.0411 115.433 31.2839 115.951 29.3423" fill="#003E69"/>
</svg>
