<svg width="198" height="31" fill="none" xmlns="http://www.w3.org/2000/svg"><path d="M14.813.33c8.163 0 14.812 6.649 14.812 14.878 0 8.23-6.649 14.878-14.812 14.878C6.649 30.086 0 23.503 0 15.208S6.65.329 14.813.329zM130.944 0v26.07c0 1.975.79 2.502 2.305 2.897l.065.33h-8.36V26.07c-.988 2.37-3.029 3.818-5.662 3.818-4.477 0-7.439-4.082-7.439-10.138 0-3.424.987-6.32 2.83-8.493 1.778-2.107 4.214-3.226 6.913-3.226 1.317 0 2.436.264 3.358.856V5.333c0-.79-.198-1.317-.593-1.712-.526-.46-1.382-.658-2.699-.527h-.066v-.329L130.944 0zm31.733 8.098V26.07c0 1.975.79 2.502 2.304 2.897v.33h-8.361v-3.292c-.988 2.37-3.16 3.884-5.596 3.884-2.897 0-4.74-1.317-5.464-3.884l-.132-.658a10.026 10.026 0 0 1-.198-1.975v-9.613c0-2.106-.46-2.765-2.304-2.896h-.066v-.33l8.361-2.435v15.141c0 2.239.988 3.49 2.831 3.49 1.119 0 2.041-.593 2.567-1.58v-11.39c0-2.172-.394-2.83-1.909-2.962h-.065v-.33l8.032-2.37zm-60.371-.066c2.239 0 4.411.79 5.86 2.172 1.646 1.58 2.501 3.884 2.567 6.913v.066H98.158c-.263 4.345 2.437 7.9 5.991 8.031 2.568.198 4.806-1.382 6.057-3.95l.329.132c-.724 4.806-3.554 8.427-8.492 8.427-5.596 0-8.757-4.674-8.888-10.533v-1.515c.263-2.567 1.053-4.871 2.436-6.583.856-1.053 1.844-1.843 3.029-2.37.987-.527 2.435-.79 3.62-.79h.066zm87.099.066c3.555 0 5.728 2.238 5.728 6.056V26.4c0 1.448.658 2.173 2.304 2.568h.066v.33h-8.427V14.351c0-2.37-.856-3.555-2.633-3.555-1.449 0-2.173 1.053-2.568 1.975.066.46.132.921.132 1.382v12.443c0 1.514.461 2.04 1.777 2.37h.066v.33h-7.834V14.352c0-2.37-.922-3.555-2.633-3.555-1.383 0-2.107.987-2.436 1.777v14.089c0 1.514.46 2.04 1.777 2.37h.066v.33h-7.835v-15.67c0-2.106-.526-2.764-2.304-2.896h-.066v-.33l8.362-2.303v3.489c.855-2.239 2.83-3.555 5.332-3.555 2.831 0 4.806 1.382 5.464 3.884.857-2.37 3.029-3.884 5.662-3.884zM69.323 1.317l7.835 18.367 7.834-18.367h8.427l-.066.329-.095.021c-1.452.331-2.209.874-2.209 2.678V26.73c.132 1.448.922 1.909 2.304 2.238h.066v.33h-10.73v-.33h.065c1.382-.33 2.172-.79 2.304-2.238V4.938L74.722 29.23h-.593L64.057 5.596v20.606c0 1.843.79 2.37 2.304 2.7h.066v.328h-6.189v-.329h.066c1.514-.33 2.304-.856 2.304-2.699V4.345c0-1.843-.79-2.37-2.304-2.7h-.066v-.328h9.085zm71.826 6.78V26.07l.001.122c.032 1.875.82 2.388 2.303 2.775l.066.33h-8.361V13.758c0-2.106-.461-2.765-2.305-2.896h-.066v-.33l8.362-2.435zM38.513 1.186c4.016 0 7.374 6.32 7.374 14.023 0 7.768-3.292 14.022-7.374 14.022-4.081 0-7.373-6.254-7.373-14.022 0-7.769 3.291-14.023 7.373-14.023zm11.324 1.449c1.514 0 2.633 5.661 2.633 12.574 0 6.912-1.185 12.574-2.633 12.574-1.434 0-2.61-5.549-2.633-12.367v-.207c0-6.913 1.184-12.575 2.633-12.575zm72.746 6.583c-2.633 0-4.279 3.49-4.279 8.888 0 2.567.461 4.806 1.251 6.32.724 1.448 1.777 2.238 2.962 2.238 1.185 0 2.041-.526 2.436-1.514V10.665c-.461-.921-1.316-1.448-2.37-1.448zm-20.342.066c-2.37 0-3.753 2.83-3.95 6.78v.067h7.176c.131-3.094-.395-5.135-1.383-6.123-.527-.46-1.119-.724-1.843-.724zM137.923.198c1.909 0 3.357 1.448 3.357 3.357 0 1.91-1.448 3.358-3.357 3.358-1.909 0-3.358-1.449-3.358-3.358s1.449-3.357 3.358-3.357z" fill="#000"/></svg>