<svg width="356" height="116" viewBox="0 0 356 116" fill="none" xmlns="http://www.w3.org/2000/svg">
<path d="M123.426 61.1647H117.287V34.8516H123.348L130.488 43.0459L137.627 34.8516H143.541V61.1647H137.406V44.548L131.233 51.275H129.522L123.426 44.5827V61.1647Z" fill="#282828"/>
<path d="M150.455 34.8516H156.702V61.1647H150.455V34.8516Z" fill="#282828"/>
<path d="M162.391 47.9229C162.391 39.2031 168.564 34.3945 175.184 34.3945C181.652 34.3945 185.781 38.0381 186.82 43.2631L180.759 44.5768C180.269 42.3609 178.568 40.259 175.145 40.259C171.948 40.259 168.824 42.8516 168.824 47.9229C168.824 53.3362 171.987 55.7455 175.199 55.7455C178.631 55.7455 180.593 53.3362 181.147 50.8576L187.208 52.1713C186.129 57.9217 181.667 61.5901 175.125 61.5901C168.491 61.6099 162.391 56.9104 162.391 47.9229Z" fill="#282828"/>
<path d="M201.251 50.6751H198.465V61.1647H192.326V34.8516H203.742C208.464 34.8516 212.186 37.8953 212.186 42.6295C212.186 44.8504 211.627 46.4268 210.175 47.9685C209.447 48.7184 208.592 49.3297 207.65 49.7729L214.024 61.1746H206.905L201.251 50.6751ZM198.465 45.3015H203.114C204.786 45.3015 205.826 44.31 205.826 42.8228C205.826 41.4348 204.708 40.4186 203.075 40.4186H198.465V45.3015Z" fill="#282828"/>
<path d="M216.738 47.9626C216.738 39.2031 222.951 34.3945 229.752 34.3945C236.554 34.3945 242.766 39.1287 242.766 47.9626C242.766 56.9451 236.524 61.6099 229.752 61.6099C222.981 61.6099 216.738 57.0096 216.738 47.9626ZM236.353 47.9626C236.353 42.8863 233.155 40.259 229.772 40.259C226.389 40.259 223.191 42.8516 223.191 47.9626C223.191 53.2619 226.428 55.7455 229.772 55.7455C233.116 55.7455 236.353 53.3015 236.353 47.9626Z" fill="#282828"/>
<path d="M247.631 47.9229C247.631 39.2031 253.804 34.3945 260.419 34.3945C266.892 34.3945 271.021 38.0381 272.061 43.2631L266 44.5767C265.509 42.3609 263.808 40.259 260.385 40.259C257.188 40.259 254.064 42.8516 254.064 47.9229C254.064 53.3362 257.227 55.7455 260.439 55.7455C263.872 55.7455 265.833 53.3362 266.392 50.8576L272.453 52.1713C271.374 57.9217 266.912 61.5901 260.365 61.5901C253.819 61.5901 247.631 56.9104 247.631 47.9229Z" fill="#282828"/>
<path d="M277.544 34.8516H283.791V61.1647H277.544V34.8516Z" fill="#282828"/>
<path d="M302.642 40.4136V61.1647H296.4V40.4136H288.922V34.8516H310.12V40.4136H302.642Z" fill="#282828"/>
<path d="M327.859 47.5967V61.1697H321.612V47.5967L313.241 34.8516H320.459L324.922 41.876L329.379 34.8516H336.244L327.859 47.5967Z" fill="#282828"/>
<path d="M118.865 73.4298V81.173H117.301V70.6289H118.831L124.063 78.4316V70.6289H125.612V81.173H124.078L118.865 73.4298Z" fill="#282828"/>
<path d="M136.996 81.173H130.023V70.6289H136.952V72.0566H131.617V74.5352H136.58V75.9629H131.617V79.7602H137.011L136.996 81.173Z" fill="#282828"/>
<path d="M140.674 77.2716V70.6289H142.267V77.227C142.267 78.853 143.224 79.8147 144.641 79.8147C146.058 79.8147 147.009 78.853 147.009 77.2419V70.6289H148.603V77.2568C148.603 79.8445 147.024 81.3217 144.641 81.3217C142.258 81.3217 140.674 79.894 140.674 77.2716Z" fill="#282828"/>
<path d="M152.266 75.8498C152.266 72.7168 154.384 70.4414 157.11 70.4414C159.214 70.4414 160.822 71.4329 161.475 73.5149L159.94 73.966C159.765 73.3549 159.389 72.8221 158.875 72.4554C158.361 72.0887 157.739 71.9099 157.11 71.9484C155.203 71.9484 153.923 73.7132 153.923 75.8498C153.923 78.0806 155.218 79.8156 157.125 79.8156C157.846 79.8213 158.543 79.5595 159.086 79.0798C159.628 78.6001 159.977 77.9358 160.067 77.2131L161.646 77.4956C161.492 78.5866 160.944 79.5813 160.107 80.2879C159.27 80.9945 158.205 81.3631 157.115 81.3226C154.384 81.3326 152.266 79.1315 152.266 75.8498Z" fill="#282828"/>
<path d="M172.044 75.6605H166.871V81.173H165.277V70.6289H166.871V74.2279H172.044V70.6289H173.638V81.173H172.044V75.6605Z" fill="#282828"/>
<path d="M183.217 77.5581H179.701L178.45 81.1769H176.822L180.564 70.6328H182.412L186.149 81.1769H184.452L183.217 77.5581ZM179.431 68.6351L181.5 67.4453L183.545 68.6351V69.8248L181.471 68.7392L179.431 69.8248V68.6351ZM180.117 76.1205H182.785L181.456 72.2043L180.117 76.1205Z" fill="#282828"/>
<path d="M192.142 72.0566V81.173H190.549V72.0566H187.361V70.6289H195.33V72.0566H192.142Z" fill="#282828"/>
<path d="M205.717 81.173H198.744V70.6289H205.673V72.0566H200.338V74.5352H205.3V75.9629H200.338V79.7602H205.732L205.717 81.173Z" fill="#282828"/>
<path d="M209.527 70.6289H211.121V79.7404H215.878V81.173H209.527V70.6289Z" fill="#282828"/>
<path d="M224.807 70.6289H226.4V81.173H224.807V70.6289Z" fill="#282828"/>
<path d="M232.361 73.4298V81.173H230.797V70.6289H232.332L237.574 78.4316V70.6289H239.123V81.173H237.588L232.361 73.4298Z" fill="#282828"/>
<path d="M245.086 73.4298V81.173H243.521V70.6289H245.056L250.298 78.4316V70.6289H251.848V81.173H250.313L245.086 73.4298Z" fill="#282828"/>
<path d="M255.647 75.8498C255.647 72.7019 257.746 70.4414 260.58 70.4414C263.415 70.4414 265.528 72.7019 265.528 75.8498C265.528 79.1365 263.351 81.3028 260.58 81.3028C257.81 81.3028 255.647 79.1662 255.647 75.8498ZM263.871 75.8498C263.871 73.6983 262.561 71.9484 260.58 71.9484C258.599 71.9484 257.3 73.6785 257.3 75.8498C257.3 78.0954 258.644 79.8156 260.58 79.8156C262.517 79.8156 263.871 78.1252 263.871 75.8498Z" fill="#282828"/>
<path d="M267.895 70.6289H269.562L272.347 79.2744H272.396L275.196 70.6289H276.804L273.259 81.173H271.44L267.895 70.6289Z" fill="#282828"/>
<path d="M284.568 77.5542H281.052L279.802 81.173H278.179L281.92 70.6289H283.764L287.505 81.173H285.809L284.568 77.5542ZM281.464 76.1414H284.132L282.808 72.2251L281.464 76.1414Z" fill="#282828"/>
<path d="M293.5 72.0566V81.173H291.906V72.0566H288.714V70.6289H296.667V72.0566H293.5Z" fill="#282828"/>
<path d="M300.397 70.6289H301.996V81.173H300.397V70.6289Z" fill="#282828"/>
<path d="M305.792 75.8498C305.792 72.7019 307.891 70.4414 310.696 70.4414C313.5 70.4414 315.643 72.6871 315.643 75.8498C315.643 79.1365 313.466 81.3028 310.696 81.3028C307.925 81.3028 305.792 79.1662 305.792 75.8498ZM314.015 75.8498C314.015 73.6983 312.706 71.9484 310.72 71.9484C308.734 71.9484 307.454 73.6934 307.454 75.8498C307.454 78.0954 308.793 79.8156 310.73 79.8156C312.667 79.8156 314.015 78.1252 314.015 75.8498Z" fill="#282828"/>
<path d="M321.034 73.4298V81.173H319.47V70.6289H321.005L326.251 78.4316V70.6289H327.801V81.173H326.266L321.034 73.4298Z" fill="#282828"/>
<path d="M41.8113 43.4766H37.9375V64.6837H41.8113V43.4766Z" fill="#282828"/>
<path d="M78.1434 43.4766H74.2695V64.6837H78.1434V43.4766Z" fill="#282828"/>
<path d="M59.9793 54.0859H56.1055V75.2931H59.9793V54.0859Z" fill="#282828"/>
<path d="M23.6492 34.8398H19.7754V38.7561H23.6492V34.8398Z" fill="#282828"/>
<path d="M96.3113 34.8398H92.4375V38.7561H96.3113V34.8398Z" fill="#282828"/>
<path d="M59.9793 13.6367H56.1055V17.553H59.9793V13.6367Z" fill="#282828"/>
<path d="M59.9793 98.4531H56.1055V102.369H59.9793V98.4531Z" fill="#282828"/>
<path d="M23.6492 77.25H19.7754V81.1662H23.6492V77.25Z" fill="#282828"/>
<path d="M96.3113 77.25H92.4375V81.1662H96.3113V77.25Z" fill="#282828"/>
</svg>
