<svg width="122" height="64" fill="none" xmlns="http://www.w3.org/2000/svg"><path d="M20.52 29l-.06-9.57-4.56 7.68h-3.12l-4.56-7.35V29H1.77V8h5.82l6.84 11.19L21.09 8h5.82l.06 21h-6.45zm9.874-21h7.08v21h-7.08V8zm31.188 0v21h-5.82l-7.98-9.54V29h-6.9V8h5.82l7.98 9.54V8h6.9zm3.411 0h7.08v21h-7.08V8zm31.189 0v21h-5.82l-7.98-9.54V29h-6.9V8h5.82l7.98 9.54V8h6.9zm17.301 9.93h6.15v8.88c-1.24.86-2.68 1.52-4.32 1.98-1.64.46-3.25.69-4.83.69-2.24 0-4.25-.46-6.03-1.38-1.78-.94-3.18-2.24-4.2-3.9-1-1.68-1.5-3.58-1.5-5.7s.5-4.01 1.5-5.67c1.02-1.68 2.43-2.98 4.23-3.9 1.82-.94 3.87-1.41 6.15-1.41 2.06 0 3.9.35 5.52 1.05 1.64.68 3 1.68 4.08 3l-4.53 3.99c-1.32-1.54-2.89-2.31-4.71-2.31-1.56 0-2.8.47-3.72 1.41-.92.94-1.38 2.22-1.38 3.84 0 1.58.45 2.85 1.35 3.81.92.96 2.14 1.44 3.66 1.44.9 0 1.76-.17 2.58-.51v-5.31z" fill="#BCA0A0"/><path d="M20.52 29l-.06-9.57-4.56 7.68h-3.12l-4.56-7.35V29H1.77V8h5.82l6.84 11.19L21.09 8h5.82l.06 21h-6.45zm9.874-21h7.08v21h-7.08V8zm31.188 0v21h-5.82l-7.98-9.54V29h-6.9V8h5.82l7.98 9.54V8h6.9zm3.411 0h7.08v21h-7.08V8zm31.189 0v21h-5.82l-7.98-9.54V29h-6.9V8h5.82l7.98 9.54V8h6.9zm17.301 9.93h6.15v8.88c-1.24.86-2.68 1.52-4.32 1.98-1.64.46-3.25.69-4.83.69-2.24 0-4.25-.46-6.03-1.38-1.78-.94-3.18-2.24-4.2-3.9-1-1.68-1.5-3.58-1.5-5.7s.5-4.01 1.5-5.67c1.02-1.68 2.43-2.98 4.23-3.9 1.82-.94 3.87-1.41 6.15-1.41 2.06 0 3.9.35 5.52 1.05 1.64.68 3 1.68 4.08 3l-4.53 3.99c-1.32-1.54-2.89-2.31-4.71-2.31-1.56 0-2.8.47-3.72 1.41-.92.94-1.38 2.22-1.38 3.84 0 1.58.45 2.85 1.35 3.81.92.96 2.14 1.44 3.66 1.44.9 0 1.76-.17 2.58-.51v-5.31z" fill="#373535"/><path d="M58.601 56.48c-2.22 0-4.22-.46-6-1.38-1.78-.94-3.18-2.24-4.2-3.9-1-1.68-1.5-3.58-1.5-5.7s.5-4.01 1.5-5.67c1.02-1.68 2.42-2.98 4.2-3.9 1.78-.94 3.78-1.41 6-1.41 2.04 0 3.86.36 5.46 1.08 1.6.72 2.92 1.76 3.96 3.12l-4.47 3.99c-1.3-1.64-2.83-2.46-4.59-2.46-1.48 0-2.67.48-3.57 1.44-.9.94-1.35 2.21-1.35 3.81s.45 2.88 1.35 3.84c.9.94 2.09 1.41 3.57 1.41 1.76 0 3.29-.82 4.59-2.46l4.47 3.99c-1.04 1.36-2.36 2.4-3.96 3.12-1.6.72-3.42 1.08-5.46 1.08zm22.035 0c-2.26 0-4.29-.47-6.09-1.41-1.8-.94-3.21-2.24-4.23-3.9-1.02-1.68-1.53-3.57-1.53-5.67s.51-3.98 1.53-5.64c1.02-1.68 2.43-2.99 4.23-3.93 1.8-.94 3.83-1.41 6.09-1.41s4.29.47 6.09 1.41c1.8.94 3.21 2.25 4.23 3.93 1.02 1.66 1.53 3.54 1.53 5.64 0 2.1-.51 3.99-1.53 5.67-1.02 1.66-2.43 2.96-4.23 3.9-1.8.94-3.83 1.41-6.09 1.41zm0-5.73c.88 0 1.67-.21 2.37-.63.72-.44 1.29-1.05 1.71-1.83.42-.8.63-1.73.63-2.79s-.21-1.98-.63-2.76c-.42-.8-.99-1.41-1.71-1.83-.7-.44-1.49-.66-2.37-.66-.88 0-1.68.22-2.4.66-.7.42-1.26 1.03-1.68 1.83-.42.78-.63 1.7-.63 2.76 0 1.06.21 1.99.63 2.79.42.78.98 1.39 1.68 1.83.72.42 1.52.63 2.4.63zm33.17 5.25l-.06-9.57-4.56 7.68h-3.12l-4.56-7.35V56h-6.45V35h5.82l6.84 11.19 6.66-11.19h5.82l.06 21h-6.45z" fill="#BCA0A0"/><path d="M58.601 56.48c-2.22 0-4.22-.46-6-1.38-1.78-.94-3.18-2.24-4.2-3.9-1-1.68-1.5-3.58-1.5-5.7s.5-4.01 1.5-5.67c1.02-1.68 2.42-2.98 4.2-3.9 1.78-.94 3.78-1.41 6-1.41 2.04 0 3.86.36 5.46 1.08 1.6.72 2.92 1.76 3.96 3.12l-4.47 3.99c-1.3-1.64-2.83-2.46-4.59-2.46-1.48 0-2.67.48-3.57 1.44-.9.94-1.35 2.21-1.35 3.81s.45 2.88 1.35 3.84c.9.94 2.09 1.41 3.57 1.41 1.76 0 3.29-.82 4.59-2.46l4.47 3.99c-1.04 1.36-2.36 2.4-3.96 3.12-1.6.72-3.42 1.08-5.46 1.08zm22.035 0c-2.26 0-4.29-.47-6.09-1.41-1.8-.94-3.21-2.24-4.23-3.9-1.02-1.68-1.53-3.57-1.53-5.67s.51-3.98 1.53-5.64c1.02-1.68 2.43-2.99 4.23-3.93 1.8-.94 3.83-1.41 6.09-1.41s4.29.47 6.09 1.41c1.8.94 3.21 2.25 4.23 3.93 1.02 1.66 1.53 3.54 1.53 5.64 0 2.1-.51 3.99-1.53 5.67-1.02 1.66-2.43 2.96-4.23 3.9-1.8.94-3.83 1.41-6.09 1.41zm0-5.73c.88 0 1.67-.21 2.37-.63.72-.44 1.29-1.05 1.71-1.83.42-.8.63-1.73.63-2.79s-.21-1.98-.63-2.76c-.42-.8-.99-1.41-1.71-1.83-.7-.44-1.49-.66-2.37-.66-.88 0-1.68.22-2.4.66-.7.42-1.26 1.03-1.68 1.83-.42.78-.63 1.7-.63 2.76 0 1.06.21 1.99.63 2.79.42.78.98 1.39 1.68 1.83.72.42 1.52.63 2.4.63zm33.17 5.25l-.06-9.57-4.56 7.68h-3.12l-4.56-7.35V56h-6.45V35h5.82l6.84 11.19 6.66-11.19h5.82l.06 21h-6.45z" fill="#373535"/><path d="M7.172 41.9h4.485c1.014 0 1.906.186 2.678.559.78.364 1.382.888 1.807 1.573.433.685.65 1.49.65 2.418 0 .927-.217 1.733-.65 2.418-.425.685-1.027 1.213-1.807 1.586-.772.364-1.664.546-2.678.546H7.172v-9.1zm4.355 6.708c.658 0 1.183-.186 1.573-.559.398-.381.598-.914.598-1.599 0-.685-.2-1.213-.598-1.586-.39-.381-.915-.572-1.573-.572H10.24v4.316h1.287zm11.156 2.6c-.98 0-1.86-.204-2.64-.611a4.605 4.605 0 0 1-1.832-1.69c-.442-.728-.663-1.547-.663-2.457 0-.91.22-1.725.663-2.444a4.574 4.574 0 0 1 1.833-1.703c.78-.407 1.66-.611 2.639-.611.98 0 1.859.204 2.639.611.78.407 1.39.975 1.833 1.703.442.72.663 1.534.663 2.444 0 .91-.221 1.729-.663 2.457a4.605 4.605 0 0 1-1.833 1.69c-.78.407-1.66.611-2.64.611zm0-2.483c.381 0 .724-.091 1.027-.273.312-.19.559-.455.74-.793.183-.347.274-.75.274-1.209 0-.46-.091-.858-.273-1.196a1.93 1.93 0 0 0-.741-.793 1.89 1.89 0 0 0-1.027-.286c-.381 0-.728.095-1.04.286a1.96 1.96 0 0 0-.728.793c-.182.338-.273.737-.273 1.196 0 .46.09.862.273 1.209.182.338.425.602.728.793.312.182.659.273 1.04.273zm8.098-4.446h-2.665V41.9h8.398v2.379h-2.666V51h-3.067v-6.721z" fill="#DB4226"/><path d="M2 35h6v1.5H3.5v20H8V58H2V35zM42 35h-6v1.5h4.5v20H36V58h6V35z" fill="#373535"/></svg>