<svg width="114" height="57" viewBox="0 0 114 57" fill="none" xmlns="http://www.w3.org/2000/svg">
<path d="M18.7624 0.595947L14.7111 13.1558L10.4776 0.595947H5.14746V17.7288H8.29857V4.1634L12.9174 17.7288H16.2482L20.6533 4.1634V17.7288H23.8875V0.595947H18.7624Z" fill="black"/>
<path d="M61.4101 56.1828H64.3586L66.6089 48.1272H66.6566L68.8375 56.1828H71.8083L75.4817 43.916H72.3151L70.2061 51.7715H70.1584L67.9775 43.9228H65.1981L63.1362 51.7715H63.0891L61.0632 43.9228H57.8179L61.4101 56.1828Z" fill="black"/>
<path d="M52.5782 43.5679C48.9927 43.5679 46.5168 46.394 46.5168 50.0358L46.5156 50.0249C46.5156 53.7002 48.8167 56.5521 52.8904 56.5521C56.0526 56.5521 57.9997 54.7082 58.4495 52.5274H55.2379C54.8774 53.4641 54.1351 54.0376 52.865 54.0376C51.0199 54.0376 49.9645 52.8634 49.726 50.97H58.6395C58.6395 46.5853 56.531 43.5679 52.5782 43.5679ZM52.6278 46.0836C54.1135 46.0836 55.1413 47.1616 55.2379 48.7192H49.7768C50.0649 47.1139 50.9017 46.0836 52.6278 46.0836Z" fill="black"/>
<path d="M42.54 43.0585H45.7989V40.1323H42.54V43.0598V43.0585Z" fill="black"/>
<path d="M42.54 56.1946H45.7989V43.916H42.54V56.1946Z" fill="black"/>
<path d="M34.3921 56.1944H37.5072L42.0697 43.9004H38.8127L35.9998 52.228H35.9521L33.1678 43.9159H29.855L34.3914 56.1944H34.3921Z" fill="black"/>
<path d="M24.7425 43.5801C21.1571 43.5801 18.6824 46.4062 18.6824 50.048L18.6812 50.0371C18.6812 53.7124 20.981 56.5643 25.0547 56.5643C28.2176 56.5643 30.164 54.7204 30.6138 52.5396H27.4035C27.0429 53.4764 26.3006 54.0498 25.0305 54.0498C23.1854 54.0498 22.1288 52.875 21.8903 50.9822H30.805C30.805 46.5969 28.6972 43.5801 24.7425 43.5801ZM24.7921 46.0959C26.2778 46.0959 27.3068 47.1738 27.4035 48.7314H21.9411C22.2292 47.1267 23.066 46.0959 24.7921 46.0959Z" fill="black"/>
<path d="M5.14795 39.0762V56.2062H8.54951V49.5931H11.9571V49.5943L15.9407 56.2062H19.767L15.4906 49.1477C17.6473 48.4297 18.88 46.7922 18.88 44.3945C18.8886 43.704 18.7571 43.019 18.4936 42.3807C18.2301 41.7424 17.84 41.1641 17.3468 40.6807C16.3413 39.6498 15.0492 39.0762 12.8659 39.0762H5.14795ZM8.54951 42.0941H12.7751C14.495 42.0941 15.4773 42.8611 15.4773 44.4187C15.4773 45.9292 14.5458 46.7663 12.7243 46.7663H8.54951V42.0941Z" fill="black"/>
<path d="M102.903 40.9972H104.821C107.313 40.9972 108.224 40.0164 109.158 37.2835L113.448 24.6797H110.158L108.432 30.2143C108.049 31.3394 107.713 32.897 107.713 32.897H107.668C107.668 32.897 107.261 31.3394 106.878 30.2143L105.057 24.6797H101.627L104.933 33.4261C105.629 35.2941 105.868 36.0865 105.868 36.7569C105.868 37.763 105.341 38.434 104.046 38.434H102.897L102.903 40.9972Z" fill="black"/>
<path d="M94.625 24.3372C91.5098 24.3372 89.3066 26.6847 89.3066 30.3513C89.3066 34.0656 91.9895 36.2214 94.7218 36.2214C95.3317 36.2444 95.9386 36.1266 96.4956 35.8771C97.0525 35.6275 97.5445 35.253 97.9334 34.7826H98.0048V36.1331C98.0048 37.8096 97.1187 38.6973 95.2724 38.6973C93.7557 38.6973 93.0599 38.0993 92.7965 37.3311H89.5716C89.9075 39.7189 91.9683 41.1574 95.322 41.1574C97.1429 41.1574 98.7236 40.7267 99.7545 39.7682C100.664 38.9287 101.215 37.7539 101.215 36.029V24.6724H98.0749V25.9659H98.0277C97.2849 24.9356 96.1578 24.3372 94.625 24.3372ZM95.2409 26.957C97.208 26.957 98.1669 28.4873 98.1669 30.2884L98.1657 30.286C98.1657 32.1069 97.3282 33.6173 95.2663 33.6173C93.5898 33.6173 92.4868 32.3708 92.4868 30.3114C92.4868 28.2519 93.5867 26.957 95.2409 26.957Z" fill="black"/>
<path d="M82.4012 24.3469C78.5909 24.3469 75.9805 27.1731 75.9805 30.839V30.8403C75.9805 34.4994 78.5909 37.3336 82.4012 37.3336C86.2121 37.3336 88.8231 34.5056 88.8231 30.839C88.8231 27.1731 86.2115 24.3469 82.4012 24.3469ZM82.4012 26.8155C84.3912 26.8155 85.516 28.4426 85.516 30.839C85.516 33.2368 84.4135 34.842 82.4012 34.842C80.3888 34.842 79.2864 33.2417 79.2864 30.8403C79.2864 28.4388 80.4118 26.8155 82.4012 26.8155Z" fill="black"/>
<path d="M72.0391 36.9731H75.298V19.8359H72.0502L72.0391 36.9731Z" fill="black"/>
<path d="M64.9554 24.3469C61.1451 24.3469 58.5347 27.1731 58.5347 30.839V30.8403C58.5347 34.4994 61.1451 37.3336 64.9554 37.3336C68.7663 37.3336 71.3773 34.5056 71.3773 30.839C71.3773 27.1731 68.7657 24.3469 64.9554 24.3469ZM64.9554 26.8155C66.9454 26.8155 68.0714 28.4425 68.0714 30.8403L68.0702 30.839C68.0702 33.2368 66.9677 34.842 64.9554 34.842C62.943 34.842 61.8406 33.2349 61.8406 30.8403C61.8406 28.445 62.966 26.8155 64.9554 26.8155Z" fill="black"/>
<path d="M49.9674 24.6679H46.7891V36.9601H50.0486V29.9813C50.0486 28.3048 51.1019 27.1549 52.5405 27.1549C53.9066 27.1549 54.6743 28.0886 54.6743 29.4051V36.9521H57.9264V28.9423C57.9264 26.2596 56.225 24.342 53.6861 24.342C52.0089 24.342 50.8838 25.0372 50.0443 26.3538H49.9724L49.9674 24.6686V24.6679Z" fill="black"/>
<path d="M37.9055 19.8267H34.6577V36.9595H37.9166V29.982C37.9166 28.3054 38.9699 27.1555 40.4085 27.1555C41.7747 27.1555 42.5423 28.0892 42.5423 29.4058V36.9527H45.8012V28.9423C45.8012 26.2596 44.0999 24.3421 41.5609 24.3421C39.8837 24.3421 38.8782 24.9876 37.991 26.2819H37.9191L37.9055 19.8267Z" fill="black"/>
<path d="M22.186 30.824C22.186 34.4906 24.6054 37.317 28.4876 37.317C31.7712 37.317 33.8065 35.2334 34.0228 32.6207H30.8828C30.6573 34.011 29.7323 34.7043 28.407 34.7043C26.417 34.7043 25.4808 33.1467 25.4808 30.8215C25.4808 28.4498 26.487 26.9393 28.4516 26.9393C28.9914 26.9324 29.5157 27.1198 29.9289 27.4673C30.3421 27.8147 30.6167 28.2991 30.7025 28.8321H33.8902C33.4583 26.1717 31.4931 24.3303 28.3079 24.3303C24.57 24.3303 22.1748 27.1574 22.1748 30.824" fill="black"/>
<path d="M15.512 24.3396C11.9298 24.3396 9.45512 27.162 9.45068 30.7991C9.45068 30.8007 9.45068 30.8023 9.45068 30.8039C9.45068 30.8055 9.45068 30.8071 9.45068 30.8087C9.45477 34.4799 11.7554 37.3263 15.8254 37.3263C18.9877 37.3263 20.9348 35.4836 21.3846 33.3027H18.173C17.8124 34.2364 17.0701 34.8117 15.8 34.8117C13.9543 34.8117 12.8996 33.6369 12.661 31.7441H21.5733C21.5733 27.3576 19.4667 24.3396 15.512 24.3396ZM15.5616 26.8542C17.0473 26.8542 18.0751 27.9321 18.1718 29.4897H12.7095C12.9975 27.8851 13.8355 26.8542 15.5616 26.8542Z" fill="black"/>
<path d="M29.1162 0.596097V3.5223H34.6669V17.732H37.9258V3.52044H43.4759V0.594238L29.1162 0.596097Z" fill="black"/>
<path d="M0.00244141 19.836V22.7616H5.15227V36.9707H8.43349V22.7597H13.5858V19.8335L0.00244141 19.836Z" fill="black"/>
<path d="M24.9858 0.595947H28.2404V17.7288H24.9858V0.595947Z" fill="black"/>
</svg>
