<svg width="204" height="58" viewBox="0 0 204 58" fill="none" xmlns="http://www.w3.org/2000/svg">
<g clip-path="url(#clip0)">
<path d="M150.43 43.9323C143.464 43.9323 139.135 39.8908 139.135 33.3763C139.135 26.6154 143.129 22.409 149.561 22.409H150.101C150.908 22.409 152.019 22.4354 153.536 22.6252V14.4644H158.079V43.1968C158.079 43.1968 153.762 43.9323 150.43 43.9323ZM150.389 25.9919C145.988 25.9919 143.848 28.3712 143.848 33.2629C143.848 37.6551 146.43 40.3851 150.579 40.3851C151.376 40.3851 152.29 40.3324 153.535 40.2256V26.2845C152.291 26.0841 151.288 25.9919 150.389 25.9919ZM88.1968 43.2732L75.9239 21.8224L75.92 43.2732H71.6426V16.1174H77.631L89.9039 37.377L89.8986 16.1174H94.2326V43.2732H88.1968ZM127.29 43.6911C125.223 43.6911 123.069 43.4591 120.504 42.9648L120.226 42.912V39.1183L120.632 39.2053C122.894 39.6891 124.847 40.1017 126.802 40.1017C128.38 40.1017 132.056 39.8539 132.056 37.5273C132.056 35.5764 129.515 35.086 127.475 34.6945L127.346 34.6681C126.965 34.5969 126.605 34.5244 126.303 34.448C123.31 33.6703 120.117 32.501 120.117 28.4845C120.117 24.5669 123.212 22.322 128.611 22.322C131.203 22.322 133.083 22.5989 134.596 22.8256L135.33 22.9337V26.6154L134.939 26.5442C133.228 26.2291 131.222 25.9049 129.294 25.9049C127.15 25.9049 124.606 26.3069 124.606 28.2169C124.606 29.8027 126.688 30.2562 129.099 30.7821C132.471 31.5124 136.651 32.4299 136.651 37.0382C136.651 41.2656 133.243 43.6911 127.29 43.6911ZM170.834 43.6911C166.131 43.6911 161.776 42.8606 161.776 36.8471C161.776 30.3023 168.511 30.3023 172.537 30.3023C172.937 30.3023 174.83 30.3906 175.41 30.4157C175.405 26.7445 175.359 25.8693 170.043 25.8693C167.936 25.8693 165.596 26.2858 163.529 26.6575L163.135 26.7287V23.1037L163.4 23.047C165.796 22.5593 168.106 22.322 170.46 22.322C175.612 22.322 179.976 22.8414 179.976 29.2425V43.202L179.663 43.2376C176.095 43.6384 173.262 43.6911 170.835 43.6911H170.834ZM172.424 33.5411C168.541 33.5411 166.135 34.1132 166.135 36.9604C166.135 40.2559 169.205 40.5288 172.084 40.5288C173.158 40.5288 175.092 40.3904 175.683 40.3482V33.6544C174.851 33.6189 172.686 33.5411 172.424 33.5411ZM107.085 43.6911C102.376 43.6911 98.0217 42.8606 98.0217 36.8471C98.0217 30.3023 104.756 30.3023 108.781 30.3023C109.183 30.3023 111.079 30.3906 111.661 30.4157C111.656 26.7445 111.604 25.8693 106.288 25.8693C104.18 25.8693 101.84 26.2858 99.7735 26.6575L99.3787 26.7287V23.1037L99.6511 23.047C101.972 22.5664 104.336 22.3235 106.706 22.322C111.856 22.322 116.221 22.8414 116.221 29.2425V43.202L115.907 43.2376C112.34 43.6384 109.506 43.6911 107.085 43.6911ZM108.668 33.5411C104.787 33.5411 102.386 34.1132 102.386 36.9604C102.386 40.2559 105.45 40.5288 108.33 40.5288C109.409 40.5288 111.342 40.3904 111.933 40.3482V33.6544C111.095 33.6189 108.931 33.5411 108.669 33.5411" fill="#231F20"/>
<mask id="mask0" style="mask-type:alpha" maskUnits="userSpaceOnUse" x="182" y="21" width="21" height="32">
<path d="M182.941 21.0908H202.719V52.7272H182.941V21.0908Z" fill="white"/>
</mask>
<g mask="url(#mask0)">
<path d="M198.067 52.5004V43.5922C196.294 43.84 195.353 43.84 194.592 43.84C192.792 43.84 190.792 43.4485 189.245 42.7947C185.779 41.3513 183.713 37.6867 183.713 32.9848C183.713 30.6384 184.284 26.3477 188.103 24.0356C190.021 22.8888 192.284 22.3984 195.687 22.3984C196.904 22.3984 198.55 22.4907 200.138 22.583L202.719 22.7174V50.4362L198.067 52.5004ZM195.347 25.9826C190.73 25.9813 188.39 28.3408 188.39 32.9848C188.39 38.964 191.881 40.2203 194.816 40.2203C195.53 40.2203 196.333 40.2203 198.111 39.9935V26.1118C196.719 26.0195 196.075 25.9826 195.346 25.9826H195.347Z" fill="#231F20"/>
</g>
<mask id="mask1" style="mask-type:alpha" maskUnits="userSpaceOnUse" x="32" y="0" width="37" height="44">
<path d="M32.9023 0.0209961H68.4378V43.4999H32.9023V0.0209961Z" fill="white"/>
</mask>
<g mask="url(#mask1)">
<path d="M51.3444 0.0209961L36.3168 41.3724C36.131 41.8815 35.8058 42.328 35.3785 42.6606C34.9511 42.9933 34.4389 43.1987 33.9004 43.2534V43.2732H49.7861C51.0298 43.2732 52.0946 42.4809 52.4907 41.3737L67.5236 0.0209961H51.3444Z" fill="#0996C7"/>
</g>
<path d="M32.6042 42.6457C33.5255 42.6457 34.3323 42.187 34.8258 41.4923C34.8772 41.4198 35.0575 41.1667 35.1851 40.8226L40.6971 25.6477L37.4726 16.7856C37.2847 16.3368 36.9805 15.9465 36.5914 15.6551C36.2023 15.3638 35.7425 15.1819 35.2596 15.1284C34.7767 15.0749 34.2883 15.1516 33.845 15.3508C33.4017 15.5499 33.0197 15.8642 32.7384 16.261C32.6858 16.3335 32.4713 16.6564 32.3791 16.9306L26.8672 32.1002L30.1062 40.998C30.3163 41.487 30.6649 41.9037 31.1088 42.1965C31.5527 42.4894 32.0726 42.6455 32.6042 42.6457Z" fill="#0996C7"/>
<mask id="mask2" style="mask-type:alpha" maskUnits="userSpaceOnUse" x="-2" y="13" width="37" height="45">
<path d="M-1.31641 13.1816H34.2191V57.7322H-1.31641V13.1816Z" fill="white"/>
</mask>
<g mask="url(#mask2)">
<path d="M33.7826 14.4785H17.7218C16.4781 14.4785 15.4134 15.2668 15.0119 16.3793L-0.015625 57.7307H16.1635L31.1924 16.3807C31.3874 15.8427 31.7378 15.375 32.1991 15.0372C32.6604 14.6994 33.2116 14.5068 33.7826 14.4838V14.4785Z" fill="#0996C7"/>
</g>
</g>
<defs>
<clipPath id="clip0">
<rect width="204" height="58" fill="white"/>
</clipPath>
</defs>
</svg>
