<svg width="105" height="77" viewBox="0 0 105 77" fill="none" xmlns="http://www.w3.org/2000/svg">
<g clip-path="url(#clip0)">
<path d="M104.267 74.5635C104.267 75.6855 103.44 76.4386 102.461 76.4386V76.4318C101.454 76.4386 100.642 75.6855 100.642 74.5638C100.642 73.4423 101.454 72.6913 102.461 72.6913C103.44 72.691 104.267 73.4421 104.267 74.5635ZM105 74.5635C105 73.0237 103.799 72.1299 102.461 72.1299C101.113 72.1299 99.9121 73.0237 99.9121 74.5635C99.9121 76.1024 101.113 76.9998 102.461 76.9998C103.799 76.9998 105 76.1024 105 74.5635ZM102.04 74.7694H102.311L102.941 75.8712H103.633L102.935 74.723C103.296 74.6974 103.593 74.5263 103.593 74.0428C103.593 73.4421 103.177 73.249 102.472 73.249H101.453V75.8712H102.039V74.7694H102.04ZM102.04 74.3255V73.6941H102.447C102.669 73.6941 102.971 73.7119 102.971 73.9812C102.971 74.2743 102.815 74.3255 102.553 74.3255H102.04Z" fill="black"/>
<path d="M87.8988 61.1497L91.0649 69.7764H84.6346L87.8988 61.1497ZM84.5079 57.7907L77.2114 76.2028H82.3637L83.5178 72.9494H92.1527L93.2449 76.2028H98.8382L91.4874 57.7884L84.5079 57.7907ZM69.8591 76.2096H75.0864V57.7851L69.8582 57.7839L69.8591 76.2096ZM33.5704 57.7839L29.2092 72.3868L25.0314 57.7851L19.3912 57.7839L25.3579 76.2096H32.8886L38.9034 57.7839H33.5704ZM54.6997 61.796H56.9464C60.2058 61.796 62.3138 63.2534 62.3138 67.0354C62.3138 70.8184 60.2058 72.2761 56.9464 72.2761H54.6997V61.796ZM49.5163 57.7839V76.2096H57.9908C62.5059 76.2096 63.9802 75.4622 65.5744 73.7852C66.7004 72.6078 67.4287 70.024 67.4287 67.1994C67.4287 64.6087 66.8124 62.2994 65.7378 60.8605C63.8016 58.287 61.0124 57.7839 56.8499 57.7839H49.5163ZM0 57.7583V76.2096H5.27151V62.1994L9.35607 62.2006C10.7085 62.2006 11.6726 62.5363 12.3239 63.2292C13.1499 64.1055 13.4872 65.52 13.4872 68.1075V76.2096H18.5953V66.0152C18.5953 58.7393 13.939 57.7583 9.38296 57.7583H0ZM41.1034 57.7839L41.1055 76.2096H46.3304V57.7839H41.1034Z" fill="black"/>
<path d="M14.0485 21.0965C14.0485 21.0965 20.7716 11.2171 34.1955 10.1951V6.61084C19.3269 7.80012 6.45117 20.3422 6.45117 20.3422C6.45117 20.3422 13.7438 41.3384 34.1955 43.2609V39.4511C19.187 37.5706 14.0485 21.0965 14.0485 21.0965ZM34.1955 31.8744V35.3634C22.8525 33.3494 19.7039 21.6059 19.7039 21.6059C19.7039 21.6059 25.1502 15.597 34.1955 14.6225V18.451C34.1887 18.451 34.1839 18.4489 34.1782 18.4489C29.4307 17.8815 25.722 22.2986 25.722 22.2986C25.722 22.2986 27.8007 29.7345 34.1955 31.8744ZM34.1955 0V6.61084C34.632 6.57751 35.0685 6.54925 35.5074 6.53437C52.4115 5.96695 63.4256 20.3422 63.4256 20.3422C63.4256 20.3422 50.7755 35.6622 37.5963 35.6622C36.3884 35.6622 35.2576 35.5506 34.1955 35.3631V39.4511C35.1037 39.566 36.0454 39.6335 37.028 39.6335C49.2922 39.6335 58.1613 33.3955 66.7492 26.0125C68.1731 27.1482 74.0024 29.9112 75.2007 31.1208C67.0351 37.9295 48.0048 43.418 37.2159 43.418C36.176 43.418 35.1772 43.3552 34.1955 43.2609V49.0052H80.8107V0H34.1955ZM34.1955 14.6225V10.1954C34.6275 10.1653 35.0628 10.1421 35.5074 10.1281C47.6631 9.74785 55.638 20.5317 55.638 20.5317C55.638 20.5317 47.0243 32.4463 37.7887 32.4463C36.4595 32.4463 35.2678 32.2336 34.1952 31.8744V18.451C38.9275 19.0205 39.8799 21.1024 42.725 25.826L49.0526 20.5121C49.0526 20.5121 44.4335 14.4788 36.6471 14.4788C35.8007 14.4785 34.9908 14.5377 34.1955 14.6225Z" fill="#77B900"/>
</g>
<defs>
<clipPath id="clip0">
<rect width="105" height="77" fill="white"/>
</clipPath>
</defs>
</svg>
