<svg width="213" height="72" viewBox="0 0 213 72" fill="none" xmlns="http://www.w3.org/2000/svg">
<path d="M50.3538 64.9907C56.5316 60.6233 60.421 56.3923 64.8142 48.3857C67.3767 43.9732 70.0308 27.7777 67.1483 16.7682C70.3054 22.4551 70.8088 34.1012 68.0632 43.1087C65.363 52.5257 59.4602 59.3038 50.3538 64.9907ZM43.3981 65.9917C37.9526 65.6277 34.0629 63.3528 29.8073 60.5323C41.2932 64.3537 50.9484 59.2583 57.1261 42.3352C59.7806 38.7867 60.6044 36.1937 61.3821 33.1002C60.1464 43.3817 54.3348 62.2608 43.3981 65.9917ZM22.5312 57.0748C24.1788 58.3032 26.2837 59.3042 28.114 59.9412C34.6578 64.4447 41.2017 66.1733 41.8424 66.3098C34.2917 67.0378 28.2513 62.2608 22.5312 57.0748ZM14.6605 26.6402C6.01139 40.6522 17.1773 56.4378 28.9378 63.6713C19.9687 61.2144 13.379 53.1172 10.3588 46.3387C7.42977 39.1507 8.02474 33.3277 14.6605 26.6402ZM55.5247 44.4278C50.7657 56.0287 43.7642 61.1692 36.1677 60.3958C26.9698 59.7133 22.9431 57.0748 18.0922 49.6597C18.0922 49.6597 18.0922 49.7052 18.138 49.7052C16.5819 47.2028 15.8501 43.6547 15.7128 40.8796C21.5701 54.9822 43.6265 59.3948 55.5247 44.4278ZM29.5785 19.7256C35.6189 14.4482 42.6658 10.6271 49.2097 10.8546C60.7871 11.4005 61.0159 29.4607 56.3943 42.1536C44.0388 58.8947 23.2631 54.1178 18.4584 41.5621C17.0854 35.6022 20.0602 28.1416 29.5785 19.7256ZM58.0415 39.7422C60.3298 32.2812 60.9705 24.2292 59.0941 17.4962C63.3954 24.3202 62.4347 32.8272 58.0415 39.7422ZM62.572 17.0871C62.8466 18.9066 62.9839 21.2722 62.3432 25.4121C61.7024 17.7237 56.5316 10.4906 51.5892 9.26212C56.7146 9.30762 60.421 11.082 62.572 17.0871ZM61.977 35.2837C62.5262 31.4626 62.5262 27.8232 62.5262 27.8232C62.8008 26.2307 63.35 23.2737 63.35 20.2257C68.0174 33.8737 62.8923 52.1162 52.0468 61.5332C55.0674 57.3023 60.1921 47.1122 61.977 35.2837ZM55.5705 59.8953C59.506 54.3452 64.448 44.9737 65.638 34.9201C65.821 33.1002 66.5991 15.8586 59.3229 8.35215C66.5987 10.7636 68.887 23.5012 67.6971 34.0102C66.5071 45.0647 61.8855 53.8903 55.5705 59.8953ZM65.8668 9.48961C64.3565 6.9872 58.728 3.07511 49.1181 4.16707C37.0831 4.16707 25.5057 10.6271 17.6346 16.7686C9.67271 23.1376 5.32565 29.1426 5.27989 32.5542C5.18835 36.8307 7.56783 45.7927 12.281 52.7987C16.9031 59.4403 21.0213 61.7607 27.2905 64.9452C33.4683 68.2203 41.614 70.0858 47.7917 66.5828C55.5708 64.9448 62.6639 56.0742 67.1025 46.7937C71.4042 38.0591 72.731 20.0441 65.8668 9.48961Z" fill="#FFE600"/>
<path d="M97.2125 42.2442C100.782 42.2442 103.253 39.4692 103.253 36.0117C103.253 32.5542 100.827 29.7337 97.2125 29.7337C93.6431 29.7337 91.1721 32.5546 91.1721 36.0117C91.2179 39.4696 93.6435 42.2442 97.2125 42.2442ZM97.2125 24.0471C104.123 24.0471 109.339 29.4152 109.339 36.0117C109.339 42.6537 104.123 47.9307 97.2125 47.9307C90.3026 47.9307 85.0859 42.6537 85.0859 36.0117C85.0859 29.3697 90.3026 24.0471 97.2125 24.0471ZM128.01 24.0471V29.9612C124.211 29.9612 122.244 30.5071 120.688 31.3261V47.4757H114.556V27.9596C118.08 25.2297 122.518 24.0471 127.277 24.0471H128.01ZM167.227 28.0506C167.227 26.1397 169.561 24.0471 173.679 24.0471C176.836 24.0471 179.719 25.4576 181.595 27.7321C183.106 29.5521 183.929 31.8721 183.929 35.7842V47.4757H177.797V35.2837C177.797 33.0092 177.294 31.8266 176.424 30.9621C175.646 30.1432 174.411 29.6882 172.992 29.6882C170.384 29.6882 168.279 31.3261 167.455 32.5091V47.4299H161.323V24.5025H167.227V28.051V28.0506ZM200.769 42.2446C204.339 42.2446 206.81 39.4696 206.81 36.0121C206.81 32.5546 204.384 29.7341 200.769 29.7341C197.199 29.7341 194.729 32.5549 194.729 36.0121C194.729 39.4699 197.2 42.2446 200.769 42.2446ZM200.769 24.0475C207.679 24.0475 212.896 29.4156 212.896 36.0121C212.896 42.6541 207.679 47.9311 200.769 47.9311C193.859 47.9311 188.643 42.6541 188.643 36.0121C188.643 29.3701 193.859 24.0475 200.769 24.0475ZM148.465 31.1896C147.092 30.0977 145.673 29.5517 143.34 29.5517C139.221 29.5517 136.933 32.6911 136.933 35.9662C136.933 39.515 139.541 42.3352 142.973 42.3352C145.262 42.3352 147.32 41.1977 148.465 39.5147V31.1896ZM154.597 28.5962V47.4757H148.693V43.9731C148.693 45.7017 145.078 47.9307 141.829 47.9307C135.194 47.9307 130.801 43.0177 130.801 35.9662C130.801 29.2787 135.88 23.9561 142.882 23.9561C147.549 23.9106 151.256 25.3211 154.597 28.5966" fill="black"/>
</svg>
