<svg width="109" height="47" fill="none" xmlns="http://www.w3.org/2000/svg"><path fill-rule="evenodd" clip-rule="evenodd" d="M0 0h109v46.699H0V0z" fill="#CC2229"/><path fill-rule="evenodd" clip-rule="evenodd" d="M36.424 23.35c0-7.624-6.174-13.508-13.881-13.508-7.708 0-13.883 5.884-13.883 13.508 0 7.623 6.175 13.507 13.883 13.507 7.707 0 13.881-5.884 13.881-13.507zm-6.588 0c0 4.101-3.523 7.375-7.294 7.375-3.813 0-7.294-3.274-7.294-7.375 0-4.102 3.482-7.375 7.294-7.375 3.77 0 7.294 3.273 7.294 7.375zm15.78 13.009h6.381v-7.583h4.766l5.013 7.583h7.956l-6.422-9.114c3.024-1.327 5.138-4.186 5.138-7.707 0-5.18-3.813-9.198-9.614-9.198h-13.22v26.019h.001zm12.846-13.714h-6.464V16.47h6.464c2.777 0 3.605 1.368 3.605 3.067 0 1.74-.829 3.107-3.605 3.107zm20.718 13.7h6.378v-8.76H97.61v-6.129H85.56v-4.988h14.784V10.34H79.18v26.004z" fill="#fff"/></svg>