<svg width="149" height="50" viewBox="0 0 149 50" fill="none" xmlns="http://www.w3.org/2000/svg">
<path d="M134.797 6.74518V20.985H118.308V18.8437H132.655V5.99572C120.878 2.67666 108.779 9.52891 105.46 21.3062C102.463 32.0129 107.923 43.3619 118.308 47.6445V33.5118H134.797V35.6531H120.45V48.394C132.12 51.8201 144.433 45.182 147.859 33.5118C151.071 22.591 145.396 10.9208 134.797 6.74518ZM22.9122 5.78159C29.6574 5.78159 32.6552 10.3854 32.6552 16.06C32.6552 21.7345 29.3362 26.5525 22.9122 26.5525C15.5246 26.5525 12.955 21.4133 12.955 16.06C12.955 9.63598 16.5953 5.78159 22.9122 5.78159ZM22.9122 23.2334C27.0878 23.2334 28.4797 18.5225 28.4797 16.167C28.4797 14.1328 27.3019 9.20771 22.9122 9.20771C18.7366 9.20771 17.0236 12.7409 17.0236 16.167C16.9165 18.6296 18.0942 23.2334 22.9122 23.2334ZM47.5375 26.2313V23.5546H47.4304C46.1456 25.5889 43.8972 26.7666 41.4347 26.6595C37.2591 26.6595 34.0471 24.5182 34.0471 19.379V6.42398H38.5439V19.272C38.5439 22.4839 40.4711 23.4475 42.6124 23.4475C47.2163 23.4475 47.3233 19.0578 47.3233 17.1306V6.42398H51.606V26.2313H47.5375ZM71.9486 18.6296C71.4133 22.6981 68.7366 26.2313 62.848 26.2313C56.9593 26.2313 53.4261 22.0557 53.4261 16.4882C53.4261 10.9208 56.3169 5.78159 62.848 5.78159C68.9508 5.78159 72.2698 10.0642 72.2698 16.9165H57.6017C57.6017 19.7002 58.7794 23.0193 62.955 23.0193C65.5246 23.1263 67.773 21.1991 67.9872 18.6296H71.9486ZM67.8801 14.2398C67.666 11.5632 66.06 8.99358 62.848 8.99358C59.9572 8.99358 57.6017 11.242 57.6017 14.1328V14.3469H67.8801V14.2398ZM100.107 42.0771C99.5717 46.1456 96.8951 49.6788 91.0064 49.6788C85.1178 49.6788 81.5846 45.6103 81.5846 39.9358C81.5846 34.2612 84.4754 29.2291 91.0064 29.2291C97.1092 29.2291 100.428 33.5118 100.428 40.364H85.6531C85.6531 43.1478 86.8308 46.4668 91.0064 46.4668C93.576 46.5739 95.8244 44.6467 96.0386 42.0771H100.107ZM95.9315 37.5803C95.7174 34.9036 94.1114 32.3341 90.8994 32.3341C88.0086 32.227 85.6531 34.5824 85.6531 37.4732V37.6874H95.9315V37.5803ZM84.7966 11.349C84.7966 10.4925 83.833 8.77945 80.8351 8.77945C79.6574 8.77945 76.8737 8.67238 76.8737 11.0278C76.8737 13.1692 79.015 13.3833 82.4411 13.9186C86.5096 14.6681 89.8287 15.6317 89.8287 19.9143C89.8287 23.9829 86.0814 26.2313 81.3705 26.2313C72.2698 26.2313 72.8051 20.985 72.6981 18.7366H76.5525C76.6595 20.2355 76.2313 23.1263 81.2634 23.1263C83.833 23.1263 85.546 22.591 85.546 20.4497C85.546 18.3084 83.7259 17.8801 80.2998 17.3448C75.2677 16.5953 72.9122 14.9893 72.9122 11.242C72.9122 6.95932 77.0878 5.78159 81.2634 5.78159C88.651 5.78159 89.1863 11.242 89.1863 11.5632L84.7966 11.349ZM96.4668 9.31478V21.3062C96.4668 22.8051 97.5375 22.8051 98.287 22.8051H100.214V25.803H95.182C94.1114 25.803 92.3983 24.5182 92.3983 22.1627V9.31478H89.1863V6.42398H92.3983V0H96.4668V6.31692H100.214V9.20771L96.4668 9.31478ZM7.28051 33.1906V49.3576H3.21199V33.1906H0V29.8715H3.21199V26.7666C3.21199 24.4111 5.13919 22.4839 7.49465 22.591H11.349V26.1242H9.20771C7.81585 26.1242 7.28051 26.6595 7.28051 28.1585V29.9786H11.349V33.2976L7.28051 33.1906ZM17.2377 49.3576H13.4904V29.8715H17.2377V33.2976C18.3084 31.0493 20.5567 29.5503 23.1263 29.4433H24.9465V33.1906H23.2334C20.1285 33.0835 17.4518 35.439 17.2377 38.5439V49.3576Z" fill="#E2001A"/>
<path d="M24.6252 35.8672C24.8393 31.1563 28.2654 29.2291 33.5117 29.2291C36.1883 29.2291 41.3275 29.9786 41.3275 35.0107V49.3576H37.5802V47.3233C35.7601 49.0364 33.2976 50 30.835 50C25.91 50 24.0898 47.1092 24.0898 44.2184C24.0898 42.6124 24.304 38.9721 30.0856 38.3297L35.5459 37.4732C36.6166 37.3661 37.4731 36.5096 37.3661 35.4389C37.3661 33.6188 36.1883 32.9764 33.2976 32.9764C30.1926 32.9764 29.0149 34.0471 29.0149 35.9743L24.6252 35.8672ZM37.4731 39.6145C36.9378 40.0428 36.0813 40.364 31.6916 40.7923C29.9785 41.0064 28.2654 41.3276 28.2654 43.7901C28.2654 45.7173 29.7644 46.4668 31.6916 46.4668C34.2612 46.4668 37.3661 45.0749 37.3661 42.8265L37.4731 39.6145ZM60.4924 49.3576H56.2098V37.5803C56.2098 33.94 54.925 32.4411 52.0342 32.4411C49.9999 32.4411 47.2162 33.833 47.2162 38.2227V49.3576H43.0406V29.8715H47.2162V32.4411C48.3939 30.8351 50.4282 28.9079 53.2119 28.9079C55.032 28.9079 60.3853 29.9786 60.3853 36.1884V49.3576H60.4924ZM76.3382 36.0813C76.017 33.94 74.0898 32.334 71.8414 32.4411C67.4517 32.4411 66.274 35.9743 66.274 39.4004C66.274 42.3983 67.1305 46.3597 71.8414 46.3597C74.411 46.3597 75.8029 44.4325 76.3382 41.8629H80.6209C80.2997 44.9679 78.0513 49.6788 71.8414 49.6788C65.5245 49.6788 62.2055 45.6103 62.2055 39.4004C62.2055 32.227 66.7023 28.9079 71.9485 28.9079C76.6594 28.9079 80.1926 32.0128 80.5138 35.9743L76.3382 36.0813Z" fill="#E2001A"/>
</svg>
