<svg width="150" height="36" viewBox="0 0 150 36" fill="none" xmlns="http://www.w3.org/2000/svg">
<path d="M69.1481 14.1484C69.1481 15.2242 68.9489 15.3238 67.8242 15.7494V17.0733H82.0233V11.2995H80.6252L79.975 13.2247C79.5512 14.4998 79.0259 15.2007 77.5752 15.2007H76.0249C74.8006 15.2007 74.2011 14.8258 74.2011 13.5507V3.2763C74.2011 2.2005 74.576 2.1516 75.7496 1.67709V0.376709H67.8749V1.67709C68.9996 2.10089 69.2007 2.20231 69.2007 3.2763V14.1502" fill="#21836F"/>
<path d="M55.4981 3.27459C55.4981 2.19879 55.873 2.14989 57.0466 1.67538V0.375H49.1719V1.67538C50.2984 2.09918 50.4976 2.2006 50.4976 3.27459V10.874C50.4976 14.7987 53.0223 17.4248 58.2474 17.4248C62.6719 17.4248 65.3723 15.074 65.3723 11.4735V3.27459C65.3723 2.19879 65.5715 2.09918 66.698 1.67538V0.375H61.8714V1.67538C62.9979 2.09918 63.1971 2.2006 63.1971 3.27459V11.0497C63.1971 13.5001 61.8714 14.9997 59.2978 14.9997C57.0466 14.9997 55.547 13.7247 55.547 11.3014V3.2764" fill="#21836F"/>
<path d="M24.6499 15.5484C22.674 15.5484 21.7485 13.7246 21.7485 8.69877C21.7485 3.67475 22.6994 1.84914 24.6499 1.84914C26.6005 1.84914 27.5495 3.67293 27.5495 8.69877C27.5731 13.7246 26.624 15.5484 24.6499 15.5484ZM24.6499 0C19.5245 0 16.25 4.075 16.25 8.72412C16.25 13.3732 19.5245 17.4482 24.6499 17.4482C29.7754 17.4482 33.0499 13.3732 33.0499 8.72412C33.0499 4.075 29.7736 0 24.6499 0Z" fill="#21836F"/>
<path d="M40.824 8.99951H39.7736V2.2495H40.7987C42.1987 2.2495 43.298 2.84898 43.298 5.6236C43.298 8.39822 42.224 8.99951 40.824 8.99951ZM42.0755 0.375H33.4238V1.67538C34.5485 2.09918 34.7496 2.2006 34.7496 3.27459V14.1485C34.7496 15.2243 34.5485 15.3239 33.4238 15.7495V17.0734H41.2985V15.7495C40.1249 15.275 39.75 15.2243 39.75 14.1485V10.874H42.0502C46.5508 10.874 48.7748 8.39822 48.7748 5.6236C48.7748 2.84898 46.5997 0.375 42.0755 0.375Z" fill="#21836F"/>
<path d="M108.451 8.67351H107.701V2.2495H108.451C110.277 2.2495 111.651 2.94859 111.651 5.39902C111.65 7.8241 110.275 8.67351 108.451 8.67351ZM116.527 13.549L113.75 9.3237C115.775 8.62461 117.125 7.12501 117.125 5.14909C117.125 2.57369 114.875 0.375 110.701 0.375H101.352V1.67538C102.476 2.09918 102.674 2.2006 102.674 3.27459V14.1485C102.674 15.2243 102.476 15.3239 101.352 15.7495V17.0734H109.226V15.7495C108.053 15.275 107.678 15.2243 107.678 14.1485V10.548H108.701L112.6 17.0734H119.026V15.7495C117.925 15.4996 117.374 14.7987 116.527 13.549Z" fill="#21836F"/>
<path d="M7.37484 8.99951H6.34975V2.2495H7.37484C8.77483 2.2495 9.87418 2.84898 9.87418 5.6236C9.87418 8.39822 8.77483 8.99951 7.37484 8.99951ZM8.62451 0.375H0V1.67538C1.12651 2.09918 1.32573 2.2006 1.32573 3.27459V14.1485C1.32573 15.2243 1.12651 15.3239 0 15.7495V17.0734H7.87471V15.7495C6.70111 15.275 6.32621 15.2243 6.32621 14.1485V10.874H8.62632C13.1251 10.874 15.351 8.39822 15.351 5.6236C15.351 2.84898 13.1505 0.375 8.62451 0.375Z" fill="#21836F"/>
<path d="M87.9752 10.2491L90 4.35031L91.8745 10.2491H87.9752ZM98.9252 14.6736L93.8504 0.373108H86.9012V1.77309C88.2994 1.77309 88.6236 2.32367 88.1255 3.82327L84.2751 14.6736C84.0505 15.2749 83.7988 15.6227 82.9512 15.7494V17.0734H88.0766V15.7494C86.6766 15.7494 86.4267 15.1989 86.7255 14.248L87.3757 12.1489H92.5012L93.2021 14.248C93.5262 15.1735 93.251 15.5231 92.1263 15.7494V17.0734H100.2V15.7494C99.4015 15.4995 99.1516 15.2749 98.9252 14.6736Z" fill="#21836F"/>
<path d="M111.35 18.8482V20.1721C112.474 20.5959 112.672 20.6974 112.672 21.7732V32.6489C112.672 33.7247 112.474 33.8225 111.35 34.2481V35.5485H119.023V34.2481C117.897 33.8243 117.699 33.7247 117.699 32.6489V21.7732C117.699 20.6974 117.897 20.5977 119.023 20.1721V18.8482H111.35Z" fill="#21836F"/>
<path d="M37.9785 27.0996C37.9785 32.2504 41.2295 35.898 46.9544 35.898C48.78 35.898 51.129 35.5231 53.0542 34.9725V29.6732H51.6542C50.8048 32.8209 49.93 34.0217 47.6299 34.0217C45.4294 34.0217 43.5042 32.2486 43.5042 27.1721C43.5042 22.0955 45.5797 20.3224 47.6788 20.3224C49.604 20.3224 50.6798 21.0233 51.6289 24.124H53.0288V18.9732C51.1036 18.9732 49.2291 18.4479 46.929 18.4479C42.2038 18.4733 37.9785 21.2733 37.9785 27.0996Z" fill="#21836F"/>
<path d="M119.527 27.0996C119.527 32.2504 122.776 35.898 128.501 35.898C130.327 35.898 132.676 35.5231 134.601 34.9725V29.6732H133.203C132.352 32.8209 131.477 34.0217 129.177 34.0217C126.976 34.0217 125.053 32.2486 125.053 27.1721C125.053 22.0955 127.127 20.3224 129.228 20.3224C131.153 20.3224 132.227 21.0233 133.178 24.124H134.578V18.9732C132.652 18.9732 130.776 18.4479 128.478 18.4479C123.751 18.4733 119.527 21.2733 119.527 27.0996Z" fill="#21836F"/>
<path d="M37.0231 29.7493H35.6231L34.9729 31.6745C34.5473 32.9495 34.0239 33.6504 32.5732 33.6504H30.5484C29.3241 33.6504 28.7246 33.2755 28.7246 32.0005V27.8766H32.3486V26.0021H28.7246V20.701H32.3486C33.7975 20.701 34.1724 21.4508 34.7484 22.6769L35.3986 24.1276H36.7985V18.8246H22.373V20.1486C23.4977 20.5724 23.697 20.6738 23.697 21.7478V32.6253C23.697 33.6993 23.4977 33.7989 22.373 34.2245V35.5249H37.0231V29.7493" fill="#21836F"/>
<path d="M4.8248 34.2245C3.7001 33.8007 3.50088 33.6993 3.50088 32.6253V21.9742L8.12645 35.5231H10.3759L14.7769 21.9742V32.6253C14.7769 33.6993 14.5776 33.7989 13.4529 34.2245V35.5249H21.1031V34.2245C19.9784 33.8007 19.7791 33.6993 19.7791 32.6253V21.7478C19.7791 20.6738 19.9784 20.5742 21.1031 20.1486V18.8246H13.654L10.8286 27.6737L7.92542 18.8246H0V20.1486C1.12651 20.5724 1.32573 20.6738 1.32573 21.7478V32.6253C1.32573 33.6993 1.12651 33.7989 0 34.2245V35.5249H4.8248V34.2245" fill="#21836F"/>
<path d="M97.7504 34.2245C96.5768 33.75 96.2019 33.6993 96.2019 32.6253V23.0246L104.077 35.5485H108.876V21.775C108.876 20.6992 109.075 20.5995 110.2 20.1739V18.85H105.375V20.1739C106.5 20.5977 106.699 20.6992 106.699 21.775V29.8235L99.8513 18.8482H92.7246V20.1721C93.8493 20.5959 94.0485 20.6974 94.0485 21.7732V32.6489C94.0485 33.7247 93.8493 33.8225 92.7246 34.2481V35.5485H97.7993V34.2245" fill="#21836F"/>
<path d="M54.6973 35.5231H62.3474V34.2227C61.2227 33.7989 61.0217 33.6975 61.0217 32.6235V27.8983H66.7466V32.6235C66.7466 33.6975 66.5474 33.7971 65.4227 34.2227V35.5231H73.0728V34.2227C71.9481 33.7989 71.7489 33.6975 71.7489 32.6235V21.746C71.7489 20.672 71.9481 20.5724 73.0728 20.1468V18.8246H65.4227V20.1486C66.5474 20.5724 66.7466 20.6738 66.7466 21.7478V26.0238H61.0235V21.7478C61.0235 20.6738 61.2245 20.5742 62.3492 20.1486V18.8246H54.6991V20.1486C55.8238 20.5724 56.023 20.6738 56.023 21.7478V32.6253C56.023 33.6993 55.8238 33.7989 54.6991 34.2245V35.5231" fill="#21836F"/>
<path d="M137.65 29.675H136.25V34.9743C137.474 34.9743 139.575 35.8998 142.625 35.8998C147.05 35.8998 150 33.4747 150 30.1749C150 28.5757 149.401 27.451 148.5 26.6505C147.425 25.6761 145.974 25.2523 144.002 24.6746C143.025 24.4011 142.35 24.2 141.875 23.8759C141.401 23.5517 141.077 23.0772 141.077 22.3274C141.077 21.2027 142.051 20.3025 143.652 20.3025C145.853 20.3025 147.227 21.851 147.551 23.7292H149V18.9533C147.501 18.9533 145.675 18.428 143.076 18.428C138.853 18.428 136.127 20.6267 136.127 23.9519C136.127 25.3519 136.652 26.4784 137.402 27.3278C138.251 28.228 139.427 28.6771 140.653 29.052C141.778 29.378 142.578 29.6026 143.426 29.9521C144.328 30.2781 144.976 30.9265 144.976 31.8773C144.976 33.002 144.002 33.9746 142.201 33.9746C139.849 34.0235 138.025 32.4732 137.65 29.675Z" fill="#21836F"/>
<path d="M79.2974 28.7224L81.3241 22.8218L83.1986 28.7224H79.2974ZM90.2239 33.1234L85.1473 18.8246H78.1963V20.2228C79.5963 20.2228 79.9223 20.7752 79.4224 22.2748L75.572 33.0998C75.3474 33.6993 75.0975 34.0488 74.248 34.1756V35.476H79.3717V34.1756C77.9735 34.1756 77.7236 33.625 78.0242 32.676L78.6726 30.5751H83.7962L84.4971 32.676C84.8231 33.5997 84.546 33.9492 83.4213 34.1756V35.476H91.4971V34.1756C90.6984 33.9728 90.472 33.75 90.2239 33.1234Z" fill="#21836F"/>
</svg>
