<svg width="129" height="32" fill="none" xmlns="http://www.w3.org/2000/svg"><path d="M62.185 0l.723.73v15.196l-8.713 8.804v6.54c-.283.284-.44.444-.723.73H40.963l-.722-.73v-6.465l-8.57-8.733V.731l.724-.73h12.508l.723.73v15.195h3.183V.73l.723-.73h12.653zm66.092 0h-12.654l-.722.731v15.195h-3.184V.732l-.722-.73H98.486l-.723.73v15.341l8.569 8.733v6.464c.282.285.44.446.723.73h12.508l.723-.73V24.73L129 15.927V.732L128.277 0zM14.244 15.927v-3.141h13.52l.723-.731V.73L27.765 0H6.327L0 6.392v8.805c.282.285.44.445.723.728h13.52zm13.52 0h-13.52v3.141H.724l-.724.73V31.27l.723.73h21.438l6.327-6.392v-8.95c-.283-.286-.44-.446-.723-.73zM93.857.001H72.418l-6.326 6.392V31.27l.723.73h12.508l.723-.73v-3.982h13.81l.723-.73v-9.901l-.723-.73h-13.81v-3.142h13.81l.723-.73V.732L93.856 0z" fill="#000"/></svg>