<svg width="214" height="31" viewBox="0 0 214 31" fill="none" xmlns="http://www.w3.org/2000/svg">
<path d="M85.4443 11.8073V24.6217H80.7413V11.8073H76V7.70664H90.1856V11.8073H85.4443ZM101.155 19.5472H93.6583C93.6521 19.8264 93.7045 20.1038 93.812 20.3615C93.9196 20.6192 94.0799 20.8515 94.2828 21.0435C94.4856 21.2355 94.7264 21.3828 94.9896 21.476C95.2529 21.5692 95.5327 21.6062 95.8112 21.5847C96.9684 21.5785 98.1039 21.2692 99.1045 20.6877L100.809 23.5069C99.2671 24.456 97.4935 24.9615 95.683 24.9677C91.8387 24.9677 89.7499 22.2511 89.7499 18.3555C89.7499 13.9729 92.2231 11.7176 95.5549 11.7176C98.8866 11.7176 101.219 14.0242 101.219 18.7399C101.168 19.0474 101.168 19.3165 101.155 19.5344V19.5472ZM95.3883 14.8955C94.3888 14.8955 93.8505 15.5747 93.6968 16.8433H97.3233C97.1054 15.5619 96.6825 14.8955 95.4011 14.8955H95.3883ZM109.254 24.9293C105.537 24.9293 103.308 22.5586 103.308 18.2658C103.308 14.4214 105.281 11.6791 109.356 11.6791C110.358 11.6459 111.349 11.8981 112.213 12.4063C113.078 12.9145 113.78 13.6577 114.238 14.5496L111.24 16.8562C110.637 15.7541 110.215 15.2159 109.279 15.2159C108.344 15.2159 107.613 16.3308 107.613 18.3426C107.613 20.3545 108.216 21.3925 109.407 21.3925C110.227 21.3925 110.817 20.9312 111.611 19.7266L114.366 21.8794C112.88 24.0579 111.509 24.9165 109.241 24.9165L109.254 24.9293ZM124.118 24.673V17.4584C124.118 15.7926 123.567 15.3697 122.67 15.3697C121.773 15.3697 121.184 15.8054 121.184 17.42V24.6858H116.827V8.79587L121.184 7.0531V12.8196C122.086 12.08 123.221 11.6849 124.387 11.7048C127.168 11.7048 128.488 13.5757 128.488 16.9074V24.6858L124.118 24.673Z" fill="#0A9600"/>
<path d="M138.933 24.9293C133.897 24.9293 131.244 21.2131 131.244 16.1898C131.244 10.7437 134.448 7.45035 138.933 7.45035C143.098 7.45035 144.738 9.24437 145.904 12.448L141.649 14.1139C141.034 12.5377 140.458 11.551 138.907 11.551C136.947 11.551 136.088 13.5116 136.088 16.2026C136.088 18.8937 136.908 20.8415 138.946 20.8415C140.419 20.8415 141.047 20.047 141.97 18.4451L145.942 20.5595C145.354 21.9158 144.367 23.0612 143.113 23.8439C141.859 24.6266 140.397 25.0096 138.92 24.9421L138.933 24.9293ZM156.694 16.728C156.453 16.4148 156.148 16.1576 155.798 15.9739C155.449 15.7903 155.063 15.6847 154.669 15.6644C153.605 15.6644 152.952 16.177 152.952 17.7147V24.6345H148.595V11.9482H152.952V12.8709C153.553 12.2358 154.354 11.8249 155.22 11.7061C156.087 11.5873 156.968 11.7676 157.719 12.2173L156.694 16.728ZM167.073 24.6473V23.8016C166.183 24.5434 165.054 24.9392 163.895 24.9165C161.115 24.9165 159.795 23.0455 159.795 19.701V11.9738H164.152V19.1499C164.152 20.7902 164.716 21.2259 165.613 21.2259C166.51 21.2259 167.061 20.7902 167.061 19.2012V11.9738H171.443V24.6858L167.073 24.6473ZM181.887 24.6473V17.4328C181.887 15.7669 181.323 15.3441 180.439 15.3441C179.555 15.3441 178.952 15.7797 178.952 17.3944V24.6602H174.595V11.9738H178.952V12.8196C179.854 12.08 180.99 11.6849 182.156 11.7047C184.937 11.7047 186.257 13.5757 186.257 16.9074V24.6858L181.887 24.6473ZM194.765 24.9036C191.049 24.9036 188.807 22.533 188.807 18.2401C188.807 14.3958 190.793 11.6535 194.855 11.6535C195.859 11.6225 196.85 11.8754 197.716 12.3832C198.582 12.8911 199.287 13.6331 199.75 14.5239L196.752 16.7921C196.137 15.69 195.727 15.1518 194.791 15.1518C193.856 15.1518 193.125 16.2667 193.125 18.2786C193.125 20.2904 193.727 21.3284 194.919 21.3284C195.739 21.3284 196.329 20.8671 197.123 19.6625L199.878 21.8154C198.405 24.0451 197.021 24.8908 194.778 24.8908L194.765 24.9036ZM209.63 24.6473V17.4328C209.63 15.7669 209.079 15.3441 208.182 15.3441C207.285 15.3441 206.708 15.7797 206.708 17.3944V24.6602H202.352V8.77023L206.708 7.02747V12.794C207.604 12.0523 208.737 11.6567 209.899 11.6791C212.693 11.6791 214 13.55 214 16.8818V24.6602L209.63 24.6473Z" fill="black"/>
<path d="M0 0V10.1696H10.1555V30.4933H20.325V10.1696H30.4805V0H0ZM40.65 20.3237V10.1683H30.4792V30.492H60.9738V20.3225L40.65 20.3237ZM40.65 0H60.9738V10.1696H40.65V0Z" fill="#0A9600"/>
</svg>
