<svg width="95" height="56" fill="none" xmlns="http://www.w3.org/2000/svg"><g clip-path="url(#clip0)" fill="#000"><path d="M83.525.326v12.468c2.119-.316 4.217.651 6.193-.865 1.218-.926 3.081-.468 4.085.692.983 1.14 1.054 2.951.174 4.173-.932 1.303-2.754 2.005-3.972 1.079-2.048-1.547-4.208-.682-6.48-.957v9.68H79.06v-9.497H69.008v9.517h-4.381V3.898h4.33v8.743H78.99V.316c1.515.01 3.02.01 4.535.01zM84.168 56c-2.815-.804-5.18-2.117-5.958-5.211-.163-.662-.215-1.344-.327-2.127h4.422c.348 2.137 1.485 3.49 3.85 3.41 1.34-.041 2.466-.53 2.835-1.934.369-1.395-.256-2.453-1.505-3.034-1.607-.753-3.306-1.292-4.903-2.045-4.126-1.955-5.395-6.494-2.887-10.077 1.72-2.463 5.487-3.45 8.927-2.35 2.651.844 4.197 3.083 4.238 6.248h-3.655c-1.198-1.099-1.924-2.127-2.918-2.585-1.208-.55-2.477-.112-3.091 1.232-.604 1.313-.225 2.443 1.003 3.186.768.468 1.648.763 2.498 1.109.993.407 2.027.723 2.99 1.201 3.04 1.496 4.196 3.583 3.88 6.88-.277 2.88-2.192 4.977-5.263 5.792-.307.081-.594.203-.89.305h-3.246zM57.185 55.511h-4.35V41.974c-.093-.02-.185-.05-.277-.07-.553 1.322-1.116 2.646-1.669 3.969-1.198 2.86-2.477 5.7-3.542 8.61-.583 1.598-1.77.988-2.795 1.11-.91.112-1.576-.03-1.996-1.09-1.668-4.223-3.46-8.396-5.384-13.027V55.47H32.77V32.63c1.453 0 2.907-.081 4.33.05.42.042.931.622 1.136 1.07 2.222 4.865 4.392 9.76 6.665 14.84.706-1.558 1.361-2.983 2.006-4.418 1.536-3.42 3.092-6.83 4.576-10.27.42-.977.952-1.404 2.058-1.303 1.167.112 2.354.02 3.644.02v22.891zM61.126 11.216c-1.382 0-2.661.051-3.941-.03-.39-.02-.952-.295-1.116-.621-1.31-2.504-3.501-3.227-6.091-2.992-2.733.244-4.576 1.811-5.549 4.295-.952 2.453-.88 4.956.277 7.338 1.116 2.3 2.969 3.603 5.59 3.736 2.569.132 4.637-.682 5.947-3.044.184-.336.676-.661 1.054-.692 1.229-.081 2.468-.03 3.706-.03-.276 3.806-3.542 6.992-7.882 7.806-5.58 1.049-10.841-1.598-12.93-6.483-2.344-5.476-.798-11.807 3.665-15.064C49.814 1.1 58.67 3.573 60.901 10.198c.082.306.123.621.225 1.018zM36.404 22.463v4.163H23.393V3.908h13v3.909h-8.506v5.008h7.35v4.132h-7.32v5.496c2.775.01 5.549.01 8.487.01zM62.15 32.712h12.93v3.97h-8.538v4.977h7.37v4.122h-7.35v5.558h8.477V55.5H62.15V32.713zM19.931 36.773h-7.35v18.688H8.118V36.803H.727v-4.102H19.93v4.072zM12.53 26.657H8.088V7.939H.717v-4.01h19.225v3.96h-7.401c-.01 6.34-.01 12.477-.01 18.768zM28.019 55.532h-3.972V39.064h3.972v16.468zM26.083 36.773c-1.648.02-2.784-1.028-2.835-2.605a2.794 2.794 0 0 1 2.774-2.9c1.556-.011 2.846 1.271 2.846 2.849-.01 1.578-1.126 2.636-2.785 2.657z"/></g><defs><clipPath id="clip0"><path fill="#fff" d="M0 0h94.857v56H0z"/></clipPath></defs></svg>