<svg xmlns="http://www.w3.org/2000/svg" viewBox="0 0 175 29"><defs><style>.a{fill:#1d1d1b;}</style></defs><title>Artboard 1</title><path class="a" d="M22.5,26.5c3.2-.3,6.3-1.4,6.3-4.8V10.7L27.3,9.2l-1.6,1.5v8.2L27,20.1l-3,2.8h-.1l-3-2.6.8-.8V2.9A2.2,2.2,0,0,0,20,.8V.5A3,3,0,0,1,21.4.2a2.4,2.4,0,0,1,2.2,1.4h.1A3.1,3.1,0,0,1,26.3.2h.9V.7c-.4.1-1.3.8-1.3,2.5v6.9l4-3.9h.3l2.4,2.2c.1.1.3.1.6.1a1.9,1.9,0,0,0,.9-.3v.5a2.2,2.2,0,0,0-.8,1.5v9.5c0,4.2-4.5,6.8-10.5,7.3v-.5h-.3ZM21.1.7a2.3,2.3,0,0,1,1.2,2V19.8l-.6.6,2.5,2.2.8-.6-2-1.7.3-.3V2.9A2.5,2.5,0,0,0,21.1.7Zm7,24.7c1.2-.8,2.4-1.7,2.4-3.6V10.1l-1.8-2-.9.8,1.5,1.7V21.6A4.9,4.9,0,0,1,28.1,25.4Zm7.5-15.3a45,45,0,0,0,6.1-3.9H42c1.2,1.2,2.8,3.2,4.3,4.6v.3l-6.6,4.3v2.8a20.1,20.1,0,0,0,3.7,1.8l2.7-2.6.3.3-5.2,5.3H41l-5.5-2.6a19.1,19.1,0,0,0,.3-3.7V10.2h-.1ZM41.7,22c-1.8-.8-3.3-1.5-4.8-2.3a12.5,12.5,0,0,0,.1-2.9V9.8l-1.1.6v6.3a17.9,17.9,0,0,1-.1,3.4c1.3.8,3.3,1.7,5.1,2.5Zm-2-6.9,3-2c-1.1-1.2-2.1-2.5-3-3.4Zm.9-6.8-.8.6,3.3,3.9.9-.6C42.8,10.7,41.6,9.4,40.7,8.3ZM163.8,26.5c3.1-.3,6.3-1.4,6.3-4.8V10.7l-1.5-1.5-1.6,1.5v8.2l1.3,1.2-3,2.8H165l-3-2.6.8-.8V2.9a2.2,2.2,0,0,0-1.6-2V.5a3,3,0,0,1,1.3-.3,2.4,2.4,0,0,1,2.2,1.4h.1A3.1,3.1,0,0,1,167.4.2h.9V.7c-.4.1-1.3.8-1.3,2.5v6.9l3.9-3.9h.3l2.4,2.2c.1.1.3.1.6.1a1.9,1.9,0,0,0,.9-.3v.6a2.2,2.2,0,0,0-.8,1.5v9.3c0,4.2-4.5,6.8-10.5,7.3v-.5ZM162.3.7a2.5,2.5,0,0,1,1.2,2v17l-.6.6,2.5,2.2.8-.6-2-1.7.3-.3V2.9A2.5,2.5,0,0,0,162.3.7Zm6.9,24.5c1.2-.8,2.4-1.7,2.4-3.6V10.1l-1.8-2-.7.8,1.5,1.7V21.7A4,4,0,0,1,169.2,25.2ZM74.3,10.1a45,45,0,0,0,6.1-3.9h.3c1.2,1.2,2.8,3.2,4.2,4.5v.3l-6.4,4.3v2.8A26.2,26.2,0,0,0,82.2,20l2.7-2.6.3.3L80,22.9h-.3l-5.5-2.6a19.1,19.1,0,0,0,.3-3.7V10.1Zm6,11.9c-1.8-.8-3.3-1.5-4.8-2.3a12.5,12.5,0,0,0,.1-2.9V9.8l-.9.5v6.3a17.9,17.9,0,0,1-.1,3.4c1.3.8,3.3,1.7,5.1,2.5Zm-1.8-7.1,3-2c-1.1-1.2-2.1-2.5-3-3.4Zm.9-6.7-.9.6,3.3,3.9.9-.6ZM90.9,2.4V18.6a1.8,1.8,0,0,0,1.2,1.5l.9-.9.3.3L90,23.1h-.3a4,4,0,0,1-3-3.6V4.4l-.9-.9L84.8,4.6l-.3-.3,3.7-4h.3Zm-.4,19.4a2.8,2.8,0,0,1-2.4-2.8V3.8L86.8,2.4l-.8.8,1.2,1.1V19.5a3.3,3.3,0,0,0,2.5,3.1Zm4.3-11.7a45.1,45.1,0,0,0,6.1-3.9h.3c1.2,1.2,2.8,3.2,4.2,4.5v.3L99,15.4v2.8a20.1,20.1,0,0,0,3.7,1.8l2.7-2.6.3.3-5.2,5.2h-.3c-1.8-.8-4-1.8-5.5-2.6a19.3,19.3,0,0,0,.3-3.7V10.1Zm6,11.9c-1.8-.8-3.3-1.5-4.8-2.3a12.6,12.6,0,0,0,.1-2.9V9.8l-.9.5v6.3a18.2,18.2,0,0,1-.1,3.4c1.3.8,3.3,1.7,5.1,2.5ZM99,14.9l3-2c-1.1-1.2-2.1-2.5-3-3.4Zm.9-6.7-.8.6,3.3,3.9.8-.6Zm26.6,2.5v7.9a1.5,1.5,0,0,0,1.2,1.4l.9-.9.3.3L125.6,23h-.1a3.8,3.8,0,0,1-3-3.6v-9l-.9-.9-1,.9-.3-.3,3.7-3.9h.3l2.4,2.5v1.4l3-3.7h.3a17.6,17.6,0,0,0,2.4,2.2l-2.5,3.1-2.2-2Zm-.3,11.1a2.8,2.8,0,0,1-2.4-2.8V9.8l-1.2-1.4-.8.8,1,1.1v9.1a3.3,3.3,0,0,0,2.5,3.1Zm1.7-12.5a16.8,16.8,0,0,0,1.8,1.7l.6-.8c-.6-.5-1.5-1.4-2-1.7Zm8.4,13.7-3.6-2.5V15.7l3.7-2.6a9.3,9.3,0,0,1-3.4-2.8V9.9a23.3,23.3,0,0,0,4.9-3.7h.3l4.6,2.3h.6a1.9,1.9,0,0,0,.9-.3v.5a2.1,2.1,0,0,0-.8,1.4v8.2a1.6,1.6,0,0,0,1.3,1.5l.9-.9.3.3-3.3,3.6h-.1a4.2,4.2,0,0,1-3-3.2l-3.1,3.2h-.3v.2h0Zm.7-1.2-3-2V15.2l-.9.6v4.5l3.3,2.2Zm2.6-8V11.4L135.2,9c-.3.3-1.5.9-1.8,1.2A13.9,13.9,0,0,0,139.6,13.8Zm3.9,8c-1.2-.5-2.4-1.2-2.4-2.9V10.4l-4.5-2.3-.8.6,4.3,2.3v8.3c0,1.5,1.5,2.8,2.5,3.2Zm-3.9-2.6V14.3a20.9,20.9,0,0,1-2.8-1.1v6.2l1.6,1.1Zm-32.5,1.2V10.1l5.4-3.9h.3l4.8,2.2h.6l1.1-.3v.6a2.6,2.6,0,0,0-.8,1.4V19c0,2,.4,3.2,1.2,4v.3l-5.1,5.5h-.1a11.7,11.7,0,0,0-4.6-1.2,5.5,5.5,0,0,0-3.4,1.1h-.3c.9-2.2,2.8-4.5,5.4-4.5a11.5,11.5,0,0,1,5.4,1.7,10.5,10.5,0,0,1-2.2-6l-3.1,3.1h-.3Zm2.5,6a3.6,3.6,0,0,0-2.8,1.4h0a4.9,4.9,0,0,1,2.8-.6,11,11,0,0,1,4.6,1.1l.6-.8A13.4,13.4,0,0,0,109.6,26.5Zm1.2-3.9.8-.6-3.1-2.3V9.8l-.9.6v9.9Zm4.8-12.8L111.1,8v.9l3.4,1.5v9.2a9.8,9.8,0,0,0,2.2,5.9l.8-.8a8.4,8.4,0,0,1-2-5.2Zm-1.3,9.4V10.7l-3-1.4V19l2,1.2Zm38.3-9.1,3.9-3.9h.3a26,26,0,0,0,2.4,2.2h.4a1.9,1.9,0,0,0,.9-.3v.6a2.6,2.6,0,0,0-.8,1.5v9.9a9.2,9.2,0,0,0-4.5,3.1h-.1l-2.5-.6v2.2l1.3,1.2-3.2,2.8h-.1l-3-2.6.8-.9V21.6l-1.2-.3v-.5c.3-.1,1.3-1.1,1.3-1.8V10.5l-.9-.9-1,1.1-.3-.3L150,6.5h.3L152.7,9v1.1h-.1Zm-3.7,15.6-.6.6,2.4,2.2.8-.6-2-1.7.3-.3V9.8l-1.3-1.4-.6.6,1,1.1V25.7Zm6.7-6v-9L154,9.2l-1.6,1.5v8.2C153.1,19.2,155.2,19.5,155.5,19.7Zm-.4,3.2a2.4,2.4,0,0,1,.6-.8l-3.3-.6v.9ZM154.3,9l1.6,1.7v9l.9-.5V10.1l-1.8-1.8ZM1.2,14c0-4,2.8-6.6,5.5-7.9v.3a6.2,6.2,0,0,0-1.5,4.6,8.7,8.7,0,0,0,1.8,5.9,3.4,3.4,0,0,0,.6-1.7v-4l4.8-3.6V8a3.6,3.6,0,0,0-.6,2v2.6c0,1.8-2.8,3.9-4.6,4.5a6.2,6.2,0,0,0,4.6,1.7h1.8V7.4a18.8,18.8,0,0,1-4.5-.9,15.7,15.7,0,0,0-4.2-.9c-2,0-4.3.6-4.3,3.6V10H.4A9,9,0,0,1,0,7.5,6.4,6.4,0,0,1,6.6.9a16.4,16.4,0,0,1,4.8.9,15.4,15.4,0,0,0,4.5.9,1.1,1.1,0,0,0,1.2-1.2A1.1,1.1,0,0,0,16.2.3V0c1.8.3,3.6,1.4,3.6,3.7s-1.8,3.7-5.1,3.7h-.3V18.8A6.5,6.5,0,0,0,19,15.6h.3c-1.2,3.9-4,7.6-9,7.6S1.2,20.2,1.2,14ZM14.6,6C11.1,6,7.8,4.1,5.2,4.1S1.5,4.9.9,6.9H1C1.8,5.5,3.6,5,5.2,5s5.8,1.8,9.4,1.8,4.6-1.1,4.8-3.4h-.1C19,5.3,17.5,6,14.6,6ZM4.3,8.3A8.1,8.1,0,0,0,1.8,14c0,5.9,3.7,8.8,8.7,8.8a8.7,8.7,0,0,0,6.3-2.9h-.1a8.9,8.9,0,0,1-6.3,2.2c-3.9,0-7.6-2.5-7.6-7.9A11.1,11.1,0,0,1,4.3,8.3Zm4.8,6.7V10.6l-.9.8v4c0,.5-.1.8-.1,1.1h.1A2.3,2.3,0,0,0,9.1,14.9ZM54.4,14c0-4,2.8-6.6,5.5-7.9v.3a6.1,6.1,0,0,0-1.6,4.6,8.7,8.7,0,0,0,1.8,5.9,3.4,3.4,0,0,0,.6-1.7v-4l4.9-3.7v.3a3.4,3.4,0,0,0-.6,2.2v2.6c0,1.8-2.8,3.9-4.6,4.5a6.2,6.2,0,0,0,4.6,1.7h1.8V7.4a18.8,18.8,0,0,1-4.5-.9,15.7,15.7,0,0,0-4.2-.9c-2,0-4.3.6-4.3,3.6V10h-.3a9,9,0,0,1-.4-2.6A6.4,6.4,0,0,1,60,.9a16.4,16.4,0,0,1,4.8.9,15.4,15.4,0,0,0,4.5.9,1.1,1.1,0,0,0,1.2-1.2A1.1,1.1,0,0,0,69.6.3V0c1.8.3,3.6,1.4,3.6,3.7s-2,4-5.2,4h-.3V19.1a6.5,6.5,0,0,0,4.6-3.2h.3c-1.2,3.9-4,7.6-9,7.6S54.4,20.2,54.4,14ZM67.9,6C64.3,6,61,4.1,58.5,4.1a4.5,4.5,0,0,0-4.3,2.8h.1C55,5.5,56.8,5,58.5,5s5.8,1.8,9.4,1.8,4.6-1.1,4.8-3.4h-.1C72.1,5.3,70.7,6,67.9,6ZM57.6,8.3A8.1,8.1,0,0,0,55,14c0,5.9,3.7,8.8,8.7,8.8A8.7,8.7,0,0,0,70,19.8h-.1a8.9,8.9,0,0,1-6.3,2.2c-3.9,0-7.6-2.5-7.6-7.9A11.4,11.4,0,0,1,57.6,8.3Zm4.8,6.7V10.6l-.9.6v4c0,.5-.1.8-.1,1.1h.1A1.7,1.7,0,0,0,62.3,14.9Z"/></svg>