<svg width="175" height="29" viewBox="0 0 175 29" fill="none" xmlns="http://www.w3.org/2000/svg">
<path d="M22.5486 26.4603C25.6995 26.1412 28.8208 25.0592 28.8208 21.6737V10.7354L27.3331 9.19062L25.6995 10.7354V18.9032L27.0414 20.1289L24.0364 22.8994H23.8905L20.8855 20.2747L21.6441 19.5161V2.86137C21.6441 1.63567 20.5938 1.02282 20.0106 0.849528V0.528318C20.3022 0.382502 20.7692 0.2071 21.3525 0.2071C22.4028 0.2071 23.3073 0.819945 23.5989 1.60819H23.7447C24.3576 0.674129 25.3783 0.2071 26.2828 0.2071C26.5744 0.2071 26.8956 0.2071 27.1872 0.352916V0.674126C26.7498 0.819942 25.8453 1.43279 25.8453 3.15299V10.0951L29.8711 6.24471H30.1627C30.4544 6.56593 32.1175 8.08326 32.5549 8.40236C32.7008 8.54818 32.8466 8.54818 33.1678 8.54818C33.4594 8.54818 33.7806 8.40236 34.0723 8.22696V8.694C33.7806 9.01521 33.3136 9.45266 33.3136 10.2409V19.6936C33.3136 23.8652 28.8208 26.4899 22.8402 26.9569V26.4899H22.5486V26.4603V26.4603ZM21.0609 0.7016C21.6737 1.16863 22.257 1.63567 22.257 2.71555V19.8394L21.6441 20.4522L24.1822 22.6099L24.9408 21.997L22.9861 20.3043L23.2777 19.9852V2.86137C23.1615 1.48986 21.9653 0.877001 21.0609 0.7016ZM28.0917 25.3804C29.2878 24.6217 30.4839 23.6877 30.4839 21.8216V10.093L28.675 8.08114L27.7705 8.83981L29.2582 10.5304V21.6441C29.4315 23.2227 28.8504 24.478 28.0917 25.3804ZM35.5875 10.1247C37.3965 9.19272 39.9345 7.64581 41.7139 6.2743H42.0055C43.2016 7.5 44.8352 9.51183 46.3525 10.9129V11.2341L39.7591 15.5516V18.3221C40.3719 18.7912 42.2971 19.7232 43.4932 20.1606L46.1771 17.5359L46.4687 17.855L41.2468 23.1065H40.9552C39.1462 22.3478 36.9294 21.268 35.4121 20.4797C35.5579 19.8669 35.7037 18.4679 35.7037 16.7751V10.1543H35.5875V10.1247ZM41.7139 21.997C39.9049 21.2384 38.4172 20.4522 36.9294 19.6936C37.0752 19.2265 37.0752 18.4679 37.0752 16.7751V9.83305L36.0249 10.4459V16.7773C36.0249 18.47 36.0249 19.6957 35.8791 20.1627C37.2211 20.9193 39.1758 21.8554 40.9552 22.6416L41.7139 21.997ZM39.7591 15.0549L42.762 13.0431C41.7118 11.8174 40.6615 10.5642 39.7591 9.65765V15.0549ZM40.6636 8.25655L39.9049 8.8694C40.8094 9.94928 42.0055 11.3483 43.2016 12.7198L44.1061 12.1069C42.7642 10.7375 41.5681 9.36601 40.6636 8.25655ZM163.766 26.4603C166.915 26.1412 170.036 25.0592 170.036 21.6737V10.7354L168.55 9.19062L166.917 10.7354V18.9032L168.259 20.1289L165.254 22.8994H164.962L161.957 20.2747L162.713 19.5161V2.86137C162.713 1.63567 161.665 1.02282 161.082 0.849528V0.528318C161.374 0.382502 161.839 0.2071 162.426 0.2071C163.474 0.2071 164.379 0.819945 164.672 1.60819H164.816C165.429 0.674129 166.45 0.2071 167.354 0.2071C167.648 0.2071 167.967 0.2071 168.259 0.352916V0.674126C167.821 0.819942 166.917 1.43279 166.917 3.15299V10.0951L170.797 6.24471H171.09C171.382 6.56593 173.043 8.08326 173.481 8.40236C173.626 8.54818 173.774 8.54818 174.096 8.54818C174.385 8.54818 174.706 8.40236 175 8.22696V8.83981C174.706 9.16103 174.241 9.59847 174.241 10.3846V19.6915C174.241 23.8631 169.749 26.4877 163.77 26.9548V26.4603H163.766ZM162.276 0.7016C162.713 1.02282 163.472 1.63567 163.472 2.71555V19.6936L162.861 20.3043L165.397 22.462L166.154 21.8512L164.201 20.1585L164.493 19.8373V2.86137C164.377 1.48986 163.183 0.877001 162.276 0.7016ZM169.161 25.2346C170.357 24.478 171.555 23.544 171.555 21.6737V10.0951L169.746 8.08326L169.017 8.89898L170.503 10.5917V21.7054C170.651 23.2227 170.063 24.478 169.161 25.2346ZM74.3259 10.1247C76.1348 9.19272 78.6729 7.64581 80.4522 6.2743H80.7439C81.94 7.5 83.5735 9.51183 84.9451 10.7375V11.0587L78.4975 15.3762V18.1467C79.2561 18.6137 81.0355 19.5478 82.2316 19.9852L84.9155 17.3584L85.2071 17.6796L79.9852 22.929H79.6936C77.8846 22.1724 75.6678 21.0926 74.1505 20.3043C74.2963 19.6936 74.4421 18.2925 74.4421 16.5997V10.1247H74.3259ZM80.3064 21.997C78.4975 21.2384 77.0097 20.4522 75.522 19.6936C75.6678 19.2265 75.6678 18.4679 75.6678 16.7751V9.83305L74.7633 10.3001V16.6314C74.7633 18.3221 74.7633 19.5478 74.6175 20.0148C75.9594 20.7713 77.9142 21.7075 79.6936 22.4937L80.3064 21.997ZM78.4975 14.9091L81.5025 12.8952C80.4522 11.6695 79.4019 10.4163 78.4975 9.51183V14.9091ZM79.4019 8.25655L78.4975 8.8694C79.4019 9.94928 80.5981 11.3483 81.7942 12.7198L82.6987 12.1069C81.5025 10.7375 80.3064 9.36601 79.4019 8.25655ZM90.9235 2.42392V18.6137C90.9235 19.2287 91.5385 20.0148 92.1196 20.1606L93.0241 19.2287L93.3178 19.5478L90.0211 23.1086H89.7295C88.5334 22.7874 86.7244 21.5617 86.7244 19.5478V4.43787L85.8199 3.5038L84.7697 4.58368L84.478 4.26246L88.2122 0.266271H88.5038L90.9235 2.42392ZM90.4861 21.8512C89.2921 21.53 88.0959 20.7692 88.0959 19.0765V3.82079L86.754 2.41969L85.9953 3.17836L87.1915 4.25824V19.5139C87.1915 21.2067 88.5334 22.2887 89.7295 22.6078L90.4861 21.8512ZM94.8035 10.1247C96.6124 9.19272 99.1505 7.64581 100.93 6.2743H101.221C102.418 7.5 104.051 9.51183 105.423 10.7375V11.0587L99.0047 15.3762V18.1467C99.6154 18.6137 101.543 19.5478 102.739 19.9852L105.425 17.3584L105.716 17.6796L100.495 22.929H100.203C98.3939 22.1724 96.1771 21.0926 94.6598 20.3043C94.8035 19.6936 94.9514 18.2925 94.9514 16.5997V10.1247H94.8035ZM100.784 21.997C98.9772 21.2384 97.4873 20.4522 95.9996 19.6936C96.1433 19.2265 96.1433 18.4679 96.1433 16.7751V9.83305L95.2388 10.3001V16.6314C95.2388 18.3221 95.2388 19.5478 95.0951 20.0148C96.437 20.7713 98.3918 21.7075 100.171 22.4937L100.784 21.997ZM99.0047 14.9091L102.01 12.8952C100.959 11.6695 99.9091 10.4163 99.0047 9.51183V14.9091ZM99.9091 8.25655L99.1505 8.8694C100.057 9.94928 101.251 11.3483 102.449 12.7198L103.208 12.1069C101.982 10.7375 100.784 9.36601 99.9091 8.25655ZM126.513 10.7375V18.6137C126.513 19.2287 127.126 20.0148 127.707 20.0148L128.614 19.0807L128.905 19.4019L125.609 22.9607H125.463C124.269 22.6416 122.458 21.5617 122.458 19.4019V10.4459L121.553 9.51395L120.505 10.4459L120.211 10.1247L123.948 6.2743H124.237L126.631 8.75317V10.1543L129.637 6.4497H129.928C130.541 7.06255 131.416 7.99662 132.32 8.60735L129.782 11.6991C129.026 11.0862 128.149 10.1543 127.536 9.68512L126.513 10.7375ZM126.221 21.8512C125.025 21.53 123.829 20.7692 123.829 19.0765V9.83093L122.633 8.42984L121.877 9.1885L122.925 10.2684V19.3702C122.925 21.063 124.269 22.1429 125.463 22.462L126.221 21.8512ZM127.885 9.36602C128.322 9.83305 129.079 10.5917 129.691 11.0566L130.302 10.298C129.691 9.83093 128.817 8.89687 128.35 8.60524L127.885 9.36602ZM136.255 23.0769L132.669 20.5981V15.6678C133.574 15.0549 135.497 13.6538 136.403 13.0431C134.915 12.2844 133.717 11.3504 132.961 10.2705V9.94927C135.059 8.72358 136.695 7.47041 137.891 6.24471H138.183C138.183 6.24471 142.675 8.40236 142.819 8.54818C143.113 8.69399 143.257 8.694 143.434 8.694C143.726 8.694 144.045 8.54818 144.339 8.37278V8.83981C144.045 9.16103 143.58 9.59847 143.58 10.2409V18.4087C143.58 19.3407 144.339 19.8077 144.922 19.9514L145.826 19.0194L146.12 19.3407L142.821 22.8994H142.678C141.336 22.5803 139.848 21.2067 139.672 19.664L136.524 22.8994H136.23V23.0748H136.255V23.0769ZM136.986 21.8512L133.981 19.8373V15.1986L133.077 15.8115V20.2747L136.374 22.4324L136.986 21.8512ZM139.554 13.8292V11.3504L135.207 9.0448C134.913 9.36602 133.717 9.97886 133.398 10.2705C134.448 11.5237 137.16 13.2164 139.554 13.8292ZM143.434 21.8512C142.238 21.3842 141.04 20.6255 141.04 18.9328V10.4438L136.549 8.14032C136.403 8.28613 135.936 8.60735 135.79 8.75317L140.137 11.0566V19.3998C140.137 20.9467 141.625 22.1724 142.675 22.6374L143.434 21.8512ZM139.554 19.2265V14.2963C138.65 13.9751 137.597 13.6834 136.722 13.2164V19.3998L138.356 20.4797L139.554 19.2265ZM107.088 20.4501V10.1226L112.483 6.27219H112.777C113.825 6.73922 117.268 8.28613 117.561 8.42984C117.705 8.42984 117.853 8.57565 118.172 8.57565C118.493 8.57565 118.787 8.42984 119.224 8.25443V8.86729C118.931 9.1885 118.466 9.80135 118.466 10.2684V19.0469C118.466 21.0609 118.903 22.2866 119.662 23.0452V23.3643C118.466 24.59 115.782 27.538 114.586 28.9074H114.442C113.246 28.2967 111.289 27.6817 109.803 27.6817C108.607 27.6817 107.265 28.003 106.361 28.7637L106.067 28.6179C106.972 26.4603 108.899 24.1547 111.467 24.1547C112.952 24.1547 115.053 24.7675 116.862 25.8474C115.668 24.4484 114.615 21.8512 114.615 19.8373L111.467 22.929H111.173L107.088 20.4501ZM109.624 26.4603C108.43 26.4603 107.377 27.0731 106.794 27.8614V28.0051C107.553 27.538 108.282 27.3922 109.624 27.3922C111.112 27.3922 113.212 27.8614 114.26 28.4721L114.875 27.7134C113.504 27.1027 111.579 26.4603 109.624 26.4603ZM110.818 22.6099L111.576 21.997L108.428 19.6936V9.83305L107.523 10.4459V20.3064L110.818 22.6099ZM115.602 9.80347L111.112 7.96491V8.89898L114.554 10.4438V19.6915C114.554 21.7033 115.459 23.8631 116.801 25.5516L117.559 24.795C116.363 23.2502 115.602 21.5575 115.602 19.5456V9.80347ZM114.26 19.2265V10.7354L111.255 9.33432V19.0469L113.212 20.2726L114.26 19.2265ZM152.563 10.1247L156.443 6.2743H156.735C157.027 6.59552 158.833 8.28825 159.127 8.43195C159.271 8.57776 159.421 8.57776 159.565 8.57776C159.858 8.57776 160.178 8.43195 160.469 8.25655V8.8694C160.178 9.19061 159.713 9.80346 159.713 10.4142V20.2747C158.079 20.7418 156.708 21.6737 155.22 23.3664H155.076L152.538 22.7557V24.9134L153.88 26.1391L150.729 28.9095H150.583L147.578 26.2849L148.337 25.3529V21.6462C148.045 21.6462 147.432 21.5025 147.141 21.3271V20.8601C147.434 20.7143 148.485 19.7802 148.485 19.0216V10.5325L147.578 9.60059L146.53 10.6805L146.236 10.3592L149.973 6.50887H150.264L152.656 8.98774V10.0676H152.57V10.1247H152.563ZM148.829 25.7037L148.219 26.3145L150.609 28.4721L151.367 27.8614L149.413 26.1686L149.704 25.8474V9.80347L148.362 8.40236L147.751 9.01521L148.8 10.0951V25.7037H148.829V25.7037ZM155.539 19.6936V10.7375L154.049 9.19273L152.418 10.7375V18.9053C153.147 19.2265 155.247 19.5161 155.539 19.6936ZM155.101 22.929C155.245 22.6099 155.539 22.3183 155.712 22.1724L152.415 21.5596V22.4915L155.101 22.929ZM154.343 9.0448L155.976 10.7375V19.6936L156.881 19.2265V10.1226L155.074 8.28613L154.343 9.0448ZM1.16653 13.9751C1.16653 9.97887 3.9962 7.35418 6.70964 6.0989L6.85545 6.42011C5.95097 7.5 5.36771 8.57776 5.36771 11.0587C5.36771 13.8314 6.12637 15.6974 7.17667 16.921C7.4683 16.4539 7.78952 15.8411 7.78952 15.2303V11.2341L12.574 7.6754L12.7198 7.99661C12.4281 8.46365 12.1069 9.0765 12.1069 10.0085V12.6353C12.1069 14.4738 9.27726 16.4856 7.4683 17.0985C8.66441 18.3221 10.298 18.7912 12.1069 18.7912C12.7198 18.7912 13.303 18.7912 13.9138 18.6433V7.38377C12.2802 7.23795 10.7629 6.91673 9.42308 6.4497C7.93533 5.98267 6.41801 5.51775 5.22189 5.51775C3.26712 5.51775 0.874894 6.1306 0.874894 9.0765V10.0085L0.437447 10.1543C0.145816 9.2202 0 8.31572 0 7.52747C0 3.96872 2.53804 0.906587 6.59341 0.906587C8.22697 0.906587 9.89011 1.37362 11.3779 1.84066C12.8656 2.30769 14.3829 2.7726 15.8686 2.7726C16.6272 2.7726 17.0647 2.30558 17.0647 1.54691C17.0647 0.788247 16.773 0.467026 16.1602 0.32121V0C17.9691 0.321217 19.7485 1.4011 19.7485 3.70456C19.8943 6.00803 17.9417 7.40912 14.6724 7.40912H14.3808V18.8166C16.4814 18.3495 17.9691 17.4155 19.0194 15.5769L19.3111 15.7227C18.115 19.5731 15.2853 23.2777 10.3276 23.2777C5.36982 23.2777 1.16653 20.1606 1.16653 13.9751ZM14.6429 5.95308C11.0545 5.95308 7.75782 4.11454 5.22189 4.11454C3.41293 4.11454 1.48774 4.8732 0.874894 6.88504H1.02071C1.77937 5.48605 3.55875 5.04861 5.22189 5.04861C7.90575 5.04861 11.0566 6.88504 14.6429 6.88504C17.4725 6.88504 19.2815 5.80515 19.4273 3.50169H19.2815C18.9603 5.34023 17.4725 5.95308 14.6429 5.95308ZM4.31741 8.25655C2.97549 9.65765 1.77937 11.4941 1.77937 13.9751C1.77937 19.8373 5.51352 22.7557 10.4438 22.7557C13.4489 22.7557 15.5199 21.063 16.716 19.8373L16.5702 19.6936C15.2282 20.9172 13.2735 21.8512 10.298 21.8512C6.41801 21.8512 2.65427 19.3702 2.65427 13.9729C2.65427 11.8153 3.41082 9.65765 4.31741 8.25655ZM9.09975 14.9091V10.5917L8.19527 11.3504V15.3466C8.19527 15.8136 8.04945 16.1052 8.04945 16.4265H8.19527C8.63483 15.989 9.09975 15.5199 9.09975 14.9091ZM54.4315 13.9751C54.4315 9.97887 57.2612 7.35418 59.9746 6.0989L60.1205 6.42011C59.0702 7.64581 58.4869 8.72569 58.4869 11.0587C58.4869 13.8314 59.2456 15.6974 60.2959 16.921C60.5875 16.4539 60.9087 15.8411 60.9087 15.2303V11.2341L65.839 7.52959L65.9848 7.8508C65.5473 8.46365 65.3719 9.0765 65.3719 10.0085V12.6353C65.3719 14.4738 62.5423 16.4856 60.7333 17.0985C61.9294 18.3221 63.563 18.7912 65.3719 18.7912C65.9848 18.7912 66.5681 18.7912 67.1788 18.6433V7.38377C65.5452 7.23795 64.0279 6.91673 62.6881 6.4497C61.2003 5.98267 59.683 5.51775 58.4869 5.51775C56.5321 5.51775 54.1399 6.1306 54.1399 9.0765V10.0085L53.8483 10.1543C53.5566 9.2202 53.4108 8.31572 53.4108 7.52747C53.4108 3.96872 55.9489 0.906587 60.0042 0.906587C61.6378 0.906587 63.3009 1.37362 64.7887 1.84066C66.2764 2.30769 67.7937 2.7726 69.2815 2.7726C70.0401 2.7726 70.4776 2.30558 70.4776 1.54691C70.4776 0.788247 70.186 0.467026 69.5731 0.32121V0C71.3821 0.321217 73.1615 1.4011 73.1615 3.70456C73.1615 6.47717 71.2067 7.70076 67.9396 7.70076H67.6479V19.1061C69.7485 18.6369 71.2363 17.705 72.2844 15.8686L72.5761 16.0144C71.38 19.8648 68.5503 23.5714 63.5926 23.5714C58.6031 23.2227 54.4315 20.1606 54.4315 13.9751ZM67.8804 5.95308C64.2921 5.95308 60.9954 4.11454 58.4594 4.11454C56.8259 4.11454 54.8711 4.8732 54.1124 6.88504H54.2582C55.0169 5.48605 56.7963 5.04861 58.4594 5.04861C61.1433 5.04861 64.2942 6.88504 67.8804 6.88504C70.7101 6.88504 72.519 5.80515 72.6648 3.50169H72.519C72.0816 5.34023 70.7375 5.95308 67.8804 5.95308ZM57.5528 8.25655C56.2109 9.65765 55.0148 11.4941 55.0148 13.9751C55.0148 19.8373 58.7489 22.7557 63.6792 22.7557C66.6843 22.7557 68.7553 21.063 69.9514 19.8373L69.8352 19.6936C68.4932 20.9172 66.5385 21.8512 63.563 21.8512C59.683 21.8512 55.9193 19.3702 55.9193 13.9729C55.9193 11.8153 56.6779 9.65765 57.5528 8.25655ZM62.3373 14.9091V10.5917L61.4328 11.2046V15.2008C61.4328 15.6678 61.287 15.9594 61.287 16.2806H61.4328C61.8998 15.989 62.3373 15.5199 62.3373 14.9091Z" fill="#1D1D1B"/>
</svg>
