<svg width="218" height="26" viewBox="0 0 218 26" fill="none" xmlns="http://www.w3.org/2000/svg">
<path d="M15.0273 0.619141V8.86328H14.377C14.166 7.28125 13.7852 6.02148 13.2344 5.08398C12.6953 4.14648 11.9219 3.40234 10.9141 2.85156C9.90625 2.30078 8.86328 2.02539 7.78516 2.02539C6.56641 2.02539 5.55859 2.40039 4.76172 3.15039C3.96484 3.88867 3.56641 4.73242 3.56641 5.68164C3.56641 6.4082 3.81836 7.07031 4.32227 7.66797C5.04883 8.54688 6.77734 9.71875 9.50781 11.1836C11.7344 12.3789 13.252 13.2988 14.0605 13.9434C14.8809 14.5762 15.5078 15.3262 15.9414 16.1934C16.3867 17.0605 16.6094 17.9688 16.6094 18.918C16.6094 20.7227 15.9062 22.2812 14.5 23.5938C13.1055 24.8945 11.3066 25.5449 9.10352 25.5449C8.41211 25.5449 7.76172 25.4922 7.15234 25.3867C6.78906 25.3281 6.0332 25.1172 4.88477 24.7539C3.74805 24.3789 3.02734 24.1914 2.72266 24.1914C2.42969 24.1914 2.19531 24.2793 2.01953 24.4551C1.85547 24.6309 1.73242 24.9941 1.65039 25.5449H1V17.3711H1.65039C1.95508 19.082 2.36523 20.3652 2.88086 21.2207C3.39648 22.0645 4.18164 22.7676 5.23633 23.3301C6.30273 23.8926 7.46875 24.1738 8.73438 24.1738C10.1992 24.1738 11.3535 23.7871 12.1973 23.0137C13.0527 22.2402 13.4805 21.3262 13.4805 20.2715C13.4805 19.6855 13.3164 19.0938 12.9883 18.4961C12.6719 17.8984 12.1738 17.3418 11.4941 16.8262C11.0371 16.4746 9.78906 15.7305 7.75 14.5938C5.71094 13.4453 4.25781 12.5312 3.39062 11.8516C2.53516 11.1719 1.88477 10.4219 1.43945 9.60156C0.994141 8.78125 0.771484 7.87891 0.771484 6.89453C0.771484 5.18359 1.42773 3.71289 2.74023 2.48242C4.05273 1.24023 5.72266 0.619141 7.75 0.619141C9.01562 0.619141 10.3574 0.929688 11.7754 1.55078C12.4316 1.84375 12.8945 1.99023 13.1641 1.99023C13.4688 1.99023 13.7148 1.90234 13.9023 1.72656C14.1016 1.53906 14.2598 1.16992 14.377 0.619141H15.0273ZM36.6221 4.68262L37.0762 11.4355H36.6221C36.0166 9.41406 35.1523 7.95898 34.0293 7.07031C32.9062 6.18164 31.5586 5.7373 29.9863 5.7373C28.668 5.7373 27.4766 6.07422 26.4121 6.74805C25.3477 7.41211 24.5078 8.47656 23.8926 9.94141C23.2871 11.4062 22.9844 13.2275 22.9844 15.4053C22.9844 17.2021 23.2725 18.7598 23.8486 20.0781C24.4248 21.3965 25.2891 22.4072 26.4414 23.1104C27.6035 23.8135 28.9268 24.165 30.4111 24.165C31.7002 24.165 32.8379 23.8916 33.8242 23.3447C34.8105 22.7881 35.8945 21.6895 37.0762 20.0488L37.5303 20.3418C36.5342 22.1094 35.3721 23.4033 34.0439 24.2236C32.7158 25.0439 31.1387 25.4541 29.3125 25.4541C26.0215 25.4541 23.4727 24.2334 21.666 21.792C20.3184 19.9756 19.6445 17.8369 19.6445 15.376C19.6445 13.3936 20.0889 11.5723 20.9775 9.91211C21.8662 8.25195 23.0869 6.96777 24.6396 6.05957C26.2021 5.1416 27.9062 4.68262 29.752 4.68262C31.1875 4.68262 32.6035 5.03418 34 5.7373C34.4102 5.95215 34.7031 6.05957 34.8789 6.05957C35.1426 6.05957 35.3721 5.9668 35.5674 5.78125C35.8213 5.51758 36.002 5.15137 36.1094 4.68262H36.6221ZM47.8281 24.458V25H39.3174V24.458H40.0205C40.8408 24.458 41.4365 24.2188 41.8076 23.7402C42.042 23.4277 42.1592 22.6758 42.1592 21.4844V8.65234C42.1592 7.64648 42.0957 6.98242 41.9688 6.66016C41.8711 6.41602 41.6709 6.20605 41.3682 6.03027C40.9385 5.7959 40.4893 5.67871 40.0205 5.67871H39.3174V5.13672H47.8281V5.67871H47.1104C46.2998 5.67871 45.709 5.91797 45.3379 6.39648C45.0938 6.70898 44.9717 7.46094 44.9717 8.65234V21.4844C44.9717 22.4902 45.0352 23.1543 45.1621 23.4766C45.2598 23.7207 45.4648 23.9307 45.7773 24.1064C46.1973 24.3408 46.6416 24.458 47.1104 24.458H47.8281ZM54.8301 6.2207V14.0723H59.1953C60.3281 14.0723 61.085 13.9014 61.4658 13.5596C61.9736 13.1104 62.2568 12.3193 62.3154 11.1865H62.8574V18.1006H62.3154C62.1787 17.1338 62.042 16.5137 61.9053 16.2402C61.7295 15.8984 61.4414 15.6299 61.041 15.4346C60.6406 15.2393 60.0254 15.1416 59.1953 15.1416H54.8301V21.6895C54.8301 22.5684 54.8691 23.1055 54.9473 23.3008C55.0254 23.4863 55.1621 23.6377 55.3574 23.7549C55.5527 23.8623 55.9238 23.916 56.4707 23.916H59.8398C60.9629 23.916 61.7783 23.8379 62.2861 23.6816C62.7939 23.5254 63.2822 23.2178 63.751 22.7588C64.3564 22.1533 64.9766 21.2402 65.6113 20.0195H66.1973L64.4834 25H49.1758V24.458H49.8789C50.3477 24.458 50.792 24.3457 51.2119 24.1211C51.5244 23.9648 51.7344 23.7305 51.8418 23.418C51.959 23.1055 52.0176 22.4658 52.0176 21.499V8.59375C52.0176 7.33398 51.8906 6.55762 51.6367 6.26465C51.2852 5.87402 50.6992 5.67871 49.8789 5.67871H49.1758V5.13672H64.4834L64.7031 9.4873H64.1318C63.9268 8.44238 63.6973 7.72461 63.4434 7.33398C63.1992 6.94336 62.833 6.64551 62.3447 6.44043C61.9541 6.29395 61.2656 6.2207 60.2793 6.2207H54.8301ZM66.5049 5.13672H71.8955L84.0391 20.0342V8.5791C84.0391 7.3584 83.9023 6.59668 83.6289 6.29395C83.2676 5.88379 82.6963 5.67871 81.915 5.67871H81.2266V5.13672H88.1406V5.67871H87.4375C86.5977 5.67871 86.002 5.93262 85.6504 6.44043C85.4355 6.75293 85.3281 7.46582 85.3281 8.5791V25.3223H84.8008L71.7051 9.32617V21.5576C71.7051 22.7783 71.8369 23.54 72.1006 23.8428C72.4717 24.2529 73.043 24.458 73.8145 24.458H74.5176V25H67.6035V24.458H68.292C69.1416 24.458 69.7422 24.2041 70.0938 23.6963C70.3086 23.3838 70.416 22.6709 70.416 21.5576V7.74414C69.8398 7.07031 69.4004 6.62598 69.0977 6.41113C68.8047 6.19629 68.3701 5.99609 67.7939 5.81055C67.5107 5.72266 67.0811 5.67871 66.5049 5.67871V5.13672ZM106.642 4.68262L107.096 11.4355H106.642C106.036 9.41406 105.172 7.95898 104.049 7.07031C102.926 6.18164 101.578 5.7373 100.006 5.7373C98.6875 5.7373 97.4961 6.07422 96.4316 6.74805C95.3672 7.41211 94.5273 8.47656 93.9121 9.94141C93.3066 11.4062 93.0039 13.2275 93.0039 15.4053C93.0039 17.2021 93.292 18.7598 93.8682 20.0781C94.4443 21.3965 95.3086 22.4072 96.4609 23.1104C97.623 23.8135 98.9463 24.165 100.431 24.165C101.72 24.165 102.857 23.8916 103.844 23.3447C104.83 22.7881 105.914 21.6895 107.096 20.0488L107.55 20.3418C106.554 22.1094 105.392 23.4033 104.063 24.2236C102.735 25.0439 101.158 25.4541 99.332 25.4541C96.041 25.4541 93.4922 24.2334 91.6855 21.792C90.3379 19.9756 89.6641 17.8369 89.6641 15.376C89.6641 13.3936 90.1084 11.5723 90.9971 9.91211C91.8857 8.25195 93.1064 6.96777 94.6592 6.05957C96.2217 5.1416 97.9258 4.68262 99.7715 4.68262C101.207 4.68262 102.623 5.03418 104.02 5.7373C104.43 5.95215 104.723 6.05957 104.898 6.05957C105.162 6.05957 105.392 5.9668 105.587 5.78125C105.841 5.51758 106.021 5.15137 106.129 4.68262H106.642ZM114.859 6.2207V14.0723H119.225C120.357 14.0723 121.114 13.9014 121.495 13.5596C122.003 13.1104 122.286 12.3193 122.345 11.1865H122.887V18.1006H122.345C122.208 17.1338 122.071 16.5137 121.935 16.2402C121.759 15.8984 121.471 15.6299 121.07 15.4346C120.67 15.2393 120.055 15.1416 119.225 15.1416H114.859V21.6895C114.859 22.5684 114.898 23.1055 114.977 23.3008C115.055 23.4863 115.191 23.6377 115.387 23.7549C115.582 23.8623 115.953 23.916 116.5 23.916H119.869C120.992 23.916 121.808 23.8379 122.315 23.6816C122.823 23.5254 123.312 23.2178 123.78 22.7588C124.386 22.1533 125.006 21.2402 125.641 20.0195H126.227L124.513 25H109.205V24.458H109.908C110.377 24.458 110.821 24.3457 111.241 24.1211C111.554 23.9648 111.764 23.7305 111.871 23.418C111.988 23.1055 112.047 22.4658 112.047 21.499V8.59375C112.047 7.33398 111.92 6.55762 111.666 6.26465C111.314 5.87402 110.729 5.67871 109.908 5.67871H109.205V5.13672H124.513L124.732 9.4873H124.161C123.956 8.44238 123.727 7.72461 123.473 7.33398C123.229 6.94336 122.862 6.64551 122.374 6.44043C121.983 6.29395 121.295 6.2207 120.309 6.2207H114.859ZM130.68 22.1582C131.139 22.1582 131.524 22.3193 131.837 22.6416C132.149 22.9541 132.306 23.335 132.306 23.7842C132.306 24.2334 132.145 24.6191 131.822 24.9414C131.51 25.2539 131.129 25.4102 130.68 25.4102C130.23 25.4102 129.845 25.2539 129.522 24.9414C129.21 24.6191 129.054 24.2334 129.054 23.7842C129.054 23.3252 129.21 22.9395 129.522 22.627C129.845 22.3145 130.23 22.1582 130.68 22.1582ZM134.034 5.13672H139.425L151.568 20.0342V8.5791C151.568 7.3584 151.432 6.59668 151.158 6.29395C150.797 5.88379 150.226 5.67871 149.444 5.67871H148.756V5.13672H155.67V5.67871H154.967C154.127 5.67871 153.531 5.93262 153.18 6.44043C152.965 6.75293 152.857 7.46582 152.857 8.5791V25.3223H152.33L139.234 9.32617V21.5576C139.234 22.7783 139.366 23.54 139.63 23.8428C140.001 24.2529 140.572 24.458 141.344 24.458H142.047V25H135.133V24.458H135.821C136.671 24.458 137.271 24.2041 137.623 23.6963C137.838 23.3838 137.945 22.6709 137.945 21.5576V7.74414C137.369 7.07031 136.93 6.62598 136.627 6.41113C136.334 6.19629 135.899 5.99609 135.323 5.81055C135.04 5.72266 134.61 5.67871 134.034 5.67871V5.13672ZM162.379 6.2207V14.0723H166.744C167.877 14.0723 168.634 13.9014 169.015 13.5596C169.522 13.1104 169.806 12.3193 169.864 11.1865H170.406V18.1006H169.864C169.728 17.1338 169.591 16.5137 169.454 16.2402C169.278 15.8984 168.99 15.6299 168.59 15.4346C168.189 15.2393 167.574 15.1416 166.744 15.1416H162.379V21.6895C162.379 22.5684 162.418 23.1055 162.496 23.3008C162.574 23.4863 162.711 23.6377 162.906 23.7549C163.102 23.8623 163.473 23.916 164.02 23.916H167.389C168.512 23.916 169.327 23.8379 169.835 23.6816C170.343 23.5254 170.831 23.2178 171.3 22.7588C171.905 22.1533 172.525 21.2402 173.16 20.0195H173.746L172.032 25H156.725V24.458H157.428C157.896 24.458 158.341 24.3457 158.761 24.1211C159.073 23.9648 159.283 23.7305 159.391 23.418C159.508 23.1055 159.566 22.4658 159.566 21.499V8.59375C159.566 7.33398 159.439 6.55762 159.186 6.26465C158.834 5.87402 158.248 5.67871 157.428 5.67871H156.725V5.13672H172.032L172.252 9.4873H171.681C171.476 8.44238 171.246 7.72461 170.992 7.33398C170.748 6.94336 170.382 6.64551 169.894 6.44043C169.503 6.29395 168.814 6.2207 167.828 6.2207H162.379ZM202.53 5.13672V5.67871C202.013 5.67871 201.593 5.77148 201.271 5.95703C200.948 6.14258 200.641 6.48926 200.348 6.99707C200.152 7.33887 199.845 8.1543 199.425 9.44336L193.888 25.4541H193.302L188.775 12.7539L184.278 25.4541H183.751L177.848 8.95996C177.408 7.72949 177.13 7.00195 177.013 6.77734C176.817 6.40625 176.549 6.13281 176.207 5.95703C175.875 5.77148 175.421 5.67871 174.845 5.67871V5.13672H182.198V5.67871H181.847C181.329 5.67871 180.934 5.7959 180.66 6.03027C180.387 6.26465 180.25 6.54785 180.25 6.87988C180.25 7.22168 180.465 8.00781 180.895 9.23828L184.806 20.3857L188.102 10.9082L187.516 9.23828L187.047 7.90527C186.842 7.41699 186.612 6.9873 186.358 6.61621C186.231 6.43066 186.075 6.27441 185.89 6.14746C185.646 5.97168 185.401 5.84473 185.157 5.7666C184.972 5.70801 184.679 5.67871 184.278 5.67871V5.13672H192.013V5.67871H191.485C190.938 5.67871 190.538 5.7959 190.284 6.03027C190.03 6.26465 189.903 6.58203 189.903 6.98242C189.903 7.48047 190.123 8.34961 190.562 9.58984L194.371 20.3857L198.15 9.44336C198.58 8.23242 198.795 7.39258 198.795 6.92383C198.795 6.69922 198.722 6.48926 198.575 6.29395C198.438 6.09863 198.263 5.96191 198.048 5.88379C197.677 5.74707 197.193 5.67871 196.598 5.67871V5.13672H202.53ZM216.534 4.68262V11.5527H215.992C215.816 10.2344 215.499 9.18457 215.04 8.40332C214.591 7.62207 213.946 7.00195 213.106 6.54297C212.267 6.08398 211.397 5.85449 210.499 5.85449C209.483 5.85449 208.644 6.16699 207.979 6.79199C207.315 7.40723 206.983 8.11035 206.983 8.90137C206.983 9.50684 207.193 10.0586 207.613 10.5566C208.219 11.2891 209.659 12.2656 211.935 13.4863C213.79 14.4824 215.055 15.249 215.729 15.7861C216.412 16.3135 216.935 16.9385 217.296 17.6611C217.667 18.3838 217.853 19.1406 217.853 19.9316C217.853 21.4355 217.267 22.7344 216.095 23.8281C214.933 24.9121 213.434 25.4541 211.598 25.4541C211.021 25.4541 210.479 25.4102 209.972 25.3223C209.669 25.2734 209.039 25.0977 208.082 24.7949C207.135 24.4824 206.534 24.3262 206.28 24.3262C206.036 24.3262 205.841 24.3994 205.694 24.5459C205.558 24.6924 205.455 24.9951 205.387 25.4541H204.845V18.6426H205.387C205.641 20.0684 205.982 21.1377 206.412 21.8506C206.842 22.5537 207.496 23.1396 208.375 23.6084C209.264 24.0771 210.235 24.3115 211.29 24.3115C212.511 24.3115 213.473 23.9893 214.176 23.3447C214.889 22.7002 215.245 21.9385 215.245 21.0596C215.245 20.5713 215.108 20.0781 214.835 19.5801C214.571 19.082 214.156 18.6182 213.59 18.1885C213.209 17.8955 212.169 17.2754 210.47 16.3281C208.771 15.3711 207.56 14.6094 206.837 14.043C206.124 13.4766 205.582 12.8516 205.211 12.168C204.84 11.4844 204.654 10.7324 204.654 9.91211C204.654 8.48633 205.201 7.26074 206.295 6.23535C207.389 5.2002 208.78 4.68262 210.47 4.68262C211.524 4.68262 212.643 4.94141 213.824 5.45898C214.371 5.70313 214.757 5.8252 214.981 5.8252C215.235 5.8252 215.44 5.75195 215.597 5.60547C215.763 5.44922 215.895 5.1416 215.992 4.68262H216.534Z" fill="black"/>
</svg>
