<svg xmlns="http://www.w3.org/2000/svg" viewBox="0 0 218 26"><title>Artboard 1</title><path d="M15,.6V8.9h-.7a10.2,10.2,0,0,0-1.1-3.8,5.8,5.8,0,0,0-2.3-2.2A6.4,6.4,0,0,0,7.8,2a4.2,4.2,0,0,0-3,1.1A3.4,3.4,0,0,0,3.6,5.7a3,3,0,0,0,.8,2,19.4,19.4,0,0,0,5.2,3.5,34.2,34.2,0,0,1,4.6,2.8,6.5,6.5,0,0,1,1.9,2.2,5.9,5.9,0,0,1,.7,2.7,6.2,6.2,0,0,1-2.1,4.7,7.6,7.6,0,0,1-5.4,2l-2-.2-2.3-.6-2.2-.6a1,1,0,0,0-.7.3,2.2,2.2,0,0,0-.4,1.1H1V17.4h.7a11.7,11.7,0,0,0,1.2,3.8,5.9,5.9,0,0,0,2.4,2.1,7.4,7.4,0,0,0,3.5.8A4.9,4.9,0,0,0,12.2,23a3.6,3.6,0,0,0,1.3-2.7,3.7,3.7,0,0,0-.5-1.8,5.2,5.2,0,0,0-1.5-1.7L7.8,14.6a37.7,37.7,0,0,1-4.4-2.7,7.4,7.4,0,0,1-2-2.3A5.6,5.6,0,0,1,.8,6.9a5.8,5.8,0,0,1,2-4.4A7,7,0,0,1,7.8.6a10.1,10.1,0,0,1,4,.9l1.4.4a1,1,0,0,0,.7-.3A2.2,2.2,0,0,0,14.4.6ZM36.6,4.7l.5,6.8h-.5A8.5,8.5,0,0,0,34,7.1a6.3,6.3,0,0,0-4-1.3,6.5,6.5,0,0,0-3.6,1,6.6,6.6,0,0,0-2.5,3.2,14.4,14.4,0,0,0-.9,5.5,11.6,11.6,0,0,0,.9,4.7,6.5,6.5,0,0,0,2.6,3,7.5,7.5,0,0,0,4,1.1,6.9,6.9,0,0,0,3.4-.8A11.4,11.4,0,0,0,37.1,20l.5.3A10.4,10.4,0,0,1,34,24.2a8.8,8.8,0,0,1-4.7,1.2,9,9,0,0,1-7.6-3.7,10.5,10.5,0,0,1-2-6.4A11.4,11.4,0,0,1,21,9.9a9.6,9.6,0,0,1,3.7-3.9,9.9,9.9,0,0,1,5.1-1.4A9.4,9.4,0,0,1,34,5.7l.9.3a1,1,0,0,0,.7-.3,2.3,2.3,0,0,0,.5-1.1ZM47.8,24.5V25H39.3v-.5H40a2.1,2.1,0,0,0,1.8-.7,4.5,4.5,0,0,0,.4-2.3V8.7a6.6,6.6,0,0,0-.2-2,1.3,1.3,0,0,0-.6-.6A2.8,2.8,0,0,0,40,5.7h-.7V5.1h8.5v.5h-.7a2.1,2.1,0,0,0-1.8.7A4.3,4.3,0,0,0,45,8.7V21.5a6.6,6.6,0,0,0,.2,2,1.3,1.3,0,0,0,.6.6,2.7,2.7,0,0,0,1.3.4Zm7-18.2v7.9h4.4a3.6,3.6,0,0,0,2.3-.5,3.3,3.3,0,0,0,.8-2.4h.5v6.9h-.5a7.6,7.6,0,0,0-.4-1.9,1.8,1.8,0,0,0-.9-.8,4.4,4.4,0,0,0-1.8-.3H54.8v6.5a6.2,6.2,0,0,0,.1,1.6l.4.5,1.1.2h3.4a9.1,9.1,0,0,0,2.4-.2,3.6,3.6,0,0,0,1.5-.9A11.3,11.3,0,0,0,65.6,20h.6l-1.7,5H49.2v-.5h.7a2.8,2.8,0,0,0,1.3-.3,1.2,1.2,0,0,0,.6-.7,6.6,6.6,0,0,0,.2-1.9V8.6a4.3,4.3,0,0,0-.4-2.3,2.3,2.3,0,0,0-1.8-.6h-.7V5.1H64.5l.2,4.4h-.6a6.7,6.7,0,0,0-.7-2.2,2.3,2.3,0,0,0-1.1-.9,6.6,6.6,0,0,0-2.1-.2ZM66.5,5.1h5.4L84,20V8.6a3.9,3.9,0,0,0-.4-2.3,2.2,2.2,0,0,0-1.7-.6h-.7V5.1h6.9v.5h-.7a2,2,0,0,0-1.8.8,4.4,4.4,0,0,0-.3,2.1V25.3h-.5L71.7,9.3V21.6a4.1,4.1,0,0,0,.4,2.3,2.2,2.2,0,0,0,1.7.6h.7V25H67.6v-.5h.7a2,2,0,0,0,1.8-.8,4.4,4.4,0,0,0,.3-2.1V7.7L69.1,6.4l-1.3-.6H66.5Zm40.1-.5.5,6.8h-.5A8.5,8.5,0,0,0,104,7.1a6.3,6.3,0,0,0-4-1.3,6.5,6.5,0,0,0-3.6,1,6.6,6.6,0,0,0-2.5,3.2,14.4,14.4,0,0,0-.9,5.5,11.6,11.6,0,0,0,.9,4.7,6.5,6.5,0,0,0,2.6,3,7.5,7.5,0,0,0,4,1.1,6.9,6.9,0,0,0,3.4-.8,11.4,11.4,0,0,0,3.3-3.3l.5.3a10.4,10.4,0,0,1-3.5,3.9,8.8,8.8,0,0,1-4.7,1.2,9,9,0,0,1-7.6-3.7,10.5,10.5,0,0,1-2-6.4A11.4,11.4,0,0,1,91,9.9a9.6,9.6,0,0,1,3.7-3.9,9.9,9.9,0,0,1,5.1-1.4A9.4,9.4,0,0,1,104,5.7l.9.3a1,1,0,0,0,.7-.3,2.3,2.3,0,0,0,.5-1.1Zm8.2,1.5v7.9h4.4a3.6,3.6,0,0,0,2.3-.5,3.3,3.3,0,0,0,.8-2.4h.5v6.9h-.5a7.6,7.6,0,0,0-.4-1.9,1.8,1.8,0,0,0-.9-.8,4.4,4.4,0,0,0-1.8-.3h-4.4v6.5a6.1,6.1,0,0,0,.1,1.6l.4.5,1.1.2h3.4a9.1,9.1,0,0,0,2.4-.2,3.6,3.6,0,0,0,1.5-.9,11.3,11.3,0,0,0,1.9-2.7h.6l-1.7,5H109.2v-.5h.7a2.8,2.8,0,0,0,1.3-.3,1.2,1.2,0,0,0,.6-.7,6.6,6.6,0,0,0,.2-1.9V8.6a4.3,4.3,0,0,0-.4-2.3,2.3,2.3,0,0,0-1.8-.6h-.7V5.1h15.3l.2,4.4h-.6a6.7,6.7,0,0,0-.7-2.2,2.3,2.3,0,0,0-1.1-.9,6.6,6.6,0,0,0-2.1-.2Zm15.8,15.9a1.6,1.6,0,0,1,1.6,1.6,1.6,1.6,0,0,1-.5,1.2,1.6,1.6,0,0,1-1.1.5,1.6,1.6,0,0,1-1.6-1.6,1.6,1.6,0,0,1,.5-1.2A1.6,1.6,0,0,1,130.7,22.2Zm3.4-17h5.4L151.6,20V8.6a3.9,3.9,0,0,0-.4-2.3,2.2,2.2,0,0,0-1.7-.6h-.7V5.1h6.9v.5H155a2,2,0,0,0-1.8.8,4.4,4.4,0,0,0-.3,2.1V25.3h-.5l-13.1-16V21.6a4.1,4.1,0,0,0,.4,2.3,2.2,2.2,0,0,0,1.7.6h.7V25h-6.9v-.5h.7a2,2,0,0,0,1.8-.8,4.4,4.4,0,0,0,.3-2.1V7.7l-1.3-1.3-1.3-.6H134Zm28.3,1.1v7.9h4.4a3.6,3.6,0,0,0,2.3-.5,3.3,3.3,0,0,0,.8-2.4h.5v6.9h-.5a7.5,7.5,0,0,0-.4-1.9,1.8,1.8,0,0,0-.9-.8,4.4,4.4,0,0,0-1.8-.3h-4.4v6.5a6.2,6.2,0,0,0,.1,1.6l.4.5,1.1.2h3.4a9.1,9.1,0,0,0,2.4-.2,3.6,3.6,0,0,0,1.5-.9,11.3,11.3,0,0,0,1.9-2.7h.6L172,25H156.7v-.5h.7a2.8,2.8,0,0,0,1.3-.3,1.2,1.2,0,0,0,.6-.7,6.6,6.6,0,0,0,.2-1.9V8.6a4.3,4.3,0,0,0-.4-2.3,2.3,2.3,0,0,0-1.8-.6h-.7V5.1H172l.2,4.4h-.6a6.7,6.7,0,0,0-.7-2.2,2.3,2.3,0,0,0-1.1-.9,6.6,6.6,0,0,0-2.1-.2Zm40.2-1.1v.5a2.5,2.5,0,0,0-1.3.3,2.7,2.7,0,0,0-.9,1,16.9,16.9,0,0,0-.9,2.4l-5.5,16h-.6l-4.5-12.7-4.5,12.7h-.5L177.8,9,177,6.8a1.9,1.9,0,0,0-.8-.8,2.8,2.8,0,0,0-1.4-.3V5.1h7.4v.5h-.4a1.8,1.8,0,0,0-1.2.4,1.1,1.1,0,0,0-.4.8,10.1,10.1,0,0,0,.6,2.4l3.9,11.1,3.3-9.5-.6-1.7L187,7.9a7.2,7.2,0,0,0-.7-1.3l-.5-.5-.7-.4h-.9V5.1H192v.5h-.5a1.7,1.7,0,0,0-1.2.4,1.2,1.2,0,0,0-.4,1,9.4,9.4,0,0,0,.7,2.6l3.8,10.8,3.8-10.9a9.2,9.2,0,0,0,.6-2.5,1,1,0,0,0-.2-.6l-.5-.4-1.4-.2V5.1Zm14-.5v6.9H216a8.5,8.5,0,0,0-1-3.1,4.9,4.9,0,0,0-1.9-1.9,5.4,5.4,0,0,0-2.6-.7,3.5,3.5,0,0,0-2.5.9,2.8,2.8,0,0,0-1,2.1,2.5,2.5,0,0,0,.6,1.7,16.2,16.2,0,0,0,4.3,2.9,28.6,28.6,0,0,1,3.8,2.3,5.4,5.4,0,0,1,1.6,1.9,4.9,4.9,0,0,1,.6,2.3,5.2,5.2,0,0,1-1.8,3.9,6.3,6.3,0,0,1-4.5,1.6H210l-1.9-.5-1.8-.5-.6.2a1.8,1.8,0,0,0-.3.9h-.5V18.6h.5a9.7,9.7,0,0,0,1,3.2,5,5,0,0,0,2,1.8,6.2,6.2,0,0,0,2.9.7,4.1,4.1,0,0,0,2.9-1,3,3,0,0,0,1.1-2.3,3.1,3.1,0,0,0-.4-1.5,4.3,4.3,0,0,0-1.2-1.4l-3.1-1.9a31.5,31.5,0,0,1-3.6-2.3,6.2,6.2,0,0,1-1.6-1.9,4.7,4.7,0,0,1-.6-2.3,4.9,4.9,0,0,1,1.6-3.7,5.8,5.8,0,0,1,4.2-1.6,8.4,8.4,0,0,1,3.4.8l1.2.4.6-.2a1.8,1.8,0,0,0,.4-.9Z"/></svg>