<svg width="168" height="32" fill="none" xmlns="http://www.w3.org/2000/svg"><path d="M46.056 8.182c-.827.081-4.264.85-5.418 1.099-1.237.33-12.543 9.08-13.285 11.207-.165.742-.247 1.884-.247 2.959l-.083 1.733c0 1.237.344 3.232.508 4.303.744.166 6.123.021 7.11.185l-.122 2.216c-.967-.07-7.799-.054-11.7-.054-1.981 0-8.35.218-10.306.16l.37-2.108c1.072-.084 5.514.192 6.491-.84.485-.51.331-1.058.331-4.029v-1.385c0-.662 0-1.9-.166-3.053C19.126 19.337 9.169 6.903 6.61 4.922c-.743-.246-5.397-.713-6.553-.96L0 2.06c.576-.29 5.752.07 10.774-.116 3.301-.123 10.832 0 11.761.111l-.238 1.675c-.99.246-5.76.338-6.997.67 3.232 4.77 8.307 10.947 9.958 13.34.924-1.32 8.885-6.809 9.133-8.707-1.239-.246-5.336-.838-5.998-.838l-.392-2.161c1.123-.176 7.033 0 9.968 0l9.49.126-1.406 2.035.003-.014zm3.447 6.253l-.05-.328-2.839 6.465 5.123-.002-2.232-6.12-.002-.015zm13.604 16.56c-.363-.052-4.498-.052-6.005-.052-.885 0-5.387-.026-6.169-.026l.234-1.933c1.04-.052 2.977-.472 3.86-.577L52.152 22.2c-1.077 0-5.02.123-6.113.33-.208.366-1.7 1.828-1.958 3.802l2.955.56-.308 1.975c-.883-.052-4.41.053-5.242 0l-5.079.113.647-2.087c.83-.104 2.748-.7 3.478-.855 1.077-1.56 6.152-11.447 6.567-12.385-.677-.157-1.825-.7-2.555-.803l-.1-1.428 5.747.161 5.812-.083-.328 1.404c-.78.05-2.047.43-2.778.588.365 1.077 1.813 4.612 2.904 7.213.831 1.873 2.214 5.541 3.514 7.676l3.848.803.052.524-.108 1.288zm30.465-5.383c-.717-.055-4.155-.05-5.933 0-1.416.04-4.777-.128-6.378-.058l-.123-1.961 4.657-.4c.22-1.047.116-2.535.116-3.802l-.085-2.309-13.933.662-.853.111c0 3.146.165 4.156.385 5.3.923.164 4.305.384 5.022.496l-.043 2.155c-.828-.055-6.006 0-7.606 0-1.932 0-6.628-.042-7.731.015l.149-2.207 4.925-.492c.11-1.436.165-3.697.165-6.072v-2.924l-.111-4.858c-.717-.107-4.056-.332-5.048-.387l-.176-1.672c.662.056 5.27-.07 7.696-.07l8-.013-.18 1.755-5.133.441c-.166.828-.332 1.547-.332 4.194l-.082 1.38 14.837-.265v-1.912c0-2.427.377-5.053.101-5.772a49.236 49.236 0 0 0-4.946-.683l.147-1.762c.662.055 3.764.037 6.08.092l6.673-.009-.163 1.451c-.717.056-3.917.865-3.917.865s-.218 1.512-.058 3.688l.172 5.36.115 7.318c-.264.2 2.534.369 3.306.48l.302.523-.035 1.359.018-.017zm24.013-8.759c.2-5.578-4.166-7.08-9.696-6.684-2.886.2-8.773 1.724-8.773 6.684 0 4.902 4.505 7.542 10.515 7.034 4.651-.405 7.092-2.118 7.693-4.497l.23-2.535.031-.002zm4.407-.46c.261 6.741-5.892 10.08-13.886 10.08-3.325 0-7.375-.633-10.832-2.708-2.697-1.619-3.143-3.717-3.143-6.34 0-5.428 5.91-9.928 14.954-9.87 3.443 0 6.761.524 9.444 2.617 2.393 1.867 2.798 2.793 3.232 4.836l.231 1.385zm37.92 11.352l-1.915-.165-.02-4.147 2.424.301 2.173.102-.603 4.06-2.059-.154v.003zm2.465-7.329l-3.573-.346c.375-1.807.049-15.677.02-17.156L158.639 0c.996.195.846.092 5.045.536 2.555.267 2.889.384 3.731.415l-1.098 3.455c-.923 2.765-3.652 15.088-3.94 16.012v-.002zm-11.589-5.848c.38-6.061-5.459-8.268-11.754-7.838-3.294.227-9.45 2.174-9.45 7.838 0 5.594 5.151 8.415 12.014 7.818 5.31-.462 7.519-2.46 8.727-5.168 0 0 .346-.808.461-2.65h.002zm4.76-.896c.471 6.31-6.812 11.554-15.94 11.554-3.797 0-7.029-.462-10.774-2.924-3.078-2.038-4.551-3.802-4.935-7.28-.682-6.157 6.745-11.333 17.071-11.267 3.931 0 7.719.616 10.783 2.986 2.732 2.13 3.209 4.153 3.694 6.486l.101.445z" fill="#7B0099"/></svg>