<svg width="1300" height="700" viewBox="0 0 1300 700" fill="none" xmlns="http://www.w3.org/2000/svg">
<g clip-path="url(#clip0_1491_97)">
<rect width="1300" height="700" fill="white"/>
<path opacity="0.0126582" d="M1148.71 435.504C1148.71 394.222 1161.29 210.174 1043.85 96.6487C926.4 -16.8764 813.147 -96 653.755 -96C494.363 -96 330.776 -6.55598 263.663 96.6487C196.551 199.853 137.827 344.34 162.994 435.504M1148.71 435.504C1296.92 480.226 1530.42 614.736 1278.75 795C1240 738.811 1133.86 622.992 1019.29 609.232M1148.71 435.504C1148.71 462.525 1075.7 548.197 1019.29 609.232M162.994 435.504C6.39857 480.799 -238.842 616.112 32.9642 795C58.7271 738.237 147.406 621.616 296.019 609.232M162.994 435.504C197.142 482.315 257.161 562.628 296.019 609.232M296.019 609.232C312.847 629.414 325.706 643.274 330.776 645.353H985.123C995.037 635.138 1006.75 622.793 1019.29 609.232" stroke="black"/>
<path opacity="0.0253165" d="M1142.65 434.539C1142.65 393.72 1155.08 211.737 1039.06 99.4865C923.042 -12.7645 811.168 -91 653.715 -91C496.263 -91 334.667 -2.55985 268.371 99.4865C202.075 201.533 144.067 344.398 168.928 434.539M1142.65 434.539C1289.05 478.759 1519.71 611.759 1271.1 790C1232.82 734.441 1127.98 619.923 1014.8 606.317M1142.65 434.539C1142.65 461.257 1070.53 545.967 1014.8 606.317M168.928 434.539C14.2375 479.326 -228.018 613.12 40.4798 790C65.9292 733.875 153.529 618.562 300.333 606.317M168.928 434.539C202.66 480.824 261.948 560.236 300.333 606.317M300.333 606.317C316.956 626.272 329.658 639.977 334.667 642.033H981.051C990.843 631.932 1002.42 619.726 1014.8 606.317" stroke="black"/>
<path opacity="0.0379747" d="M1136.58 433.573C1136.58 393.218 1148.86 213.301 1034.27 102.324C919.684 -8.65251 809.188 -86 653.676 -86C498.163 -86 338.558 1.43629 273.079 102.324C207.6 203.212 150.306 344.456 174.861 433.573M1136.58 433.573C1281.18 477.292 1509 608.782 1263.45 785C1225.65 730.072 1122.09 616.853 1010.31 603.402M1136.58 433.573C1136.58 459.988 1065.35 543.737 1010.31 603.402M174.861 433.573C22.0765 477.852 -217.194 610.127 47.9955 785C73.1313 729.512 159.652 615.508 304.647 603.402M174.861 433.573C208.177 479.334 266.736 557.844 304.647 603.402M304.647 603.402C321.065 623.131 333.611 636.68 338.558 638.712H976.978C986.65 628.727 998.081 616.659 1010.31 603.402" stroke="black"/>
<path opacity="0.0506329" d="M1130.52 432.608C1130.52 392.716 1142.64 214.865 1029.49 105.162C916.326 -4.54054 807.209 -81 653.636 -81C500.063 -81 342.449 5.43243 277.787 105.162C213.125 204.892 156.545 344.514 180.794 432.608M1130.52 432.608C1273.32 475.824 1498.29 605.805 1255.81 780C1218.48 725.703 1116.21 613.784 1005.82 600.486M1130.52 432.608C1130.52 458.72 1060.18 541.507 1005.82 600.486M180.794 432.608C29.9155 476.378 -206.371 607.135 55.5111 780C80.3334 725.149 165.775 612.454 308.961 600.486M180.794 432.608C213.695 477.843 271.523 555.452 308.961 600.486M308.961 600.486C325.175 619.989 337.564 633.383 342.449 635.392H972.906C982.457 625.521 993.745 613.591 1005.82 600.486" stroke="black"/>
<path opacity="0.0632911" d="M1124.46 431.643C1124.46 392.214 1136.43 216.429 1024.7 108C912.969 -0.428569 805.229 -76 653.597 -76C501.964 -76 346.34 9.42857 282.495 108C218.65 206.571 162.785 344.571 186.727 431.643M1124.46 431.643C1265.45 474.357 1487.58 602.829 1248.16 775C1211.3 721.333 1110.33 610.714 1001.33 597.571M1124.46 431.643C1124.46 457.451 1055 539.277 1001.33 597.571M186.727 431.643C37.7544 474.905 -195.547 604.143 63.0268 775C87.5356 720.786 171.898 609.4 313.275 597.571M186.727 431.643C219.212 476.352 276.31 553.06 313.275 597.571M313.275 597.571C329.284 616.848 341.517 630.086 346.34 632.071H968.833C978.264 622.315 989.409 610.524 1001.33 597.571" stroke="black"/>
<path opacity="0.0759494" d="M1118.39 430.678C1118.39 391.712 1130.21 217.992 1019.91 110.838C909.611 3.6834 803.25 -71 653.557 -71C503.864 -71 350.232 13.4247 287.203 110.838C224.174 208.251 169.024 344.629 192.66 430.678M1118.39 430.678C1257.58 472.89 1476.87 599.852 1240.52 770C1204.13 716.964 1104.45 607.645 996.845 594.656M1118.39 430.678C1118.39 456.183 1049.83 537.047 996.845 594.656M192.66 430.678C45.5934 473.431 -184.724 601.151 70.5424 770C94.7377 716.423 178.02 606.346 317.59 594.656M192.66 430.678C224.73 474.862 281.097 550.668 317.59 594.656M317.59 594.656C333.393 613.706 345.47 626.788 350.232 628.751H964.761C974.071 619.109 985.073 607.457 996.845 594.656" stroke="black"/>
<path opacity="0.0886076" d="M1112.33 429.712C1112.33 391.21 1123.99 219.556 1015.12 113.676C906.253 7.79537 801.27 -66 653.517 -66C505.764 -66 354.123 17.4208 291.911 113.676C229.699 209.931 175.264 344.687 198.593 429.712M1112.33 429.712C1249.72 471.423 1466.16 596.875 1232.87 765C1196.95 712.595 1098.56 604.575 992.357 591.741M1112.33 429.712C1112.33 454.914 1044.65 534.817 992.357 591.741M198.593 429.712C53.4323 471.958 -173.9 598.158 78.0581 765C101.94 712.06 184.143 603.292 321.904 591.741M198.593 429.712C230.248 473.371 285.884 548.276 321.904 591.741M321.904 591.741C337.503 610.564 349.423 623.491 354.123 625.43H960.688C969.878 615.903 980.738 604.39 992.357 591.741" stroke="black"/>
<path opacity="0.101266" d="M1106.27 428.747C1106.27 390.708 1117.78 221.12 1010.34 116.514C902.895 11.9073 799.291 -61 653.478 -61C507.664 -61 358.014 21.417 296.619 116.514C235.224 211.61 181.503 344.745 204.526 428.747M1106.27 428.747C1241.85 469.956 1455.46 593.898 1225.22 760C1189.78 708.225 1092.68 601.506 987.869 588.826M1106.27 428.747C1106.27 453.646 1039.48 532.587 987.869 588.826M204.526 428.747C61.2713 470.484 -163.076 595.166 85.5737 760C109.142 707.697 190.266 600.238 326.218 588.826M204.526 428.747C235.765 471.88 290.671 545.884 326.218 588.826M326.218 588.826C341.612 607.423 353.376 620.194 358.014 622.11H956.616C965.685 612.697 976.402 601.322 987.869 588.826" stroke="black"/>
<path opacity="0.113924" d="M1100.2 427.782C1100.2 390.207 1111.56 222.683 1005.55 119.351C899.537 16.0193 797.311 -56 653.438 -56C509.565 -56 361.905 25.4131 301.327 119.351C240.749 213.29 187.743 344.803 210.459 427.782M1100.2 427.782C1233.98 468.488 1444.75 590.921 1217.58 755C1182.6 703.856 1086.8 598.436 983.381 585.911M1100.2 427.782C1100.2 452.377 1034.3 530.357 983.381 585.911M210.459 427.782C69.1103 469.01 -152.253 592.174 93.0894 755C116.344 703.334 196.389 597.184 330.532 585.911M210.459 427.782C241.283 470.39 295.458 543.492 330.532 585.911M330.532 585.911C345.721 604.281 357.328 616.897 361.905 618.79H952.543C961.491 609.492 972.066 598.255 983.381 585.911" stroke="black"/>
<path opacity="0.126582" d="M1094.14 426.817C1094.14 389.705 1105.34 224.247 1000.76 122.189C896.18 20.1313 795.332 -51 653.398 -51C511.465 -51 365.796 29.4093 306.035 122.189C246.273 214.969 193.982 344.861 216.393 426.817M1094.14 426.817C1226.11 467.021 1434.04 587.944 1209.93 750C1175.43 699.486 1080.92 595.367 978.892 582.996M1094.14 426.817C1094.14 451.109 1029.13 528.127 978.892 582.996M216.393 426.817C76.9492 467.537 -141.429 589.181 100.605 750C123.546 698.971 202.512 594.13 334.846 582.996M216.393 426.817C246.8 468.899 300.245 541.1 334.846 582.996M334.846 582.996C349.831 601.14 361.281 613.6 365.796 615.469H948.471C957.298 606.286 967.731 595.188 978.892 582.996" stroke="black"/>
<path opacity="0.139241" d="M1088.08 425.851C1088.08 389.203 1099.13 225.811 995.975 125.027C892.822 24.2432 793.353 -46 653.359 -46C513.365 -46 369.687 33.4054 310.743 125.027C251.798 216.649 200.221 344.919 222.326 425.851M1088.08 425.851C1218.25 465.554 1423.33 584.968 1202.29 745C1168.25 695.117 1075.03 592.297 974.404 580.081M1088.08 425.851C1088.08 449.84 1023.95 525.897 974.404 580.081M222.326 425.851C84.7882 466.063 -130.605 586.189 108.121 745C130.748 694.608 208.635 591.076 339.16 580.081M222.326 425.851C252.318 467.409 305.032 538.708 339.16 580.081M339.16 580.081C353.94 597.998 365.234 610.303 369.687 612.149H944.398C953.105 603.08 963.395 592.12 974.404 580.081" stroke="black"/>
<path opacity="0.151899" d="M1082.01 424.886C1082.01 388.701 1092.91 227.375 991.188 127.865C889.464 28.3552 791.373 -41 653.319 -41C515.265 -41 373.579 37.4015 315.451 127.865C257.323 218.328 206.461 344.977 228.259 424.886M1082.01 424.886C1210.38 464.087 1412.62 581.991 1194.64 740C1161.08 690.748 1069.15 589.228 969.916 577.166M1082.01 424.886C1082.01 448.572 1018.78 523.667 969.916 577.166M228.259 424.886C92.6272 464.589 -119.782 583.197 115.636 740C137.95 690.245 214.758 588.022 343.475 577.166M228.259 424.886C257.835 465.918 309.819 536.316 343.475 577.166M343.475 577.166C358.05 594.857 369.187 607.006 373.579 608.828H940.326C948.912 599.874 959.059 589.053 969.916 577.166" stroke="black"/>
<path opacity="0.164557" d="M1075.95 423.921C1075.95 388.199 1086.7 228.938 986.401 130.703C886.106 32.4672 789.394 -36 653.28 -36C517.166 -36 377.47 41.3977 320.159 130.703C262.848 220.008 212.7 345.035 234.192 423.921M1075.95 423.921C1202.51 462.62 1401.91 579.014 1186.99 735C1153.91 686.378 1063.27 586.158 965.427 574.251M1075.95 423.921C1075.95 447.303 1013.6 521.437 965.427 574.251M234.192 423.921C100.466 463.116 -108.958 580.205 123.152 735C145.152 685.882 220.88 584.968 347.789 574.251M234.192 423.921C263.353 464.427 314.606 533.924 347.789 574.251M347.789 574.251C362.159 591.715 373.14 603.709 377.47 605.508H936.253C944.719 596.668 954.723 585.986 965.427 574.251" stroke="black"/>
<path opacity="0.177215" d="M1069.89 422.956C1069.89 387.697 1080.48 230.502 981.613 133.541C882.748 36.5791 787.414 -31 653.24 -31C519.066 -31 381.361 45.3938 324.867 133.541C268.372 221.687 218.94 345.093 240.125 422.956M1069.89 422.956C1194.65 461.152 1391.2 576.037 1179.35 730C1146.73 682.009 1057.38 583.089 960.939 571.336M1069.89 422.956C1069.89 446.035 1008.43 519.207 960.939 571.336M240.125 422.956C108.305 461.642 -98.1345 577.212 130.668 730C152.354 681.519 227.003 581.913 352.103 571.336M240.125 422.956C268.87 462.937 319.393 531.532 352.103 571.336M352.103 571.336C366.268 588.573 377.093 600.411 381.361 602.187H932.181C940.526 593.463 950.388 582.919 960.939 571.336" stroke="black"/>
<path opacity="0.189873" d="M1063.82 421.99C1063.82 387.195 1074.26 232.066 976.826 136.378C879.39 40.6911 785.435 -26 653.2 -26C520.966 -26 385.252 49.39 329.575 136.378C273.897 223.367 225.179 345.151 246.058 421.99M1063.82 421.99C1186.78 459.685 1380.49 573.06 1171.7 725C1139.56 677.64 1051.5 580.019 956.451 568.421M1063.82 421.99C1063.82 444.766 1003.25 516.977 956.451 568.421M246.058 421.99C116.144 460.169 -87.3109 574.22 138.183 725C159.557 677.156 233.126 578.859 356.417 568.421M246.058 421.99C274.388 461.446 324.181 529.14 356.417 568.421M356.417 568.421C370.378 585.432 381.046 597.114 385.252 598.867H928.108C936.333 590.257 946.052 579.851 956.451 568.421" stroke="black"/>
<path opacity="0.202532" d="M1057.76 421.025C1057.76 386.693 1068.05 233.629 972.039 139.216C876.033 44.8031 783.455 -21 653.161 -21C522.866 -21 389.143 53.3861 334.283 139.216C279.422 225.046 231.419 345.208 251.991 421.025M1057.76 421.025C1178.91 458.218 1369.78 570.083 1164.06 720C1132.38 673.27 1045.62 576.95 951.963 565.506M1057.76 421.025C1057.76 443.498 998.078 514.746 951.963 565.506M251.991 421.025C123.983 458.695 -76.4872 571.228 145.699 720C166.759 672.793 239.249 575.805 360.731 565.506M251.991 421.025C279.905 459.955 328.968 526.748 360.731 565.506M360.731 565.506C374.487 582.29 384.999 593.817 389.143 595.546H924.036C932.139 587.051 941.716 576.784 951.963 565.506" stroke="black"/>
<path opacity="0.21519" d="M1051.7 420.06C1051.7 386.191 1061.83 235.193 967.252 142.054C872.675 48.9151 781.476 -16 653.121 -16C524.767 -16 393.035 57.3822 338.991 142.054C284.947 226.726 237.658 345.266 257.925 420.06M1051.7 420.06C1171.04 456.751 1359.08 567.107 1156.41 715C1125.21 668.901 1039.74 573.88 947.474 562.591M1051.7 420.06C1051.7 442.229 992.903 512.516 947.474 562.591M257.925 420.06C131.822 457.221 -65.6636 568.236 153.215 715C173.961 668.431 245.372 572.751 365.046 562.591M257.925 420.06C285.423 458.465 333.755 524.356 365.046 562.591M365.046 562.591C378.596 579.149 388.951 590.52 393.035 592.226H919.963C927.946 583.845 937.38 573.717 947.474 562.591" stroke="black"/>
<path opacity="0.227848" d="M1045.63 419.095C1045.63 385.689 1055.61 236.757 962.465 144.892C869.317 53.027 779.496 -11 653.082 -11C526.667 -11 396.926 61.3784 343.698 144.892C290.471 228.405 243.897 345.324 263.858 419.095M1045.63 419.095C1163.18 455.284 1348.37 564.13 1148.76 710C1118.03 664.532 1033.85 570.811 942.986 559.676M1045.63 419.095C1045.63 440.96 987.728 510.286 942.986 559.676M263.858 419.095C139.661 455.748 -54.84 565.243 160.73 710C181.163 664.068 251.495 569.697 369.36 559.676M263.858 419.095C290.94 456.974 338.542 521.964 369.36 559.676M369.36 559.676C382.706 576.007 392.904 587.223 396.926 588.905H915.891C923.753 580.639 933.045 570.65 942.986 559.676" stroke="black"/>
<path opacity="0.240506" d="M1039.57 418.129C1039.57 385.187 1049.4 238.32 957.678 147.73C865.959 57.139 777.517 -6 653.042 -6C528.567 -6 400.817 65.3745 348.406 147.73C295.996 230.085 250.137 345.382 269.791 418.129M1039.57 418.129C1155.31 453.817 1337.66 561.153 1141.12 705C1110.86 660.162 1027.97 567.741 938.498 556.761M1039.57 418.129C1039.57 439.692 982.553 508.056 938.498 556.761M269.791 418.129C147.5 454.274 -44.0164 562.251 168.246 705C188.365 659.705 257.617 566.643 373.674 556.761M269.791 418.129C296.458 455.483 343.329 519.572 373.674 556.761M373.674 556.761C386.815 572.866 396.857 583.926 400.817 585.585H911.818C919.56 577.433 928.709 567.582 938.498 556.761" stroke="black"/>
<path opacity="0.253165" d="M1033.51 417.164C1033.51 384.685 1043.18 239.884 952.89 150.568C862.601 61.251 775.537 -1 653.002 -1C530.467 -1 404.708 69.3707 353.114 150.568C301.521 231.764 256.376 345.44 275.724 417.164M1033.51 417.164C1147.44 452.349 1326.95 558.176 1133.47 700C1103.68 655.793 1022.09 564.672 934.01 553.846M1033.51 417.164C1033.51 438.423 977.379 505.826 934.01 553.846M275.724 417.164C155.339 452.801 -33.1927 559.259 175.761 700C195.567 655.342 263.74 563.589 377.988 553.846M275.724 417.164C301.976 453.993 348.116 517.18 377.988 553.846M377.988 553.846C390.925 569.724 400.81 580.629 404.708 582.264H907.746C915.367 574.228 924.373 564.515 934.01 553.846" stroke="black"/>
<path opacity="0.265823" d="M1027.44 416.199C1027.44 384.183 1036.96 241.448 948.103 153.405C859.244 65.3629 773.558 4 652.963 4C532.368 4 408.599 73.3668 357.822 153.405C307.045 233.444 262.616 345.498 281.657 416.199M1027.44 416.199C1139.58 450.882 1316.24 555.199 1125.83 695C1096.51 651.423 1016.21 561.602 929.521 550.931M1027.44 416.199C1027.44 437.155 972.204 503.596 929.521 550.931M281.657 416.199C163.178 451.327 -22.3691 556.266 183.277 695C202.769 650.979 269.863 560.535 382.302 550.931M281.657 416.199C307.493 452.502 352.903 514.788 382.302 550.931M382.302 550.931C395.034 566.583 404.763 577.332 408.599 578.944H903.673C911.174 571.022 920.038 561.448 929.521 550.931" stroke="black"/>
<path opacity="0.278481" d="M1021.38 415.234C1021.38 383.681 1030.75 243.012 943.316 156.243C855.886 69.4749 771.578 9 652.923 9C534.268 9 412.49 77.3629 362.53 156.243C312.57 235.124 268.855 345.556 287.59 415.234M1021.38 415.234C1131.71 449.415 1305.53 552.222 1118.18 690C1089.34 647.054 1010.32 558.533 925.033 548.015M1021.38 415.234C1021.38 435.886 967.029 501.366 925.033 548.015M287.59 415.234C171.017 449.853 -11.5455 553.274 190.793 690C209.971 646.616 275.986 557.481 386.616 548.015M287.59 415.234C313.011 451.012 357.69 512.396 386.616 548.015M386.616 548.015C399.143 563.441 408.716 574.034 412.49 575.624H899.601C906.981 567.816 915.702 558.381 925.033 548.015" stroke="black"/>
<path opacity="0.291139" d="M1015.32 414.268C1015.32 383.18 1024.53 244.575 938.529 159.081C852.528 73.5869 769.599 14 652.884 14C536.168 14 416.381 81.3591 367.238 159.081C318.095 236.803 275.095 345.614 293.523 414.268M1015.32 414.268C1123.84 447.948 1294.82 549.246 1110.53 685C1082.16 642.685 1004.44 555.463 920.545 545.1M1015.32 414.268C1015.32 434.618 961.854 499.136 920.545 545.1M293.523 414.268C178.856 448.38 -0.721829 550.282 198.308 685C217.173 642.253 282.109 554.427 390.931 545.1M293.523 414.268C318.528 449.521 362.477 510.004 390.931 545.1M390.931 545.1C403.253 560.299 412.669 570.737 416.381 572.303H895.528C902.787 564.61 911.366 555.313 920.545 545.1" stroke="black"/>
<path opacity="0.303797" d="M1009.25 413.303C1009.25 382.678 1018.31 246.139 933.742 161.919C849.17 77.6988 767.619 19 652.844 19C538.068 19 420.273 85.3552 371.946 161.919C323.62 238.483 281.334 345.672 299.456 413.303M1009.25 413.303C1115.97 446.481 1284.11 546.269 1102.89 680C1074.99 638.315 998.558 552.394 916.056 542.185M1009.25 413.303C1009.25 433.349 956.679 496.906 916.056 542.185M299.456 413.303C186.695 446.906 10.1018 547.29 205.824 680C224.376 637.89 288.232 551.373 395.245 542.185M299.456 413.303C324.046 448.03 367.264 507.612 395.245 542.185M395.245 542.185C407.362 557.158 416.622 567.44 420.273 568.983H891.456C898.594 561.404 907.03 552.246 916.056 542.185" stroke="black"/>
<path opacity="0.316456" d="M1003.19 412.338C1003.19 382.176 1012.1 247.703 928.954 164.757C845.812 81.8108 765.64 24 652.804 24C539.969 24 424.164 89.3514 376.654 164.757C329.144 240.162 287.573 345.73 305.39 412.338M1003.19 412.338C1108.11 445.014 1273.4 543.292 1095.24 675C1067.81 633.946 992.676 549.324 911.568 539.27M1003.19 412.338C1003.19 432.081 951.504 494.676 911.568 539.27M305.39 412.338C194.534 445.432 20.9254 544.297 213.34 675C231.578 633.527 294.355 548.319 399.559 539.27M305.39 412.338C329.563 446.54 372.051 505.22 399.559 539.27M399.559 539.27C411.471 554.016 420.574 564.143 424.164 565.662H887.383C894.401 558.199 902.695 549.179 911.568 539.27" stroke="black"/>
<path opacity="0.329114" d="M997.125 411.373C997.125 381.674 1005.88 249.266 924.167 167.595C842.455 85.9228 763.66 29 652.765 29C541.869 29 428.055 93.3475 381.362 167.595C334.669 241.842 293.813 345.788 311.323 411.373M997.125 411.373C1100.24 443.546 1262.69 540.315 1087.6 670C1060.64 629.577 986.793 546.255 907.08 536.355M997.125 411.373C997.125 430.812 946.329 492.446 907.08 536.355M311.323 411.373C202.373 443.959 31.7491 541.305 220.855 670C238.78 629.164 300.477 545.265 403.873 536.355M311.323 411.373C335.081 445.049 376.838 502.828 403.873 536.355M403.873 536.355C415.581 550.875 424.527 560.846 428.055 562.342H883.311C890.208 554.993 898.359 546.112 907.08 536.355" stroke="black"/>
<path opacity="0.341772" d="M991.062 410.407C991.062 381.172 999.663 250.83 919.38 170.432C839.097 90.0347 761.681 34 652.725 34C543.769 34 431.946 97.3436 386.07 170.432C340.194 243.521 300.052 345.846 317.256 410.407M991.062 410.407C1092.37 442.079 1251.99 537.338 1079.95 665C1053.46 625.207 980.91 543.185 902.592 533.44M991.062 410.407C991.062 429.544 941.155 490.216 902.592 533.44M317.256 410.407C210.212 442.485 42.5727 538.313 228.371 665C245.982 624.801 306.6 542.211 408.187 533.44M317.256 410.407C340.598 443.558 381.626 500.436 408.187 533.44M408.187 533.44C419.69 547.733 428.48 557.549 431.946 559.021H879.238C886.015 551.787 894.023 543.044 902.592 533.44" stroke="black"/>
<path opacity="0.35443" d="M984.998 409.442C984.998 380.67 993.447 252.394 914.593 173.27C835.739 94.1467 759.701 39 652.685 39C545.669 39 435.837 101.34 390.778 173.27C345.719 245.201 306.292 345.903 323.189 409.442M984.998 409.442C1084.51 440.612 1241.28 534.361 1072.3 660C1046.29 620.838 975.027 540.116 898.103 530.525M984.998 409.442C984.998 428.275 935.98 487.986 898.103 530.525M323.189 409.442C218.051 441.012 53.3963 535.32 235.887 660C253.184 620.438 312.723 539.157 412.501 530.525M323.189 409.442C346.116 442.068 386.413 498.044 412.501 530.525M412.501 530.525C423.8 544.592 432.433 554.252 435.837 555.701H875.166C881.822 548.581 889.687 539.977 898.103 530.525" stroke="black"/>
<path opacity="0.367089" d="M978.935 408.477C978.935 380.168 987.23 253.958 909.806 176.108C832.381 98.2587 757.722 44 652.646 44C547.57 44 439.728 105.336 395.486 176.108C351.243 246.88 312.531 345.961 329.122 408.477M978.935 408.477C1076.64 439.145 1230.57 531.385 1064.66 655C1039.11 616.468 969.145 537.046 893.615 527.61M978.935 408.477C978.935 427.007 930.805 485.756 893.615 527.61M329.122 408.477C225.89 439.538 64.22 532.328 243.402 655C260.386 616.075 318.846 536.103 416.816 527.61M329.122 408.477C351.633 440.577 391.2 495.652 416.816 527.61M416.816 527.61C427.909 541.45 436.386 550.955 439.728 552.38H871.093C877.629 545.375 885.352 536.91 893.615 527.61" stroke="black"/>
<path opacity="0.379747" d="M972.871 407.512C972.871 379.666 981.014 255.521 905.018 178.946C829.023 102.371 755.742 49 652.606 49C549.47 49 443.62 109.332 400.194 178.946C356.768 248.56 318.771 346.019 335.055 407.512M972.871 407.512C1068.77 437.678 1219.86 528.408 1057.01 650C1031.94 612.099 963.262 533.977 889.127 524.695M972.871 407.512C972.871 425.738 925.63 483.526 889.127 524.695M335.055 407.512C233.728 438.064 75.0436 529.336 250.918 650C267.588 611.712 324.969 533.049 421.13 524.695M335.055 407.512C357.151 439.087 395.987 493.26 421.13 524.695M421.13 524.695C432.018 538.308 440.339 547.657 443.62 549.06H867.021C873.435 542.17 881.016 533.842 889.127 524.695" stroke="black"/>
<path opacity="0.392405" d="M966.808 406.546C966.808 379.164 974.797 257.085 900.231 181.784C825.666 106.483 753.763 54 652.567 54C551.37 54 447.511 113.328 404.902 181.784C362.293 250.239 325.01 346.077 340.988 406.546M966.808 406.546C1060.9 436.21 1209.15 525.431 1049.37 645C1024.77 607.73 957.38 530.907 884.639 521.78M966.808 406.546C966.808 424.47 920.455 481.296 884.639 521.78M340.988 406.546C241.567 436.591 85.8672 526.344 258.434 645C274.79 607.349 331.092 529.995 425.444 521.78M340.988 406.546C362.668 437.596 400.774 490.868 425.444 521.78M425.444 521.78C436.128 535.167 444.292 544.36 447.511 545.739H862.948C869.242 538.964 876.68 530.775 884.639 521.78" stroke="black"/>
<path opacity="0.405063" d="M960.744 405.581C960.744 378.662 968.58 258.649 895.444 184.622C822.308 110.595 751.783 59 652.527 59C553.27 59 451.402 117.324 409.61 184.622C367.818 251.919 331.249 346.135 346.921 405.581M960.744 405.581C1053.04 434.743 1198.44 522.454 1041.72 640C1017.59 603.36 951.497 527.838 880.15 518.865M960.744 405.581C960.744 423.201 915.28 479.066 880.15 518.865M346.921 405.581C249.406 435.117 96.6909 523.351 265.949 640C281.992 602.986 337.214 526.941 429.758 518.865M346.921 405.581C368.186 436.105 405.561 488.476 429.758 518.865M429.758 518.865C440.237 532.025 448.245 541.063 451.402 542.419H858.876C865.049 535.758 872.345 527.708 880.15 518.865" stroke="black"/>
<path opacity="0.417722" d="M954.681 404.616C954.681 378.16 962.364 260.212 890.657 187.459C818.95 114.707 749.804 64 652.487 64C555.171 64 455.293 121.32 414.318 187.459C373.342 253.598 337.489 346.193 352.855 404.616M954.681 404.616C1045.17 433.276 1187.73 519.477 1034.07 635C1010.42 598.991 945.614 524.768 875.662 515.95M954.681 404.616C954.681 421.933 910.105 476.836 875.662 515.95M352.855 404.616C257.245 433.644 107.514 520.359 273.465 635C289.194 598.624 343.337 523.886 434.072 515.95M352.855 404.616C373.704 434.615 410.348 486.084 434.072 515.95M434.072 515.95C444.346 528.884 452.197 537.766 455.293 539.098H854.803C860.856 532.552 868.009 524.641 875.662 515.95" stroke="black"/>
<path opacity="0.43038" d="M948.618 403.651C948.618 377.658 956.147 261.776 885.87 190.297C815.592 118.819 747.824 69 652.448 69C557.071 69 459.184 125.317 419.026 190.297C378.867 255.278 343.728 346.251 358.788 403.651M948.618 403.651C1037.3 431.809 1177.02 516.5 1026.43 630C1003.24 594.622 939.731 521.699 871.174 513.035M948.618 403.651C948.618 420.664 904.931 474.606 871.174 513.035M358.788 403.651C265.084 432.17 118.338 517.367 280.981 630C296.397 594.261 349.46 520.832 438.386 513.035M358.788 403.651C379.221 433.124 415.135 483.692 438.386 513.035M438.386 513.035C448.456 525.742 456.15 534.469 459.184 535.778H850.731C856.663 529.346 863.673 521.573 871.174 513.035" stroke="black"/>
<path opacity="0.443038" d="M942.554 402.685C942.554 377.156 949.931 263.34 881.083 193.135C812.234 122.93 745.845 74 652.408 74C558.971 74 463.075 129.313 423.734 193.135C384.392 256.958 349.968 346.309 364.721 402.685M942.554 402.685C1029.44 430.342 1166.31 513.524 1018.78 625C996.068 590.252 933.849 518.629 866.685 510.12M942.554 402.685C942.554 419.396 899.756 472.376 866.685 510.12M364.721 402.685C272.923 430.696 129.162 514.374 288.496 625C303.599 589.898 355.583 517.778 442.701 510.12M364.721 402.685C384.739 431.633 419.922 481.3 442.701 510.12M442.701 510.12C452.565 522.601 460.103 531.172 463.075 532.458H846.658C852.47 526.14 859.337 518.506 866.685 510.12" stroke="black"/>
<path opacity="0.455696" d="M936.491 401.72C936.491 376.654 943.714 264.903 876.295 195.973C808.877 127.042 743.866 79 652.368 79C560.871 79 466.967 133.309 428.442 195.973C389.917 258.637 356.207 346.367 370.654 401.72M936.491 401.72C1021.57 428.875 1155.61 510.547 1011.14 620C988.894 585.883 927.966 515.56 862.197 507.205M936.491 401.72C936.491 418.127 894.581 470.146 862.197 507.205M370.654 401.72C280.762 429.223 139.985 511.382 296.012 620C310.801 585.535 361.706 514.724 447.015 507.205M370.654 401.72C390.256 430.143 424.709 478.908 447.015 507.205M447.015 507.205C456.675 519.459 464.056 527.875 466.967 529.137H842.586C848.277 522.935 855.002 515.439 862.197 507.205" stroke="black"/>
<path opacity="0.468354" d="M930.427 400.755C930.427 376.153 937.498 266.467 871.508 198.811C805.519 131.154 741.886 84 652.329 84C562.772 84 470.858 137.305 433.15 198.811C395.441 260.317 362.447 346.425 376.587 400.755M930.427 400.755C1013.7 427.407 1144.9 507.57 1003.49 615C981.719 581.514 922.083 512.49 857.709 504.29M930.427 400.755C930.427 416.859 889.406 467.916 857.709 504.29M376.587 400.755C288.601 427.749 150.809 508.39 303.528 615C318.003 581.172 367.829 511.67 451.329 504.29M376.587 400.755C395.774 428.652 429.496 476.516 451.329 504.29M451.329 504.29C460.784 516.317 468.009 524.577 470.858 525.817H838.513C844.083 519.729 850.666 512.372 857.709 504.29" stroke="black"/>
<path opacity="0.481013" d="M924.364 399.79C924.364 375.651 931.281 268.031 866.721 201.649C802.161 135.266 739.907 89 652.289 89C564.672 89 474.749 141.301 437.857 201.649C400.966 261.996 368.686 346.483 382.52 399.79M924.364 399.79C1005.83 425.94 1134.19 504.593 995.844 610C974.545 577.144 916.201 509.421 853.221 501.375M924.364 399.79C924.364 415.59 884.231 465.685 853.221 501.375M382.52 399.79C296.44 426.275 161.633 505.398 311.043 610C325.205 576.809 373.951 508.616 455.643 501.375M382.52 399.79C401.291 427.162 434.283 474.124 455.643 501.375M455.643 501.375C464.893 513.176 471.962 521.28 474.749 522.496H834.441C839.89 516.523 846.33 509.304 853.221 501.375" stroke="black"/>
<path opacity="0.493671" d="M918.301 398.824C918.301 375.149 925.065 269.595 861.934 204.486C798.803 139.378 737.927 94 652.25 94C566.572 94 478.64 145.297 442.565 204.486C406.491 263.676 374.925 346.541 388.453 398.824M918.301 398.824C997.967 424.473 1123.48 501.616 988.198 605C967.37 572.775 910.318 506.351 848.732 498.459M918.301 398.824C918.301 414.322 879.056 463.455 848.732 498.459M388.453 398.824C304.279 424.802 172.456 502.405 318.559 605C332.407 572.446 380.074 505.562 459.957 498.459M388.453 398.824C406.809 425.671 439.071 471.732 459.957 498.459M459.957 498.459C469.003 510.034 475.915 517.983 478.64 519.176H830.369C835.697 513.317 841.995 506.237 848.732 498.459" stroke="black"/>
<path opacity="0.506329" d="M912.237 397.859C912.237 374.647 918.848 271.158 857.147 207.324C795.445 143.49 735.948 99 652.21 99C568.473 99 482.531 149.293 447.273 207.324C412.015 265.355 381.165 346.598 394.387 397.859M912.237 397.859C990.099 423.006 1112.77 498.639 980.552 600C960.196 568.405 904.435 503.282 844.244 495.544M912.237 397.859C912.237 413.053 873.881 461.225 844.244 495.544M394.387 397.859C312.118 423.328 183.28 499.413 326.074 600C339.609 568.083 386.197 502.508 464.272 495.544M394.387 397.859C412.326 424.18 443.858 469.34 464.272 495.544M464.272 495.544C473.112 506.893 479.868 514.686 482.531 515.855H826.296C831.504 510.111 837.659 503.17 844.244 495.544" stroke="black"/>
<path opacity="0.518987" d="M906.174 396.894C906.174 374.145 912.631 272.722 852.36 210.162C792.088 147.602 733.968 104 652.17 104C570.373 104 486.422 153.29 451.981 210.162C417.54 267.035 387.404 346.656 400.32 396.894M906.174 396.894C982.232 421.539 1102.06 495.663 972.906 595C953.021 564.036 898.553 500.212 839.756 492.629M906.174 396.894C906.174 411.784 868.707 458.995 839.756 492.629M400.32 396.894C319.957 421.855 194.104 496.421 333.59 595C346.811 563.72 392.32 499.454 468.586 492.629M400.32 396.894C417.844 422.69 448.645 466.948 468.586 492.629M468.586 492.629C477.221 503.751 483.82 511.389 486.422 512.535H822.224C827.311 506.906 833.323 500.103 839.756 492.629" stroke="black"/>
<path opacity="0.531646" d="M900.11 395.929C900.11 373.643 906.415 274.286 847.572 213C788.73 151.714 731.989 109 652.131 109C572.273 109 490.314 157.286 456.689 213C423.065 268.714 393.644 346.714 406.253 395.929M900.11 395.929C974.365 420.071 1091.35 492.686 965.26 590C945.847 559.667 892.67 497.143 835.267 489.714M900.11 395.929C900.11 410.516 863.532 456.765 835.267 489.714M406.253 395.929C327.796 420.381 204.927 493.429 341.106 590C354.013 559.357 398.443 496.4 472.9 489.714M406.253 395.929C423.361 421.199 453.432 464.556 472.9 489.714M472.9 489.714C481.331 500.61 487.773 508.092 490.314 509.214H818.151C823.118 503.7 828.987 497.035 835.267 489.714" stroke="black"/>
<path opacity="0.544304" d="M894.047 394.963C894.047 373.141 900.198 275.849 842.785 215.838C785.372 155.826 730.009 114 652.091 114C574.173 114 494.205 161.282 461.397 215.838C428.59 270.394 399.883 346.772 412.186 394.963M894.047 394.963C966.498 418.604 1080.64 489.709 957.614 585C938.673 555.297 886.787 494.073 830.779 486.799M894.047 394.963C894.047 409.247 858.357 454.535 830.779 486.799M412.186 394.963C335.635 418.907 215.751 490.436 348.621 585C361.215 554.994 404.566 493.346 477.214 486.799M412.186 394.963C428.879 419.708 458.219 462.164 477.214 486.799M477.214 486.799C485.44 497.468 491.726 504.795 494.205 505.894H814.079C818.925 500.494 824.652 493.968 830.779 486.799" stroke="black"/>
<path opacity="0.556962" d="M887.984 393.998C887.984 372.639 893.982 277.413 837.998 218.676C782.014 159.938 728.03 119 652.052 119C576.073 119 498.096 165.278 466.105 218.676C434.114 272.073 406.123 346.83 418.119 393.998M887.984 393.998C958.631 417.137 1069.93 486.732 949.968 580C931.498 550.928 880.905 491.004 826.291 483.884M887.984 393.998C887.984 407.979 853.182 452.305 826.291 483.884M418.119 393.998C343.474 417.434 226.574 487.444 356.137 580C368.418 550.631 410.689 490.292 481.528 483.884M418.119 393.998C434.396 418.218 463.006 459.772 481.528 483.884M481.528 483.884C489.55 494.326 495.679 501.498 498.096 502.573H810.006C814.731 497.288 820.316 490.901 826.291 483.884" stroke="black"/>
<path opacity="0.56962" d="M881.92 393.033C881.92 372.137 887.765 278.977 833.211 221.514C778.656 164.05 726.05 124 652.012 124C577.974 124 501.987 169.274 470.813 221.514C439.639 273.753 412.362 346.888 424.052 393.033M881.92 393.033C950.764 415.67 1059.22 483.755 942.322 575C924.324 546.559 875.022 487.934 821.803 480.969M881.92 393.033C881.92 406.71 848.007 450.075 821.803 480.969M424.052 393.033C351.313 415.96 237.398 484.452 363.653 575C375.62 546.268 416.811 487.238 485.842 480.969M424.052 393.033C439.914 416.727 467.793 457.38 485.842 480.969M485.842 480.969C493.659 491.185 499.632 498.2 501.987 499.253H805.934C810.538 494.082 815.98 487.834 821.803 480.969" stroke="black"/>
<path opacity="0.582278" d="M875.857 392.068C875.857 371.635 881.549 280.541 828.424 224.351C775.298 168.162 724.071 129 651.972 129C579.874 129 505.878 173.27 475.521 224.351C445.164 275.432 418.601 346.946 429.985 392.068M875.857 392.068C942.896 414.203 1048.52 480.778 934.676 570C917.149 542.189 869.139 484.865 817.314 478.054M875.857 392.068C875.857 405.442 842.832 447.845 817.314 478.054M429.985 392.068C359.152 414.486 248.222 481.459 371.168 570C382.822 541.905 422.934 484.184 490.157 478.054M429.985 392.068C445.432 415.237 472.58 454.988 490.157 478.054M490.157 478.054C497.768 488.043 503.585 494.903 505.878 495.932H801.861C806.345 490.876 811.644 484.766 817.314 478.054" stroke="black"/>
<path opacity="0.594937" d="M869.793 391.102C869.793 371.133 875.332 282.104 823.636 227.189C771.941 172.274 722.091 134 651.933 134C581.774 134 509.769 177.266 480.229 227.189C450.689 277.112 424.841 347.004 435.918 391.102M869.793 391.102C935.029 412.736 1037.81 477.802 927.03 565C909.975 537.82 863.257 481.795 812.826 475.139M869.793 391.102C869.793 404.173 837.657 445.615 812.826 475.139M435.918 391.102C366.991 413.013 259.045 478.467 378.684 565C390.024 537.542 429.057 481.13 494.471 475.139M435.918 391.102C450.949 413.746 477.367 452.596 494.471 475.139M494.471 475.139C501.878 484.902 507.538 491.606 509.769 492.612H797.789C802.152 487.671 807.309 481.699 812.826 475.139" stroke="black"/>
<path opacity="0.607595" d="M863.73 390.137C863.73 370.631 869.116 283.668 818.849 230.027C768.583 176.386 720.112 139 651.893 139C583.674 139 513.661 181.263 484.937 230.027C456.213 278.792 431.08 347.062 441.852 390.137M863.73 390.137C927.162 411.268 1027.1 474.825 919.384 560C902.801 533.45 857.374 478.726 808.338 472.224M863.73 390.137C863.73 402.905 832.483 443.385 808.338 472.224M441.852 390.137C374.83 411.539 269.869 475.475 386.2 560C397.226 533.18 435.18 478.076 498.785 472.224M441.852 390.137C456.467 412.255 482.154 450.204 498.785 472.224M498.785 472.224C505.987 481.76 511.491 488.309 513.661 489.292H793.716C797.959 484.465 802.973 478.632 808.338 472.224" stroke="black"/>
<path opacity="0.620253" d="M857.666 389.172C857.666 370.129 862.899 285.232 814.062 232.865C765.225 180.498 718.132 144 651.854 144C585.575 144 517.552 185.259 489.645 232.865C461.738 280.471 437.32 347.12 447.785 389.172M857.666 389.172C919.295 409.801 1016.39 471.848 911.738 555C895.626 529.081 851.491 475.656 803.849 469.309M857.666 389.172C857.666 401.636 827.308 441.155 803.849 469.309M447.785 389.172C382.669 410.066 280.693 472.483 393.715 555C404.428 528.817 441.303 475.022 503.099 469.309M447.785 389.172C461.984 410.765 486.941 447.812 503.099 469.309M503.099 469.309C510.096 478.619 515.443 485.012 517.552 485.971H789.644C793.766 481.259 798.637 475.564 803.849 469.309" stroke="black"/>
<path opacity="0.632911" d="M851.603 388.207C851.603 369.627 856.682 286.795 809.275 235.703C761.867 184.61 716.153 149 651.814 149C587.475 149 521.443 189.255 494.353 235.703C467.263 282.151 443.559 347.178 453.718 388.207M851.603 388.207C911.428 408.334 1005.68 468.871 904.092 550C888.452 524.712 845.609 472.587 799.361 466.394M851.603 388.207C851.603 400.368 822.133 438.925 799.361 466.394M453.718 388.207C390.508 408.592 291.516 469.49 401.231 550C411.63 524.454 447.426 471.968 507.413 466.394M453.718 388.207C467.502 409.274 491.728 445.42 507.413 466.394M507.413 466.394C514.206 475.477 519.396 481.715 521.443 482.651H785.571C789.573 478.053 794.302 472.497 799.361 466.394" stroke="black"/>
<path opacity="0.64557" d="M845.54 387.241C845.54 369.125 850.466 288.359 804.488 238.541C758.509 188.722 714.173 154 651.774 154C589.375 154 525.334 193.251 499.061 238.541C472.788 283.83 449.798 347.236 459.651 387.241M845.54 387.241C903.561 406.867 994.971 465.894 896.446 545C881.277 520.342 839.726 469.517 794.873 463.479M845.54 387.241C845.54 399.099 816.958 436.695 794.873 463.479M459.651 387.241C398.347 407.118 302.34 466.498 408.747 545C418.832 520.091 453.548 468.914 511.727 463.479M459.651 387.241C473.019 407.783 496.515 443.028 511.727 463.479M511.727 463.479C518.315 472.335 523.349 478.418 525.334 479.33H781.499C785.379 474.847 789.966 469.43 794.873 463.479" stroke="black"/>
<path opacity="0.658228" d="M839.476 386.276C839.476 368.624 844.249 289.923 799.701 241.378C755.152 192.834 712.194 159 651.735 159C591.276 159 529.225 197.247 503.769 241.378C478.312 285.51 456.038 347.293 465.584 386.276M839.476 386.276C895.693 405.4 984.262 462.917 888.8 540C874.103 515.973 833.843 466.448 790.385 460.564M839.476 386.276C839.476 397.831 811.783 434.465 790.385 460.564M465.584 386.276C406.186 405.645 313.163 463.506 416.262 540C426.034 515.728 459.671 465.859 516.042 460.564M465.584 386.276C478.537 406.293 501.303 440.636 516.042 460.564M516.042 460.564C522.425 469.194 527.302 475.121 529.225 476.01H777.426C781.186 471.642 785.63 466.363 790.385 460.564" stroke="black"/>
<path opacity="0.670886" d="M833.413 385.311C833.413 368.122 838.033 291.486 794.913 244.216C751.794 196.946 710.214 164 651.695 164C593.176 164 533.116 201.243 508.477 244.216C483.837 287.189 462.277 347.351 471.517 385.311M833.413 385.311C887.826 403.932 973.553 459.941 881.154 535C866.928 511.604 827.961 463.378 785.896 457.649M833.413 385.311C833.413 396.562 806.608 432.235 785.896 457.649M471.517 385.311C414.025 404.171 323.987 460.514 423.778 535C433.237 511.365 465.794 462.805 520.356 457.649M471.517 385.311C484.054 404.802 506.09 438.244 520.356 457.649M520.356 457.649C526.534 466.052 531.255 471.823 533.116 472.689H773.354C776.993 468.436 781.294 463.295 785.896 457.649" stroke="black"/>
<path opacity="0.683544" d="M827.349 384.346C827.349 367.62 831.816 293.05 790.126 247.054C748.436 201.058 708.235 169 651.655 169C595.076 169 537.008 205.239 513.185 247.054C489.362 288.869 468.517 347.409 477.45 384.346M827.349 384.346C879.959 402.465 962.844 456.964 873.508 530C859.754 507.234 822.078 460.309 781.408 454.734M827.349 384.346C827.349 395.294 801.433 430.005 781.408 454.734M477.45 384.346C421.864 402.698 334.811 457.521 431.294 530C440.439 507.002 471.917 459.751 524.67 454.734M477.45 384.346C489.572 403.312 510.877 435.852 524.67 454.734M524.67 454.734C530.643 462.911 535.208 468.526 537.008 469.369H769.281C772.8 465.23 776.959 460.228 781.408 454.734" stroke="black"/>
<path opacity="0.696203" d="M821.286 383.38C821.286 367.118 825.6 294.614 785.339 249.892C745.078 205.17 706.255 174 651.616 174C596.976 174 540.899 209.236 517.893 249.892C494.887 290.548 474.756 347.467 483.383 383.38M821.286 383.38C872.092 400.998 952.135 453.987 865.862 525C852.58 502.865 816.195 457.239 776.92 451.819M821.286 383.38C821.286 394.025 796.259 427.775 776.92 451.819M483.383 383.38C429.703 401.224 345.634 454.529 438.809 525C447.641 502.639 478.04 456.697 528.984 451.819M483.383 383.38C495.089 401.821 515.664 433.46 528.984 451.819M528.984 451.819C534.753 459.769 539.161 465.229 540.899 466.048H765.209C768.607 462.024 772.623 457.161 776.92 451.819" stroke="black"/>
<path opacity="0.708861" d="M815.223 382.415C815.223 366.616 819.383 296.178 780.552 252.73C741.72 209.282 704.276 179 651.576 179C598.877 179 544.79 213.232 522.601 252.73C500.411 292.228 480.996 347.525 489.317 382.415M815.223 382.415C864.225 399.531 941.426 451.01 858.216 520C845.405 498.496 810.313 454.17 772.432 448.903M815.223 382.415C815.223 392.757 791.084 425.545 772.432 448.903M489.317 382.415C437.542 399.75 356.458 451.537 446.325 520C454.843 498.276 484.163 453.643 533.298 448.903M489.317 382.415C500.607 400.33 520.451 431.068 533.298 448.903M533.298 448.903C538.862 456.628 543.114 461.932 544.79 462.728H761.136C764.414 458.818 768.287 454.094 772.432 448.903" stroke="black"/>
<path opacity="0.721519" d="M809.159 381.45C809.159 366.114 813.167 297.741 775.765 255.568C738.363 213.394 702.296 184 651.537 184C600.777 184 548.681 217.228 527.309 255.568C505.936 293.907 487.235 347.583 495.25 381.45M809.159 381.45C856.358 398.064 930.717 448.033 850.57 515C838.231 494.126 804.43 451.1 767.943 445.988M809.159 381.45C809.159 391.488 785.909 423.315 767.943 445.988M495.25 381.45C445.38 398.277 367.282 448.544 453.841 515C462.045 493.913 490.286 450.589 537.612 445.988M495.25 381.45C506.124 398.84 525.238 428.676 537.612 445.988M537.612 445.988C542.971 453.486 547.066 458.635 548.681 459.407H757.064C760.221 455.612 763.951 451.026 767.943 445.988" stroke="black"/>
<path opacity="0.734177" d="M803.096 380.485C803.096 365.612 806.95 299.305 770.977 258.405C735.005 217.506 700.317 189 651.497 189C602.677 189 552.572 221.224 532.017 258.405C511.461 295.587 493.474 347.641 501.183 380.485M803.096 380.485C848.49 396.597 920.008 445.056 842.924 510C831.056 489.757 798.547 448.031 763.455 443.073M803.096 380.485C803.096 390.22 780.734 421.085 763.455 443.073M501.183 380.485C453.219 396.803 378.105 445.552 461.356 510C469.247 489.55 496.408 447.535 541.927 443.073M501.183 380.485C511.642 397.349 530.025 426.284 541.927 443.073M541.927 443.073C547.081 450.344 551.019 455.338 552.572 456.087H752.991C756.027 452.407 759.616 447.959 763.455 443.073" stroke="black"/>
<path opacity="0.746835" d="M797.032 379.519C797.032 365.11 800.733 300.869 766.19 261.243C731.647 221.618 698.337 194 651.457 194C604.577 194 556.463 225.22 536.724 261.243C516.986 297.266 499.714 347.699 507.116 379.519M797.032 379.519C840.623 395.129 909.299 442.08 835.278 505C823.882 485.387 792.665 444.961 758.967 440.158M797.032 379.519C797.032 388.951 775.559 418.854 758.967 440.158M507.116 379.519C461.058 395.329 388.929 442.56 468.872 505C476.449 485.187 502.531 444.481 546.241 440.158M507.116 379.519C517.16 395.858 534.812 423.892 546.241 440.158M546.241 440.158C551.19 447.203 554.972 452.041 556.463 452.766H748.919C751.834 449.201 755.28 444.892 758.967 440.158" stroke="black"/>
<path opacity="0.759494" d="M790.969 378.554C790.969 364.608 794.517 302.432 761.403 264.081C728.289 225.73 696.358 199 651.418 199C606.478 199 560.355 229.216 541.432 264.081C522.51 298.946 505.953 347.757 513.049 378.554M790.969 378.554C832.756 393.662 898.591 439.103 827.632 500C816.707 481.018 786.782 441.892 754.478 437.243M790.969 378.554C790.969 387.683 770.384 416.624 754.478 437.243M513.049 378.554C468.897 393.856 399.753 439.568 476.387 500C483.651 480.824 508.654 441.427 550.555 437.243M513.049 378.554C522.677 394.368 539.599 421.5 550.555 437.243M550.555 437.243C555.3 444.061 558.925 448.744 560.355 449.446H744.846C747.641 445.995 750.944 441.825 754.478 437.243" stroke="black"/>
<path opacity="0.772152" d="M784.906 377.589C784.906 364.106 788.3 303.996 756.616 266.919C724.931 229.842 694.378 204 651.378 204C608.378 204 564.246 233.212 546.14 266.919C528.035 300.625 512.193 347.815 518.982 377.589M784.906 377.589C824.889 392.195 887.882 436.126 819.986 495C809.533 476.649 780.899 438.822 749.99 434.328M784.906 377.589C784.906 386.414 765.209 414.394 749.99 434.328M518.982 377.589C476.736 392.382 410.576 436.575 483.903 495C490.853 476.461 514.777 438.373 554.869 434.328M518.982 377.589C528.195 392.877 544.386 419.108 554.869 434.328M554.869 434.328C559.409 440.92 562.878 445.446 564.246 446.125H740.774C743.448 442.789 746.609 438.757 749.99 434.328" stroke="black"/>
<path opacity="0.78481" d="M778.842 376.624C778.842 363.604 782.084 305.56 751.829 269.757C721.574 233.954 692.399 209 651.339 209C610.278 209 568.137 237.208 550.848 269.757C533.56 302.305 518.432 347.873 524.915 376.624M778.842 376.624C817.022 390.728 877.173 433.149 812.34 490C802.359 472.279 775.017 435.753 745.502 431.413M778.842 376.624C778.842 385.145 760.035 412.164 745.502 431.413M524.915 376.624C484.575 390.909 421.4 433.583 491.419 490C498.055 472.098 520.9 435.319 559.183 431.413M524.915 376.624C533.712 391.387 549.173 416.716 559.183 431.413M559.183 431.413C563.518 437.778 566.831 442.149 568.137 442.805H736.701C739.255 439.583 742.273 435.69 745.502 431.413" stroke="black"/>
<path opacity="0.797468" d="M772.779 375.658C772.779 363.102 775.867 307.124 747.042 272.595C718.216 238.066 690.42 214 651.299 214C612.178 214 572.028 241.205 555.556 272.595C539.084 303.985 524.672 347.93 530.849 375.658M772.779 375.658C809.155 389.261 866.464 430.172 804.694 485C795.184 467.91 769.134 432.683 741.014 428.498M772.779 375.658C772.779 383.877 754.86 409.934 741.014 428.498M530.849 375.658C492.414 389.435 432.223 430.591 498.934 485C505.258 467.736 527.023 432.265 563.498 428.498M530.849 375.658C539.23 389.896 553.96 414.323 563.498 428.498M563.498 428.498C567.628 434.637 570.784 438.852 572.028 439.485H732.629C735.062 436.378 737.937 432.623 741.014 428.498" stroke="black"/>
<path opacity="0.810127" d="M766.715 374.693C766.715 362.6 769.651 308.687 742.254 275.432C714.858 242.178 688.44 219 651.259 219C614.079 219 575.919 245.201 560.264 275.432C544.609 305.664 530.911 347.988 536.782 374.693M766.715 374.693C801.287 387.793 855.755 427.195 797.048 480C788.01 463.541 763.251 429.614 736.525 425.583M766.715 374.693C766.715 382.608 749.685 407.704 736.525 425.583M536.782 374.693C500.253 387.961 443.047 427.598 506.45 480C512.46 463.373 533.145 429.211 567.812 425.583M536.782 374.693C544.747 388.405 558.748 411.931 567.812 425.583M567.812 425.583C571.737 431.495 574.737 435.555 575.919 436.164H728.556C730.869 433.172 733.601 429.556 736.525 425.583" stroke="black"/>
<path opacity="0.822785" d="M760.652 373.728C760.652 362.098 763.434 310.251 737.467 278.27C711.5 246.29 686.461 224 651.22 224C615.979 224 579.81 249.197 564.972 278.27C550.134 307.344 537.15 348.046 542.715 373.728M760.652 373.728C793.42 386.326 845.046 424.219 789.402 475C780.835 459.171 757.369 426.544 732.037 422.668M760.652 373.728C760.652 381.34 744.51 405.474 732.037 422.668M542.715 373.728C508.092 386.488 453.871 424.606 513.966 475C519.662 459.01 539.268 426.157 572.126 422.668M542.715 373.728C550.265 386.915 563.535 409.539 572.126 422.668M572.126 422.668C575.846 428.353 578.689 432.258 579.81 432.844H724.484C726.675 429.966 729.266 426.488 732.037 422.668" stroke="black"/>
<path opacity="0.835443" d="M754.589 372.763C754.589 361.597 757.218 311.815 732.68 281.108C708.142 250.402 684.481 229 651.18 229C617.879 229 583.702 253.193 569.68 281.108C555.659 309.023 543.39 348.104 548.648 372.763M754.589 372.763C785.553 384.859 834.337 421.242 781.756 470C773.661 454.802 751.486 423.475 727.549 419.753M754.589 372.763C754.589 380.071 739.335 403.244 727.549 419.753M548.648 372.763C515.931 385.014 464.694 421.614 521.481 470C526.864 454.647 545.391 423.103 576.44 419.753M548.648 372.763C555.782 385.424 568.322 407.147 576.44 419.753M576.44 419.753C579.956 425.212 582.642 428.961 583.702 429.523H720.411C722.482 426.76 724.93 423.421 727.549 419.753" stroke="black"/>
<path opacity="0.848101" d="M748.525 371.797C748.525 361.095 751.001 313.378 727.893 283.946C704.785 254.514 682.502 234 651.14 234C619.779 234 587.593 257.189 574.388 283.946C561.183 310.703 549.629 348.162 554.581 371.797M748.525 371.797C777.686 383.392 823.628 418.265 774.11 465C766.486 450.432 745.603 420.405 723.06 416.838M748.525 371.797C748.525 378.803 734.16 401.014 723.06 416.838M554.581 371.797C523.77 383.541 475.518 418.622 528.997 465C534.066 450.284 551.514 420.049 580.754 416.838M554.581 371.797C561.3 383.933 573.109 404.755 580.754 416.838M580.754 416.838C584.065 422.07 586.595 425.664 587.593 426.203H716.339C718.289 423.554 720.594 420.354 723.06 416.838" stroke="black"/>
<path opacity="0.860759" d="M742.462 370.832C742.462 360.593 744.784 314.942 723.106 286.784C701.427 258.625 680.522 239 651.101 239C621.68 239 591.484 261.185 579.096 286.784C566.708 312.382 555.869 348.22 560.514 370.832M742.462 370.832C769.819 381.925 812.919 415.288 766.464 460C759.312 446.063 739.721 417.336 718.572 413.923M742.462 370.832C742.462 377.534 728.985 398.784 718.572 413.923M560.514 370.832C531.609 382.067 486.342 415.629 536.513 460C541.268 445.921 557.637 416.995 585.068 413.923M560.514 370.832C566.817 382.443 577.896 402.363 585.068 413.923M585.068 413.923C588.175 418.929 590.548 422.367 591.484 422.882H712.266C714.096 420.349 716.258 417.287 718.572 413.923" stroke="black"/>
<path opacity="0.873418" d="M736.398 369.867C736.398 360.091 738.568 316.506 718.318 289.622C698.069 262.737 678.543 244 651.061 244C623.58 244 595.375 265.181 583.804 289.622C572.233 314.062 562.108 348.278 566.447 369.867M736.398 369.867C761.952 380.458 802.21 412.311 758.818 455C752.138 441.694 733.838 414.266 714.084 411.008M736.398 369.867C736.398 376.266 723.81 396.554 714.084 411.008M566.447 369.867C539.448 380.593 497.165 412.637 544.028 455C548.47 441.558 563.76 413.941 589.383 411.008M566.447 369.867C572.335 380.952 582.683 399.971 589.383 411.008M589.383 411.008C592.284 415.787 594.501 419.069 595.375 419.562H708.194C709.903 417.143 711.923 414.219 714.084 411.008" stroke="black"/>
<path opacity="0.886076" d="M730.335 368.902C730.335 359.589 732.351 318.069 713.531 292.459C694.711 266.849 676.563 249 651.022 249C625.48 249 599.266 269.178 588.512 292.459C577.758 315.741 568.348 348.336 572.38 368.902M730.335 368.902C754.084 378.99 791.501 409.334 751.172 450C744.963 437.324 727.955 411.197 709.596 408.093M730.335 368.902C730.335 374.997 718.636 394.324 709.596 408.093M572.38 368.902C547.287 379.12 507.989 409.645 551.544 450C555.672 437.195 569.883 410.886 593.697 408.093M572.38 368.902C577.852 379.462 587.47 397.579 593.697 408.093M593.697 408.093C596.393 412.646 598.454 415.772 599.266 416.241H704.121C705.71 413.937 707.587 411.152 709.596 408.093" stroke="black"/>
<path opacity="0.898734" d="M724.271 367.936C724.271 359.087 726.135 319.633 708.744 295.297C691.353 270.961 674.584 254 650.982 254C627.38 254 603.157 273.174 593.22 295.297C583.282 317.421 574.587 348.394 578.314 367.936M724.271 367.936C746.217 377.523 780.792 406.358 743.526 445C737.789 432.955 722.073 408.127 705.107 405.178M724.271 367.936C724.271 373.729 713.461 392.094 705.107 405.178M578.314 367.936C555.126 377.646 518.812 406.653 559.06 445C562.874 432.832 576.005 407.832 598.011 405.178M578.314 367.936C583.37 377.971 592.257 395.187 598.011 405.178M598.011 405.178C600.503 409.504 602.407 412.475 603.157 412.921H700.049C701.517 410.731 703.251 408.085 705.107 405.178" stroke="black"/>
<path opacity="0.911392" d="M718.208 366.971C718.208 358.585 719.918 321.197 703.957 298.135C687.996 275.073 672.604 259 650.942 259C629.281 259 607.049 277.17 597.928 298.135C588.807 319.1 580.826 348.452 584.247 366.971M718.208 366.971C738.35 376.056 770.083 403.381 735.88 440C730.614 428.586 716.19 405.058 700.619 402.263M718.208 366.971C718.208 372.46 708.286 389.864 700.619 402.263M584.247 366.971C562.965 376.172 529.636 403.66 566.575 440C570.077 428.469 582.128 404.778 602.325 402.263M584.247 366.971C588.887 376.48 597.044 392.795 602.325 402.263M602.325 402.263C604.612 406.362 606.36 409.178 607.049 409.6H695.976C697.323 407.525 698.916 405.017 700.619 402.263" stroke="black"/>
<path opacity="0.924051" d="M712.145 366.006C712.145 358.083 713.702 322.761 699.17 300.973C684.638 279.185 670.625 264 650.903 264C631.181 264 610.94 281.166 602.636 300.973C594.332 320.78 587.066 348.51 590.18 366.006M712.145 366.006C730.483 374.589 759.374 400.404 728.234 435C723.44 424.216 710.307 401.988 696.131 399.347M712.145 366.006C712.145 371.192 703.111 387.634 696.131 399.347M590.18 366.006C570.804 374.699 540.46 400.668 574.091 435C577.279 424.106 588.251 401.724 606.639 399.347M590.18 366.006C594.405 374.99 601.831 390.403 606.639 399.347M606.639 399.347C608.721 403.221 610.312 405.881 610.94 406.28H691.904C693.13 404.319 694.58 401.95 696.131 399.347" stroke="black"/>
<path opacity="0.936709" d="M706.081 365.041C706.081 357.581 707.485 324.324 694.383 303.811C681.28 283.297 668.645 269 650.863 269C633.081 269 614.831 285.162 607.344 303.811C599.857 322.459 593.305 348.568 596.113 365.041M706.081 365.041C722.616 373.122 748.665 397.427 720.588 430C716.266 419.847 704.425 398.919 691.643 396.432M706.081 365.041C706.081 369.923 697.936 385.404 691.643 396.432M596.113 365.041C578.643 373.225 551.283 397.676 581.607 430C584.481 419.743 594.374 398.67 610.953 396.432M596.113 365.041C599.923 373.499 606.618 388.011 610.953 396.432M610.953 396.432C612.831 400.079 614.265 402.584 614.831 402.959H687.831C688.937 401.114 690.244 398.883 691.643 396.432" stroke="black"/>
<path opacity="0.949367" d="M700.018 364.075C700.018 357.079 701.269 325.888 689.595 306.649C677.922 287.409 666.666 274 650.824 274C634.981 274 618.722 289.158 612.052 306.649C605.381 324.139 599.545 348.625 602.046 364.075M700.018 364.075C714.749 371.654 737.956 394.45 712.942 425C709.091 415.477 698.542 395.849 687.154 393.517M700.018 364.075C700.018 368.655 692.761 383.174 687.154 393.517M602.046 364.075C586.482 371.752 562.107 394.683 589.122 425C591.683 415.38 600.497 395.616 615.268 393.517M602.046 364.075C605.44 372.008 611.405 385.619 615.268 393.517M615.268 393.517C616.94 396.938 618.218 399.287 618.722 399.639H683.759C684.744 397.908 685.908 395.816 687.154 393.517" stroke="black"/>
<path opacity="0.962025" d="M693.954 363.11C693.954 356.577 695.052 327.452 684.808 309.486C674.564 291.521 664.686 279 650.784 279C636.882 279 622.613 293.154 616.76 309.486C610.906 325.819 605.784 348.683 607.979 363.11M693.954 363.11C706.881 370.187 727.247 391.473 705.296 420C701.917 411.108 692.659 392.78 682.666 390.602M693.954 363.11C693.954 367.386 687.586 380.944 682.666 390.602M607.979 363.11C594.321 370.278 572.931 391.691 596.638 420C598.885 411.017 606.62 392.562 619.582 390.602M607.979 363.11C610.958 370.518 616.193 383.227 619.582 390.602M619.582 390.602C621.049 393.796 622.171 395.989 622.613 396.319H679.686C680.551 394.702 681.573 392.748 682.666 390.602" stroke="black"/>
<path opacity="0.974684" d="M687.891 362.145C687.891 356.075 688.835 329.015 680.021 312.324C671.206 295.633 662.707 284 650.744 284C638.782 284 626.504 297.151 621.468 312.324C616.431 327.498 612.024 348.741 613.912 362.145M687.891 362.145C699.014 368.72 716.538 388.497 697.65 415C694.742 406.739 686.776 389.71 678.178 387.687M687.891 362.145C687.891 366.118 682.412 378.714 678.178 387.687M613.912 362.145C602.16 368.804 583.754 388.699 604.153 415C606.087 406.654 612.742 389.508 623.896 387.687M613.912 362.145C616.475 369.027 620.98 380.835 623.896 387.687M623.896 387.687C625.159 390.655 626.124 392.692 626.504 392.998H675.614C676.358 391.496 677.237 389.681 678.178 387.687" stroke="black"/>
<path opacity="0.987342" d="M681.828 361.18C681.828 355.573 682.619 330.579 675.234 315.162C667.849 299.745 660.727 289 650.705 289C640.682 289 630.396 301.147 626.176 315.162C621.956 329.178 618.263 348.799 619.845 361.18M681.828 361.18C691.147 367.253 705.83 385.52 690.004 410C687.568 402.369 680.894 386.641 673.689 384.772M681.828 361.18C681.828 364.849 677.237 376.484 673.689 384.772M619.845 361.18C609.999 367.331 594.578 385.707 611.669 410C613.289 402.292 618.865 386.454 628.21 384.772M619.845 361.18C621.993 367.537 625.767 378.443 628.21 384.772M628.21 384.772C629.268 387.513 630.077 389.395 630.396 389.678H671.541C672.165 388.29 672.901 386.614 673.689 384.772" stroke="black"/>
<path d="M675.764 360.214C675.764 355.071 676.402 332.143 670.447 318C664.491 303.857 658.748 294 650.665 294C642.582 294 634.287 305.143 630.884 318C627.48 330.857 624.502 348.857 625.779 360.214M675.764 360.214C683.28 365.786 695.121 382.543 682.358 405C680.393 398 675.011 383.571 669.201 381.857M675.764 360.214C675.764 363.581 672.062 374.254 669.201 381.857M625.779 360.214C617.838 365.857 605.402 382.714 619.185 405C620.491 397.929 624.988 383.4 632.524 381.857M625.779 360.214C627.51 366.046 630.554 376.051 632.524 381.857M632.524 381.857C633.378 384.371 634.03 386.098 634.287 386.357H667.469C667.971 385.085 668.566 383.547 669.201 381.857" stroke="black"/>
<rect y="505" width="1300" height="205" fill="url(#paint0_linear_1491_97)"/>
<rect x="967" y="725" width="725" height="333" transform="rotate(-90 967 725)" fill="url(#paint1_linear_1491_97)"/>
<rect width="725" height="333" transform="matrix(0 -1 -1 0 328 725)" fill="url(#paint2_linear_1491_97)"/>
</g>
<defs>
<linearGradient id="paint0_linear_1491_97" x1="650" y1="505" x2="650" y2="710" gradientUnits="userSpaceOnUse">
<stop stop-color="white" stop-opacity="0"/>
<stop offset="0.854167" stop-color="white"/>
</linearGradient>
<linearGradient id="paint1_linear_1491_97" x1="1329.5" y1="725" x2="1329.5" y2="1058" gradientUnits="userSpaceOnUse">
<stop stop-color="white" stop-opacity="0"/>
<stop offset="0.854167" stop-color="white"/>
</linearGradient>
<linearGradient id="paint2_linear_1491_97" x1="362.5" y1="0" x2="362.5" y2="333" gradientUnits="userSpaceOnUse">
<stop stop-color="white" stop-opacity="0"/>
<stop offset="0.854167" stop-color="white"/>
</linearGradient>
<clipPath id="clip0_1491_97">
<rect width="1300" height="700" fill="white"/>
</clipPath>
</defs>
</svg>
