<svg width="95" height="96" viewBox="0 0 95 96" fill="none" xmlns="http://www.w3.org/2000/svg">
<mask id="path-1-inside-1_1416_128" fill="white">
<path d="M47.7462 -0.000946045C60.6399 -0.000946045 72.0665 6.03106 80.4982 14.4987C88.8829 22.9191 94.3085 34.8833 94.3085 47.7053C94.3085 73.4209 74 94.2686 47.7462 94.2676C21.4923 94.2666 -1.3716 83.9574 1.18385 47.7053C1.18385 21.9896 17.7724 -0.000946045 47.7462 -0.000946045Z"/>
</mask>
<path d="M1.18385 47.7053L1.85926 47.7529L1.86094 47.7291V47.7053H1.18385ZM80.4982 14.4987L80.0184 14.9764L80.4982 14.4987ZM93.6314 47.7053C93.6314 73.0521 73.6209 93.5915 47.7462 93.5905L47.7461 94.9447C74.3791 94.9457 94.9855 73.7897 94.9855 47.7053H93.6314ZM47.7462 93.5905C34.6851 93.59 22.5926 91.0214 14.0906 84.0568C5.62659 77.1234 0.592459 65.724 1.85926 47.7529L0.508445 47.6577C-0.780204 65.9387 4.33991 77.8199 13.2325 85.1044C22.087 92.3577 34.5534 94.9442 47.7461 94.9447L47.7462 93.5905ZM1.86094 47.7053C1.86094 34.9898 5.96174 23.2332 13.7266 14.6634C21.4831 6.10293 32.9366 0.676137 47.7462 0.676137V-0.678029C32.582 -0.678029 20.7543 4.89046 12.7231 13.7542C4.70024 22.6086 0.506769 34.7051 0.506769 47.7053H1.86094ZM47.7462 0.676137C60.4215 0.676137 71.6839 6.6064 80.0184 14.9764L80.978 14.0209C72.4492 5.45571 60.8583 -0.678029 47.7462 -0.678029V0.676137ZM80.0184 14.9764C88.2844 23.2777 93.6314 35.073 93.6314 47.7053H94.9855C94.9855 34.6937 89.4814 22.5606 80.978 14.0209L80.0184 14.9764Z" fill="black" mask="url(#path-1-inside-1_1416_128)"/>
<mask id="path-3-inside-2_1416_128" fill="white">
<path fill-rule="evenodd" clip-rule="evenodd" d="M54.4045 30.1094L45.1049 26.7246L36.8848 49.3093L45.3989 52.4082L41.5371 63.0183L50.8367 66.403L59.0568 43.8184L50.5427 40.7195L54.4045 30.1094Z"/>
</mask>
<path d="M45.1049 26.7246L45.4469 25.7849L44.5072 25.4429L44.1652 26.3826L45.1049 26.7246ZM54.4045 30.1094L55.3442 30.4514L55.6862 29.5117L54.7465 29.1697L54.4045 30.1094ZM36.8848 49.3093L35.9451 48.9673L35.6031 49.907L36.5427 50.249L36.8848 49.3093ZM45.3989 52.4082L46.3386 52.7502L46.6806 51.8105L45.7409 51.4685L45.3989 52.4082ZM41.5371 63.0183L40.5974 62.6763L40.2554 63.6159L41.1951 63.958L41.5371 63.0183ZM50.8367 66.403L50.4947 67.3427L51.4344 67.6848L51.7764 66.7451L50.8367 66.403ZM59.0568 43.8184L59.9965 44.1604L60.3385 43.2207L59.3989 42.8787L59.0568 43.8184ZM50.5427 40.7195L49.603 40.3775L49.261 41.3172L50.2007 41.6592L50.5427 40.7195ZM44.7629 27.6643L54.0625 31.0491L54.7465 29.1697L45.4469 25.7849L44.7629 27.6643ZM37.8245 49.6513L46.0446 27.0666L44.1652 26.3826L35.9451 48.9673L37.8245 49.6513ZM45.7409 51.4685L37.2268 48.3696L36.5427 50.249L45.0569 53.3479L45.7409 51.4685ZM42.4768 63.3603L46.3386 52.7502L44.4592 52.0662L40.5974 62.6763L42.4768 63.3603ZM51.1787 65.4634L41.8791 62.0786L41.1951 63.958L50.4947 67.3427L51.1787 65.4634ZM58.1171 43.4763L49.897 66.061L51.7764 66.7451L59.9965 44.1604L58.1171 43.4763ZM50.2007 41.6592L58.7148 44.7581L59.3989 42.8787L50.8848 39.7798L50.2007 41.6592ZM53.4648 29.7674L49.603 40.3775L51.4824 41.0615L55.3442 30.4514L53.4648 29.7674Z" fill="black" mask="url(#path-3-inside-2_1416_128)"/>
</svg>
