<svg width="96" height="96" viewBox="0 0 96 96" fill="none" xmlns="http://www.w3.org/2000/svg">
<mask id="path-1-inside-1_539_539" fill="white">
<path d="M1.67624 39.3451C3.91521 26.6473 10.1957 15.8325 19.9988 8.99934C29.7473 2.20421 44.116 -0.45222 56.7432 1.77429C82.0681 6.23976 100.998 32.5 94.5126 55.7147C88.0271 78.9293 75.8299 102.296 40.5722 93.4841C15.2473 89.0187 -3.52865 68.8635 1.67624 39.3451Z"/>
</mask>
<path d="M40.5722 93.4841L40.7364 92.8273L40.7133 92.8215L40.6898 92.8173L40.5722 93.4841ZM19.9988 8.99934L20.3859 9.55479L19.9988 8.99934ZM56.6256 2.44108C69.0953 4.63982 80.0091 12.2103 87.0039 22.1044C93.9992 31.9992 97.0376 44.1603 93.8605 55.5325L95.1647 55.8968C98.4732 44.0544 95.2892 31.478 88.1097 21.3227C80.9296 11.1666 69.716 3.37423 56.8607 1.10749L56.6256 2.44108ZM93.8605 55.5325C90.6243 67.1165 85.9941 78.6046 77.8724 86.1121C69.8031 93.5711 58.1869 97.1886 40.7364 92.8273L40.4081 94.141C58.2152 98.5914 70.3264 94.9315 78.7916 87.1065C87.2043 79.33 91.9155 67.5275 95.1647 55.8968L93.8605 55.5325ZM40.6898 92.8173C28.1675 90.6093 17.3016 84.5293 10.2104 75.3943C3.12685 66.2691 -0.228626 54.0473 2.34303 39.4627L1.00944 39.2275C-1.62379 54.1613 1.80625 66.7763 9.14069 76.2246C16.4675 85.6632 27.652 91.8935 40.4547 94.1509L40.6898 92.8173ZM2.34303 39.4627C4.55592 26.9127 10.7534 16.269 20.3859 9.55479L19.6116 8.44388C9.63792 15.3959 3.27449 26.3818 1.00944 39.2275L2.34303 39.4627ZM20.3859 9.55479C29.9673 2.8762 44.1489 0.241096 56.6256 2.44108L56.8607 1.10749C44.0831 -1.14554 29.5273 1.53222 19.6116 8.44388L20.3859 9.55479Z" fill="black" mask="url(#path-1-inside-1_539_539)"/>
<mask id="path-3-inside-2_539_539" fill="white">
<path fill-rule="evenodd" clip-rule="evenodd" d="M55.5197 33.3848L46.2202 30L38 52.5847L46.5141 55.6836L42.6523 66.2937L51.9519 69.6784L60.1721 47.0938L51.658 43.9949L55.5197 33.3848Z"/>
</mask>
<path d="M46.2202 30L46.5622 29.0603L45.6225 28.7183L45.2805 29.658L46.2202 30ZM55.5197 33.3848L56.4594 33.7268L56.8014 32.7871L55.8617 32.4451L55.5197 33.3848ZM38 52.5847L37.0603 52.2427L36.7183 53.1824L37.658 53.5244L38 52.5847ZM46.5141 55.6836L47.4538 56.0256L47.7958 55.0859L46.8561 54.7439L46.5141 55.6836ZM42.6523 66.2937L41.7127 65.9516L41.3706 66.8913L42.3103 67.2334L42.6523 66.2937ZM51.9519 69.6784L51.6099 70.6181L52.5496 70.9601L52.8916 70.0205L51.9519 69.6784ZM60.1721 47.0938L61.1118 47.4358L61.4538 46.4961L60.5141 46.1541L60.1721 47.0938ZM51.658 43.9949L50.7183 43.6529L50.3763 44.5925L51.3159 44.9346L51.658 43.9949ZM45.8781 30.9397L55.1777 34.3245L55.8617 32.4451L46.5622 29.0603L45.8781 30.9397ZM38.9397 52.9267L47.1598 30.342L45.2805 29.658L37.0603 52.2427L38.9397 52.9267ZM46.8561 54.7439L38.342 51.645L37.658 53.5244L46.1721 56.6233L46.8561 54.7439ZM43.592 66.6357L47.4538 56.0256L45.5744 55.3415L41.7127 65.9516L43.592 66.6357ZM52.2939 68.7387L42.9944 65.354L42.3103 67.2334L51.6099 70.6181L52.2939 68.7387ZM59.2324 46.7517L51.0122 69.3364L52.8916 70.0205L61.1118 47.4358L59.2324 46.7517ZM51.3159 44.9346L59.8301 48.0334L60.5141 46.1541L52 43.0552L51.3159 44.9346ZM54.58 33.0427L50.7183 43.6529L52.5977 44.3369L56.4594 33.7268L54.58 33.0427Z" fill="black" mask="url(#path-3-inside-2_539_539)"/>
</svg>
