<svg width="103" height="105" viewBox="0 0 103 105" fill="none" xmlns="http://www.w3.org/2000/svg">
<g filter="url(#filter0_d_1416_122)">
<mask id="path-1-inside-1_1416_122" fill="white">
<path d="M30.169 10.001C41.3353 3.55419 51.202 3.39835 62.7378 6.5157C74.2094 9.6157 85.9355 13.4668 92.3464 24.5709C105.204 46.8413 95.8702 76.302 75.3035 88.1762C54.7367 100.05 27.6111 103.806 11.6982 71.1332C-1.15967 48.8628 4.21095 24.9879 30.169 10.001Z"/>
</mask>
<path d="M11.6982 71.1332L12.3069 70.8368L12.2964 70.8153L12.2845 70.7947L11.6982 71.1332ZM62.7378 6.5157L62.5612 7.16934L62.7378 6.5157ZM91.7601 24.9095C104.422 46.8403 95.2238 75.8933 74.9649 87.5898L75.642 88.7626C96.5166 76.7106 105.987 46.8424 92.9328 24.2324L91.7601 24.9095ZM74.9649 87.5898C64.749 93.488 52.9842 97.32 41.8537 95.69C30.773 94.0673 20.184 87.0104 12.3069 70.8368L11.0894 71.4297C19.1252 87.9291 30.0556 95.3308 41.6575 97.0299C53.2098 98.7217 65.2911 94.7387 75.642 88.7626L74.9649 87.5898ZM12.2845 70.7947C5.92945 59.7874 4.10722 48.4383 7.02955 38.0187C9.95206 27.5984 17.6466 18.0127 30.5075 10.5874L29.8305 9.41467C16.7333 16.9763 8.76355 26.8215 5.72569 37.653C2.68765 48.4852 4.60903 60.2087 11.1118 71.4718L12.2845 70.7947ZM30.5075 10.5874C41.4824 4.25106 51.1553 4.08709 62.5612 7.16934L62.9145 5.86206C51.2488 2.70962 41.1881 2.85732 29.8305 9.41467L30.5075 10.5874ZM62.5612 7.16934C74.05 10.274 85.5037 14.0731 91.7601 24.9095L92.9328 24.2324C86.3672 12.8605 74.3688 8.9574 62.9145 5.86206L62.5612 7.16934Z" fill="black" mask="url(#path-1-inside-1_1416_122)"/>
<mask id="path-3-inside-2_1416_122" fill="white">
<path fill-rule="evenodd" clip-rule="evenodd" d="M59.4045 30.1094L50.1049 26.7246L41.8848 49.3093L50.3989 52.4082L46.5371 63.0183L55.8367 66.403L64.0568 43.8184L55.5427 40.7195L59.4045 30.1094Z"/>
</mask>
<path d="M50.1049 26.7246L50.4469 25.7849L49.5072 25.4429L49.1652 26.3826L50.1049 26.7246ZM59.4045 30.1094L60.3442 30.4514L60.6862 29.5117L59.7465 29.1697L59.4045 30.1094ZM41.8848 49.3093L40.9451 48.9673L40.6031 49.907L41.5427 50.249L41.8848 49.3093ZM50.3989 52.4082L51.3386 52.7502L51.6806 51.8105L50.7409 51.4685L50.3989 52.4082ZM46.5371 63.0183L45.5974 62.6763L45.2554 63.6159L46.1951 63.958L46.5371 63.0183ZM55.8367 66.403L55.4947 67.3427L56.4344 67.6848L56.7764 66.7451L55.8367 66.403ZM64.0568 43.8184L64.9965 44.1604L65.3385 43.2207L64.3989 42.8787L64.0568 43.8184ZM55.5427 40.7195L54.603 40.3775L54.261 41.3172L55.2007 41.6592L55.5427 40.7195ZM49.7629 27.6643L59.0625 31.0491L59.7465 29.1697L50.4469 25.7849L49.7629 27.6643ZM42.8245 49.6513L51.0446 27.0666L49.1652 26.3826L40.9451 48.9673L42.8245 49.6513ZM50.7409 51.4685L42.2268 48.3696L41.5427 50.249L50.0569 53.3479L50.7409 51.4685ZM47.4768 63.3603L51.3386 52.7502L49.4592 52.0662L45.5974 62.6763L47.4768 63.3603ZM56.1787 65.4634L46.8791 62.0786L46.1951 63.958L55.4947 67.3427L56.1787 65.4634ZM63.1171 43.4763L54.897 66.061L56.7764 66.7451L64.9965 44.1604L63.1171 43.4763ZM55.2007 41.6592L63.7148 44.7581L64.3989 42.8787L55.8848 39.7798L55.2007 41.6592ZM58.4648 29.7674L54.603 40.3775L56.4824 41.0615L60.3442 30.4514L58.4648 29.7674Z" fill="black" mask="url(#path-3-inside-2_1416_122)"/>
</g>
<defs>
<filter id="filter0_d_1416_122" x="0.996094" y="0" width="102.314" height="104.744" filterUnits="userSpaceOnUse" color-interpolation-filters="sRGB">
<feFlood flood-opacity="0" result="BackgroundImageFix"/>
<feOffset dy="4"/>
<feGaussianBlur stdDeviation="2"/>
<feComposite in2="hardAlpha" operator="out"/>
<feColorMatrix type="matrix" values="0 0 0 0 0 0 0 0 0 0 0 0 0 0 0 0 0 0 0.25 0"/>
<feBlend mode="normal" in2="BackgroundImageFix" result="effect1_dropShadow_1416_122"/>
<feBlend mode="normal" in="SourceGraphic" in2="effect1_dropShadow_1416_122" result="shape"/>
</filter>
</defs>
</svg>
