<svg width="94" height="96" viewBox="0 0 94 96" fill="none" xmlns="http://www.w3.org/2000/svg">
<mask id="path-1-inside-1_1416_110" fill="white">
<path d="M46.7473 -0.000946045C59.641 -0.000946045 73.5677 6.53106 81.9993 14.9987C90.384 23.4191 93.3096 34.8833 93.3096 47.7053C93.3096 73.4209 72 94.2689 46.7473 94.2676C21.4946 94.2662 1.50005 81.4987 0.184967 47.7053C-1.13012 13.9119 16.7735 -0.000946045 46.7473 -0.000946045Z"/>
</mask>
<path d="M81.9993 14.9987L81.5195 15.4764L81.9993 14.9987ZM92.6325 47.7053C92.6325 73.0427 71.6304 93.5918 46.7473 93.5905L46.7472 94.9447C72.3696 94.946 93.9867 73.7992 93.9867 47.7053H92.6325ZM46.7473 93.5905C34.2276 93.5898 23.0975 90.4247 14.9401 83.153C6.79191 75.8896 1.51393 64.4433 0.861539 47.6789L-0.491604 47.7316C0.171089 64.7606 5.54791 76.5948 14.039 84.1639C22.5208 91.7247 34.0142 94.944 46.7472 94.9447L46.7473 93.5905ZM0.861539 47.6789C0.208582 30.9001 4.32962 19.1925 12.2006 11.6691C20.0829 4.13495 31.8504 0.676137 46.7473 0.676137V-0.678029C31.6704 -0.678029 19.4992 2.81958 11.265 10.6902C3.0195 18.5715 -1.15373 30.7171 -0.491604 47.7316L0.861539 47.6789ZM46.7473 0.676137C59.4428 0.676137 73.2016 7.123 81.5195 15.4764L82.4791 14.5209C73.9338 5.93911 59.8391 -0.678029 46.7473 -0.678029V0.676137ZM81.5195 15.4764C89.7282 23.7201 92.6325 34.9769 92.6325 47.7053H93.9867C93.9867 34.7897 91.0398 23.1182 82.4791 14.5209L81.5195 15.4764Z" fill="black" mask="url(#path-1-inside-1_1416_110)"/>
<mask id="path-3-inside-2_1416_110" fill="white">
<path fill-rule="evenodd" clip-rule="evenodd" d="M53.4045 30.1094L44.1049 26.7246L35.8848 49.3093L44.3989 52.4082L40.5371 63.0183L49.8367 66.403L58.0568 43.8184L49.5427 40.7195L53.4045 30.1094Z"/>
</mask>
<path d="M44.1049 26.7246L44.4469 25.7849L43.5072 25.4429L43.1652 26.3826L44.1049 26.7246ZM53.4045 30.1094L54.3442 30.4514L54.6862 29.5117L53.7465 29.1697L53.4045 30.1094ZM35.8848 49.3093L34.9451 48.9673L34.6031 49.907L35.5427 50.249L35.8848 49.3093ZM44.3989 52.4082L45.3386 52.7502L45.6806 51.8105L44.7409 51.4685L44.3989 52.4082ZM40.5371 63.0183L39.5974 62.6763L39.2554 63.6159L40.1951 63.958L40.5371 63.0183ZM49.8367 66.403L49.4947 67.3427L50.4344 67.6848L50.7764 66.7451L49.8367 66.403ZM58.0568 43.8184L58.9965 44.1604L59.3385 43.2207L58.3989 42.8787L58.0568 43.8184ZM49.5427 40.7195L48.603 40.3775L48.261 41.3172L49.2007 41.6592L49.5427 40.7195ZM43.7629 27.6643L53.0625 31.0491L53.7465 29.1697L44.4469 25.7849L43.7629 27.6643ZM36.8245 49.6513L45.0446 27.0666L43.1652 26.3826L34.9451 48.9673L36.8245 49.6513ZM44.7409 51.4685L36.2268 48.3696L35.5427 50.249L44.0569 53.3479L44.7409 51.4685ZM41.4768 63.3603L45.3386 52.7502L43.4592 52.0662L39.5974 62.6763L41.4768 63.3603ZM50.1787 65.4634L40.8791 62.0786L40.1951 63.958L49.4947 67.3427L50.1787 65.4634ZM57.1171 43.4763L48.897 66.061L50.7764 66.7451L58.9965 44.1604L57.1171 43.4763ZM49.2007 41.6592L57.7148 44.7581L58.3989 42.8787L49.8848 39.7798L49.2007 41.6592ZM52.4648 29.7674L48.603 40.3775L50.4824 41.0615L54.3442 30.4514L52.4648 29.7674Z" fill="black" mask="url(#path-3-inside-2_1416_110)"/>
</svg>
