<svg width="95" height="96" viewBox="0 0 95 96" fill="none" xmlns="http://www.w3.org/2000/svg">
<mask id="path-1-inside-1_1416_116" fill="white">
<path d="M23.8772 6.34595C35.0434 -0.100905 46.91 3.20702 58.4458 6.32436C69.9174 9.42436 81.6434 13.2755 88.0544 24.3796C100.912 46.65 96.2027 81.8775 71.0114 87.9849C45.8201 94.0922 23.3191 103.615 7.40611 70.9419C-5.45171 48.6715 -2.08089 21.3328 23.8772 6.34595Z"/>
</mask>
<path d="M7.40611 70.9419L8.01484 70.6454L8.0044 70.624L7.99249 70.6034L7.40611 70.9419ZM58.4458 6.32436L58.2692 6.978L58.4458 6.32436ZM87.468 24.7181C93.8098 35.7024 95.824 49.9035 93.1401 62.0978C90.458 74.2839 83.1217 84.3522 70.8519 87.3269L71.1709 88.6429C84.0924 85.5102 91.7065 74.9111 94.4626 62.3889C97.2168 49.8751 95.1568 35.3272 88.6408 24.0411L87.468 24.7181ZM70.8519 87.3269C64.5148 88.8632 58.4354 90.5913 52.5439 91.8305C46.6688 93.0662 41.0727 93.793 35.7883 93.3315C30.5173 92.8711 25.5515 91.2281 20.9251 87.7087C16.2913 84.1837 11.961 78.7479 8.01484 70.6454L6.79739 71.2384C10.8077 79.4724 15.2574 85.0986 20.1053 88.7865C24.9606 92.4801 30.1782 94.2009 35.6705 94.6805C41.1494 95.159 46.8965 94.4021 52.8226 93.1557C58.7324 91.9127 64.9124 90.1602 71.1709 88.6429L70.8519 87.3269ZM7.99249 70.6034C1.63474 59.5914 -0.692177 47.3595 1.74753 36.0554C4.1846 24.7636 11.3902 14.3371 24.2157 6.93232L23.5386 5.75957C10.406 13.3417 2.94723 24.0779 0.423838 35.7698C-2.09692 47.4494 0.319666 60.022 6.81974 71.2804L7.99249 70.6034ZM24.2157 6.93232C35.0982 0.649281 46.6737 3.84455 58.2692 6.978L58.6224 5.67073C47.1462 2.56949 34.9886 -0.851089 23.5386 5.75957L24.2157 6.93232ZM58.2692 6.978C69.758 10.0827 81.2117 13.8818 87.468 24.7181L88.6408 24.0411C82.0752 12.6691 70.0768 8.76607 58.6224 5.67073L58.2692 6.978Z" fill="black" mask="url(#path-1-inside-1_1416_116)"/>
<mask id="path-3-inside-2_1416_116" fill="white">
<path fill-rule="evenodd" clip-rule="evenodd" d="M54.4045 30.1094L45.1049 26.7246L36.8848 49.3093L45.3989 52.4082L41.5371 63.0183L50.8367 66.403L59.0568 43.8184L50.5427 40.7195L54.4045 30.1094Z"/>
</mask>
<path d="M45.1049 26.7246L45.4469 25.7849L44.5072 25.4429L44.1652 26.3826L45.1049 26.7246ZM54.4045 30.1094L55.3442 30.4514L55.6862 29.5117L54.7465 29.1697L54.4045 30.1094ZM36.8848 49.3093L35.9451 48.9673L35.6031 49.907L36.5427 50.249L36.8848 49.3093ZM45.3989 52.4082L46.3386 52.7502L46.6806 51.8105L45.7409 51.4685L45.3989 52.4082ZM41.5371 63.0183L40.5974 62.6763L40.2554 63.6159L41.1951 63.958L41.5371 63.0183ZM50.8367 66.403L50.4947 67.3427L51.4344 67.6848L51.7764 66.7451L50.8367 66.403ZM59.0568 43.8184L59.9965 44.1604L60.3385 43.2207L59.3989 42.8787L59.0568 43.8184ZM50.5427 40.7195L49.603 40.3775L49.261 41.3172L50.2007 41.6592L50.5427 40.7195ZM44.7629 27.6643L54.0625 31.0491L54.7465 29.1697L45.4469 25.7849L44.7629 27.6643ZM37.8245 49.6513L46.0446 27.0666L44.1652 26.3826L35.9451 48.9673L37.8245 49.6513ZM45.7409 51.4685L37.2268 48.3696L36.5427 50.249L45.0569 53.3479L45.7409 51.4685ZM42.4768 63.3603L46.3386 52.7502L44.4592 52.0662L40.5974 62.6763L42.4768 63.3603ZM51.1787 65.4634L41.8791 62.0786L41.1951 63.958L50.4947 67.3427L51.1787 65.4634ZM58.1171 43.4763L49.897 66.061L51.7764 66.7451L59.9965 44.1604L58.1171 43.4763ZM50.2007 41.6592L58.7148 44.7581L59.3989 42.8787L50.8848 39.7798L50.2007 41.6592ZM53.4648 29.7674L49.603 40.3775L51.4824 41.0615L55.3442 30.4514L53.4648 29.7674Z" fill="black" mask="url(#path-3-inside-2_1416_116)"/>
</svg>
