<svg width="94" height="96" viewBox="0 0 94 96" fill="none" xmlns="http://www.w3.org/2000/svg">
<mask id="path-1-inside-1_539_533" fill="white">
<path d="M46.748 0.000396729C59.6417 0.000396729 68.2645 8.79842 76.6961 17.266C85.0808 25.6865 93.3103 34.8847 93.3103 47.7066C93.3103 73.4223 71.618 101.575 46.748 94.2689C21.878 86.9624 -2.36978 83.9587 0.185669 47.7066C0.185669 21.991 16.7742 0.000396729 46.748 0.000396729Z"/>
</mask>
<path d="M0.185669 47.7066L0.861077 47.7542L0.862753 47.7304V47.7066H0.185669ZM76.6961 17.266L77.1759 16.7883L76.6961 17.266ZM92.6332 47.7066C92.6332 60.3901 87.277 73.6958 78.8555 82.9144C70.4397 92.1268 59.0521 97.178 46.9388 93.6193L46.5571 94.9185C59.3138 98.6663 71.2074 93.2942 79.8553 83.8278C88.4974 74.3675 93.9874 60.7388 93.9874 47.7066H92.6332ZM46.9388 93.6193C40.6826 91.7813 34.5536 90.2382 28.8318 88.3656C23.1259 86.4982 17.9162 84.3296 13.5706 81.2877C9.23588 78.2535 5.7569 74.3476 3.51007 68.9866C1.25957 63.6169 0.227361 56.7443 0.861077 47.7542L-0.489738 47.659C-1.13375 56.795 -0.0932768 63.8924 2.26115 69.5101C4.61924 75.1365 8.27744 79.2355 12.794 82.3971C17.2996 85.5509 22.6553 87.769 28.4106 89.6526C34.1501 91.531 40.3784 93.1033 46.5571 94.9185L46.9388 93.6193ZM0.862753 47.7066C0.862753 34.9911 4.96355 23.2345 12.7284 14.6648C20.4849 6.10428 31.9384 0.677483 46.748 0.677483V-0.676682C31.5838 -0.676682 19.7561 4.8918 11.7249 13.7555C3.70206 22.61 -0.491414 34.7065 -0.491414 47.7066H0.862753ZM46.748 0.677483C59.3141 0.677483 67.7411 9.23241 76.2163 17.7438L77.1759 16.7883C68.7878 8.36443 59.9693 -0.676682 46.748 -0.676682V0.677483ZM76.2163 17.7438C84.6136 26.1769 92.6332 35.1939 92.6332 47.7066H93.9874C93.9874 34.5754 85.548 25.1961 77.1759 16.7883L76.2163 17.7438Z" fill="black" mask="url(#path-1-inside-1_539_533)"/>
<mask id="path-3-inside-2_539_533" fill="white">
<path fill-rule="evenodd" clip-rule="evenodd" d="M53.4064 30.1094L44.1069 26.7246L35.8867 49.3093L44.4008 52.4082L40.5391 63.0183L49.8386 66.403L58.0588 43.8184L49.5447 40.7195L53.4064 30.1094Z"/>
</mask>
<path d="M44.1069 26.7246L44.4489 25.7849L43.5092 25.4429L43.1672 26.3826L44.1069 26.7246ZM53.4064 30.1094L54.3461 30.4514L54.6882 29.5117L53.7485 29.1697L53.4064 30.1094ZM35.8867 49.3093L34.947 48.9673L34.605 49.907L35.5447 50.249L35.8867 49.3093ZM44.4008 52.4082L45.3405 52.7502L45.6825 51.8105L44.7428 51.4685L44.4008 52.4082ZM40.5391 63.0183L39.5994 62.6763L39.2573 63.6159L40.197 63.958L40.5391 63.0183ZM49.8386 66.403L49.4966 67.3427L50.4363 67.6848L50.7783 66.7451L49.8386 66.403ZM58.0588 43.8184L58.9985 44.1604L59.3405 43.2207L58.4008 42.8787L58.0588 43.8184ZM49.5447 40.7195L48.605 40.3775L48.263 41.3172L49.2027 41.6592L49.5447 40.7195ZM43.7649 27.6643L53.0644 31.0491L53.7485 29.1697L44.4489 25.7849L43.7649 27.6643ZM36.8264 49.6513L45.0466 27.0666L43.1672 26.3826L34.947 48.9673L36.8264 49.6513ZM44.7428 51.4685L36.2287 48.3696L35.5447 50.249L44.0588 53.3479L44.7428 51.4685ZM41.4788 63.3603L45.3405 52.7502L43.4611 52.0662L39.5994 62.6763L41.4788 63.3603ZM50.1807 65.4634L40.8811 62.0786L40.197 63.958L49.4966 67.3427L50.1807 65.4634ZM57.1191 43.4763L48.8989 66.061L50.7783 66.7451L58.9985 44.1604L57.1191 43.4763ZM49.2027 41.6592L57.7168 44.7581L58.4008 42.8787L49.8867 39.7798L49.2027 41.6592ZM52.4668 29.7674L48.605 40.3775L50.4844 41.0615L54.3461 30.4514L52.4668 29.7674Z" fill="black" mask="url(#path-3-inside-2_539_533)"/>
</svg>
