<svg width="375" height="663" viewBox="0 0 375 663" fill="none" xmlns="http://www.w3.org/2000/svg">
<circle cx="0.231651" cy="75.2317" r="1.23165" fill="#23C865"/>
<circle cx="17.4738" cy="75.2317" r="1.23165" fill="#23C865"/>
<circle cx="34.716" cy="75.2317" r="1.23165" fill="#23C865"/>
<circle cx="51.9621" cy="75.2317" r="1.23165" fill="#23C865"/>
<circle cx="69.2043" cy="75.2317" r="1.23165" fill="#23C865"/>
<circle cx="86.4465" cy="75.2317" r="1.23165" fill="#23C865"/>
<circle cx="103.689" cy="75.2317" r="1.23165" fill="#23C865"/>
<circle cx="120.935" cy="75.2317" r="1.23165" fill="#23C865"/>
<circle cx="138.177" cy="75.2317" r="1.23165" fill="#23C865"/>
<circle cx="155.419" cy="75.2317" r="1.23165" fill="#23C865"/>
<circle cx="172.661" cy="75.2317" r="1.23165" fill="#23C865"/>
<circle cx="189.907" cy="75.2317" r="1.23165" fill="#23C865"/>
<circle cx="207.15" cy="75.2317" r="1.23165" fill="#23C865"/>
<circle cx="224.392" cy="75.2317" r="1.23165" fill="#23C865"/>
<circle cx="241.634" cy="75.2317" r="1.23165" fill="#23C865"/>
<circle cx="258.88" cy="75.2317" r="1.23165" fill="#23C865"/>
<circle cx="276.122" cy="75.2317" r="1.23165" fill="#23C865"/>
<circle cx="293.364" cy="75.2317" r="1.23165" fill="#23C865"/>
<circle cx="310.607" cy="75.2317" r="1.23165" fill="#23C865"/>
<circle cx="328.345" cy="75.2317" r="1.23165" fill="#23C865"/>
<circle cx="345.587" cy="75.2317" r="1.23165" fill="#23C865"/>
<circle cx="362.829" cy="75.2317" r="1.23165" fill="#23C865"/>
<circle cx="0.231651" cy="92.4738" r="1.23165" fill="#23C865"/>
<circle cx="17.4738" cy="92.4738" r="1.23165" fill="#23C865"/>
<circle cx="34.716" cy="92.4738" r="1.23165" fill="#23C865"/>
<circle cx="51.9621" cy="92.4738" r="1.23165" fill="#23C865"/>
<circle cx="69.2043" cy="92.4738" r="1.23165" fill="#23C865"/>
<circle cx="86.4465" cy="92.4738" r="1.23165" fill="#23C865"/>
<circle cx="103.689" cy="92.4738" r="1.23165" fill="#23C865"/>
<circle cx="120.935" cy="92.4738" r="1.23165" fill="#23C865"/>
<circle cx="138.177" cy="92.4738" r="1.23165" fill="#23C865"/>
<circle cx="155.419" cy="92.4738" r="1.23165" fill="#23C865"/>
<circle cx="172.661" cy="92.4738" r="1.23165" fill="#23C865"/>
<circle cx="189.907" cy="92.4738" r="1.23165" fill="#23C865"/>
<circle cx="207.15" cy="92.4738" r="1.23165" fill="#23C865"/>
<circle cx="224.392" cy="92.4738" r="1.23165" fill="#23C865"/>
<circle cx="241.634" cy="92.4738" r="1.23165" fill="#23C865"/>
<circle cx="258.88" cy="92.4738" r="1.23165" fill="#23C865"/>
<circle cx="276.122" cy="92.4738" r="1.23165" fill="#23C865"/>
<circle cx="293.364" cy="92.4738" r="1.23165" fill="#23C865"/>
<circle cx="310.607" cy="92.4738" r="1.23165" fill="#23C865"/>
<circle cx="328.345" cy="92.4738" r="1.23165" fill="#23C865"/>
<circle cx="345.587" cy="92.4738" r="1.23165" fill="#23C865"/>
<circle cx="362.829" cy="92.4738" r="1.23165" fill="#23C865"/>
<circle cx="0.231651" cy="351.122" r="1.23165" fill="#23C865"/>
<circle cx="17.4738" cy="351.122" r="1.23165" fill="#23C865"/>
<circle cx="34.716" cy="351.122" r="1.23165" fill="#23C865"/>
<circle cx="51.9621" cy="351.122" r="1.23165" fill="#23C865"/>
<circle cx="69.2043" cy="351.122" r="1.23165" fill="#23C865"/>
<circle cx="86.4465" cy="351.122" r="1.23165" fill="#23C865"/>
<circle cx="103.689" cy="351.122" r="1.23165" fill="#23C865"/>
<circle cx="120.935" cy="351.122" r="1.23165" fill="#23C865"/>
<circle cx="138.177" cy="351.122" r="1.23165" fill="#23C865"/>
<circle cx="155.419" cy="351.122" r="1.23165" fill="#23C865"/>
<circle cx="172.661" cy="351.122" r="1.23165" fill="#23C865"/>
<circle cx="189.907" cy="351.122" r="1.23165" fill="#23C865"/>
<circle cx="207.15" cy="351.122" r="1.23165" fill="#23C865"/>
<circle cx="224.392" cy="351.122" r="1.23165" fill="#23C865"/>
<circle cx="241.634" cy="351.122" r="1.23165" fill="#23C865"/>
<circle cx="258.88" cy="351.122" r="1.23165" fill="#23C865"/>
<circle cx="276.122" cy="351.122" r="1.23165" fill="#23C865"/>
<circle cx="293.364" cy="351.122" r="1.23165" fill="#23C865"/>
<circle cx="310.607" cy="351.122" r="1.23165" fill="#23C865"/>
<circle cx="328.345" cy="351.122" r="1.23165" fill="#23C865"/>
<circle cx="345.587" cy="351.122" r="1.23165" fill="#23C865"/>
<circle cx="362.829" cy="351.122" r="1.23165" fill="#23C865"/>
<circle cx="0.231651" cy="368.364" r="1.23165" fill="#23C865"/>
<circle cx="17.4738" cy="368.364" r="1.23165" fill="#23C865"/>
<circle cx="34.716" cy="368.364" r="1.23165" fill="#23C865"/>
<circle cx="51.9621" cy="368.364" r="1.23165" fill="#23C865"/>
<circle cx="69.2043" cy="368.364" r="1.23165" fill="#23C865"/>
<circle cx="86.4465" cy="368.364" r="1.23165" fill="#23C865"/>
<circle cx="103.689" cy="368.364" r="1.23165" fill="#23C865"/>
<circle cx="120.935" cy="368.364" r="1.23165" fill="#23C865"/>
<circle cx="138.177" cy="368.364" r="1.23165" fill="#23C865"/>
<circle cx="155.419" cy="368.364" r="1.23165" fill="#23C865"/>
<circle cx="172.661" cy="368.364" r="1.23165" fill="#23C865"/>
<circle cx="189.907" cy="368.364" r="1.23165" fill="#23C865"/>
<circle cx="207.15" cy="368.364" r="1.23165" fill="#23C865"/>
<circle cx="224.392" cy="368.364" r="1.23165" fill="#23C865"/>
<circle cx="241.634" cy="368.364" r="1.23165" fill="#23C865"/>
<circle cx="258.88" cy="368.364" r="1.23165" fill="#23C865"/>
<circle cx="276.122" cy="368.364" r="1.23165" fill="#23C865"/>
<circle cx="293.364" cy="368.364" r="1.23165" fill="#23C865"/>
<circle cx="310.607" cy="368.364" r="1.23165" fill="#23C865"/>
<circle cx="328.345" cy="368.364" r="1.23165" fill="#23C865"/>
<circle cx="345.587" cy="368.364" r="1.23165" fill="#23C865"/>
<circle cx="362.829" cy="368.364" r="1.23165" fill="#23C865"/>
<circle cx="0.231651" cy="213.177" r="1.23165" fill="#23C865"/>
<circle cx="17.4738" cy="213.177" r="1.23165" fill="#23C865"/>
<circle cx="34.716" cy="213.177" r="1.23165" fill="#23C865"/>
<circle cx="51.9621" cy="213.177" r="1.23165" fill="#23C865"/>
<circle cx="69.2043" cy="213.177" r="1.23165" fill="#23C865"/>
<circle cx="86.4465" cy="213.177" r="1.23165" fill="#23C865"/>
<circle cx="103.689" cy="213.177" r="1.23165" fill="#23C865"/>
<circle cx="120.935" cy="213.177" r="1.23165" fill="#23C865"/>
<circle cx="138.177" cy="213.177" r="1.23165" fill="#23C865"/>
<circle cx="155.419" cy="213.177" r="1.23165" fill="#23C865"/>
<circle cx="172.661" cy="213.177" r="1.23165" fill="#23C865"/>
<circle cx="189.907" cy="213.177" r="1.23165" fill="#23C865"/>
<circle cx="207.15" cy="213.177" r="1.23165" fill="#23C865"/>
<circle cx="224.392" cy="213.177" r="1.23165" fill="#23C865"/>
<circle cx="241.634" cy="213.177" r="1.23165" fill="#23C865"/>
<circle cx="258.88" cy="213.177" r="1.23165" fill="#23C865"/>
<circle cx="276.122" cy="213.177" r="1.23165" fill="#23C865"/>
<circle cx="293.364" cy="213.177" r="1.23165" fill="#23C865"/>
<circle cx="310.607" cy="213.177" r="1.23165" fill="#23C865"/>
<circle cx="328.345" cy="213.177" r="1.23165" fill="#23C865"/>
<circle cx="345.587" cy="213.177" r="1.23165" fill="#23C865"/>
<circle cx="362.829" cy="213.177" r="1.23165" fill="#23C865"/>
<circle cx="0.231651" cy="230.419" r="1.23165" fill="#23C865"/>
<circle cx="17.4738" cy="230.419" r="1.23165" fill="#23C865"/>
<circle cx="34.716" cy="230.419" r="1.23165" fill="#23C865"/>
<circle cx="51.9621" cy="230.419" r="1.23165" fill="#23C865"/>
<circle cx="69.2043" cy="230.419" r="1.23165" fill="#23C865"/>
<circle cx="86.4465" cy="230.419" r="1.23165" fill="#23C865"/>
<circle cx="103.689" cy="230.419" r="1.23165" fill="#23C865"/>
<circle cx="120.935" cy="230.419" r="1.23165" fill="#23C865"/>
<circle cx="138.177" cy="230.419" r="1.23165" fill="#23C865"/>
<circle cx="155.419" cy="230.419" r="1.23165" fill="#23C865"/>
<circle cx="172.661" cy="230.419" r="1.23165" fill="#23C865"/>
<circle cx="189.907" cy="230.419" r="1.23165" fill="#23C865"/>
<circle cx="207.15" cy="230.419" r="1.23165" fill="#23C865"/>
<circle cx="224.392" cy="230.419" r="1.23165" fill="#23C865"/>
<circle cx="241.634" cy="230.419" r="1.23165" fill="#23C865"/>
<circle cx="258.88" cy="230.419" r="1.23165" fill="#23C865"/>
<circle cx="276.122" cy="230.419" r="1.23165" fill="#23C865"/>
<circle cx="293.364" cy="230.419" r="1.23165" fill="#23C865"/>
<circle cx="310.607" cy="230.419" r="1.23165" fill="#23C865"/>
<circle cx="328.345" cy="230.419" r="1.23165" fill="#23C865"/>
<circle cx="345.587" cy="230.419" r="1.23165" fill="#23C865"/>
<circle cx="362.829" cy="230.419" r="1.23165" fill="#23C865"/>
<circle cx="0.231651" cy="489.066" r="1.23165" fill="#23C865"/>
<circle cx="17.4738" cy="489.066" r="1.23165" fill="#23C865"/>
<circle cx="34.716" cy="489.066" r="1.23165" fill="#23C865"/>
<circle cx="51.9621" cy="489.066" r="1.23165" fill="#23C865"/>
<circle cx="69.2043" cy="489.066" r="1.23165" fill="#23C865"/>
<circle cx="86.4465" cy="489.066" r="1.23165" fill="#23C865"/>
<circle cx="103.689" cy="489.066" r="1.23165" fill="#23C865"/>
<circle cx="120.935" cy="489.066" r="1.23165" fill="#23C865"/>
<circle cx="138.177" cy="489.066" r="1.23165" fill="#23C865"/>
<circle cx="155.419" cy="489.066" r="1.23165" fill="#23C865"/>
<circle cx="172.661" cy="489.066" r="1.23165" fill="#23C865"/>
<circle cx="189.907" cy="489.066" r="1.23165" fill="#23C865"/>
<circle cx="207.15" cy="489.066" r="1.23165" fill="#23C865"/>
<circle cx="224.392" cy="489.066" r="1.23165" fill="#23C865"/>
<circle cx="241.634" cy="489.066" r="1.23165" fill="#23C865"/>
<circle cx="258.88" cy="489.066" r="1.23165" fill="#23C865"/>
<circle cx="276.122" cy="489.066" r="1.23165" fill="#23C865"/>
<circle cx="293.364" cy="489.066" r="1.23165" fill="#23C865"/>
<circle cx="310.607" cy="489.066" r="1.23165" fill="#23C865"/>
<circle cx="328.345" cy="489.066" r="1.23165" fill="#23C865"/>
<circle cx="345.587" cy="489.066" r="1.23165" fill="#23C865"/>
<circle cx="362.829" cy="489.066" r="1.23165" fill="#23C865"/>
<circle cx="0.231651" cy="506.31" r="1.23165" fill="#23C865"/>
<circle cx="17.4738" cy="506.31" r="1.23165" fill="#23C865"/>
<circle cx="34.716" cy="506.31" r="1.23165" fill="#23C865"/>
<circle cx="51.9621" cy="506.31" r="1.23165" fill="#23C865"/>
<circle cx="69.2043" cy="506.31" r="1.23165" fill="#23C865"/>
<circle cx="86.4465" cy="506.31" r="1.23165" fill="#23C865"/>
<circle cx="103.689" cy="506.31" r="1.23165" fill="#23C865"/>
<circle cx="120.935" cy="506.31" r="1.23165" fill="#23C865"/>
<circle cx="138.177" cy="506.31" r="1.23165" fill="#23C865"/>
<circle cx="155.419" cy="506.31" r="1.23165" fill="#23C865"/>
<circle cx="172.661" cy="506.31" r="1.23165" fill="#23C865"/>
<circle cx="189.907" cy="506.31" r="1.23165" fill="#23C865"/>
<circle cx="207.15" cy="506.31" r="1.23165" fill="#23C865"/>
<circle cx="224.392" cy="506.31" r="1.23165" fill="#23C865"/>
<circle cx="241.634" cy="506.31" r="1.23165" fill="#23C865"/>
<circle cx="258.88" cy="506.31" r="1.23165" fill="#23C865"/>
<circle cx="276.122" cy="506.31" r="1.23165" fill="#23C865"/>
<circle cx="293.364" cy="506.31" r="1.23165" fill="#23C865"/>
<circle cx="310.607" cy="506.31" r="1.23165" fill="#23C865"/>
<circle cx="328.345" cy="506.31" r="1.23165" fill="#23C865"/>
<circle cx="345.587" cy="506.31" r="1.23165" fill="#23C865"/>
<circle cx="362.829" cy="506.31" r="1.23165" fill="#23C865"/>
<circle cx="0.231651" cy="144.204" r="1.23165" fill="#23C865"/>
<circle cx="17.4738" cy="144.204" r="1.23165" fill="#23C865"/>
<circle cx="34.716" cy="144.204" r="1.23165" fill="#23C865"/>
<circle cx="51.9621" cy="144.204" r="1.23165" fill="#23C865"/>
<circle cx="69.2043" cy="144.204" r="1.23165" fill="#23C865"/>
<circle cx="86.4465" cy="144.204" r="1.23165" fill="#23C865"/>
<circle cx="103.689" cy="144.204" r="1.23165" fill="#23C865"/>
<circle cx="120.935" cy="144.204" r="1.23165" fill="#23C865"/>
<circle cx="138.177" cy="144.204" r="1.23165" fill="#23C865"/>
<circle cx="155.419" cy="144.204" r="1.23165" fill="#23C865"/>
<circle cx="172.661" cy="144.204" r="1.23165" fill="#23C865"/>
<circle cx="189.907" cy="144.204" r="1.23165" fill="#23C865"/>
<circle cx="207.15" cy="144.204" r="1.23165" fill="#23C865"/>
<circle cx="224.392" cy="144.204" r="1.23165" fill="#23C865"/>
<circle cx="241.634" cy="144.204" r="1.23165" fill="#23C865"/>
<circle cx="258.88" cy="144.204" r="1.23165" fill="#23C865"/>
<circle cx="276.122" cy="144.204" r="1.23165" fill="#23C865"/>
<circle cx="293.364" cy="144.204" r="1.23165" fill="#23C865"/>
<circle cx="310.607" cy="144.204" r="1.23165" fill="#23C865"/>
<circle cx="328.345" cy="144.204" r="1.23165" fill="#23C865"/>
<circle cx="345.587" cy="144.204" r="1.23165" fill="#23C865"/>
<circle cx="362.829" cy="144.204" r="1.23165" fill="#23C865"/>
<circle cx="0.231651" cy="161.447" r="1.23165" fill="#23C865"/>
<circle cx="17.4738" cy="161.447" r="1.23165" fill="#23C865"/>
<circle cx="34.716" cy="161.447" r="1.23165" fill="#23C865"/>
<circle cx="51.9621" cy="161.447" r="1.23165" fill="#23C865"/>
<circle cx="69.2043" cy="161.447" r="1.23165" fill="#23C865"/>
<circle cx="86.4465" cy="161.447" r="1.23165" fill="#23C865"/>
<circle cx="103.689" cy="161.447" r="1.23165" fill="#23C865"/>
<circle cx="120.935" cy="161.447" r="1.23165" fill="#23C865"/>
<circle cx="138.177" cy="161.447" r="1.23165" fill="#23C865"/>
<circle cx="155.419" cy="161.447" r="1.23165" fill="#23C865"/>
<circle cx="172.661" cy="161.447" r="1.23165" fill="#23C865"/>
<circle cx="189.907" cy="161.447" r="1.23165" fill="#23C865"/>
<circle cx="207.15" cy="161.447" r="1.23165" fill="#23C865"/>
<circle cx="224.392" cy="161.447" r="1.23165" fill="#23C865"/>
<circle cx="241.634" cy="161.447" r="1.23165" fill="#23C865"/>
<circle cx="258.88" cy="161.447" r="1.23165" fill="#23C865"/>
<circle cx="276.122" cy="161.447" r="1.23165" fill="#23C865"/>
<circle cx="293.364" cy="161.447" r="1.23165" fill="#23C865"/>
<circle cx="310.607" cy="161.447" r="1.23165" fill="#23C865"/>
<circle cx="328.345" cy="161.447" r="1.23165" fill="#23C865"/>
<circle cx="345.587" cy="161.447" r="1.23165" fill="#23C865"/>
<circle cx="362.829" cy="161.447" r="1.23165" fill="#23C865"/>
<circle cx="0.231651" cy="420.095" r="1.23165" fill="#23C865"/>
<circle cx="17.4738" cy="420.095" r="1.23165" fill="#23C865"/>
<circle cx="34.716" cy="420.095" r="1.23165" fill="#23C865"/>
<circle cx="51.9621" cy="420.095" r="1.23165" fill="#23C865"/>
<circle cx="69.2043" cy="420.095" r="1.23165" fill="#23C865"/>
<circle cx="86.4465" cy="420.095" r="1.23165" fill="#23C865"/>
<circle cx="103.689" cy="420.095" r="1.23165" fill="#23C865"/>
<circle cx="120.935" cy="420.095" r="1.23165" fill="#23C865"/>
<circle cx="138.177" cy="420.095" r="1.23165" fill="#23C865"/>
<circle cx="155.419" cy="420.095" r="1.23165" fill="#23C865"/>
<circle cx="172.661" cy="420.095" r="1.23165" fill="#23C865"/>
<circle cx="189.907" cy="420.095" r="1.23165" fill="#23C865"/>
<circle cx="207.15" cy="420.095" r="1.23165" fill="#23C865"/>
<circle cx="224.392" cy="420.095" r="1.23165" fill="#23C865"/>
<circle cx="241.634" cy="420.095" r="1.23165" fill="#23C865"/>
<circle cx="258.88" cy="420.095" r="1.23165" fill="#23C865"/>
<circle cx="276.122" cy="420.095" r="1.23165" fill="#23C865"/>
<circle cx="293.364" cy="420.095" r="1.23165" fill="#23C865"/>
<circle cx="310.607" cy="420.095" r="1.23165" fill="#23C865"/>
<circle cx="328.345" cy="420.095" r="1.23165" fill="#23C865"/>
<circle cx="345.587" cy="420.095" r="1.23165" fill="#23C865"/>
<circle cx="362.829" cy="420.095" r="1.23165" fill="#23C865"/>
<circle cx="0.231651" cy="437.337" r="1.23165" fill="#23C865"/>
<circle cx="17.4738" cy="437.337" r="1.23165" fill="#23C865"/>
<circle cx="34.716" cy="437.337" r="1.23165" fill="#23C865"/>
<circle cx="51.9621" cy="437.337" r="1.23165" fill="#23C865"/>
<circle cx="69.2043" cy="437.337" r="1.23165" fill="#23C865"/>
<circle cx="86.4465" cy="437.337" r="1.23165" fill="#23C865"/>
<circle cx="103.689" cy="437.337" r="1.23165" fill="#23C865"/>
<circle cx="120.935" cy="437.337" r="1.23165" fill="#23C865"/>
<circle cx="138.177" cy="437.337" r="1.23165" fill="#23C865"/>
<circle cx="155.419" cy="437.337" r="1.23165" fill="#23C865"/>
<circle cx="172.661" cy="437.337" r="1.23165" fill="#23C865"/>
<circle cx="189.907" cy="437.337" r="1.23165" fill="#23C865"/>
<circle cx="207.15" cy="437.337" r="1.23165" fill="#23C865"/>
<circle cx="224.392" cy="437.337" r="1.23165" fill="#23C865"/>
<circle cx="241.634" cy="437.337" r="1.23165" fill="#23C865"/>
<circle cx="258.88" cy="437.337" r="1.23165" fill="#23C865"/>
<circle cx="276.122" cy="437.337" r="1.23165" fill="#23C865"/>
<circle cx="293.364" cy="437.337" r="1.23165" fill="#23C865"/>
<circle cx="310.607" cy="437.337" r="1.23165" fill="#23C865"/>
<circle cx="328.345" cy="437.337" r="1.23165" fill="#23C865"/>
<circle cx="345.587" cy="437.337" r="1.23165" fill="#23C865"/>
<circle cx="362.829" cy="437.337" r="1.23165" fill="#23C865"/>
<circle cx="9.59103" cy="282.15" r="1.23165" fill="#23C865"/>
<circle cx="26.8332" cy="282.15" r="1.23165" fill="#23C865"/>
<circle cx="44.0793" cy="282.15" r="1.23165" fill="#23C865"/>
<circle cx="61.3215" cy="282.15" r="1.23165" fill="#23C865"/>
<circle cx="78.5637" cy="282.15" r="1.23165" fill="#23C865"/>
<circle cx="95.8059" cy="282.15" r="1.23165" fill="#23C865"/>
<circle cx="113.052" cy="282.15" r="1.23165" fill="#23C865"/>
<circle cx="130.294" cy="282.15" r="1.23165" fill="#23C865"/>
<circle cx="147.536" cy="282.15" r="1.23165" fill="#23C865"/>
<circle cx="164.779" cy="282.15" r="1.23165" fill="#23C865"/>
<circle cx="182.025" cy="282.15" r="1.23165" fill="#23C865"/>
<circle cx="199.267" cy="282.15" r="1.23165" fill="#23C865"/>
<circle cx="216.509" cy="282.15" r="1.23165" fill="#23C865"/>
<circle cx="233.751" cy="282.15" r="1.23165" fill="#23C865"/>
<circle cx="250.997" cy="282.15" r="1.23165" fill="#23C865"/>
<circle cx="268.239" cy="282.15" r="1.23165" fill="#23C865"/>
<circle cx="285.482" cy="282.15" r="1.23165" fill="#23C865"/>
<circle cx="302.724" cy="282.15" r="1.23165" fill="#23C865"/>
<circle cx="320.462" cy="282.15" r="1.23165" fill="#23C865"/>
<circle cx="337.704" cy="282.15" r="1.23165" fill="#23C865"/>
<circle cx="354.947" cy="282.15" r="1.23165" fill="#23C865"/>
<circle cx="372.193" cy="282.15" r="1.23165" fill="#23C865"/>
<circle cx="0.231651" cy="299.392" r="1.23165" fill="#23C865"/>
<circle cx="17.4738" cy="299.392" r="1.23165" fill="#23C865"/>
<circle cx="34.716" cy="299.392" r="1.23165" fill="#23C865"/>
<circle cx="51.9621" cy="299.392" r="1.23165" fill="#23C865"/>
<circle cx="69.2043" cy="299.392" r="1.23165" fill="#23C865"/>
<circle cx="86.4465" cy="299.392" r="1.23165" fill="#23C865"/>
<circle cx="103.689" cy="299.392" r="1.23165" fill="#23C865"/>
<circle cx="120.935" cy="299.392" r="1.23165" fill="#23C865"/>
<circle cx="138.177" cy="299.392" r="1.23165" fill="#23C865"/>
<circle cx="155.419" cy="299.392" r="1.23165" fill="#23C865"/>
<circle cx="172.661" cy="299.392" r="1.23165" fill="#23C865"/>
<circle cx="189.907" cy="299.392" r="1.23165" fill="#23C865"/>
<circle cx="207.15" cy="299.392" r="1.23165" fill="#23C865"/>
<circle cx="224.392" cy="299.392" r="1.23165" fill="#23C865"/>
<circle cx="241.634" cy="299.392" r="1.23165" fill="#23C865"/>
<circle cx="258.88" cy="299.392" r="1.23165" fill="#23C865"/>
<circle cx="276.122" cy="299.392" r="1.23165" fill="#23C865"/>
<circle cx="293.364" cy="299.392" r="1.23165" fill="#23C865"/>
<circle cx="310.607" cy="299.392" r="1.23165" fill="#23C865"/>
<circle cx="328.345" cy="299.392" r="1.23165" fill="#23C865"/>
<circle cx="345.587" cy="299.392" r="1.23165" fill="#23C865"/>
<circle cx="362.829" cy="299.392" r="1.23165" fill="#23C865"/>
<circle cx="0.231651" cy="558.038" r="1.23165" fill="#23C865"/>
<circle cx="17.4738" cy="558.038" r="1.23165" fill="#23C865"/>
<circle cx="34.716" cy="558.038" r="1.23165" fill="#23C865"/>
<circle cx="51.9621" cy="558.038" r="1.23165" fill="#23C865"/>
<circle cx="69.2043" cy="558.038" r="1.23165" fill="#23C865"/>
<circle cx="86.4465" cy="558.038" r="1.23165" fill="#23C865"/>
<circle cx="103.689" cy="558.038" r="1.23165" fill="#23C865"/>
<circle cx="120.935" cy="558.038" r="1.23165" fill="#23C865"/>
<circle cx="138.177" cy="558.038" r="1.23165" fill="#23C865"/>
<circle cx="155.419" cy="558.038" r="1.23165" fill="#23C865"/>
<circle cx="172.661" cy="558.038" r="1.23165" fill="#23C865"/>
<circle cx="189.907" cy="558.038" r="1.23165" fill="#23C865"/>
<circle cx="207.15" cy="558.038" r="1.23165" fill="#23C865"/>
<circle cx="224.392" cy="558.038" r="1.23165" fill="#23C865"/>
<circle cx="241.634" cy="558.038" r="1.23165" fill="#23C865"/>
<circle cx="258.88" cy="558.038" r="1.23165" fill="#23C865"/>
<circle cx="276.122" cy="558.038" r="1.23165" fill="#23C865"/>
<circle cx="293.364" cy="558.038" r="1.23165" fill="#23C865"/>
<circle cx="310.607" cy="558.038" r="1.23165" fill="#23C865"/>
<circle cx="328.345" cy="558.038" r="1.23165" fill="#23C865"/>
<circle cx="345.587" cy="558.038" r="1.23165" fill="#23C865"/>
<circle cx="362.829" cy="558.038" r="1.23165" fill="#23C865"/>
<circle cx="0.231651" cy="575.282" r="1.23165" fill="#23C865"/>
<circle cx="17.4738" cy="575.282" r="1.23165" fill="#23C865"/>
<circle cx="34.716" cy="575.282" r="1.23165" fill="#23C865"/>
<circle cx="51.9621" cy="575.282" r="1.23165" fill="#23C865"/>
<circle cx="69.2043" cy="575.282" r="1.23165" fill="#23C865"/>
<circle cx="86.4465" cy="575.282" r="1.23165" fill="#23C865"/>
<circle cx="103.689" cy="575.282" r="1.23165" fill="#23C865"/>
<circle cx="120.935" cy="575.282" r="1.23165" fill="#23C865"/>
<circle cx="138.177" cy="575.282" r="1.23165" fill="#23C865"/>
<circle cx="155.419" cy="575.282" r="1.23165" fill="#23C865"/>
<circle cx="172.661" cy="575.282" r="1.23165" fill="#23C865"/>
<circle cx="189.907" cy="575.282" r="1.23165" fill="#23C865"/>
<circle cx="207.15" cy="575.282" r="1.23165" fill="#23C865"/>
<circle cx="224.392" cy="575.282" r="1.23165" fill="#23C865"/>
<circle cx="241.634" cy="575.282" r="1.23165" fill="#23C865"/>
<circle cx="258.88" cy="575.282" r="1.23165" fill="#23C865"/>
<circle cx="276.122" cy="575.282" r="1.23165" fill="#23C865"/>
<circle cx="293.364" cy="575.282" r="1.23165" fill="#23C865"/>
<circle cx="310.607" cy="575.282" r="1.23165" fill="#23C865"/>
<circle cx="328.345" cy="575.282" r="1.23165" fill="#23C865"/>
<circle cx="345.587" cy="575.282" r="1.23165" fill="#23C865"/>
<circle cx="362.829" cy="575.282" r="1.23165" fill="#23C865"/>
<circle cx="0.231651" cy="109.718" r="1.23165" fill="#23C865"/>
<circle cx="17.4738" cy="109.718" r="1.23165" fill="#23C865"/>
<circle cx="34.716" cy="109.718" r="1.23165" fill="#23C865"/>
<circle cx="51.9621" cy="109.718" r="1.23165" fill="#23C865"/>
<circle cx="69.2043" cy="109.718" r="1.23165" fill="#23C865"/>
<circle cx="86.4465" cy="109.718" r="1.23165" fill="#23C865"/>
<circle cx="103.689" cy="109.718" r="1.23165" fill="#23C865"/>
<circle cx="120.935" cy="109.718" r="1.23165" fill="#23C865"/>
<circle cx="138.177" cy="109.718" r="1.23165" fill="#23C865"/>
<circle cx="155.419" cy="109.718" r="1.23165" fill="#23C865"/>
<circle cx="172.661" cy="109.718" r="1.23165" fill="#23C865"/>
<circle cx="189.907" cy="109.718" r="1.23165" fill="#23C865"/>
<circle cx="207.15" cy="109.718" r="1.23165" fill="#23C865"/>
<circle cx="224.392" cy="109.718" r="1.23165" fill="#23C865"/>
<circle cx="241.634" cy="109.718" r="1.23165" fill="#23C865"/>
<circle cx="258.88" cy="109.718" r="1.23165" fill="#23C865"/>
<circle cx="276.122" cy="109.718" r="1.23165" fill="#23C865"/>
<circle cx="293.364" cy="109.718" r="1.23165" fill="#23C865"/>
<circle cx="310.607" cy="109.718" r="1.23165" fill="#23C865"/>
<circle cx="328.345" cy="109.718" r="1.23165" fill="#23C865"/>
<circle cx="345.587" cy="109.718" r="1.23165" fill="#23C865"/>
<circle cx="362.829" cy="109.718" r="1.23165" fill="#23C865"/>
<circle cx="0.231651" cy="126.96" r="1.23165" fill="#23C865"/>
<circle cx="17.4738" cy="126.96" r="1.23165" fill="#23C865"/>
<circle cx="34.716" cy="126.96" r="1.23165" fill="#23C865"/>
<circle cx="51.9621" cy="126.96" r="1.23165" fill="#23C865"/>
<circle cx="69.2043" cy="126.96" r="1.23165" fill="#23C865"/>
<circle cx="86.4465" cy="126.96" r="1.23165" fill="#23C865"/>
<circle cx="103.689" cy="126.96" r="1.23165" fill="#23C865"/>
<circle cx="120.935" cy="126.96" r="1.23165" fill="#23C865"/>
<circle cx="138.177" cy="126.96" r="1.23165" fill="#23C865"/>
<circle cx="155.419" cy="126.96" r="1.23165" fill="#23C865"/>
<circle cx="172.661" cy="126.96" r="1.23165" fill="#23C865"/>
<circle cx="189.907" cy="126.96" r="1.23165" fill="#23C865"/>
<circle cx="207.15" cy="126.96" r="1.23165" fill="#23C865"/>
<circle cx="224.392" cy="126.96" r="1.23165" fill="#23C865"/>
<circle cx="241.634" cy="126.96" r="1.23165" fill="#23C865"/>
<circle cx="258.88" cy="126.96" r="1.23165" fill="#23C865"/>
<circle cx="276.122" cy="126.96" r="1.23165" fill="#23C865"/>
<circle cx="293.364" cy="126.96" r="1.23165" fill="#23C865"/>
<circle cx="310.607" cy="126.96" r="1.23165" fill="#23C865"/>
<circle cx="328.345" cy="126.96" r="1.23165" fill="#23C865"/>
<circle cx="345.587" cy="126.96" r="1.23165" fill="#23C865"/>
<circle cx="362.829" cy="126.96" r="1.23165" fill="#23C865"/>
<circle cx="0.231651" cy="385.609" r="1.23165" fill="#23C865"/>
<circle cx="17.4738" cy="385.609" r="1.23165" fill="#23C865"/>
<circle cx="34.716" cy="385.609" r="1.23165" fill="#23C865"/>
<circle cx="51.9621" cy="385.609" r="1.23165" fill="#23C865"/>
<circle cx="69.2043" cy="385.609" r="1.23165" fill="#23C865"/>
<circle cx="86.4465" cy="385.609" r="1.23165" fill="#23C865"/>
<circle cx="103.689" cy="385.609" r="1.23165" fill="#23C865"/>
<circle cx="120.935" cy="385.609" r="1.23165" fill="#23C865"/>
<circle cx="138.177" cy="385.609" r="1.23165" fill="#23C865"/>
<circle cx="155.419" cy="385.609" r="1.23165" fill="#23C865"/>
<circle cx="172.661" cy="385.609" r="1.23165" fill="#23C865"/>
<circle cx="189.907" cy="385.609" r="1.23165" fill="#23C865"/>
<circle cx="207.15" cy="385.609" r="1.23165" fill="#23C865"/>
<circle cx="224.392" cy="385.609" r="1.23165" fill="#23C865"/>
<circle cx="241.634" cy="385.609" r="1.23165" fill="#23C865"/>
<circle cx="258.88" cy="385.609" r="1.23165" fill="#23C865"/>
<circle cx="276.122" cy="385.609" r="1.23165" fill="#23C865"/>
<circle cx="293.364" cy="385.609" r="1.23165" fill="#23C865"/>
<circle cx="310.607" cy="385.609" r="1.23165" fill="#23C865"/>
<circle cx="328.345" cy="385.609" r="1.23165" fill="#23C865"/>
<circle cx="345.587" cy="385.609" r="1.23165" fill="#23C865"/>
<circle cx="362.829" cy="385.609" r="1.23165" fill="#23C865"/>
<circle cx="0.231651" cy="402.851" r="1.23165" fill="#23C865"/>
<circle cx="17.4738" cy="402.851" r="1.23165" fill="#23C865"/>
<circle cx="34.716" cy="402.851" r="1.23165" fill="#23C865"/>
<circle cx="51.9621" cy="402.851" r="1.23165" fill="#23C865"/>
<circle cx="69.2043" cy="402.851" r="1.23165" fill="#23C865"/>
<circle cx="86.4465" cy="402.851" r="1.23165" fill="#23C865"/>
<circle cx="103.689" cy="402.851" r="1.23165" fill="#23C865"/>
<circle cx="120.935" cy="402.851" r="1.23165" fill="#23C865"/>
<circle cx="138.177" cy="402.851" r="1.23165" fill="#23C865"/>
<circle cx="155.419" cy="402.851" r="1.23165" fill="#23C865"/>
<circle cx="172.661" cy="402.851" r="1.23165" fill="#23C865"/>
<circle cx="189.907" cy="402.851" r="1.23165" fill="#23C865"/>
<circle cx="207.15" cy="402.851" r="1.23165" fill="#23C865"/>
<circle cx="224.392" cy="402.851" r="1.23165" fill="#23C865"/>
<circle cx="241.634" cy="402.851" r="1.23165" fill="#23C865"/>
<circle cx="258.88" cy="402.851" r="1.23165" fill="#23C865"/>
<circle cx="276.122" cy="402.851" r="1.23165" fill="#23C865"/>
<circle cx="293.364" cy="402.851" r="1.23165" fill="#23C865"/>
<circle cx="310.607" cy="402.851" r="1.23165" fill="#23C865"/>
<circle cx="328.345" cy="402.851" r="1.23165" fill="#23C865"/>
<circle cx="345.587" cy="402.851" r="1.23165" fill="#23C865"/>
<circle cx="362.829" cy="402.851" r="1.23165" fill="#23C865"/>
<circle cx="0.231651" cy="247.663" r="1.23165" fill="#23C865"/>
<circle cx="17.4738" cy="247.663" r="1.23165" fill="#23C865"/>
<circle cx="34.716" cy="247.663" r="1.23165" fill="#23C865"/>
<circle cx="51.9621" cy="247.663" r="1.23165" fill="#23C865"/>
<circle cx="69.2043" cy="247.663" r="1.23165" fill="#23C865"/>
<circle cx="86.4465" cy="247.663" r="1.23165" fill="#23C865"/>
<circle cx="103.689" cy="247.663" r="1.23165" fill="#23C865"/>
<circle cx="120.935" cy="247.663" r="1.23165" fill="#23C865"/>
<circle cx="138.177" cy="247.663" r="1.23165" fill="#23C865"/>
<circle cx="155.419" cy="247.663" r="1.23165" fill="#23C865"/>
<circle cx="172.661" cy="247.663" r="1.23165" fill="#23C865"/>
<circle cx="189.907" cy="247.663" r="1.23165" fill="#23C865"/>
<circle cx="207.15" cy="247.663" r="1.23165" fill="#23C865"/>
<circle cx="224.392" cy="247.663" r="1.23165" fill="#23C865"/>
<circle cx="241.634" cy="247.663" r="1.23165" fill="#23C865"/>
<circle cx="258.88" cy="247.663" r="1.23165" fill="#23C865"/>
<circle cx="276.122" cy="247.663" r="1.23165" fill="#23C865"/>
<circle cx="293.364" cy="247.663" r="1.23165" fill="#23C865"/>
<circle cx="310.607" cy="247.663" r="1.23165" fill="#23C865"/>
<circle cx="328.345" cy="247.663" r="1.23165" fill="#23C865"/>
<circle cx="345.587" cy="247.663" r="1.23165" fill="#23C865"/>
<circle cx="362.829" cy="247.663" r="1.23165" fill="#23C865"/>
<circle cx="0.231651" cy="264.905" r="1.23165" fill="#23C865"/>
<circle cx="17.4738" cy="264.905" r="1.23165" fill="#23C865"/>
<circle cx="34.716" cy="264.905" r="1.23165" fill="#23C865"/>
<circle cx="51.9621" cy="264.905" r="1.23165" fill="#23C865"/>
<circle cx="69.2043" cy="264.905" r="1.23165" fill="#23C865"/>
<circle cx="86.4465" cy="264.905" r="1.23165" fill="#23C865"/>
<circle cx="103.689" cy="264.905" r="1.23165" fill="#23C865"/>
<circle cx="120.935" cy="264.905" r="1.23165" fill="#23C865"/>
<circle cx="138.177" cy="264.905" r="1.23165" fill="#23C865"/>
<circle cx="155.419" cy="264.905" r="1.23165" fill="#23C865"/>
<circle cx="172.661" cy="264.905" r="1.23165" fill="#23C865"/>
<circle cx="189.907" cy="264.905" r="1.23165" fill="#23C865"/>
<circle cx="207.15" cy="264.905" r="1.23165" fill="#23C865"/>
<circle cx="224.392" cy="264.905" r="1.23165" fill="#23C865"/>
<circle cx="241.634" cy="264.905" r="1.23165" fill="#23C865"/>
<circle cx="258.88" cy="264.905" r="1.23165" fill="#23C865"/>
<circle cx="276.122" cy="264.905" r="1.23165" fill="#23C865"/>
<circle cx="293.364" cy="264.905" r="1.23165" fill="#23C865"/>
<circle cx="310.607" cy="264.905" r="1.23165" fill="#23C865"/>
<circle cx="328.345" cy="264.905" r="1.23165" fill="#23C865"/>
<circle cx="345.587" cy="264.905" r="1.23165" fill="#23C865"/>
<circle cx="362.829" cy="264.905" r="1.23165" fill="#23C865"/>
<circle cx="0.231651" cy="523.552" r="1.23165" fill="#23C865"/>
<circle cx="17.4738" cy="523.552" r="1.23165" fill="#23C865"/>
<circle cx="34.716" cy="523.552" r="1.23165" fill="#23C865"/>
<circle cx="51.9621" cy="523.552" r="1.23165" fill="#23C865"/>
<circle cx="69.2043" cy="523.552" r="1.23165" fill="#23C865"/>
<circle cx="86.4465" cy="523.552" r="1.23165" fill="#23C865"/>
<circle cx="103.689" cy="523.552" r="1.23165" fill="#23C865"/>
<circle cx="120.935" cy="523.552" r="1.23165" fill="#23C865"/>
<circle cx="138.177" cy="523.552" r="1.23165" fill="#23C865"/>
<circle cx="155.419" cy="523.552" r="1.23165" fill="#23C865"/>
<circle cx="172.661" cy="523.552" r="1.23165" fill="#23C865"/>
<circle cx="189.907" cy="523.552" r="1.23165" fill="#23C865"/>
<circle cx="207.15" cy="523.552" r="1.23165" fill="#23C865"/>
<circle cx="224.392" cy="523.552" r="1.23165" fill="#23C865"/>
<circle cx="241.634" cy="523.552" r="1.23165" fill="#23C865"/>
<circle cx="258.88" cy="523.552" r="1.23165" fill="#23C865"/>
<circle cx="276.122" cy="523.552" r="1.23165" fill="#23C865"/>
<circle cx="293.364" cy="523.552" r="1.23165" fill="#23C865"/>
<circle cx="310.607" cy="523.552" r="1.23165" fill="#23C865"/>
<circle cx="328.345" cy="523.552" r="1.23165" fill="#23C865"/>
<circle cx="345.587" cy="523.552" r="1.23165" fill="#23C865"/>
<circle cx="362.829" cy="523.552" r="1.23165" fill="#23C865"/>
<circle cx="0.231651" cy="540.796" r="1.23165" fill="#23C865"/>
<circle cx="17.4738" cy="540.796" r="1.23165" fill="#23C865"/>
<circle cx="34.716" cy="540.796" r="1.23165" fill="#23C865"/>
<circle cx="51.9621" cy="540.796" r="1.23165" fill="#23C865"/>
<circle cx="69.2043" cy="540.796" r="1.23165" fill="#23C865"/>
<circle cx="86.4465" cy="540.796" r="1.23165" fill="#23C865"/>
<circle cx="103.689" cy="540.796" r="1.23165" fill="#23C865"/>
<circle cx="120.935" cy="540.796" r="1.23165" fill="#23C865"/>
<circle cx="138.177" cy="540.796" r="1.23165" fill="#23C865"/>
<circle cx="155.419" cy="540.796" r="1.23165" fill="#23C865"/>
<circle cx="172.661" cy="540.796" r="1.23165" fill="#23C865"/>
<circle cx="189.907" cy="540.796" r="1.23165" fill="#23C865"/>
<circle cx="207.15" cy="540.796" r="1.23165" fill="#23C865"/>
<circle cx="224.392" cy="540.796" r="1.23165" fill="#23C865"/>
<circle cx="241.634" cy="540.796" r="1.23165" fill="#23C865"/>
<circle cx="258.88" cy="540.796" r="1.23165" fill="#23C865"/>
<circle cx="276.122" cy="540.796" r="1.23165" fill="#23C865"/>
<circle cx="293.364" cy="540.796" r="1.23165" fill="#23C865"/>
<circle cx="310.607" cy="540.796" r="1.23165" fill="#23C865"/>
<circle cx="328.345" cy="540.796" r="1.23165" fill="#23C865"/>
<circle cx="345.587" cy="540.796" r="1.23165" fill="#23C865"/>
<circle cx="362.829" cy="540.796" r="1.23165" fill="#23C865"/>
<circle cx="0.231651" cy="178.691" r="1.23165" fill="#23C865"/>
<circle cx="17.4738" cy="178.691" r="1.23165" fill="#23C865"/>
<circle cx="34.716" cy="178.691" r="1.23165" fill="#23C865"/>
<circle cx="51.9621" cy="178.691" r="1.23165" fill="#23C865"/>
<circle cx="69.2043" cy="178.691" r="1.23165" fill="#23C865"/>
<circle cx="86.4465" cy="178.691" r="1.23165" fill="#23C865"/>
<circle cx="103.689" cy="178.691" r="1.23165" fill="#23C865"/>
<circle cx="120.935" cy="178.691" r="1.23165" fill="#23C865"/>
<circle cx="138.177" cy="178.691" r="1.23165" fill="#23C865"/>
<circle cx="155.419" cy="178.691" r="1.23165" fill="#23C865"/>
<circle cx="172.661" cy="178.691" r="1.23165" fill="#23C865"/>
<circle cx="189.907" cy="178.691" r="1.23165" fill="#23C865"/>
<circle cx="207.15" cy="178.691" r="1.23165" fill="#23C865"/>
<circle cx="224.392" cy="178.691" r="1.23165" fill="#23C865"/>
<circle cx="241.634" cy="178.691" r="1.23165" fill="#23C865"/>
<circle cx="258.88" cy="178.691" r="1.23165" fill="#23C865"/>
<circle cx="276.122" cy="178.691" r="1.23165" fill="#23C865"/>
<circle cx="293.364" cy="178.691" r="1.23165" fill="#23C865"/>
<circle cx="310.607" cy="178.691" r="1.23165" fill="#23C865"/>
<circle cx="328.345" cy="178.691" r="1.23165" fill="#23C865"/>
<circle cx="345.587" cy="178.691" r="1.23165" fill="#23C865"/>
<circle cx="362.829" cy="178.691" r="1.23165" fill="#23C865"/>
<circle cx="0.231651" cy="195.933" r="1.23165" fill="#23C865"/>
<circle cx="17.4738" cy="195.933" r="1.23165" fill="#23C865"/>
<circle cx="34.716" cy="195.933" r="1.23165" fill="#23C865"/>
<circle cx="51.9621" cy="195.933" r="1.23165" fill="#23C865"/>
<circle cx="69.2043" cy="195.933" r="1.23165" fill="#23C865"/>
<circle cx="86.4465" cy="195.933" r="1.23165" fill="#23C865"/>
<circle cx="103.689" cy="195.933" r="1.23165" fill="#23C865"/>
<circle cx="120.935" cy="195.933" r="1.23165" fill="#23C865"/>
<circle cx="138.177" cy="195.933" r="1.23165" fill="#23C865"/>
<circle cx="155.419" cy="195.933" r="1.23165" fill="#23C865"/>
<circle cx="172.661" cy="195.933" r="1.23165" fill="#23C865"/>
<circle cx="189.907" cy="195.933" r="1.23165" fill="#23C865"/>
<circle cx="207.15" cy="195.933" r="1.23165" fill="#23C865"/>
<circle cx="224.392" cy="195.933" r="1.23165" fill="#23C865"/>
<circle cx="241.634" cy="195.933" r="1.23165" fill="#23C865"/>
<circle cx="258.88" cy="195.933" r="1.23165" fill="#23C865"/>
<circle cx="276.122" cy="195.933" r="1.23165" fill="#23C865"/>
<circle cx="293.364" cy="195.933" r="1.23165" fill="#23C865"/>
<circle cx="310.607" cy="195.933" r="1.23165" fill="#23C865"/>
<circle cx="328.345" cy="195.933" r="1.23165" fill="#23C865"/>
<circle cx="345.587" cy="195.933" r="1.23165" fill="#23C865"/>
<circle cx="362.829" cy="195.933" r="1.23165" fill="#23C865"/>
<circle cx="0.231651" cy="454.581" r="1.23165" fill="#23C865"/>
<circle cx="17.4738" cy="454.581" r="1.23165" fill="#23C865"/>
<circle cx="34.716" cy="454.581" r="1.23165" fill="#23C865"/>
<circle cx="51.9621" cy="454.581" r="1.23165" fill="#23C865"/>
<circle cx="69.2043" cy="454.581" r="1.23165" fill="#23C865"/>
<circle cx="86.4465" cy="454.581" r="1.23165" fill="#23C865"/>
<circle cx="103.689" cy="454.581" r="1.23165" fill="#23C865"/>
<circle cx="120.935" cy="454.581" r="1.23165" fill="#23C865"/>
<circle cx="138.177" cy="454.581" r="1.23165" fill="#23C865"/>
<circle cx="155.419" cy="454.581" r="1.23165" fill="#23C865"/>
<circle cx="172.661" cy="454.581" r="1.23165" fill="#23C865"/>
<circle cx="189.907" cy="454.581" r="1.23165" fill="#23C865"/>
<circle cx="207.15" cy="454.581" r="1.23165" fill="#23C865"/>
<circle cx="224.392" cy="454.581" r="1.23165" fill="#23C865"/>
<circle cx="241.634" cy="454.581" r="1.23165" fill="#23C865"/>
<circle cx="258.88" cy="454.581" r="1.23165" fill="#23C865"/>
<circle cx="276.122" cy="454.581" r="1.23165" fill="#23C865"/>
<circle cx="293.364" cy="454.581" r="1.23165" fill="#23C865"/>
<circle cx="310.607" cy="454.581" r="1.23165" fill="#23C865"/>
<circle cx="328.345" cy="454.581" r="1.23165" fill="#23C865"/>
<circle cx="345.587" cy="454.581" r="1.23165" fill="#23C865"/>
<circle cx="362.829" cy="454.581" r="1.23165" fill="#23C865"/>
<circle cx="0.231651" cy="471.823" r="1.23165" fill="#23C865"/>
<circle cx="17.4738" cy="471.823" r="1.23165" fill="#23C865"/>
<circle cx="34.716" cy="471.823" r="1.23165" fill="#23C865"/>
<circle cx="51.9621" cy="471.823" r="1.23165" fill="#23C865"/>
<circle cx="69.2043" cy="471.823" r="1.23165" fill="#23C865"/>
<circle cx="86.4465" cy="471.823" r="1.23165" fill="#23C865"/>
<circle cx="103.689" cy="471.823" r="1.23165" fill="#23C865"/>
<circle cx="120.935" cy="471.823" r="1.23165" fill="#23C865"/>
<circle cx="138.177" cy="471.823" r="1.23165" fill="#23C865"/>
<circle cx="155.419" cy="471.823" r="1.23165" fill="#23C865"/>
<circle cx="172.661" cy="471.823" r="1.23165" fill="#23C865"/>
<circle cx="189.907" cy="471.823" r="1.23165" fill="#23C865"/>
<circle cx="207.15" cy="471.823" r="1.23165" fill="#23C865"/>
<circle cx="224.392" cy="471.823" r="1.23165" fill="#23C865"/>
<circle cx="241.634" cy="471.823" r="1.23165" fill="#23C865"/>
<circle cx="258.88" cy="471.823" r="1.23165" fill="#23C865"/>
<circle cx="276.122" cy="471.823" r="1.23165" fill="#23C865"/>
<circle cx="293.364" cy="471.823" r="1.23165" fill="#23C865"/>
<circle cx="310.607" cy="471.823" r="1.23165" fill="#23C865"/>
<circle cx="328.345" cy="471.823" r="1.23165" fill="#23C865"/>
<circle cx="345.587" cy="471.823" r="1.23165" fill="#23C865"/>
<circle cx="362.829" cy="471.823" r="1.23165" fill="#23C865"/>
<circle cx="0.231651" cy="316.636" r="1.23165" fill="#23C865"/>
<circle cx="17.4738" cy="316.636" r="1.23165" fill="#23C865"/>
<circle cx="34.716" cy="316.636" r="1.23165" fill="#23C865"/>
<circle cx="51.9621" cy="316.636" r="1.23165" fill="#23C865"/>
<circle cx="69.2043" cy="316.636" r="1.23165" fill="#23C865"/>
<circle cx="86.4465" cy="316.636" r="1.23165" fill="#23C865"/>
<circle cx="103.689" cy="316.636" r="1.23165" fill="#23C865"/>
<circle cx="120.935" cy="316.636" r="1.23165" fill="#23C865"/>
<circle cx="138.177" cy="316.636" r="1.23165" fill="#23C865"/>
<circle cx="155.419" cy="316.636" r="1.23165" fill="#23C865"/>
<circle cx="172.661" cy="316.636" r="1.23165" fill="#23C865"/>
<circle cx="189.907" cy="316.636" r="1.23165" fill="#23C865"/>
<circle cx="207.15" cy="316.636" r="1.23165" fill="#23C865"/>
<circle cx="224.392" cy="316.636" r="1.23165" fill="#23C865"/>
<circle cx="241.634" cy="316.636" r="1.23165" fill="#23C865"/>
<circle cx="258.88" cy="316.636" r="1.23165" fill="#23C865"/>
<circle cx="276.122" cy="316.636" r="1.23165" fill="#23C865"/>
<circle cx="293.364" cy="316.636" r="1.23165" fill="#23C865"/>
<circle cx="310.607" cy="316.636" r="1.23165" fill="#23C865"/>
<circle cx="328.345" cy="316.636" r="1.23165" fill="#23C865"/>
<circle cx="345.587" cy="316.636" r="1.23165" fill="#23C865"/>
<circle cx="362.829" cy="316.636" r="1.23165" fill="#23C865"/>
<circle cx="0.231651" cy="333.878" r="1.23165" fill="#23C865"/>
<circle cx="17.4738" cy="333.878" r="1.23165" fill="#23C865"/>
<circle cx="34.716" cy="333.878" r="1.23165" fill="#23C865"/>
<circle cx="51.9621" cy="333.878" r="1.23165" fill="#23C865"/>
<circle cx="69.2043" cy="333.878" r="1.23165" fill="#23C865"/>
<circle cx="86.4465" cy="333.878" r="1.23165" fill="#23C865"/>
<circle cx="103.689" cy="333.878" r="1.23165" fill="#23C865"/>
<circle cx="120.935" cy="333.878" r="1.23165" fill="#23C865"/>
<circle cx="138.177" cy="333.878" r="1.23165" fill="#23C865"/>
<circle cx="155.419" cy="333.878" r="1.23165" fill="#23C865"/>
<circle cx="172.661" cy="333.878" r="1.23165" fill="#23C865"/>
<circle cx="189.907" cy="333.878" r="1.23165" fill="#23C865"/>
<circle cx="207.15" cy="333.878" r="1.23165" fill="#23C865"/>
<circle cx="224.392" cy="333.878" r="1.23165" fill="#23C865"/>
<circle cx="241.634" cy="333.878" r="1.23165" fill="#23C865"/>
<circle cx="258.88" cy="333.878" r="1.23165" fill="#23C865"/>
<circle cx="276.122" cy="333.878" r="1.23165" fill="#23C865"/>
<circle cx="293.364" cy="333.878" r="1.23165" fill="#23C865"/>
<circle cx="310.607" cy="333.878" r="1.23165" fill="#23C865"/>
<circle cx="328.345" cy="333.878" r="1.23165" fill="#23C865"/>
<circle cx="345.587" cy="333.878" r="1.23165" fill="#23C865"/>
<circle cx="362.829" cy="333.878" r="1.23165" fill="#23C865"/>
<circle cx="0.231651" cy="592.525" r="1.23165" fill="#23C865"/>
<circle cx="17.4738" cy="592.525" r="1.23165" fill="#23C865"/>
<circle cx="34.716" cy="592.525" r="1.23165" fill="#23C865"/>
<circle cx="51.9621" cy="592.525" r="1.23165" fill="#23C865"/>
<circle cx="69.2043" cy="592.525" r="1.23165" fill="#23C865"/>
<circle cx="86.4465" cy="592.525" r="1.23165" fill="#23C865"/>
<circle cx="103.689" cy="592.525" r="1.23165" fill="#23C865"/>
<circle cx="120.935" cy="592.525" r="1.23165" fill="#23C865"/>
<circle cx="138.177" cy="592.525" r="1.23165" fill="#23C865"/>
<circle cx="155.419" cy="592.525" r="1.23165" fill="#23C865"/>
<circle cx="172.661" cy="592.525" r="1.23165" fill="#23C865"/>
<circle cx="189.907" cy="592.525" r="1.23165" fill="#23C865"/>
<circle cx="207.15" cy="592.525" r="1.23165" fill="#23C865"/>
<circle cx="224.392" cy="592.525" r="1.23165" fill="#23C865"/>
<circle cx="241.634" cy="592.525" r="1.23165" fill="#23C865"/>
<circle cx="258.88" cy="592.525" r="1.23165" fill="#23C865"/>
<circle cx="276.122" cy="592.525" r="1.23165" fill="#23C865"/>
<circle cx="293.364" cy="592.525" r="1.23165" fill="#23C865"/>
<circle cx="310.607" cy="592.525" r="1.23165" fill="#23C865"/>
<circle cx="328.345" cy="592.525" r="1.23165" fill="#23C865"/>
<circle cx="345.587" cy="592.525" r="1.23165" fill="#23C865"/>
<circle cx="362.829" cy="592.525" r="1.23165" fill="#23C865"/>
<circle cx="0.231651" cy="626.474" r="1.23165" fill="#23C865"/>
<circle cx="17.4738" cy="626.474" r="1.23165" fill="#23C865"/>
<circle cx="34.716" cy="626.474" r="1.23165" fill="#23C865"/>
<circle cx="51.9621" cy="626.474" r="1.23165" fill="#23C865"/>
<circle cx="69.2043" cy="626.474" r="1.23165" fill="#23C865"/>
<circle cx="86.4465" cy="626.474" r="1.23165" fill="#23C865"/>
<circle cx="103.689" cy="626.474" r="1.23165" fill="#23C865"/>
<circle cx="120.935" cy="626.474" r="1.23165" fill="#23C865"/>
<circle cx="138.177" cy="626.474" r="1.23165" fill="#23C865"/>
<circle cx="155.419" cy="626.474" r="1.23165" fill="#23C865"/>
<circle cx="172.661" cy="626.474" r="1.23165" fill="#23C865"/>
<circle cx="189.907" cy="626.474" r="1.23165" fill="#23C865"/>
<circle cx="207.15" cy="626.474" r="1.23165" fill="#23C865"/>
<circle cx="224.392" cy="626.474" r="1.23165" fill="#23C865"/>
<circle cx="241.634" cy="626.474" r="1.23165" fill="#23C865"/>
<circle cx="258.88" cy="626.474" r="1.23165" fill="#23C865"/>
<circle cx="276.122" cy="626.474" r="1.23165" fill="#23C865"/>
<circle cx="293.364" cy="626.474" r="1.23165" fill="#23C865"/>
<circle cx="310.607" cy="626.474" r="1.23165" fill="#23C865"/>
<circle cx="328.345" cy="626.474" r="1.23165" fill="#23C865"/>
<circle cx="345.587" cy="626.474" r="1.23165" fill="#23C865"/>
<circle cx="362.829" cy="626.474" r="1.23165" fill="#23C865"/>
<circle cx="0.231651" cy="643.718" r="1.23165" fill="#23C865"/>
<circle cx="17.4738" cy="643.718" r="1.23165" fill="#23C865"/>
<circle cx="34.716" cy="643.718" r="1.23165" fill="#23C865"/>
<circle cx="51.9621" cy="643.718" r="1.23165" fill="#23C865"/>
<circle cx="69.2043" cy="643.718" r="1.23165" fill="#23C865"/>
<circle cx="86.4465" cy="643.718" r="1.23165" fill="#23C865"/>
<circle cx="103.689" cy="643.718" r="1.23165" fill="#23C865"/>
<circle cx="120.935" cy="643.718" r="1.23165" fill="#23C865"/>
<circle cx="138.177" cy="643.718" r="1.23165" fill="#23C865"/>
<circle cx="155.419" cy="643.718" r="1.23165" fill="#23C865"/>
<circle cx="172.661" cy="643.718" r="1.23165" fill="#23C865"/>
<circle cx="189.907" cy="643.718" r="1.23165" fill="#23C865"/>
<circle cx="207.15" cy="643.718" r="1.23165" fill="#23C865"/>
<circle cx="224.392" cy="643.718" r="1.23165" fill="#23C865"/>
<circle cx="241.634" cy="643.718" r="1.23165" fill="#23C865"/>
<circle cx="258.88" cy="643.718" r="1.23165" fill="#23C865"/>
<circle cx="276.122" cy="643.718" r="1.23165" fill="#23C865"/>
<circle cx="293.364" cy="643.718" r="1.23165" fill="#23C865"/>
<circle cx="310.607" cy="643.718" r="1.23165" fill="#23C865"/>
<circle cx="328.345" cy="643.718" r="1.23165" fill="#23C865"/>
<circle cx="345.587" cy="643.718" r="1.23165" fill="#23C865"/>
<circle cx="362.829" cy="643.718" r="1.23165" fill="#23C865"/>
<circle cx="0.231651" cy="660.96" r="1.23165" fill="#23C865"/>
<circle cx="17.4738" cy="660.96" r="1.23165" fill="#23C865"/>
<circle cx="34.716" cy="660.96" r="1.23165" fill="#23C865"/>
<circle cx="51.9621" cy="660.96" r="1.23165" fill="#23C865"/>
<circle cx="69.2043" cy="660.96" r="1.23165" fill="#23C865"/>
<circle cx="86.4465" cy="660.96" r="1.23165" fill="#23C865"/>
<circle cx="103.689" cy="660.96" r="1.23165" fill="#23C865"/>
<circle cx="120.935" cy="660.96" r="1.23165" fill="#23C865"/>
<circle cx="138.177" cy="660.96" r="1.23165" fill="#23C865"/>
<circle cx="155.419" cy="660.96" r="1.23165" fill="#23C865"/>
<circle cx="172.661" cy="660.96" r="1.23165" fill="#23C865"/>
<circle cx="189.907" cy="660.96" r="1.23165" fill="#23C865"/>
<circle cx="207.15" cy="660.96" r="1.23165" fill="#23C865"/>
<circle cx="224.392" cy="660.96" r="1.23165" fill="#23C865"/>
<circle cx="241.634" cy="660.96" r="1.23165" fill="#23C865"/>
<circle cx="258.88" cy="660.96" r="1.23165" fill="#23C865"/>
<circle cx="276.122" cy="660.96" r="1.23165" fill="#23C865"/>
<circle cx="293.364" cy="660.96" r="1.23165" fill="#23C865"/>
<circle cx="310.607" cy="660.96" r="1.23165" fill="#23C865"/>
<circle cx="328.345" cy="660.96" r="1.23165" fill="#23C865"/>
<circle cx="345.587" cy="660.96" r="1.23165" fill="#23C865"/>
<circle cx="362.829" cy="660.96" r="1.23165" fill="#23C865"/>
<circle cx="0.231651" cy="609.232" r="1.23165" fill="#23C865"/>
<circle cx="17.4738" cy="609.232" r="1.23165" fill="#23C865"/>
<circle cx="34.716" cy="609.232" r="1.23165" fill="#23C865"/>
<circle cx="51.9621" cy="609.232" r="1.23165" fill="#23C865"/>
<circle cx="69.2043" cy="609.232" r="1.23165" fill="#23C865"/>
<circle cx="86.4465" cy="609.232" r="1.23165" fill="#23C865"/>
<circle cx="103.689" cy="609.232" r="1.23165" fill="#23C865"/>
<circle cx="120.935" cy="609.232" r="1.23165" fill="#23C865"/>
<circle cx="138.177" cy="609.232" r="1.23165" fill="#23C865"/>
<circle cx="155.419" cy="609.232" r="1.23165" fill="#23C865"/>
<circle cx="172.661" cy="609.232" r="1.23165" fill="#23C865"/>
<circle cx="189.907" cy="609.232" r="1.23165" fill="#23C865"/>
<circle cx="207.15" cy="609.232" r="1.23165" fill="#23C865"/>
<circle cx="224.392" cy="609.232" r="1.23165" fill="#23C865"/>
<circle cx="241.634" cy="609.232" r="1.23165" fill="#23C865"/>
<circle cx="258.88" cy="609.232" r="1.23165" fill="#23C865"/>
<circle cx="276.122" cy="609.232" r="1.23165" fill="#23C865"/>
<circle cx="293.364" cy="609.232" r="1.23165" fill="#23C865"/>
<circle cx="310.607" cy="609.232" r="1.23165" fill="#23C865"/>
<circle cx="328.345" cy="609.232" r="1.23165" fill="#23C865"/>
<circle cx="345.587" cy="609.232" r="1.23165" fill="#23C865"/>
<circle cx="362.829" cy="609.232" r="1.23165" fill="#23C865"/>
<path fill-rule="evenodd" clip-rule="evenodd" d="M188.494 527.678C334.16 527.678 452.246 409.592 452.246 263.926C452.246 118.26 334.16 0.173828 188.494 0.173828C42.8279 0.173828 -75.2578 118.26 -75.2578 263.926C-75.2578 409.592 42.8279 527.678 188.494 527.678ZM188.458 332.091C225.991 332.091 256.417 301.665 256.417 264.132C256.417 226.6 225.991 196.174 188.458 196.174C150.926 196.174 120.5 226.6 120.5 264.132C120.5 301.665 150.926 332.091 188.458 332.091Z" fill="url(#paint0_radial_1505_97)"/>
<circle cx="188.242" cy="263.155" r="70.5002" fill="white"/>
<defs>
<radialGradient id="paint0_radial_1505_97" cx="0" cy="0" r="1" gradientUnits="userSpaceOnUse" gradientTransform="translate(188.494 263.926) rotate(90) scale(263.752)">
<stop offset="0.234375" stop-color="#23C865"/>
<stop offset="0.84375" stop-color="#E9E9E9" stop-opacity="0"/>
</radialGradient>
</defs>
</svg>
