<svg width="1303" height="1080" viewBox="0 0 1303 1080" fill="none" xmlns="http://www.w3.org/2000/svg">
<circle cx="37.5" cy="601.5" r="2.5" fill="#23C865"/>
<circle cx="72.5" cy="601.5" r="2.5" fill="#23C865"/>
<circle cx="107.5" cy="601.5" r="2.5" fill="#23C865"/>
<circle cx="142.5" cy="601.5" r="2.5" fill="#23C865"/>
<circle cx="177.5" cy="601.5" r="2.5" fill="#23C865"/>
<circle cx="212.5" cy="601.5" r="2.5" fill="#23C865"/>
<circle cx="247.5" cy="601.5" r="2.5" fill="#23C865"/>
<circle cx="282.5" cy="601.5" r="2.5" fill="#23C865"/>
<circle cx="317.5" cy="601.5" r="2.5" fill="#23C865"/>
<circle cx="352.5" cy="601.5" r="2.5" fill="#23C865"/>
<circle cx="387.5" cy="601.5" r="2.5" fill="#23C865"/>
<circle cx="422.5" cy="601.5" r="2.5" fill="#23C865"/>
<circle cx="457.5" cy="601.5" r="2.5" fill="#23C865"/>
<circle cx="492.5" cy="601.5" r="2.5" fill="#23C865"/>
<circle cx="527.5" cy="601.5" r="2.5" fill="#23C865"/>
<circle cx="562.5" cy="601.5" r="2.5" fill="#23C865"/>
<circle cx="597.5" cy="601.5" r="2.5" fill="#23C865"/>
<circle cx="632.5" cy="601.5" r="2.5" fill="#23C865"/>
<circle cx="667.5" cy="601.5" r="2.5" fill="#23C865"/>
<circle cx="703.5" cy="601.5" r="2.5" fill="#23C865"/>
<circle cx="738.5" cy="601.5" r="2.5" fill="#23C865"/>
<circle cx="773.5" cy="601.5" r="2.5" fill="#23C865"/>
<circle cx="808.5" cy="601.5" r="2.5" fill="#23C865"/>
<circle cx="843.5" cy="601.5" r="2.5" fill="#23C865"/>
<circle cx="878.5" cy="601.5" r="2.5" fill="#23C865"/>
<circle cx="913.5" cy="601.5" r="2.5" fill="#23C865"/>
<circle cx="948.5" cy="601.5" r="2.5" fill="#23C865"/>
<circle cx="983.5" cy="601.5" r="2.5" fill="#23C865"/>
<circle cx="1018.5" cy="601.5" r="2.5" fill="#23C865"/>
<circle cx="1053.5" cy="601.5" r="2.5" fill="#23C865"/>
<circle cx="1088.5" cy="601.5" r="2.5" fill="#23C865"/>
<circle cx="1123.5" cy="601.5" r="2.5" fill="#23C865"/>
<circle cx="1158.5" cy="601.5" r="2.5" fill="#23C865"/>
<circle cx="1193.5" cy="601.5" r="2.5" fill="#23C865"/>
<circle cx="1228.5" cy="601.5" r="2.5" fill="#23C865"/>
<circle cx="1263.5" cy="601.5" r="2.5" fill="#23C865"/>
<circle cx="37.5" cy="636.5" r="2.5" fill="#23C865"/>
<circle cx="72.5" cy="636.5" r="2.5" fill="#23C865"/>
<circle cx="107.5" cy="636.5" r="2.5" fill="#23C865"/>
<circle cx="142.5" cy="636.5" r="2.5" fill="#23C865"/>
<circle cx="177.5" cy="636.5" r="2.5" fill="#23C865"/>
<circle cx="212.5" cy="636.5" r="2.5" fill="#23C865"/>
<circle cx="247.5" cy="636.5" r="2.5" fill="#23C865"/>
<circle cx="282.5" cy="636.5" r="2.5" fill="#23C865"/>
<circle cx="317.5" cy="636.5" r="2.5" fill="#23C865"/>
<circle cx="352.5" cy="636.5" r="2.5" fill="#23C865"/>
<circle cx="387.5" cy="636.5" r="2.5" fill="#23C865"/>
<circle cx="422.5" cy="636.5" r="2.5" fill="#23C865"/>
<circle cx="457.5" cy="636.5" r="2.5" fill="#23C865"/>
<circle cx="492.5" cy="636.5" r="2.5" fill="#23C865"/>
<circle cx="527.5" cy="636.5" r="2.5" fill="#23C865"/>
<circle cx="562.5" cy="636.5" r="2.5" fill="#23C865"/>
<circle cx="597.5" cy="636.5" r="2.5" fill="#23C865"/>
<circle cx="632.5" cy="636.5" r="2.5" fill="#23C865"/>
<circle cx="667.5" cy="636.5" r="2.5" fill="#23C865"/>
<circle cx="703.5" cy="636.5" r="2.5" fill="#23C865"/>
<circle cx="738.5" cy="636.5" r="2.5" fill="#23C865"/>
<circle cx="773.5" cy="636.5" r="2.5" fill="#23C865"/>
<circle cx="808.5" cy="636.5" r="2.5" fill="#23C865"/>
<circle cx="843.5" cy="636.5" r="2.5" fill="#23C865"/>
<circle cx="878.5" cy="636.5" r="2.5" fill="#23C865"/>
<circle cx="913.5" cy="636.5" r="2.5" fill="#23C865"/>
<circle cx="948.5" cy="636.5" r="2.5" fill="#23C865"/>
<circle cx="983.5" cy="636.5" r="2.5" fill="#23C865"/>
<circle cx="1018.5" cy="636.5" r="2.5" fill="#23C865"/>
<circle cx="1053.5" cy="636.5" r="2.5" fill="#23C865"/>
<circle cx="1088.5" cy="636.5" r="2.5" fill="#23C865"/>
<circle cx="1123.5" cy="636.5" r="2.5" fill="#23C865"/>
<circle cx="1158.5" cy="636.5" r="2.5" fill="#23C865"/>
<circle cx="1193.5" cy="636.5" r="2.5" fill="#23C865"/>
<circle cx="1228.5" cy="636.5" r="2.5" fill="#23C865"/>
<circle cx="1263.5" cy="636.5" r="2.5" fill="#23C865"/>
<circle cx="37.5" cy="321.5" r="2.5" fill="#23C865"/>
<circle cx="72.5" cy="321.5" r="2.5" fill="#23C865"/>
<circle cx="107.5" cy="321.5" r="2.5" fill="#23C865"/>
<circle cx="142.5" cy="321.5" r="2.5" fill="#23C865"/>
<circle cx="177.5" cy="321.5" r="2.5" fill="#23C865"/>
<circle cx="212.5" cy="321.5" r="2.5" fill="#23C865"/>
<circle cx="247.5" cy="321.5" r="2.5" fill="#23C865"/>
<circle cx="282.5" cy="321.5" r="2.5" fill="#23C865"/>
<circle cx="317.5" cy="321.5" r="2.5" fill="#23C865"/>
<circle cx="352.5" cy="321.5" r="2.5" fill="#23C865"/>
<circle cx="387.5" cy="321.5" r="2.5" fill="#23C865"/>
<circle cx="422.5" cy="321.5" r="2.5" fill="#23C865"/>
<circle cx="457.5" cy="321.5" r="2.5" fill="#23C865"/>
<circle cx="492.5" cy="321.5" r="2.5" fill="#23C865"/>
<circle cx="527.5" cy="321.5" r="2.5" fill="#23C865"/>
<circle cx="562.5" cy="321.5" r="2.5" fill="#23C865"/>
<circle cx="597.5" cy="321.5" r="2.5" fill="#23C865"/>
<circle cx="632.5" cy="321.5" r="2.5" fill="#23C865"/>
<circle cx="667.5" cy="321.5" r="2.5" fill="#23C865"/>
<circle cx="703.5" cy="321.5" r="2.5" fill="#23C865"/>
<circle cx="738.5" cy="321.5" r="2.5" fill="#23C865"/>
<circle cx="773.5" cy="321.5" r="2.5" fill="#23C865"/>
<circle cx="808.5" cy="321.5" r="2.5" fill="#23C865"/>
<circle cx="843.5" cy="321.5" r="2.5" fill="#23C865"/>
<circle cx="878.5" cy="321.5" r="2.5" fill="#23C865"/>
<circle cx="913.5" cy="321.5" r="2.5" fill="#23C865"/>
<circle cx="948.5" cy="321.5" r="2.5" fill="#23C865"/>
<circle cx="983.5" cy="321.5" r="2.5" fill="#23C865"/>
<circle cx="1018.5" cy="321.5" r="2.5" fill="#23C865"/>
<circle cx="1053.5" cy="321.5" r="2.5" fill="#23C865"/>
<circle cx="1088.5" cy="321.5" r="2.5" fill="#23C865"/>
<circle cx="1123.5" cy="321.5" r="2.5" fill="#23C865"/>
<circle cx="1158.5" cy="321.5" r="2.5" fill="#23C865"/>
<circle cx="1193.5" cy="321.5" r="2.5" fill="#23C865"/>
<circle cx="1228.5" cy="321.5" r="2.5" fill="#23C865"/>
<circle cx="1263.5" cy="321.5" r="2.5" fill="#23C865"/>
<circle cx="37.5" cy="356.5" r="2.5" fill="#23C865"/>
<circle cx="72.5" cy="356.5" r="2.5" fill="#23C865"/>
<circle cx="107.5" cy="356.5" r="2.5" fill="#23C865"/>
<circle cx="142.5" cy="356.5" r="2.5" fill="#23C865"/>
<circle cx="177.5" cy="356.5" r="2.5" fill="#23C865"/>
<circle cx="212.5" cy="356.5" r="2.5" fill="#23C865"/>
<circle cx="247.5" cy="356.5" r="2.5" fill="#23C865"/>
<circle cx="282.5" cy="356.5" r="2.5" fill="#23C865"/>
<circle cx="317.5" cy="356.5" r="2.5" fill="#23C865"/>
<circle cx="352.5" cy="356.5" r="2.5" fill="#23C865"/>
<circle cx="387.5" cy="356.5" r="2.5" fill="#23C865"/>
<circle cx="422.5" cy="356.5" r="2.5" fill="#23C865"/>
<circle cx="457.5" cy="356.5" r="2.5" fill="#23C865"/>
<circle cx="492.5" cy="356.5" r="2.5" fill="#23C865"/>
<circle cx="527.5" cy="356.5" r="2.5" fill="#23C865"/>
<circle cx="562.5" cy="356.5" r="2.5" fill="#23C865"/>
<circle cx="597.5" cy="356.5" r="2.5" fill="#23C865"/>
<circle cx="632.5" cy="356.5" r="2.5" fill="#23C865"/>
<circle cx="667.5" cy="356.5" r="2.5" fill="#23C865"/>
<circle cx="703.5" cy="356.5" r="2.5" fill="#23C865"/>
<circle cx="738.5" cy="356.5" r="2.5" fill="#23C865"/>
<circle cx="773.5" cy="356.5" r="2.5" fill="#23C865"/>
<circle cx="808.5" cy="356.5" r="2.5" fill="#23C865"/>
<circle cx="843.5" cy="356.5" r="2.5" fill="#23C865"/>
<circle cx="878.5" cy="356.5" r="2.5" fill="#23C865"/>
<circle cx="913.5" cy="356.5" r="2.5" fill="#23C865"/>
<circle cx="948.5" cy="356.5" r="2.5" fill="#23C865"/>
<circle cx="983.5" cy="356.5" r="2.5" fill="#23C865"/>
<circle cx="1018.5" cy="356.5" r="2.5" fill="#23C865"/>
<circle cx="1053.5" cy="356.5" r="2.5" fill="#23C865"/>
<circle cx="1088.5" cy="356.5" r="2.5" fill="#23C865"/>
<circle cx="1123.5" cy="356.5" r="2.5" fill="#23C865"/>
<circle cx="1158.5" cy="356.5" r="2.5" fill="#23C865"/>
<circle cx="1193.5" cy="356.5" r="2.5" fill="#23C865"/>
<circle cx="1228.5" cy="356.5" r="2.5" fill="#23C865"/>
<circle cx="1263.5" cy="356.5" r="2.5" fill="#23C865"/>
<circle cx="37.5" cy="881.5" r="2.5" fill="#23C865"/>
<circle cx="72.5" cy="881.5" r="2.5" fill="#23C865"/>
<circle cx="107.5" cy="881.5" r="2.5" fill="#23C865"/>
<circle cx="142.5" cy="881.5" r="2.5" fill="#23C865"/>
<circle cx="177.5" cy="881.5" r="2.5" fill="#23C865"/>
<circle cx="212.5" cy="881.5" r="2.5" fill="#23C865"/>
<circle cx="247.5" cy="881.5" r="2.5" fill="#23C865"/>
<circle cx="282.5" cy="881.5" r="2.5" fill="#23C865"/>
<circle cx="317.5" cy="881.5" r="2.5" fill="#23C865"/>
<circle cx="352.5" cy="881.5" r="2.5" fill="#23C865"/>
<circle cx="387.5" cy="881.5" r="2.5" fill="#23C865"/>
<circle cx="422.5" cy="881.5" r="2.5" fill="#23C865"/>
<circle cx="457.5" cy="881.5" r="2.5" fill="#23C865"/>
<circle cx="492.5" cy="881.5" r="2.5" fill="#23C865"/>
<circle cx="527.5" cy="881.5" r="2.5" fill="#23C865"/>
<circle cx="562.5" cy="881.5" r="2.5" fill="#23C865"/>
<circle cx="597.5" cy="881.5" r="2.5" fill="#23C865"/>
<circle cx="632.5" cy="881.5" r="2.5" fill="#23C865"/>
<circle cx="667.5" cy="881.5" r="2.5" fill="#23C865"/>
<circle cx="703.5" cy="881.5" r="2.5" fill="#23C865"/>
<circle cx="738.5" cy="881.5" r="2.5" fill="#23C865"/>
<circle cx="773.5" cy="881.5" r="2.5" fill="#23C865"/>
<circle cx="808.5" cy="881.5" r="2.5" fill="#23C865"/>
<circle cx="843.5" cy="881.5" r="2.5" fill="#23C865"/>
<circle cx="878.5" cy="881.5" r="2.5" fill="#23C865"/>
<circle cx="913.5" cy="881.5" r="2.5" fill="#23C865"/>
<circle cx="948.5" cy="881.5" r="2.5" fill="#23C865"/>
<circle cx="983.5" cy="881.5" r="2.5" fill="#23C865"/>
<circle cx="1018.5" cy="881.5" r="2.5" fill="#23C865"/>
<circle cx="1053.5" cy="881.5" r="2.5" fill="#23C865"/>
<circle cx="1088.5" cy="881.5" r="2.5" fill="#23C865"/>
<circle cx="1123.5" cy="881.5" r="2.5" fill="#23C865"/>
<circle cx="1158.5" cy="881.5" r="2.5" fill="#23C865"/>
<circle cx="1193.5" cy="881.5" r="2.5" fill="#23C865"/>
<circle cx="1228.5" cy="881.5" r="2.5" fill="#23C865"/>
<circle cx="1263.5" cy="881.5" r="2.5" fill="#23C865"/>
<circle cx="37.5" cy="916.5" r="2.5" fill="#23C865"/>
<circle cx="72.5" cy="916.5" r="2.5" fill="#23C865"/>
<circle cx="107.5" cy="916.5" r="2.5" fill="#23C865"/>
<circle cx="142.5" cy="916.5" r="2.5" fill="#23C865"/>
<circle cx="177.5" cy="916.5" r="2.5" fill="#23C865"/>
<circle cx="212.5" cy="916.5" r="2.5" fill="#23C865"/>
<circle cx="247.5" cy="916.5" r="2.5" fill="#23C865"/>
<circle cx="282.5" cy="916.5" r="2.5" fill="#23C865"/>
<circle cx="317.5" cy="916.5" r="2.5" fill="#23C865"/>
<circle cx="352.5" cy="916.5" r="2.5" fill="#23C865"/>
<circle cx="387.5" cy="916.5" r="2.5" fill="#23C865"/>
<circle cx="422.5" cy="916.5" r="2.5" fill="#23C865"/>
<circle cx="457.5" cy="916.5" r="2.5" fill="#23C865"/>
<circle cx="492.5" cy="916.5" r="2.5" fill="#23C865"/>
<circle cx="527.5" cy="916.5" r="2.5" fill="#23C865"/>
<circle cx="562.5" cy="916.5" r="2.5" fill="#23C865"/>
<circle cx="597.5" cy="916.5" r="2.5" fill="#23C865"/>
<circle cx="632.5" cy="916.5" r="2.5" fill="#23C865"/>
<circle cx="667.5" cy="916.5" r="2.5" fill="#23C865"/>
<circle cx="703.5" cy="916.5" r="2.5" fill="#23C865"/>
<circle cx="738.5" cy="916.5" r="2.5" fill="#23C865"/>
<circle cx="773.5" cy="916.5" r="2.5" fill="#23C865"/>
<circle cx="808.5" cy="916.5" r="2.5" fill="#23C865"/>
<circle cx="843.5" cy="916.5" r="2.5" fill="#23C865"/>
<circle cx="878.5" cy="916.5" r="2.5" fill="#23C865"/>
<circle cx="913.5" cy="916.5" r="2.5" fill="#23C865"/>
<circle cx="948.5" cy="916.5" r="2.5" fill="#23C865"/>
<circle cx="983.5" cy="916.5" r="2.5" fill="#23C865"/>
<circle cx="1018.5" cy="916.5" r="2.5" fill="#23C865"/>
<circle cx="1053.5" cy="916.5" r="2.5" fill="#23C865"/>
<circle cx="1088.5" cy="916.5" r="2.5" fill="#23C865"/>
<circle cx="1123.5" cy="916.5" r="2.5" fill="#23C865"/>
<circle cx="1158.5" cy="916.5" r="2.5" fill="#23C865"/>
<circle cx="1193.5" cy="916.5" r="2.5" fill="#23C865"/>
<circle cx="1228.5" cy="916.5" r="2.5" fill="#23C865"/>
<circle cx="1263.5" cy="916.5" r="2.5" fill="#23C865"/>
<circle cx="37.5" cy="181.5" r="2.5" fill="#23C865"/>
<circle cx="72.5" cy="181.5" r="2.5" fill="#23C865"/>
<circle cx="107.5" cy="181.5" r="2.5" fill="#23C865"/>
<circle cx="142.5" cy="181.5" r="2.5" fill="#23C865"/>
<circle cx="177.5" cy="181.5" r="2.5" fill="#23C865"/>
<circle cx="212.5" cy="181.5" r="2.5" fill="#23C865"/>
<circle cx="247.5" cy="181.5" r="2.5" fill="#23C865"/>
<circle cx="282.5" cy="181.5" r="2.5" fill="#23C865"/>
<circle cx="317.5" cy="181.5" r="2.5" fill="#23C865"/>
<circle cx="352.5" cy="181.5" r="2.5" fill="#23C865"/>
<circle cx="387.5" cy="181.5" r="2.5" fill="#23C865"/>
<circle cx="422.5" cy="181.5" r="2.5" fill="#23C865"/>
<circle cx="457.5" cy="181.5" r="2.5" fill="#23C865"/>
<circle cx="492.5" cy="181.5" r="2.5" fill="#23C865"/>
<circle cx="527.5" cy="181.5" r="2.5" fill="#23C865"/>
<circle cx="562.5" cy="181.5" r="2.5" fill="#23C865"/>
<circle cx="597.5" cy="181.5" r="2.5" fill="#23C865"/>
<circle cx="632.5" cy="181.5" r="2.5" fill="#23C865"/>
<circle cx="667.5" cy="181.5" r="2.5" fill="#23C865"/>
<circle cx="703.5" cy="181.5" r="2.5" fill="#23C865"/>
<circle cx="738.5" cy="181.5" r="2.5" fill="#23C865"/>
<circle cx="773.5" cy="181.5" r="2.5" fill="#23C865"/>
<circle cx="808.5" cy="181.5" r="2.5" fill="#23C865"/>
<circle cx="843.5" cy="181.5" r="2.5" fill="#23C865"/>
<circle cx="878.5" cy="181.5" r="2.5" fill="#23C865"/>
<circle cx="913.5" cy="181.5" r="2.5" fill="#23C865"/>
<circle cx="948.5" cy="181.5" r="2.5" fill="#23C865"/>
<circle cx="983.5" cy="181.5" r="2.5" fill="#23C865"/>
<circle cx="1018.5" cy="181.5" r="2.5" fill="#23C865"/>
<circle cx="1053.5" cy="181.5" r="2.5" fill="#23C865"/>
<circle cx="1088.5" cy="181.5" r="2.5" fill="#23C865"/>
<circle cx="1123.5" cy="181.5" r="2.5" fill="#23C865"/>
<circle cx="1158.5" cy="181.5" r="2.5" fill="#23C865"/>
<circle cx="1193.5" cy="181.5" r="2.5" fill="#23C865"/>
<circle cx="1228.5" cy="181.5" r="2.5" fill="#23C865"/>
<circle cx="1263.5" cy="181.5" r="2.5" fill="#23C865"/>
<circle cx="37.5" cy="216.5" r="2.5" fill="#23C865"/>
<circle cx="72.5" cy="216.5" r="2.5" fill="#23C865"/>
<circle cx="107.5" cy="216.5" r="2.5" fill="#23C865"/>
<circle cx="142.5" cy="216.5" r="2.5" fill="#23C865"/>
<circle cx="177.5" cy="216.5" r="2.5" fill="#23C865"/>
<circle cx="212.5" cy="216.5" r="2.5" fill="#23C865"/>
<circle cx="247.5" cy="216.5" r="2.5" fill="#23C865"/>
<circle cx="282.5" cy="216.5" r="2.5" fill="#23C865"/>
<circle cx="317.5" cy="216.5" r="2.5" fill="#23C865"/>
<circle cx="352.5" cy="216.5" r="2.5" fill="#23C865"/>
<circle cx="387.5" cy="216.5" r="2.5" fill="#23C865"/>
<circle cx="422.5" cy="216.5" r="2.5" fill="#23C865"/>
<circle cx="457.5" cy="216.5" r="2.5" fill="#23C865"/>
<circle cx="492.5" cy="216.5" r="2.5" fill="#23C865"/>
<circle cx="527.5" cy="216.5" r="2.5" fill="#23C865"/>
<circle cx="562.5" cy="216.5" r="2.5" fill="#23C865"/>
<circle cx="597.5" cy="216.5" r="2.5" fill="#23C865"/>
<circle cx="632.5" cy="216.5" r="2.5" fill="#23C865"/>
<circle cx="667.5" cy="216.5" r="2.5" fill="#23C865"/>
<circle cx="703.5" cy="216.5" r="2.5" fill="#23C865"/>
<circle cx="738.5" cy="216.5" r="2.5" fill="#23C865"/>
<circle cx="773.5" cy="216.5" r="2.5" fill="#23C865"/>
<circle cx="808.5" cy="216.5" r="2.5" fill="#23C865"/>
<circle cx="843.5" cy="216.5" r="2.5" fill="#23C865"/>
<circle cx="878.5" cy="216.5" r="2.5" fill="#23C865"/>
<circle cx="913.5" cy="216.5" r="2.5" fill="#23C865"/>
<circle cx="948.5" cy="216.5" r="2.5" fill="#23C865"/>
<circle cx="983.5" cy="216.5" r="2.5" fill="#23C865"/>
<circle cx="1018.5" cy="216.5" r="2.5" fill="#23C865"/>
<circle cx="1053.5" cy="216.5" r="2.5" fill="#23C865"/>
<circle cx="1088.5" cy="216.5" r="2.5" fill="#23C865"/>
<circle cx="1123.5" cy="216.5" r="2.5" fill="#23C865"/>
<circle cx="1158.5" cy="216.5" r="2.5" fill="#23C865"/>
<circle cx="1193.5" cy="216.5" r="2.5" fill="#23C865"/>
<circle cx="1228.5" cy="216.5" r="2.5" fill="#23C865"/>
<circle cx="1263.5" cy="216.5" r="2.5" fill="#23C865"/>
<circle cx="37.5" cy="741.5" r="2.5" fill="#23C865"/>
<circle cx="72.5" cy="741.5" r="2.5" fill="#23C865"/>
<circle cx="107.5" cy="741.5" r="2.5" fill="#23C865"/>
<circle cx="142.5" cy="741.5" r="2.5" fill="#23C865"/>
<circle cx="177.5" cy="741.5" r="2.5" fill="#23C865"/>
<circle cx="212.5" cy="741.5" r="2.5" fill="#23C865"/>
<circle cx="247.5" cy="741.5" r="2.5" fill="#23C865"/>
<circle cx="282.5" cy="741.5" r="2.5" fill="#23C865"/>
<circle cx="317.5" cy="741.5" r="2.5" fill="#23C865"/>
<circle cx="352.5" cy="741.5" r="2.5" fill="#23C865"/>
<circle cx="387.5" cy="741.5" r="2.5" fill="#23C865"/>
<circle cx="422.5" cy="741.5" r="2.5" fill="#23C865"/>
<circle cx="457.5" cy="741.5" r="2.5" fill="#23C865"/>
<circle cx="492.5" cy="741.5" r="2.5" fill="#23C865"/>
<circle cx="527.5" cy="741.5" r="2.5" fill="#23C865"/>
<circle cx="562.5" cy="741.5" r="2.5" fill="#23C865"/>
<circle cx="597.5" cy="741.5" r="2.5" fill="#23C865"/>
<circle cx="632.5" cy="741.5" r="2.5" fill="#23C865"/>
<circle cx="667.5" cy="741.5" r="2.5" fill="#23C865"/>
<circle cx="703.5" cy="741.5" r="2.5" fill="#23C865"/>
<circle cx="738.5" cy="741.5" r="2.5" fill="#23C865"/>
<circle cx="773.5" cy="741.5" r="2.5" fill="#23C865"/>
<circle cx="808.5" cy="741.5" r="2.5" fill="#23C865"/>
<circle cx="843.5" cy="741.5" r="2.5" fill="#23C865"/>
<circle cx="878.5" cy="741.5" r="2.5" fill="#23C865"/>
<circle cx="913.5" cy="741.5" r="2.5" fill="#23C865"/>
<circle cx="948.5" cy="741.5" r="2.5" fill="#23C865"/>
<circle cx="983.5" cy="741.5" r="2.5" fill="#23C865"/>
<circle cx="1018.5" cy="741.5" r="2.5" fill="#23C865"/>
<circle cx="1053.5" cy="741.5" r="2.5" fill="#23C865"/>
<circle cx="1088.5" cy="741.5" r="2.5" fill="#23C865"/>
<circle cx="1123.5" cy="741.5" r="2.5" fill="#23C865"/>
<circle cx="1158.5" cy="741.5" r="2.5" fill="#23C865"/>
<circle cx="1193.5" cy="741.5" r="2.5" fill="#23C865"/>
<circle cx="1228.5" cy="741.5" r="2.5" fill="#23C865"/>
<circle cx="1263.5" cy="741.5" r="2.5" fill="#23C865"/>
<circle cx="37.5" cy="776.5" r="2.5" fill="#23C865"/>
<circle cx="72.5" cy="776.5" r="2.5" fill="#23C865"/>
<circle cx="107.5" cy="776.5" r="2.5" fill="#23C865"/>
<circle cx="142.5" cy="776.5" r="2.5" fill="#23C865"/>
<circle cx="177.5" cy="776.5" r="2.5" fill="#23C865"/>
<circle cx="212.5" cy="776.5" r="2.5" fill="#23C865"/>
<circle cx="247.5" cy="776.5" r="2.5" fill="#23C865"/>
<circle cx="282.5" cy="776.5" r="2.5" fill="#23C865"/>
<circle cx="317.5" cy="776.5" r="2.5" fill="#23C865"/>
<circle cx="352.5" cy="776.5" r="2.5" fill="#23C865"/>
<circle cx="387.5" cy="776.5" r="2.5" fill="#23C865"/>
<circle cx="422.5" cy="776.5" r="2.5" fill="#23C865"/>
<circle cx="457.5" cy="776.5" r="2.5" fill="#23C865"/>
<circle cx="492.5" cy="776.5" r="2.5" fill="#23C865"/>
<circle cx="527.5" cy="776.5" r="2.5" fill="#23C865"/>
<circle cx="562.5" cy="776.5" r="2.5" fill="#23C865"/>
<circle cx="597.5" cy="776.5" r="2.5" fill="#23C865"/>
<circle cx="632.5" cy="776.5" r="2.5" fill="#23C865"/>
<circle cx="667.5" cy="776.5" r="2.5" fill="#23C865"/>
<circle cx="703.5" cy="776.5" r="2.5" fill="#23C865"/>
<circle cx="738.5" cy="776.5" r="2.5" fill="#23C865"/>
<circle cx="773.5" cy="776.5" r="2.5" fill="#23C865"/>
<circle cx="808.5" cy="776.5" r="2.5" fill="#23C865"/>
<circle cx="843.5" cy="776.5" r="2.5" fill="#23C865"/>
<circle cx="878.5" cy="776.5" r="2.5" fill="#23C865"/>
<circle cx="913.5" cy="776.5" r="2.5" fill="#23C865"/>
<circle cx="948.5" cy="776.5" r="2.5" fill="#23C865"/>
<circle cx="983.5" cy="776.5" r="2.5" fill="#23C865"/>
<circle cx="1018.5" cy="776.5" r="2.5" fill="#23C865"/>
<circle cx="1053.5" cy="776.5" r="2.5" fill="#23C865"/>
<circle cx="1088.5" cy="776.5" r="2.5" fill="#23C865"/>
<circle cx="1123.5" cy="776.5" r="2.5" fill="#23C865"/>
<circle cx="1158.5" cy="776.5" r="2.5" fill="#23C865"/>
<circle cx="1193.5" cy="776.5" r="2.5" fill="#23C865"/>
<circle cx="1228.5" cy="776.5" r="2.5" fill="#23C865"/>
<circle cx="1263.5" cy="776.5" r="2.5" fill="#23C865"/>
<circle cx="37.5" cy="461.5" r="2.5" fill="#23C865"/>
<circle cx="72.5" cy="461.5" r="2.5" fill="#23C865"/>
<circle cx="107.5" cy="461.5" r="2.5" fill="#23C865"/>
<circle cx="142.5" cy="461.5" r="2.5" fill="#23C865"/>
<circle cx="177.5" cy="461.5" r="2.5" fill="#23C865"/>
<circle cx="212.5" cy="461.5" r="2.5" fill="#23C865"/>
<circle cx="247.5" cy="461.5" r="2.5" fill="#23C865"/>
<circle cx="282.5" cy="461.5" r="2.5" fill="#23C865"/>
<circle cx="317.5" cy="461.5" r="2.5" fill="#23C865"/>
<circle cx="352.5" cy="461.5" r="2.5" fill="#23C865"/>
<circle cx="387.5" cy="461.5" r="2.5" fill="#23C865"/>
<circle cx="422.5" cy="461.5" r="2.5" fill="#23C865"/>
<circle cx="457.5" cy="461.5" r="2.5" fill="#23C865"/>
<circle cx="492.5" cy="461.5" r="2.5" fill="#23C865"/>
<circle cx="527.5" cy="461.5" r="2.5" fill="#23C865"/>
<circle cx="562.5" cy="461.5" r="2.5" fill="#23C865"/>
<circle cx="597.5" cy="461.5" r="2.5" fill="#23C865"/>
<circle cx="632.5" cy="461.5" r="2.5" fill="#23C865"/>
<circle cx="667.5" cy="461.5" r="2.5" fill="#23C865"/>
<circle cx="703.5" cy="461.5" r="2.5" fill="#23C865"/>
<circle cx="738.5" cy="461.5" r="2.5" fill="#23C865"/>
<circle cx="773.5" cy="461.5" r="2.5" fill="#23C865"/>
<circle cx="808.5" cy="461.5" r="2.5" fill="#23C865"/>
<circle cx="843.5" cy="461.5" r="2.5" fill="#23C865"/>
<circle cx="878.5" cy="461.5" r="2.5" fill="#23C865"/>
<circle cx="913.5" cy="461.5" r="2.5" fill="#23C865"/>
<circle cx="948.5" cy="461.5" r="2.5" fill="#23C865"/>
<circle cx="983.5" cy="461.5" r="2.5" fill="#23C865"/>
<circle cx="1018.5" cy="461.5" r="2.5" fill="#23C865"/>
<circle cx="1053.5" cy="461.5" r="2.5" fill="#23C865"/>
<circle cx="1088.5" cy="461.5" r="2.5" fill="#23C865"/>
<circle cx="1123.5" cy="461.5" r="2.5" fill="#23C865"/>
<circle cx="1158.5" cy="461.5" r="2.5" fill="#23C865"/>
<circle cx="1193.5" cy="461.5" r="2.5" fill="#23C865"/>
<circle cx="1228.5" cy="461.5" r="2.5" fill="#23C865"/>
<circle cx="1263.5" cy="461.5" r="2.5" fill="#23C865"/>
<circle cx="37.5" cy="496.5" r="2.5" fill="#23C865"/>
<circle cx="72.5" cy="496.5" r="2.5" fill="#23C865"/>
<circle cx="107.5" cy="496.5" r="2.5" fill="#23C865"/>
<circle cx="142.5" cy="496.5" r="2.5" fill="#23C865"/>
<circle cx="177.5" cy="496.5" r="2.5" fill="#23C865"/>
<circle cx="212.5" cy="496.5" r="2.5" fill="#23C865"/>
<circle cx="247.5" cy="496.5" r="2.5" fill="#23C865"/>
<circle cx="282.5" cy="496.5" r="2.5" fill="#23C865"/>
<circle cx="317.5" cy="496.5" r="2.5" fill="#23C865"/>
<circle cx="352.5" cy="496.5" r="2.5" fill="#23C865"/>
<circle cx="387.5" cy="496.5" r="2.5" fill="#23C865"/>
<circle cx="422.5" cy="496.5" r="2.5" fill="#23C865"/>
<circle cx="457.5" cy="496.5" r="2.5" fill="#23C865"/>
<circle cx="492.5" cy="496.5" r="2.5" fill="#23C865"/>
<circle cx="527.5" cy="496.5" r="2.5" fill="#23C865"/>
<circle cx="562.5" cy="496.5" r="2.5" fill="#23C865"/>
<circle cx="597.5" cy="496.5" r="2.5" fill="#23C865"/>
<circle cx="632.5" cy="496.5" r="2.5" fill="#23C865"/>
<circle cx="667.5" cy="496.5" r="2.5" fill="#23C865"/>
<circle cx="703.5" cy="496.5" r="2.5" fill="#23C865"/>
<circle cx="738.5" cy="496.5" r="2.5" fill="#23C865"/>
<circle cx="773.5" cy="496.5" r="2.5" fill="#23C865"/>
<circle cx="808.5" cy="496.5" r="2.5" fill="#23C865"/>
<circle cx="843.5" cy="496.5" r="2.5" fill="#23C865"/>
<circle cx="878.5" cy="496.5" r="2.5" fill="#23C865"/>
<circle cx="913.5" cy="496.5" r="2.5" fill="#23C865"/>
<circle cx="948.5" cy="496.5" r="2.5" fill="#23C865"/>
<circle cx="983.5" cy="496.5" r="2.5" fill="#23C865"/>
<circle cx="1018.5" cy="496.5" r="2.5" fill="#23C865"/>
<circle cx="1053.5" cy="496.5" r="2.5" fill="#23C865"/>
<circle cx="1088.5" cy="496.5" r="2.5" fill="#23C865"/>
<circle cx="1123.5" cy="496.5" r="2.5" fill="#23C865"/>
<circle cx="1158.5" cy="496.5" r="2.5" fill="#23C865"/>
<circle cx="1193.5" cy="496.5" r="2.5" fill="#23C865"/>
<circle cx="1228.5" cy="496.5" r="2.5" fill="#23C865"/>
<circle cx="1263.5" cy="496.5" r="2.5" fill="#23C865"/>
<circle cx="37.5" cy="671.5" r="2.5" fill="#23C865"/>
<circle cx="72.5" cy="671.5" r="2.5" fill="#23C865"/>
<circle cx="107.5" cy="671.5" r="2.5" fill="#23C865"/>
<circle cx="142.5" cy="671.5" r="2.5" fill="#23C865"/>
<circle cx="177.5" cy="671.5" r="2.5" fill="#23C865"/>
<circle cx="212.5" cy="671.5" r="2.5" fill="#23C865"/>
<circle cx="247.5" cy="671.5" r="2.5" fill="#23C865"/>
<circle cx="282.5" cy="671.5" r="2.5" fill="#23C865"/>
<circle cx="317.5" cy="671.5" r="2.5" fill="#23C865"/>
<circle cx="352.5" cy="671.5" r="2.5" fill="#23C865"/>
<circle cx="387.5" cy="671.5" r="2.5" fill="#23C865"/>
<circle cx="422.5" cy="671.5" r="2.5" fill="#23C865"/>
<circle cx="457.5" cy="671.5" r="2.5" fill="#23C865"/>
<circle cx="492.5" cy="671.5" r="2.5" fill="#23C865"/>
<circle cx="527.5" cy="671.5" r="2.5" fill="#23C865"/>
<circle cx="562.5" cy="671.5" r="2.5" fill="#23C865"/>
<circle cx="597.5" cy="671.5" r="2.5" fill="#23C865"/>
<circle cx="632.5" cy="671.5" r="2.5" fill="#23C865"/>
<circle cx="667.5" cy="671.5" r="2.5" fill="#23C865"/>
<circle cx="703.5" cy="671.5" r="2.5" fill="#23C865"/>
<circle cx="738.5" cy="671.5" r="2.5" fill="#23C865"/>
<circle cx="773.5" cy="671.5" r="2.5" fill="#23C865"/>
<circle cx="808.5" cy="671.5" r="2.5" fill="#23C865"/>
<circle cx="843.5" cy="671.5" r="2.5" fill="#23C865"/>
<circle cx="878.5" cy="671.5" r="2.5" fill="#23C865"/>
<circle cx="913.5" cy="671.5" r="2.5" fill="#23C865"/>
<circle cx="948.5" cy="671.5" r="2.5" fill="#23C865"/>
<circle cx="983.5" cy="671.5" r="2.5" fill="#23C865"/>
<circle cx="1018.5" cy="671.5" r="2.5" fill="#23C865"/>
<circle cx="1053.5" cy="671.5" r="2.5" fill="#23C865"/>
<circle cx="1088.5" cy="671.5" r="2.5" fill="#23C865"/>
<circle cx="1123.5" cy="671.5" r="2.5" fill="#23C865"/>
<circle cx="1158.5" cy="671.5" r="2.5" fill="#23C865"/>
<circle cx="1193.5" cy="671.5" r="2.5" fill="#23C865"/>
<circle cx="1228.5" cy="671.5" r="2.5" fill="#23C865"/>
<circle cx="1263.5" cy="671.5" r="2.5" fill="#23C865"/>
<circle cx="37.5" cy="706.5" r="2.5" fill="#23C865"/>
<circle cx="72.5" cy="706.5" r="2.5" fill="#23C865"/>
<circle cx="107.5" cy="706.5" r="2.5" fill="#23C865"/>
<circle cx="142.5" cy="706.5" r="2.5" fill="#23C865"/>
<circle cx="177.5" cy="706.5" r="2.5" fill="#23C865"/>
<circle cx="212.5" cy="706.5" r="2.5" fill="#23C865"/>
<circle cx="247.5" cy="706.5" r="2.5" fill="#23C865"/>
<circle cx="282.5" cy="706.5" r="2.5" fill="#23C865"/>
<circle cx="317.5" cy="706.5" r="2.5" fill="#23C865"/>
<circle cx="352.5" cy="706.5" r="2.5" fill="#23C865"/>
<circle cx="387.5" cy="706.5" r="2.5" fill="#23C865"/>
<circle cx="422.5" cy="706.5" r="2.5" fill="#23C865"/>
<circle cx="457.5" cy="706.5" r="2.5" fill="#23C865"/>
<circle cx="492.5" cy="706.5" r="2.5" fill="#23C865"/>
<circle cx="527.5" cy="706.5" r="2.5" fill="#23C865"/>
<circle cx="562.5" cy="706.5" r="2.5" fill="#23C865"/>
<circle cx="597.5" cy="706.5" r="2.5" fill="#23C865"/>
<circle cx="632.5" cy="706.5" r="2.5" fill="#23C865"/>
<circle cx="667.5" cy="706.5" r="2.5" fill="#23C865"/>
<circle cx="703.5" cy="706.5" r="2.5" fill="#23C865"/>
<circle cx="738.5" cy="706.5" r="2.5" fill="#23C865"/>
<circle cx="773.5" cy="706.5" r="2.5" fill="#23C865"/>
<circle cx="808.5" cy="706.5" r="2.5" fill="#23C865"/>
<circle cx="843.5" cy="706.5" r="2.5" fill="#23C865"/>
<circle cx="878.5" cy="706.5" r="2.5" fill="#23C865"/>
<circle cx="913.5" cy="706.5" r="2.5" fill="#23C865"/>
<circle cx="948.5" cy="706.5" r="2.5" fill="#23C865"/>
<circle cx="983.5" cy="706.5" r="2.5" fill="#23C865"/>
<circle cx="1018.5" cy="706.5" r="2.5" fill="#23C865"/>
<circle cx="1053.5" cy="706.5" r="2.5" fill="#23C865"/>
<circle cx="1088.5" cy="706.5" r="2.5" fill="#23C865"/>
<circle cx="1123.5" cy="706.5" r="2.5" fill="#23C865"/>
<circle cx="1158.5" cy="706.5" r="2.5" fill="#23C865"/>
<circle cx="1193.5" cy="706.5" r="2.5" fill="#23C865"/>
<circle cx="1228.5" cy="706.5" r="2.5" fill="#23C865"/>
<circle cx="1263.5" cy="706.5" r="2.5" fill="#23C865"/>
<circle cx="37.5" cy="391.5" r="2.5" fill="#23C865"/>
<circle cx="72.5" cy="391.5" r="2.5" fill="#23C865"/>
<circle cx="107.5" cy="391.5" r="2.5" fill="#23C865"/>
<circle cx="142.5" cy="391.5" r="2.5" fill="#23C865"/>
<circle cx="177.5" cy="391.5" r="2.5" fill="#23C865"/>
<circle cx="212.5" cy="391.5" r="2.5" fill="#23C865"/>
<circle cx="247.5" cy="391.5" r="2.5" fill="#23C865"/>
<circle cx="282.5" cy="391.5" r="2.5" fill="#23C865"/>
<circle cx="317.5" cy="391.5" r="2.5" fill="#23C865"/>
<circle cx="352.5" cy="391.5" r="2.5" fill="#23C865"/>
<circle cx="387.5" cy="391.5" r="2.5" fill="#23C865"/>
<circle cx="422.5" cy="391.5" r="2.5" fill="#23C865"/>
<circle cx="457.5" cy="391.5" r="2.5" fill="#23C865"/>
<circle cx="492.5" cy="391.5" r="2.5" fill="#23C865"/>
<circle cx="527.5" cy="391.5" r="2.5" fill="#23C865"/>
<circle cx="562.5" cy="391.5" r="2.5" fill="#23C865"/>
<circle cx="597.5" cy="391.5" r="2.5" fill="#23C865"/>
<circle cx="632.5" cy="391.5" r="2.5" fill="#23C865"/>
<circle cx="667.5" cy="391.5" r="2.5" fill="#23C865"/>
<circle cx="703.5" cy="391.5" r="2.5" fill="#23C865"/>
<circle cx="738.5" cy="391.5" r="2.5" fill="#23C865"/>
<circle cx="773.5" cy="391.5" r="2.5" fill="#23C865"/>
<circle cx="808.5" cy="391.5" r="2.5" fill="#23C865"/>
<circle cx="843.5" cy="391.5" r="2.5" fill="#23C865"/>
<circle cx="878.5" cy="391.5" r="2.5" fill="#23C865"/>
<circle cx="913.5" cy="391.5" r="2.5" fill="#23C865"/>
<circle cx="948.5" cy="391.5" r="2.5" fill="#23C865"/>
<circle cx="983.5" cy="391.5" r="2.5" fill="#23C865"/>
<circle cx="1018.5" cy="391.5" r="2.5" fill="#23C865"/>
<circle cx="1053.5" cy="391.5" r="2.5" fill="#23C865"/>
<circle cx="1088.5" cy="391.5" r="2.5" fill="#23C865"/>
<circle cx="1123.5" cy="391.5" r="2.5" fill="#23C865"/>
<circle cx="1158.5" cy="391.5" r="2.5" fill="#23C865"/>
<circle cx="1193.5" cy="391.5" r="2.5" fill="#23C865"/>
<circle cx="1228.5" cy="391.5" r="2.5" fill="#23C865"/>
<circle cx="1263.5" cy="391.5" r="2.5" fill="#23C865"/>
<circle cx="37.5" cy="426.5" r="2.5" fill="#23C865"/>
<circle cx="72.5" cy="426.5" r="2.5" fill="#23C865"/>
<circle cx="107.5" cy="426.5" r="2.5" fill="#23C865"/>
<circle cx="142.5" cy="426.5" r="2.5" fill="#23C865"/>
<circle cx="177.5" cy="426.5" r="2.5" fill="#23C865"/>
<circle cx="212.5" cy="426.5" r="2.5" fill="#23C865"/>
<circle cx="247.5" cy="426.5" r="2.5" fill="#23C865"/>
<circle cx="282.5" cy="426.5" r="2.5" fill="#23C865"/>
<circle cx="317.5" cy="426.5" r="2.5" fill="#23C865"/>
<circle cx="352.5" cy="426.5" r="2.5" fill="#23C865"/>
<circle cx="387.5" cy="426.5" r="2.5" fill="#23C865"/>
<circle cx="422.5" cy="426.5" r="2.5" fill="#23C865"/>
<circle cx="457.5" cy="426.5" r="2.5" fill="#23C865"/>
<circle cx="492.5" cy="426.5" r="2.5" fill="#23C865"/>
<circle cx="527.5" cy="426.5" r="2.5" fill="#23C865"/>
<circle cx="562.5" cy="426.5" r="2.5" fill="#23C865"/>
<circle cx="597.5" cy="426.5" r="2.5" fill="#23C865"/>
<circle cx="632.5" cy="426.5" r="2.5" fill="#23C865"/>
<circle cx="667.5" cy="426.5" r="2.5" fill="#23C865"/>
<circle cx="703.5" cy="426.5" r="2.5" fill="#23C865"/>
<circle cx="738.5" cy="426.5" r="2.5" fill="#23C865"/>
<circle cx="773.5" cy="426.5" r="2.5" fill="#23C865"/>
<circle cx="808.5" cy="426.5" r="2.5" fill="#23C865"/>
<circle cx="843.5" cy="426.5" r="2.5" fill="#23C865"/>
<circle cx="878.5" cy="426.5" r="2.5" fill="#23C865"/>
<circle cx="913.5" cy="426.5" r="2.5" fill="#23C865"/>
<circle cx="948.5" cy="426.5" r="2.5" fill="#23C865"/>
<circle cx="983.5" cy="426.5" r="2.5" fill="#23C865"/>
<circle cx="1018.5" cy="426.5" r="2.5" fill="#23C865"/>
<circle cx="1053.5" cy="426.5" r="2.5" fill="#23C865"/>
<circle cx="1088.5" cy="426.5" r="2.5" fill="#23C865"/>
<circle cx="1123.5" cy="426.5" r="2.5" fill="#23C865"/>
<circle cx="1158.5" cy="426.5" r="2.5" fill="#23C865"/>
<circle cx="1193.5" cy="426.5" r="2.5" fill="#23C865"/>
<circle cx="1228.5" cy="426.5" r="2.5" fill="#23C865"/>
<circle cx="1263.5" cy="426.5" r="2.5" fill="#23C865"/>
<circle cx="37.5" cy="951.5" r="2.5" fill="#23C865"/>
<circle cx="72.5" cy="951.5" r="2.5" fill="#23C865"/>
<circle cx="107.5" cy="951.5" r="2.5" fill="#23C865"/>
<circle cx="142.5" cy="951.5" r="2.5" fill="#23C865"/>
<circle cx="177.5" cy="951.5" r="2.5" fill="#23C865"/>
<circle cx="212.5" cy="951.5" r="2.5" fill="#23C865"/>
<circle cx="247.5" cy="951.5" r="2.5" fill="#23C865"/>
<circle cx="282.5" cy="951.5" r="2.5" fill="#23C865"/>
<circle cx="317.5" cy="951.5" r="2.5" fill="#23C865"/>
<circle cx="352.5" cy="951.5" r="2.5" fill="#23C865"/>
<circle cx="387.5" cy="951.5" r="2.5" fill="#23C865"/>
<circle cx="422.5" cy="951.5" r="2.5" fill="#23C865"/>
<circle cx="457.5" cy="951.5" r="2.5" fill="#23C865"/>
<circle cx="492.5" cy="951.5" r="2.5" fill="#23C865"/>
<circle cx="527.5" cy="951.5" r="2.5" fill="#23C865"/>
<circle cx="562.5" cy="951.5" r="2.5" fill="#23C865"/>
<circle cx="597.5" cy="951.5" r="2.5" fill="#23C865"/>
<circle cx="632.5" cy="951.5" r="2.5" fill="#23C865"/>
<circle cx="667.5" cy="951.5" r="2.5" fill="#23C865"/>
<circle cx="703.5" cy="951.5" r="2.5" fill="#23C865"/>
<circle cx="738.5" cy="951.5" r="2.5" fill="#23C865"/>
<circle cx="773.5" cy="951.5" r="2.5" fill="#23C865"/>
<circle cx="808.5" cy="951.5" r="2.5" fill="#23C865"/>
<circle cx="843.5" cy="951.5" r="2.5" fill="#23C865"/>
<circle cx="878.5" cy="951.5" r="2.5" fill="#23C865"/>
<circle cx="913.5" cy="951.5" r="2.5" fill="#23C865"/>
<circle cx="948.5" cy="951.5" r="2.5" fill="#23C865"/>
<circle cx="983.5" cy="951.5" r="2.5" fill="#23C865"/>
<circle cx="1018.5" cy="951.5" r="2.5" fill="#23C865"/>
<circle cx="1053.5" cy="951.5" r="2.5" fill="#23C865"/>
<circle cx="1088.5" cy="951.5" r="2.5" fill="#23C865"/>
<circle cx="1123.5" cy="951.5" r="2.5" fill="#23C865"/>
<circle cx="1158.5" cy="951.5" r="2.5" fill="#23C865"/>
<circle cx="1193.5" cy="951.5" r="2.5" fill="#23C865"/>
<circle cx="1228.5" cy="951.5" r="2.5" fill="#23C865"/>
<circle cx="1263.5" cy="951.5" r="2.5" fill="#23C865"/>
<circle cx="37.5" cy="986.5" r="2.5" fill="#23C865"/>
<circle cx="72.5" cy="986.5" r="2.5" fill="#23C865"/>
<circle cx="107.5" cy="986.5" r="2.5" fill="#23C865"/>
<circle cx="142.5" cy="986.5" r="2.5" fill="#23C865"/>
<circle cx="177.5" cy="986.5" r="2.5" fill="#23C865"/>
<circle cx="212.5" cy="986.5" r="2.5" fill="#23C865"/>
<circle cx="247.5" cy="986.5" r="2.5" fill="#23C865"/>
<circle cx="282.5" cy="986.5" r="2.5" fill="#23C865"/>
<circle cx="317.5" cy="986.5" r="2.5" fill="#23C865"/>
<circle cx="352.5" cy="986.5" r="2.5" fill="#23C865"/>
<circle cx="387.5" cy="986.5" r="2.5" fill="#23C865"/>
<circle cx="422.5" cy="986.5" r="2.5" fill="#23C865"/>
<circle cx="457.5" cy="986.5" r="2.5" fill="#23C865"/>
<circle cx="492.5" cy="986.5" r="2.5" fill="#23C865"/>
<circle cx="527.5" cy="986.5" r="2.5" fill="#23C865"/>
<circle cx="562.5" cy="986.5" r="2.5" fill="#23C865"/>
<circle cx="597.5" cy="986.5" r="2.5" fill="#23C865"/>
<circle cx="632.5" cy="986.5" r="2.5" fill="#23C865"/>
<circle cx="667.5" cy="986.5" r="2.5" fill="#23C865"/>
<circle cx="703.5" cy="986.5" r="2.5" fill="#23C865"/>
<circle cx="738.5" cy="986.5" r="2.5" fill="#23C865"/>
<circle cx="773.5" cy="986.5" r="2.5" fill="#23C865"/>
<circle cx="808.5" cy="986.5" r="2.5" fill="#23C865"/>
<circle cx="843.5" cy="986.5" r="2.5" fill="#23C865"/>
<circle cx="878.5" cy="986.5" r="2.5" fill="#23C865"/>
<circle cx="913.5" cy="986.5" r="2.5" fill="#23C865"/>
<circle cx="948.5" cy="986.5" r="2.5" fill="#23C865"/>
<circle cx="983.5" cy="986.5" r="2.5" fill="#23C865"/>
<circle cx="1018.5" cy="986.5" r="2.5" fill="#23C865"/>
<circle cx="1053.5" cy="986.5" r="2.5" fill="#23C865"/>
<circle cx="1088.5" cy="986.5" r="2.5" fill="#23C865"/>
<circle cx="1123.5" cy="986.5" r="2.5" fill="#23C865"/>
<circle cx="1158.5" cy="986.5" r="2.5" fill="#23C865"/>
<circle cx="1193.5" cy="986.5" r="2.5" fill="#23C865"/>
<circle cx="1228.5" cy="986.5" r="2.5" fill="#23C865"/>
<circle cx="1263.5" cy="986.5" r="2.5" fill="#23C865"/>
<circle cx="37.5" cy="251.5" r="2.5" fill="#23C865"/>
<circle cx="72.5" cy="251.5" r="2.5" fill="#23C865"/>
<circle cx="107.5" cy="251.5" r="2.5" fill="#23C865"/>
<circle cx="142.5" cy="251.5" r="2.5" fill="#23C865"/>
<circle cx="177.5" cy="251.5" r="2.5" fill="#23C865"/>
<circle cx="212.5" cy="251.5" r="2.5" fill="#23C865"/>
<circle cx="247.5" cy="251.5" r="2.5" fill="#23C865"/>
<circle cx="282.5" cy="251.5" r="2.5" fill="#23C865"/>
<circle cx="317.5" cy="251.5" r="2.5" fill="#23C865"/>
<circle cx="352.5" cy="251.5" r="2.5" fill="#23C865"/>
<circle cx="387.5" cy="251.5" r="2.5" fill="#23C865"/>
<circle cx="422.5" cy="251.5" r="2.5" fill="#23C865"/>
<circle cx="457.5" cy="251.5" r="2.5" fill="#23C865"/>
<circle cx="492.5" cy="251.5" r="2.5" fill="#23C865"/>
<circle cx="527.5" cy="251.5" r="2.5" fill="#23C865"/>
<circle cx="562.5" cy="251.5" r="2.5" fill="#23C865"/>
<circle cx="597.5" cy="251.5" r="2.5" fill="#23C865"/>
<circle cx="632.5" cy="251.5" r="2.5" fill="#23C865"/>
<circle cx="667.5" cy="251.5" r="2.5" fill="#23C865"/>
<circle cx="703.5" cy="251.5" r="2.5" fill="#23C865"/>
<circle cx="738.5" cy="251.5" r="2.5" fill="#23C865"/>
<circle cx="773.5" cy="251.5" r="2.5" fill="#23C865"/>
<circle cx="808.5" cy="251.5" r="2.5" fill="#23C865"/>
<circle cx="843.5" cy="251.5" r="2.5" fill="#23C865"/>
<circle cx="878.5" cy="251.5" r="2.5" fill="#23C865"/>
<circle cx="913.5" cy="251.5" r="2.5" fill="#23C865"/>
<circle cx="948.5" cy="251.5" r="2.5" fill="#23C865"/>
<circle cx="983.5" cy="251.5" r="2.5" fill="#23C865"/>
<circle cx="1018.5" cy="251.5" r="2.5" fill="#23C865"/>
<circle cx="1053.5" cy="251.5" r="2.5" fill="#23C865"/>
<circle cx="1088.5" cy="251.5" r="2.5" fill="#23C865"/>
<circle cx="1123.5" cy="251.5" r="2.5" fill="#23C865"/>
<circle cx="1158.5" cy="251.5" r="2.5" fill="#23C865"/>
<circle cx="1193.5" cy="251.5" r="2.5" fill="#23C865"/>
<circle cx="1228.5" cy="251.5" r="2.5" fill="#23C865"/>
<circle cx="1263.5" cy="251.5" r="2.5" fill="#23C865"/>
<circle cx="37.5" cy="286.5" r="2.5" fill="#23C865"/>
<circle cx="72.5" cy="286.5" r="2.5" fill="#23C865"/>
<circle cx="107.5" cy="286.5" r="2.5" fill="#23C865"/>
<circle cx="142.5" cy="286.5" r="2.5" fill="#23C865"/>
<circle cx="177.5" cy="286.5" r="2.5" fill="#23C865"/>
<circle cx="212.5" cy="286.5" r="2.5" fill="#23C865"/>
<circle cx="247.5" cy="286.5" r="2.5" fill="#23C865"/>
<circle cx="282.5" cy="286.5" r="2.5" fill="#23C865"/>
<circle cx="317.5" cy="286.5" r="2.5" fill="#23C865"/>
<circle cx="352.5" cy="286.5" r="2.5" fill="#23C865"/>
<circle cx="387.5" cy="286.5" r="2.5" fill="#23C865"/>
<circle cx="422.5" cy="286.5" r="2.5" fill="#23C865"/>
<circle cx="457.5" cy="286.5" r="2.5" fill="#23C865"/>
<circle cx="492.5" cy="286.5" r="2.5" fill="#23C865"/>
<circle cx="527.5" cy="286.5" r="2.5" fill="#23C865"/>
<circle cx="562.5" cy="286.5" r="2.5" fill="#23C865"/>
<circle cx="597.5" cy="286.5" r="2.5" fill="#23C865"/>
<circle cx="632.5" cy="286.5" r="2.5" fill="#23C865"/>
<circle cx="667.5" cy="286.5" r="2.5" fill="#23C865"/>
<circle cx="703.5" cy="286.5" r="2.5" fill="#23C865"/>
<circle cx="738.5" cy="286.5" r="2.5" fill="#23C865"/>
<circle cx="773.5" cy="286.5" r="2.5" fill="#23C865"/>
<circle cx="808.5" cy="286.5" r="2.5" fill="#23C865"/>
<circle cx="843.5" cy="286.5" r="2.5" fill="#23C865"/>
<circle cx="878.5" cy="286.5" r="2.5" fill="#23C865"/>
<circle cx="913.5" cy="286.5" r="2.5" fill="#23C865"/>
<circle cx="948.5" cy="286.5" r="2.5" fill="#23C865"/>
<circle cx="983.5" cy="286.5" r="2.5" fill="#23C865"/>
<circle cx="1018.5" cy="286.5" r="2.5" fill="#23C865"/>
<circle cx="1053.5" cy="286.5" r="2.5" fill="#23C865"/>
<circle cx="1088.5" cy="286.5" r="2.5" fill="#23C865"/>
<circle cx="1123.5" cy="286.5" r="2.5" fill="#23C865"/>
<circle cx="1158.5" cy="286.5" r="2.5" fill="#23C865"/>
<circle cx="1193.5" cy="286.5" r="2.5" fill="#23C865"/>
<circle cx="1228.5" cy="286.5" r="2.5" fill="#23C865"/>
<circle cx="1263.5" cy="286.5" r="2.5" fill="#23C865"/>
<circle cx="37.5" cy="811.5" r="2.5" fill="#23C865"/>
<circle cx="72.5" cy="811.5" r="2.5" fill="#23C865"/>
<circle cx="107.5" cy="811.5" r="2.5" fill="#23C865"/>
<circle cx="142.5" cy="811.5" r="2.5" fill="#23C865"/>
<circle cx="177.5" cy="811.5" r="2.5" fill="#23C865"/>
<circle cx="212.5" cy="811.5" r="2.5" fill="#23C865"/>
<circle cx="247.5" cy="811.5" r="2.5" fill="#23C865"/>
<circle cx="282.5" cy="811.5" r="2.5" fill="#23C865"/>
<circle cx="317.5" cy="811.5" r="2.5" fill="#23C865"/>
<circle cx="352.5" cy="811.5" r="2.5" fill="#23C865"/>
<circle cx="387.5" cy="811.5" r="2.5" fill="#23C865"/>
<circle cx="422.5" cy="811.5" r="2.5" fill="#23C865"/>
<circle cx="457.5" cy="811.5" r="2.5" fill="#23C865"/>
<circle cx="492.5" cy="811.5" r="2.5" fill="#23C865"/>
<circle cx="527.5" cy="811.5" r="2.5" fill="#23C865"/>
<circle cx="562.5" cy="811.5" r="2.5" fill="#23C865"/>
<circle cx="597.5" cy="811.5" r="2.5" fill="#23C865"/>
<circle cx="632.5" cy="811.5" r="2.5" fill="#23C865"/>
<circle cx="667.5" cy="811.5" r="2.5" fill="#23C865"/>
<circle cx="703.5" cy="811.5" r="2.5" fill="#23C865"/>
<circle cx="738.5" cy="811.5" r="2.5" fill="#23C865"/>
<circle cx="773.5" cy="811.5" r="2.5" fill="#23C865"/>
<circle cx="808.5" cy="811.5" r="2.5" fill="#23C865"/>
<circle cx="843.5" cy="811.5" r="2.5" fill="#23C865"/>
<circle cx="878.5" cy="811.5" r="2.5" fill="#23C865"/>
<circle cx="913.5" cy="811.5" r="2.5" fill="#23C865"/>
<circle cx="948.5" cy="811.5" r="2.5" fill="#23C865"/>
<circle cx="983.5" cy="811.5" r="2.5" fill="#23C865"/>
<circle cx="1018.5" cy="811.5" r="2.5" fill="#23C865"/>
<circle cx="1053.5" cy="811.5" r="2.5" fill="#23C865"/>
<circle cx="1088.5" cy="811.5" r="2.5" fill="#23C865"/>
<circle cx="1123.5" cy="811.5" r="2.5" fill="#23C865"/>
<circle cx="1158.5" cy="811.5" r="2.5" fill="#23C865"/>
<circle cx="1193.5" cy="811.5" r="2.5" fill="#23C865"/>
<circle cx="1228.5" cy="811.5" r="2.5" fill="#23C865"/>
<circle cx="1263.5" cy="811.5" r="2.5" fill="#23C865"/>
<circle cx="37.5" cy="846.5" r="2.5" fill="#23C865"/>
<circle cx="72.5" cy="846.5" r="2.5" fill="#23C865"/>
<circle cx="107.5" cy="846.5" r="2.5" fill="#23C865"/>
<circle cx="142.5" cy="846.5" r="2.5" fill="#23C865"/>
<circle cx="177.5" cy="846.5" r="2.5" fill="#23C865"/>
<circle cx="212.5" cy="846.5" r="2.5" fill="#23C865"/>
<circle cx="247.5" cy="846.5" r="2.5" fill="#23C865"/>
<circle cx="282.5" cy="846.5" r="2.5" fill="#23C865"/>
<circle cx="317.5" cy="846.5" r="2.5" fill="#23C865"/>
<circle cx="352.5" cy="846.5" r="2.5" fill="#23C865"/>
<circle cx="387.5" cy="846.5" r="2.5" fill="#23C865"/>
<circle cx="422.5" cy="846.5" r="2.5" fill="#23C865"/>
<circle cx="457.5" cy="846.5" r="2.5" fill="#23C865"/>
<circle cx="492.5" cy="846.5" r="2.5" fill="#23C865"/>
<circle cx="527.5" cy="846.5" r="2.5" fill="#23C865"/>
<circle cx="562.5" cy="846.5" r="2.5" fill="#23C865"/>
<circle cx="597.5" cy="846.5" r="2.5" fill="#23C865"/>
<circle cx="632.5" cy="846.5" r="2.5" fill="#23C865"/>
<circle cx="667.5" cy="846.5" r="2.5" fill="#23C865"/>
<circle cx="703.5" cy="846.5" r="2.5" fill="#23C865"/>
<circle cx="738.5" cy="846.5" r="2.5" fill="#23C865"/>
<circle cx="773.5" cy="846.5" r="2.5" fill="#23C865"/>
<circle cx="808.5" cy="846.5" r="2.5" fill="#23C865"/>
<circle cx="843.5" cy="846.5" r="2.5" fill="#23C865"/>
<circle cx="878.5" cy="846.5" r="2.5" fill="#23C865"/>
<circle cx="913.5" cy="846.5" r="2.5" fill="#23C865"/>
<circle cx="948.5" cy="846.5" r="2.5" fill="#23C865"/>
<circle cx="983.5" cy="846.5" r="2.5" fill="#23C865"/>
<circle cx="1018.5" cy="846.5" r="2.5" fill="#23C865"/>
<circle cx="1053.5" cy="846.5" r="2.5" fill="#23C865"/>
<circle cx="1088.5" cy="846.5" r="2.5" fill="#23C865"/>
<circle cx="1123.5" cy="846.5" r="2.5" fill="#23C865"/>
<circle cx="1158.5" cy="846.5" r="2.5" fill="#23C865"/>
<circle cx="1193.5" cy="846.5" r="2.5" fill="#23C865"/>
<circle cx="1228.5" cy="846.5" r="2.5" fill="#23C865"/>
<circle cx="1263.5" cy="846.5" r="2.5" fill="#23C865"/>
<circle cx="37.5" cy="531.5" r="2.5" fill="#23C865"/>
<circle cx="72.5" cy="531.5" r="2.5" fill="#23C865"/>
<circle cx="107.5" cy="531.5" r="2.5" fill="#23C865"/>
<circle cx="142.5" cy="531.5" r="2.5" fill="#23C865"/>
<circle cx="177.5" cy="531.5" r="2.5" fill="#23C865"/>
<circle cx="212.5" cy="531.5" r="2.5" fill="#23C865"/>
<circle cx="247.5" cy="531.5" r="2.5" fill="#23C865"/>
<circle cx="282.5" cy="531.5" r="2.5" fill="#23C865"/>
<circle cx="317.5" cy="531.5" r="2.5" fill="#23C865"/>
<circle cx="352.5" cy="531.5" r="2.5" fill="#23C865"/>
<circle cx="387.5" cy="531.5" r="2.5" fill="#23C865"/>
<circle cx="422.5" cy="531.5" r="2.5" fill="#23C865"/>
<circle cx="457.5" cy="531.5" r="2.5" fill="#23C865"/>
<circle cx="492.5" cy="531.5" r="2.5" fill="#23C865"/>
<circle cx="527.5" cy="531.5" r="2.5" fill="#23C865"/>
<circle cx="562.5" cy="531.5" r="2.5" fill="#23C865"/>
<circle cx="597.5" cy="531.5" r="2.5" fill="#23C865"/>
<circle cx="632.5" cy="531.5" r="2.5" fill="#23C865"/>
<circle cx="667.5" cy="531.5" r="2.5" fill="#23C865"/>
<circle cx="703.5" cy="531.5" r="2.5" fill="#23C865"/>
<circle cx="738.5" cy="531.5" r="2.5" fill="#23C865"/>
<circle cx="773.5" cy="531.5" r="2.5" fill="#23C865"/>
<circle cx="808.5" cy="531.5" r="2.5" fill="#23C865"/>
<circle cx="843.5" cy="531.5" r="2.5" fill="#23C865"/>
<circle cx="878.5" cy="531.5" r="2.5" fill="#23C865"/>
<circle cx="913.5" cy="531.5" r="2.5" fill="#23C865"/>
<circle cx="948.5" cy="531.5" r="2.5" fill="#23C865"/>
<circle cx="983.5" cy="531.5" r="2.5" fill="#23C865"/>
<circle cx="1018.5" cy="531.5" r="2.5" fill="#23C865"/>
<circle cx="1053.5" cy="531.5" r="2.5" fill="#23C865"/>
<circle cx="1088.5" cy="531.5" r="2.5" fill="#23C865"/>
<circle cx="1123.5" cy="531.5" r="2.5" fill="#23C865"/>
<circle cx="1158.5" cy="531.5" r="2.5" fill="#23C865"/>
<circle cx="1193.5" cy="531.5" r="2.5" fill="#23C865"/>
<circle cx="1228.5" cy="531.5" r="2.5" fill="#23C865"/>
<circle cx="1263.5" cy="531.5" r="2.5" fill="#23C865"/>
<circle cx="37.5" cy="566.5" r="2.5" fill="#23C865"/>
<circle cx="72.5" cy="566.5" r="2.5" fill="#23C865"/>
<circle cx="107.5" cy="566.5" r="2.5" fill="#23C865"/>
<circle cx="142.5" cy="566.5" r="2.5" fill="#23C865"/>
<circle cx="177.5" cy="566.5" r="2.5" fill="#23C865"/>
<circle cx="212.5" cy="566.5" r="2.5" fill="#23C865"/>
<circle cx="247.5" cy="566.5" r="2.5" fill="#23C865"/>
<circle cx="282.5" cy="566.5" r="2.5" fill="#23C865"/>
<circle cx="317.5" cy="566.5" r="2.5" fill="#23C865"/>
<circle cx="352.5" cy="566.5" r="2.5" fill="#23C865"/>
<circle cx="387.5" cy="566.5" r="2.5" fill="#23C865"/>
<circle cx="422.5" cy="566.5" r="2.5" fill="#23C865"/>
<circle cx="457.5" cy="566.5" r="2.5" fill="#23C865"/>
<circle cx="492.5" cy="566.5" r="2.5" fill="#23C865"/>
<circle cx="527.5" cy="566.5" r="2.5" fill="#23C865"/>
<circle cx="562.5" cy="566.5" r="2.5" fill="#23C865"/>
<circle cx="597.5" cy="566.5" r="2.5" fill="#23C865"/>
<circle cx="632.5" cy="566.5" r="2.5" fill="#23C865"/>
<circle cx="667.5" cy="566.5" r="2.5" fill="#23C865"/>
<circle cx="703.5" cy="566.5" r="2.5" fill="#23C865"/>
<circle cx="738.5" cy="566.5" r="2.5" fill="#23C865"/>
<circle cx="773.5" cy="566.5" r="2.5" fill="#23C865"/>
<circle cx="808.5" cy="566.5" r="2.5" fill="#23C865"/>
<circle cx="843.5" cy="566.5" r="2.5" fill="#23C865"/>
<circle cx="878.5" cy="566.5" r="2.5" fill="#23C865"/>
<circle cx="913.5" cy="566.5" r="2.5" fill="#23C865"/>
<circle cx="948.5" cy="566.5" r="2.5" fill="#23C865"/>
<circle cx="983.5" cy="566.5" r="2.5" fill="#23C865"/>
<circle cx="1018.5" cy="566.5" r="2.5" fill="#23C865"/>
<circle cx="1053.5" cy="566.5" r="2.5" fill="#23C865"/>
<circle cx="1088.5" cy="566.5" r="2.5" fill="#23C865"/>
<circle cx="1123.5" cy="566.5" r="2.5" fill="#23C865"/>
<circle cx="1158.5" cy="566.5" r="2.5" fill="#23C865"/>
<circle cx="1193.5" cy="566.5" r="2.5" fill="#23C865"/>
<circle cx="1228.5" cy="566.5" r="2.5" fill="#23C865"/>
<circle cx="1263.5" cy="566.5" r="2.5" fill="#23C865"/>
<path fill-rule="evenodd" clip-rule="evenodd" d="M647.248 1079.86C945.362 1079.86 1187.03 838.192 1187.03 540.078C1187.03 241.964 945.362 0.294922 647.248 0.294922C349.134 0.294922 107.465 241.964 107.465 540.078C107.465 838.192 349.134 1079.86 647.248 1079.86ZM647.168 692C730.839 692 798.668 624.171 798.668 540.5C798.668 456.829 730.839 389 647.168 389C563.497 389 495.668 456.829 495.668 540.5C495.668 624.171 563.497 692 647.168 692Z" fill="url(#paint0_radial_1394_1316)"/>
<circle cx="645.164" cy="538.5" r="152.5" fill="white"/>
<rect y="128" width="1300" height="266" fill="url(#paint1_linear_1394_1316)"/>
<rect x="1303" y="1017" width="1303" height="308" transform="rotate(-180 1303 1017)" fill="url(#paint2_linear_1394_1316)"/>
<defs>
<radialGradient id="paint0_radial_1394_1316" cx="0" cy="0" r="1" gradientUnits="userSpaceOnUse" gradientTransform="translate(647.248 540.078) rotate(90) scale(539.783)">
<stop offset="0.234375" stop-color="#23C865"/>
<stop offset="0.84375" stop-color="#E9E9E9" stop-opacity="0"/>
</radialGradient>
<linearGradient id="paint1_linear_1394_1316" x1="650" y1="128" x2="650" y2="394" gradientUnits="userSpaceOnUse">
<stop offset="0.203125" stop-color="white"/>
<stop offset="1" stop-color="white" stop-opacity="0"/>
</linearGradient>
<linearGradient id="paint2_linear_1394_1316" x1="1954.5" y1="1017" x2="1954.5" y2="1304.5" gradientUnits="userSpaceOnUse">
<stop offset="0.168257" stop-color="white"/>
<stop offset="1" stop-color="white" stop-opacity="0"/>
</linearGradient>
</defs>
</svg>
