<svg width="643" height="412" viewBox="0 0 643 412" fill="none" xmlns="http://www.w3.org/2000/svg">
<rect x="5" y="5" width="632.939" height="402" fill="#23C865" stroke="#23C865" stroke-width="10"/>
<path d="M577.706 350.848C584.426 352.976 589.69 356.56 593.498 361.6C597.306 366.528 599.21 372.632 599.21 379.912C599.21 390.216 595.178 398.168 587.114 403.768C579.162 409.256 567.514 412 552.17 412H491.354V294.4H548.81C563.146 294.4 574.122 297.144 581.738 302.632C589.466 308.12 593.33 315.568 593.33 324.976C593.33 330.688 591.93 335.784 589.13 340.264C586.442 344.744 582.634 348.272 577.706 350.848ZM518.402 314.896V342.616H545.45C552.17 342.616 557.266 341.44 560.738 339.088C564.21 336.736 565.946 333.264 565.946 328.672C565.946 324.08 564.21 320.664 560.738 318.424C557.266 316.072 552.17 314.896 545.45 314.896H518.402ZM550.154 391.504C557.322 391.504 562.698 390.328 566.282 387.976C569.978 385.624 571.826 381.984 571.826 377.056C571.826 367.312 564.602 362.44 550.154 362.44H518.402V391.504H550.154Z" fill="white"/>
</svg>
