<svg width="360" height="177" viewBox="0 0 360 177" fill="none" xmlns="http://www.w3.org/2000/svg">
<g clip-path="url(#clip0_2_390)">
<rect width="360" height="176.805" fill="white"/>
<path d="M6.05757 153.277C7.73578 152.525 19.2755 160.581 33.2286 160.581C47.1818 160.581 71.0284 152.525 83.2554 156.601C95.4824 160.677 105.44 174.198 174.486 161.556C188.088 159.063 190.517 175.637 212.494 149.968C214.875 147.107 214.108 143.111 215.706 140.426C219.59 133.937 222.307 124.715 213.82 110.187C211.151 105.631 209.857 102.323 222.435 85.5408C238.466 64.1395 231.162 61.5823 223.394 59.4086C214.076 56.8193 197.262 70.9323 196.255 64.4912C195.248 58.05 212.702 52.0404 222.18 50.3142C231.657 48.5881 218.935 33.7718 214.731 30.3355C210.528 26.8992 211.311 18.5241 214.731 18.5241V18.4601C212.158 18.4601 211.039 23.0632 212.382 26.8672C212.845 28.1938 213.581 29.4245 214.62 30.3195C216.49 31.9498 219.99 35.9136 222.339 39.8614C225.072 44.4645 226.623 49.2434 221.46 50.2503C220.613 50.4261 219.718 50.6019 218.775 50.8257C208.946 53.1432 194.705 58.5615 195.776 64.651C196.91 71.0762 213.309 57.3468 222.387 59.952C228.509 61.7101 234.279 63.74 227.822 75.5993C225.865 79.107 223.687 82.4863 221.3 85.7166C214.14 95.4982 211.695 100.597 211.455 104.033C211.279 106.415 212.142 108.013 213.229 109.835C221.684 124.044 219.063 133.138 215.403 139.627C214.46 141.289 214.428 143.671 213.82 145.924C213.437 147.331 212.861 148.658 211.839 149.856C190.246 175.077 187.081 159.126 173.511 161.412C154.667 164.593 140.746 166.015 128.759 166.447C99.1585 167.502 91.4067 159.318 82.5522 156.361C81.9194 156.145 81.2734 155.968 80.6182 155.834C68.0236 153.085 46.031 160.629 32.7012 160.565C18.9558 160.517 7.65587 152.573 6.05757 153.277C7.59193 152.605 18.6522 160.437 32.2377 160.581C45.6315 160.725 67.4642 152.893 79.9949 155.626C80.6483 155.768 81.2938 155.944 81.9288 156.154C90.7994 159.11 98.647 167.533 128.088 166.143C140.698 165.536 153.98 164.209 172.6 161.332C186.138 159.222 190.006 174.534 211.247 149.792C212.3 148.597 213.075 147.183 213.517 145.653C214.252 143.223 214.236 140.586 215.147 138.876C218.599 132.403 221.157 123.404 212.702 109.531C211.615 107.757 210.768 106.191 210.88 103.889C211.055 100.565 213.357 95.5781 220.23 85.9563C222.506 82.7468 224.608 79.4176 226.527 75.9829C232.984 64.3473 227.406 62.3175 221.46 60.5434C212.638 57.9062 196.623 71.2679 195.36 64.8268C194.129 58.5135 208.21 53.1592 218.12 50.7618C219.079 50.538 219.99 50.3462 220.805 50.1544C226.047 49.0516 224.273 44.2087 221.78 39.7335C219.606 35.8816 216.378 31.9498 214.572 30.2876C213.571 29.3174 212.815 28.1232 212.366 26.8033C211.007 22.9833 212.19 18.3802 214.795 18.3642V18.3003C212.142 18.3163 210.944 22.9034 212.318 26.7553C212.762 28.0721 213.493 29.2733 214.46 30.2716C216.186 31.9818 219.175 35.8496 221.141 39.6216C223.41 44.001 225.424 48.9077 220.102 50.1065C219.255 50.2823 218.36 50.506 217.401 50.7298C207.411 53.2072 193.474 58.4336 194.881 65.0026C196.255 71.4278 211.871 58.4496 220.437 61.1028C226.223 62.8929 231.578 64.9387 225.168 76.3186C223.65 79.0037 221.78 82.3122 219.095 86.1641C212.51 95.658 210.336 100.517 210.24 103.729C210.176 105.983 211.007 107.501 212.11 109.244C220.565 122.765 218.088 131.668 214.859 138.125C213.996 139.851 214.092 142.728 213.213 145.349C212.68 146.959 211.808 148.436 210.656 149.68C189.782 173.975 185.211 159.302 171.673 161.204C153.293 163.777 140.634 165.024 127.384 165.807C98.1196 167.534 90.176 158.887 81.2895 155.93C80.6568 155.713 80.0108 155.537 79.3556 155.402C66.8728 152.733 45.2159 160.821 31.7582 160.613C18.3325 160.421 7.49604 152.685 6.05757 153.277L6.0256 153.309C7.24031 152.829 17.4055 160.277 30.2079 160.661C43.8893 161.076 65.0188 152.142 77.2938 154.827C77.9331 154.971 78.5884 155.147 79.2117 155.338C88.1302 158.295 96.3615 167.438 125.131 164.896C140.315 163.57 151.071 162.659 168.732 160.949C182.19 159.638 188.887 172.408 208.674 149.505C210.192 147.97 211.359 146.388 212.142 144.55C213.453 141.369 213.165 137.757 213.916 135.919C216.57 129.526 218.743 120.911 210.32 108.396C209.233 106.782 208.402 105.376 208.322 103.33C208.21 100.421 209.969 95.8977 215.674 86.8833C218.008 83.2072 219.558 79.9627 221.077 77.4054C227.406 66.7607 222.691 64.6989 217.417 62.8609C209.585 60.1438 195.12 71.9872 193.41 65.578C191.492 58.3377 204.966 53.383 215.211 50.6499C216.186 50.3942 217.097 50.1704 217.928 49.9626C223.474 48.5082 220.821 43.4096 219.207 39.3179C217.816 35.8017 215.595 32.0936 214.076 30.2716C213.209 29.1906 212.533 27.9688 212.078 26.6594C210.672 22.7436 212.014 18.1724 214.747 18.1405V18.0765C211.966 18.1085 210.592 22.6797 212.014 26.6275C212.474 27.9381 213.137 29.168 213.98 30.2716C215.419 32.1576 217.401 35.7857 218.583 39.222C219.974 43.1858 222.851 48.3643 217.241 49.9147C216.41 50.1384 215.499 50.3622 214.524 50.6339C204.199 53.4309 190.869 58.3057 192.963 65.7698C194.753 72.163 208.85 60.7032 216.442 63.4363C221.54 65.2903 226.047 67.3681 219.75 77.757C218.232 80.2664 216.777 83.4949 214.572 87.1071C209.169 95.9617 207.523 100.373 207.699 103.17C207.827 105.168 208.658 106.526 209.729 108.093C218.136 120.272 216.058 128.807 213.613 135.168C212.893 137.038 213.245 140.906 211.791 144.262C210.944 146.196 209.649 147.842 208.035 149.441C188.631 171.881 181.231 159.75 167.773 160.869C150.352 162.291 140.219 163.074 124.396 164.609C95.8021 167.39 87.4589 158.104 78.5404 155.147C77.9122 154.937 77.2717 154.766 76.6225 154.635C64.4115 151.966 43.4418 161.188 29.6964 160.693C17.0698 160.245 7.14441 152.893 5.99363 153.325C7.08048 152.925 16.7502 160.197 29.185 160.693C43.0102 161.252 63.8041 151.758 75.9512 154.411C76.5905 154.555 77.2458 154.731 77.8691 154.923C86.8036 157.88 95.2426 167.262 123.676 164.273C140.139 162.547 149.649 161.892 166.83 160.757C180.272 159.862 188.36 171.337 207.411 149.361C209.121 147.699 210.544 146.004 211.455 143.975C213.069 140.426 212.654 136.303 213.325 134.417C215.595 128.087 217.544 119.632 209.169 107.805C208.083 106.271 207.267 104.96 207.076 103.042C206.82 100.357 208.322 96.0576 213.437 87.3628C215.531 83.7986 216.873 80.602 218.392 78.1406C224.657 67.9754 220.389 65.8977 215.451 64.0436C208.115 61.2626 194.385 72.3708 192.499 65.9776C190.214 58.2738 203.384 53.4949 213.804 50.6179C214.779 50.3462 215.706 50.1065 216.538 49.8827C222.243 48.2365 219.111 43.01 217.96 39.1261C216.969 35.7857 215.259 32.2055 213.868 30.2876C213.066 29.1513 212.426 27.9086 211.966 26.5955C210.544 22.6317 211.95 18.0606 214.747 18.0286V17.9487C211.902 17.9966 210.448 22.5518 211.887 26.5475C212.361 27.8532 212.989 29.098 213.757 30.2556C215.067 32.2375 216.522 35.7697 217.321 39.0143C218.264 42.7863 221.588 48.0606 215.818 49.8028C214.987 50.0585 214.076 50.2823 213.085 50.554C202.584 53.4949 189.558 58.1939 192.02 66.1214C194.018 72.5146 207.379 61.79 214.46 64.5871C219.223 66.473 223.282 68.5508 217.049 78.4603C215.531 80.8897 214.3 84.0703 212.318 87.5546C207.491 96.1055 206.117 100.277 206.452 102.866C206.692 104.736 207.491 105.999 208.578 107.485C216.953 118.993 215.131 127.352 213.037 133.65C212.398 135.584 212.877 139.947 211.135 143.671C210.144 145.781 208.594 147.523 206.772 149.265C188.088 170.778 179.297 159.942 165.855 160.629C148.945 161.492 140.059 162.003 122.925 163.937C94.6673 167.134 86.1323 157.656 77.1979 154.683C76.5696 154.474 75.9291 154.303 75.2799 154.172C63.1968 151.535 42.5627 161.316 28.6735 160.677C16.4625 160.133 6.98458 152.957 5.99363 153.309C6.92065 153.021 16.1428 160.085 28.194 160.709C42.1472 161.428 62.6214 151.359 74.6246 153.98C75.2639 154.124 75.9192 154.284 76.5425 154.491C85.493 157.448 94.1238 167.006 122.222 163.634C139.995 161.492 148.29 159.446 164.913 160.533C178.322 161.412 187.816 170.251 206.149 149.201C208.051 147.411 209.729 145.621 210.8 143.415C212.702 139.499 212.142 134.896 212.75 132.914C214.652 126.649 216.362 118.37 208.019 107.198C206.932 105.743 206.133 104.513 205.845 102.706C205.445 100.213 206.692 96.1535 211.231 87.7624C213.101 84.326 214.22 81.1774 215.722 78.7959C221.924 69.1262 218.072 67.0325 213.485 65.1465C206.66 62.3494 193.634 72.6745 191.572 66.2813C188.919 58.1139 201.801 53.5108 212.398 50.4901C213.389 50.2024 214.316 49.9626 215.147 49.7069C221.013 47.8688 217.433 42.5305 216.729 38.8544C216.122 35.6898 214.923 32.2215 213.693 30.2076C212.982 29.0273 212.378 27.7864 211.887 26.4996C210.432 22.4879 211.934 17.9167 214.795 17.8848V17.8208C211.887 17.8688 210.336 22.4239 211.807 26.4516C212.301 27.7495 212.889 29.0101 213.565 30.2236C214.731 32.3014 215.674 35.7058 216.09 38.7745C216.57 42.3387 220.357 47.725 214.444 49.6749C213.629 49.9466 212.686 50.1864 211.695 50.4901C201.018 53.6067 188.264 58.098 191.109 66.505C193.266 72.8822 205.925 62.9248 212.494 65.7698C216.921 67.6718 220.517 69.7815 214.38 79.2115C212.861 81.545 211.839 84.6617 210.112 88.0501C205.877 96.2653 204.774 100.213 205.238 102.611C205.573 104.337 206.356 105.519 207.459 106.942C215.802 117.762 214.236 125.978 212.478 132.195C211.918 134.193 212.542 139.068 210.48 143.159C209.329 145.461 207.539 147.299 205.525 149.153C187.576 169.739 177.347 161.684 163.97 160.485C147.635 159.015 139.899 161.012 121.503 163.362C93.5804 166.942 84.8537 157.288 75.8872 154.332C75.2644 154.122 74.6292 153.951 73.9853 153.82C62.03 151.215 41.7476 161.556 27.7145 160.773C15.8551 160.117 6.85672 153.101 6.00962 153.357C6.7768 153.149 15.5515 160.053 27.219 160.773C41.332 161.636 61.4226 151.007 73.33 153.596C73.9721 153.735 74.6069 153.906 75.2319 154.108C84.1984 157.065 93.037 166.782 120.799 163.042C139.867 160.485 147.044 158.535 163.042 160.373C176.356 161.907 187.337 169.196 204.918 149.073C207.028 147.139 208.946 145.253 210.16 142.872C212.35 138.588 211.679 133.49 212.19 131.444C213.757 125.258 215.211 117.123 206.884 106.638C205.797 105.264 204.998 104.113 204.63 102.451C204.103 100.149 205.062 96.3133 209.01 88.2738C210.64 84.9494 211.551 81.8487 213.053 79.5631C219.175 70.3889 215.786 68.2791 211.519 66.3452C205.206 63.5002 192.899 73.074 190.645 66.6968C187.608 58.066 200.235 53.6707 210.991 50.4741C211.998 50.1864 212.925 49.9307 213.741 49.643C219.75 47.6131 215.738 42.1629 215.483 38.6946C215.259 35.7058 214.572 32.3653 213.485 30.2396C212.84 29.0009 212.269 27.7254 211.775 26.4197C210.288 22.376 211.871 17.8208 214.811 17.7569V17.693C211.823 17.7569 210.208 22.2961 211.695 26.3717C212.254 27.8741 212.877 29.1687 213.357 30.2076C214.38 32.3813 214.811 35.6738 214.843 38.5667C214.875 41.9232 219.111 47.4373 213.021 49.563C212.206 49.8507 211.263 50.1065 210.256 50.4101C199.42 53.6867 186.937 57.9861 190.166 66.8566C192.499 73.2179 204.454 64.0277 210.512 66.9046C214.62 68.8545 217.752 70.9643 211.695 79.8988C210.16 82.1364 209.377 85.2051 207.875 88.4976C204.215 96.3772 203.384 100.101 203.991 102.307C204.422 103.889 205.206 105.008 206.292 106.351C214.604 116.5 213.293 124.571 211.887 130.693C211.407 132.786 212.158 138.125 209.809 142.584C208.498 145.061 206.468 146.995 204.263 149.009C187.033 168.668 175.333 162.147 162.068 160.277C146.388 158.088 139.755 159.942 120.048 162.723C92.4456 166.622 83.5431 156.857 74.5447 153.9C73.9219 153.69 73.2866 153.52 72.6427 153.389C60.8153 150.815 40.8845 161.732 26.7076 160.789C15.2318 160.037 6.69689 153.213 5.99363 153.357C6.61697 153.245 14.9281 159.99 26.1961 160.805C40.453 161.828 60.2079 150.623 71.9874 153.197C72.6295 153.335 73.2643 153.506 73.8894 153.708C82.8878 156.665 91.9022 166.479 119.329 162.419C139.675 159.398 145.765 157.656 161.109 160.197C174.326 162.371 186.777 168.157 203.623 148.945C205.925 146.867 208.099 144.886 209.473 142.312C211.95 137.661 211.135 132.083 211.583 129.957C212.83 123.868 213.996 115.876 205.701 106.063C204.614 104.768 203.831 103.681 203.352 102.163C202.68 100.053 203.384 96.4412 206.74 88.7214C208.146 85.4928 208.818 82.456 210.336 80.2504C216.378 71.5556 213.469 69.4459 209.521 67.48C203.719 64.5871 192.1 73.4097 189.702 67.0484C186.266 57.9541 198.637 53.7346 209.569 50.3782C210.592 50.0745 211.519 49.8028 212.334 49.5151C218.503 47.2935 214.028 41.7154 214.22 38.4549C214.396 35.6578 214.204 32.4293 213.245 30.2076C212.798 29.1528 212.19 27.8581 211.631 26.3398C210.112 22.2481 211.791 17.693 214.795 17.629V17.4212C211.679 17.4852 209.889 22.0243 211.439 26.1959C212.03 27.7463 212.59 29.1048 212.909 30.1597C213.629 32.5571 213.069 35.5939 212.318 38.1192C211.455 41.0921 216.586 46.798 210.192 49.3393C209.377 49.6589 208.434 49.9626 207.411 50.2823C196.223 53.8785 184.236 57.8262 188.28 67.6078C190.901 73.9691 201.514 66.2972 206.548 69.2221C210.001 71.236 212.206 73.3777 206.292 81.3212C204.758 83.3831 204.422 86.3239 203.368 89.3927C200.89 96.569 200.187 100.005 201.482 101.7C201.817 103.074 202.872 103.985 203.959 105.152C212.19 113.943 211.503 121.742 210.704 127.688C210.4 129.926 211.407 136.239 208.482 141.449C206.884 144.278 204.343 146.42 201.737 148.69C185.978 166.511 171.306 162.978 158.248 159.862C143.911 156.457 139.42 157.752 117.139 161.444C90.192 165.935 80.9059 156.01 71.8755 153.053C71.2575 152.845 70.6277 152.675 69.9895 152.541C58.4178 150 39.1903 162.083 24.6937 160.821C14.0171 159.878 6.37723 153.373 5.97765 153.357C6.44116 153.325 14.3048 159.91 25.1892 160.821C39.5899 162.003 59.0092 150.208 70.6448 152.765C71.2822 152.902 71.9118 153.072 72.5308 153.277C81.5452 156.234 90.7514 166.127 117.859 161.78C139.5 158.311 144.518 156.841 159.191 159.974C172.313 162.771 186.234 167.054 202.361 148.769C204.87 146.548 207.283 144.47 208.786 141.737C211.567 136.718 210.64 130.645 210.975 128.455C211.918 122.477 212.766 114.598 204.534 105.472C203.447 104.273 202.664 103.25 202.089 101.875C201.258 99.9254 201.705 96.553 204.486 89.1849C205.669 86.0522 206.117 83.0954 207.635 80.9856C213.597 72.7863 211.135 70.6606 207.523 68.6627C202.233 65.7538 191.3 73.8092 188.743 67.448C184.923 57.8902 197.022 53.8625 208.13 50.3462C209.153 50.0266 210.096 49.7389 210.912 49.4192C217.225 46.9738 212.318 41.3318 212.957 38.2631C213.501 35.6419 213.82 32.5252 213.021 30.2076C212.654 29.1368 212.078 27.8102 211.503 26.2758C209.969 22.1362 211.711 17.5811 214.795 17.5331V17.5971C211.759 17.661 210.032 22.2002 211.567 26.3238C212.142 27.8581 212.734 29.1687 213.133 30.2396C213.996 32.5252 213.948 35.6898 213.581 38.3909C213.165 41.5556 217.848 47.1656 211.615 49.4831C210.8 49.7868 209.857 50.0585 208.834 50.3782C197.821 53.8145 185.579 57.9381 189.207 67.2722C191.684 73.6334 202.968 65.1944 208.498 68.1033C212.27 70.0852 214.955 72.2109 208.962 80.65C207.427 82.7917 206.868 85.8125 205.589 88.9931C202.52 96.5371 201.945 100.021 202.696 102.051C203.224 103.49 204.007 104.545 205.094 105.791C213.357 115.253 212.35 123.197 211.263 129.238C210.864 131.396 211.743 137.23 209.121 142.057C207.683 144.726 205.381 146.756 202.984 148.897C186.49 167.629 173.32 162.611 160.134 160.117C145.126 157.272 139.579 158.903 118.578 162.131C91.3108 166.335 82.2005 156.489 73.2021 153.532C72.5793 153.323 71.9441 153.152 71.3001 153.021C59.6006 150.464 40.0214 161.955 25.6847 160.853C14.5925 159.974 6.50509 153.309 5.94569 153.373L5.89774 153.405C6.05757 153.58 13.0102 159.846 23.1434 160.901C37.8637 162.435 56.5478 149.457 67.9437 151.95C68.5811 152.087 69.2107 152.257 69.8297 152.462C78.8761 155.434 88.4339 165.392 114.918 160.533C139.116 156.09 141.354 157.784 155.339 159.59C168.892 161.348 185.115 164.928 199.787 148.498C202.696 146.02 205.605 143.735 207.411 140.618C210.768 134.864 209.617 127.832 209.761 125.45C210.144 119.664 210.304 112.041 202.169 104.273C201.082 103.218 199.995 102.435 199.564 101.252C197.997 99.8775 198.349 96.6809 199.963 90.0639C200.698 87.1231 200.698 84.2941 202.217 82.3761C207.987 75.1518 206.5 73.0261 203.527 70.9323C199.292 67.9595 189.686 74.4965 186.841 68.1353C182.174 57.6664 193.81 54.0063 205.254 50.1704C206.308 49.8188 207.251 49.4991 208.051 49.1635C214.668 46.3185 208.85 40.4847 210.4 37.7996C211.711 35.546 213.037 32.701 212.558 30.1277C212.35 29.0409 211.839 27.6663 211.247 26.068C209.649 21.8326 211.567 17.3094 214.779 17.2295V17.2934C211.599 17.3733 209.713 21.8965 211.311 26.116C211.918 27.6983 212.43 29.0569 212.686 30.1597C213.245 32.669 212.174 35.5779 211.039 37.9274C209.713 40.7085 215.307 46.4943 208.754 49.2434C207.939 49.579 206.996 49.8827 205.973 50.2343C194.625 54.0063 182.861 57.7463 187.321 67.9914C190.086 74.3527 200.027 67.432 204.534 70.3889C207.667 72.4507 209.393 74.5764 203.575 82.0405C202.041 84.0224 201.929 86.8833 201.098 89.8562C199.196 96.6649 198.717 99.9254 200.203 101.412C200.603 102.643 201.673 103.49 202.76 104.561C210.928 112.664 210.576 120.352 210.08 126.185C209.873 128.519 210.991 135.312 207.763 140.874C206.021 143.895 203.24 146.132 200.427 148.546C185.387 165.456 169.835 161.172 156.298 159.67C142.025 158.088 139.228 156.649 115.653 160.837C89.0253 165.568 79.5633 155.626 70.517 152.653C69.8973 152.451 69.2679 152.28 68.631 152.142C57.1871 149.633 38.2953 162.307 23.6708 160.869C13.3618 159.894 6.18543 153.532 5.94569 153.405C6.24936 153.468 13.6655 159.91 24.1663 160.885C38.7268 162.227 57.7945 149.856 69.3023 152.382C69.9396 152.518 70.5692 152.689 71.1882 152.893C80.2346 155.866 89.6007 165.807 116.388 161.188C139.324 157.24 142.728 158.439 157.257 159.814C170.762 161.092 185.658 166.015 201.066 148.674C203.767 146.324 206.436 144.15 208.099 141.21C211.167 135.807 210.112 129.27 210.368 126.985C211.023 121.103 211.535 113.351 203.352 104.912C202.265 103.777 201.194 102.914 200.826 101.604C199.436 100.021 200.027 96.6649 202.233 89.6803C203.192 86.6596 203.416 83.7347 204.934 81.7368C210.8 74.033 208.834 71.8913 205.541 69.8614C200.778 66.9206 190.501 74.2088 187.816 67.8636C183.565 57.8582 195.44 54.0063 206.708 50.3302C207.747 49.9946 208.69 49.7069 209.489 49.3553C215.946 46.7021 210.592 40.9802 211.695 38.1032C212.638 35.6578 213.453 32.701 212.814 30.2396C212.526 29.1528 211.982 27.8102 211.391 26.2279C209.825 22.0403 211.663 17.5171 214.811 17.4372L214.827 17.2454C211.583 17.3253 209.617 21.8485 211.231 26.1C211.855 27.7303 212.334 29.1048 212.51 30.2076C212.909 32.8289 211.343 35.6099 209.841 37.7836C208.051 40.3568 214.092 46.2386 207.395 49.1954C206.596 49.5471 205.637 49.8667 204.598 50.2343C193.075 54.1661 181.551 57.7304 186.426 68.423C189.335 74.7842 198.621 68.6308 202.6 71.6196C205.413 73.7293 206.644 75.8551 200.938 82.8396C199.404 84.7256 199.516 87.5067 198.908 90.4156C197.566 96.8407 197.326 99.9574 198.988 101.22C199.452 102.323 200.539 103.074 201.657 104.081C209.761 111.513 209.793 119.057 209.537 124.795C209.441 127.208 210.656 134.481 207.14 140.426C205.254 143.623 202.201 145.956 199.212 148.514C184.907 164.497 167.997 161.572 154.428 159.59C140.714 157.592 139.084 155.626 114.23 160.325C87.9065 165.296 78.2847 155.322 69.2064 152.35C68.5867 152.148 67.9572 151.977 67.3204 151.838C55.9565 149.281 37.4322 162.547 22.6479 160.949C12.7065 159.862 5.99363 153.644 5.91372 153.437C5.91372 153.692 12.4188 159.846 22.1524 160.949C37.0006 162.643 55.3651 149.089 66.6171 151.551C67.254 151.689 67.8835 151.86 68.5031 152.062C77.5814 155.035 87.3151 165.024 113.479 159.926C138.956 154.971 139.995 157.193 153.437 159.414C167.038 161.652 184.588 163.873 198.541 148.37C201.641 145.749 204.806 143.367 206.772 140.075C210.448 133.953 209.153 126.441 209.217 123.98C209.329 118.306 209.137 110.81 201.05 103.713C199.947 102.738 198.844 102.051 198.349 100.996C196.591 99.8455 196.703 96.7928 197.758 90.5754C198.253 87.6985 198.029 84.9654 199.564 83.1273C205.238 76.3825 204.263 74.2887 201.593 72.147C197.885 69.1582 188.919 74.9281 185.946 68.5668C180.848 57.6504 192.259 54.1661 203.879 50.1704C204.934 49.8028 205.877 49.4831 206.676 49.1155C213.437 46.0468 207.172 40.1331 209.185 37.6557C210.88 35.5779 212.686 32.8608 212.382 30.1917C212.254 29.0888 211.775 27.6983 211.167 26.0521C209.537 21.7846 211.551 17.2614 214.827 17.1655V17.1016C211.503 17.1975 209.457 21.7047 211.103 26.0041C211.727 27.6504 212.19 29.0569 212.286 30.1597C212.51 32.8928 210.448 35.5619 208.578 37.5278C206.324 39.9093 212.83 45.887 205.989 49.0516C205.19 49.4192 204.231 49.7708 203.176 50.1384C191.476 54.2141 180.16 57.6185 185.467 68.7426C188.503 75.1039 197.134 69.7336 200.587 72.7224C203.096 74.8961 203.831 76.9899 198.205 83.4789C196.655 85.269 197.006 87.9702 196.623 90.7992C195.824 96.8247 195.856 99.8136 197.71 100.852C198.237 101.827 199.356 102.499 200.459 103.41C208.498 110.171 208.914 117.587 208.914 123.229C208.914 125.722 210.256 133.474 206.436 139.787C204.39 143.159 201.114 145.589 197.917 148.274C184.332 163.33 166.095 161.796 152.494 159.302C139.324 156.889 138.892 154.379 112.76 159.59C86.7557 164.784 76.9581 154.795 67.8478 151.822C67.2282 151.62 66.5987 151.449 65.9618 151.311C54.7577 148.865 36.5851 162.723 21.657 160.933C12.1151 159.782 5.84979 153.708 5.91372 153.405C5.76987 153.756 11.7955 159.766 21.1615 160.949C36.1695 162.834 54.1823 148.674 65.3065 151.103C65.9298 151.247 66.5692 151.407 67.1925 151.614C76.3028 154.587 86.1803 164.577 112.041 159.27C138.796 153.772 138.652 156.585 151.551 159.19C165.184 161.939 184.076 162.771 197.294 148.194C200.587 145.429 203.991 142.952 206.117 139.483C210.08 132.994 208.69 125.003 208.626 122.461C208.498 116.883 207.891 109.515 199.899 103.106C198.796 102.227 197.678 101.604 197.118 100.677C195.168 99.7496 193.794 96.633 195.536 91.0069C195.216 88.2259 195.344 85.5727 196.894 83.8146C202.457 77.5652 201.977 75.4715 199.628 73.2818C196.447 70.309 188.136 75.2797 185.019 68.9025C179.489 57.5545 190.677 54.2301 202.473 50.0585C203.543 49.6749 204.486 49.3233 205.286 48.9557C212.174 45.6792 205.461 39.6856 207.955 37.384C210.016 35.498 212.334 32.8928 212.19 30.1117C212.126 28.9929 211.695 27.5704 211.071 25.9242C209.425 21.6088 211.503 17.1016 214.859 16.9897L214.875 16.7979C211.423 16.9098 209.217 21.401 210.912 25.7963C211.567 27.5065 211.95 28.945 211.887 30.0798C211.743 33.0366 208.722 35.4341 206.101 37.0643C202.904 39.0462 210.32 45.1837 203.192 48.7959C202.272 49.2431 201.327 49.638 200.363 49.9786C188.328 54.3899 177.427 57.4586 183.645 69.4779C186.937 75.8391 194.273 72.0831 196.671 75.0239C198.557 77.3415 198.253 79.3713 192.867 84.8855C191.3 86.4997 191.428 89.057 192.179 91.6942C191.141 96.7928 193.027 99.6378 195.248 100.245C195.904 100.98 197.038 101.46 198.157 102.243C206.053 107.645 207.283 114.822 207.763 120.24C208.003 122.909 209.521 131.62 205.126 138.668C202.792 142.408 199.004 145.029 195.408 148.002C183.277 161.204 162.371 162.499 148.69 158.935C136.607 155.786 138.509 152.046 109.867 158.375C84.4541 163.985 74.3369 153.996 65.1946 151.039C64.5713 150.847 63.948 150.671 63.3086 150.528C52.3763 148.13 34.8909 163.218 19.6591 161.044C10.8684 159.782 5.53013 153.964 5.91372 153.468C5.62603 153.9 11.1881 159.782 20.1705 161.028C35.3384 163.106 52.9836 148.338 63.9799 150.735C64.6033 150.879 65.2426 151.039 65.8659 151.247C74.9922 154.204 85.0295 164.193 110.586 158.695C138.605 152.653 137.278 156.074 149.633 159.047C163.298 162.323 183.533 161.748 196.015 148.082C199.5 145.173 203.16 142.6 205.429 138.956C209.697 132.099 208.21 123.628 208.019 121.007C207.651 115.541 206.644 108.301 198.717 102.547C197.598 101.732 196.479 101.22 195.84 100.421C193.698 99.7017 192.004 96.7768 193.266 91.4864C192.659 88.8013 192.627 86.212 194.177 84.5498C199.628 78.78 199.676 76.7341 197.63 74.4645C194.961 71.5077 187.305 75.6633 184.076 69.302C178.098 57.5066 189.095 54.3579 201.034 50.0106C201.997 49.6767 202.941 49.2926 203.863 48.8598C210.912 45.3755 203.719 39.27 206.676 37.1922C209.121 35.466 211.902 33.0206 211.95 30.1117C211.966 28.9769 211.567 27.5545 210.928 25.8443C209.249 21.4649 211.423 16.9737 214.843 16.8778V16.9418C211.471 17.0377 209.329 21.5449 210.991 25.8922C211.631 27.5704 212.062 29.0089 212.078 30.1277C212.126 32.9727 209.585 35.498 207.331 37.3041C204.614 39.4938 211.567 45.5513 204.582 48.9237C203.655 49.3393 202.712 49.7229 201.769 50.0425C189.894 54.31 178.802 57.5226 184.556 69.1102C187.72 75.4715 195.712 70.9003 198.637 73.8732C200.842 76.0948 201.066 78.1726 195.536 84.1822C193.986 85.8924 193.922 88.4976 194.401 91.2467C192.883 96.6969 194.449 99.7336 196.479 100.549C197.086 101.396 198.205 101.971 199.308 102.834C207.283 108.908 208.083 116.212 208.338 121.742C208.45 124.315 209.889 132.563 205.781 139.228C203.591 142.792 200.043 145.317 196.655 148.146C183.804 162.275 164.241 162.131 150.592 159.126C137.965 156.345 138.7 153.229 111.306 158.999C85.5889 164.401 75.6315 154.411 66.5052 151.439C65.8856 151.236 65.2561 151.066 64.6192 150.927C53.543 148.498 35.722 162.962 20.6341 160.996C11.4758 159.798 5.65799 153.836 5.89774 153.452L5.84979 153.484C5.24243 154.108 9.89348 159.75 18.1087 161.076C33.5483 163.57 50.5222 147.539 61.2788 149.904C61.9021 150.048 62.5255 150.208 63.1488 150.416C72.3071 153.389 82.664 163.33 107.645 157.432C138.173 150.224 134.481 154.987 145.781 158.631C159.494 163.058 182.43 159.606 193.458 147.763C197.342 144.598 201.498 141.817 204.071 137.805C208.914 130.213 207.251 120.783 206.836 117.986C206.037 112.712 204.135 105.743 196.383 101.348C195.248 100.709 194.081 100.357 193.33 99.8136C190.821 99.5259 188.455 96.9526 188.759 92.3815C187.592 89.9041 187.193 87.4267 188.775 85.9563C193.97 81.1294 195.056 79.1955 193.634 76.7501C191.988 73.8732 185.642 76.3985 182.174 70.0053C175.269 57.3308 185.882 54.5338 198.173 49.8507C199.149 49.5011 200.1 49.0845 201.018 48.6041C208.338 44.6722 200.267 38.4069 204.151 36.7127C207.331 35.3382 211.087 33.1485 211.503 30.0318C211.663 28.8651 211.343 27.3946 210.672 25.6525C208.93 21.1932 211.279 16.718 214.827 16.5901V16.6541C211.311 16.7819 209.01 21.2572 210.736 25.7004C211.407 27.4426 211.743 28.913 211.615 30.0638C211.295 33.1325 207.779 35.3861 204.774 36.8406C201.114 38.6147 208.962 44.8481 201.721 48.668C200.796 49.1257 199.847 49.5312 198.876 49.8827C186.665 54.4698 175.957 57.3627 182.638 69.8135C186.058 76.1907 192.723 73.2658 194.641 76.1587C196.207 78.5562 195.392 80.5381 190.134 85.5727C188.551 87.1071 188.871 89.6004 189.894 92.1258C189.335 96.8567 191.54 99.5419 193.954 99.9254C194.689 100.533 195.84 100.932 196.974 101.62C204.774 106.351 206.452 113.399 207.14 118.705C207.507 121.455 209.137 130.661 204.422 138.061C201.929 141.993 197.885 144.71 194.113 147.795C182.718 160.069 160.469 162.803 146.756 158.663C135.2 155.195 138.285 150.767 108.381 157.672C83.2874 163.458 73.0263 153.5 63.868 150.528C63.2538 150.325 62.6297 150.155 61.998 150.016C51.1935 147.651 34.0598 163.362 18.6841 160.964C10.2291 159.67 5.35431 153.964 5.88175 153.389C5.43423 153.916 10.5488 159.686 19.1476 160.964C34.4593 163.25 51.7529 147.842 62.6373 150.224C63.2607 150.368 63.884 150.528 64.5074 150.735C73.6656 153.708 83.8468 163.666 109.116 157.96C138.397 151.343 135.887 155.418 147.715 158.727C161.412 162.563 182.989 160.565 194.753 147.826C198.445 144.806 202.345 142.121 204.758 138.285C209.313 131.06 207.731 122.094 207.427 119.393C206.836 114.022 205.381 106.926 197.55 101.843C196.431 101.108 195.28 100.677 194.577 100.005C192.243 99.5099 190.214 96.7608 190.997 91.8381C190.118 89.2648 189.894 86.7235 191.46 85.1732C196.783 79.8828 197.342 77.8849 195.616 75.5354C193.474 72.6265 186.458 75.951 183.101 69.5897C176.66 57.3468 187.464 54.3899 199.58 49.8667C200.553 49.5305 201.504 49.13 202.425 48.668C209.617 44.9599 201.977 38.7745 205.413 36.8885C208.226 35.3542 211.503 33.0206 211.727 29.9999C211.807 28.8491 211.455 27.3946 210.8 25.6685C209.089 21.2572 211.343 16.7659 214.843 16.6541V16.4623C211.263 16.5901 208.866 21.0654 210.624 25.5406C211.311 27.2987 211.599 28.7852 211.407 29.9679C210.896 33.1325 206.916 35.2742 203.527 36.5529C199.404 38.1192 207.699 44.4485 200.315 48.4762C199.387 48.9524 198.431 49.374 197.454 49.7389C185.083 54.4858 174.55 57.2189 181.695 70.1012C185.243 76.4944 191.221 74.3846 192.643 77.2296C193.89 79.723 192.563 81.6089 187.417 86.212C185.818 87.6345 186.33 90.0799 187.624 92.5093C187.544 96.8887 190.07 99.382 192.691 99.5578C193.49 100.037 194.657 100.357 195.792 100.964C203.479 105.04 205.621 111.929 206.532 117.155C207.028 119.984 208.738 129.67 203.735 137.454C201.098 141.561 196.815 144.374 192.835 147.619C182.174 158.967 158.535 163.17 144.838 158.455C133.794 154.651 138.061 149.521 106.926 157.033C82.0886 163.01 71.6837 153.101 62.4935 150.128C61.8702 149.936 61.2628 149.76 60.6235 149.617C49.9469 147.283 33.1487 163.618 17.6293 161.012C9.58981 159.702 5.16252 154.108 5.84979 153.437C5.09859 154.156 9.28613 159.686 17.1178 161.044C32.7332 163.762 49.3395 147.107 59.9682 149.425C60.5915 149.569 61.2149 149.728 61.8382 149.936C71.0284 152.909 81.5133 162.835 106.207 156.745C137.965 148.929 133.122 154.411 143.895 158.391C157.608 163.426 181.918 158.471 192.211 147.587C196.287 144.278 200.698 141.401 203.416 137.214C208.562 129.254 206.82 119.329 206.26 116.452C205.254 111.273 202.888 104.465 195.232 100.725C194.081 100.165 192.915 99.8935 192.1 99.4779C189.398 99.414 186.697 97.0165 186.553 92.813C185.115 90.4316 184.524 88.0181 186.122 86.6436C191.189 82.2802 192.787 80.4422 191.7 77.8849C190.517 75.0879 184.875 76.7501 181.279 70.3569C173.895 57.2668 184.332 54.5977 196.799 49.7708C197.779 49.4018 198.735 48.9694 199.66 48.4762C207.124 44.3206 198.573 37.9594 202.952 36.489C206.516 35.2902 210.736 33.2284 211.343 29.9999C211.567 28.8171 211.295 27.3307 210.608 25.5406C208.85 21.0494 211.263 16.5741 214.891 16.4303V16.3664C211.247 16.5102 208.77 20.9695 210.544 25.4927C211.247 27.2828 211.487 28.8011 211.231 29.9839C210.512 33.2604 206.069 35.2743 202.313 36.3771C197.71 37.7356 206.468 44.1448 198.956 48.4123C198.035 48.9171 197.079 49.3551 196.095 49.7229C183.549 54.6456 173.208 57.2189 180.816 70.5167C184.476 76.9099 189.766 75.6633 190.725 78.4283C191.62 81.0336 189.782 82.8396 184.795 86.9632C183.181 88.2898 183.868 90.6713 185.451 93.0048C185.85 97.0325 188.695 99.3341 191.508 99.3021C192.355 99.6537 193.538 99.8935 194.689 100.405C202.265 103.841 204.886 110.554 206.005 115.685C206.628 118.594 208.434 128.759 203.112 136.91C200.331 141.178 195.776 144.118 191.604 147.491C181.663 157.912 156.649 163.602 142.952 158.263C132.419 154.156 137.885 148.29 105.488 156.409C80.9379 162.579 70.3731 152.685 61.1669 149.712C60.5436 149.521 59.9362 149.345 59.2969 149.201C48.7481 146.883 32.2857 163.889 16.6223 161.044C8.98245 159.654 5.01867 154.172 5.84979 153.421C4.93876 154.22 8.66279 159.654 16.1268 161.06C31.8381 164.001 48.1248 146.66 58.6096 148.977C59.233 149.121 59.8403 149.281 60.4637 149.489C69.6699 152.462 80.2986 162.339 104.721 156.09C137.709 147.635 131.668 153.9 141.945 158.151C155.626 163.809 181.343 157.368 190.917 147.395C195.184 143.943 199.851 140.97 202.712 136.606C208.146 128.279 206.324 117.874 205.621 114.917C204.422 109.835 201.561 103.202 194.034 100.101C192.867 99.6218 191.7 99.446 190.805 99.1423C187.912 99.3021 184.891 97.0645 184.252 93.2286C182.526 90.959 181.743 88.6095 183.373 87.3149C188.296 83.415 190.373 81.6729 189.67 79.0037C188.935 76.2706 184.012 77.1017 180.288 70.6926C172.425 57.1709 182.718 54.6936 195.312 49.6749C196.3 49.2981 197.261 48.8549 198.189 48.3483C205.765 43.969 196.799 37.5119 201.641 36.2652C205.573 35.2423 210.256 33.2924 211.071 29.9679C211.359 28.7692 211.151 27.2508 210.432 25.4447C208.642 20.9055 211.167 16.4303 214.827 16.2865V16.2225C211.119 16.3664 208.546 20.8256 210.352 25.3968C211.087 27.2188 211.263 28.7532 210.944 29.9519C210.032 33.3243 205.11 35.2103 200.986 36.1533C195.92 37.3041 205.126 43.7932 197.47 48.2844C196.542 48.8014 195.581 49.2552 194.593 49.643C181.902 54.7415 171.705 57.155 179.809 70.8684C183.597 77.2775 188.152 76.878 188.663 79.5791C189.175 82.2802 186.857 84.0064 182.014 87.6665C180.368 88.8972 181.263 91.2467 183.117 93.4523C183.98 97.1124 187.177 99.2542 190.166 98.9824C191.093 99.2062 192.275 99.366 193.426 99.7976C200.89 102.579 203.991 109.116 205.317 114.166C206.085 117.155 207.971 127.816 202.361 136.319C199.436 140.794 194.641 143.799 190.262 147.315C181.055 156.825 154.635 164.033 140.97 158.056C130.917 153.66 137.566 146.995 103.969 155.77C79.6752 162.099 68.9826 152.254 59.7604 149.281C59.1371 149.089 58.5297 148.913 57.9064 148.769C47.4855 146.468 31.3586 164.145 15.5674 161.06C8.31117 159.638 4.81089 154.268 5.78586 153.405C4.715 154.3 7.99151 159.622 15.056 161.06C30.9271 164.273 46.8781 146.276 57.2351 148.546C57.8584 148.69 58.4658 148.849 59.0891 149.057C68.3273 152.03 79.0679 161.86 103.218 155.45C137.422 146.356 130.181 153.405 139.995 157.944C153.629 164.257 180.768 156.281 189.606 147.235C194.081 143.655 199.004 140.586 201.993 136.031C207.747 127.352 205.845 116.42 204.998 113.415C203.575 108.412 200.251 101.971 192.835 99.4939C191.766 99.1083 190.645 98.8873 189.51 98.8386C186.394 98.7587 183.085 97.1604 181.966 93.6601C179.968 91.4864 178.994 89.1849 180.64 88.0021C185.403 84.5658 187.96 82.9195 187.64 80.1385C187.337 77.4693 183.149 77.4534 179.297 71.0442C170.954 57.107 181.055 54.7735 193.842 49.579C194.838 49.1925 195.805 48.7331 196.735 48.2045C204.438 43.6014 195.04 37.0643 200.331 36.0095C204.646 35.1624 209.809 33.3403 210.8 29.9199C211.151 28.7212 210.975 27.1709 210.272 25.3328C208.45 20.7297 211.055 16.2865 214.795 16.1426L214.811 15.9508C210.959 16.1106 208.242 20.5539 210.08 25.2209C210.832 27.1069 210.928 28.6733 210.48 29.904C209.169 33.4842 203.336 35.0984 198.445 35.7058C192.467 36.441 202.52 43.0899 194.625 48.0606C193.697 48.6246 192.724 49.111 191.716 49.5151C178.69 54.9493 168.796 57.0751 177.891 71.6356C181.918 78.0607 184.955 79.3234 184.667 81.9286C184.348 84.8375 181.119 86.3399 176.612 89.1369C174.934 90.1758 176.58 92.1098 178.61 94.4273C180.943 97.0965 184.22 98.8546 187.64 98.471C188.796 98.3615 189.961 98.4371 191.093 98.6948C198.317 100.245 202.425 106.367 204.119 111.257C205.206 114.39 207.203 126.042 200.986 135.28C197.758 140.123 192.467 143.319 187.704 147.107C179.952 154.779 150.624 165.088 137.118 157.752C127.992 152.797 137.054 144.486 101.028 154.619C77.2778 161.284 66.3294 151.535 57.0593 148.546C56.4359 148.354 55.8286 148.178 55.2212 148.034C45.0401 145.797 29.5845 164.832 13.5216 161.204C7.00056 159.75 4.44328 154.555 5.72192 153.516C4.5232 154.491 7.30424 159.734 14.0011 161.204C30.0001 164.673 45.6155 146.004 55.8446 148.258C56.4679 148.402 57.0753 148.562 57.6986 148.769C66.9687 151.758 77.8372 161.54 101.716 154.939C137.134 145.173 128.695 153.053 138.029 157.864C151.583 164.864 180.176 155.322 188.28 147.203C192.947 143.495 198.125 140.314 201.274 135.583C207.331 126.537 205.365 115.125 204.359 112.025C202.76 107.086 198.924 100.884 191.62 99.0144C190.51 98.7241 189.362 98.6002 188.216 98.6468C184.875 98.8866 181.87 97.0645 179.681 94.2355C177.843 91.87 176.228 89.9201 177.907 88.8333C182.51 85.8284 185.515 84.2941 185.61 81.4012C185.706 78.7959 182.27 77.9329 178.322 71.5237C169.484 57.1709 179.425 54.9813 192.387 49.627C193.393 49.2307 194.366 48.755 195.296 48.2045C203.144 43.3616 193.298 36.7607 199.052 35.9136C203.751 35.2263 209.361 33.5481 210.576 30.0158C210.991 28.7852 210.88 27.2348 210.128 25.3648C208.274 20.7297 210.975 16.2865 214.779 16.1266V16.1906C210.991 16.3504 208.354 20.7937 210.176 25.4127C210.912 27.2668 211.055 28.8011 210.672 30.0158C209.569 33.4842 204.183 35.2423 199.691 36.0095C194.177 36.9525 203.799 43.5215 196.015 48.2524C195.088 48.7945 194.121 49.2647 193.122 49.6589C180.256 54.9333 170.219 57.1869 178.818 71.3319C182.718 77.757 186.521 78.1886 186.633 80.8258C186.745 83.6548 183.964 85.2531 179.281 88.4656C177.619 89.6004 178.69 91.886 180.832 93.9958C182.174 97.3042 185.658 98.8546 188.871 98.7906C189.862 98.7587 191.061 98.9665 192.227 99.3021C199.58 101.476 203.176 107.789 204.678 112.76C205.605 115.813 207.539 126.985 201.641 135.839C198.573 140.49 193.506 143.607 188.951 147.251C180.464 155.85 152.606 164.593 139.02 157.928C129.446 153.245 137.294 145.781 102.467 155.227C78.4445 161.732 67.624 151.934 58.3859 148.945C57.7625 148.753 57.1552 148.578 56.5318 148.434C46.2228 146.164 30.4476 164.513 14.5126 161.172C7.6239 159.734 4.58713 154.443 5.72192 153.5L5.70594 153.516C4.34739 154.603 6.66492 159.718 12.9942 161.204C29.105 164.976 44.4167 145.573 54.518 147.81C55.1413 147.954 55.7327 148.114 56.356 148.322C65.6262 151.311 76.6384 161.028 100.261 154.284C136.878 143.815 127.225 152.525 136.127 157.64C149.569 165.328 179.649 154.236 187.033 147.027C191.892 143.175 197.326 139.915 200.618 134.992C206.964 125.578 204.95 113.655 203.783 110.506C201.993 105.647 197.662 99.6697 190.469 98.4071C189.319 98.1942 188.142 98.1726 186.985 98.3431C183.469 98.8865 179.937 97.1764 177.459 94.683C175.238 92.4454 173.527 90.5274 175.238 89.5205C179.681 86.9632 183.117 85.4928 183.661 82.536C184.156 79.9787 181.487 78.3164 177.427 71.8753C168.093 57.123 177.891 55.0772 191.013 49.5471C192.024 49.144 192.997 48.6519 193.922 48.0766C201.897 43.01 191.62 36.2972 197.837 35.6738C202.904 35.1624 208.978 33.5801 210.4 29.9679C210.896 28.7212 210.816 27.1549 210.048 25.2529C208.162 20.5699 210.944 16.1266 214.827 15.9668V15.9029C210.896 16.0787 208.099 20.506 209.985 25.205C210.752 27.1069 210.8 28.6893 210.272 29.9519C208.754 33.628 202.473 35.1304 197.198 35.5619C190.757 36.0734 201.242 42.8182 193.218 48.0127C192.295 48.5931 191.321 49.0905 190.309 49.4991C177.108 55.1091 167.374 57.075 176.964 72.0511C181.103 78.4923 183.357 80.5541 182.686 83.1273C181.902 86.1161 178.258 87.5227 173.911 89.8881C172.185 90.8151 173.927 92.7491 176.356 94.9068C178.994 97.2403 182.781 98.9025 186.394 98.1993C187.56 97.9864 188.753 97.9648 189.926 98.1353C197.038 99.1103 201.641 104.96 203.527 109.787C204.774 112.968 206.82 125.131 200.315 134.736C196.942 139.739 191.396 143.064 186.426 146.979C179.409 153.724 148.578 165.616 135.2 157.56C126.505 152.334 136.782 143.159 99.5581 153.98C76.0631 160.821 65.0028 151.103 55.7167 148.114C55.0934 147.922 54.486 147.747 53.8787 147.603C43.8414 145.381 28.6735 165.152 12.5147 161.22C6.36124 159.734 4.26747 154.635 5.72192 153.516C4.20354 154.683 6.05757 159.718 12.0192 161.236C28.242 165.328 43.234 145.205 53.2074 147.411C53.8147 147.555 54.4221 147.715 55.0454 147.922C64.3475 150.911 75.4717 160.597 98.8228 153.676C136.623 142.488 125.738 152.094 134.225 157.464C147.507 165.871 179.121 153.181 185.77 146.899C190.837 142.904 196.511 139.547 199.947 134.449C206.596 124.667 204.518 112.232 203.192 109.02C201.21 104.225 196.383 98.503 189.319 97.8317C188.122 97.7084 186.913 97.7786 185.738 98.0395C182.046 98.8866 178.003 97.3202 175.206 95.1306C172.568 93.0528 170.81 91.1028 172.536 90.2238C176.804 88.0821 180.656 86.7075 181.679 83.6867C182.526 81.1294 180.672 78.6841 176.484 72.2269C166.639 57.0591 176.292 55.1411 189.59 49.4671C190.604 49.0508 191.578 48.5426 192.499 47.9488C200.587 42.6424 189.894 35.8496 196.559 35.4501C202.009 35.0984 208.546 33.66 210.16 29.9359C210.704 28.6733 210.688 27.075 209.905 25.157C208.003 20.426 210.864 15.9988 214.811 15.8229V15.759C210.832 15.9348 207.923 20.3621 209.857 25.125C210.64 27.059 210.64 28.6573 210.048 29.9359C208.322 33.6919 201.562 35.0825 195.935 35.3382C189.047 35.6419 199.947 42.4506 191.78 47.9008C190.861 48.5026 189.887 49.0164 188.871 49.4352C175.493 55.1891 165.919 57.0431 176.021 72.4187C180.272 78.8759 181.759 81.7048 180.704 84.2781C179.457 87.3149 175.397 88.6574 171.21 90.5914C169.452 91.4065 171.274 93.3884 174.119 95.3543C177.06 97.4161 181.343 98.9025 185.131 97.8956C186.315 97.5902 187.538 97.4663 188.759 97.528C195.792 97.9276 200.858 103.506 202.936 108.269C204.359 111.513 206.436 124.188 199.66 134.161C196.127 139.34 190.341 142.76 185.179 146.82C178.882 152.637 146.5 166.127 133.314 157.352C125.035 151.838 136.527 141.801 98.1356 153.357C74.8963 160.357 63.7082 150.687 54.4061 147.715C53.7828 147.523 53.1754 147.347 52.5681 147.203C42.6746 144.997 27.8104 165.488 11.5397 161.268C5.76987 159.67 4.15559 154.667 5.75389 153.468L5.73791 153.484C3.91585 154.827 4.81089 159.702 10.0533 161.236C26.4359 166.015 40.8685 144.342 50.6022 146.5C60.3358 148.658 71.6038 160.021 95.9619 152.318C136.095 139.627 122.749 151.023 130.469 156.953C143.335 166.846 178.114 150.911 183.309 146.484C188.759 142.216 194.929 138.668 198.685 133.202C205.909 122.669 203.751 109.244 202.089 105.919C199.324 100.405 191.844 94.2515 183.309 97.3362C175.365 100.229 163.586 92.797 167.23 91.5344C174.502 89.0251 184.3 87.0272 174.678 72.8503C163.81 56.8673 173.176 55.221 186.809 49.2274C200.443 43.2338 185.818 34.9226 194.129 34.9226C202.441 34.9226 212.941 32.733 209.761 24.9013C207.795 20.0744 210.832 15.6631 214.907 15.4873V15.5512C210.864 15.727 207.875 20.1543 209.825 24.9492C210.624 26.9151 210.576 28.5294 209.921 29.824C208.003 33.66 200.778 34.9386 194.769 35.0345C187.417 35.1304 198.733 42.0191 190.469 47.693C189.548 48.3135 188.568 48.8434 187.544 49.2753C174.007 55.205 164.561 56.9312 175.174 72.6904C179.537 79.1795 180.24 82.7597 178.818 85.333C177.108 88.4017 172.632 89.6484 168.621 91.1987C166.846 91.886 168.748 93.9638 171.977 95.7059C175.269 97.512 180.048 98.8066 183.98 97.4801C185.177 97.0791 186.427 96.8583 187.688 96.8247C194.641 96.6489 200.155 101.939 202.425 106.654C204.007 109.947 206.133 123.133 199.068 133.474C195.392 138.844 189.35 142.344 183.98 146.548C178.418 151.439 144.454 166.543 131.46 157.033C123.517 151.263 136.255 140.33 96.6971 152.637C73.7136 159.782 62.4136 150.192 53.0955 147.203C52.4722 147.011 51.8808 146.836 51.2734 146.708C41.4759 144.55 26.9154 165.807 10.5648 161.22C5.14653 159.702 4.01174 154.795 5.75389 153.468C4.09166 154.731 5.46619 159.686 11.0443 161.204C27.3629 165.616 42.0672 144.742 51.9128 146.915C52.5201 147.059 53.1275 147.219 53.7508 147.427C63.0689 150.416 74.3049 160.037 97.4163 152.957C136.399 141.034 124.284 151.535 132.371 157.161C145.477 166.319 178.642 151.998 184.572 146.644C189.83 142.504 195.76 139.052 199.34 133.777C206.276 123.628 204.167 110.698 202.664 107.421C200.507 102.69 195.2 97.2403 188.216 97.1284C186.972 97.1144 185.733 97.2868 184.54 97.6399C180.672 98.8066 176.149 97.4001 173.016 95.4822C169.995 93.6122 168.141 91.5823 169.883 90.8471C173.975 89.105 178.242 87.8263 179.729 84.7576C180.975 82.1843 179.873 78.9877 175.573 72.5146C165.232 56.9472 174.726 55.1571 188.184 49.3233C189.201 48.8897 190.179 48.371 191.109 47.7729C199.324 42.2268 188.2 35.3701 195.328 35.1784C201.162 35.0025 208.131 33.6759 209.953 29.872C210.576 28.5774 210.592 26.9631 209.793 25.0292C207.859 20.2662 210.8 15.8389 214.827 15.6471L214.716 18.2524C212.014 18.2843 210.704 22.8555 212.11 26.7553C212.562 28.0698 213.262 29.2852 214.172 30.3355C215.754 32.1256 218.232 35.8816 219.814 39.4938C221.652 43.6653 224.082 48.7159 218.615 50.0745C217.784 50.2823 216.873 50.4901 215.898 50.7458C205.733 53.399 192.116 58.4336 193.874 65.4501C195.472 71.8593 210.32 59.6323 218.408 62.3335C223.842 64.1555 228.781 66.2173 222.419 77.1017C220.901 79.691 219.239 82.9675 216.793 86.7075C210.8 95.8818 208.882 100.533 208.93 103.522C208.962 105.647 209.793 107.086 210.88 108.732C219.319 121.582 217.033 130.293 214.188 136.702C213.389 138.492 213.613 141.881 212.446 144.854C211.759 146.612 210.704 148.146 209.281 149.601C189.143 172.968 183.149 159.558 169.659 161.06C151.743 163.058 140.363 164.081 125.818 165.216C96.8889 167.502 88.7536 158.503 79.851 155.546C79.218 155.335 78.572 155.164 77.9171 155.035C65.5622 152.35 44.2729 160.996 30.6554 160.661C17.6932 160.309 7.30424 152.765 6.00962 153.309C7.38415 152.733 17.9969 160.373 31.1988 160.645C44.7364 160.933 66.2016 152.541 78.6044 155.243C79.2437 155.386 79.899 155.562 80.5383 155.77C89.4248 158.727 97.4643 167.549 126.585 165.536C140.475 164.561 152.494 163.442 170.65 161.156C184.14 159.462 189.43 173.495 209.953 149.665C211.211 148.367 212.186 146.821 212.814 145.125C213.836 142.328 213.677 139.196 214.524 137.438C217.56 130.996 219.942 122.19 211.503 109.004C210.416 107.31 209.585 105.839 209.601 103.634C209.633 100.517 211.663 95.7699 217.96 86.4358C220.517 82.6319 222.291 79.3394 223.81 76.7022C230.203 65.562 225.056 63.5162 219.43 61.7101C211.103 59.041 195.872 71.6356 194.385 65.2104C192.819 58.4336 206.596 53.2871 216.649 50.7138C217.624 50.4741 218.535 50.2663 219.351 50.0745C224.753 48.7959 222.531 43.8251 220.469 39.5417C218.695 35.8496 215.962 32.0457 214.3 30.2876C213.36 29.2624 212.642 28.0545 212.19 26.7393C210.816 22.8714 212.062 18.2683 214.747 18.2524" stroke="#231F20" stroke-opacity="0.65" stroke-width="0.15983" stroke-miterlimit="10"/>
<path d="M214.971 15.4877C218.376 15.3118 222.691 18.5724 225.424 28.0023C231.594 49.2437 245.483 39.2224 252.196 53.3354C256.687 62.7813 229.74 85.2214 249.75 79.2118C269.345 73.3301 249.574 105.072 240.256 103.794C224.034 101.572 220.581 98.8549 222.979 126.25C223.986 137.726 238.882 147.891 240.576 148.818" stroke="#231F20" stroke-opacity="0.65" stroke-width="0.15983" stroke-miterlimit="10"/>
<path d="M214.971 15.5679C217.065 15.472 219.399 16.6547 221.524 19.7874C222.867 21.7533 224.145 24.4544 225.216 28.0666C226.511 32.4459 228.141 35.5146 229.979 37.6883C236.82 45.9355 247.065 42.0677 251.668 53.2398C252.979 56.3724 250.725 60.8637 248.216 65.3229C247.097 67.3368 245.994 69.2707 244.971 71.0768C241.375 77.3261 239.265 81.9612 249.239 79.1162C267.395 73.9377 250.533 102.068 241.024 103.698C240.591 103.778 240.15 103.794 239.713 103.746C223.842 101.828 220.533 99.3827 222.915 126.33C223.25 130.166 225.104 133.842 227.454 137.087C232.137 143.512 238.834 148.083 239.921 148.818" stroke="#231F20" stroke-opacity="0.65" stroke-width="0.15983" stroke-miterlimit="10"/>
<path d="M214.971 15.6318C217.065 15.5359 219.303 16.7346 221.364 19.8832C222.659 21.8491 223.938 24.5503 225.025 28.1305C226.335 32.4618 227.981 35.4826 229.819 37.6723C236.596 45.7757 247.289 42.0516 251.189 53.1758C252.292 56.3245 249.798 60.7038 247.369 65.1151C246.282 67.113 245.371 68.983 244.444 70.7411C241.167 76.8466 239.17 81.6415 248.775 79.0682C266.405 74.3373 249.766 101.972 240.512 103.698C240.086 103.784 239.65 103.805 239.217 103.762C223.698 102.132 220.565 99.974 222.883 126.474C223.218 130.294 225.025 133.954 227.31 137.166C231.833 143.544 238.274 148.003 239.329 148.866" stroke="#231F20" stroke-opacity="0.65" stroke-width="0.15983" stroke-miterlimit="10"/>
<path d="M214.955 15.7113C217.049 15.6154 219.191 16.8301 221.173 19.9787C222.419 21.9447 223.698 24.6298 224.785 28.178C226.095 32.4615 227.774 35.4663 229.612 37.64C236.34 45.5835 247.465 42.0353 250.645 53.0795C251.556 56.2442 248.791 60.5116 246.474 64.875C245.403 66.8728 244.716 68.6789 243.868 70.3891C240.928 76.3667 239.026 81.3215 248.264 78.988C265.366 74.7045 248.983 101.812 239.921 103.634C239.506 103.721 239.081 103.753 238.658 103.73C223.506 102.419 220.517 100.517 222.803 126.553C223.139 130.373 224.913 134.017 227.102 137.198C231.466 143.527 237.635 147.875 238.674 148.866" stroke="#231F20" stroke-opacity="0.65" stroke-width="0.15983" stroke-miterlimit="10"/>
<path d="M214.955 15.7751C217.049 15.6792 219.111 16.9259 221.029 20.0746C222.228 22.0405 223.506 24.7096 224.609 28.2259C225.936 32.4614 227.63 35.4342 229.452 37.5919C236.117 45.3916 247.688 42.0352 250.166 52.9835C250.901 56.1961 247.864 60.3197 245.627 64.6511C244.604 66.649 244.092 68.3592 243.341 70.0374C240.736 75.9031 238.93 80.9857 247.816 78.9239C264.391 75.088 248.248 101.7 239.425 103.618C239.023 103.719 238.608 103.757 238.195 103.73C223.41 102.707 220.581 101.092 222.819 126.681C223.155 130.485 224.881 134.113 226.99 137.262C231.21 143.559 237.108 147.779 238.115 148.913" stroke="#231F20" stroke-opacity="0.65" stroke-width="0.15983" stroke-miterlimit="10"/>
<path d="M214.955 15.8556C217.049 15.7597 218.999 17.0224 220.853 20.187C222.331 22.7545 223.521 25.4775 224.401 28.3064C225.728 32.478 227.438 35.4348 229.276 37.5765C235.861 45.2484 247.864 42.0997 249.654 52.9042C250.198 56.1647 246.905 60.1285 244.748 64.4279C243.757 66.4098 243.437 68.0561 242.782 69.6864C240.496 75.4083 238.802 80.6507 247.321 78.8446C263.352 75.4722 247.481 101.556 238.85 103.57C238.459 103.673 238.055 103.722 237.651 103.714C223.234 102.995 220.533 101.652 222.755 126.794C223.091 130.582 224.769 134.178 226.799 137.326C230.858 143.576 236.5 147.683 237.475 148.946" stroke="#231F20" stroke-opacity="0.65" stroke-width="0.15983" stroke-miterlimit="10"/>
<path d="M214.955 15.9191C217.049 15.8392 218.903 17.1018 220.693 20.2824C222.123 22.8511 223.295 25.5547 224.193 28.3538C225.536 32.4934 227.246 35.4183 229.1 37.5281C235.621 45.0561 246.122 42.5627 249.159 52.8078C248.903 56.1483 245.962 59.9362 243.884 64.1717C242.91 66.1376 242.798 67.7359 242.238 69.3023C240.304 74.8803 238.674 80.2826 246.841 78.7482C262.345 75.8393 246.697 101.412 238.322 103.506C237.938 103.616 237.54 103.67 237.14 103.666C223.075 103.25 220.549 102.179 222.723 126.873C223.059 130.645 224.689 134.225 226.655 137.358C230.571 143.559 235.925 147.555 236.884 148.946" stroke="#231F20" stroke-opacity="0.65" stroke-width="0.15983" stroke-miterlimit="10"/>
<path d="M214.955 15.983C217.049 15.9031 218.807 17.1817 220.517 20.3623C221.908 22.9292 223.069 25.6141 223.986 28.3858C225.344 32.4615 227.07 35.3704 228.924 37.4801C235.366 44.8643 245.994 42.6107 248.647 52.6959C248.12 56.0524 245.003 59.7284 243.005 63.916C242.078 65.8819 242.158 67.3843 241.695 68.9187C240.096 74.3529 238.562 79.915 246.378 78.6523C261.354 76.2069 245.962 101.252 237.779 103.442C237.406 103.556 237.018 103.615 236.628 103.618C222.915 103.506 220.549 102.707 222.691 126.953C223.027 130.725 224.609 134.289 226.511 137.374C230.267 143.559 235.366 147.427 236.293 148.93" stroke="#231F20" stroke-opacity="0.65" stroke-width="0.15983" stroke-miterlimit="10"/>
<path d="M214.939 16.0631C217.033 15.9832 218.695 17.2618 220.342 20.4744C221.687 23.0454 222.831 25.7173 223.762 28.4659C225.12 32.4936 226.879 35.3705 228.717 37.4643C235.11 44.6886 245.834 42.6907 248.12 52.6322C247.289 56.0365 244.028 59.5688 242.126 63.7244C241.231 65.6903 241.503 67.1127 241.151 68.6151C239.889 73.9055 238.434 79.6434 245.898 78.6205C260.315 76.6386 245.179 101.172 237.252 103.442C236.888 103.554 236.512 103.618 236.133 103.634C222.787 103.826 220.565 103.298 222.659 127.097C222.995 130.853 224.545 134.401 226.351 137.47C229.947 143.607 234.79 147.347 235.685 149.01" stroke="#231F20" stroke-opacity="0.65" stroke-width="0.15983" stroke-miterlimit="10"/>
<path d="M214.939 16.127C217.033 16.0471 218.599 17.3417 220.166 20.5543C221.459 23.129 222.591 25.7821 223.554 28.4978C224.929 32.4776 226.687 35.3386 228.541 37.4164C234.854 44.5128 245.707 42.7387 247.608 52.5203C246.49 55.9566 243.069 59.361 241.247 63.4686C240.384 65.4185 240.848 66.7771 240.592 68.2316C239.665 73.3621 238.29 79.2918 245.419 78.5086C259.292 77.0062 244.428 100.997 236.708 103.362C236.357 103.484 235.992 103.559 235.621 103.586C222.659 104.081 220.565 103.826 222.627 127.177C222.963 130.917 224.465 134.449 226.191 137.486C229.644 143.575 234.215 147.219 235.078 148.978" stroke="#231F20" stroke-opacity="0.65" stroke-width="0.15983" stroke-miterlimit="10"/>
<path d="M214.939 16.1909C217.033 16.111 218.519 17.4216 220.006 20.6502C220.917 22.6001 222.18 25.2213 223.362 28.5618C224.753 32.4936 226.511 35.3226 228.381 37.3844C234.63 44.337 245.611 42.8026 247.113 52.4403C245.691 55.9087 242.126 59.1852 240.384 63.2449C239.553 65.1788 240.208 66.4734 240.049 67.8799C239.457 72.8506 238.163 78.9721 244.939 78.4287C258.253 77.4058 243.645 100.869 236.165 103.314C235.824 103.439 235.47 103.525 235.11 103.57C222.515 104.369 220.581 104.385 222.595 127.305C222.931 131.029 224.385 134.545 226.031 137.582C229.324 143.639 233.623 147.156 234.47 149.042" stroke="#231F20" stroke-opacity="0.65" stroke-width="0.15983" stroke-miterlimit="10"/>
<path d="M214.939 16.2869C217.033 16.223 218.408 17.5336 219.846 20.7781C220.709 22.728 221.972 25.3492 223.155 28.6417C224.545 32.5096 226.335 35.3226 228.189 37.3685C234.375 44.1772 245.451 42.8826 246.586 52.3605C244.891 55.8448 241.151 59.0094 239.489 63.0052C238.69 64.9391 239.553 66.1378 239.473 67.5124C239.217 72.3233 238.115 79.6914 244.428 78.3489C256.911 75.6957 242.862 100.725 235.589 103.266C235.26 103.396 234.917 103.487 234.566 103.538C222.339 104.625 220.533 104.929 222.531 127.385C222.867 131.093 224.289 134.593 225.84 137.598C228.972 143.623 233 146.996 233.831 149.042" stroke="#231F20" stroke-opacity="0.65" stroke-width="0.15983" stroke-miterlimit="10"/>
<path d="M214.939 16.3503C217.033 16.2864 218.312 17.613 219.67 20.8575C220.485 22.8075 221.748 25.4127 222.931 28.6732C224.337 32.4932 226.143 35.2902 227.997 37.32C234.103 43.9849 245.323 42.946 246.074 52.2641C244.076 55.7964 240.192 58.8171 238.626 62.7809C237.859 64.6989 238.914 65.8177 238.93 67.1603C239.01 71.7953 237.955 79.4991 243.964 78.2685C255.904 75.855 242.094 100.597 235.046 103.218C234.731 103.36 234.397 103.457 234.055 103.506C222.196 104.896 220.549 105.471 222.499 127.48C222.835 131.172 224.193 134.656 225.68 137.645C228.669 143.623 232.425 146.899 233.208 149.057" stroke="#231F20" stroke-opacity="0.65" stroke-width="0.15983" stroke-miterlimit="10"/>
<path d="M214.939 16.4304C217.017 16.3665 218.216 17.709 219.51 20.9696C220.278 22.9195 221.524 25.5087 222.755 28.7533C224.161 32.5253 225.984 35.2903 227.838 37.3042C233.879 43.8412 245.195 43.0261 245.579 52.1843C243.293 55.7486 239.249 58.6255 237.763 62.5573C237.028 64.4753 238.274 65.4982 238.386 66.8248C238.802 71.3 237.779 79.3075 243.485 78.2206C254.881 76.0469 241.343 100.501 234.518 103.202C234.211 103.353 233.882 103.456 233.543 103.506C222.068 105.184 220.549 106.047 222.451 127.608C222.787 131.3 224.098 134.752 225.504 137.709C228.333 143.655 231.817 146.804 232.584 149.089" stroke="#231F20" stroke-opacity="0.65" stroke-width="0.15983" stroke-miterlimit="10"/>
<path d="M214.923 16.4943C217.001 16.4304 218.12 17.789 219.335 21.0655C220.07 23.0154 221.316 25.5887 222.531 28.8012C223.954 32.5093 225.776 35.2584 227.646 37.2722C233.623 43.6654 245.067 43.09 245.067 52.1044C242.51 55.6846 238.29 58.4497 236.884 62.3336C236.181 64.2355 237.619 65.1945 237.843 66.4891C238.578 70.7566 237.571 79.1317 243.021 78.1567C253.89 76.2068 240.576 100.389 233.975 103.17C233.673 103.315 233.357 103.428 233.032 103.506C221.94 105.488 220.549 106.622 222.419 127.736C222.755 131.428 224.034 134.848 225.36 137.789C228.029 143.687 231.258 146.724 231.993 149.137" stroke="#231F20" stroke-opacity="0.65" stroke-width="0.15983" stroke-miterlimit="10"/>
<path d="M214.923 16.5588C217.001 16.4948 218.024 17.8694 219.175 21.1619C219.846 23.1118 221.093 25.6691 222.323 28.8497C223.746 32.5098 225.6 35.2429 227.47 37.2088C233.352 43.4581 244.939 43.1225 244.556 51.9771C241.695 55.5892 237.331 58.2264 236.005 62.0623C235.349 63.9643 236.964 64.8274 237.283 66.0901C238.338 70.1817 237.347 78.8924 242.526 78.0453C252.851 76.3352 239.793 100.23 233.432 103.107C233.143 103.261 232.837 103.379 232.521 103.458C221.796 105.728 220.549 107.15 222.387 127.816C222.723 131.492 223.954 134.913 225.2 137.806C227.71 143.672 230.682 146.58 231.386 149.138" stroke="#231F20" stroke-opacity="0.65" stroke-width="0.15983" stroke-miterlimit="10"/>
<path d="M214.923 16.6384C217.001 16.5744 217.928 17.949 218.999 21.2574C219.622 23.2074 220.885 25.7646 222.132 28.9133C223.554 32.5254 225.44 35.2266 227.31 37.1925C233.128 43.314 244.827 43.2021 244.076 51.9128C240.928 55.5729 236.404 58.0823 235.142 61.8542C234.518 63.7402 236.324 64.5234 236.74 65.7541C238.083 69.6699 237.124 77.0061 242.046 77.9971C251.78 79.915 239.026 100.134 232.888 103.09C232.609 103.248 232.314 103.376 232.009 103.474C221.668 106.031 220.565 107.741 222.355 127.96C222.691 131.62 223.89 135.024 225.04 137.917C227.39 143.751 230.107 146.532 230.778 149.217" stroke="#231F20" stroke-opacity="0.65" stroke-width="0.15983" stroke-miterlimit="10"/>
<path d="M214.923 16.7023C217.001 16.6384 217.832 18.0129 218.839 21.3534C219.43 23.2873 220.661 25.8446 221.924 28.9613C223.362 32.5255 225.248 35.1946 227.118 37.1606C232.872 43.1382 244.684 43.282 243.565 51.817C240.112 55.509 235.445 57.8905 234.279 61.6145C233.671 63.5005 235.669 64.1718 236.197 65.4025C237.843 69.1106 237.235 75.8074 241.567 77.9012C250.949 78.4926 238.258 99.9897 232.345 103.01C232.073 103.166 231.79 103.3 231.498 103.41C221.54 106.255 220.565 108.253 222.323 128.024C222.659 131.668 223.794 135.056 224.881 137.917C227.086 143.703 229.516 146.372 230.171 149.185" stroke="#231F20" stroke-opacity="0.65" stroke-width="0.15983" stroke-miterlimit="10"/>
<path d="M214.923 16.7663C217.001 16.7023 217.736 18.0928 218.663 21.4493C219.191 23.3832 220.421 25.9405 221.7 29.0252C222.914 32.0327 224.687 34.7825 226.926 37.1286C232.6 42.9784 244.54 43.346 243.037 51.737C239.297 55.4451 234.486 57.7147 233.384 61.3908C232.824 63.2768 234.982 63.8522 235.621 65.0509C237.539 68.5831 237.092 75.4238 241.055 77.8373C249.878 78.7962 237.459 99.8778 231.769 102.994C231.509 103.165 231.23 103.304 230.938 103.41C221.364 106.543 220.517 108.828 222.227 128.152C222.563 131.78 223.65 135.152 224.673 137.997C226.719 143.751 228.892 146.292 229.516 149.233" stroke="#231F20" stroke-opacity="0.65" stroke-width="0.15983" stroke-miterlimit="10"/>
<path d="M214.923 16.8463C217.001 16.7824 217.64 18.1889 218.503 21.5613C218.999 23.4952 220.23 26.0365 221.508 29.0893C222.747 32.0674 224.53 34.7884 226.767 37.1127C232.361 42.8187 244.444 43.426 242.542 51.6573C238.514 55.4133 233.543 57.523 232.521 61.1672C231.993 63.0531 234.327 63.5326 235.078 64.6994C237.283 68.0558 236.964 75.0404 240.592 77.7575C248.871 79.0681 236.692 99.7661 231.242 102.947C230.99 103.121 230.723 103.27 230.443 103.394C221.268 106.799 220.533 109.388 222.211 128.264C222.547 131.892 223.602 135.232 224.545 138.045C226.431 143.767 228.349 146.181 228.924 149.249" stroke="#231F20" stroke-opacity="0.65" stroke-width="0.15983" stroke-miterlimit="10"/>
<path d="M214.923 16.9103C217.001 16.8463 217.56 18.2688 218.344 21.6412C218.791 23.5752 220.006 26.1165 221.3 29.1213C222.545 32.0708 224.34 34.756 226.591 37.0328C232.105 42.5949 244.3 43.458 242.03 51.5294C237.715 55.3174 232.584 57.3153 231.641 60.9114C231.146 62.7974 233.655 63.197 234.55 64.3158C237.012 67.4964 236.868 74.6248 240.128 77.6616C247.864 79.3398 235.941 99.6222 230.714 102.883C230.475 103.054 230.224 103.209 229.963 103.346C221.173 107.038 220.565 109.915 222.211 128.328C222.547 131.94 223.554 135.264 224.417 138.061C226.159 143.735 227.79 146.037 228.349 149.233" stroke="#231F20" stroke-opacity="0.65" stroke-width="0.15983" stroke-miterlimit="10"/>
<path d="M214.923 16.9898C217.001 16.9259 217.465 18.3644 218.168 21.7528C218.567 23.6867 219.782 26.212 221.093 29.1849C222.36 32.1022 224.159 34.7581 226.399 37.0165C231.849 42.4507 244.172 43.5376 241.503 51.4492C236.9 55.2691 231.625 57.1391 230.746 60.6713C230.283 62.5573 232.968 62.861 233.975 63.9479C236.708 66.9686 236.708 74.2409 239.617 77.5654C246.809 79.6112 235.126 99.494 230.139 102.818C229.899 102.994 229.66 103.154 229.404 103.314C221.013 107.262 220.517 110.458 222.132 128.423C222.467 132.019 223.442 135.328 224.209 138.109C225.792 143.751 227.166 145.925 227.694 149.249" stroke="#231F20" stroke-opacity="0.65" stroke-width="0.15983" stroke-miterlimit="10"/>
<path d="M214.923 17.0694C217.001 17.0055 217.369 18.444 218.008 21.8643C218.376 23.7823 219.574 26.3076 220.901 29.2644C222.189 32.1497 223.999 34.7723 226.239 37.0002C231.609 42.2906 244.06 43.6172 241.023 51.3849C236.133 55.2208 230.698 56.9789 229.915 60.4632C229.5 62.3332 232.345 62.573 233.463 63.6119C236.452 66.4569 236.628 73.873 239.185 77.5171C245.834 79.9465 234.422 99.4298 229.644 102.802C229.42 102.978 229.18 103.154 228.94 103.314C220.917 107.533 220.581 111.033 222.148 128.551C222.483 132.131 223.394 135.439 224.097 138.173C225.52 143.783 226.639 145.844 227.134 149.281" stroke="#231F20" stroke-opacity="0.65" stroke-width="0.15983" stroke-miterlimit="10"/>
<path d="M214.923 17.134C217.001 17.086 217.273 18.5245 217.832 21.9608C218.152 23.8788 219.351 26.3881 220.677 29.297C221.988 32.1538 223.807 34.748 226.047 36.9529C231.338 42.1154 243.916 43.6657 240.512 51.2736C235.334 55.1415 229.755 56.7878 229.036 60.2081C228.637 62.0781 231.673 62.222 232.904 63.2449C236.149 65.93 236.484 73.474 238.69 77.4218C244.779 80.2028 233.623 99.2865 229.068 102.739C228.859 102.932 228.634 103.108 228.397 103.266C220.773 107.742 220.549 111.561 222.084 128.631C222.419 132.211 223.282 135.488 223.906 138.205C225.168 143.783 226.015 145.701 226.495 149.297" stroke="#231F20" stroke-opacity="0.65" stroke-width="0.15983" stroke-miterlimit="10"/>
<path d="M214.923 17.2135C217.001 17.1656 217.193 18.6201 217.688 22.0564C217.96 23.9744 219.143 26.4677 220.485 29.3606C221.803 32.1976 223.635 34.7662 225.888 36.9366C231.098 41.9712 243.804 43.7453 240.017 51.2094C234.534 55.1252 228.796 56.6116 228.173 60.016C227.821 61.87 231.018 61.9499 232.361 62.9249C235.861 65.4822 236.372 73.1221 238.226 77.3895C243.773 80.5382 232.872 99.2223 228.557 102.739C228.317 102.93 228.125 103.154 227.917 103.298C220.693 108.013 220.581 112.153 222.084 128.775C222.419 132.339 223.25 135.6 223.778 138.285C224.881 143.815 225.456 145.621 225.92 149.345" stroke="#231F20" stroke-opacity="0.65" stroke-width="0.15983" stroke-miterlimit="10"/>
<path d="M214.907 17.2775C216.985 17.2296 217.097 18.7 217.497 22.1523C217.72 24.0703 218.919 26.5636 220.278 29.4086C221.62 32.2062 223.462 34.7356 225.712 36.8726C230.858 41.7634 243.677 43.7773 239.505 51.0815C233.735 55.0133 227.854 56.4039 227.294 59.7443C226.99 61.5983 230.331 61.6143 231.801 62.5253C235.573 64.9228 236.229 72.7065 237.731 77.2617C242.718 80.7779 232.089 99.0625 227.997 102.643C227.758 102.834 227.598 103.058 227.374 103.218C220.517 108.189 220.549 112.664 222.004 128.839C222.339 132.403 223.123 135.632 223.586 138.301C224.545 143.799 224.849 145.493 225.28 149.329" stroke="#231F20" stroke-opacity="0.65" stroke-width="0.15983" stroke-miterlimit="10"/>
<path d="M214.907 17.3415C216.985 17.2935 217.001 18.764 217.337 22.2482C217.513 24.1502 218.695 26.6436 220.07 29.4726C221.431 32.2397 223.277 34.7406 225.52 36.8567C230.587 41.6036 243.549 43.8573 238.994 51.0176C232.936 54.9814 226.911 56.2441 226.415 59.5206C226.127 61.3746 229.66 61.2947 231.258 62.1897C235.302 64.4433 236.101 72.3389 237.252 77.1978C241.695 81.0816 231.322 98.9986 227.454 102.611C227.23 102.819 227.054 103.042 226.863 103.218C220.389 108.429 220.549 113.239 221.988 128.967C222.323 132.515 223.059 135.743 223.442 138.381C224.225 143.847 224.289 145.397 224.689 149.377" stroke="#231F20" stroke-opacity="0.65" stroke-width="0.15983" stroke-miterlimit="10"/>
<path d="M214.907 17.4211C216.985 17.3731 216.905 18.8435 217.161 22.3598C217.305 24.2618 218.471 26.7391 219.846 29.5362C221.225 32.2728 223.081 34.7411 225.328 36.8244C230.299 41.4435 243.389 43.9368 238.482 50.9214C232.137 54.9172 225.968 56.0519 225.552 59.2805C225.312 61.1186 229.02 60.9747 230.714 61.8218C235.014 63.9475 235.989 71.939 236.788 77.1175C240.688 81.369 230.587 98.8864 226.927 102.562C226.719 102.77 226.559 103.01 226.367 103.186C220.278 108.636 220.565 113.783 221.972 129.062C222.307 132.594 222.995 135.807 223.298 138.428C223.922 143.847 223.714 145.301 224.098 149.409" stroke="#231F20" stroke-opacity="0.65" stroke-width="0.15983" stroke-miterlimit="10"/>
<path d="M214.907 17.485C216.985 17.4371 216.825 18.9235 217.017 22.4397C217.113 24.3417 218.264 26.8191 219.67 29.5681C221.062 32.2817 222.93 34.7232 225.184 36.7765C230.091 41.2677 243.309 43.9848 237.987 50.8255C231.338 54.8692 225.025 55.8762 224.689 59.0568C224.497 60.8948 228.365 60.687 230.171 61.4862C234.758 63.4841 235.877 71.5715 236.309 77.0536C239.665 81.6567 229.819 98.7905 226.383 102.531C226.191 102.754 226.031 102.994 225.856 103.17C220.134 108.844 220.565 114.342 221.924 129.174C222.259 132.69 222.899 135.887 223.123 138.476C223.602 143.879 223.123 145.189 223.458 149.409" stroke="#231F20" stroke-opacity="0.65" stroke-width="0.15983" stroke-miterlimit="10"/>
<path d="M214.907 17.565C216.985 17.533 216.729 19.0194 216.841 22.5517C216.905 24.4536 218.04 26.931 219.462 29.6481C220.877 32.3186 222.743 34.7248 224.977 36.7605C229.803 41.1239 244.172 45.1196 237.459 50.7456C231.306 55.9081 224.066 55.7004 223.778 58.833C223.602 60.6711 227.646 60.3834 229.58 61.1346C234.423 63.0046 235.701 71.2039 235.781 76.9897C238.578 81.9604 229.004 98.7106 225.792 102.515C225.6 102.738 225.472 102.994 225.28 103.17C219.926 109.084 220.517 114.917 221.828 129.302C222.164 132.802 222.755 135.983 222.915 138.556C223.218 143.91 222.499 145.109 222.803 149.457" stroke="#231F20" stroke-opacity="0.65" stroke-width="0.15983" stroke-miterlimit="10"/>
<path d="M214.891 17.6289C216.969 17.597 216.634 19.0994 216.649 22.6476C216.665 24.5496 217.8 27.0109 219.223 29.6961C220.647 32.3453 222.531 34.7209 224.785 36.7126C229.516 40.9481 243.932 45.1197 236.932 50.6498C230.411 55.7963 223.107 55.5086 222.883 58.5933C222.755 60.4154 226.959 60.0797 229.004 60.767C234.135 62.5092 235.557 70.8043 235.286 76.8939C237.539 82.2322 228.237 98.5988 225.232 102.451C225.057 102.69 224.929 102.946 224.753 103.138C219.766 109.275 220.485 115.461 221.78 129.382C222.116 132.866 222.659 136.047 222.739 138.588C222.899 143.911 221.892 144.981 222.18 149.457" stroke="#231F20" stroke-opacity="0.65" stroke-width="0.15983" stroke-miterlimit="10"/>
<path d="M214.891 17.6934C216.953 17.6614 216.538 19.1638 216.49 22.744C216.458 24.63 217.577 27.0914 219.031 29.7445C220.474 32.3581 222.361 34.7001 224.609 36.6652C229.26 40.7728 243.693 45.1202 236.436 50.5384C229.564 55.669 222.164 55.3014 222.036 58.3381C221.956 60.1602 226.319 59.7446 228.477 60.3839C233.879 61.9982 235.445 70.3893 234.822 76.7985C236.532 82.5044 227.486 98.4874 224.705 102.371C224.529 102.611 224.417 102.883 224.257 103.09C219.622 109.452 220.517 115.989 221.764 129.462C222.1 132.947 222.611 136.095 222.595 138.621C222.595 143.911 221.333 144.854 221.588 149.473" stroke="#231F20" stroke-opacity="0.65" stroke-width="0.15983" stroke-miterlimit="10"/>
<path d="M214.891 17.7891C216.953 17.7571 216.458 19.2755 216.314 22.8557C216.25 24.7417 217.353 27.203 218.807 29.8243C220.342 32.6053 222.467 34.9708 224.417 36.665C229.004 40.6288 243.453 45.1519 235.909 50.4903C228.685 55.5888 221.205 55.1733 221.141 58.1461C221.093 59.9682 225.632 59.4727 227.917 60.0801C233.607 61.5665 234.183 69.9895 234.343 76.7663C234.486 82.9517 226.751 98.4552 224.161 102.387C223.986 102.643 223.89 102.898 223.762 103.122C219.478 109.707 220.533 116.596 221.748 129.622C222.068 133.09 222.531 136.223 222.451 138.716C222.276 143.959 220.773 144.79 220.997 149.537" stroke="#231F20" stroke-opacity="0.65" stroke-width="0.15983" stroke-miterlimit="10"/>
<path d="M214.891 17.853C216.953 17.8211 216.378 19.3554 216.17 22.9356C216.058 24.8216 217.161 27.267 218.631 29.8563C220.182 32.6053 222.307 34.9229 224.273 36.6171C228.765 40.453 243.261 45.152 235.445 50.3784C227.87 55.445 220.31 54.9655 220.31 57.8904C220.31 59.7125 225.041 59.1531 227.422 59.6965C233.4 61.0551 234.231 69.526 233.911 76.6704C233.623 83.1276 226.047 98.3434 223.666 102.323C223.506 102.579 223.41 102.835 223.282 103.074C219.351 109.883 220.581 117.123 221.748 129.702C222.084 133.17 222.483 136.271 222.339 138.748C222.02 143.959 220.23 144.662 220.437 149.537" stroke="#231F20" stroke-opacity="0.65" stroke-width="0.15983" stroke-miterlimit="10"/>
<path d="M214.875 17.917C216.937 17.885 216.282 19.4354 215.978 23.0315C215.818 24.9175 216.921 27.347 218.408 29.9202C219.958 32.6054 222.1 34.9229 224.066 36.5851C228.477 40.2932 243.021 45.152 234.902 50.2985C226.974 55.3172 219.351 54.7897 219.398 57.6667C219.446 59.4728 224.337 58.8654 226.831 59.3449C233.096 60.5756 234.183 69.1105 233.384 76.5905C232.648 83.3673 225.248 98.2475 223.075 102.259C222.931 102.531 222.835 102.787 222.723 103.026C219.127 110.059 220.517 117.651 221.652 129.782C221.972 133.234 222.339 136.335 222.116 138.764C221.62 143.943 219.59 144.518 219.766 149.521" stroke="#231F20" stroke-opacity="0.65" stroke-width="0.15983" stroke-miterlimit="10"/>
<path d="M214.875 17.9967C216.937 17.9807 216.186 19.5311 215.818 23.1432C215.627 25.0292 216.697 27.4586 218.2 29.9839C219.714 32.4773 221.638 34.698 223.89 36.553C228.221 40.1331 242.814 45.1518 234.407 50.2024C226.127 55.1731 218.408 54.5978 218.535 57.4267C218.615 59.2328 223.682 58.5455 226.287 58.9771C232.84 60.0799 234.199 68.7107 232.92 76.4944C231.753 83.5909 224.529 98.1354 222.547 102.211C222.419 102.483 222.339 102.754 222.227 103.01C218.967 110.267 220.549 118.21 221.636 129.894C221.956 133.33 222.275 136.399 221.972 138.828C221.332 143.975 219.031 144.438 219.175 149.569" stroke="#231F20" stroke-opacity="0.65" stroke-width="0.15983" stroke-miterlimit="10"/>
<path d="M214.875 18.0607C216.937 18.0447 216.106 19.595 215.642 23.2392C215.403 25.1252 216.474 27.5386 217.976 30.0319C219.542 32.6212 221.7 34.8908 223.698 36.505C227.949 39.9733 242.606 45.1199 233.879 50.1066C225.248 55.0293 217.449 54.406 217.656 57.187C217.784 58.9931 223.011 58.2419 225.728 58.6095C232.568 59.5845 234.183 68.3112 232.425 76.4146C230.81 83.8467 223.778 98.0396 221.988 102.163C221.86 102.451 221.796 102.723 221.7 102.978C218.759 110.474 220.533 118.738 221.588 130.006C221.908 133.426 222.196 136.479 221.796 138.892C220.981 143.991 218.44 144.326 218.551 149.601" stroke="#231F20" stroke-opacity="0.65" stroke-width="0.15983" stroke-miterlimit="10"/>
<path d="M214.875 18.1246C216.937 18.1086 216.026 19.675 215.483 23.3191C215.195 25.2051 216.266 27.6025 217.8 30.0799C219.382 32.6212 221.556 34.8748 223.554 36.4731C227.71 39.8135 242.43 45.1039 233.4 50.0107C224.433 54.8855 216.554 54.2142 216.809 56.9473C216.985 58.7374 222.371 57.9223 225.2 58.2579C232.329 59.105 234.183 67.9436 231.977 76.3347C229.915 84.1344 223.059 97.9437 221.476 102.115C221.364 102.403 221.3 102.691 221.205 102.962C218.599 110.698 220.549 119.297 221.572 130.117C221.892 133.538 222.116 136.559 221.652 138.94C220.677 144.007 217.864 144.23 217.96 149.617" stroke="#231F20" stroke-opacity="0.65" stroke-width="0.15983" stroke-miterlimit="10"/>
<path d="M214.875 18.2047C216.937 18.1887 215.946 19.771 215.323 23.4311C215.003 25.3171 216.058 27.7146 217.592 30.144C219.175 32.6374 221.364 34.875 223.362 36.4413C227.438 39.6539 242.222 45.0881 232.872 49.9309C223.554 54.7578 215.595 54.0546 215.914 56.7237C216.122 58.5138 221.7 57.6188 224.625 57.9224C232.057 58.6577 234.135 67.5921 231.45 76.2869C228.924 84.4382 222.291 97.8799 220.885 102.099C220.789 102.387 220.725 102.691 220.645 102.963C218.344 110.938 220.501 119.889 221.492 130.229C221.812 133.634 222.004 136.655 221.46 139.004C220.325 144.039 217.257 144.119 217.305 149.649" stroke="#231F20" stroke-opacity="0.65" stroke-width="0.15983" stroke-miterlimit="10"/>
<path d="M214.875 18.2682C216.937 18.2522 215.85 19.8505 215.163 23.5266C214.795 25.4126 215.834 27.794 217.385 30.1915C218.967 32.6369 221.173 34.8425 223.186 36.3929C227.182 39.4776 242.046 45.0557 232.377 49.8186C222.707 54.5815 214.668 53.8463 215.035 56.4835C215.291 58.2576 221.029 57.3146 224.082 57.5544C231.801 58.1777 234.119 67.2081 230.97 76.1905C227.997 84.7255 221.572 97.7676 220.341 102.035C220.262 102.323 220.198 102.642 220.134 102.914C218.152 111.145 220.517 120.399 221.444 130.309C221.764 133.697 221.892 136.702 221.284 139.02C219.974 144.006 216.665 143.974 216.681 149.632" stroke="#231F20" stroke-opacity="0.65" stroke-width="0.15983" stroke-miterlimit="10"/>
<path d="M214.859 18.3481C216.921 18.3481 215.754 19.9305 214.971 23.6385C214.572 25.5245 215.594 27.906 217.161 30.2715C218.759 32.6689 220.981 34.8586 222.995 36.3929C226.91 39.3498 241.839 45.0717 231.849 49.7707C221.86 54.4697 213.708 53.7025 214.156 56.2918C214.46 58.0659 220.357 57.043 223.522 57.2348C231.546 57.7302 234.055 66.8885 230.491 76.1586C227.054 85.0771 220.837 97.7197 219.798 102.051C219.734 102.355 219.686 102.658 219.622 102.962C217.976 111.433 220.501 121.039 221.412 130.485C221.732 133.857 221.812 136.846 221.125 139.164C219.654 144.118 216.058 143.974 216.074 149.744" stroke="#231F20" stroke-opacity="0.65" stroke-width="0.15983" stroke-miterlimit="10"/>
<path d="M214.859 18.4121C216.921 18.4121 215.674 20.0264 214.795 23.7185C214.364 25.6045 215.355 27.9859 216.953 30.3035C218.551 32.621 220.773 34.8107 222.819 36.329C226.639 39.158 241.663 45.0238 231.354 49.6429C221.045 54.262 212.797 53.4628 213.309 56.0201C213.661 57.7782 219.734 56.6914 222.995 56.8352C231.306 57.2028 234.039 66.4889 230.027 76.0308C226.111 85.3329 220.118 97.5599 219.271 101.939C219.207 102.243 219.175 102.563 219.111 102.866C217.768 111.577 220.517 121.518 221.38 130.517C221.7 133.873 221.732 136.846 220.981 139.132C219.351 144.038 215.499 143.783 215.483 149.68" stroke="#231F20" stroke-opacity="0.65" stroke-width="0.15983" stroke-miterlimit="10"/>
<path d="M214.859 18.4922C216.921 18.4922 215.595 20.1065 214.636 23.8305C214.156 25.7165 215.147 28.082 216.745 30.3835C218.381 32.6627 220.366 34.6693 222.627 36.3292C226.351 39.0463 241.487 45.0239 230.826 49.5951C220.166 54.1662 211.839 53.3191 212.414 55.8125C212.814 57.5706 219.063 56.4198 222.419 56.5157C231.034 56.7555 233.975 66.1694 229.532 75.999C225.152 85.7007 219.383 97.4961 218.711 101.939C218.663 102.259 218.631 102.563 218.599 102.898C217.576 111.865 220.517 122.11 221.348 130.661C221.668 134.017 221.652 136.958 220.821 139.228C219.015 144.087 214.923 143.719 214.875 149.76" stroke="#231F20" stroke-opacity="0.65" stroke-width="0.15983" stroke-miterlimit="10"/>
<path d="M214.859 18.5723C216.921 18.5723 215.515 20.2185 214.476 23.9426C213.437 27.6666 218.328 33.3565 222.467 36.2974C226.111 38.8866 241.327 44.9922 230.347 49.4994C219.367 54.0066 210.944 53.1275 211.567 55.5889C212.014 57.347 218.44 56.1163 221.892 56.1643C230.81 56.2761 233.927 65.818 229.068 75.9192C224.209 86.0205 218.679 97.3844 218.2 101.908C216.761 115.157 223.874 131.428 220.677 139.292C218.711 144.135 214.364 143.623 214.284 149.793" stroke="#231F20" stroke-opacity="0.65" stroke-width="0.15983" stroke-miterlimit="10"/>
<path d="M240.656 148.882C270.097 168.877 298.339 130.39 324.774 137.966C334.108 140.635 358.754 165.584 366.682 156.346" stroke="#231F20" stroke-opacity="0.65" stroke-width="0.15983" stroke-miterlimit="10"/>
<path d="M240.144 148.898C261.306 163.522 282.787 147.219 302.926 140.187C310.278 137.63 317.534 136.383 324.646 138.381C330.209 139.931 340.741 148.914 350.219 154.108C357.204 157.928 363.533 160.23 366.81 156.426" stroke="#231F20" stroke-opacity="0.65" stroke-width="0.15983" stroke-miterlimit="10"/>
<path d="M239.633 148.929C260.395 163.553 282.467 147.634 302.686 140.602C310.086 138.029 317.358 136.846 324.503 138.796C330.241 140.362 340.757 149.297 350.283 154.171C357.38 157.8 363.693 160.213 366.922 156.473" stroke="#231F20" stroke-opacity="0.65" stroke-width="0.15983" stroke-miterlimit="10"/>
<path d="M239.122 148.93C259.484 163.554 282.116 148.035 302.446 141.002C309.878 138.429 317.182 137.294 324.359 139.212C330.257 140.795 340.805 149.681 350.347 154.252C357.555 157.689 363.869 160.23 367.017 156.554" stroke="#231F20" stroke-opacity="0.65" stroke-width="0.15983" stroke-miterlimit="10"/>
<path d="M238.61 148.946C258.573 163.554 281.796 148.45 302.206 141.402C309.67 138.829 317.023 137.726 324.231 139.612C330.321 141.194 340.853 150.049 350.427 154.3C357.747 157.545 364.061 160.182 367.145 156.586" stroke="#231F20" stroke-opacity="0.65" stroke-width="0.15983" stroke-miterlimit="10"/>
<path d="M238.115 148.961C257.662 163.554 281.461 148.865 301.983 141.801C309.479 139.228 316.863 138.173 324.119 140.011C330.369 141.593 340.933 150.432 350.523 154.348C357.971 157.4 364.268 160.149 367.289 156.633" stroke="#231F20" stroke-opacity="0.65" stroke-width="0.15983" stroke-miterlimit="10"/>
<path d="M237.603 148.978C256.767 163.554 281.141 149.266 301.743 142.201C309.271 139.628 316.703 138.605 323.975 140.427C330.4 142.025 340.997 150.8 350.587 154.428C358.163 157.289 364.444 160.15 367.401 156.698" stroke="#231F20" stroke-opacity="0.65" stroke-width="0.15983" stroke-miterlimit="10"/>
<path d="M237.108 149.01C255.856 163.586 280.805 149.697 301.519 142.632C309.095 140.059 316.543 139.068 323.863 140.858C330.448 142.472 341.093 151.183 350.683 154.508C358.371 157.177 364.636 160.15 367.545 156.777" stroke="#231F20" stroke-opacity="0.65" stroke-width="0.15983" stroke-miterlimit="10"/>
<path d="M236.58 149.025C254.929 163.586 280.47 150.112 301.263 143.048C308.855 140.474 316.351 139.531 323.704 141.273C330.48 142.888 341.141 151.566 350.747 154.571C358.578 157.033 364.812 160.117 367.657 156.825" stroke="#231F20" stroke-opacity="0.65" stroke-width="0.15983" stroke-miterlimit="10"/>
<path d="M236.085 149.041C254.034 163.586 280.15 150.512 301.04 143.431C308.663 140.858 316.207 139.947 323.576 141.673C330.512 143.287 341.237 151.902 350.827 154.635C358.802 156.905 365.004 160.118 367.769 156.889" stroke="#231F20" stroke-opacity="0.65" stroke-width="0.15983" stroke-miterlimit="10"/>
<path d="M235.573 149.041C253.123 163.57 279.798 150.911 300.8 143.831C308.472 141.242 316.032 140.363 323.448 142.073C330.56 143.703 341.333 152.254 350.907 154.683C359.042 156.745 365.195 160.086 367.912 156.921" stroke="#231F20" stroke-opacity="0.65" stroke-width="0.15983" stroke-miterlimit="10"/>
<path d="M235.078 149.057C252.228 163.586 279.495 151.311 300.592 144.231C308.28 141.641 315.904 140.81 323.336 142.472C330.624 144.103 341.445 152.59 351.003 154.731C359.266 156.601 365.403 160.038 368.04 156.969" stroke="#231F20" stroke-opacity="0.65" stroke-width="0.15983" stroke-miterlimit="10"/>
<path d="M234.566 149.089C251.317 163.602 279.143 151.742 300.336 144.662C308.072 142.072 315.712 141.273 323.176 142.904C330.64 144.534 341.525 152.957 351.05 154.827C359.473 156.473 365.563 160.053 368.136 157.048" stroke="#231F20" stroke-opacity="0.65" stroke-width="0.15983" stroke-miterlimit="10"/>
<path d="M234.039 149.105C250.374 163.618 278.807 152.142 300.097 145.062C307.864 142.472 315.536 141.705 323.048 143.303C330.672 144.934 341.62 153.277 351.114 154.875C359.713 156.314 365.739 160.022 368.248 157.097" stroke="#231F20" stroke-opacity="0.65" stroke-width="0.15983" stroke-miterlimit="10"/>
<path d="M233.543 149.122C249.494 163.618 278.488 152.558 299.857 145.461C307.657 142.872 315.376 142.137 322.904 143.703C330.704 145.35 341.732 153.613 351.194 154.923C359.937 156.154 365.931 159.99 368.36 157.145" stroke="#231F20" stroke-opacity="0.65" stroke-width="0.15983" stroke-miterlimit="10"/>
<path d="M233.032 149.138C248.567 163.618 278.152 152.973 299.617 145.877C307.449 143.288 315.201 142.585 322.776 144.135C330.752 145.781 341.844 156.106 351.274 155.019C360.193 153.996 366.122 159.99 368.504 157.241" stroke="#231F20" stroke-opacity="0.65" stroke-width="0.15983" stroke-miterlimit="10"/>
<path d="M232.537 149.153C247.672 163.634 277.832 153.389 299.409 146.276C307.273 143.687 315.057 143.016 322.681 144.534C330.816 146.181 342.052 156.458 351.386 155.067C360.4 153.74 366.33 159.958 368.648 157.273" stroke="#231F20" stroke-opacity="0.65" stroke-width="0.15983" stroke-miterlimit="10"/>
<path d="M232.025 149.153C246.761 163.618 277.497 153.773 299.154 146.66C307.065 144.071 314.897 143.416 322.521 144.934C330.848 146.58 342.196 156.793 351.434 155.115C360.544 153.469 366.49 159.942 368.744 157.321" stroke="#231F20" stroke-opacity="0.65" stroke-width="0.15983" stroke-miterlimit="10"/>
<path d="M231.514 149.185C245.85 163.634 277.161 154.204 298.93 147.075C306.857 144.486 314.737 143.863 322.393 145.349C330.88 146.995 342.372 157.128 351.514 155.194C360.736 153.245 366.682 159.925 368.871 157.384" stroke="#231F20" stroke-opacity="0.65" stroke-width="0.15983" stroke-miterlimit="10"/>
<path d="M231.002 149.201C244.939 163.634 276.825 154.604 298.674 147.491C306.65 144.902 314.561 144.311 322.249 145.765C330.912 147.411 342.547 157.433 351.578 155.275C360.896 153.037 366.858 159.926 368.967 157.465" stroke="#231F20" stroke-opacity="0.65" stroke-width="0.15983" stroke-miterlimit="10"/>
<path d="M230.507 149.217C244.044 163.65 276.506 155.019 298.466 147.907C306.474 145.317 314.417 144.758 322.137 146.181C330.976 147.827 342.739 157.736 351.674 155.339C361.088 152.797 367.065 159.91 369.111 157.512" stroke="#231F20" stroke-opacity="0.65" stroke-width="0.15983" stroke-miterlimit="10"/>
<path d="M229.995 149.233C243.149 163.65 276.17 155.435 298.227 148.29C306.266 145.685 314.242 145.158 321.993 146.58C331.008 148.227 342.899 158.024 351.754 155.387C361.264 152.558 367.241 159.878 369.239 157.561" stroke="#231F20" stroke-opacity="0.65" stroke-width="0.15983" stroke-miterlimit="10"/>
<path d="M229.5 149.249C242.238 163.65 275.85 155.834 298.003 148.706C306.074 146.1 314.098 145.605 321.881 146.995C331.056 148.642 343.107 158.279 351.85 155.466C361.471 152.35 367.449 159.862 369.383 157.624" stroke="#231F20" stroke-opacity="0.65" stroke-width="0.15983" stroke-miterlimit="10"/>
<path d="M228.972 149.265C241.311 163.666 275.499 156.25 297.747 149.105C305.85 146.5 313.922 146.036 321.722 147.411C331.088 149.041 343.235 158.535 351.897 155.53C361.631 152.158 367.609 159.862 369.479 157.688" stroke="#231F20" stroke-opacity="0.65" stroke-width="0.15983" stroke-miterlimit="10"/>
<path d="M228.461 149.281C240.4 163.682 275.179 156.665 297.507 149.521C305.274 147.007 313.536 146.425 321.578 147.826C331.104 149.457 343.379 158.791 351.961 155.594C361.807 151.934 367.785 159.846 369.575 157.736" stroke="#231F20" stroke-opacity="0.65" stroke-width="0.15983" stroke-miterlimit="10"/>
<path d="M227.965 149.297C239.505 163.682 274.843 157.081 297.284 149.921C305.091 147.418 313.386 146.837 321.466 148.226C331.184 149.857 342.995 156.873 352.057 155.659C362.67 154.236 367.992 159.814 369.719 157.8" stroke="#231F20" stroke-opacity="0.65" stroke-width="0.15983" stroke-miterlimit="10"/>
<path d="M227.454 149.313C238.578 163.682 274.524 157.48 297.044 150.32C305.259 147.715 313.426 147.331 321.338 148.642C331.216 150.272 343.123 157.144 352.137 155.722C362.91 154.028 368.168 159.798 369.846 157.848" stroke="#231F20" stroke-opacity="0.65" stroke-width="0.15983" stroke-miterlimit="10"/>
<path d="M226.958 149.329C237.699 163.682 274.188 157.896 296.82 150.735C305.067 148.13 313.267 147.778 321.21 149.057C331.279 150.671 343.235 157.416 352.217 155.786C363.15 153.804 368.36 159.782 369.974 157.912" stroke="#231F20" stroke-opacity="0.65" stroke-width="0.15983" stroke-miterlimit="10"/>
<path d="M226.431 149.345C236.756 163.698 273.837 158.296 296.564 151.135C304.828 148.53 313.091 148.21 321.066 149.457C331.295 151.071 343.331 157.672 352.281 155.85C363.373 153.597 368.536 159.766 370.086 157.96" stroke="#231F20" stroke-opacity="0.65" stroke-width="0.15983" stroke-miterlimit="10"/>
<path d="M225.936 149.377C235.877 163.714 273.517 158.727 296.341 151.551C304.652 148.946 312.947 148.642 320.938 149.889C331.343 151.503 343.442 157.944 352.361 155.93C363.629 153.373 368.728 159.766 370.198 158.04" stroke="#231F20" stroke-opacity="0.65" stroke-width="0.15983" stroke-miterlimit="10"/>
<path d="M225.424 149.377C234.95 163.698 273.181 159.111 296.101 151.934C304.444 149.329 312.771 149.041 320.795 150.272C331.375 151.87 343.538 158.184 352.425 155.962C363.853 153.133 368.903 159.718 370.31 158.072" stroke="#231F20" stroke-opacity="0.65" stroke-width="0.15983" stroke-miterlimit="10"/>
<path d="M224.929 149.393C234.055 163.698 272.878 159.526 295.893 152.35C304.268 149.729 312.643 149.489 320.699 150.688C331.455 152.286 343.682 158.439 352.537 156.042C364.108 152.909 369.111 159.718 370.47 158.152" stroke="#231F20" stroke-opacity="0.65" stroke-width="0.15983" stroke-miterlimit="10"/>
<path d="M224.401 149.409C233.128 163.698 272.51 159.942 295.621 152.766C304.028 150.144 312.436 149.937 320.523 151.119C331.455 152.702 343.73 158.711 352.569 156.122C364.3 152.686 369.255 159.702 370.55 158.216" stroke="#231F20" stroke-opacity="0.65" stroke-width="0.15983" stroke-miterlimit="10"/>
<path d="M223.906 149.425C232.233 163.714 272.206 160.341 295.414 153.149C303.869 150.528 312.324 150.352 320.411 151.503C331.503 153.085 343.858 158.935 352.681 156.154C364.556 152.414 369.479 159.654 370.709 158.247" stroke="#231F20" stroke-opacity="0.65" stroke-width="0.15983" stroke-miterlimit="10"/>
<path d="M223.394 149.441C231.322 163.73 271.855 160.773 295.174 153.565C303.661 150.943 312.148 150.783 320.283 151.918C331.551 153.485 343.954 159.191 352.761 156.234C364.78 152.19 369.671 159.654 370.821 158.311" stroke="#231F20" stroke-opacity="0.65" stroke-width="0.15983" stroke-miterlimit="10"/>
<path d="M222.883 149.473C230.411 163.745 271.535 161.188 294.934 153.98C303.437 151.359 311.972 151.215 320.155 152.334C331.599 153.9 344.05 159.446 352.841 156.297C365.004 151.934 369.862 159.638 370.965 158.375" stroke="#231F20" stroke-opacity="0.65" stroke-width="0.15983" stroke-miterlimit="10"/>
<path d="M222.387 149.489C229.5 163.746 271.199 161.604 294.71 154.396C303.261 151.774 311.828 151.662 320.027 152.749C331.647 154.3 344.146 159.686 352.904 156.361C365.211 151.694 370.038 159.622 371.061 158.423" stroke="#231F20" stroke-opacity="0.65" stroke-width="0.15983" stroke-miterlimit="10"/>
<path d="M221.876 149.489C228.605 163.746 270.88 161.987 294.455 154.779C303.038 152.158 311.636 152.062 319.884 153.133C331.679 154.683 344.226 159.91 352.968 156.393C365.419 151.407 370.214 159.574 371.173 158.455" stroke="#231F20" stroke-opacity="0.65" stroke-width="0.15983" stroke-miterlimit="10"/>
<path d="M221.364 149.505C227.678 163.746 270.544 162.403 294.231 155.179C302.846 152.558 311.476 152.494 319.756 153.549C331.727 155.083 344.322 160.166 353.048 156.473C365.627 151.183 370.406 159.574 371.301 158.519" stroke="#231F20" stroke-opacity="0.65" stroke-width="0.15983" stroke-miterlimit="10"/>
<path d="M220.853 149.521C226.783 163.745 270.192 162.802 293.991 155.594C302.638 152.973 311.333 152.925 319.612 153.964C331.759 155.498 344.401 160.405 353.128 156.537C365.819 150.895 370.598 159.558 371.413 158.583" stroke="#231F20" stroke-opacity="0.65" stroke-width="0.15983" stroke-miterlimit="10"/>
<path d="M220.358 149.553C225.872 163.762 269.889 163.234 293.767 156.01C302.462 153.373 311.173 153.357 319.5 154.38C331.823 155.914 344.497 160.661 353.224 156.617C366.043 150.656 370.789 159.542 371.573 158.647" stroke="#231F20" stroke-opacity="0.65" stroke-width="0.15983" stroke-miterlimit="10"/>
<path d="M219.846 149.569C224.961 163.778 269.537 163.634 293.528 156.41C302.238 153.772 310.997 153.788 319.356 154.795C331.855 156.314 344.577 160.901 353.288 156.681C366.234 150.4 370.965 159.526 371.668 158.711" stroke="#231F20" stroke-opacity="0.65" stroke-width="0.15983" stroke-miterlimit="10"/>
<path d="M219.335 149.584C224.066 163.777 269.217 164.049 293.288 156.809C302.031 154.172 310.837 154.204 319.212 155.194C331.887 156.697 344.641 161.156 353.352 156.729C366.426 150.112 371.141 159.51 371.78 158.743" stroke="#231F20" stroke-opacity="0.65" stroke-width="0.15983" stroke-miterlimit="10"/>
<path d="M218.823 149.601C223.139 163.777 268.882 164.449 293.048 157.224C301.839 154.587 310.661 154.651 319.084 155.61C331.919 157.097 344.721 161.396 353.432 156.809C366.618 149.872 371.333 159.494 371.908 158.823" stroke="#231F20" stroke-opacity="0.65" stroke-width="0.15983" stroke-miterlimit="10"/>
<path d="M218.328 149.601C222.259 163.777 268.562 164.864 292.824 157.624C301.647 154.987 310.534 155.067 318.957 156.026C331.983 157.496 344.801 161.652 353.512 156.873C366.81 149.601 371.509 159.478 372.02 158.871" stroke="#231F20" stroke-opacity="0.65" stroke-width="0.15983" stroke-miterlimit="10"/>
<path d="M217.816 149.617C221.332 163.778 268.226 165.264 292.585 158.008C301.423 155.371 310.358 155.466 318.829 156.409C332.015 157.864 344.881 161.86 353.608 156.921C367.017 149.313 371.716 159.446 372.164 158.919" stroke="#231F20" stroke-opacity="0.65" stroke-width="0.15983" stroke-miterlimit="10"/>
<path d="M217.321 149.649C220.437 163.81 267.923 165.696 292.377 158.44C301.263 155.802 310.214 155.93 318.717 156.841C332.095 158.296 344.961 162.132 353.704 157.017C367.209 149.09 371.924 159.462 372.308 159.015" stroke="#231F20" stroke-opacity="0.65" stroke-width="0.15983" stroke-miterlimit="10"/>
<path d="M216.793 149.665C219.51 163.809 267.555 166.111 292.105 158.839C301.024 156.202 310.022 156.345 318.557 157.256C332.095 158.695 345.009 162.371 353.752 157.081C367.369 148.817 372.084 159.43 372.404 159.079" stroke="#231F20" stroke-opacity="0.65" stroke-width="0.15983" stroke-miterlimit="10"/>
<path d="M216.282 149.681C218.599 163.81 267.22 166.511 291.865 159.254C300.816 156.617 309.846 156.793 318.413 157.672C332.127 159.095 345.057 162.627 353.799 157.145C367.513 148.546 372.244 159.43 372.5 159.127" stroke="#231F20" stroke-opacity="0.65" stroke-width="0.15983" stroke-miterlimit="10"/>
<path d="M215.786 149.697C217.704 163.81 266.9 166.926 291.658 159.654C300.64 157.017 309.718 157.209 318.301 158.072C332.19 159.494 345.153 162.867 353.895 157.193C367.721 148.258 372.436 159.398 372.627 159.175" stroke="#231F20" stroke-opacity="0.65" stroke-width="0.15983" stroke-miterlimit="10"/>
<path d="M215.275 149.712C216.793 163.825 266.564 167.326 291.402 160.053C300.432 157.416 309.543 157.608 318.157 158.487C332.222 159.862 345.201 163.106 353.959 157.272C367.881 148.002 372.611 159.382 372.739 159.238" stroke="#231F20" stroke-opacity="0.65" stroke-width="0.15983" stroke-miterlimit="10"/>
<path d="M214.779 149.729C215.882 163.826 266.245 167.741 291.194 160.469C300.24 157.816 309.399 158.056 318.046 158.903C332.286 160.277 345.281 163.362 354.071 157.336C368.088 147.715 372.835 159.366 372.915 159.302" stroke="#231F20" stroke-opacity="0.65" stroke-width="0.15983" stroke-miterlimit="10"/>
<path d="M214.252 149.745C214.971 163.826 265.893 168.141 290.922 160.853C315.105 153.82 340.006 167.326 354.119 157.384C368.232 147.443 372.995 159.334 372.995 159.334" stroke="#231F20" stroke-opacity="0.65" stroke-width="0.15983" stroke-miterlimit="10"/>
<path d="M146.916 0H0V176.948H146.916V0Z" fill="url(#paint0_linear_2_390)"/>
<path d="M266.548 176.948H383.432V0H266.548V176.948Z" fill="url(#paint1_linear_2_390)"/>
</g>
<defs>
<linearGradient id="paint0_linear_2_390" x1="0" y1="88.4738" x2="146.916" y2="88.4738" gradientUnits="userSpaceOnUse">
<stop offset="0.25" stop-color="white"/>
<stop offset="1" stop-color="white" stop-opacity="0"/>
</linearGradient>
<linearGradient id="paint1_linear_2_390" x1="383.432" y1="88.4738" x2="266.548" y2="88.4738" gradientUnits="userSpaceOnUse">
<stop offset="0.19" stop-color="white"/>
<stop offset="1" stop-color="white" stop-opacity="0"/>
</linearGradient>
<clipPath id="clip0_2_390">
<rect width="360" height="176.805" fill="white"/>
</clipPath>
</defs>
</svg>
