<svg id="Layer_1" data-name="Layer 1" xmlns="http://www.w3.org/2000/svg" xmlns:xlink="http://www.w3.org/1999/xlink" viewBox="0 0 2399 1107.1"><defs><style>.cls-1{fill:none;stroke:#231f20;stroke-miterlimit:10;}.cls-2{fill:url(#linear-gradient);}.cls-3{fill:url(#linear-gradient-2);}</style><linearGradient id="linear-gradient" y1="-868.34" x2="919.2" y2="-868.34" gradientTransform="translate(0 1421.89)" gradientUnits="userSpaceOnUse"><stop offset="0.25" stop-color="#fff"/><stop offset="1" stop-color="#fff" stop-opacity="0"/></linearGradient><linearGradient id="linear-gradient-2" x1="6517.91" y1="-868.34" x2="7249.21" y2="-868.34" gradientTransform="matrix(-1, 0, 0, 1, 8916.91, 1421.89)" gradientUnits="userSpaceOnUse"><stop offset="0.19" stop-color="#fff"/><stop offset="1" stop-color="#fff" stop-opacity="0"/></linearGradient></defs><title>Artboard 1</title><path class="cls-1" d="M37.9,959c10.5-4.7,82.7,45.7,170,45.7s236.5-50.4,313-24.9,138.8,110.1,570.8,31c85.1-15.6,100.3,88.1,237.8-72.5,14.9-17.9,10.1-42.9,20.1-59.7,24.3-40.6,41.3-98.3-11.8-189.2-16.7-28.5-24.8-49.2,53.9-154.2,100.3-133.9,54.6-149.9,6-163.5-58.3-16.2-163.5,72.1-169.8,31.8s102.9-77.9,162.2-88.7-20.3-103.5-46.6-125-21.4-73.9,0-73.9v-.4c-16.1,0-23.1,28.8-14.7,52.6,2.9,8.3,7.5,16,14,21.6,11.7,10.2,33.6,35,48.3,59.7,17.1,28.8,26.8,58.7-5.5,65-5.3,1.1-10.9,2.2-16.8,3.6-61.5,14.5-150.6,48.4-143.9,86.5,7.1,40.2,109.7-45.7,166.5-29.4,38.3,11,74.4,23.7,34,97.9a590.74,590.74,0,0,1-40.8,63.3c-44.8,61.2-60.1,93.1-61.6,114.6-1.1,14.9,4.3,24.9,11.1,36.3,52.9,88.9,36.5,145.8,13.6,186.4-5.9,10.4-6.1,25.3-9.9,39.4-2.4,8.8-6,17.1-12.4,24.6-135.1,157.8-154.9,58-239.8,72.3-117.9,19.9-205,28.8-280,31.5-185.2,6.6-233.7-44.6-289.1-63.1a98.1,98.1,0,0,0-12.1-3.3c-78.8-17.2-216.4,30-299.8,29.6-86-.3-156.7-50-166.7-45.6h0c9.6-4.2,78.8,44.8,163.8,45.7,83.8.9,220.4-48.1,298.8-31a119.65,119.65,0,0,1,12.1,3.3c55.5,18.5,104.6,71.2,288.8,62.5,78.9-3.8,162-12.1,278.5-30.1,84.7-13.2,108.9,82.6,241.8-72.2a67.44,67.44,0,0,0,14.2-25.9c4.6-15.2,4.5-31.7,10.2-42.4,21.6-40.5,37.6-96.8-15.3-183.6-6.8-11.1-12.1-20.9-11.4-35.3,1.1-20.8,15.5-52,58.5-112.2a688.44,688.44,0,0,0,39.4-62.4c40.4-72.8,5.5-85.5-31.7-96.6-55.2-16.5-155.4,67.1-163.3,26.8-7.7-39.5,80.4-73,142.4-88,6-1.4,11.7-2.6,16.8-3.8,32.8-6.9,21.7-37.2,6.1-65.2-13.6-24.1-33.8-48.7-45.1-59.1a55,55,0,0,1-13.8-21.8c-8.5-23.9-1.1-52.7,15.2-52.8v-.4c-16.6.1-24.1,28.8-15.5,52.9a58.46,58.46,0,0,0,13.4,22c10.8,10.7,29.5,34.9,41.8,58.5,14.2,27.4,26.8,58.1-6.5,65.6-5.3,1.1-10.9,2.5-16.9,3.9-62.5,15.5-149.7,48.2-140.9,89.3,8.6,40.2,106.3-41,159.9-24.4,36.2,11.2,69.7,24,29.6,95.2-9.5,16.8-21.2,37.5-38,61.6-41.2,59.4-54.8,89.8-55.4,109.9-.4,14.1,4.8,23.6,11.7,34.5,52.9,84.6,37.4,140.3,17.2,180.7-5.4,10.8-4.8,28.8-10.3,45.2a74.33,74.33,0,0,1-16,27.1c-130.6,152-159.2,60.2-243.9,72.1-115,16.1-194.2,23.9-277.1,28.8-183.1,10.8-232.8-43.3-288.4-61.8a98.1,98.1,0,0,0-12.1-3.3c-78.1-16.7-213.6,33.9-297.8,32.6-84-1.2-151.8-49.6-160.8-45.9l-.2.2c7.6-3,71.2,43.6,151.3,46,85.6,2.6,217.8-53.3,294.6-36.5,4,.9,8.1,2,12,3.2,55.8,18.5,107.3,75.7,287.3,59.8,95-8.3,162.3-14,272.8-24.7,84.2-8.2,126.1,71.7,249.9-71.6,9.5-9.6,16.8-19.5,21.7-31,8.2-19.9,6.4-42.5,11.1-54,16.6-40,30.2-93.9-22.5-172.2-6.8-10.1-12-18.9-12.5-31.7-.7-18.2,10.3-46.5,46-102.9,14.6-23,24.3-43.3,33.8-59.3,39.6-66.6,10.1-79.5-22.9-91-49-17-139.5,57.1-150.2,17-12-45.3,72.3-76.3,136.4-93.4,6.1-1.6,11.8-3,17-4.3,34.7-9.1,18.1-41,8-66.6-8.7-22-22.6-45.2-32.1-56.6a75.85,75.85,0,0,1-12.5-22.6c-8.8-24.5-.4-53.1,16.7-53.3v-.4c-17.4.2-26,28.8-17.1,53.5a82.47,82.47,0,0,0,12.3,22.8c9,11.8,21.4,34.5,28.8,56,8.7,24.8,26.7,57.2-8.4,66.9-5.2,1.4-10.9,2.8-17,4.5-64.6,17.5-148,48-134.9,94.7,11.2,40,99.4-31.7,146.9-14.6,31.9,11.6,60.1,24.6,20.7,89.6-9.5,15.7-18.6,35.9-32.4,58.5-33.8,55.4-44.1,83-43,100.5.8,12.5,6,21,12.7,30.8,52.6,76.2,39.6,129.6,24.3,169.4-4.5,11.7-2.3,35.9-11.4,56.9-5.3,12.1-13.4,22.4-23.5,32.4-121.4,140.4-167.7,64.5-251.9,71.5-109,8.9-172.4,13.8-271.4,23.4-178.9,17.4-231.1-40.7-286.9-59.2a101.13,101.13,0,0,0-12-3.2c-76.4-16.7-207.6,41-293.6,37.9-79-2.8-141.1-48.8-148.3-46.1h0c6.8-2.5,67.3,43,145.1,46.1,86.5,3.5,216.6-55.9,292.6-39.3,4,.9,8.1,2,12,3.2,55.9,18.5,108.7,77.2,286.6,58.5,103-10.8,162.5-14.9,270-22,84.1-5.6,134.7,66.2,253.9-71.3,10.7-10.4,19.6-21,25.3-33.7,10.1-22.2,7.5-48,11.7-59.8,14.2-39.6,26.4-92.5-26-166.5-6.8-9.6-11.9-17.8-13.1-29.8-1.6-16.8,7.8-43.7,39.8-98.1,13.1-22.3,21.5-42.3,31-57.7,39.2-63.6,12.5-76.6-18.4-88.2-45.9-17.4-131.8,52.1-143.6,12.1-14.3-48.2,68.1-78.1,133.3-96.1,6.1-1.7,11.9-3.2,17.1-4.6,35.7-10.3,16.1-43,8.9-67.3-6.2-20.9-16.9-43.3-25.6-55.3a93.6,93.6,0,0,1-11.9-23.1c-8.9-24.8-.1-53.4,17.4-53.6v-.5c-17.8.3-26.9,28.8-17.9,53.8a109.76,109.76,0,0,0,11.7,23.2c8.2,12.4,17.3,34.5,22.3,54.8,5.9,23.6,26.7,56.6-9.4,67.5-5.2,1.6-10.9,3-17.1,4.7-65.7,18.4-147.2,47.8-131.8,97.4,12.5,40,96.1-27.1,140.4-9.6,29.8,11.8,55.2,24.8,16.2,86.8-9.5,15.2-17.2,35.1-29.6,56.9-30.2,53.5-38.8,79.6-36.7,95.8,1.5,11.7,6.5,19.6,13.3,28.9,52.4,72,41,124.3,27.9,163.7-4,12.1-1,39.4-11.9,62.7-6.2,13.2-15.9,24.1-27.3,35-116.9,134.6-171.9,66.8-256,71.1-105.8,5.4-161.4,8.6-268.6,20.7-176.8,20-230.2-39.3-286.1-57.9a101.13,101.13,0,0,0-12-3.2c-75.6-16.5-204.7,44.7-291.6,40.7C103,1001.9,43.7,957,37.5,959.2h0c5.8-1.8,63.5,42.4,138.9,46.3,87.3,4.5,215.4-58.5,290.5-42.1,4,.9,8.1,1.9,12,3.2,56,18.5,110,78.3,285.8,57.2,111.2-13.4,163.1-26.2,267.1-19.4,83.9,5.5,143.3,60.8,258-70.9,11.9-11.2,22.4-22.4,29.1-36.2,11.9-24.5,8.4-53.3,12.2-65.7,11.9-39.2,22.6-91-29.6-160.9-6.8-9.1-11.8-16.8-13.6-28.1-2.5-15.6,5.3-41,33.7-93.5,11.7-21.5,18.7-41.2,28.1-56.1,38.8-60.5,14.7-73.6-14-85.4-42.7-17.5-124.2,47.1-137.1,7.1-16.6-51.1,64-79.9,130.3-98.8,6.2-1.8,12-3.3,17.2-4.9,36.7-11.5,14.3-44.9,9.9-67.9-3.8-19.8-11.3-41.5-19-54.1a146.19,146.19,0,0,1-11.3-23.2c-9.1-25.1.3-53.7,18.2-53.9v-.4c-18.2.3-27.9,28.8-18.7,54a181,181,0,0,0,11,23.6c7.3,13,13.2,34.3,15.8,53.5,3,22.3,26.7,56-10.3,68.2-5.1,1.7-11,3.2-17.2,5.1-66.8,19.5-146.6,47.6-128.8,100.2,13.5,39.9,92.7-22.4,133.8-4.6,27.7,11.9,50.2,25.1,11.8,84.1-9.5,14.6-15.9,34.1-26.7,55.3-26.5,51.4-33.4,76.1-30.5,91.1,2.1,10.8,7,18.2,13.9,27.1,52.2,67.7,42.4,119.1,31.4,158-3.5,12.5.4,43-12.5,68.6-7.2,14.4-18.4,25.9-31,37.5-112.3,128.8-176.3,78.4-260,70.9-102.2-9.2-150.6,3.3-265.7,18-174.7,22.4-229.3-38-285.4-56.5a99.57,99.57,0,0,0-11.9-3.2c-74.8-16.3-201.7,48.4-289.5,43.5-74.2-4.1-130.5-48-135.8-46.4h0c4.8-1.3,59.7,41.9,132.7,46.4,88.3,5.4,214-61.1,288.5-44.9a122.86,122.86,0,0,1,11.9,3.2c56.1,18.5,111.4,79.3,285.1,55.9,119.3-16,164.2-28.2,264.3-16.7,83.3,9.6,152,55.2,262-70.7,13.2-12.1,25.2-23.9,32.8-38.8,13.7-26.8,9.5-58.7,12.7-71.5,9.8-38.7,18.9-89.6-33.2-155.2-6.8-8.6-11.8-15.8-14.1-26.2-3.3-14.4,2.7-38.4,27.4-88.7,10.2-20.8,15.9-40.2,25.3-54.5,38.3-57.4,17.1-70.6-9.6-82.7-39.5-17.8-116.5,42.1-130.6,2.2-19-54,60-81.5,127.3-101.5,6.3-1.8,12.1-3.4,17.2-5.2,37.6-12.7,12.5-46.8,10.9-68.5-1.4-18.7-5.7-39.6-12.5-52.9a223,223,0,0,1-10.7-23.9c-9.3-25.3.6-53.8,19-54.2v-.4c-18.7.4-28.8,28.8-19.5,54.3,3.5,9.4,7.4,17.5,10.4,24,6.4,13.6,9.1,34.2,9.3,52.3.2,21,26.7,55.5-11.4,68.8-5.1,1.8-11,3.4-17.3,5.3-67.8,20.5-145.9,47.4-125.7,102.9,14.6,39.8,89.4-17.7,127.3.3,25.7,12.2,45.3,25.4,7.4,81.3-9.6,14-14.5,33.2-23.9,53.8-22.9,49.3-28.1,72.6-24.3,86.4,2.7,9.9,7.6,16.9,14.4,25.3,52,63.5,43.8,114,35,152.3-3,13.1,1.7,46.5-13,74.4-8.2,15.5-20.9,27.6-34.7,40.2-107.8,123-181,82.2-264,70.5-98.1-13.7-139.6-2.1-262.9,15.3-172.7,24.4-228.4-36.7-284.7-55.2a99.57,99.57,0,0,0-11.9-3.2c-74-16.1-198.7,52.2-287.4,46.3-71.8-4.7-125.2-47.4-129.6-46.5h0c3.9-.7,55.9,41.5,126.4,46.6,89.2,6.4,212.8-63.7,286.5-47.6a122.86,122.86,0,0,1,11.9,3.2c56.3,18.5,112.7,79.9,284.3,54.5,127.3-18.9,165.4-29.8,261.4-13.9,82.7,13.6,160.6,49.8,266-70.4,14.4-13,28-25.4,36.6-41.5,15.5-29.1,10.4-64,13.2-77.3,7.8-38.1,15.1-88.1-36.8-149.5-6.8-8.1-11.7-14.9-14.7-24.4-4.2-13.2.2-35.8,21.2-84.1,8.8-20.2,13-39.2,22.5-53,37.8-54.4,19.6-67.6-5.1-79.9-36.3-18.1-109,37.1-124-2.7-21.5-56.9,55.9-83.3,124.3-104.3,6.4-1.9,12.2-3.6,17.3-5.4,38.6-13.9,10.6-48.8,11.8-69.2,1.1-17.5-.1-37.7-6.1-51.6-2.8-6.6-6.6-14.7-10.1-24.2-9.5-25.6,1-54.1,19.8-54.5V109c-19.5.4-30.7,28.8-21,54.9,3.7,9.7,7.2,18.2,9.2,24.8,4.5,15,1,34-3.7,49.8-5.4,18.6,26.7,54.3-13.3,70.2-5.1,2-11,3.9-17.4,5.9-70,22.5-145,47.2-119.7,108.4,16.4,39.8,82.8-8.2,114.3,10.1,21.6,12.6,35.4,26-1.6,75.7-9.6,12.9-11.7,31.3-18.3,50.5-15.5,44.9-19.9,66.4-11.8,77,2.1,8.6,8.7,14.3,15.5,21.6,51.5,55,47.2,103.8,42.2,141-1.9,14,4.4,53.5-13.9,86.1-10,17.7-25.9,31.1-42.2,45.3-98.6,111.5-190.4,89.4-272.1,69.9-89.7-21.3-117.8-13.2-257.2,9.9-168.6,28.1-226.7-34-283.2-52.5a103.34,103.34,0,0,0-11.8-3.2c-72.4-15.9-192.7,59.7-283.4,51.8-66.8-5.9-114.6-46.6-117.1-46.7h0c2.9-.2,52.1,41,120.2,46.7,90.1,7.4,211.6-66.4,284.4-50.4a113.73,113.73,0,0,1,11.8,3.2c56.4,18.5,114,80.4,283.6,53.2,135.4-21.7,166.8-30.9,258.6-11.3,82.1,17.5,169.2,44.3,270.1-70.1,15.7-13.9,30.8-26.9,40.2-44,17.4-31.4,11.6-69.4,13.7-83.1,5.9-37.4,11.2-86.7-40.3-143.8-6.8-7.5-11.7-13.9-15.3-22.5-5.2-12.2-2.4-33.3,15-79.4,7.4-19.6,10.2-38.1,19.7-51.3,37.3-51.3,21.9-64.6-.7-77.1-33.1-18.2-101.5,32.2-117.5-7.6-23.9-59.8,51.8-85,121.3-107,6.4-2,12.3-3.8,17.4-5.8,39.5-15.3,8.8-50.6,12.8-69.8,3.4-16.4,5.4-35.9.4-50.4-2.3-6.7-5.9-15-9.5-24.6-9.6-25.9,1.3-54.4,20.6-54.7v.4c-19,.4-29.8,28.8-20.2,54.6,3.6,9.6,7.3,17.8,9.8,24.5,5.4,14.3,5.1,34.1,2.8,51-2.6,19.8,26.7,54.9-12.3,69.4-5.1,1.9-11,3.6-17.4,5.6-68.9,21.5-145.5,47.3-122.8,105.7,15.5,39.8,86.1-13,120.7,5.2,23.6,12.4,40.4,25.7,2.9,78.5-9.6,13.4-13.1,32.3-21.1,52.2-19.2,47.2-22.8,69-18.1,81.7,3.3,9,8.2,15.6,15,23.4,51.7,59.2,45.4,108.9,38.6,146.7-2.5,13.5,3,50-13.4,80.2-9,16.7-23.4,29.4-38.4,42.8-103.2,117.2-185.6,85.8-268.1,70.2-93.9-17.8-128.6-7.6-260,12.6-170.6,26.3-227.6-35.3-283.9-53.8a99.57,99.57,0,0,0-11.9-3.2c-73.2-16-195.7,55.9-285.4,49-69.4-5.5-120-47.2-123.5-46.8l-.3.2c1,1.1,44.5,40.3,107.9,46.9,92.1,9.6,209-71.6,280.3-56a113.73,113.73,0,0,1,11.8,3.2c56.6,18.6,116.4,80.9,282.1,50.5,151.4-27.8,165.4-17.2,252.9-5.9,84.8,11,186.3,33.4,278.1-69.4,18.2-15.5,36.4-29.8,47.7-49.3,21-36,13.8-80,14.7-94.9,2.4-36.2,3.4-83.9-47.5-132.5-6.8-6.6-13.6-11.5-16.3-18.9-9.8-8.6-7.6-28.6,2.5-70,4.6-18.4,4.6-36.1,14.1-48.1,36.1-45.2,26.8-58.5,8.2-71.6-26.5-18.6-86.6,22.3-104.4-17.5-29.2-65.5,43.6-88.4,115.2-112.4,6.6-2.2,12.5-4.2,17.5-6.3,41.4-17.8,5-54.3,14.7-71.1,8.2-14.1,16.5-31.9,13.5-48-1.3-6.8-4.5-15.4-8.2-25.4-10-26.5,2-54.8,22.1-55.3v.4c-19.9.5-31.7,28.8-21.7,55.2,3.8,9.9,7,18.4,8.6,25.3,3.5,15.7-3.2,33.9-10.3,48.6-8.3,17.4,26.7,53.6-14.3,70.8-5.1,2.1-11,4-17.4,6.2-71,23.6-144.6,47-116.7,111.1,17.3,39.8,79.5-3.5,107.7,15,19.6,12.9,30.4,26.2-6,72.9-9.6,12.4-10.3,30.3-15.5,48.9-11.9,42.6-14.9,63-5.6,72.3,2.5,7.7,9.2,13,16,19.7,51.1,50.7,48.9,98.8,45.8,135.3-1.3,14.6,5.7,57.1-14.5,91.9-10.9,18.9-28.3,32.9-45.9,48-94.1,105.8-191.4,79-276.1,69.6-89.3-9.9-106.8-18.9-254.3,7.3-166.6,29.6-225.8-32.6-282.4-51.2a121,121,0,0,0-11.8-3.2c-71.6-15.7-189.8,63.6-281.3,54.6-64.5-6.1-109.4-45.9-110.9-46.7h0c1.9.4,48.3,40.7,114,46.8,91.1,8.4,210.4-69,282.4-53.2a113.73,113.73,0,0,1,11.8,3.2c56.6,18.6,115.2,80.8,282.8,51.9,143.5-24.7,164.8-17.2,255.7-8.6,84.5,8,177.7,38.8,274.1-69.7,16.9-14.7,33.6-28.3,44-46.7,19.2-33.8,12.6-74.7,14.2-89,4.1-36.8,7.3-85.3-43.9-138.1-6.8-7.1-13.5-12.5-15.8-20.7-8.7-9.9-5-30.9,8.8-74.6,6-18.9,7.4-37.2,16.9-49.7,36.7-48.2,24.4-61.6,3.8-74.3-29.8-18.4-94.1,27.2-110.9-12.5-26.6-62.6,47.7-86.7,118.2-109.7,6.5-2.1,12.4-3.9,17.4-6.1,40.4-16.6,6.9-52.4,13.8-70.4,5.9-15.3,11-33.8,7-49.2-1.8-6.8-5.2-15.2-8.9-25.1-9.8-26.2,1.7-54.5,21.4-55l.1-1.2c-20.3.5-32.6,28.8-22.5,55.4,3.9,10.2,6.9,18.8,8,25.7,2.5,16.4-7.3,33.8-16.7,47.4-11.2,16.1,26.6,52.9-15.3,71.4-5,2.2-11,4.2-17.5,6.5-72.1,24.6-144.2,46.9-113.7,113.8,18.2,39.8,76.3,1.3,101.2,20,17.6,13.2,25.3,26.5-10.4,70.2-9.6,11.8-8.9,29.2-12.7,47.4-8.4,40.2-9.9,59.7.5,67.6,2.9,6.9,9.7,11.6,16.7,17.9,50.7,46.5,50.9,93.7,49.3,129.6-.6,15.1,7,60.6-15,97.8-11.8,20-30.9,34.6-49.6,50.6-89.5,100-195.3,81.7-280.2,69.3-85.8-12.5-96-24.8-251.5,4.6C550,1034.2,489.8,971.8,433,953.2a121,121,0,0,0-11.8-3.2c-71.1-16-187,67-279.5,57C79.5,1000.2,37.5,961.3,37,960h0c0,1.6,40.7,40.1,101.6,47,92.9,10.6,207.8-74.2,278.2-58.8a121,121,0,0,1,11.8,3.2c56.8,18.6,117.7,81.1,281.4,49.2,159.4-31,165.9-17.1,250-3.2,85.1,14,194.9,27.9,282.2-69.1,19.4-16.4,39.2-31.3,51.5-51.9,23-38.3,14.9-85.3,15.3-100.7.7-35.5-.5-82.4-51.1-126.8-6.9-6.1-13.8-10.4-16.9-17-11-7.2-10.3-26.3-3.7-65.2,3.1-18,1.7-35.1,11.3-46.6,35.5-42.2,29.4-55.3,12.7-68.7-23.2-18.7-79.3,17.4-97.9-22.4-31.9-68.3,39.5-90.1,112.2-115.1,6.6-2.3,12.5-4.3,17.5-6.6,42.3-19.2,3.1-56.2,15.7-71.7,10.6-13,21.9-30,20-46.7-.8-6.9-3.8-15.6-7.6-25.9-10.2-26.7,2.4-55,22.9-55.6V107c-20.8.6-33.6,28.8-23.3,55.7,3.9,10.3,6.8,19.1,7.4,26,1.4,17.1-11.5,33.8-23.2,46.1-14.1,14.9,26.6,52.3-16.2,72.1-5,2.3-11,4.5-17.6,6.8-73.2,25.5-144,46.8-110.8,116.4,19,39.8,73,6.2,94.6,24.9,15.7,13.6,20.3,26.7-14.9,67.3-9.7,11.2-7.5,28.1-9.9,45.8-5,37.7-4.8,56.4,6.8,62.9,3.3,6.1,10.3,10.3,17.2,16,50.3,42.3,52.9,88.7,52.9,124,0,15.6,8.4,64.1-15.5,103.6-12.8,21.1-33.3,36.3-53.3,53.1-85,94.2-199.1,84.6-284.2,69-82.4-15.1-85.1-30.8-248.6,1.8-162.7,32.5-224-30-281-48.6a121,121,0,0,0-11.8-3.2c-70.1-15.3-183.8,71.4-277.2,60.2-59.7-7.2-98.9-45.2-98.5-47.1h0c-.9,2.2,36.8,39.8,95.4,47.2,93.9,11.8,206.6-76.8,276.2-61.6,3.9.9,7.9,1.9,11.8,3.2,57,18.6,118.8,81.1,280.6,47.9,167.4-34.4,166.5-16.8,247.2-.5,85.3,17.2,203.5,22.4,286.2-68.8,20.6-17.3,41.9-32.8,55.2-54.5,24.8-40.6,16.1-90.6,15.7-106.5-.8-34.9-4.6-81-54.6-121.1-6.9-5.5-13.9-9.4-17.4-15.2-12.2-5.8-20.8-25.3-9.9-60.5-2-17.4-1.2-34,8.5-45,34.8-39.1,31.8-52.2,17.1-65.9-19.9-18.6-71.9,12.5-91.4-27.4-34.6-71,35.4-91.8,109.2-117.9,6.7-2.4,12.6-4.6,17.6-6.9,43.1-20.5,1.1-58,16.7-72.4,12.9-11.8,27.4-28.1,26.5-45.5-.4-7-3.1-15.9-7-26.2-10.3-27,2.7-55.2,23.7-55.9l.1-1.2c-21.6.7-35.4,28.8-24.8,56.3,4.1,10.7,6.5,19.7,6.1,26.8-.9,18.5-19.8,33.5-36.2,43.7-20,12.4,26.4,50.8-18.2,73.4a169.83,169.83,0,0,1-17.7,7.4c-75.3,27.6-143.5,46.8-104.6,122,20.6,39.8,66.5,16.3,81.5,34.7,11.8,14.5,9.9,27.2-23.8,61.7-9.8,10.1-9,26.1-4.3,42.6-6.5,31.9,5.3,49.7,19.2,53.5,4.1,4.6,11.2,7.6,18.2,12.5,49.4,33.8,57.1,78.7,60.1,112.6,1.5,16.7,11,71.2-16.5,115.3-14.6,23.4-38.3,39.8-60.8,58.4-75.9,82.6-206.7,90.7-292.3,68.4-75.6-19.7-63.7-43.1-242.9-3.5-159,35.1-222.3-27.4-279.5-45.9-3.9-1.2-7.8-2.3-11.8-3.2-68.4-15-177.8,79.4-273.1,65.8-55-7.9-88.4-44.3-86-47.4h0c-1.8,2.7,33,39.5,89.2,47.3,94.9,13,205.3-79.4,274.1-64.4,3.9.9,7.9,1.9,11.8,3.2,57.1,18.5,119.9,81,279.8,46.6,175.3-37.8,167-16.4,244.3,2.2,85.5,20.5,212.1,16.9,290.2-68.6,21.8-18.2,44.7-34.3,58.9-57.1,26.7-42.9,17.4-95.9,16.2-112.3-2.3-34.2-8.6-79.5-58.2-115.5-7-5.1-14-8.3-18-13.3-13.4-4.5-24-22.8-16.1-55.9-3.8-16.8-4-33,5.7-43.4,34.1-36.1,34.4-48.9,21.6-63.1-16.7-18.5-64.6,7.5-84.8-32.3-37.4-73.8,31.4-93.5,106.1-120.7a182.1,182.1,0,0,0,17.7-7.2c44.1-21.8-.9-60,17.6-73,15.3-10.8,32.7-26.1,33-44.3.1-7.1-2.4-16-6.4-26.7-10.5-27.4,3.1-55.5,24.5-56.1v.4c-21.1.6-34.5,28.8-24.1,56,4,10.5,6.7,19.5,6.8,26.5.3,17.8-15.6,33.6-29.7,44.9-17,13.7,26.5,51.6-17.2,72.7-5.8,2.6-11.7,5-17.6,7-74.3,26.7-143.7,46.8-107.7,119.3,19.8,39.8,69.8,11.2,88.1,29.8,13.8,13.9,15.2,26.9-19.4,64.5-9.7,10.7-10.1,27-7.1,44.2-9.5,34.1.3,53.1,13,58.2,3.8,5.3,10.8,8.9,17.7,14.3,49.9,38,54.9,83.7,56.5,118.3.7,16.1,9.7,67.7-16,109.4-13.7,22.3-35.9,38.1-57.1,55.8-80.4,88.4-202.8,87.5-288.2,68.7-79-17.4-74.4-36.9-245.8-.8-160.9,33.8-223.2-28.7-280.3-47.3a121,121,0,0,0-11.8-3.2c-69.3-15.2-180.8,75.3-275.2,63-57.3-7.5-93.7-44.8-92.2-47.2l-.3.2c-3.8,3.9,25.3,39.2,76.7,47.5,96.6,15.6,202.8-84.7,270.1-69.9,3.9.9,7.8,1.9,11.7,3.2,57.3,18.6,122.1,80.8,278.4,43.9,191-45.1,167.9-15.3,238.6,7.5,85.8,27.7,229.3,6.1,298.3-68,24.3-19.8,50.3-37.2,66.4-62.3,30.3-47.5,19.9-106.5,17.3-124-5-33-16.9-76.6-65.4-104.1-7.1-4-14.4-6.2-19.1-9.6-15.7-1.8-30.5-17.9-28.6-46.5-7.3-15.5-9.8-31,.1-40.2,32.5-30.2,39.3-42.3,30.4-57.6-10.3-18-50-2.2-71.7-42.2-43.2-79.3,23.2-96.8,100.1-126.1a141.1,141.1,0,0,0,17.8-7.8c45.8-24.6-4.7-63.8,19.6-74.4,19.9-8.6,43.4-22.3,46-41.8,1-7.3-1-16.5-5.2-27.4-10.9-27.9,3.8-55.9,26-56.7v.4c-22,.8-36.4,28.8-25.6,56.6,4.2,10.9,6.3,20.1,5.5,27.3-2,19.2-24,33.3-42.8,42.4-22.9,11.1,26.2,50.1-19.1,74a173,173,0,0,1-17.8,7.6c-76.4,28.7-143.4,46.8-101.6,124.7,21.4,39.9,63.1,21.6,75.1,39.7,9.8,15,4.7,27.4-28.2,58.9-9.9,9.6-7.9,25.2-1.5,41-3.5,29.6,10.3,46.4,25.4,48.8,4.6,3.8,11.8,6.3,18.9,10.6,48.8,29.6,59.3,73.7,63.6,106.9,2.3,17.2,12.5,74.8-17,121.1-15.6,24.6-40.9,41.6-64.5,60.9-71.3,76.8-210.5,93.9-296.3,68-72.3-21.7-53-49.4-240.1-6.2-157,36.2-221.2-26.1-278.5-44.7a119.05,119.05,0,0,0-11.7-3.2c-67.6-14.8-174.8,83.5-271,68.5C64,999,33.5,963.3,36.8,959.7h0c-2.8,3.3,29.2,39.4,83,47.4,95.8,14.3,204-82.1,272.1-67.2,3.9.9,7.8,1.9,11.7,3.2,57.3,18.6,121,80.9,279.1,45.2,183.2-41.4,167.5-15.9,241.5,4.8,85.7,24,220.7,11.5,294.3-68.2,23.1-18.9,47.5-35.7,62.6-59.7,28.5-45.2,18.6-101.3,16.7-118.2-3.7-33.6-12.8-78-61.8-109.8-7-4.6-14.2-7.3-18.6-11.5-14.6-3.1-27.3-20.3-22.4-51.1-5.5-16.1-6.9-32,2.9-41.7,33.3-33.1,36.8-45.6,26-60.3-13.4-18.2-57.3,2.6-78.3-37.2-40.3-76.6,27.3-95.1,103.1-123.4a145.83,145.83,0,0,0,17.8-7.5c45-23.2-2.8-61.9,18.7-73.7,17.6-9.6,38.1-24.2,39.5-43.1.5-7.2-1.7-16.3-5.8-27.1-10.7-27.6,3.4-55.7,25.3-56.4V103c-22.4.8-37.4,28.8-26.4,56.8,4.3,11,6.1,20.3,4.9,27.7-3.2,19.8-28.1,33.2-49.3,41.2-25.8,9.8,26.1,49.4-20.1,74.6a167.71,167.71,0,0,1-17.9,7.9c-77.4,29.7-143.3,46.8-98.6,127.4,22.2,40,59.6,26.8,68.5,44.6,7.8,15.6-.5,27.4-32.7,56.2-10,8.9-6.8,24.2,1.3,39.4-.5,27.4,15.3,43,31.7,44.1,5,3,12.3,5,19.4,8.8,48.1,25.5,61.5,68.6,67.2,101.3,3.1,17.7,13.8,78.3-17.5,127-16.5,25.7-43.3,43.3-68.2,63.6-66.7,71-214.6,97.3-300.3,67.8-69.1-23.8-42.4-55.9-237.2-8.9-155.4,37.4-220.5-24.6-278-43.2-3.9-1.2-7.7-2.3-11.7-3.2-66.8-14.6-171.9,87.6-269,71.3-50.3-8.2-78-43.2-73.7-47.4h0c-4.7,4.5,21.5,39.1,70.5,47.6,97.7,17,201.6-87.2,268.1-72.7,3.9.9,7.8,1.9,11.7,3.2,57.5,18.6,123.1,80.7,277.6,42.6,198.7-48.9,168.4-14.6,235.8,10.3,85.8,31.5,237.9.5,302.3-67.6,25.5-20.7,53.1-38.7,70.1-64.9,32.2-49.8,21.3-111.9,17.8-129.9-6.3-32.4-21.1-75-69-98.4-7.2-3.5-14.5-5.2-19.6-7.8-16.9-.4-33.8-15.4-34.7-41.7-9-14.9-12.7-30-2.7-38.6,31.7-27.3,41.7-38.8,34.9-54.8-7.4-17.5-42.7-7.1-65.2-47.1-46.2-81.9,19.1-98.6,97.1-128.8a151.09,151.09,0,0,0,17.9-8.1c46.7-26-6.8-65.8,20.6-75,22.3-7.5,48.7-20.4,52.5-40.6,1.4-7.4-.3-16.7-4.6-27.9-11-28.1,4.1-56.1,26.8-57v-.4c-22.8.9-38.3,28.8-27.2,57.1,4.4,11.2,5.9,20.7,4.3,28.1-4.5,20.5-32.3,33.1-55.8,40-28.8,8.5,26,48.6-21,75.3a137.18,137.18,0,0,1-17.9,8.2c-78.5,30.8-143.2,46.9-95.6,130.1,22.9,40,56,32.2,62,49.5,5.6,16.3-5.9,27.6-37.1,53.4-10.1,8.3-5.8,23.2,4.1,37.8,2.5,25.2,20.3,39.6,37.9,39.4,5.3,2.2,12.7,3.7,19.9,6.9,47.4,21.5,63.8,63.5,70.8,95.6,3.9,18.2,15.2,81.8-18.1,132.8-17.4,26.7-45.9,45.1-72,66.2-62.2,65.2-218.7,100.8-304.4,67.4-65.9-25.7-31.7-62.4-234.4-11.6-153.6,38.6-219.7-23.3-277.3-41.9-3.9-1.2-7.7-2.3-11.7-3.2-66-14.5-169,91.9-267,74.1-47.8-8.7-72.6-43-67.4-47.7h0c-5.7,5,17.6,39,64.3,47.8,98.3,18.4,200.2-90.1,265.8-75.6,3.9.9,7.7,1.9,11.6,3.2,57.6,18.6,124.1,80.4,276.9,41.3,206.4-52.9,168.6-13.7,232.9,12.9,85.6,35.4,246.5-4.9,306.4-67.3,26.7-21.6,55.9-40.2,73.8-67.5,34-52.1,22.6-117.2,18.2-135.7-7.5-31.8-25.4-73.3-72.5-92.7-7.3-3-14.6-4.1-20.2-6-18.1,1-37-13-41-37-10.8-14.2-15.7-28.9-5.5-37,30.8-24.4,43.8-35.3,39.4-52-4.6-17.1-35.4-11.9-58.7-52-49.2-84.6,15.2-100.1,94-131.5a146.66,146.66,0,0,0,18-8.3c47.4-27.4-8.7-67.8,21.6-75.6,24.6-6.4,53.9-18.6,59-39.4,1.8-7.5.5-17-4-28.3-11.2-28.4,4.6-56.4,27.5-57.3v-.4c-23.2.9-39.3,28.8-28,57.4,4.6,11.4,5.7,21,3.7,28.5-5.7,21.1-36.5,32.9-62.3,38.8-31.7,7.2,25.9,47.8-22,75.9a147.88,147.88,0,0,1-18,8.5c-79.4,31.9-143.2,47-92.5,132.8,23.7,40.1,52.2,37.6,55.4,54.5s-11.3,27.7-41.6,50.6c-10.3,7.7-4.7,22.4,6.9,36.2,5.4,22.9,25.4,36.3,44.1,34.6,5.8,1.4,13.2,2.4,20.4,5.1,46.7,17.4,66.1,58.3,74.4,89.9,4.8,18.7,16.6,85.4-18.5,138.6-18.3,28-48.3,46.8-75.7,68.8-57.6,59.5-222.9,104.6-308.4,67.2-62.9-27.5-21.3-69.2-231.5-14.3-152,39.6-218.9-22-276.6-40.6-3.9-1.2-7.7-2.3-11.6-3.2-65.2-14.4-166.1,96.2-264.9,76.9-45.4-8.9-67.3-42.5-61.2-47.9h0c-6.7,5.6,13.8,38.9,58,47.9,99.3,20.1,199.1-92.5,263.9-78.3,3.9.9,7.7,1.9,11.6,3.2,57.8,18.6,125,80.1,276.1,40,214-56.9,168.7-12.8,230.1,15.6,85.3,39.5,255.1-10.4,310.4-67,28-22.4,58.8-41.6,77.5-70.1,36-54.3,24.1-122.7,18.8-141.5-8.9-31.3-29.7-71.6-76.1-87.1a70.14,70.14,0,0,0-20.8-4.1c-19.5-.5-40.2-10.5-47.2-32.4-12.5-13.6-18.6-28-8.3-35.4,29.8-21.5,45.8-31.8,43.8-49.2-1.9-16.7-28.1-16.8-52.2-56.9-52.2-87.2,11-101.8,91-134.3a136.14,136.14,0,0,0,18.1-8.6c48.2-28.8-10.6-69.7,22.5-76.3,27-5.3,59.3-16.7,65.5-38.1,2.2-7.5,1.1-17.2-3.3-28.7-11.4-28.8,4.9-56.6,28.3-57.5l.1-1.2c-24.1,1-41.1,28.8-29.6,58,4.7,11.8,5.3,21.6,2.5,29.3-8.2,22.4-44.7,32.5-75.3,36.3-37.4,4.6,25.5,46.2-23.9,77.3a123.66,123.66,0,0,1-18.2,9.1c-81.5,34-143.4,47.3-86.5,138.4,25.2,40.2,44.2,48.1,42.4,64.4-2,18.2-22.2,27.6-50.4,45.1-10.5,6.5-.2,18.6,12.5,33.1,14.6,16.7,35.1,27.7,56.5,25.3a68.28,68.28,0,0,1,21.6,1.4c45.2,9.7,70.9,48,81.5,78.6,6.8,19.6,19.3,92.5-19.6,150.3-20.2,30.3-53.3,50.3-83.1,74-48.5,48-232,112.5-316.5,66.6-57.1-31-.4-83-225.8-19.6-148.6,41.7-217.1-19.3-275.1-38-3.9-1.2-7.7-2.3-11.5-3.2-63.7-14-160.4,105.1-260.9,82.4-40.8-9.1-56.8-41.6-48.8-48.1h0c-7.5,6.1,9.9,38.9,51.8,48.1,100.1,21.7,197.8-95.1,261.8-81,3.9.9,7.7,1.9,11.6,3.2,58,18.7,126,79.9,275.4,38.6,221.6-61.1,168.8-11.8,227.2,18.3,84.8,43.8,263.7-15.9,314.4-66.7,29.2-23.2,61.6-43.1,81.3-72.7,37.9-56.6,25.6-128,19.3-147.4-10-30.9-34-69.7-79.7-81.4a72.56,72.56,0,0,0-21.3-2.3c-20.9,1.5-39.7-9.9-53.4-27.6-11.5-14.8-21.6-27-11.1-33.8,28.8-18.8,47.6-28.4,48.2-46.5.6-16.3-20.9-21.7-45.6-61.8-55.3-89.8,6.9-103.5,88-137a127.58,127.58,0,0,0,18.2-8.9c49.1-30.3-12.5-71.6,23.5-76.9,29.4-4.3,64.5-14.8,72.1-36.9,2.6-7.7,1.9-17.4-2.8-29.1-11.6-29,5.3-56.8,29.1-57.8v.4c-23.7,1-40.2,28.8-28.8,57.7,4.6,11.6,5.5,21.2,3.1,28.8-6.9,21.7-40.6,32.7-68.7,37.5-34.5,5.9,25.7,47-23,76.6a131.53,131.53,0,0,1-18.1,8.8c-80.5,33-143.3,47.1-89.5,135.6,24.4,40.2,48.2,42.9,48.9,59.4.7,17.7-16.7,27.7-46,47.8-10.4,7.1-3.7,21.4,9.7,34.6,8.4,20.7,30.2,30.4,50.3,30,6.2-.2,13.7,1.1,21,3.2,46,13.6,68.5,53.1,77.9,84.2,5.8,19.1,17.9,89-19,144.4-19.2,29.1-50.9,48.6-79.4,71.4-53.1,53.8-227.4,108.5-312.4,66.8-59.9-29.3-10.8-76-228.7-16.9-150.3,40.7-218-20.6-275.8-39.3-3.9-1.2-7.7-2.3-11.6-3.2-64.5-14.2-163.2,100.6-262.9,79.7-43.1-9-62.1-42.1-55-48l-.1.1c-8.5,6.8,6,38.8,45.6,48.1,100.8,23.6,196.6-97.8,259.8-83.8,3.9.9,7.6,1.9,11.5,3.2,58,18.7,126.9,79.5,274.7,37.3,229.1-65.5,168.7-11,224.4,21,84.1,48.1,272.3-21.3,318.5-66.4,30.4-24.1,64.4-44.5,85-75.3,39.7-58.9,27.1-133.5,19.8-153.2-11.2-30.4-38.3-67.8-83.3-75.7a66.49,66.49,0,0,0-21.8-.4c-22,3.4-44.1-7.3-59.6-22.9-13.9-14-24.6-26-13.9-32.3,27.8-16,49.3-25.2,52.7-43.7,3.1-16-13.6-26.4-39-66.7-58.4-92.3,2.9-105.1,85-139.7a115.05,115.05,0,0,0,18.2-9.2c49.9-31.7-14.4-73.7,24.5-77.6,31.7-3.2,69.7-13.1,78.6-35.7,3.1-7.8,2.6-17.6-2.2-29.5-11.8-29.3,5.6-57.1,29.9-58.1v-.4c-24.6,1.1-42.1,28.8-30.3,58.2,4.8,11.9,5.1,21.8,1.8,29.7-9.5,23-48.8,32.4-81.8,35.1-40.3,3.2,25.3,45.4-24.9,77.9a115.59,115.59,0,0,1-18.2,9.3c-82.6,35.1-143.5,47.4-83.5,141.1,25.9,40.3,40,53.2,35.8,69.3-4.9,18.7-27.7,27.5-54.9,42.3-10.8,5.8.1,17.9,15.3,31.4,16.5,14.6,40.2,25,62.8,20.6a68.32,68.32,0,0,1,22.1-.4c44.5,6.1,73.3,42.7,85.1,72.9,7.8,19.9,20.6,96-20.1,156.1-21.1,31.3-55.8,52.1-86.9,76.6-43.9,42.2-236.8,116.6-320.5,66.2-54.4-32.7,9.9-90.1-223-22.4-147,42.8-216.2-18-274.3-36.7-3.9-1.2-7.7-2.3-11.5-3.2-62.8-13.9-157.7,109.8-258.8,85.2-38.5-9.3-51.6-41.2-42.5-48.2h0c-9.5,7.3,2.1,38.8,39.4,48.3,101.5,25.6,195.3-100.3,257.7-86.5,3.8.9,7.6,1.9,11.5,3.2,58.2,18.7,127.8,79.3,273.9,36,236.5-70,168.4-9.9,221.5,23.7,83.1,52.6,280.9-26.8,322.5-66.1,31.7-25,67.2-46,88.7-77.9,41.6-61.2,28.6-139,20.3-159.1-12.4-30-42.6-65.8-86.8-70a70.16,70.16,0,0,0-22.4,1.3c-23.1,5.3-48.4-4.5-65.9-18.2-16.5-13-27.5-25.2-16.7-30.7,26.7-13.4,50.8-22,57.2-40.9,5.3-16-6.3-31.3-32.5-71.7-61.6-94.9-1.2-106.9,82-142.4a112.38,112.38,0,0,0,18.2-9.5c50.6-33.2-16.3-75.7,25.4-78.2,34.1-2.2,75-11.2,85.1-34.5,3.4-7.9,3.3-17.9-1.6-29.9-11.9-29.6,6-57.3,30.7-58.4v-.4c-24.9,1.1-43.1,28.8-31,58.6,4.9,12.1,4.9,22.1,1.2,30.1-10.8,23.5-53.1,32.2-88.3,33.8-43.1,1.9,25.1,44.5-26,78.6a109.25,109.25,0,0,1-18.2,9.6c-83.7,36-143.6,47.6-80.4,143.8,26.6,40.4,35.9,58.1,29.3,74.2-7.8,19-33.2,27.4-59.4,39.5-11,5.1.4,17.5,18.2,29.8,18.4,12.9,45.2,22.2,68.9,15.9a75.6,75.6,0,0,1,22.7-2.3c44,2.5,75.7,37.4,88.7,67.2,8.9,20.3,21.9,99.6-20.5,162-22.1,32.4-58.3,53.8-90.6,79.2-39.4,36.4-242,120.8-324.5,65.9-51.8-34.5,20.1-97.3-220.1-25-145.4,43.8-215.4-16.7-273.6-35.3-3.9-1.2-7.7-2.3-11.5-3.2C267,907.2,174,1035.4,72.2,1009,36.1,999,26,967.7,36,960.2l-.1.1c-11.4,8.4-5.8,38.9,27,48.5,102.5,29.9,192.8-105.7,253.7-92.2S448,1001.2,600.4,953c251.1-79.4,167.6-8.1,215.9,29,80.5,61.9,298.1-37.8,330.6-65.5,34.1-26.7,72.7-48.9,96.2-83.1,45.2-65.9,31.7-149.9,21.3-170.7-17.3-34.5-64.1-73-117.5-53.7-49.7,18.1-123.4-28.4-100.6-36.3,45.5-15.7,106.8-28.2,46.6-116.9-68-100-9.4-110.3,75.9-147.8s-6.2-89.5,45.8-89.5,117.7-13.7,97.8-62.7c-12.3-30.2,6.7-57.8,32.2-58.9v.4c-25.3,1.1-44,28.8-31.8,58.8,5,12.3,4.7,22.4.6,30.5-12,24-57.2,32-94.8,32.6-46,.6,24.8,43.7-26.9,79.2a107.86,107.86,0,0,1-18.3,9.9c-84.7,37.1-143.8,47.9-77.4,146.5,27.3,40.6,31.7,63,22.8,79.1-10.7,19.2-38.7,27-63.8,36.7-11.1,4.3.8,17.3,21,28.2,20.6,11.3,50.5,19.4,75.1,11.1a79.69,79.69,0,0,1,23.2-4.1c43.5-1.1,78,32,92.2,61.5,9.9,20.6,23.2,103.1-21,167.8-23,33.6-60.8,55.5-94.4,81.8-34.8,30.6-247.3,125.1-328.6,65.6C772.8,946.4,852.5,878,605,955c-143.8,44.7-214.5-15.3-272.8-34-3.9-1.2-7.6-2.3-11.4-3.1-61.3-13.5-152.4,119.5-254.7,90.8-33.9-9.5-41-40.2-30.1-48.5h0c-10.4,7.9-1.8,38.9,33.1,48.4,102.1,27.6,194.1-103,255.7-89.4,3.8.9,7.6,1.9,11.5,3.2,58.3,18.7,128.6,78.9,273.2,34.6,243.9-74.6,168.1-8.9,218.7,26.3,82,57.3,289.5-32.3,326.6-65.8,32.9-25.9,70-47.5,92.4-80.5,43.4-63.5,30.2-144.4,20.8-164.9-13.5-29.6-46.7-63.7-90.4-64.4a77.93,77.93,0,0,0-23,3.2c-24.2,7.3-52.5-1.5-72.1-13.5-18.9-11.7-30.5-24.4-19.6-29,25.6-10.9,52.3-18.9,61.6-38.1,7.8-16.1.9-36.1-26-76.6-64.7-97.4-5.3-108.6,78.9-145.1a123,123,0,0,0,18.3-9.7c51.4-34.7-18.2-77.6,26.4-78.8,36.5-1.1,80.1-9.4,91.5-33.2,3.9-8.1,4-18.2-1-30.3-12.1-29.8,6.3-57.5,31.5-58.7l-.7,16.3c-16.9.2-25.1,28.8-16.3,53.2a67.88,67.88,0,0,0,12.9,22.4c9.9,11.2,25.4,34.7,35.3,57.3,11.5,26.1,26.7,57.7-7.5,66.2-5.2,1.3-10.9,2.6-17,4.2-63.6,16.6-148.8,48.1-137.8,92,10,40.1,102.9-36.4,153.5-19.5,34,11.4,64.9,24.3,25.1,92.4-9.5,16.2-19.9,36.7-35.2,60.1-37.5,57.4-49.5,86.5-49.2,105.2.2,13.3,5.4,22.3,12.2,32.6,52.8,80.4,38.5,134.9,20.7,175-5,11.2-3.6,32.4-10.9,51-4.3,11-10.9,20.6-19.8,29.7-126,146.2-163.5,62.3-247.9,71.7-112.1,12.5-183.3,18.9-274.3,26-181,14.3-231.9-42-287.6-60.5a97.79,97.79,0,0,0-12.1-3.2c-77.3-16.8-210.5,37.3-295.7,35.2-81.1-2.2-146.1-49.4-154.2-46h0c8.6-3.6,75,44.2,157.6,45.9,84.7,1.8,219-50.7,296.6-33.8,4,.9,8.1,2,12.1,3.3,55.6,18.5,105.9,73.7,288.1,61.1,86.9-6.1,162.1-13.1,275.7-27.4,84.4-10.6,117.5,77.2,245.9-71.9a81.42,81.42,0,0,0,17.9-28.4c6.4-17.5,5.4-37.1,10.7-48.1,19-40.3,33.9-95.4-18.9-177.9-6.8-10.6-12-19.8-11.9-33.6.2-19.5,12.9-49.2,52.3-107.6,16-23.8,27.1-44.4,36.6-60.9,40-69.7,7.8-82.5-27.4-93.8-52.1-16.7-147.4,62.1-156.7,21.9-9.8-42.4,76.4-74.6,139.3-90.7,6.1-1.5,11.8-2.8,16.9-4,33.8-8,19.9-39.1,7-65.9-11.1-23.1-28.2-46.9-38.6-57.9a63.31,63.31,0,0,1-13.2-22.2c-8.6-24.2-.8-53,16-53.1"/><path class="cls-1" d="M1345,96.9c21.3-1.1,48.3,19.3,65.4,78.3,38.6,132.9,125.5,70.2,167.5,158.5,28.1,59.1-140.5,199.5-15.3,161.9,122.6-36.8-1.1,161.8-59.4,153.8-101.5-13.9-123.1-30.9-108.1,140.5,6.3,71.8,99.5,135.4,110.1,141.2"/><path class="cls-1" d="M1345,97.4c13.1-.6,27.7,6.8,41,26.4,8.4,12.3,16.4,29.2,23.1,51.8,8.1,27.4,18.3,46.6,29.8,60.2,42.8,51.6,106.9,27.4,135.7,97.3,8.2,19.6-5.9,47.7-21.6,75.6-7,12.6-13.9,24.7-20.3,36-22.5,39.1-35.7,68.1,26.7,50.3,113.6-32.4,8.1,143.6-51.4,153.8a28.22,28.22,0,0,1-8.2.3c-99.3-12-120-27.3-105.1,141.3,2.1,24,13.7,47,28.4,67.3,29.3,40.2,71.2,68.8,78,73.4"/><path class="cls-1" d="M1345,97.8c13.1-.6,27.1,6.9,40,26.6,8.1,12.3,16.1,29.2,22.9,51.6,8.2,27.1,18.5,46,30,59.7,42.4,50.7,109.3,27.4,133.7,97,6.9,19.7-8.7,47.1-23.9,74.7-6.8,12.5-12.5,24.2-18.3,35.2-20.5,38.2-33,68.2,27.1,52.1,110.3-29.6,6.2,143.3-51.7,154.1a27.25,27.25,0,0,1-8.1.4c-97.1-10.2-116.7-23.7-102.2,142.1,2.1,23.9,13.4,46.8,27.7,66.9,28.3,39.9,68.6,67.8,75.2,73.2"/><path class="cls-1" d="M1344.9,98.3c13.1-.6,26.5,7,38.9,26.7,7.8,12.3,15.8,29.1,22.6,51.3,8.2,26.8,18.7,45.6,30.2,59.2,42.1,49.7,111.7,27.5,131.6,96.6,5.7,19.8-11.6,46.5-26.1,73.8-6.7,12.5-11,23.8-16.3,34.5-18.4,37.4-30.3,68.4,27.5,53.8,107-26.8,4.5,142.8-52.2,154.2a30.11,30.11,0,0,1-7.9.6c-94.8-8.2-113.5-20.1-99.2,142.8,2.1,23.9,13.2,46.7,26.9,66.6,27.3,39.6,65.9,66.8,72.4,73"/><path class="cls-1" d="M1344.9,98.7c13.1-.6,26,7.2,38,26.9,7.5,12.3,15.5,29,22.4,51,8.3,26.5,18.9,45.1,30.3,58.6,41.7,48.8,114.1,27.8,129.6,96.3,4.6,20.1-14.4,45.9-28.4,73-6.4,12.5-9.6,23.2-14.3,33.7-16.3,36.7-27.6,68.5,28,55.6,103.7-24,2.7,142.5-52.5,154.5a24.88,24.88,0,0,1-7.7.7c-92.5-6.4-110.2-16.5-96.2,143.6,2.1,23.8,12.9,46.5,26.1,66.2,26.4,39.4,63.3,65.8,69.6,72.9"/><path class="cls-1" d="M1344.9,99.2c13.1-.6,25.3,7.3,36.9,27.1a251.61,251.61,0,0,1,22.2,50.8c8.3,26.1,19,44.6,30.5,58,41.2,48,116.3,28.3,127.5,95.9,3.4,20.4-17.2,45.2-30.7,72.1-6.2,12.4-8.2,22.7-12.3,32.9-14.3,35.8-24.9,68.6,28.4,57.3,100.3-21.1,1,142.1-53,154.7a27.49,27.49,0,0,1-7.5.9c-90.2-4.5-107.1-12.9-93.2,144.4,2.1,23.7,12.6,46.2,25.3,65.9,25.4,39.1,60.7,64.8,66.8,72.7"/><path class="cls-1" d="M1344.9,99.6c13.1-.5,24.7,7.4,35.9,27.3a279.34,279.34,0,0,1,21.9,50.5c8.4,25.9,19.1,44.2,30.7,57.4,40.8,47.1,106.5,31.5,125.5,95.6-1.6,20.9-20,44.6-33,71.1-6.1,12.3-6.8,22.3-10.3,32.1-12.1,34.9-22.3,68.7,28.8,59.1,97-18.2-.9,141.8-53.3,154.9a25.93,25.93,0,0,1-7.4,1c-88-2.6-103.8-9.3-90.2,145.2,2.1,23.6,12.3,46,24.6,65.6,24.5,38.8,58,63.8,64,72.5"/><path class="cls-1" d="M1344.9,100c13.1-.5,24.1,7.5,34.8,27.4a309.28,309.28,0,0,1,21.7,50.2c8.5,25.5,19.3,43.7,30.9,56.9,40.3,46.2,106.8,32.1,123.4,95.2-3.3,21-22.8,44-35.3,70.2-5.8,12.3-5.3,21.7-8.2,31.3-10,34-19.6,68.8,29.3,60.9,93.7-15.3-2.6,141.4-53.8,155.1a25.14,25.14,0,0,1-7.2,1.1c-85.8-.7-100.6-5.7-87.2,146,2.1,23.6,12,45.9,23.9,65.2,23.5,38.7,55.4,62.9,61.2,72.3"/><path class="cls-1" d="M1344.8,100.5c13.1-.5,23.5,7.5,33.8,27.6a349.79,349.79,0,0,1,21.4,50c8.5,25.2,19.5,43.2,31,56.3,40,45.2,107.1,32.7,121.4,94.9-5.2,21.3-25.6,43.4-37.5,69.4-5.6,12.3-3.9,21.2-6.1,30.6-7.9,33.1-17,69,29.7,62.6,90.2-12.4-4.5,141.1-54.1,155.3a27.76,27.76,0,0,1-7,1.2c-83.5,1.2-97.4-2.1-84.3,146.8,2.1,23.5,11.8,45.7,23.1,64.9,22.5,38.4,52.8,61.8,58.4,72.2"/><path class="cls-1" d="M1344.8,100.9c13.1-.5,22.9,7.6,32.7,27.7a433.12,433.12,0,0,1,21.2,49.7c8.6,24.9,19.6,42.8,31.2,55.8,39.5,44.4,107.4,33.3,119.3,94.5-7,21.5-28.4,42.8-39.8,68.5-5.4,12.2-2.5,20.7-4.1,29.8-5.8,32.1-14.4,69.2,30.2,64.3,86.8-9.4-6.2,140.7-54.5,155.5a26.55,26.55,0,0,1-6.8,1.4c-81.1,3.1-94.2,1.5-81.3,147.6,2.1,23.4,11.5,45.5,22.3,64.5,21.6,38.1,50.2,60.9,55.6,71.9"/><path class="cls-1" d="M1344.8,101.3c13.1-.5,22.4,7.7,31.7,27.9,5.7,12.2,13.6,28.6,21,49.5,8.7,24.6,19.7,42.3,31.4,55.2,39.1,43.5,107.8,33.9,117.2,94.2-8.9,21.7-31.2,42.2-42.1,67.6-5.2,12.1-1.1,20.2-2.1,29-3.7,31.1-11.8,69.4,30.6,66,83.3-6.4-8.1,140.4-54.9,155.7a30.27,30.27,0,0,1-6.6,1.6c-78.8,5-90.9,5.1-78.3,148.5,2.1,23.3,11.2,45.3,21.5,64.3,20.6,37.9,47.5,59.9,52.8,71.7"/><path class="cls-1" d="M1344.8,101.9c13.1-.4,21.7,7.8,30.7,28.1,5.4,12.2,13.3,28.6,20.7,49.2,8.7,24.2,19.9,41.8,31.5,54.6,38.7,42.6,108,34.5,115.1,93.8-10.6,21.8-34,41.6-44.4,66.6-5,12.1.4,19.6-.1,28.2-1.6,30.1-8.5,76.2,31,67.8,78.1-16.6-9.8,140-55.3,155.9a28.82,28.82,0,0,1-6.4,1.7c-76.5,6.8-87.8,8.7-75.3,149.2,2.1,23.2,11,45.1,20.7,63.9,19.6,37.7,44.8,58.8,50,71.6"/><path class="cls-1" d="M1344.8,102.3c13.1-.4,21.1,7.9,29.6,28.2,5.1,12.2,13,28.5,20.4,48.9,8.8,23.9,20.1,41.4,31.7,54.1,38.2,41.7,108.4,35.2,113.1,93.5-12.5,22.1-36.8,41-46.6,65.8-4.8,12,1.8,19,1.9,27.4.5,29-6.1,77.2,31.5,69.5,74.7-15.1-11.7,139.7-55.8,156.1a23.11,23.11,0,0,1-6.2,1.8c-74.2,8.7-84.5,12.3-72.3,150,2.1,23.1,10.6,44.9,19.9,63.6,18.7,37.4,42.2,57.9,47.1,71.4"/><path class="cls-1" d="M1344.8,102.8c13-.4,20.5,8,28.6,28.4,4.8,12.2,12.6,28.4,20.3,48.7,8.8,23.6,20.2,40.9,31.8,53.5,37.8,40.9,108.6,35.8,111,93.1-14.3,22.3-39.6,40.3-48.9,64.9-4.6,12,3.2,18.4,3.9,26.7,2.6,28-3.8,78.1,31.9,71.3,71.3-13.6-13.4,139.4-56.1,156.3a20.67,20.67,0,0,1-6.1,1.9c-71.8,10.5-81.3,15.9-69.4,150.8,2.1,23.1,10.3,44.7,19.1,63.2,17.7,37.2,39.5,56.9,44.3,71.2"/><path class="cls-1" d="M1344.7,103.2c13-.4,20,8.1,27.6,28.6,4.6,12.2,12.4,28.3,20,48.4,8.9,23.2,20.3,40.4,32,53,37.4,40,109,36.4,109,92.8-16,22.4-42.4,39.7-51.2,64-4.4,11.9,4.6,17.9,6,26,4.6,26.7-1.7,79.1,32.4,73,68-12.2-15.3,139.1-56.6,156.5a29.53,29.53,0,0,1-5.9,2.1c-69.4,12.4-78.1,19.5-66.4,151.6,2.1,23.1,10.1,44.5,18.4,62.9,16.7,36.9,36.9,55.9,41.5,71"/><path class="cls-1" d="M1344.7,103.6c13-.4,19.4,8.2,26.6,28.8,4.2,12.2,12,28.2,19.7,48.1,8.9,22.9,20.5,40,32.2,52.3,36.8,39.1,109.3,37,106.9,92.4-17.9,22.6-45.2,39.1-53.5,63.1-4.1,11.9,6,17.3,8,25.2,6.6,25.6.4,80.1,32.8,74.8,64.6-10.7-17.1,138.8-56.9,156.8a24.86,24.86,0,0,1-5.7,2.2c-67.1,14.2-74.9,23.1-63.4,152.4,2.1,23,9.8,44.4,17.6,62.5,15.7,36.7,34.3,54.9,38.7,70.9"/><path class="cls-1" d="M1344.7,104.1c13-.4,18.8,8.2,25.5,28.9,3.9,12.2,11.8,28.2,19.6,47.9,8.9,22.6,20.7,39.5,32.4,51.8,36.4,38.3,109.6,37.6,104.9,92.1-19.7,22.9-48,38.6-55.9,62.2-3.9,11.8,7.4,16.7,10,24.4,8.4,24.5,2.4,70.4,33.2,76.6,60.9,12-18.9,138.5-57.3,157a29.59,29.59,0,0,1-5.5,2.4c-64.7,16-71.6,26.7-60.4,153.2,2.1,22.9,9.6,44.2,16.8,62.3,14.7,36.5,31.7,53.9,35.9,70.7"/><path class="cls-1" d="M1344.7,104.5c13-.4,18.2,8.2,24.5,29.1,3.7,12.1,11.4,28.1,19.3,47.6,9,22.3,20.8,39,32.5,51.3,36,37.4,109.9,38.3,102.9,91.7-21.6,23.1-50.8,38-58.1,61.3-3.8,11.8,8.7,16,12,23.7,10.3,23.2,6.5,65.1,33.6,78.2,58.7,3.7-20.7,138.2-57.7,157.1a36.51,36.51,0,0,1-5.3,2.5c-62.3,17.8-68.4,30.3-57.4,154,2.1,22.8,9.2,44,16,61.9,13.8,36.2,29,52.9,33.1,70.5"/><path class="cls-1" d="M1344.7,104.9c13-.4,17.6,8.3,23.4,29.3,3.3,12.1,11,28.1,19,47.4a160.35,160.35,0,0,0,32.7,50.7c35.5,36.6,110.2,38.9,100.8,91.4-23.4,23.2-53.5,37.4-60.4,60.4-3.5,11.8,10,15.4,14,22.9,12,22.1,9.2,64.9,34,80,55.2,6-22.5,137.9-58.1,157.4a25.28,25.28,0,0,1-5.2,2.6c-59.9,19.6-65.2,33.9-54.5,154.8,2.1,22.7,8.9,43.8,15.3,61.6,12.8,36,26.4,51.9,30.3,70.3"/><path class="cls-1" d="M1344.7,105.4c13-.4,17,8.4,22.4,29.5,3.1,12.1,10.8,28,18.8,47.1a162.33,162.33,0,0,0,32.9,50.2c35,35.7,110.6,39.5,98.7,91-25.2,23.5-56.3,36.7-62.7,59.5-3.3,11.8,11.3,14.8,16,22.1,13.8,21,11.8,64.7,34.5,81.7,51.8,8.2-24.4,137.7-58.5,157.6a30.52,30.52,0,0,1-5,2.8c-57.4,21.3-62,37.5-51.5,155.6,2.1,22.7,8.7,43.6,14.6,61.2,11.8,35.8,23.8,50.9,27.4,70.1"/><path class="cls-1" d="M1344.7,105.8c13-.4,16.5,8.5,21.4,29.6,2.8,12.1,10.4,28,18.5,46.8a157.52,157.52,0,0,0,33.1,49.5c34.5,34.8,110.8,40.2,96.6,90.7-27,23.7-59.1,36.2-65,58.7-3.1,11.8,12.6,14.3,18.2,21.3,15.4,19.9,14.5,64.5,34.9,83.5,48.4,10.5-26.2,137.4-58.9,157.8a39.85,39.85,0,0,1-4.7,2.9c-55,23.1-58.8,41.1-48.5,156.3,2.1,22.6,8.4,43.4,13.8,60.9,10.9,35.5,21.1,49.9,24.6,69.9"/><path class="cls-1" d="M1344.7,106.3c13-.4,15.9,8.6,20.3,29.8,2.5,12.1,10.1,27.9,18.3,46.5a160.26,160.26,0,0,0,33.2,49c34.1,34,111.2,40.8,94.5,90.3-28.8,23.9-61.8,35.6-67.3,57.7-2.9,11.8,13.9,13.7,20.2,20.5,17.1,18.9,17.1,64.4,35.3,85.2,45,12.8-28.1,137.2-59.3,158-1.5,1.1-3,2.1-4.6,3.1-52.5,24.7-55.6,44.7-45.5,157.1,2.1,22.5,8.2,43.2,13,60.6,9.9,35.3,18.5,48.9,21.8,69.7"/><path class="cls-1" d="M1344.7,106.8c13-.4,15.3,8.6,19.3,30,2.3,12,9.8,27.8,18.1,46.3a160.54,160.54,0,0,0,33.4,48.4c33.6,33.1,111.5,41.4,92.5,90-30.6,24-64.6,35-69.5,56.8-2.6,11.7,15.2,13.2,22.2,19.7,18.7,17.8,19.8,64.2,35.8,87,41.6,15.2-29.8,137.1-59.7,158.2-1.4,1.1-2.9,2.2-4.4,3.2-50.2,26.4-52.3,48.3-42.5,157.9,2.1,22.4,7.8,43.1,12.2,60.2,8.9,35.1,15.9,48,19,69.5"/><path class="cls-1" d="M1344.7,107.2c13-.3,14.7,8.7,18.2,30.2,2,12,9.5,27.7,17.8,45.9a162,162,0,0,0,33.6,47.9c33.1,32.3,111.8,42,90.5,89.6-32.4,24.2-67.3,34.5-71.8,55.9-2.5,11.7,16.5,12.6,24.2,19,20.3,16.8,22.4,64,36.2,88.7,38.1,17.4-31.7,136.8-60.2,158.4a33.92,33.92,0,0,1-4.2,3.3c-47.7,28-49.1,51.9-39.5,158.7,2.1,22.4,7.5,42.9,11.4,59.9,7.9,34.9,13.2,46.9,16.2,69.4"/><path class="cls-1" d="M1344.7,107.7c13-.3,14.2,8.8,17.3,30.3,1.7,12,9.1,27.6,17.5,45.7a158.6,158.6,0,0,0,33.8,47.4c32.6,31.5,112.1,42.6,88.4,89.3-34.3,24.5-70.2,33.8-74.1,55.1-2.2,11.6,17.8,12.1,26.2,18.2,21.9,16,25.1,63.8,36.7,90.5,34.7,19.7-33.5,136.6-60.5,158.6-1.5,1.2-2.7,2.6-4,3.5-45.2,29.5-45.9,55.4-36.5,159.4,2.1,22.3,7.3,42.7,10.6,59.5,6.9,34.6,10.5,45.9,13.4,69.2"/><path class="cls-1" d="M1344.6,108.1c13-.3,13.7,8.9,16.2,30.5,1.4,12,8.9,27.6,17.4,45.4a159.73,159.73,0,0,0,34,46.7c32.2,30.6,112.4,43.2,86.3,88.9-36.1,24.6-72.9,33.3-76.4,54.2-1.9,11.6,19,11.7,28.2,17.4,23.6,15,27.7,63.7,37.1,92.2,31.2,22-35.3,136.4-60.9,158.8-1.5,1.2-2.5,2.6-3.9,3.6-42.9,31.1-42.7,59.1-33.6,160.3,2.1,22.3,7,42.5,9.9,59.2,6,34.4,7.9,45,10.6,69"/><path class="cls-1" d="M1344.6,108.5c13-.3,13.1,8.9,15.2,30.7,1.1,11.9,8.5,27.5,17.1,45.2a161.5,161.5,0,0,0,34.1,46.2c31.7,29.7,112.8,43.8,84.3,88.6-37.9,24.8-75.6,32.7-78.7,53.2-1.8,11.6,20.3,11.1,30.3,16.7,25.3,14.1,30.3,63.5,37.5,93.9,27.8,24.3-37.1,136.4-61.3,159-1.4,1.3-2.5,2.7-3.7,3.8-40.5,32.6-39.5,62.7-30.5,161.1,2.1,22.2,6.7,42.4,9.1,58.9,4.9,34.2,5.3,43.9,7.8,68.8"/><path class="cls-1" d="M1344.6,109c13-.3,12.5,8.9,14.1,30.9.9,11.9,8.2,27.4,16.8,44.9a160.88,160.88,0,0,0,34.3,45.6c31.1,28.9,113,44.5,82.3,88.2-39.7,25-78.3,32.1-80.9,52.3-1.5,11.5,21.7,10.6,32.3,15.9,26.9,13.3,33,63.3,38,95.7,24.4,26.6-38.8,136.2-61.7,159.2-1.3,1.3-2.3,2.8-3.5,3.9-38.1,34.1-36.3,66.3-27.5,161.9,2.1,22.1,6.4,42.2,8.3,58.6,3.9,33.9,2.6,43,5,68.7"/><path class="cls-1" d="M1344.6,109.4c13-.3,12,9,13.2,31,.6,11.9,7.8,27.4,16.6,44.6a159.36,159.36,0,0,0,34.5,45.1c30.7,28.1,113.4,45.1,80.1,87.9-41.6,25.3-81.1,31.6-83.2,51.5-1.2,11.5,23,10.2,34.3,15.2,28.7,12.5,35.7,63.1,38.4,97.4,21,28.8-40.6,136-62.1,159.4-1.2,1.4-2.2,2.9-3.3,4-35.8,35.5-33.1,69.9-24.6,162.7,2.1,22,6.1,42,7.5,58.2,3,33.8,0,42,2.1,68.4"/><path class="cls-1" d="M1344.6,109.9c13-.2,11.4,9.1,12.1,31.2.4,11.9,7.5,27.4,16.4,44.4a164.27,164.27,0,0,0,34.5,44.5c30.2,27.3,120.1,52.3,78.1,87.5-38.5,32.3-83.8,31-85.6,50.6-1.1,11.5,24.2,9.7,36.3,14.4,30.3,11.7,38.3,63,38.8,99.2,17.5,31.1-42.4,135.9-62.5,159.7-1.2,1.4-2,3-3.2,4.1-33.5,37-29.8,73.5-21.6,163.5,2.1,21.9,5.8,41.8,6.8,57.9,1.9,33.5-2.6,41-.7,68.2"/><path class="cls-1" d="M1344.5,110.3c13-.2,10.9,9.2,11,31.4.1,11.9,7.2,27.3,16.1,44.1a159.21,159.21,0,0,0,34.8,43.9c29.6,26.5,119.8,52.6,76,87.2-40.8,32.2-86.5,30.4-87.9,49.7-.8,11.4,25.5,9.3,38.3,13.6,32.1,10.9,41,62.8,39.3,100.9,14.1,33.4-44.1,135.8-62.9,159.9-1.1,1.5-1.9,3.1-3,4.3-31.2,38.4-26.7,77.1-18.6,164.2,2.1,21.8,5.5,41.7,6,57.6,1,33.3-5.3,40-3.5,68"/><path class="cls-1" d="M1344.5,110.7c12.9-.2,10.3,9.2,10,31.6-.2,11.8,6.8,27.2,15.9,43.8a160.66,160.66,0,0,0,34.9,43.3c29.1,25.7,119.4,52.9,74,86.8-43,32.1-89.3,29.8-90.1,48.8-.5,11.4,26.8,8.8,40.3,12.8,33.8,10.1,43.6,62.6,39.7,102.7,10.7,35.7-45.9,135.7-63.3,160-1.1,1.5-1.8,3.2-2.8,4.5-29,39.8-23.4,80.7-15.6,165,2.1,21.8,5.3,41.5,5.2,57.3,0,33.1-7.9,39-6.3,67.9"/><path class="cls-1" d="M1344.5,111.3c12.9-.2,9.8,9.3,8.9,31.7-.4,11.8,6.5,27.2,15.6,43.6,9.6,17.4,22.9,32.2,35.1,42.8,28.7,24.8,119.1,53.1,71.9,86.5-45.2,31.9-92,29.3-92.4,47.9-.3,11.4,28.1,8.3,42.4,12.1,35.6,9.3,39.2,62,40.2,104.4.9,38.7-47.5,135.7-63.7,160.3-1.1,1.6-1.7,3.2-2.5,4.6-26.8,41.2-20.2,84.3-12.6,165.8,2,21.7,4.9,41.3,4.4,56.9-1.1,32.8-10.5,38-9.1,67.7"/><path class="cls-1" d="M1344.5,111.7c12.9-.2,9.3,9.4,8,31.8-.7,11.8,6.2,27.1,15.4,43.3,9.7,17.2,23,31.7,35.3,42.3,28.1,24,118.8,53.4,69.9,86.1-47.4,31.7-94.7,28.7-94.7,47,0,11.4,29.6,7.9,44.5,11.3,37.4,8.5,42.6,61.5,40.6,106.2-1.8,40.4-49.2,135.6-64.1,160.5-1,1.6-1.6,3.2-2.4,4.7-24.6,42.6-16.9,87.9-9.6,166.6,2.1,21.7,4.6,41.1,3.7,56.6-2,32.6-13.2,37-11.9,67.5"/><path class="cls-1" d="M1344.4,112.1c12.9-.2,8.8,9.5,6.9,32-1,11.8,5.9,27,15.2,43.1,9.7,16.8,23.1,31.3,35.4,41.7,27.6,23.2,118.6,53.6,67.8,85.8-49.6,31.4-97.3,28.1-97,46.1.3,11.3,30.9,7.5,46.5,10.5,39.2,7.7,46,61.1,41,107.9-4.6,42.4-50.9,135.5-64.5,160.6-.9,1.7-1.5,3.3-2.2,4.8-22.5,44-13.8,91.5-6.7,167.4,2,21.6,4.3,41,2.9,56.2-3.1,32.4-15.8,36-14.7,67.3"/><path class="cls-1" d="M1344.4,112.6c12.9-.1,8.2,9.6,5.9,32.2-1.2,11.8,5.5,27,14.9,42.8a162.68,162.68,0,0,0,35.6,41.1c27.1,22.4,118.4,53.8,65.8,85.4-51.8,31.1-100.1,27.5-99.3,45.2.5,11.3,32.2,7,48.5,9.7,41,6.9,49.5,60.9,41.5,109.6-7.3,44.4-52.5,135.4-64.9,160.9-.8,1.7-1.3,3.4-2,5-20.4,45.4-10.5,95.1-3.7,168.2,2,21.5,4,40.7,2.1,55.9-4,32.2-18.4,35.1-17.5,67.2"/><path class="cls-1" d="M1344.4,113c12.9-.1,7.7,9.6,4.8,32.4-1.5,11.8,5.2,26.9,14.6,42.5,9.8,16.2,23.3,30.4,35.8,40.5,26.6,21.7,118.3,53.9,63.7,85.1-54,30.8-102.8,26.9-101.5,44.3.8,11.3,33.5,6.6,50.5,8.9,42.8,6.1,52.9,60.7,41.9,111.4-10.1,46.5-54.1,135.3-65.3,161.1-.8,1.8-1.2,3.5-1.8,5.1-18.4,46.9-7.3,98.6-.7,169.1,2,21.4,3.8,40.5,1.3,55.6-5.1,31.9-21,34-20.3,67"/><path class="cls-1" d="M1344.4,113.4c12.9-.1,7.2,9.7,3.8,32.5-1.8,11.8,4.9,26.8,14.5,42.3,9.9,15.9,23.5,30,36,40,26,20.9,118.1,54,61.6,84.7-56.1,30.5-105.4,26.3-103.8,43.4,1.1,11.2,34.8,6.1,52.5,8.2,44.6,5.3,56.2,60.6,42.4,113.1-12.9,48.8-55.8,135.2-65.7,161.3-.7,1.8-1.1,3.6-1.7,5.3-16.3,48.4-4.1,102.2,2.3,169.9,2,21.4,3.4,40.3.5,55.2-6.1,31.7-23.7,33.1-23.1,66.8"/><path class="cls-1" d="M1344.4,113.9c12.9-.1,6.7,9.8,2.8,32.7-2,11.8,4.6,26.8,14.2,42,9.9,15.6,23.6,29.6,36.1,39.4,25.5,20.1,118,54.1,59.5,84.4-58.3,30.2-108.1,25.8-106.1,42.5,1.3,11.2,36.2,5.6,54.5,7.5,46.5,4.6,59.5,60.5,42.7,114.9-15.8,51-57.3,135.1-66.1,161.5-.6,1.8-1,3.7-1.5,5.4-14.4,49.9-.9,105.9,5.3,170.6,2,21.3,3.2,40.2-.2,54.9-7.1,31.5-26.3,32-26,66.6"/><path class="cls-1" d="M1344.4,114.3c12.9-.1,6.1,9.9,1.8,32.9-2.3,11.8,4.2,26.7,13.9,41.7,9.9,15.3,23.7,29.1,36.3,38.8,25,19.3,118,54.2,57.5,84s-110.8,25.2-108.5,41.7c1.6,11.1,37.5,5.2,56.6,6.7,48.3,3.9,62.8,60.4,43.1,116.6-18.6,53.4-58.8,135-66.5,161.7-.5,1.8-.9,3.8-1.3,5.5-12.4,51.5,2.4,109.4,8.2,171.4,2,21.2,2.8,40-1,54.5-8.2,31.2-28.9,31-28.8,66.4"/><path class="cls-1" d="M1344.3,114.8c12.9,0,5.6,9.9.7,33.1-2.5,11.8,3.9,26.7,13.7,41.5,10,15,23.9,28.7,36.5,38.3,24.5,18.5,117.9,54.3,55.4,83.7s-113.5,24.6-110.7,40.8c1.9,11.1,38.8,4.7,58.6,5.9,50.2,3.1,65.9,60.4,43.6,118.4-21.5,55.8-60.4,134.9-66.9,162-.4,1.9-.7,3.8-1.1,5.7-10.3,53,5.5,113.1,11.2,172.2,2,21.1,2.5,39.8-1.8,54.3-9.2,31-31.7,30.1-31.6,66.2"/><path class="cls-1" d="M1344.3,115.2c12.9,0,5.1,10.1-.4,33.2-2.7,11.8,3.5,26.7,13.5,41.2s23.9,28.2,36.7,37.7c23.9,17.7,117.9,54.4,53.4,83.3s-116.1,23.9-112.9,39.9c2.2,11,40.2,4.2,60.6,5.1,52,2.3,69.1,60.4,44,120.1-24.5,58.2-62,134.7-67.3,162.1-.4,1.9-.6,3.9-1,5.8-8.4,54.5,8.8,116.7,14.2,173,2,21,2.2,39.6-2.5,53.9-10.2,30.7-34.3,29.1-34.4,66"/><path class="cls-1" d="M1344.3,115.7c12.9,0,4.6,10.1-1.4,33.4-3,11.8,3.2,26.6,13.2,41a166.69,166.69,0,0,0,36.8,37.2c23.3,17,118,54.4,51.3,83s-118.8,23.3-115.2,38.9c2.5,11,41.6,3.8,62.6,4.4,53.9,1.5,72.3,60.4,44.5,121.9-27.4,60.7-63.5,134.5-67.7,162.3-.3,2-.5,3.9-.7,6-6.4,56.1,12,120.2,17.2,173.7,2,21,1.9,39.4-3.3,53.6-11.3,30.4-36.9,28.1-37.2,65.9"/><path class="cls-1" d="M1344.3,116.2c12.9,0,4.1,10.3-2.4,33.6s24.1,58.9,50,77.3c22.8,16.2,118,54.4,49.3,82.6s-121.4,22.7-117.5,38.1c2.8,11,43,3.3,64.6,3.6,55.8.7,75.3,60.4,44.9,123.6s-65,134.3-68,162.6c-9,82.9,35.5,184.7,15.5,233.9-12.3,30.3-39.5,27.1-40,65.7"/><path class="cls-1" d="M1505.7,931.5c184.2,125.1,360.9-115.7,526.3-68.3,58.4,16.7,212.6,172.8,262.2,115"/><path class="cls-1" d="M1502.5,931.6c132.4,91.5,266.8-10.5,392.8-54.5,46-16,91.4-23.8,135.9-11.3,34.8,9.7,100.7,65.9,160,98.4,43.7,23.9,83.3,38.3,103.8,14.5"/><path class="cls-1" d="M1499.3,931.8c129.9,91.5,268-8.1,394.5-52.1,46.3-16.1,91.8-23.5,136.5-11.3,35.9,9.8,101.7,65.7,161.3,96.2,44.4,22.7,83.9,37.8,104.1,14.4"/><path class="cls-1" d="M1496.1,931.8c127.4,91.5,269-5.6,396.2-49.6,46.5-16.1,92.2-23.2,137.1-11.2,36.9,9.9,102.9,65.5,162.6,94.1,45.1,21.5,84.6,37.4,104.3,14.4"/><path class="cls-1" d="M1492.9,931.9c124.9,91.4,270.2-3.1,397.9-47.2,46.7-16.1,92.7-23,137.8-11.2,38.1,9.9,104,65.3,163.9,91.9,45.8,20.3,85.3,36.8,104.6,14.3"/><path class="cls-1" d="M1489.8,932c122.3,91.3,271.2-.6,399.6-44.8,46.9-16.1,93.1-22.7,138.5-11.2,39.1,9.9,105.2,65.2,165.2,89.7,46.6,19.1,86,36.3,104.9,14.3"/><path class="cls-1" d="M1486.6,932.1c119.9,91.2,272.4,1.8,401.3-42.4,47.1-16.1,93.6-22.5,139.1-11.1,40.2,10,106.5,64.9,166.5,87.6,47.4,17.9,86.7,35.8,105.2,14.2"/><path class="cls-1" d="M1483.5,932.3c117.3,91.2,273.4,4.3,403-39.9,47.4-16.1,94-22.3,139.8-11.1,41.2,10.1,107.8,64.6,167.8,85.4,48.1,16.7,87.3,35.3,105.5,14.2"/><path class="cls-1" d="M1480.2,932.4c114.8,91.1,274.6,6.8,404.7-37.4,47.5-16.1,94.4-22,140.4-11.1,42.4,10.1,109.1,64.4,169.2,83.2,49,15.4,88,34.7,105.8,14.1"/><path class="cls-1" d="M1477.1,932.5c112.3,91,275.7,9.2,406.4-35.1,47.7-16.1,94.9-21.8,141-11,43.4,10.1,110.5,64,170.5,81.1,49.9,14.2,88.7,34.3,106,14.1"/><path class="cls-1" d="M1473.9,932.5c109.8,90.9,276.7,11.7,408.1-32.6,48-16.2,95.3-21.7,141.7-11,44.5,10.2,111.9,63.7,171.8,78.9,50.9,12.9,89.4,33.8,106.4,14"/><path class="cls-1" d="M1470.8,932.6c107.3,90.9,277.9,14.1,409.9-30.2,48.1-16.2,95.8-21.4,142.3-11,45.6,10.2,113.3,63.3,173.1,76.7,51.7,11.7,90.1,33.2,106.6,14"/><path class="cls-1" d="M1467.6,932.8c104.8,90.8,278.9,16.6,411.5-27.7,48.4-16.2,96.2-21.2,142.9-11s114.8,62.9,174.4,74.6c52.7,10.3,90.8,32.7,106.9,13.9"/><path class="cls-1" d="M1464.3,932.9c102.2,90.8,280.1,19,413.3-25.3,48.6-16.2,96.6-21,143.6-11,47.7,10.2,116.2,62.4,175.6,72.4,53.8,9,91.5,32.2,107.2,13.9"/><path class="cls-1" d="M1461.2,933c99.8,90.7,281.2,21.5,414.9-22.9,48.8-16.2,97.1-20.8,144.2-11,48.8,10.3,117.8,62,177,70.2,54.7,7.7,92.2,31.7,107.4,13.9"/><path class="cls-1" d="M1458,933.1c97.2,90.6,282.3,24,416.6-20.4,49-16.2,97.5-20.6,144.9-10.9,49.9,10.3,119.3,74.9,178.3,68.1,55.8-6.4,92.9,31.1,107.8,13.9"/><path class="cls-1" d="M1454.9,933.2c94.7,90.6,283.4,26.5,418.4-18,49.2-16.2,97.9-20.4,145.6-10.9,50.9,10.3,121.2,74.6,179.6,65.9,56.4-8.3,93.5,30.6,108,13.8"/><path class="cls-1" d="M1451.7,933.2c92.2,90.5,284.5,28.9,420-15.6,49.5-16.2,98.5-20.3,146.2-10.8,52.1,10.3,123.1,74.2,180.9,63.7,57-10.3,94.2,30.2,108.3,13.8"/><path class="cls-1" d="M1448.5,933.4c89.7,90.4,285.6,31.4,421.8-13.2,49.6-16.2,98.9-20.1,146.8-10.8,53.1,10.3,125,73.7,182.2,61.6,57.7-12.2,94.9,29.6,108.6,13.7"/><path class="cls-1" d="M1445.3,933.5c87.2,90.3,286.7,33.8,423.4-10.7,49.9-16.2,99.4-19.9,147.5-10.8,54.2,10.3,127,73,183.5,59.5,58.3-14,95.6,29.1,108.8,13.7"/><path class="cls-1" d="M1442.2,933.6c84.7,90.3,287.8,36.3,425.2-8.2,50.1-16.2,99.8-19.7,148.1-10.8,55.3,10.3,128.9,72.3,184.8,57.3,58.9-15.9,96.3,28.6,109.1,13.6"/><path class="cls-1" d="M1439,933.7c82.3,90.2,288.9,38.8,426.9-5.9,50.3-16.3,100.2-19.6,148.7-10.7,56.4,10.3,130.8,71.6,186.2,55.1,59.5-17.7,96.9,28.1,109.4,13.6"/><path class="cls-1" d="M1435.9,933.8c79.7,90.1,290,41.2,428.6-3.4,50.5-16.3,100.7-19.4,149.4-10.7,57.4,10.3,132.8,70.6,187.5,53,60.2-19.5,97.6,27.5,109.7,13.5"/><path class="cls-1" d="M1432.6,933.9c77.2,90.1,291.1,43.7,430.3-1,50.7-16.3,101.2-19.2,150-10.6,58.6,10.2,134.6,69.6,188.8,50.8,60.9-21.1,98.3,27.1,110,13.5"/><path class="cls-1" d="M1429.4,934c74.7,90.1,292.3,46.2,432,1.5A314,314,0,0,1,2012,924.9c59.6,10.2,136.4,68.6,190.1,48.6,61.6-22.9,99,26.6,110.2,13.4"/><path class="cls-1" d="M1426.3,934.1c72.2,90,293.3,48.7,433.7,3.9a318.65,318.65,0,0,1,151.3-10.6c60.8,10.2,134.7,54.1,191.4,46.5,66.4-8.9,99.7,26,110.5,13.4"/><path class="cls-1" d="M1423.1,934.2c69.6,89.9,294.5,51.1,435.4,6.3,51.4-16.3,102.5-18.7,152-10.5,61.8,10.2,136.3,53.2,192.7,44.3,67.4-10.6,100.3,25.5,110.8,13.3"/><path class="cls-1" d="M1420,934.3c67.2,89.8,295.5,53.6,437.1,8.8,51.6-16.3,102.9-18.5,152.6-10.5,63,10.1,137.8,52.3,194,42.1,68.4-12.4,101,25,111.1,13.3"/><path class="cls-1" d="M1416.7,934.4c64.6,89.8,296.6,56,438.8,11.2,51.7-16.3,103.4-18.3,153.3-10.5,64,10.1,139.3,51.4,195.3,40,69.4-14.1,101.7,24.5,111.4,13.2"/><path class="cls-1" d="M1413.6,934.6c62.2,89.7,297.7,58.5,440.5,13.6,52-16.3,103.9-18.2,153.9-10.4,65.1,10.1,140.8,50.4,196.6,37.8,70.5-16,102.4,24,111.6,13.2"/><path class="cls-1" d="M1410.4,934.6c59.6,89.6,298.8,60.9,442.2,16,52.2-16.3,104.3-18.1,154.5-10.4,66.2,10,142.3,49.5,197.9,35.6,71.5-17.7,103.1,23.5,111.9,13.2"/><path class="cls-1" d="M1407.3,934.7c57.1,89.5,300,63.4,444,18.5,52.4-16.4,104.8-17.9,155.2-10.4,67.3,10,143.8,48.5,199.2,33.5,72.4-19.6,103.7,23,112.2,13.2"/><path class="cls-1" d="M1404,934.8c54.6,89.4,301,65.9,445.6,21,52.6-16.4,105.2-17.7,155.8-10.3,68.4,9.9,145.2,47.5,200.5,31.3,73.4-21.5,104.4,22.4,112.5,13.1"/><path class="cls-1" d="M1400.9,934.9c52.1,89.4,302.2,68.3,447.4,23.3,52.9-16.4,105.8-17.5,156.4-10.3,69.4,9.9,146.7,46.5,201.9,29.1,74.3-23.4,105.1,21.9,112.8,13.1"/><path class="cls-1" d="M1397.7,935c49.6,89.4,303.2,70.9,449.1,25.8,53.1-16.4,106.2-17.4,157.1-10.3,70.5,9.8,148.1,45.5,203.2,27,75.2-25.3,105.8,21.4,113,13"/><path class="cls-1" d="M1394.5,935.2c47.1,89.3,304.4,73.3,450.8,28.2,53.2-16.4,106.6-17.3,157.8-10.3,71.6,9.8,149.5,44.5,204.5,24.8,76.1-27.3,106.5,20.9,113.4,13"/><path class="cls-1" d="M1391.4,935.3c44.5,89.2,305.4,75.8,452.5,30.7,53.5-16.4,107.1-17.1,158.4-10.3,72.7,9.7,150.9,43.4,205.7,22.6,77-29.2,107.2,20.4,113.6,12.9"/><path class="cls-1" d="M1388.2,935.3c42.1,89.2,306.6,78.2,454.1,33.1,53.7-16.4,107.5-17,159.1-10.3,73.8,9.7,152.3,42.4,207,20.4,77.9-31.2,107.9,19.9,113.9,12.9"/><path class="cls-1" d="M1385,935.4c39.5,89.1,307.7,80.7,455.9,35.5,53.9-16.4,107.9-16.8,159.7-10.2,74.9,9.6,153.7,41.4,208.3,18.3,78.7-33.1,108.6,19.4,114.2,12.8"/><path class="cls-1" d="M1381.8,935.5c37.1,89,308.7,83.1,457.6,38,54.1-16.4,108.5-16.7,160.3-10.2,76,9.6,155.1,40.3,209.7,16.1,79.4-35.3,109.3,18.9,114.4,12.8"/><path class="cls-1" d="M1378.7,935.7c34.5,88.9,309.9,85.6,459.3,40.4,54.4-16.5,108.9-16.6,161-10.2,77.1,9.6,156.4,39.3,211,14,80.2-37.3,109.9,18.3,114.8,12.7"/><path class="cls-1" d="M1375.5,935.8c32,88.9,310.9,88,461,42.8,54.5-16.5,109.3-16.4,161.6-10.1,78.2,9.5,157.8,38.2,212.3,11.8,81-39.3,110.6,17.8,115,12.7"/><path class="cls-1" d="M1372.3,935.9c29.6,88.8,312.1,90.5,462.7,45.2,54.7-16.5,109.8-16.3,162.2-10.1,79.3,9.4,159.1,37.3,213.6,9.6,81.8-41.4,111.3,17.4,115.3,12.6"/><path class="cls-1" d="M1369.1,936c27,88.7,313.2,92.9,464.4,47.7,55-16.5,110.2-16.1,162.9-10.1,80.3,9.3,160.4,36.2,214.9,7.5,82.5-43.4,112,16.8,115.6,12.6"/><path class="cls-1" d="M1366,936c24.6,88.7,314.3,95.5,466.1,50.2,55.2-16.5,110.8-16,163.5-10,81.5,9.2,161.7,35.2,216.2,5.3,83.2-45.5,112.6,16.3,115.8,12.5"/><path class="cls-1" d="M1362.8,936.1c22,88.6,315.4,97.9,467.8,52.5,55.3-16.5,111.2-15.9,164.2-10,82.5,9.1,163,34.1,217.6,3.2,83.9-47.6,113.3,15.8,116.1,12.5"/><path class="cls-1" d="M1359.7,936.3c19.5,88.6,316.6,100.4,469.6,55,55.6-16.5,111.6-15.7,164.8-10,83.7,9.1,164.2,33.1,218.9,1.1,84.5-49.6,114,15.3,116.4,12.5"/><path class="cls-1" d="M1356.4,936.4c17,88.5,317.6,102.9,471.2,57.4,55.8-16.5,112.1-15.6,165.5-9.9,84.7,9,165.5,32,220.2-1.1,85.2-51.7,114.7,14.7,116.7,12.5"/><path class="cls-1" d="M1353.2,936.5c14.5,88.4,318.7,105.3,472.9,59.9,56-16.5,112.5-15.4,166.1-9.9,85.8,8.9,166.7,31,221.4-3.3,85.8-53.8,115.4,14.3,117,12.4"/><path class="cls-1" d="M1350.1,936.6c12,88.3,319.8,107.8,474.7,62.3,56.2-16.5,113-15.3,166.7-9.9,86.9,8.9,168,30,222.7-5.5,86.5-55.9,116,13.8,117.2,12.4"/><path class="cls-1" d="M1346.9,936.7c9.5,88.3,320.9,110.2,476.3,64.7,56.5-16.5,113.5-15.3,167.4-9.8,88,8.6,169.2,28.9,224-7.6,87.1-58,116.7,13.2,117.5,12.3"/><path class="cls-1" d="M1343.8,936.8c6.9,88.2,322,112.7,478.1,67.2,56.6-16.6,113.9-15.1,168-9.8,89.1,8.6,170.4,27.9,225.4-9.8,87.7-60.2,117.4,12.7,117.9,12.3"/><path class="cls-1" d="M1340.5,936.9c4.5,88.1,323.1,115.1,479.7,69.5,151.3-44,307.1,40.5,395.4-21.7s118.1,12.2,118.1,12.2"/><rect class="cls-2" width="919.2" height="1107.1"/><polygon class="cls-3" points="1667.7 1107.1 2399 1107.1 2399 0 1667.7 0 1667.7 1107.1"/></svg>