<svg width="643" height="412" viewBox="0 0 643 412" fill="none" xmlns="http://www.w3.org/2000/svg">
<rect x="5" y="5" width="632.939" height="402" fill="#23C865" stroke="#23C865" stroke-width="10"/>
<path d="M137.849 124.016C125.865 124.016 115.001 121.44 105.257 116.288C95.6248 111.024 88.0088 103.8 82.4088 94.616C76.9208 85.32 74.1768 74.848 74.1768 63.2C74.1768 51.552 76.9208 41.136 82.4088 31.952C88.0088 22.656 95.6248 15.432 105.257 10.28C115.001 5.016 125.921 2.384 138.017 2.384C148.209 2.384 157.393 4.176 165.569 7.76C173.857 11.344 180.801 16.496 186.401 23.216L168.929 39.344C160.977 30.16 151.121 25.568 139.361 25.568C132.081 25.568 125.585 27.192 119.873 30.44C114.161 33.576 109.681 38 106.433 43.712C103.297 49.424 101.729 55.92 101.729 63.2C101.729 70.48 103.297 76.976 106.433 82.688C109.681 88.4 114.161 92.88 119.873 96.128C125.585 99.264 132.081 100.832 139.361 100.832C151.121 100.832 160.977 96.184 168.929 86.888L186.401 103.016C180.801 109.848 173.857 115.056 165.569 118.64C157.281 122.224 148.041 124.016 137.849 124.016Z" fill="white"/>
</svg>
