<svg width="643" height="412" viewBox="0 0 643 412" fill="none" xmlns="http://www.w3.org/2000/svg">
<rect width="642.939" height="412" fill="black"/>
<path d="M80.5595 294.4H133.983C146.751 294.4 158.007 296.864 167.751 301.792C177.607 306.608 185.223 313.44 190.599 322.288C196.087 331.136 198.831 341.44 198.831 353.2C198.831 364.96 196.087 375.264 190.599 384.112C185.223 392.96 177.607 399.848 167.751 404.776C158.007 409.592 146.751 412 133.983 412H80.5595V294.4ZM132.639 389.656C144.399 389.656 153.751 386.408 160.695 379.912C167.751 373.304 171.279 364.4 171.279 353.2C171.279 342 167.751 333.152 160.695 326.656C153.751 320.048 144.399 316.744 132.639 316.744H107.775V389.656H132.639Z" fill="white"/>
</svg>
