<svg width="643" height="386" viewBox="0 0 643 386" fill="none" xmlns="http://www.w3.org/2000/svg">
<rect width="642.939" height="382.431" fill="black" fill-opacity="0.55"/>
<path d="M544.85 369.677V385.517H481.37V372.917L513.77 342.317C517.21 339.037 519.53 336.237 520.73 333.917C521.93 331.517 522.53 329.157 522.53 326.837C522.53 323.477 521.37 320.917 519.05 319.157C516.81 317.317 513.49 316.397 509.09 316.397C505.41 316.397 502.09 317.117 499.13 318.557C496.17 319.917 493.69 321.997 491.69 324.797L477.53 315.677C480.81 310.797 485.33 306.997 491.09 304.277C496.85 301.477 503.45 300.077 510.89 300.077C517.13 300.077 522.57 301.117 527.21 303.197C531.93 305.197 535.57 308.077 538.13 311.837C540.77 315.517 542.09 319.877 542.09 324.917C542.09 329.477 541.13 333.757 539.21 337.757C537.29 341.757 533.57 346.317 528.05 351.437L508.73 369.677H544.85Z" fill="white"/>
</svg>
