<svg width="642" height="386" viewBox="0 0 642 386" fill="none" xmlns="http://www.w3.org/2000/svg">
<rect x="-1" y="3.56934" width="642.939" height="382.431" fill="black" fill-opacity="0.75"/>
<path d="M77.2369 34.8267C84.5969 36.0267 90.2369 38.7867 94.1569 43.1067C98.0769 47.3467 100.037 52.6267 100.037 58.9467C100.037 63.8267 98.7569 68.3467 96.1969 72.5067C93.6369 76.5867 89.7169 79.8667 84.4369 82.3467C79.2369 84.8267 72.8369 86.0667 65.2369 86.0667C59.3169 86.0667 53.4769 85.3067 47.7169 83.7867C42.0369 82.1867 37.1969 79.9467 33.1969 77.0667L40.7569 62.1867C43.9569 64.5867 47.6369 66.4667 51.7969 67.8267C56.0369 69.1067 60.3569 69.7467 64.7569 69.7467C69.6369 69.7467 73.4769 68.8267 76.2769 66.9867C79.0769 65.0667 80.4769 62.3867 80.4769 58.9467C80.4769 52.0667 75.2369 48.6267 64.7569 48.6267H55.8769V35.7867L73.1569 16.2267H37.3969V0.626703H96.1969V13.2267L77.2369 34.8267Z" fill="white"/>
</svg>
