<svg width="360" height="231" viewBox="0 0 360 231" fill="none" xmlns="http://www.w3.org/2000/svg">
<rect width="360" height="231" fill="#737373"/>
<path d="M337.976 224.664V231H312.584V225.96L325.544 213.72C326.92 212.408 327.848 211.288 328.328 210.36C328.808 209.4 329.048 208.456 329.048 207.528C329.048 206.184 328.584 205.16 327.656 204.456C326.76 203.72 325.432 203.352 323.672 203.352C322.2 203.352 320.872 203.64 319.688 204.216C318.504 204.76 317.512 205.592 316.712 206.712L311.048 203.064C312.36 201.112 314.168 199.592 316.472 198.504C318.776 197.384 321.416 196.824 324.392 196.824C326.888 196.824 329.064 197.24 330.92 198.072C332.808 198.872 334.264 200.024 335.288 201.528C336.344 203 336.872 204.744 336.872 206.76C336.872 208.584 336.488 210.296 335.72 211.896C334.952 213.496 333.464 215.32 331.256 217.368L323.528 224.664H337.976Z" fill="white"/>
</svg>
