<svg width="360" height="232" viewBox="0 0 360 232" fill="none" xmlns="http://www.w3.org/2000/svg">
<rect width="360" height="231" fill="#404040"/>
<path d="M328.568 211.08C331.512 211.56 333.768 212.664 335.336 214.392C336.904 216.088 337.688 218.2 337.688 220.728C337.688 222.68 337.176 224.488 336.152 226.152C335.128 227.784 333.56 229.096 331.448 230.088C329.368 231.08 326.808 231.576 323.768 231.576C321.4 231.576 319.064 231.272 316.76 230.664C314.488 230.024 312.552 229.128 310.952 227.976L313.976 222.024C315.256 222.984 316.728 223.736 318.392 224.28C320.088 224.792 321.816 225.048 323.576 225.048C325.528 225.048 327.064 224.68 328.184 223.944C329.304 223.176 329.864 222.104 329.864 220.728C329.864 217.976 327.768 216.6 323.576 216.6H320.024V211.464L326.936 203.64H312.632V197.4H336.152V202.44L328.568 211.08Z" fill="white"/>
</svg>
