<svg width="360" height="199" viewBox="0 0 360 199" fill="none" xmlns="http://www.w3.org/2000/svg">
<g clip-path="url(#clip0_3_499)">
<rect width="360" height="199" fill="black"/>
<path d="M258.43 155.738C258.217 147.219 300.323 146.124 300.202 155.738C300.08 166.508 263.298 167.329 248.512 155.19" stroke="white" stroke-width="0.304235" stroke-miterlimit="10"/>
<path d="M260.681 154.947C260.681 150.322 277.719 147.889 289.371 149.653C294.36 150.414 298.285 152.087 298.68 154.764C299.41 159.723 291.683 162.431 281.278 163.161C270.812 163.891 256.057 161.397 248.999 155.251" stroke="white" stroke-width="0.304235" stroke-miterlimit="10"/>
<path d="M262.933 154.125C263.085 150.87 276.502 148.284 287.515 149.379C292.231 149.835 296.338 151.296 297.159 153.729C298.68 158.263 292.352 160.818 282.617 162.187C272.76 163.587 256.209 161.396 249.547 155.22" stroke="white" stroke-width="0.304235" stroke-miterlimit="10"/>
<path d="M265.214 153.334C265.519 151.448 275.315 148.74 285.689 149.136C290.131 149.318 294.421 150.505 295.668 152.756C297.981 156.863 293.022 159.267 283.955 161.305C274.707 163.374 256.361 161.518 250.094 155.312" stroke="white" stroke-width="0.304235" stroke-miterlimit="10"/>
<path d="M267.466 152.543C267.922 152.026 274.068 148.588 283.834 148.893C287.971 149.014 292.444 149.714 294.178 151.752C297.22 155.403 293.661 157.685 285.294 160.362C276.593 163.131 256.544 161.579 250.642 155.312" stroke="white" stroke-width="0.304235" stroke-miterlimit="10"/>
<path d="M269.717 151.722C270.326 152.574 272.82 149.592 281.948 148.619C285.811 148.223 290.466 148.892 292.626 150.748C296.429 153.973 294.239 156.164 286.572 159.449C278.388 162.948 256.635 161.64 251.129 155.342" stroke="white" stroke-width="0.304235" stroke-miterlimit="10"/>
<path d="M271.969 150.931C272.729 153.152 271.573 150.049 280.092 148.375C283.651 147.676 288.458 148.132 291.105 149.744C295.608 152.543 294.847 154.673 287.88 158.506C280.183 162.766 256.787 161.701 251.646 155.342" stroke="white" stroke-width="0.304235" stroke-miterlimit="10"/>
<path d="M274.22 150.14C275.133 153.73 270.295 150.505 278.236 148.132C281.521 147.158 286.48 147.371 289.584 148.771C294.817 151.174 295.425 153.243 289.219 157.594C282.039 162.644 256.939 161.792 252.193 155.403" stroke="white" stroke-width="0.304235" stroke-miterlimit="10"/>
<path d="M276.471 149.318C277.536 154.277 269.017 150.961 276.38 147.858C279.361 146.61 284.503 146.55 288.063 147.767C294.026 149.775 296.034 151.843 290.527 156.681C283.834 162.552 257.091 161.853 252.71 155.433" stroke="white" stroke-width="0.304235" stroke-miterlimit="10"/>
<path d="M278.723 148.527C279.94 154.855 267.709 151.448 274.494 147.615C277.171 146.093 282.495 145.82 286.511 146.763C293.204 148.375 296.642 150.444 291.805 155.738C285.659 162.492 257.183 161.914 253.197 155.433" stroke="white" stroke-width="0.304235" stroke-miterlimit="10"/>
<path d="M280.974 147.736C282.373 155.403 266.431 151.995 272.638 147.371C275.011 145.606 280.518 145.059 284.99 145.789C292.413 147.006 297.281 149.136 293.113 154.855C287.515 162.522 257.304 162.005 253.714 155.494" stroke="white" stroke-width="0.304235" stroke-miterlimit="10"/>
<path d="M283.225 146.915C284.777 155.951 265.154 152.513 270.782 147.098C272.851 145.12 278.54 144.268 283.469 144.785C291.622 145.637 297.981 147.797 294.421 153.912C289.432 162.522 257.457 162.066 254.232 155.494" stroke="white" stroke-width="0.304235" stroke-miterlimit="10"/>
<path d="M285.476 146.124C287.18 156.529 263.906 153.122 268.926 146.854C270.691 144.634 276.562 143.508 281.947 143.782C290.831 144.238 298.68 146.489 295.729 153C291.409 162.553 257.578 162.157 254.749 155.556" stroke="white" stroke-width="0.304235" stroke-miterlimit="10"/>
<path d="M287.758 145.333C289.614 157.107 262.72 153.7 267.101 146.611C268.622 144.147 274.615 142.656 280.487 142.808C290.131 143.082 299.502 145.181 297.129 152.087C293.508 162.583 257.821 162.218 255.357 155.586" stroke="white" stroke-width="0.304235" stroke-miterlimit="10"/>
<path d="M290.01 144.511C292.018 157.654 261.564 154.247 265.245 146.337C266.492 143.659 272.638 141.986 278.966 141.773C289.34 141.469 300.262 143.781 298.437 151.144C295.577 162.552 257.943 162.279 255.875 155.585" stroke="white" stroke-width="0.304235" stroke-miterlimit="10"/>
<path d="M292.261 143.721C294.421 158.233 260.408 154.825 263.359 146.094C264.332 143.173 270.66 141.226 277.414 140.8C288.519 140.1 301.023 142.443 299.715 150.231C297.646 162.553 258.065 162.37 256.361 155.616" stroke="white" stroke-width="0.304235" stroke-miterlimit="10"/>
<path d="M294.512 142.929C296.824 158.81 259.282 155.403 261.503 145.85C262.233 142.686 268.683 140.465 275.893 139.826C287.758 138.761 301.814 141.073 301.023 149.349C299.745 162.552 258.187 162.461 256.878 155.677" stroke="white" stroke-width="0.304235" stroke-miterlimit="10"/>
<path d="M296.764 142.108C299.228 159.328 258.156 155.92 259.647 145.576C260.134 142.169 266.705 139.674 274.372 138.792C286.967 137.331 302.635 139.644 302.331 148.375C301.875 162.431 258.339 162.492 257.396 155.677" stroke="white" stroke-width="0.304235" stroke-miterlimit="10"/>
<path d="M299.015 141.317C301.631 159.906 257.031 156.468 257.791 145.333C258.035 141.682 264.728 138.944 272.851 137.819C286.207 135.993 303.426 138.244 303.67 147.493C304.035 162.37 258.491 162.614 257.943 155.738" stroke="white" stroke-width="0.304235" stroke-miterlimit="10"/>
<path d="M301.266 140.526C304.035 160.484 255.905 156.955 255.905 145.09C255.905 134.715 303.761 130.852 304.948 146.581C306.134 162.31 258.582 162.675 258.43 155.768" stroke="white" stroke-width="0.304235" stroke-miterlimit="10"/>
<path d="M335.554 44.6924C337.775 51.5985 338.444 58.6263 337.379 65.0761C333.12 90.8448 307.382 100.672 307.412 125.832C307.412 138.397 297.068 145.698 281.126 145.181C264.241 144.664 251.95 141.317 254.14 132.495C256.787 121.968 307.473 117.374 307.321 136.176C307.29 139.857 306.165 144.238 297.585 150.779" stroke="white" stroke-width="0.304235" stroke-miterlimit="10"/>
<path d="M296.855 150.505C305.282 144.086 306.408 139.765 306.408 136.145C306.53 117.648 256.757 122.12 254.14 132.433C252.011 140.8 263.815 143.933 280.213 144.177C286.328 144.268 291.592 143.112 295.79 140.922C302.179 137.575 305.952 131.855 306.043 124.219C306.195 108.612 316.235 98.8458 325.057 87.7717C330.473 80.9873 335.28 73.716 337.044 64.2543C338.2 58.0175 337.683 51.2635 335.523 44.6616" stroke="white" stroke-width="0.304235" stroke-miterlimit="10"/>
<path d="M296.125 150.262C304.4 143.933 305.495 139.674 305.495 136.115C305.586 117.891 256.757 122.241 254.14 132.373C252.102 140.283 263.389 143.173 279.331 143.173C285.264 143.142 290.375 141.865 294.482 139.583C300.719 136.084 304.491 130.334 304.674 122.667C304.978 107.03 315.17 97.2334 324.266 86.3418C329.834 79.679 334.763 72.6208 336.71 63.4633C337.987 57.4699 337.562 50.9897 335.523 44.6616" stroke="white" stroke-width="0.304235" stroke-miterlimit="10"/>
<path d="M295.395 150.049C303.518 143.843 304.583 139.644 304.583 136.145C304.674 118.226 256.757 122.455 254.14 132.373C252.193 139.796 262.963 142.534 278.449 142.2C284.199 142.078 289.158 140.678 293.204 138.245C299.289 134.594 303.061 128.783 303.335 121.116C303.792 105.479 314.136 95.6213 323.506 84.9427C329.256 78.4016 334.276 71.5563 336.406 62.7031C337.775 56.9226 337.501 50.7467 335.554 44.6924" stroke="white" stroke-width="0.304235" stroke-miterlimit="10"/>
<path d="M294.664 149.805C302.635 143.72 303.67 139.583 303.67 136.115C303.731 118.469 256.757 122.576 254.14 132.312C252.254 139.279 262.537 141.804 277.566 141.195C283.164 140.982 287.941 139.431 291.896 136.906C297.859 133.133 301.631 127.231 301.966 119.534C302.635 103.866 313.071 93.9781 322.715 83.482C328.617 77.0626 333.789 70.3999 336.04 61.8813C337.535 56.2102 337.345 50.2263 335.493 44.6616" stroke="white" stroke-width="0.304235" stroke-miterlimit="10"/>
<path d="M293.934 149.562C301.753 143.569 302.757 139.522 302.757 136.115C302.818 118.774 256.757 122.759 254.14 132.282C252.345 138.792 262.111 141.104 276.684 140.222C281.662 139.974 286.479 138.375 290.618 135.598C296.429 131.673 300.202 125.741 300.627 118.013C301.449 102.345 312.036 92.3964 321.954 82.0828C328.039 75.7548 333.302 69.3354 335.736 61.1515C337.355 55.7731 337.281 50.0271 335.523 44.6924" stroke="white" stroke-width="0.304235" stroke-miterlimit="10"/>
<path d="M293.204 149.319C300.871 143.416 301.844 139.431 301.844 136.084C301.875 119.017 256.787 122.911 254.14 132.221C252.437 138.244 261.685 140.374 275.802 139.218C280.679 138.833 285.354 137.106 289.31 134.229C294.969 130.152 298.772 124.158 299.258 116.4C300.262 100.732 310.972 90.7229 321.163 80.5919C327.431 74.3855 332.785 68.1791 335.402 60.2994C337.13 55.2263 337.172 49.7307 335.523 44.6313" stroke="white" stroke-width="0.304235" stroke-miterlimit="10"/>
<path d="M292.474 149.106C299.989 143.325 300.932 139.401 300.932 136.115C300.932 119.352 256.818 123.124 254.14 132.221C252.528 137.788 261.259 139.705 274.92 138.245C279.701 137.724 284.241 135.88 288.032 132.92C293.569 128.722 297.342 122.668 297.92 114.879C299.076 99.1808 309.937 89.1411 320.433 79.223C326.883 73.1383 332.329 67.1145 335.097 59.5695C336.892 54.6713 337.136 49.6514 335.554 44.6924" stroke="white" stroke-width="0.304235" stroke-miterlimit="10"/>
<path d="M291.744 148.862C299.106 143.173 300.019 139.34 300.019 136.085C300.019 119.595 256.848 123.276 254.14 132.16C252.589 137.271 260.833 138.975 274.007 137.241C278.875 136.602 283.012 134.533 286.724 131.582C292.109 127.231 295.881 121.116 296.551 113.328C297.889 97.6292 308.872 87.5286 319.642 77.7931C326.244 71.8301 331.811 66.0192 334.763 58.7785C336.649 54.1237 337.044 49.3472 335.523 44.6924" stroke="white" stroke-width="0.304235" stroke-miterlimit="10"/>
<path d="M291.014 148.619C298.224 143.051 299.137 139.248 299.106 136.084C299.076 119.868 256.879 123.458 254.141 132.129C252.68 136.784 260.438 138.275 273.125 136.267C277.84 135.506 281.796 133.346 285.416 130.243C290.649 125.771 294.421 119.564 295.182 111.745C296.703 96.0165 307.808 85.8854 318.851 76.3325C325.636 70.4912 331.325 64.8628 334.428 57.9567C336.436 53.5149 336.953 49.0426 335.523 44.6616" stroke="white" stroke-width="0.304235" stroke-miterlimit="10"/>
<path d="M290.283 148.375C297.342 142.899 298.224 139.187 298.194 136.054C298.163 120.142 256.939 123.611 254.171 132.068C252.802 136.267 260.042 137.545 272.273 135.232C276.806 134.38 280.609 132.068 284.138 128.874C289.219 124.249 293.022 118.013 293.843 110.163C295.516 94.4344 306.773 84.2426 318.09 74.8721C325.027 69.1525 330.838 63.7371 334.093 57.1657C336.192 52.9368 336.831 48.7688 335.523 44.6616" stroke="white" stroke-width="0.304235" stroke-miterlimit="10"/>
<path d="M289.553 148.163C296.459 142.808 297.311 139.157 297.281 136.085C297.22 120.447 257.031 123.854 254.171 132.069C252.863 135.811 259.617 136.906 271.39 134.29C275.741 133.316 279.392 130.913 282.86 127.566C287.819 122.82 291.592 116.492 292.504 108.612C294.33 92.8528 305.739 82.6305 317.33 73.473C324.449 67.8447 330.351 62.6422 333.789 56.4054C336.01 52.3895 336.771 48.4953 335.554 44.6924" stroke="white" stroke-width="0.304235" stroke-miterlimit="10"/>
<path d="M288.823 147.919C295.547 142.656 296.399 139.096 296.368 136.054C296.307 120.721 257.122 124.037 254.171 132.008C252.954 135.294 259.221 136.176 270.508 133.286C274.676 132.221 278.175 129.696 281.582 126.227C286.389 121.36 290.162 114.971 291.166 107.061C293.174 91.3012 304.704 81.018 316.569 72.0431C323.871 66.5364 329.895 61.5166 333.485 55.6144C335.827 51.7811 336.71 48.2215 335.554 44.6924" stroke="white" stroke-width="0.304235" stroke-miterlimit="10"/>
<path d="M288.093 147.676C294.664 142.534 295.486 139.005 295.455 136.054C295.364 120.994 257.274 124.25 254.171 131.977C253.015 134.807 258.795 135.476 269.626 132.312C273.642 131.125 276.928 128.479 280.274 124.919C284.929 119.93 288.701 113.449 289.797 105.509C291.957 89.7191 303.639 79.4056 315.778 70.6132C323.262 65.2282 329.378 60.3909 333.12 54.8234C335.554 51.203 336.588 47.9477 335.523 44.6924" stroke="white" stroke-width="0.304235" stroke-miterlimit="10"/>
<path d="M287.363 147.432C293.782 142.382 294.573 138.944 294.543 136.023C294.452 121.268 257.487 124.493 254.171 131.916C253.106 134.319 258.369 134.745 268.744 131.277C272.577 129.999 275.711 127.231 278.996 123.519C283.499 118.408 287.272 111.867 288.458 103.896C290.801 88.1062 302.605 77.7318 315.048 69.1219C322.685 63.8586 328.952 59.2039 332.846 53.971C335.402 50.5636 336.558 47.6125 335.584 44.6006" stroke="white" stroke-width="0.304235" stroke-miterlimit="10"/>
<path d="M286.633 147.219C292.9 142.291 293.66 138.914 293.63 136.054C293.508 121.572 256.118 124.219 254.171 131.916C252.771 133.62 257.974 134.076 267.861 130.334C271.512 128.965 274.494 126.075 277.688 122.241C282.069 117.009 285.842 110.376 287.089 102.375C289.584 86.5548 301.54 76.1499 314.257 67.7226C322.076 62.5811 328.434 58.1088 332.511 53.241C335.188 50.0466 336.436 47.3693 335.554 44.6616" stroke="white" stroke-width="0.304235" stroke-miterlimit="10"/>
<path d="M285.902 146.976C292.018 142.138 292.748 138.822 292.717 136.023C292.596 121.816 256.087 124.341 254.171 131.855C252.832 133.072 257.548 133.346 266.949 129.33C270.417 127.839 273.246 124.858 276.38 120.872C280.609 115.518 284.381 108.794 285.72 100.793C288.397 84.9727 300.475 74.5071 313.466 66.2927C321.467 61.2728 327.948 56.9527 332.146 52.45C334.945 49.4381 336.314 47.0955 335.523 44.6616" stroke="white" stroke-width="0.304235" stroke-miterlimit="10"/>
<path d="M285.172 146.733C291.135 142.017 291.835 138.762 291.805 136.024C291.653 122.12 256.027 124.493 254.171 131.825C252.863 132.586 257.152 132.647 266.066 128.357C269.383 126.775 272.029 123.641 275.072 119.565C279.179 114.088 282.921 107.304 284.351 99.2721C287.18 83.4519 299.411 72.9254 312.675 64.8936C320.829 59.9954 327.461 55.8578 331.812 51.6898C334.732 48.8908 336.223 46.8525 335.523 44.6924" stroke="white" stroke-width="0.304235" stroke-miterlimit="10"/>
<path d="M284.442 146.489C290.253 141.865 290.922 138.701 290.892 135.993C290.709 122.363 255.996 124.645 254.171 131.764C252.923 132.038 256.726 131.916 265.184 127.322C268.318 125.619 270.812 122.394 273.794 118.195C277.749 112.597 281.491 105.722 283.012 97.6595C285.994 81.8088 298.376 71.2519 311.915 63.4026C320.251 58.5957 327.035 54.6711 331.507 50.8377C334.55 48.2213 336.132 46.4872 335.554 44.6313" stroke="white" stroke-width="0.304235" stroke-miterlimit="10"/>
<path d="M283.712 146.276C289.371 141.774 290.01 138.67 289.979 136.024C289.766 122.698 255.935 124.828 254.171 131.764C252.984 131.582 256.331 131.247 264.302 126.379C267.283 124.554 269.596 121.238 272.486 116.887C276.319 111.168 280.031 104.231 281.643 96.1383C284.807 80.2877 297.342 69.6699 311.154 62.0336C319.673 57.3484 326.579 53.6063 331.173 50.138C334.337 47.7346 336.04 46.3047 335.523 44.7227" stroke="white" stroke-width="0.304235" stroke-miterlimit="10"/>
<path d="M282.982 146.033C288.458 141.622 289.097 138.579 289.066 135.993C288.823 122.942 255.905 124.95 254.171 131.704C253.045 131.034 255.935 130.487 263.419 125.375C266.218 123.459 268.379 120.021 271.208 115.549C274.889 109.707 278.601 102.68 280.304 94.5565C283.621 78.6754 296.307 68.0272 310.393 60.5734C319.064 56.0099 326.153 52.4504 330.868 49.3168C334.185 47.1263 335.979 46.0006 335.554 44.6924" stroke="white" stroke-width="0.304235" stroke-miterlimit="10"/>
<path d="M282.252 145.79C287.576 141.5 288.184 138.518 288.154 135.993C287.91 123.246 255.875 125.102 254.201 131.673C253.106 130.517 255.54 129.787 262.568 124.371C265.184 122.333 267.192 118.804 269.93 114.21C273.49 108.277 277.201 101.128 278.966 93.0049C282.465 77.1238 295.273 66.4147 309.633 59.1435C318.486 54.7017 325.727 51.3247 330.564 48.5257C334.002 46.5178 335.919 45.7268 335.584 44.6924" stroke="white" stroke-width="0.304235" stroke-miterlimit="10"/>
<path d="M281.521 145.546C286.693 141.348 287.302 138.457 287.241 135.963C286.967 123.489 255.814 125.223 254.201 131.612C253.167 130 255.144 129.057 261.685 123.367C264.15 121.238 265.975 117.587 268.652 112.841C272.09 106.787 275.771 99.5762 277.627 91.3922C281.278 75.4808 294.238 64.7413 308.872 57.6526C317.908 53.3325 325.301 50.138 330.229 47.6737C333.819 45.8787 335.797 45.3615 335.554 44.6313" stroke="white" stroke-width="0.304235" stroke-miterlimit="10"/>
<path d="M280.791 145.333C285.811 141.256 286.389 138.396 286.328 135.993C286.024 123.824 255.783 125.436 254.201 131.612C253.228 129.513 254.749 128.357 260.773 122.424C263.054 120.173 264.728 116.431 267.314 111.563C270.599 105.387 274.281 98.0853 276.228 89.9014C280.031 73.9899 293.143 63.1591 308.081 56.3139C317.269 52.1154 324.875 49.1035 329.895 47.0043C333.637 45.4222 335.706 45.2093 335.554 44.7529" stroke="white" stroke-width="0.304235" stroke-miterlimit="10"/>
<path d="M280.061 145.09C284.929 141.104 285.477 138.336 285.416 135.962C285.112 124.067 255.722 125.558 254.201 131.551C253.289 128.996 254.323 127.596 259.89 121.42C262.02 119.047 263.511 115.214 266.036 110.194C269.2 103.896 272.851 96.5337 274.92 88.2889C278.905 72.347 292.139 61.4858 307.321 54.8231C316.691 50.7159 324.449 47.9474 329.56 46.1524C333.454 44.7833 335.615 44.8746 335.554 44.6616" stroke="white" stroke-width="0.304235" stroke-miterlimit="10"/>
<path d="M279.331 144.846C284.047 140.982 284.564 138.275 284.503 135.962C284.168 124.341 255.692 125.71 254.201 131.521C253.349 128.478 253.927 126.866 259.008 120.416C260.955 117.952 262.294 113.997 264.728 108.855C267.77 102.466 271.391 94.982 273.52 86.7372C277.658 70.7953 291.044 59.8733 306.53 53.3931C313.931 50.2734 321.509 47.5915 329.226 45.3613C333.272 44.2052 335.523 44.6007 335.554 44.6615" stroke="white" stroke-width="0.304235" stroke-miterlimit="10"/>
<path d="M278.601 144.633C283.164 140.861 283.651 138.244 283.59 135.963C283.256 124.645 255.631 125.862 254.201 131.49C253.38 127.992 253.532 126.166 258.126 119.443C259.89 116.857 261.077 112.81 263.45 107.547C266.371 101.036 269.961 93.4914 272.212 85.2162C276.502 69.2439 290.04 58.2914 305.799 51.9937C315.504 48.1299 323.628 45.7873 328.952 44.6008C333.15 43.6881 335.462 44.327 335.584 44.6921" stroke="white" stroke-width="0.304235" stroke-miterlimit="10"/>
<path d="M277.871 144.39C282.282 140.739 282.739 138.153 282.678 135.963C282.313 124.919 255.601 126.045 254.201 131.46C253.441 127.474 253.106 125.436 257.244 118.469C258.856 115.761 259.891 111.624 262.142 106.208C264.91 99.5761 268.5 91.9398 270.843 83.6342C275.315 67.6619 288.975 56.6486 305.009 50.5334C314.896 46.7913 323.171 44.6617 328.587 43.7794C332.937 43.0797 335.341 44.0228 335.554 44.6617" stroke="white" stroke-width="0.304235" stroke-miterlimit="10"/>
<path d="M277.141 144.146C281.4 140.587 281.826 138.092 281.765 135.932C281.4 125.192 255.57 126.166 254.201 131.399C253.502 126.926 252.68 124.675 256.361 117.434C257.791 114.605 258.674 110.376 260.864 104.839C263.511 98.1154 267.07 90.3879 269.474 82.0518C274.098 66.0491 287.911 55.0053 304.218 49.1032C314.257 45.4828 322.745 42.3492 328.252 43.0185C332.755 43.5661 335.249 43.7791 335.554 44.6918" stroke="white" stroke-width="0.304235" stroke-miterlimit="10"/>
<path d="M276.41 143.903C280.518 140.465 280.913 138.031 280.852 135.932C280.457 125.466 255.509 126.318 254.201 131.369C253.562 126.44 252.285 123.945 255.479 116.461C256.726 113.51 257.457 109.19 259.556 103.531C262.081 96.6858 265.64 88.867 268.135 80.5005C272.912 64.4978 286.876 53.3932 303.457 47.6736C313.679 44.1749 322.38 41.3151 327.948 42.2278C332.542 42.9884 335.189 43.4751 335.554 44.6921" stroke="white" stroke-width="0.304235" stroke-miterlimit="10"/>
<path d="M275.68 143.69C279.635 140.343 280 137.97 279.94 135.932C279.544 125.771 255.479 126.47 254.201 131.338C253.593 125.923 251.859 123.185 254.566 115.487C255.662 112.415 256.24 108.034 258.248 102.192C260.651 95.2253 264.18 87.3152 266.766 78.9488C271.695 62.946 285.811 51.7806 302.666 46.2435C313.071 42.8665 321.985 40.2805 327.583 41.4366C332.268 42.4102 335.067 43.2012 335.523 44.6919" stroke="white" stroke-width="0.304235" stroke-miterlimit="10"/>
<path d="M274.95 143.447C278.723 140.222 279.088 137.91 279.027 135.932C278.601 126.045 255.418 126.623 254.201 131.308C253.654 125.406 251.433 122.455 253.684 114.514C254.597 111.32 255.023 106.848 256.97 100.885C259.252 93.8263 262.75 85.8249 265.428 77.428C270.539 61.3949 284.777 50.199 301.936 44.8445C312.493 41.5588 321.65 39.277 327.309 40.6765C332.116 41.863 335.006 42.9582 335.584 44.7228" stroke="white" stroke-width="0.304235" stroke-miterlimit="10"/>
<path d="M274.22 143.203C277.84 140.07 278.175 137.849 278.114 135.902C277.658 126.318 255.388 126.744 254.201 131.247C253.714 124.888 251.007 121.694 252.802 113.48C253.532 110.163 253.806 105.6 255.662 99.4847C257.822 92.3048 261.29 84.2122 264.058 75.7849C269.322 59.7213 283.712 48.495 301.145 43.3534C311.884 40.1894 321.042 39.2462 326.974 39.8243C332.055 40.3415 334.915 42.6233 335.584 44.6616" stroke="white" stroke-width="0.304235" stroke-miterlimit="10"/>
<path d="M273.49 142.96C276.958 139.918 277.293 137.788 277.201 135.902C276.745 126.592 255.357 126.927 254.232 131.217C253.806 124.371 250.611 120.964 251.95 112.506C252.497 109.068 252.65 104.413 254.384 98.1766C256.453 90.9054 259.86 82.7215 262.72 74.2638C268.135 58.2002 282.678 46.9131 300.384 41.954C311.306 38.9117 320.616 38.212 326.639 39.0942C331.872 39.8548 334.823 42.38 335.554 44.7226" stroke="white" stroke-width="0.304235" stroke-miterlimit="10"/>
<path d="M272.759 142.717C276.076 139.796 276.38 137.697 276.289 135.872C275.802 126.836 255.296 127.049 254.232 131.156C253.836 123.854 250.155 120.204 251.068 111.502C251.433 107.973 251.433 103.197 253.106 96.8384C255.053 89.4455 258.43 81.1703 261.381 72.6821C266.949 56.6185 281.643 45.2706 299.623 40.4941C310.698 37.5734 320.159 37.1171 326.335 38.2732C331.69 39.2771 334.763 42.0761 335.584 44.6925" stroke="white" stroke-width="0.304235" stroke-miterlimit="10"/>
<path d="M272.029 142.504C275.193 139.674 275.467 137.666 275.376 135.902C274.889 127.17 255.266 127.231 254.232 131.156C253.897 123.367 249.729 119.503 250.185 110.528C250.368 106.878 250.246 102.01 251.828 95.4992C253.654 87.9846 257 79.6182 260.043 71.13C265.762 55.036 280.609 43.6576 298.863 39.0637C310.12 36.2647 319.733 36.0518 326.031 37.4817C331.538 38.7595 334.671 41.8018 335.615 44.6616" stroke="white" stroke-width="0.304235" stroke-miterlimit="10"/>
<path d="M271.299 142.26C274.311 139.553 274.555 137.605 274.433 135.871C273.916 127.414 255.175 127.353 254.201 131.095C253.927 122.82 249.273 118.773 249.242 109.525C249.242 105.752 248.968 100.793 250.459 94.1607C252.163 86.5548 255.479 78.0971 258.613 69.5481C264.515 53.4541 279.483 42.0149 298.011 37.6339C309.45 34.9566 319.216 34.987 325.605 36.6907C331.233 38.2119 334.489 41.5281 335.523 44.6617" stroke="white" stroke-width="0.304235" stroke-miterlimit="10"/>
<path d="M270.569 142.017C273.429 139.4 273.642 137.514 273.52 135.871C272.973 127.718 255.144 127.505 254.201 131.064C253.988 122.333 248.816 118.043 248.36 108.551C248.177 104.657 247.782 99.6064 249.181 92.822C250.763 85.0944 254.049 76.5454 257.274 67.9964C263.328 51.872 278.449 40.4023 297.281 36.2039C308.872 33.6179 318.79 33.9221 325.331 35.9301C331.081 37.6946 334.458 41.2542 335.554 44.692" stroke="white" stroke-width="0.304235" stroke-miterlimit="10"/>
<path d="M269.839 141.773C272.547 139.279 272.729 137.453 272.608 135.841C272.06 127.961 255.084 127.626 254.201 131.003C254.019 121.785 248.39 117.282 247.478 107.547C247.113 103.561 246.595 98.3894 247.873 91.4832C249.334 83.634 252.589 75.0241 255.905 66.4143C262.111 50.2898 277.384 38.7593 296.49 34.7434C308.264 32.2791 318.334 32.8268 324.997 35.1085C330.869 37.1165 334.367 40.9498 335.554 44.6615" stroke="white" stroke-width="0.304235" stroke-miterlimit="10"/>
<path d="M269.109 141.561C271.664 139.157 271.816 137.423 271.695 135.871C271.117 128.296 255.053 127.84 254.201 131.004C254.08 121.329 247.934 116.583 246.595 106.574C246.048 102.466 245.378 97.2031 246.595 90.1753C247.964 82.2347 251.159 73.5032 254.566 64.8934C260.925 48.7385 276.35 37.1776 295.729 33.3442C307.686 31.0016 317.878 31.7926 324.662 34.3482C330.686 36.63 334.245 40.7067 335.554 44.6922" stroke="white" stroke-width="0.304235" stroke-miterlimit="10"/>
<path d="M268.379 141.317C270.752 139.035 270.904 137.362 270.782 135.841C270.204 128.539 255.023 127.961 254.201 130.943C254.14 120.781 247.508 115.853 245.713 105.57C244.983 101.341 244.192 95.9862 245.287 88.8062C246.534 80.744 249.699 71.9212 253.197 63.2809C259.708 47.0956 275.285 35.5043 294.938 31.8839C307.047 29.663 317.391 30.6974 324.327 33.5268C330.473 36.0519 334.154 40.4025 335.523 44.6618" stroke="white" stroke-width="0.304235" stroke-miterlimit="10"/>
<path d="M267.648 141.074C269.869 138.883 269.991 137.271 269.869 135.841C269.261 128.813 254.962 128.113 254.201 130.882C254.201 120.234 247.052 115.092 244.831 104.566C243.918 100.215 242.975 94.7693 244.009 87.4676C245.135 79.2837 248.269 70.4001 251.859 61.7294C258.521 45.5441 274.25 33.8919 294.178 30.454C306.469 28.3548 316.965 29.6022 323.993 32.7358C330.26 35.5043 334.063 40.0983 335.523 44.6618" stroke="white" stroke-width="0.304235" stroke-miterlimit="10"/>
<path d="M266.918 140.861C268.987 138.792 269.109 137.241 268.957 135.841C268.348 129.117 254.931 128.266 254.201 130.882C254.262 119.777 246.626 114.423 243.949 103.623C242.853 99.1807 241.788 93.6132 242.701 86.1595C243.736 77.8539 246.839 68.879 250.49 60.2083C257.335 43.9925 273.186 32.3099 293.387 29.0546C305.86 27.0771 316.478 28.5678 323.658 32.0057C330.047 35.048 333.972 39.8854 335.523 44.7227" stroke="white" stroke-width="0.304235" stroke-miterlimit="10"/>
<path d="M266.188 140.617C268.105 138.64 268.196 137.179 268.044 135.841C267.405 129.391 254.87 128.417 254.232 130.821C254.323 119.23 246.2 113.662 243.066 102.588C241.788 98.0244 240.602 92.3656 241.423 84.7902C242.336 76.3933 245.409 67.3271 249.151 58.5956C256.148 42.3799 272.151 30.6364 292.656 27.5636C305.282 25.6774 316.052 27.4419 323.384 31.1536C329.895 34.4393 333.911 39.5505 335.554 44.6616" stroke="white" stroke-width="0.304235" stroke-miterlimit="10"/>
<path d="M265.458 140.374C267.222 138.518 267.283 137.089 267.131 135.811C266.492 129.665 254.84 128.57 254.232 130.791C254.384 118.743 245.774 112.963 242.184 101.615C240.724 96.9295 239.385 91.1795 240.115 83.4823C240.906 74.9638 243.949 65.8063 247.782 57.0748C254.931 40.8286 271.086 29.0547 291.865 26.1949C304.674 24.4304 315.565 26.4383 323.019 30.4238C329.651 33.9529 333.789 39.3074 335.523 44.6924" stroke="white" stroke-width="0.304235" stroke-miterlimit="10"/>
<path d="M264.728 140.131C266.34 138.366 266.371 137.027 266.219 135.81C265.549 129.939 254.81 128.722 254.232 130.76C254.445 118.226 245.318 112.232 241.302 100.641C239.659 95.8644 238.199 89.9927 238.837 82.1435C239.537 73.5032 242.519 64.2544 246.443 55.4925C253.745 39.2463 270.052 27.4116 291.105 24.7343C304.096 23.0915 315.109 25.3428 322.715 29.6021C329.469 33.3746 333.728 39.003 335.554 44.6617" stroke="white" stroke-width="0.304235" stroke-miterlimit="10"/>
<path d="M263.997 139.917C265.458 138.274 265.458 136.997 265.306 135.841C264.636 130.273 254.749 128.904 254.232 130.729C254.505 117.708 244.892 111.532 240.419 99.6671C238.594 94.7689 237.012 88.8059 237.529 80.835C238.107 72.073 241.058 62.7634 245.074 53.971C252.528 37.6945 268.987 25.8293 290.314 23.3346C303.487 21.8134 314.622 24.3081 322.38 28.8716C329.225 32.918 333.637 38.7897 335.554 44.7223" stroke="white" stroke-width="0.304235" stroke-miterlimit="10"/>
<path d="M263.267 139.674C264.576 138.123 264.545 136.936 264.393 135.81C263.693 130.517 254.718 129.026 254.232 130.669C254.536 117.191 244.466 110.802 239.537 98.6329C236.986 92.5806 235.862 86.0225 236.251 79.4661C236.738 70.5824 239.628 61.1815 243.735 52.3587C251.341 36.0822 267.953 24.1562 289.553 21.844C302.879 20.4445 314.166 23.1522 322.046 28.0199C329.013 32.3097 333.515 38.4552 335.523 44.6616" stroke="white" stroke-width="0.304235" stroke-miterlimit="10"/>
<path d="M262.537 139.431C263.693 138.001 263.633 136.845 263.48 135.81C262.781 130.791 254.658 129.178 254.232 130.638C254.597 116.674 244.009 110.072 238.655 97.6594C235.911 91.5276 234.639 84.8386 234.943 78.1275C235.308 69.1222 238.168 59.6301 242.367 50.8073C250.155 34.5003 266.918 22.5438 288.793 20.4142C302.301 19.1364 313.71 22.0875 321.741 27.2291C328.83 31.7622 333.454 38.1511 335.554 44.6617" stroke="white" stroke-width="0.304235" stroke-miterlimit="10"/>
<path d="M261.807 139.187C262.811 137.849 262.72 136.784 262.568 135.78C261.838 131.064 254.627 129.33 254.232 130.578C254.658 116.126 243.584 109.342 237.773 96.6554C234.843 90.4542 233.434 83.6435 233.665 76.7888C233.909 67.6922 236.738 58.1088 241.028 49.2251C248.938 32.8877 265.884 20.9009 288.032 18.9842C301.723 17.8281 313.253 21.0226 321.437 26.438C328.648 31.2144 333.394 37.8772 335.584 44.6616" stroke="white" stroke-width="0.304235" stroke-miterlimit="10"/>
<path d="M261.077 138.975C261.929 137.758 261.807 136.754 261.655 135.811C260.925 131.369 254.566 129.513 254.232 130.578C254.718 115.67 243.158 108.673 236.89 95.682C233.756 89.4072 232.2 82.4626 232.357 75.4504C232.509 66.2321 235.278 56.5574 239.659 47.6738C247.752 31.3364 264.819 19.2887 287.241 17.5545C301.084 16.4897 312.766 19.9276 321.072 25.6472C328.404 30.667 333.242 37.6036 335.554 44.6618" stroke="white" stroke-width="0.304235" stroke-miterlimit="10"/>
<path d="M260.347 138.731C261.047 137.606 260.894 136.663 260.742 135.78C259.982 131.643 254.536 129.635 254.232 130.517C254.779 115.123 242.701 107.943 235.978 94.6782C232.673 88.3307 230.981 81.2678 231.049 74.112C231.079 64.772 233.818 55.0364 238.29 46.1224C246.535 29.7545 263.754 17.646 286.45 16.1248C300.475 15.1817 312.28 18.8629 320.737 24.8868C328.161 30.15 333.15 37.33 335.523 44.6925" stroke="white" stroke-width="0.304235" stroke-miterlimit="10"/>
<path d="M259.617 138.487C260.134 137.483 260.012 136.601 259.83 135.78C259.069 131.916 254.505 129.786 254.232 130.486C254.81 114.635 242.275 107.212 235.095 93.7039C231.601 87.2904 229.76 80.1068 229.741 72.803C229.649 63.3413 232.357 53.5145 236.921 44.57C245.318 28.2022 262.689 16.0328 285.659 14.6942C299.836 13.8727 311.762 17.7974 320.403 24.095C327.948 29.6017 333.059 37.0554 335.523 44.6917" stroke="white" stroke-width="0.304235" stroke-miterlimit="10"/>
<path d="M258.887 138.244C259.252 137.332 259.099 136.541 258.917 135.75C258.126 132.19 254.445 129.908 254.232 130.426C254.871 114.088 241.849 106.482 234.213 92.7005C230.534 86.2099 228.557 78.8946 228.463 71.4345C228.281 61.8511 230.897 51.9331 235.582 42.9886C244.101 26.5599 261.655 14.3905 284.899 13.2648C299.259 12.5651 311.306 16.7027 320.068 23.3046C327.735 29.0546 332.968 36.7822 335.523 44.6923" stroke="white" stroke-width="0.304235" stroke-miterlimit="10"/>
<path d="M258.156 138.001C258.369 137.21 258.187 136.48 258.004 135.75C257.213 132.464 254.414 130.091 254.262 130.395C254.962 113.571 241.423 105.783 233.361 91.6965C229.489 85.1428 227.363 77.7057 227.185 70.0958C226.881 60.3908 229.467 50.3814 234.243 41.4065C242.914 24.9778 260.62 12.7476 284.138 11.8045C298.68 11.2264 310.88 15.6074 319.794 22.4831C327.583 28.5069 332.937 36.4779 335.553 44.6314" stroke="white" stroke-width="0.304235" stroke-miterlimit="10"/>
<path d="M257.426 137.788C257.436 137.094 257.323 136.404 257.091 135.75C256.27 132.738 254.353 130.243 254.262 130.365C254.992 113.084 240.967 105.083 232.479 90.723C228.439 84.0977 226.176 76.5428 225.907 68.7877C225.512 58.9609 228.037 48.8907 232.905 39.8854C241.728 23.4567 259.586 11.1656 283.408 10.405C298.102 9.94865 310.424 14.573 319.49 21.753C326.995 27.6492 332.593 35.6288 335.584 44.6923" stroke="white" stroke-width="0.304235" stroke-miterlimit="10"/>
<path d="M256.696 137.545C256.57 136.934 256.397 136.334 256.179 135.75C255.631 133.914 254.991 132.106 254.262 130.335C255.053 112.567 240.541 104.383 231.596 89.7496C227.371 83.0482 224.959 75.3635 224.599 67.4492C224.082 57.5007 226.607 47.3393 231.536 38.3035C240.541 21.8444 258.521 9.52289 282.617 8.97527C297.494 8.61019 309.937 13.4779 319.125 20.9621C326.763 27.1331 332.466 35.3705 335.554 44.6924" stroke="white" stroke-width="0.304235" stroke-miterlimit="10"/>
<path d="M255.966 137.301C255.689 136.794 255.455 136.265 255.266 135.719C254.719 133.949 254.382 132.121 254.262 130.273C253.715 112.019 240.115 103.622 230.714 88.7145C226.851 82.6298 223.9 75.4498 223.321 66.0794C222.713 56.0092 225.177 45.7565 230.197 36.7207C239.355 20.2616 257.487 7.87927 281.856 7.51419C296.916 7.2708 309.45 12.3819 318.821 20.1399C326.944 26.8939 332.663 35.6559 335.554 44.6613" stroke="white" stroke-width="0.304235" stroke-miterlimit="10"/>
<path d="M255.236 137.058C253.137 135.08 254.232 130.76 254.262 130.243C255.54 103.896 224.325 97.5983 222.013 64.7409C219.975 36.0212 242.853 6.35827 281.096 6.05404C309.511 5.84107 329.104 24.6428 335.584 44.631" stroke="white" stroke-width="0.304235" stroke-miterlimit="10"/>
<path d="M256.057 159.662C223.93 139.917 200.96 135.536 181.367 145.211C117.691 176.638 66.2146 177.369 35.6998 171.436C-55.5098 153.669 -83.4081 102.466 -120.555 128.539C-157.702 154.612 -174.283 160.94 -180.611 160.94C-180.611 160.94 -200.721 155.525 -189.982 143.416" stroke="white" stroke-width="0.304235" stroke-miterlimit="10"/>
<path d="M-188.886 143.751C-199.2 155.555 -179.425 160.757 -179.212 160.757C-172.64 159.905 -155.847 154.277 -119.217 128.843C-82.3434 103.409 -53.0455 153.76 37.1297 170.919C40.0199 171.466 43.1231 171.953 46.3784 172.349C77.5625 176.121 125.206 173.413 182.706 145.941C187.707 143.531 193.093 142.017 198.617 141.469C215.624 139.826 233.97 145.302 257.183 159.571" stroke="white" stroke-width="0.304235" stroke-miterlimit="10"/>
<path d="M-187.761 144.056C-197.648 155.556 -178.208 160.575 -177.782 160.515C-170.906 159.572 -154.052 153.791 -117.878 129.118C-81.3698 104.201 -50.6421 154.156 38.59 170.402C41.4802 170.919 44.5834 171.376 47.8387 171.741C79.0836 175.27 126.696 173.049 184.075 146.642C189.089 144.296 194.473 142.845 199.987 142.352C217.876 140.8 235.734 145.546 258.339 159.45" stroke="white" stroke-width="0.304235" stroke-miterlimit="10"/>
<path d="M-186.665 144.39C-196.127 155.586 -177.021 160.423 -176.352 160.332C-169.172 159.298 -152.196 153.396 -116.509 129.422C-80.3049 105.083 -48.1777 154.4 40.0504 169.885C42.971 170.402 46.0438 170.828 49.2687 171.163C80.5744 174.509 128.187 172.775 185.414 147.341C190.431 145.062 195.803 143.662 201.295 143.204C220.066 141.774 237.438 145.759 259.465 159.298" stroke="white" stroke-width="0.304235" stroke-miterlimit="10"/>
<path d="M-185.54 144.724C-194.576 155.616 -175.804 160.24 -174.952 160.119C-167.499 158.993 -150.37 152.999 -115.17 129.726C-79.2706 105.965 -45.7439 154.642 41.4802 169.398C44.4009 169.885 47.4736 170.31 50.6985 170.615C82.0347 173.718 129.647 172.531 186.752 148.101C191.79 145.88 197.172 144.542 202.664 144.146C222.317 142.808 239.202 146.093 260.621 159.267" stroke="white" stroke-width="0.304235" stroke-miterlimit="10"/>
<path d="M-184.445 145.029C-193.054 155.616 -174.618 160.058 -173.553 159.875C-165.795 158.658 -148.545 152.574 -113.862 129.969C-78.2362 106.786 -43.31 154.795 42.9102 168.85C45.8308 169.337 48.9036 169.702 52.1285 170.006C83.5255 172.866 131.138 172.227 188.091 148.801C193.149 146.669 198.526 145.394 204.003 145.029C224.569 143.812 240.937 146.337 261.746 159.145" stroke="white" stroke-width="0.304235" stroke-miterlimit="10"/>
<path d="M-183.349 145.363C-191.564 155.647 -173.431 159.906 -172.153 159.693C-164.091 158.354 -146.75 152.178 -112.523 130.304C-77.2322 107.699 -40.8761 155.038 44.3401 168.364C47.2607 168.82 50.3335 169.155 53.5584 169.428C84.9859 172.075 132.629 171.923 189.43 149.531C194.502 147.475 199.877 146.263 205.341 145.941C226.79 144.846 242.701 146.641 262.872 159.054" stroke="white" stroke-width="0.304235" stroke-miterlimit="10"/>
<path d="M-182.224 145.698C-190.012 155.677 -172.214 159.754 -170.724 159.48C-162.357 158.05 -144.894 151.783 -111.154 130.578C-76.1369 108.551 -38.3814 155.221 45.8308 167.846C48.7515 168.303 51.8242 168.607 55.0187 168.85C86.507 171.254 134.15 171.649 190.799 150.231C195.879 148.314 201.143 147.067 206.68 146.824C229.011 145.85 244.435 146.884 263.998 158.932" stroke="white" stroke-width="0.304235" stroke-miterlimit="10"/>
<path d="M-181.128 146.033C-188.491 155.708 -171.028 159.602 -169.324 159.298C-160.653 157.776 -143.069 151.388 -109.846 130.913C-75.1329 109.494 -35.9475 155.464 47.2303 167.39C50.151 167.816 53.2237 168.09 56.4182 168.333C87.9674 170.493 135.611 171.437 192.107 151.022C197.188 149.197 202.451 147.98 207.988 147.798C231.232 146.976 246.139 147.219 265.093 158.902" stroke="white" stroke-width="0.304235" stroke-miterlimit="10"/>
<path d="M-180.003 146.337C-186.939 155.707 -169.811 159.419 -167.894 159.054C-158.919 157.441 -141.182 150.961 -108.477 131.156C-74.0681 110.316 -33.4528 155.586 48.6906 166.842C51.6417 167.238 54.684 167.512 57.8785 167.694C89.4885 169.611 137.132 171.102 193.476 151.691C198.557 149.927 203.82 148.467 209.357 148.649C233.483 149.379 247.904 147.463 266.249 158.75" stroke="white" stroke-width="0.304235" stroke-miterlimit="10"/>
<path d="M-178.908 146.672C-185.418 155.708 -168.624 159.267 -166.495 158.872C-157.216 157.168 -139.357 150.596 -107.139 131.49C-73.0034 111.228 -30.9885 155.799 50.1509 166.356C53.102 166.751 56.1443 166.964 59.3084 167.147C90.9488 168.82 138.622 170.889 194.815 152.452C199.895 150.779 205.189 149.349 210.696 149.562C235.704 150.566 249.668 147.737 267.405 158.659" stroke="white" stroke-width="0.304235" stroke-miterlimit="10"/>
<path d="M-177.812 147.006C-183.897 155.738 -167.438 159.115 -165.095 158.658C-155.512 156.863 -137.532 150.201 -105.83 131.764C-71.9994 112.11 -28.5546 155.951 51.5504 165.838C54.5015 166.203 57.5743 166.416 60.7079 166.569C92.4091 167.998 140.083 170.615 196.123 153.182C201.204 151.6 206.497 150.231 212.004 150.475C237.894 151.691 251.372 148.041 268.5 158.567" stroke="white" stroke-width="0.304235" stroke-miterlimit="10"/>
<path d="M-176.687 147.341C-182.376 155.798 -166.221 158.962 -163.665 158.476C-153.778 156.589 -135.676 149.835 -104.461 132.068C-70.9041 112.993 -26.0599 156.103 53.0108 165.351C55.9618 165.686 59.0346 165.899 62.1682 165.99C93.9303 167.177 141.604 170.341 197.492 153.882C202.603 152.391 207.866 151.052 213.373 151.357C240.146 152.817 253.136 148.284 269.656 158.445" stroke="white" stroke-width="0.304235" stroke-miterlimit="10"/>
<path d="M-175.591 147.645C-180.855 155.768 -165.034 158.78 -162.266 158.233C-152.074 156.255 -133.85 149.41 -103.123 132.342C-69.8697 113.845 -23.5956 156.225 54.4711 164.804C57.4222 165.139 60.4949 165.291 63.6285 165.382C95.4515 166.325 143.156 170.037 198.861 154.582C203.972 153.183 209.266 151.905 214.742 152.239C242.397 153.943 254.901 148.558 270.812 158.324" stroke="white" stroke-width="0.304235" stroke-miterlimit="10"/>
<path d="M-174.496 147.98C-179.333 155.799 -163.817 158.628 -160.866 158.05C-150.37 155.981 -131.994 149.045 -101.814 132.647C-68.8353 114.758 -21.1617 156.377 55.8706 164.317C58.8216 164.622 61.8944 164.774 64.9976 164.835C96.851 165.534 144.585 169.824 200.139 155.343C205.25 154.004 210.544 152.817 216.02 153.182C244.557 155.13 256.574 148.862 271.877 158.263" stroke="white" stroke-width="0.304235" stroke-miterlimit="10"/>
<path d="M-173.37 148.314C-177.782 155.829 -162.631 158.476 -159.436 157.837C-148.636 155.646 -130.139 148.649 -100.445 132.95C-67.7705 115.639 -18.667 156.529 57.3613 163.83C60.3428 164.104 63.3852 164.226 66.4884 164.287C98.4026 164.743 146.137 169.611 201.538 156.103C206.649 154.855 211.943 153.699 217.419 154.125C246.839 156.285 258.4 149.197 273.064 158.202" stroke="white" stroke-width="0.304235" stroke-miterlimit="10"/>
<path d="M-172.275 148.619C-176.261 155.829 -161.414 158.324 -158.007 157.624C-146.902 155.342 -128.252 148.254 -99.1067 133.224C-66.7057 116.522 -16.1723 156.62 58.7912 163.283C61.8254 163.559 64.8717 163.681 67.9182 163.648C99.8933 163.374 147.658 169.307 202.877 156.742C207.988 155.586 213.312 154.49 218.758 154.947C249.06 157.32 260.134 149.379 274.189 158.02" stroke="white" stroke-width="0.304235" stroke-miterlimit="10"/>
<path d="M-171.149 148.954C-174.739 155.86 -160.197 158.172 -156.607 157.412C-145.198 155.039 -126.397 147.889 -97.768 133.529C-65.6408 117.405 -13.708 156.742 60.2211 162.797C63.2564 163.052 66.3026 163.153 69.3481 163.101C101.384 162.584 149.149 169.094 204.215 157.503C209.327 156.438 214.651 155.404 220.097 155.86C251.281 158.446 261.868 149.654 275.346 157.929" stroke="white" stroke-width="0.304235" stroke-miterlimit="10"/>
<path d="M-170.054 149.288C-173.218 155.89 -159.011 158.02 -155.208 157.229C-143.495 154.764 -124.541 147.523 -96.4294 133.833C-64.576 118.317 -11.2132 156.833 61.6814 162.309C64.6629 162.522 67.7053 162.583 70.7781 162.553C102.844 162.248 150.67 168.881 205.554 158.263C210.696 157.259 215.989 156.346 221.435 156.803C253.502 159.602 263.633 149.988 276.471 157.867" stroke="white" stroke-width="0.304235" stroke-miterlimit="10"/>
<path d="M-168.959 149.623C-171.697 155.921 -157.824 157.868 -153.808 157.016C-141.791 154.46 -122.715 147.159 -95.0908 134.107C-63.5112 119.2 -8.74896 156.925 63.1113 161.762C66.0928 161.975 69.1352 161.975 72.2079 161.914C104.335 161.366 152.161 168.577 206.893 158.933C212.034 158.02 217.328 157.168 222.774 157.655C255.722 160.667 265.367 150.201 277.597 157.716" stroke="white" stroke-width="0.304235" stroke-miterlimit="10"/>
<path d="M-167.833 149.927C-170.145 155.92 -156.607 157.715 -152.378 156.803C-140.057 154.156 -120.829 146.763 -93.7521 134.411C-62.4463 120.112 -6.25415 157.016 64.5413 161.275C67.5228 161.457 70.5652 161.457 73.6379 161.366C105.826 160.575 153.682 168.364 208.231 159.693C213.477 158.811 218.796 158.444 224.112 158.598C258.096 159.754 267.101 150.535 278.723 157.685" stroke="white" stroke-width="0.304235" stroke-miterlimit="10"/>
<path d="M-166.738 150.262C-168.655 155.921 -155.421 157.563 -150.979 156.59C-138.323 153.852 -118.973 146.398 -92.4135 134.685C-61.3816 120.994 -3.78992 157.077 66.0016 160.758C69.0135 160.91 72.0254 160.88 75.0677 160.788C107.317 159.724 155.203 168.151 209.57 160.393C214.824 159.602 220.141 159.297 225.451 159.48C260.316 160.849 268.835 150.779 279.848 157.563" stroke="white" stroke-width="0.304235" stroke-miterlimit="10"/>
<path d="M-165.612 150.596C-167.103 155.951 -154.204 157.411 -149.549 156.407C-136.588 153.547 -117.087 146.063 -91.0445 135.019C-60.2559 121.937 -1.2648 157.168 67.4618 160.271C70.4738 160.392 73.4857 160.362 76.5281 160.21C108.807 158.902 156.724 167.907 210.939 161.123C216.202 160.423 221.515 160.179 226.82 160.392C262.598 161.944 270.599 151.083 281.004 157.472" stroke="white" stroke-width="0.304235" stroke-miterlimit="10"/>
<path d="M-164.517 150.9C-165.582 155.951 -153.017 157.259 -148.149 156.164C-134.885 153.213 -115.201 145.668 -89.7363 135.263C-59.2215 122.789 1.16908 157.168 68.8613 159.723C71.8733 159.845 74.9156 159.754 77.9275 159.602C110.268 158.02 158.215 167.664 212.247 161.823C217.518 161.214 222.828 161.031 228.128 161.275C264.789 163.039 272.334 151.326 282.1 157.35" stroke="white" stroke-width="0.304235" stroke-miterlimit="10"/>
<path d="M-163.422 151.235C-164.061 155.981 -151.831 157.107 -146.75 155.981C-133.181 152.939 -113.345 145.333 -88.3976 135.597C-58.1263 123.763 3.66382 157.259 70.3217 159.267C73.3336 159.358 76.3759 159.236 79.3879 159.084C111.789 157.259 159.767 167.512 213.586 162.613C218.853 162.102 224.15 161.97 229.437 162.218C266.979 164.195 274.037 151.631 283.225 157.289" stroke="white" stroke-width="0.304235" stroke-miterlimit="10"/>
<path d="M-162.296 151.57C-162.509 156.012 -150.583 156.955 -145.32 155.768C-131.447 152.635 -111.459 144.998 -87.0286 135.871C-57.031 124.675 6.15857 160.332 71.782 158.719C74.7939 158.658 77.8363 158.658 80.8178 158.476C113.28 156.407 161.257 167.268 214.955 163.283C220.238 162.862 225.543 162.791 230.836 163.07C269.291 165.291 275.832 151.874 284.412 157.137" stroke="white" stroke-width="0.304235" stroke-miterlimit="10"/>
<path d="M-161.201 151.904C-160.988 156.042 -149.397 156.833 -143.921 155.555C-129.713 152.33 -109.572 144.664 -85.7204 136.176C-55.9662 125.588 8.65326 160.271 73.1815 158.233C76.2238 158.141 79.2357 158.111 82.2172 157.898C114.71 155.555 162.748 167.055 216.233 164.013C221.511 163.683 226.804 163.673 232.083 163.983C271.421 166.416 277.475 152.148 285.446 157.046" stroke="white" stroke-width="0.304235" stroke-miterlimit="10"/>
<path d="M-160.106 152.209C-159.497 156.042 -148.21 156.651 -142.521 155.342C-128.039 152.026 -107.717 144.299 -84.3817 136.449C-54.8709 126.531 11.148 160.149 74.6418 157.715C77.6842 157.594 80.6961 157.563 83.6776 157.32C116.231 154.704 164.3 166.843 217.602 164.743C222.884 164.505 228.176 164.556 233.452 164.895C273.672 167.573 279.27 152.422 286.602 156.955" stroke="white" stroke-width="0.304235" stroke-miterlimit="10"/>
<path d="M-158.98 152.543C-157.946 156.072 -146.993 156.498 -141.091 155.129C-126.305 151.721 -105.8 143.963 -83.0127 136.723C-53.7757 127.443 13.6732 159.966 76.1022 157.167C79.1445 157.015 82.1564 156.954 85.1379 156.711C117.752 153.851 165.851 166.629 219.001 165.442C224.204 165.321 229.467 165.382 234.852 165.777C275.984 168.698 281.065 152.695 287.789 156.833" stroke="white" stroke-width="0.304235" stroke-miterlimit="10"/>
<path d="M-157.885 152.878C-156.424 156.103 -145.807 156.377 -139.692 154.947C-124.602 151.448 -103.944 143.66 -81.7044 137.058C-52.6804 128.418 16.1375 159.875 77.5321 156.711C80.5744 156.559 83.5864 156.468 86.5374 156.164C119.212 153.03 167.312 165.382 220.309 166.204C225.512 166.295 230.806 166.295 236.16 166.721C278.175 169.885 282.769 153.03 288.884 156.772" stroke="white" stroke-width="0.304235" stroke-miterlimit="10"/>
<path d="M-156.759 153.182C-154.873 156.103 -144.59 156.194 -138.262 154.704C-122.867 151.083 -102.027 143.325 -80.3354 137.301C-51.5852 129.33 18.6627 159.632 78.9924 156.164C82.0348 155.981 85.0467 155.86 87.9978 155.555C120.703 152.148 168.863 166.234 221.648 166.873C226.851 166.934 232.144 167.116 237.499 167.573C280.396 170.98 284.503 153.243 290.01 156.62" stroke="white" stroke-width="0.304235" stroke-miterlimit="10"/>
<path d="M-155.664 153.517C-153.352 156.103 -143.403 156.072 -136.862 154.521C-121.133 150.809 -100.141 143.021 -78.9968 137.636C-50.4595 130.364 21.0357 157.35 80.4223 155.677C83.4646 155.586 86.4766 155.342 89.4276 155.007C122.194 151.326 170.354 166.082 222.987 167.633C228.189 167.785 233.483 168.059 238.837 168.485C282.617 172.136 286.268 153.517 291.166 156.529" stroke="white" stroke-width="0.304235" stroke-miterlimit="10"/>
<path d="M-154.569 153.851C-151.861 156.133 -142.217 155.92 -135.463 154.308C-119.43 150.505 -98.2853 142.716 -77.6886 137.909C-49.3947 131.308 23.4999 157.289 81.8522 155.16C84.9249 155.038 87.9064 154.764 90.8271 154.399C123.654 150.444 171.845 165.838 224.295 168.333C229.497 168.576 234.791 168.911 240.146 169.367C284.807 173.292 287.971 153.791 292.261 156.407" stroke="white" stroke-width="0.304235" stroke-miterlimit="10"/>
<path d="M-153.443 154.186C-150.309 156.164 -140.969 155.768 -134.033 154.126C-117.695 150.231 -96.3685 142.443 -76.3195 138.245C-48.269 132.342 25.9947 157.32 83.3126 154.704C86.3853 154.551 89.3668 154.247 92.2875 153.882C125.145 149.684 173.366 165.717 225.664 169.124C230.897 169.459 236.16 169.855 241.515 170.341C287.059 174.54 289.736 154.126 293.417 156.377" stroke="white" stroke-width="0.304235" stroke-miterlimit="10"/>
<path d="M-152.348 154.491C-148.788 156.164 -139.783 155.616 -132.633 153.882C-115.992 149.897 -94.4823 142.108 -74.9809 138.488C-47.1738 133.316 28.459 157.229 84.7729 154.125C87.8456 153.943 90.8271 153.639 93.7478 153.243C126.666 148.771 174.887 165.504 227.033 169.763C232.266 170.189 237.529 170.645 242.884 171.163C289.31 175.635 291.5 154.338 294.573 156.194" stroke="white" stroke-width="0.304235" stroke-miterlimit="10"/>
<path d="M-151.222 154.825C-147.237 156.194 -138.566 155.464 -131.203 153.7C-114.258 149.623 -92.5961 141.865 -73.6422 138.792C-46.0786 134.35 30.9233 157.198 86.2028 153.639C89.2755 153.456 92.2875 153.091 95.1777 152.696C128.157 147.95 176.408 165.352 228.372 170.524C233.605 171.041 238.898 171.558 244.222 172.106C291.531 176.852 293.265 154.643 295.699 156.134" stroke="white" stroke-width="0.304235" stroke-miterlimit="10"/>
<path d="M-150.127 155.16C-145.746 156.225 -137.379 155.342 -129.804 153.486C-112.554 149.288 -90.7098 141.591 -72.3036 139.096C-44.9833 135.384 33.3876 157.137 87.6327 153.121C90.7055 152.878 93.7174 152.543 96.5772 152.087C129.587 147.067 177.869 165.139 229.68 171.223C234.913 171.832 240.206 172.41 245.531 172.988C293.721 178.008 294.969 154.886 296.794 156.012" stroke="white" stroke-width="0.304235" stroke-miterlimit="10"/>
<path d="M-149.032 155.464C-144.225 156.224 -136.193 155.16 -128.404 153.273C-110.82 148.984 -88.854 141.317 -70.965 139.37C-43.8881 136.419 35.8519 157.046 89.093 152.604C92.1962 152.33 95.1777 151.965 98.0375 151.509C131.108 146.154 179.39 164.986 231.049 171.953C236.282 172.653 241.575 173.292 246.9 173.87C295.973 179.194 296.733 155.16 297.95 155.92" stroke="white" stroke-width="0.304235" stroke-miterlimit="10"/>
<path d="M-147.906 155.799C-142.673 156.255 -134.976 155.038 -126.975 153.06C-109.086 148.71 -86.9373 141.074 -69.6263 139.674C-42.8232 137.514 38.3162 157.016 90.5229 152.117C93.6261 151.813 96.6076 151.418 99.4674 150.961C132.568 145.333 180.881 164.895 232.388 172.684C237.62 173.505 242.914 174.205 248.208 174.783C298.194 180.381 298.467 155.433 299.076 155.829" stroke="white" stroke-width="0.304235" stroke-miterlimit="10"/>
<path d="M-146.811 156.133C-128.648 156.59 -92.6569 141.226 -68.2877 139.978C-40.1155 138.549 50.942 159.236 100.897 150.383C137.466 143.903 192.411 169.063 249.577 175.696C300.415 181.598 300.202 155.738 300.202 155.738" stroke="white" stroke-width="0.304235" stroke-miterlimit="10"/>
<path d="M360 0H0V199H360V0Z" fill="url(#paint0_linear_3_499)"/>
</g>
<defs>
<linearGradient id="paint0_linear_3_499" x1="0" y1="99.5" x2="360" y2="99.5" gradientUnits="userSpaceOnUse">
<stop/>
<stop offset="1" stop-opacity="0.33"/>
</linearGradient>
<clipPath id="clip0_3_499">
<rect width="360" height="199" fill="white"/>
</clipPath>
</defs>
</svg>
