<svg id="Layer_1" data-name="Layer 1" xmlns="http://www.w3.org/2000/svg" xmlns:xlink="http://www.w3.org/1999/xlink" viewBox="0 0 1775.5 654.1"><defs><style>.cls-1{fill:none;stroke:#fff;stroke-miterlimit:10;}.cls-2{fill:url(#linear-gradient);}</style><linearGradient id="linear-gradient" y1="69.16" x2="1242" y2="69.16" gradientTransform="translate(0 257.89)" gradientUnits="userSpaceOnUse"><stop offset="0.13"/><stop offset="1" stop-opacity="0"/></linearGradient></defs><title>Artboard 1</title><path class="cls-1" d="M1502.8,511.9c-.7-28,137.7-31.6,137.3,0-.4,35.4-121.3,38.1-169.9-1.8"/><path class="cls-1" d="M1510.2,509.3c0-15.2,56-23.2,94.3-17.4,16.4,2.5,29.3,8,30.6,16.8,2.4,16.3-23,25.2-57.2,27.6-34.4,2.4-82.9-5.8-106.1-26"/><path class="cls-1" d="M1517.6,506.6c.5-10.7,44.6-19.2,80.8-15.6,15.5,1.5,29,6.3,31.7,14.3,5,14.9-15.8,23.3-47.8,27.8-32.4,4.6-86.8-2.6-108.7-22.9"/><path class="cls-1" d="M1525.1,504c1-6.2,33.2-15.1,67.3-13.8,14.6.6,28.7,4.5,32.8,11.9,7.6,13.5-8.7,21.4-38.5,28.1-30.4,6.8-90.7.7-111.3-19.7"/><path class="cls-1" d="M1532.5,501.4c1.5-1.7,21.7-13,53.8-12,13.6.4,28.3,2.7,34,9.4,10,12-1.7,19.5-29.2,28.3-28.6,9.1-94.5,4-113.9-16.6"/><path class="cls-1" d="M1539.9,498.7c2,2.8,10.2-7,40.2-10.2,12.7-1.3,28,.9,35.1,7,12.5,10.6,5.3,17.8-19.9,28.6-26.9,11.5-98.4,7.2-116.5-13.5"/><path class="cls-1" d="M1547.3,496.1c2.5,7.3-1.3-2.9,26.7-8.4,11.7-2.3,27.5-.8,36.2,4.5,14.8,9.2,12.3,16.2-10.6,28.8-25.3,14-102.2,10.5-119.1-10.4"/><path class="cls-1" d="M1554.7,493.5c3,11.8-12.9,1.2,13.2-6.6,10.8-3.2,27.1-2.5,37.3,2.1,17.2,7.9,19.2,14.7-1.2,29-23.6,16.6-106.1,13.8-121.7-7.2"/><path class="cls-1" d="M1562.1,490.8c3.5,16.3-24.5,5.4-.3-4.8,9.8-4.1,26.7-4.3,38.4-.3,19.6,6.6,26.2,13.4,8.1,29.3-22,19.3-109.9,17-124.3-4.1"/><path class="cls-1" d="M1569.5,488.2c4,20.8-36.2,9.6-13.9-3,8.8-5,26.3-5.9,39.5-2.8,22,5.3,33.3,12.1,17.4,29.5-20.2,22.2-113.8,20.3-126.9-1"/><path class="cls-1" d="M1576.9,485.6c4.6,25.2-47.8,14-27.4-1.2,7.8-5.8,25.9-7.6,40.6-5.2,24.4,4,40.4,11,26.7,29.8-18.4,25.2-117.7,23.5-129.5,2.1"/><path class="cls-1" d="M1584.3,482.9c5.1,29.7-59.4,18.4-40.9.6,6.8-6.5,25.5-9.3,41.7-7.6,26.8,2.8,47.7,9.9,36,30-16.4,28.3-121.5,26.8-132.1,5.2"/><path class="cls-1" d="M1591.7,480.3c5.6,34.2-70.9,23-54.4,2.4,5.8-7.3,25.1-11,42.8-10.1,29.2,1.5,55,8.9,45.3,30.3-14.2,31.4-125.4,30.1-134.7,8.4"/><path class="cls-1" d="M1599.2,477.7c6.1,38.7-82.3,27.5-67.9,4.2,5-8.1,24.7-13,44-12.5,31.7.9,62.5,7.8,54.7,30.5-11.9,34.5-129.2,33.3-137.3,11.5"/><path class="cls-1" d="M1606.6,475c6.6,43.2-93.5,32-81.4,6,4.1-8.8,24.3-14.3,45.1-15,34.1-1,70,6.6,64,30.8-9.4,37.5-133.1,36.6-139.9,14.6"/><path class="cls-1" d="M1614,472.4c7.1,47.7-104.7,36.5-95,7.8,3.2-9.6,24-16,46.2-17.4,36.5-2.3,77.6,5.4,73.3,31-6.8,40.5-136.9,39.9-142.5,17.7"/><path class="cls-1" d="M1621.4,469.8c7.6,52.2-115.8,41-108.5,9.6,2.4-10.4,23.6-17.7,47.3-19.8,39-3.5,85.2,4.1,82.6,31.3-4.2,43.4-140.8,43.1-145.1,20.8"/><path class="cls-1" d="M1628.8,467.1c8.1,56.6-126.9,45.4-122,11.4,1.6-11.2,23.2-19.4,48.4-22.3,41.4-4.8,92.9,2.8,91.9,31.5-1.5,46.2-144.6,46.4-147.7,24"/><path class="cls-1" d="M1636.2,464.5c8.6,61.1-138,49.8-135.5,13.2.8-12,22.8-21,49.5-24.7,43.9-6,100.5,1.4,101.3,31.8,1.2,48.9-148.5,49.7-150.3,27.1"/><path class="cls-1" d="M1643.6,461.9c9.1,65.6-149.1,54-149.1,15,0-34.1,157.3-46.8,161.2,4.9s-152.4,52.9-152.9,30.2"/><path class="cls-1" d="M1756.3,146.9c7.3,22.7,9.5,45.8,6,67-14,84.7-98.6,117-98.5,199.7,0,41.3-34,65.3-86.4,63.6-55.5-1.7-95.9-12.7-88.7-41.7,8.7-34.6,175.3-49.7,174.8,12.1-.1,12.1-3.8,26.5-32,48"/><path class="cls-1" d="M1629.1,494.7c27.7-21.1,31.4-35.3,31.4-47.2.4-60.8-163.2-46.1-171.8-12.2-7,27.5,31.8,37.8,85.7,38.6,20.1.3,37.4-3.5,51.2-10.7,21-11,33.4-29.8,33.7-54.9.5-51.3,33.5-83.4,62.5-119.8,17.8-22.3,33.6-46.2,39.4-77.3,3.8-20.5,2.1-42.7-5-64.4"/><path class="cls-1" d="M1626.7,493.9c27.2-20.8,30.8-34.8,30.8-46.5.3-59.9-160.2-45.6-168.8-12.3-6.7,26,30.4,35.5,82.8,35.5,19.5-.1,36.3-4.3,49.8-11.8,20.5-11.5,32.9-30.4,33.5-55.6,1-51.4,34.5-83.6,64.4-119.4,18.3-21.9,34.5-45.1,40.9-75.2,4.2-19.7,2.8-41-3.9-61.8"/><path class="cls-1" d="M1624.3,493.2c26.7-20.4,30.2-34.2,30.2-45.7.3-58.9-157.2-45-165.8-12.4-6.4,24.4,29,33.4,79.9,32.3,18.9-.4,35.2-5,48.5-13,20-12,32.4-31.1,33.3-56.3,1.5-51.4,35.5-83.8,66.3-118.9,18.9-21.5,35.4-44,42.4-73.1,4.5-19,3.6-39.3-2.8-59.2"/><path class="cls-1" d="M1621.9,492.4c26.2-20,29.6-33.6,29.6-45,.2-58-154.2-44.5-162.8-12.5-6.2,22.9,27.6,31.2,77,29.2,18.4-.7,34.1-5.8,47.1-14.1,19.6-12.4,32-31.8,33.1-57.1,2.2-51.5,36.5-84,68.2-118.5,19.4-21.1,36.4-43,43.8-71a99.18,99.18,0,0,0-1.8-56.6"/><path class="cls-1" d="M1619.5,491.6c25.7-19.7,29-33,29-44.2.2-57-151.2-43.9-159.8-12.6-5.9,21.4,26.2,29,74.1,26.1a90.26,90.26,0,0,0,45.8-15.2c19.1-12.9,31.5-32.4,32.9-57.8,2.7-51.5,37.5-84.2,70.1-118.1,20-20.8,37.3-41.9,45.3-68.8a90,90,0,0,0-.7-54.1"/><path class="cls-1" d="M1617.1,490.8c25.2-19.4,28.4-32.5,28.4-43.5.1-56.1-148.1-43.3-156.8-12.7-5.6,19.8,24.8,26.8,71.2,23a87.16,87.16,0,0,0,44.4-16.4c18.6-13.4,31.1-33.1,32.7-58.6,3.3-51.5,38.5-84.4,72-117.7,20.6-20.4,38.2-40.8,46.8-66.7a81.73,81.73,0,0,0,.4-51.5"/><path class="cls-1" d="M1614.7,490.1c24.7-19,27.8-31.9,27.8-42.7,0-55.1-145-42.7-153.8-12.8-5.3,18.3,23.4,24.6,68.3,19.8a85,85,0,0,0,43.1-17.5c18.2-13.8,30.6-33.7,32.5-59.3,3.8-51.6,39.5-84.6,74-117.2,21.2-20,39.1-39.8,48.2-64.6,5.9-16.1,6.7-32.6,1.5-48.9"/><path class="cls-1" d="M1612.3,489.3c24.2-18.7,27.2-31.3,27.2-42,0-54.2-141.9-42.1-150.8-12.9-5.1,16.8,22,22.4,65.3,16.7,16-2.1,29.6-8.9,41.8-18.6,17.7-14.3,30.1-34.4,32.3-60,4.4-51.6,40.5-84.8,75.9-116.8,21.7-19.6,40-38.7,49.7-62.5,6.2-15.3,7.5-31,2.5-46.3"/><path class="cls-1" d="M1609.9,488.5c23.7-18.3,26.7-30.8,26.6-41.2-.1-53.3-138.8-41.5-147.8-13-4.8,15.3,20.7,20.2,62.4,13.6,15.5-2.5,28.5-9.6,40.4-19.8,17.2-14.7,29.6-35.1,32.1-60.8,5-51.7,41.5-85,77.8-116.4,22.3-19.2,41-37.7,51.2-60.4,6.6-14.6,8.3-29.3,3.6-43.7"/><path class="cls-1" d="M1607.5,487.7c23.2-18,26.1-30.2,26-40.5-.1-52.3-135.6-40.9-144.7-13.1-4.5,13.8,19.3,18,59.5,10.4,14.9-2.8,27.4-10.4,39-20.9,16.7-15.2,29.2-35.7,31.9-61.5,5.5-51.7,42.5-85.2,79.7-116,22.8-18.8,41.9-36.6,52.6-58.2,6.9-13.9,9-27.6,4.7-41.1"/><path class="cls-1" d="M1605.1,487c22.7-17.6,25.5-29.6,25.4-39.7-.2-51.4-132.3-40.2-141.7-13.2-4.3,12.3,17.9,15.9,56.6,7.3,14.3-3.2,26.3-11.1,37.7-22.1,16.3-15.6,28.7-36.4,31.7-62.3,6-51.8,43.5-85.4,81.6-115.5,23.4-18.5,42.8-35.6,54.1-56.1,7.3-13.2,9.8-26,5.8-38.5"/><path class="cls-1" d="M1602.7,486.2c22.1-17.3,24.9-29,24.8-39-.2-50.4-129-39.5-138.7-13.3-4,10.8,16.6,13.7,53.7,4.2,13.7-3.5,25.2-11.8,36.4-23.2,15.8-16,28.2-37,31.5-63,6.6-51.8,44.5-85.6,83.5-115.1,24-18.1,43.8-34.6,55.6-54,7.7-12.6,10.6-24.3,6.8-35.9"/><path class="cls-1" d="M1600.3,485.4c21.6-16.9,24.3-28.5,24.2-38.2-.3-49.5-125.5-38.8-135.7-13.4-3.8,9.3,15.2,11.5,50.8,1.1,13.2-3.9,24-12.6,35-24.3,15.3-16.4,27.7-37.7,31.3-63.8,7.1-51.9,45.5-85.8,85.4-114.7,24.6-17.7,44.7-33.6,57-51.9,8-11.9,11.4-22.6,7.9-33.3"/><path class="cls-1" d="M1597.9,484.6c21.1-16.6,23.7-27.9,23.6-37.5-.3-48.5-121.8-37.9-132.7-13.5-3.5,7.9,13.8,9.3,47.9-2.1,12.6-4.2,22.9-13.3,33.7-25.5,14.8-16.8,27.2-38.3,31.1-64.5,7.7-51.9,46.5-86,87.4-114.3,25.1-17.3,45.7-32.6,58.5-49.8,8.4-11.2,12.2-20.9,9-30.8"/><path class="cls-1" d="M1595.5,483.9c20.6-16.2,23.1-27.3,23-36.7-.4-47.6-123.3-38.9-129.7-13.6-4.6,5.6,12.5,7.1,45-5.2,12-4.5,21.8-14,32.3-26.6,14.4-17.2,26.8-39,30.9-65.3,8.2-52,47.5-86.2,89.3-113.9,25.7-16.9,46.6-31.6,60-47.6,8.8-10.5,12.9-19.3,10-28.2"/><path class="cls-1" d="M1593.1,483.1c20.1-15.9,22.5-26.8,22.4-36-.4-46.7-120.4-38.4-126.7-13.7-4.4,4,11.1,4.9,42-8.3,11.4-4.9,20.7-14.7,31-27.8,13.9-17.6,26.3-39.7,30.7-66,8.8-52,48.5-86.4,91.2-113.4,26.3-16.5,47.6-30.7,61.4-45.5,9.2-9.9,13.7-17.6,11.1-25.6"/><path class="cls-1" d="M1590.7,482.3c19.6-15.5,21.9-26.2,21.8-35.2-.5-45.7-117.6-37.9-123.7-13.8-4.3,2.5,9.8,2.7,39.1-11.4,10.9-5.2,19.6-15.5,29.6-28.9,13.5-18,25.8-40.3,30.5-66.7,9.3-52,49.5-86.6,93.1-113,26.8-16.1,48.6-29.7,62.9-43.4,9.6-9.2,14.5-15.9,12.2-23"/><path class="cls-1" d="M1588.3,481.5c19.1-15.2,21.3-25.6,21.2-34.5-.6-44.8-114.7-37.3-120.7-13.9-4.1.9,8.4.5,36.2-14.6,10.3-5.6,18.5-16.2,28.3-30,13-18.4,25.3-41,30.3-67.5,9.8-52.1,50.5-86.8,95-112.6,27.4-15.8,49.7-28.7,64.4-41.3,10-8.6,15.2-14.3,13.3-20.4"/><path class="cls-1" d="M1585.9,480.8c18.6-14.8,20.7-25,20.6-33.7-.7-43.8-111.9-36.8-117.7-14-3.9-.6,7.1-1.7,33.3-17.7,9.8-6,17.4-16.9,26.9-31.2,12.6-18.8,24.8-41.6,30.1-68.2,10.4-52.1,51.6-87,97-112.1,28-15.4,50.7-27.7,65.8-39.1,10.4-7.9,16-12.6,14.3-17.8"/><path class="cls-1" d="M1583.5,480c18-14.5,20.1-24.5,20-33-.8-42.9-109-36.3-114.7-14.1-3.7-2.2,5.8-4,30.4-20.8,9.2-6.3,16.3-17.6,25.6-32.3,12.1-19.2,24.3-42.3,29.9-69,10.9-52.2,52.6-87.2,98.9-111.7,28.5-15,51.8-26.7,67.3-37,10.9-7.2,16.8-10.9,15.4-15.2"/><path class="cls-1" d="M1581.1,479.2c17.5-14.1,19.5-23.9,19.4-32.2-.8-41.9-106.1-35.8-111.6-14.2-3.6-3.8,4.4-6.2,27.5-24,8.6-6.7,15.2-18.3,24.2-33.4,11.7-19.5,23.9-43,29.7-69.7,11.5-52.2,53.6-87.4,100.8-111.3,29.1-14.6,52.9-25.7,68.8-34.9,11.3-6.6,17.6-9.2,16.5-12.6"/><path class="cls-1" d="M1578.7,478.4c17-13.8,19-23.3,18.8-31.5-.9-41-103.3-35.3-108.6-14.3-3.4-5.3,3.1-8.4,24.6-27.1,8.1-7,14.1-19,22.9-34.6,11.3-19.9,23.4-43.6,29.5-70.5,12-52.3,54.6-87.6,102.7-110.9,29.7-14.2,54-24.7,70.2-32.8,11.8-5.9,18.3-7.6,17.5-10"/><path class="cls-1" d="M1576.3,477.7c16.5-13.4,18.4-22.8,18.2-30.7-1-40-100.4-34.7-105.6-14.4-3.2-6.9,1.8-10.7,21.6-30.2,7.5-7.4,13-19.7,21.5-35.7,10.8-20.3,22.9-44.3,29.3-71.2,12.5-52.3,55.6-87.9,104.7-110.4,30.2-13.8,55.2-23.7,71.7-30.6,12.3-5.2,19.1-5.9,18.6-7.4"/><path class="cls-1" d="M1573.9,476.9c16-13.1,17.8-22.2,17.6-30-1-39.1-97.6-34.2-102.6-14.5-3-8.4.4-13,18.7-33.3,7-7.8,11.9-20.4,20.2-36.9,10.4-20.7,22.4-44.9,29.2-72,13.1-52.4,56.6-88.1,106.5-110,30.8-13.5,56.3-22.6,73.1-28.5,12.8-4.5,19.9-4.2,19.7-4.9"/><path class="cls-1" d="M1571.5,476.1c15.5-12.7,17.2-21.6,17-29.2-1.1-38.2-94.7-33.7-99.6-14.6-2.8-10-.9-15.3,15.8-36.5,6.4-8.1,10.8-21.1,18.8-38,10-21,21.9-45.6,28.9-72.7,13.6-52.4,57.6-88.3,108.5-109.6a673.75,673.75,0,0,1,74.6-26.4c13.3-3.8,20.7-2.5,20.8-2.3"/><path class="cls-1" d="M1569.1,475.4c15-12.4,16.6-21,16.4-28.5-1.1-37.2-91.9-33.2-96.6-14.7-2.7-11.5-2.2-17.5,12.9-39.6,5.8-8.5,9.7-21.8,17.5-39.1,9.6-21.4,21.4-46.2,28.8-73.4,14.1-52.5,58.6-88.5,110.4-109.2,31.9-12.7,58.6-20.4,76.1-24.3,13.8-3,21.4-.9,21.8.3"/><path class="cls-1" d="M1566.7,474.6c14.5-12,16-20.5,15.8-27.7-1.2-36.3-89-32.6-93.6-14.8-2.5-13.1-3.6-19.8,10-42.7,5.3-8.9,8.7-22.5,16.1-40.3,9.1-21.8,20.9-46.9,28.6-74.2,14.7-52.5,59.6-88.7,112.3-108.8,32.5-12.3,59.7-19.3,77.5-22.2,14.3-2.3,22.2.8,22.9,2.9"/><path class="cls-1" d="M1564.3,473.8c14-11.7,15.4-19.9,15.2-27-1.2-35.3-86.1-32.1-90.6-14.9-2.3-14.7-5-22.1,7.1-45.9,4.7-9.3,7.6-23.2,14.8-41.4,8.7-22.1,20.4-47.5,28.3-74.9,15.2-52.6,60.6-88.9,114.2-108.3,33-11.9,60.9-22.2,79-20,14.8,1.8,23,2.5,24,5.5"/><path class="cls-1" d="M1561.9,473c13.5-11.3,14.8-19.3,14.6-26.2-1.3-34.4-83.3-31.6-87.6-15-2.1-16.2-6.3-24.4,4.2-49,4.1-9.7,6.5-23.9,13.4-42.5,8.3-22.5,20-48.2,28.2-75.7,15.7-52.6,61.6-89.1,116.1-107.9,33.6-11.5,62.2-20.9,80.5-17.9,15.1,2.5,23.8,4.1,25,8.1"/><path class="cls-1" d="M1559.5,472.3c13-11,14.2-18.8,14-25.5-1.3-33.4-80.4-31.1-84.6-15.1-2-17.8-7.7-26.8,1.2-52.1,3.6-10.1,5.5-24.5,12.1-43.7,7.9-22.9,19.5-48.9,28-76.4,16.2-52.6,62.6-89.3,118-107.5,34.2-11.1,63.5-19.6,81.9-15.8,15.4,3.2,24.6,5.8,26.1,10.7"/><path class="cls-1" d="M1557.1,471.5c12.4-10.6,13.6-18.2,13.4-24.7-1.4-32.5-77.6-30.6-81.6-15.2-1.8-19.4-9.1-29.1-1.7-55.2,3-10.5,4.4-25.2,10.8-44.8,7.5-23.2,19-49.5,27.8-77.1,16.8-52.7,63.6-89.5,120-107.1,34.7-10.8,64.8-18.3,83.4-13.7,15.8,3.9,25.3,7.5,27.2,13.3"/><path class="cls-1" d="M1554.7,470.7c11.9-10.3,13-17.6,12.8-24-1.5-31.5-74.7-30.1-78.6-15.3-1.6-20.9-10.5-31.4-4.6-58.4,2.4-10.9,3.3-25.9,9.4-46,7.1-23.6,18.5-50.2,27.6-77.9,17.3-52.8,64.6-89.7,121.9-106.6,35.3-10.4,65.4-13.5,84.9-11.6,16.7,1.7,26.1,9.2,28.3,15.9"/><path class="cls-1" d="M1552.3,469.9c11.4-10,12.5-17,12.2-23.2-1.5-30.6-71.8-29.5-75.5-15.4-1.4-22.5-11.9-33.7-7.5-61.5,1.8-11.3,2.3-26.6,8-47.1,6.8-23.9,18-50.8,27.4-78.6,17.8-52.8,65.6-89.9,123.8-106.2,35.9-10,66.5-12.3,86.3-9.4,17.2,2.5,26.9,10.8,29.3,18.5"/><path class="cls-1" d="M1549.9,469.1c10.9-9.6,11.9-16.5,11.6-22.5-1.6-29.7-69-29-72.5-15.5-1.3-24-13.4-36-10.4-64.6,1.2-11.6,1.2-27.3,6.7-48.2,6.4-24.3,17.5-51.5,27.2-79.4,18.3-52.8,66.6-90.1,125.7-105.8,36.4-9.6,67.5-11.1,87.8-7.3,17.6,3.3,27.7,12.5,30.4,21.1"/><path class="cls-1" d="M1547.5,468.4c10.4-9.3,11.3-15.9,11-21.7-1.6-28.7-66.1-28.5-69.5-15.6-1.1-25.6-14.8-38.3-13.3-67.8.6-12,.2-28,5.4-49.4,6-24.7,17-52.2,27-80.1,18.8-52.9,67.6-90.3,127.6-105.4,37-9.2,68.6-9.9,89.3-5.2,18.1,4.2,28.4,14.2,31.5,23.6"/><path class="cls-1" d="M1545.1,467.6c9.9-8.9,10.7-15.3,10.3-21-1.7-27.8-63.3-28-66.5-15.7-.9-27.2-16.2-40.5-16.3-70.9,0-12.4-.9-28.7,4-50.5,5.6-25,16.5-52.8,26.8-80.9,19.4-52.9,68.6-90.5,129.5-104.9,37.6-8.8,69.7-8.7,90.7-3.1,18.5,5,29.2,15.9,32.6,26.2"/><path class="cls-1" d="M1542.7,466.8c9.4-8.6,10.1-14.8,9.7-20.2-1.8-26.8-60.4-27.5-63.5-15.8-.7-28.7-17.7-42.8-19.2-74-.6-12.8-1.9-29.4,2.7-51.7,5.2-25.4,16-53.5,26.6-81.6,19.9-53,69.6-90.7,131.5-104.5,38.1-8.5,70.7-7.5,92.2-.9,18.9,5.8,30,17.5,33.6,28.8"/><path class="cls-1" d="M1540.3,466c8.9-8.2,9.5-14.2,9.1-19.5-1.8-25.9-57.6-27-60.5-15.9-.6-30.3-19.1-45.1-22.1-77.1-1.2-13.1-2.9-30.1,1.3-52.8,4.8-25.8,15.5-54.1,26.4-82.4,20.4-53,70.6-90.9,133.4-104.1,38.7-8.1,71.8-6.3,93.7,1.2,19.3,6.6,30.8,19.2,34.7,31.4"/><path class="cls-1" d="M1537.9,465.3c8.4-7.9,8.9-13.6,8.5-18.7-1.9-24.9-54.7-26.4-57.5-16-.4-31.8-20.6-47.4-25-80.3-1.8-13.5-4-30.8,0-53.9,4.5-26.1,15-54.8,26.2-83.1,20.9-53.1,71.6-91.1,135.3-103.7,39.3-7.7,72.8-5.1,95.1,3.3,19.8,7.5,31.5,20.9,35.8,34"/><path class="cls-1" d="M1535.5,464.5c7.8-7.5,8.3-13,7.9-18-1.9-24-51.8-25.9-54.5-16.1-.2-33.4-22-49.6-27.9-83.4-2.4-13.9-5-31.5-1.4-55.1,4.1-26.5,14.5-55.5,26-83.9,21.4-53.2,72.6-91.3,137.2-103.2,39.8-7.3,73.8-3.9,96.6,5.4,20.2,8.3,32.3,22.6,36.8,36.6"/><path class="cls-1" d="M1533.1,463.7c7.3-7.2,7.7-12.5,7.3-17.2-2-23.1-49-25.4-51.5-16.3,0-35-23.5-51.9-30.8-86.5-3-14.3-6.1-32.2-2.7-56.2,3.7-26.9,14-56.1,25.8-84.6,21.9-53.2,73.6-91.5,139.1-102.8,40.4-6.9,74.9-2.8,98,7.5,20.6,9.1,33.1,24.2,37.9,39.2"/><path class="cls-1" d="M1530.7,463c6.8-6.8,7.2-11.9,6.7-16.5-2-22.1-46.1-24.9-48.5-16.3.2-36.5-24.9-54.1-33.7-89.6-3.6-14.6-7.1-32.9-4.1-57.4,3.4-27.3,13.6-56.8,25.6-85.3,22.5-53.3,74.6-91.7,141-102.4,41-6.5,75.9-1.6,99.5,9.7,21,10,33.9,25.9,39,41.8"/><path class="cls-1" d="M1528.3,462.2c6.3-6.5,6.6-11.3,6.1-15.7-2.1-21.2-43.3-24.4-45.4-16.5.3-38.1-26.4-56.4-36.7-92.8-4.2-15-8.1-33.6-5.4-58.5,3-27.6,13.1-57.4,25.4-86.1,23-53.3,75.6-91.9,143-102,41.5-6.2,76.9-.4,101,11.8,21.4,10.8,34.6,27.6,40,44.4"/><path class="cls-1" d="M1525.9,461.4c5.8-6.1,6-10.8,5.5-15-2.1-20.2-40.4-23.8-42.4-16.5.5-39.6-27.8-58.6-39.6-95.9-4.8-15.4-9.2-34.3-6.8-59.6,2.6-28,12.6-58.1,25.2-86.8,23.5-53.4,76.6-92.1,144.9-101.5,42.1-5.8,77.9.8,102.4,13.9,21.8,11.6,35.4,29.2,41.1,46.9"/><path class="cls-1" d="M1523.5,460.6c5.3-5.8,5.4-10.2,4.9-14.2-2.2-19.3-37.5-23.3-39.4-16.6.7-41.2-29.3-60.9-42.5-99-5.4-15.7-10.2-35-8.1-60.8,2.3-28.4,12.1-58.8,25-87.6,24-53.4,77.6-92.3,146.8-101.1,42.7-5.4,78.9,2,103.9,16,22.2,12.4,36.2,30.9,42.2,49.5"/><path class="cls-1" d="M1521.1,459.9c4.8-5.4,4.8-9.6,4.3-13.4-2.2-18.3-34.7-22.8-36.4-16.8.9-42.8-30.7-63.1-45.4-102.1-6-16.1-11.2-35.7-9.5-61.9,1.9-28.8,11.6-59.4,24.8-88.3,24.5-53.5,78.6-92.5,148.7-100.7,43.3-5,79.9,3.2,105.4,18.2,22.5,13.3,37,32.6,43.3,52.1"/><path class="cls-1" d="M1518.7,459.1c4.3-5.1,4.2-9,3.7-12.7-2.3-17.4-31.8-22.3-33.4-16.9,1-44.3-32.1-65.3-48.3-105.3a140.7,140.7,0,0,1-10.8-63c1.6-29.2,11.1-60.1,24.6-89.1,25-53.5,79.6-92.7,150.6-100.3,43.8-4.6,80.9,4.3,106.8,20.3,22.9,14.1,37.7,34.3,44.3,54.7"/><path class="cls-1" d="M1516.3,458.3c3.8-4.7,3.6-8.5,3.1-11.9-2.3-16.5-29-21.8-30.4-17,1.2-45.9-33.6-67.6-51.2-108.4a141.5,141.5,0,0,1-12.2-64.2c1.2-29.6,10.6-60.8,24.4-89.8,25.6-53.6,80.7-92.9,152.6-99.9,44.4-4.2,81.9,5.5,108.3,22.4,23.3,14.9,38.5,35.9,45.4,57.3"/><path class="cls-1" d="M1513.9,457.5c3.3-4.4,3-7.9,2.5-11.2-2.4-15.5-26.1-21.2-27.4-17.1,1.4-47.5-35-69.8-54.1-111.5a141.68,141.68,0,0,1-13.5-65.3c.8-29.9,10.1-61.4,24.2-90.6,26-53.7,81.7-93.1,154.5-99.4,45-3.8,82.9,6.7,109.8,24.5,23.7,15.7,39.3,37.6,46.5,59.9"/><path class="cls-1" d="M1511.5,456.8c2.8-4,2.4-7.3,1.9-10.4-2.4-14.6-23.3-20.7-24.4-17.2,1.6-49-36.4-72-57-114.7a141.73,141.73,0,0,1-14.9-66.5c.5-30.3,9.6-62.1,24-91.3,26.6-53.7,82.7-93.3,156.4-99,45.5-3.5,83.9,7.8,111.2,26.6,24.1,16.5,40,39.3,47.6,62.5"/><path class="cls-1" d="M1509.1,456c2.3-3.7,1.8-6.8,1.3-9.7-2.5-13.6-20.4-20.2-21.4-17.3,1.8-50.6-37.9-74.2-60-117.8a143.43,143.43,0,0,1-16.2-67.6c.1-30.7,9.1-62.7,23.8-92,27.1-53.8,83.7-93.6,158.3-98.6,46.1-3.1,84.9,9,112.7,28.8,24.4,17.3,40.8,40.9,48.6,65.1"/><path class="cls-1" d="M1506.7,455.2c1.7-3.3,1.3-6.2.7-8.9-2.5-12.7-17.5-19.7-18.4-17.4,1.9-52.1-39.3-76.5-62.9-120.9a144.39,144.39,0,0,1-17.6-68.7c-.3-31.1,8.6-63.4,23.6-92.8,27.6-53.8,84.7-93.8,160.2-98.2,46.6-2.7,85.8,10.2,114.2,30.9,24.8,18.1,41.6,42.6,49.7,67.7"/><path class="cls-1" d="M1504.3,454.4c1.2-3,.7-5.6.1-8.2-2.6-11.7-14.7-19.2-15.4-17.5,2.1-53.7-40.7-78.7-65.8-124a145.46,145.46,0,0,1-18.9-69.9c-.6-31.5,8-64.1,23.4-93.5,28-54,85.7-94,162.1-97.7,47.2-2.3,86.8,11.3,115.6,33,25.2,18.9,42.4,44.3,50.8,70.3"/><path class="cls-1" d="M1501.9,453.6c.7-2.6.1-5-.5-7.4-2.6-10.8-11.8-18.6-12.3-17.6,2.3-55.3-42.2-80.9-68.7-127.2a146.3,146.3,0,0,1-20.3-71c-1-31.9,7.5-64.8,23.2-94.3,28.5-54,86.7-94.2,164-97.3,47.8-1.9,87.9,12.5,117.2,35.1,25.6,19.8,43.2,46,51.8,72.8"/><path class="cls-1" d="M1499.5,452.9a19.22,19.22,0,0,0-1.1-6.7c-2.7-9.9-9-18.1-9.3-17.7,2.4-56.8-43.7-83.1-71.6-130.3a148.35,148.35,0,0,1-21.6-72.1c-1.3-32.3,7-65.4,23-95,29-54,87.7-94.4,166-96.9,48.3-1.5,88.8,13.7,118.6,37.3a159.41,159.41,0,0,1,52.9,75.4"/><path class="cls-1" d="M1497.1,452.1a39.83,39.83,0,0,0-1.7-5.9,188.06,188.06,0,0,0-6.3-17.8c2.6-58.4-45.1-85.3-74.5-133.4a150.24,150.24,0,0,1-23-73.3c-1.7-32.7,6.6-66.1,22.8-95.8,29.6-54.1,88.7-94.6,167.9-96.4,48.9-1.2,89.8,14.8,120,39.4a168.29,168.29,0,0,1,54,78"/><path class="cls-1" d="M1494.7,451.3a34.29,34.29,0,0,1-2.3-5.2,77.43,77.43,0,0,1-3.3-17.9c-1.8-60-46.5-87.6-77.4-136.6-12.7-20-22.4-43.6-24.3-74.4-2-33.1,6.1-66.8,22.6-96.5,30.1-54.1,89.7-94.8,169.8-96,49.5-.8,90.7,16,121.5,41.5,26.7,22.2,45.5,51,55,80.6"/><path class="cls-1" d="M1492.3,450.5c-6.9-6.5-3.3-20.7-3.2-22.4,4.2-86.6-98.4-107.3-106-215.3-6.7-94.4,68.5-191.9,194.2-192.9,93.4-.7,157.8,61.1,179.1,126.8"/><path class="cls-1" d="M1495,524.8c-105.6-64.9-181.1-79.3-245.5-47.5C1040.2,580.6,871,583,770.7,563.5c-299.8-58.4-391.5-226.7-513.6-141S80.5,529,59.7,529c0,0-66.1-17.8-30.8-57.6"/><path class="cls-1" d="M32.5,472.5c-33.9,38.8,31.1,55.9,31.8,55.9,21.6-2.8,76.8-21.3,197.2-104.9C382.7,339.9,479,505.4,775.4,561.8c9.5,1.8,19.7,3.4,30.4,4.7,102.5,12.4,259.1,3.5,448.1-86.8a155.89,155.89,0,0,1,52.3-14.7c55.9-5.4,116.2,12.6,192.5,59.5"/><path class="cls-1" d="M36.2,473.5C3.7,511.3,67.6,527.8,69,527.6c22.6-3.1,78-22.1,196.9-103.2,120-81.9,221,82.3,514.3,135.7,9.5,1.7,19.7,3.2,30.4,4.4,102.7,11.6,259.2,4.3,447.8-82.5a156.27,156.27,0,0,1,52.3-14.1c58.8-5.1,117.5,10.5,191.8,56.2"/><path class="cls-1" d="M39.8,474.6C8.7,511.4,71.5,527.3,73.7,527c23.6-3.4,79.4-22.8,196.7-101.6,119-80,224.6,82.1,514.6,133q14.4,2.55,30.3,4.2c102.9,11,259.4,5.3,447.5-78.3a158,158,0,0,1,52.2-13.6c61.7-4.7,118.8,8.4,191.2,52.9"/><path class="cls-1" d="M43.5,475.7c-29.7,35.8,32,51,34.8,50.6,24.5-3.7,80.8-23.4,196.5-99.9,118-78.1,228.2,81.9,514.9,130.4,9.6,1.6,19.7,3,30.3,4,103,10.2,259.5,6.3,447.2-74a157.69,157.69,0,0,1,52.3-13c64.6-4.4,120.1,6.4,190.5,49.7"/><path class="cls-1" d="M47.1,476.7c-28.3,34.8,32.3,49.4,35.8,48.8,25.5-4,82.2-24,196.2-98.3C396.2,351,511,508.8,794.4,555c9.6,1.6,19.7,2.8,30.3,3.8,103.2,9.4,259.7,7.3,446.9-69.7a162.52,162.52,0,0,1,52.3-12.4c67.6-4,121.4,4.3,189.8,46.4"/><path class="cls-1" d="M50.7,477.8c-27,33.8,32.6,47.8,36.8,47.1,26.5-4.4,83.5-24.7,196-96.6C399.5,354,519,509.6,799.1,553.4c9.6,1.5,19.7,2.6,30.3,3.5,103.3,8.7,259.9,8.2,446.6-65.4a165,165,0,0,1,52.3-11.8c70.5-3.6,122.8,2.3,189.1,43.1"/><path class="cls-1" d="M54.4,478.9c-25.6,32.8,32.9,46.2,37.8,45.3,27.5-4.7,84.9-25.3,195.8-95,115.1-72.4,239.2,81,516,122.5,9.6,1.5,19.7,2.5,30.2,3.3,103.5,7.9,260.1,9.2,446.3-61.2,16.7-6.3,34-10.4,52.2-11.2,73.4-3.2,124.1.2,188.4,39.8"/><path class="cls-1" d="M58,480c-24.2,31.8,33.2,44.6,38.8,43.6,28.5-5,86.3-26,195.5-93.3C406.4,359.9,535.2,511,808.6,550.2c9.6,1.4,19.7,2.3,30.2,3.1,103.7,7.1,260.3,10.2,446-56.9,16.7-6,34-10,52.2-10.6,76.4-2.7,125.4-1.9,187.7,36.5"/><path class="cls-1" d="M61.7,481c-22.8,30.8,33.5,43,39.8,41.8,29.5-5.3,87.8-26.6,195.3-91.7,113.1-68.5,246.6,80.3,516.6,117.3,9.7,1.3,19.7,2.2,30.2,2.8,103.9,6.3,260.5,11.2,445.7-52.6,16.7-5.8,34-10.6,52.2-10,79.3,2.4,126.7-3.9,187,33.2"/><path class="cls-1" d="M65.3,482.1c-21.4,29.7,33.8,41.4,40.8,40.1,30.5-5.6,89.2-27.2,195.1-90,112.2-66.6,250.3,79.9,517,114.6,9.7,1.3,19.7,2,30.1,2.6,104,5.5,260.7,12.3,445.4-48.3,16.7-5.5,34.1-10.2,52.2-9.5,82.2,3.3,128.1-6,186.4,29.9"/><path class="cls-1" d="M68.9,483.2c-20,28.7,34.1,39.8,41.8,38.3,31.5-5.9,90.6-27.8,194.8-88.4,111.2-64.6,254,79.5,517.3,112,9.7,1.2,19.8,1.9,30.1,2.4,104.2,4.7,260.9,13.3,445.1-44,16.7-5.2,34.1-9.7,52.2-8.9,85.1,4,129.4-8,185.7,26.6"/><path class="cls-1" d="M72.6,484.3c-18.7,27.8,34.4,38.2,42.8,36.6,32.5-6.2,92-28.4,194.6-86.8,110.3-62.7,257.7,79,517.6,109.4,9.7,1.1,19.8,1.8,30.1,2.1,104.4,3.9,261.1,14.3,444.8-39.8,16.8-4.9,34.1-9.3,52.2-8.3,88,4.8,130.7-10.1,185,23.3"/><path class="cls-1" d="M76.2,485.3C58.9,512,110.9,521.9,120,520.1c33.5-6.5,93.4-29,194.4-85.1,109.3-60.8,261.4,78.5,518,106.7,9.7,1.1,19.8,1.6,30.1,1.9,104.6,3.1,261.4,15.3,444.5-35.5,16.8-4.6,34.2-8.8,52.2-7.7,90.9,5.6,132-12.1,184.3,20"/><path class="cls-1" d="M79.8,486.4c-15.9,25.7,35.1,35,44.8,33.1,34.5-6.8,94.9-29.6,194.1-83.5C427.1,377.2,583.8,514,837,540.1c9.7,1,19.8,1.5,30,1.7,104.7,2.3,261.6,16.4,444.2-31.2,16.8-4.4,34.2-8.3,52.2-7.1,93.8,6.4,133.3-14.2,183.6,16.7"/><path class="cls-1" d="M83.5,487.5c-14.5,24.7,35.3,33.4,45.8,31.3,35.5-7.2,96.3-30.2,193.9-81.8C430.6,380.1,592,514.5,841.9,538.5c9.8.9,19.8,1.3,30,1.5,104.9,1.5,261.8,17.5,443.9-26.9,16.8-4.1,34.2-7.9,52.2-6.5,96.7,7.1,134.7-16.2,182.9,13.4"/><path class="cls-1" d="M87.1,488.5C74,512.2,122.8,520.4,134,518.1c36.5-7.5,97.8-30.8,193.6-80.2,106.5-54.9,272.6,76.9,519,98.8a296.15,296.15,0,0,0,30,1.2c105.1-.9,262.1,18.6,443.6-22.7,16.8-3.8,34.3-7.4,52.2-5.9,99.6,7.8,136-18.3,182.2,10.1"/><path class="cls-1" d="M90.8,489.6c-11.8,22.7,36,30.3,47.8,27.8,37.5-7.8,99.3-31.3,193.4-78.5,105.6-53,276.3,76.3,519.3,96.2a296.71,296.71,0,0,0,30,1c105.3-1.7,262.3,19.7,443.3-18.4,16.8-3.5,34.3-6.9,52.2-5.4,102.5,8.5,137.3-20.4,181.6,6.8"/><path class="cls-1" d="M94.4,490.7c-10.4,21.7,36.3,28.7,48.8,26.1,38.5-8.1,100.8-31.9,193.2-76.9,104.7-51,280.1,75.6,519.7,93.6,9.8.7,19.8.9,29.9.8,105.4-1,262.6,20.8,443-14.1,16.9-3.3,34.3-6.3,52.2-4.8,105.4,9.2,138.7-22.4,180.9,3.5"/><path class="cls-1" d="M98,491.8c-9,20.7,36.6,27.1,49.8,24.3,39.5-8.4,102.2-32.4,193-75.3,103.8-49,283.8,75,520,90.9,9.8.7,19.8.7,29.9.5,105.6-1.8,262.8,21.9,442.7-9.8,16.9-3,34.3-5.8,52.2-4.2,108.3,9.9,140-24.5,180.2.2"/><path class="cls-1" d="M101.7,492.8c-7.6,19.7,36.9,25.6,50.8,22.6,40.5-8.7,103.7-33,192.7-73.6,102.9-47,287.6,74.3,520.3,88.3,9.8.6,19.8.6,29.9.3,105.8-2.6,263.1,23,442.4-5.5a268.06,268.06,0,0,1,52.2-3.6c111.7,3.8,141.3-26.5,179.5-3"/><path class="cls-1" d="M105.3,493.9c-6.3,18.6,37.2,24,51.8,20.8,41.6-9,105.2-33.5,192.5-72,102-45,291.3,73.6,520.7,85.7,9.9.5,19.8.4,29.8.1,106-3.5,263.4,24.2,442.1-1.3a284.83,284.83,0,0,1,52.2-3c114.6,4.5,142.6-28.6,178.8-6.3"/><path class="cls-1" d="M109,495c-4.9,17.6,37.5,22.4,52.8,19.1,42.6-9.4,106.7-34,192.3-70.3,101.2-43,295.1,72.8,521,83,9.9.4,19.8.3,29.8-.2,106.1-4.3,263.6,25.3,441.8,3a303.36,303.36,0,0,1,52.2-2.4c117.6,5.1,143.9-30.6,178.1-9.6"/><path class="cls-1" d="M112.6,496c-3.5,16.6,37.8,20.9,53.8,17.3,43.6-9.7,108.3-34.5,192-68.7,100.3-41,298.8,72,521.3,80.4,9.9.4,19.9.1,29.8-.4,106.3-5.2,263.9,26.5,441.5,7.3a324.69,324.69,0,0,1,52.2-1.8c120.5,5.8,145.3-32.7,177.4-12.9"/><path class="cls-1" d="M116.2,497.1c-2.1,15.6,38.1,19.3,54.8,15.6,44.6-10,109.8-35,191.8-67,99.5-38.9,302.6,71.2,521.7,77.8,9.9.3,19.9-.1,29.8-.6,106.5-6,264.2,27.7,441.1,11.6a362.73,362.73,0,0,1,52.1-1.3c123.4,6.5,146.6-34.8,176.8-16.2"/><path class="cls-1" d="M119.9,498.2c-.7,14.6,38.5,17.7,55.8,13.8,45.6-10.3,111.3-35.4,191.6-65.4,98.6-36.8,306.3,80.4,522,75.1,9.9-.2,19.9-.2,29.7-.8,106.7-6.8,264.4,28.9,440.9,15.8a395.21,395.21,0,0,1,52.2-.7c126.4,7.3,147.9-36.8,176.1-19.5"/><path class="cls-1" d="M123.5,499.3c.7,13.6,38.8,16.2,56.8,12,46.7-10.6,112.9-35.8,191.3-63.7,97.8-34.8,310.2,79.2,522.3,72.5,10-.3,19.9-.4,29.7-1.1,106.8-7.7,264.7,30.1,440.5,20.1a431.29,431.29,0,0,1,52.1-.1c129.3,8,149.2-38.9,175.4-22.8"/><path class="cls-1" d="M127.1,500.3c2,12.6,39.1,14.6,57.8,10.3,47.6-10.9,114.4-36.3,191.1-62.1,97-32.6,314,77.9,522.7,69.9,10-.4,19.9-.5,29.7-1.3,107-8.6,265,31.3,440.2,24.4a476.39,476.39,0,0,1,52.1.5c132.2,8.8,150.6-41,174.7-26.1"/><path class="cls-1" d="M130.8,501.4c3.4,11.6,39.4,13,58.8,8.5,48.6-11.2,116-36.7,190.9-60.5,96.1-30.5,317.8,76.4,523,67.2,10-.5,19.9-.7,29.7-1.5,107.2-9.4,265.3,32.6,440,28.7,17.1-.4,34.4-.2,52.1,1.1,135.2,9.6,151.9-43,174-29.4"/><path class="cls-1" d="M134.4,502.5c4.8,10.6,39.7,11.5,59.8,6.8,49.6-11.5,117.5-37.1,190.6-58.8,95.4-28.4,321.6,75,523.4,64.6,10-.5,19.9-.8,29.6-1.8,107.4-10.3,265.5,30.3,439.7,33,17.1.3,34.5.3,52.1,1.7,138.1,10.4,153.2-45,173.3-32.7"/><path class="cls-1" d="M138.1,503.5c6.2,9.6,40,9.9,60.8,5,50.6-11.9,119.1-37.4,190.4-57.2,94.5-26.2,325.4,73.4,523.7,62,10-.6,19.9-1,29.6-2,107.5-11.2,265.8,35.1,439.3,37.2,17.1.2,34.5.8,52.1,2.3,141,11.2,154.5-47.1,172.6-36"/><path class="cls-1" d="M141.7,504.6c7.6,8.5,40.3,8.4,61.8,3.3,51.7-12.2,120.7-37.8,190.2-55.5,93.8-23.9,328.8,64.8,524,59.3,10-.3,19.9-1.1,29.6-2.2,107.7-12.1,266,36.4,439,41.5,17.1.5,34.5,1.4,52.1,2.8,143.9,12,155.9-49.2,172-39.3"/><path class="cls-1" d="M145.3,505.7c8.9,7.5,40.6,6.8,62.8,1.5,52.7-12.5,122.2-38.1,189.9-53.9C491,431.6,730.6,517,922.4,510c10.1-.4,19.9-1.3,29.5-2.5,107.9-13,266.3,37.6,438.7,45.8,17.1.8,34.5,1.9,52.1,3.4,146.8,12.9,157.2-51.2,171.3-42.6"/><path class="cls-1" d="M149,506.8c10.3,6.5,41,5.2,63.8-.2,53.7-12.8,123.8-38.4,189.7-52.2,92.2-19.4,336.3,62.7,524.7,54.1,10.1-.5,19.9-1.5,29.5-2.7,108-13.8,266.5,38.9,438.4,50.1,17.2,1.1,34.5,2.4,52.1,4,149.7,13.8,158.5-53.3,170.6-45.9"/><path class="cls-1" d="M152.6,507.8c11.7,5.5,41.3,3.7,64.8-2,54.7-13.1,125.4-38.7,189.5-50.6,91.4-17,340,61.6,525.1,51.4,10.1-.6,19.9-1.6,29.5-2.9C1069.7,489,1228.2,544,1399.6,558c17.2,1.4,34.5,2.9,52.1,4.6,152.6,14.7,159.8-55.3,169.9-49.2"/><path class="cls-1" d="M156.3,508.9c13.1,4.5,41.6,2.1,65.8-3.7,55.7-13.4,126.9-38.9,189.2-49C501.9,441.6,755,516.7,936.7,505c10.1-.6,20-1.8,29.5-3.1,108.4-15.6,267,41.6,437.8,58.6,17.2,1.7,34.6,3.4,52.1,5.2,155.5,15.6,161.2-57.4,169.2-52.5"/><path class="cls-1" d="M159.9,510c14.4,3.5,41.9.6,66.8-5.5,56.7-13.8,128.5-39.1,189-47.3,89.8-12.2,347.4,59.3,525.7,46.1,10.1-.8,20-1.9,29.4-3.4,108.5-16.5,267.2,42.9,437.5,62.9,17.2,2,34.6,3.9,52.1,5.8,158.4,16.5,162.5-59.5,168.5-55.8"/><path class="cls-1" d="M163.5,511c15.8,2.5,42.2-1,67.8-7.2,57.8-14.1,130-39.3,188.8-45.7,89-9.7,351.1,58.1,526.1,43.5q15.3-1.35,29.4-3.6c108.7-17.6,267.4,44.3,437.2,67.2,17.2,2.3,34.6,4.4,52.1,6.3,161.3,17.5,163.8-61.5,167.8-59"/><path class="cls-1" d="M167.2,512.1c17.2,1.5,42.5-2.5,68.8-9,58.8-14.3,131.6-39.4,188.5-44,88.1-7.1,354.8,57,526.4,40.9,10.2-1,20-2.3,29.4-3.8,108.8-18.5,267.6,45.8,436.9,71.4,17.2,2.7,34.6,5,52,6.9,164.3,18.4,165.2-63.6,167.2-62.3"/><path class="cls-1" d="M170.8,513.2c59.7,1.5,178-49,258.1-53.1,92.6-4.7,391.9,63.3,556.1,34.2,120.2-21.3,300.8,61.4,488.7,83.2,167.1,19.4,166.4-65.6,166.4-65.6"/><rect class="cls-2" width="1242" height="654.1"/></svg>