<svg width="407" height="374" viewBox="0 0 407 374" fill="none" xmlns="http://www.w3.org/2000/svg">
<rect width="407" height="374" fill="black"/>
<path d="M205.708 41.1475V183.326M205.708 183.326L263.115 231.087M205.708 183.326L72.8623 211.615" stroke="white" stroke-opacity="0.32"/>
<path d="M91.2617 207.941C96.8552 95.6674 169.889 59.2716 205.707 55.1079C247.217 104.485 250.48 184.183 246.923 217.86C203.058 245.782 124.872 222.881 91.2617 207.941Z" stroke="#23C865" stroke-width="2"/>
<path d="M231.982 204.89C204.603 226.051 149.92 210.523 126 200.114C130.416 125.167 181.322 96.1434 206.222 91C230.068 112.821 233.331 176.019 231.982 204.89Z" stroke="#23C865" stroke-width="2"/>
<path d="M155 193.375C155 153.404 189.101 128.47 206.151 121C216.16 135.402 218.908 175.251 219.031 193.375C196.362 203.662 166.898 197.661 155 193.375Z" stroke="#23C865" stroke-width="2"/>
<path d="M199.411 337.397C161.213 337.397 118.158 315.721 88.3503 281.113C72.0114 262.083 60.53 240.04 55.1574 217.335C49.1223 191.765 50.5942 165.68 59.5733 139.89C68.2579 115.054 81.2848 94.1134 98.2861 77.6544C111.902 64.502 128.167 54.2152 146.493 47.0878C177.405 35.0376 204.121 35.9928 204.93 36.0662C235.179 35.0376 269.329 46.7939 296.266 67.4411C319.671 85.4431 348.742 118.802 354.335 175.6C360.15 234.235 335.053 271.488 312.973 292.502C285.447 318.66 246.072 334.972 204.93 337.25C203.09 337.324 201.25 337.397 199.411 337.397ZM202.796 36.6541C195.878 36.6541 172.841 37.4623 146.714 47.6757C118.011 58.8442 79.7393 83.9735 60.2357 140.037C43.308 188.532 53.759 239.746 88.9391 280.599C120.071 316.75 165.555 338.72 204.857 336.515C245.778 334.238 285.006 317.999 312.384 291.915C334.317 271.047 359.34 233.941 353.526 175.6C347.932 119.096 319.008 85.8104 295.677 67.9554C268.888 47.3818 234.959 35.6989 204.857 36.7275C204.857 36.7275 204.121 36.6541 202.796 36.6541Z" fill="white"/>
<path d="M198.307 333.283C179.024 333.283 158.269 327.845 137.956 317.485C118.894 307.712 101.451 293.972 87.5408 277.881C71.9379 259.511 60.9718 238.276 55.8935 216.233C50.1528 191.177 51.7719 165.24 60.751 139.229C75.0291 98.008 101.083 68.47 138.25 51.5702C151.498 45.5451 172.989 38.1239 200.588 37.0952C201.398 37.0952 202.06 37.0217 202.207 37.0217H202.281C221.417 35.6991 242.319 39.5934 261.086 47.8964C270.948 52.2315 281.547 58.5506 290.82 65.5309C314.666 83.4594 344.253 117.039 349.993 175.38C354.483 221.009 340.499 261.569 310.544 289.637C283.387 315.06 244.453 330.931 203.753 333.209C201.987 333.209 200.147 333.283 198.307 333.283ZM202.355 37.683C202.207 37.7565 201.839 37.7565 200.588 37.83C168.941 39.0056 92.0303 51.3498 61.4133 139.449C38.5242 205.726 68.4052 254.294 88.2032 277.293C102.04 293.384 119.409 306.978 138.397 316.75C160.477 328.066 183.072 333.503 203.827 332.327C244.379 330.123 283.092 314.325 310.176 288.976C339.91 261.128 353.894 220.715 349.404 175.306C343.664 117.259 314.224 83.8268 290.526 65.9718C281.252 58.9915 270.728 52.7459 260.939 48.4107C242.171 40.2547 221.417 36.4339 202.355 37.683Z" fill="white"/>
<path d="M197.35 329.094C178.141 329.094 157.459 323.804 137.22 313.59C118.231 304.038 100.421 290.151 86.8784 274.5C67.7427 252.237 39.0393 204.991 61.8549 138.567C75.2498 99.5506 99.6845 71.1883 134.423 54.362C161.875 40.9891 187.929 39.0052 196.467 38.3439C198.012 38.197 199.337 38.1235 199.558 38.05H199.705C219.209 36.1396 240.479 39.593 258.216 47.4551C267.489 51.5699 278.161 58.1094 287.655 65.3101C303.479 77.3604 316.432 92.4233 326.221 110.205C336.893 129.456 343.443 151.279 345.798 175.159C350.214 220.641 336.893 260.319 308.263 286.771C281.473 311.459 242.981 326.89 202.722 329.094C200.883 329.094 199.116 329.094 197.35 329.094ZM199.852 38.7113C199.484 38.8583 198.675 38.9318 196.54 39.0787C130.522 44.1486 82.904 79.5648 62.5173 138.788C39.7753 204.844 68.3315 251.869 87.3936 273.986C100.788 289.563 118.599 303.45 137.514 312.929C159.52 324.024 182.041 329.314 202.649 328.212C242.76 326.008 281.105 310.725 307.748 286.11C336.23 259.805 349.478 220.421 345.062 175.159C340.646 129.75 320.112 90.8803 287.214 65.8245C277.793 58.6237 267.121 52.1577 257.921 48.043C240.331 40.2543 219.135 36.8009 199.852 38.7113Z" fill="white"/>
<path d="M196.319 324.98C177.183 324.98 156.576 319.763 136.41 309.77C117.274 300.291 99.4634 286.624 86.142 271.194C67.816 249.886 40.3637 204.183 63.0321 137.98C75.9854 100.065 99.6842 72.2907 133.466 55.6114C160.182 42.3854 185.647 40.1076 194.038 39.3729C195.657 39.2259 196.761 39.1524 197.129 39.0055C218.325 32.6129 242.76 41.2833 255.419 46.941C264.03 50.8353 274.922 57.5953 284.49 65.0165C316.874 90.0723 337.113 129.089 341.529 174.865C345.871 219.539 332.844 259.291 305.907 283.759C279.485 307.712 241.509 322.702 201.545 324.833C199.778 324.906 198.085 324.98 196.319 324.98ZM213.32 37.4625C207.948 37.4625 202.501 38.1237 197.276 39.6668C196.908 39.8137 195.804 39.8872 194.038 40.0342C129.639 45.7654 83.3453 80.5937 63.6945 138.2C41.1733 204.109 68.4048 249.518 86.6572 270.68C99.905 286.037 117.642 299.703 136.704 309.108C158.637 319.91 181.011 325.126 201.545 324.098C241.288 321.967 279.191 307.125 305.392 283.244C332.182 258.85 345.135 219.393 340.793 174.939C336.377 129.309 316.211 90.5131 284.049 65.6043C274.481 58.2566 263.662 51.4966 255.124 47.6758C245.63 43.3406 229.586 37.4625 213.32 37.4625Z" fill="white"/>
<path d="M195.289 320.792C176.154 320.792 155.62 315.722 135.527 305.949C116.244 296.617 98.4335 283.098 85.333 267.888C71.4228 251.723 62.223 233.206 57.9543 212.927C53.0232 189.267 55.084 163.844 64.063 137.245C76.4275 101.094 98.8751 74.3483 130.964 57.7424C156.503 44.5165 181.232 41.6508 190.505 40.5487C192.566 40.3282 194.038 40.1078 194.553 39.9609C210.671 34.8909 232.309 37.3157 252.549 46.4269C262.19 50.762 273.745 58.6976 281.326 64.6493C312.973 89.4846 332.918 128.501 337.334 174.571C341.603 219.099 329.312 257.821 303.626 280.82C277.278 304.406 240.626 318.514 200.515 320.645C198.748 320.792 196.982 320.792 195.289 320.792ZM194.7 40.6956C194.112 40.9161 192.787 41.063 190.579 41.2835C110.504 50.6151 77.9731 98.7428 64.799 137.539C42.4986 203.301 68.4789 247.094 85.9218 267.373C98.9487 282.51 116.686 295.956 135.895 305.288C157.68 315.868 179.981 320.938 200.441 319.91C240.405 317.852 276.836 303.745 303.111 280.305C328.65 257.454 340.867 218.952 336.598 174.645C332.182 128.869 312.384 89.999 280.884 65.2371C273.304 59.2854 261.822 51.4233 252.254 47.0882C232.162 38.0504 210.671 35.6992 194.7 40.6956Z" fill="white"/>
<path d="M194.186 316.677C175.124 316.677 154.663 311.68 134.644 302.128C115.509 293.017 97.2563 279.35 84.5973 264.581C71.3496 249.225 62.665 231.443 58.6906 211.898C54.0539 188.753 56.2619 163.403 65.2409 136.731C76.8695 102.123 98.2131 76.2587 128.683 59.8732C153.118 46.7208 176.816 43.3408 186.973 41.8713C189.402 41.5039 191.168 41.2834 191.904 41.063L192.051 41.4304L191.904 41.063C211.923 34.45 234.812 39.2996 249.605 46.0595C258.732 50.2477 270.286 58.3302 278.088 64.5023C309.073 89.1907 328.65 128.207 332.992 174.425C337.188 218.07 325.265 256.866 301.198 278.028C275.218 300.879 239.081 314.546 199.337 316.603C197.645 316.677 195.952 316.677 194.186 316.677ZM212.585 38.5648C205.741 38.5648 198.822 39.4465 192.198 41.6508C191.389 41.9447 189.696 42.1652 187.12 42.5326C124.856 51.4233 84.0821 83.1656 65.9769 136.951C45.0013 199.26 64.7993 240.481 85.1861 264.14C97.7715 278.762 115.95 292.429 135.086 301.54C156.724 311.901 178.951 316.824 199.337 315.869C238.934 313.885 274.923 300.218 300.756 277.513C324.676 256.425 336.452 217.923 332.33 174.498C327.914 128.501 308.484 89.6316 277.646 65.0901C269.918 58.918 258.363 50.8355 249.311 46.7208C239.522 42.2386 226.201 38.5648 212.585 38.5648Z" fill="white"/>
<path d="M193.155 312.562C174.166 312.562 153.706 307.712 133.834 298.381C106.382 285.522 89.6751 268.181 83.7872 261.348C64.2836 238.717 45.4424 198.525 66.3444 136.143C77.3841 103.151 97.6973 78.1689 126.548 61.9304C149.879 48.8514 172.547 45.0306 183.513 43.1937C186.31 42.7528 188.371 42.3854 189.254 42.0915C210.23 34.8907 233.266 39.5198 246.587 45.6184C255.198 49.5862 266.753 57.8891 274.702 64.2817C305.024 88.7497 324.16 127.766 328.576 174.204C332.698 217.629 321.511 255.396 298.695 275.162C273.156 297.279 237.387 310.504 198.012 312.488C196.54 312.488 194.847 312.562 193.155 312.562ZM189.548 42.6793C188.518 43.0467 186.531 43.3406 183.66 43.855C161.213 47.6758 92.9134 59.1383 67.0803 136.29C46.252 198.378 65.0196 238.276 84.376 260.834C90.2639 267.667 106.824 284.861 134.202 297.719C155.767 307.786 177.846 312.635 198.159 311.754C237.387 309.77 272.936 296.617 298.401 274.647C321.069 255.029 332.109 217.482 328.061 174.351C323.645 128.134 304.657 89.264 274.481 64.943C266.532 58.5504 255.051 50.321 246.514 46.3532C233.192 40.1076 210.377 35.552 189.548 42.6793Z" fill="white"/>
<path d="M191.756 308.447C172.768 308.447 153.044 303.818 133.025 294.56C113.816 285.669 95.1216 272.076 83.0514 258.042C64.5046 236.513 46.7673 197.79 67.5221 135.481C92.104 61.5632 158.416 48.7047 180.202 44.443C183.366 43.8551 185.574 43.4143 186.752 42.9734L186.899 43.3408L186.752 42.9734C207.286 35.6257 230.175 38.7117 243.791 45.0308C254.021 49.8068 267.71 60.6815 271.611 63.9145C301.271 88.162 320.039 127.252 324.455 173.91C328.429 216.454 317.757 254.074 296.487 272.223C271.316 293.678 235.989 306.463 197.056 308.3C195.289 308.374 193.523 308.447 191.756 308.447ZM212.217 39.52C203.9 39.52 195.216 40.6956 186.973 43.6347C185.795 44.0756 183.44 44.5164 180.275 45.1043C158.637 49.366 92.6192 62.2245 68.2581 135.628C47.6505 197.57 65.2406 236.072 83.6402 257.454C95.6368 271.415 114.257 285.008 133.393 293.825C155.178 303.892 176.595 308.447 197.056 307.492C235.842 305.729 270.949 292.944 296.046 271.562C317.095 253.633 327.767 216.16 323.792 173.91C319.45 127.472 300.756 88.6029 271.243 64.4288C267.342 61.1958 253.726 50.3946 243.57 45.6921C235.768 42.1652 224.434 39.52 212.217 39.52Z" fill="white"/>
<path d="M190.653 304.258C171.738 304.258 152.087 299.703 132.216 290.739C103.512 277.733 86.7317 259.878 82.3158 254.735C64.7993 234.308 48.1661 196.908 68.7001 134.82C91.8836 64.5016 153.633 50.9083 176.964 45.8384C180.349 45.1036 182.851 44.5158 184.25 44.0014C204.563 36.5067 228.115 38.6376 240.921 44.5893C250.268 48.9244 263.295 59.3582 268.446 63.6934C297.444 87.7205 315.844 126.81 320.186 173.689C324.087 215.939 314.151 252.53 294.132 269.357C262.411 295.955 223.257 302.936 195.952 304.185C194.186 304.258 192.419 304.258 190.653 304.258ZM184.323 44.3688L184.471 44.7362C183.072 45.2505 180.57 45.8384 177.111 46.5731C153.927 51.6431 92.4724 65.1629 69.3625 135.113C48.9757 196.834 65.4617 233.941 82.9046 254.22C87.3205 259.364 103.954 277.072 132.584 290.077C154.222 299.85 175.492 304.332 195.952 303.45C223.11 302.201 262.191 295.221 293.691 268.769C313.489 252.163 323.425 215.718 319.524 173.763C315.182 127.031 296.856 88.1614 268.005 64.2812C262.853 60.0195 249.9 49.6592 240.626 45.324C227.967 39.3724 204.563 37.315 184.471 44.7362L184.323 44.3688Z" fill="white"/>
<path d="M189.622 300.144C170.708 300.144 151.13 295.735 131.406 286.918C108.37 276.705 90.5589 261.862 81.5798 251.429C65.0202 232.177 49.4909 196.174 69.8041 134.159C79.2247 105.502 96.5203 83.1653 121.323 67.735C141.636 55.0234 162.538 49.9535 173.799 47.1614C177.258 46.2796 180.055 45.6183 181.674 45.0305L181.821 45.3979L181.674 45.0305C202.576 37.0215 226.348 38.638 238.124 44.2223C246.514 48.1901 258.805 58.036 265.355 63.4733C293.691 87.28 311.722 126.297 316.065 173.469C319.892 214.763 310.398 251.208 291.924 266.418C260.792 292.062 222.006 298.821 194.922 299.997C193.082 300.071 191.315 300.144 189.622 300.144ZM212.438 40.2545C202.723 40.2545 191.978 41.871 181.821 45.6918C180.202 46.3531 177.405 47.0144 173.872 47.8961C151.572 53.3335 92.3252 67.882 70.4665 134.379C50.2269 196.027 65.6089 231.81 82.095 250.914C91.0004 261.275 108.738 276.043 131.7 286.257C153.191 295.809 174.388 300.218 194.774 299.336C221.711 298.16 260.351 291.4 291.336 265.904C309.662 250.841 319.009 214.616 315.255 173.543C310.913 126.59 293.028 87.6474 264.84 63.9877C258.29 58.5504 246.146 48.7779 237.83 44.8101C231.794 42.0179 222.668 40.2545 212.438 40.2545Z" fill="white"/>
<path d="M188.517 296.029C169.603 296.029 150.173 291.694 130.522 283.097C107.338 272.957 89.6009 258.335 80.7691 248.122C65.2398 229.973 50.8145 195.365 70.9069 133.571C91.6617 69.9393 147.008 54.8765 170.707 48.4839C174.386 47.5287 177.257 46.7205 179.097 45.9857C199.999 37.7562 224.065 38.3441 235.252 43.7079C241.214 46.5735 250.267 53.113 262.116 63.1794C289.789 86.6922 307.453 125.782 311.721 173.249C313.561 193.749 312.384 213.22 308.115 229.532C304.067 245.183 297.59 257.013 289.421 263.626C258.878 288.314 220.533 294.854 193.669 295.956C191.977 295.956 190.284 296.029 188.517 296.029ZM179.318 46.7205C177.478 47.4553 174.534 48.2635 170.854 49.2187C147.302 55.6112 92.1769 70.6006 71.6429 133.791C51.6241 195.292 65.9022 229.679 81.3579 247.681C90.1161 257.895 107.78 272.37 130.816 282.509C152.086 291.841 173.209 296.103 193.596 295.221C220.312 294.119 258.583 287.579 288.906 263.038C297.002 256.498 303.331 244.889 307.305 229.385C311.501 213.147 312.752 193.749 310.838 173.396C306.496 126.15 288.979 87.28 261.454 63.8407C249.678 53.7743 240.699 47.3083 234.737 44.4427C223.845 39.0788 200.072 38.5645 179.318 46.7205Z" fill="white"/>
<path d="M187.488 291.841C168.573 291.841 149.216 287.653 129.786 279.277C106.382 269.21 88.3503 254.441 80.1072 244.816C65.4611 227.842 52.1398 194.631 72.085 132.91C80.4752 106.899 96.0781 86.1781 118.452 71.3356C136.999 58.9914 156.282 53.2602 167.763 49.8067C171.517 48.7046 174.461 47.8228 176.448 47.0146C197.865 38.3443 222.079 38.3443 232.309 43.2672C240.699 47.3085 253.579 58.4036 258.437 62.5918L258.878 62.9592C285.889 86.2515 303.111 125.342 307.453 173.028C311.06 212.927 302.89 248.196 287.14 260.687C263.147 279.791 231.352 290.225 192.639 291.768C190.873 291.841 189.18 291.841 187.488 291.841ZM212.805 40.6221C201.986 40.6221 188.886 42.7529 176.742 47.6759C174.681 48.4841 171.737 49.3659 167.984 50.5415C145.316 57.228 92.1774 73.0991 72.7474 133.13C52.9494 194.484 66.1235 227.475 80.6224 244.301C88.8655 253.854 106.75 268.549 130.007 278.615C151.13 287.653 172.105 291.841 192.492 291.033C231.058 289.49 262.705 279.056 286.625 260.099C302.228 247.681 310.25 212.706 306.717 173.102C302.449 125.562 285.226 86.6924 258.363 63.547L257.921 63.1796C253.064 58.9914 240.258 47.9698 231.941 43.9285C227.672 41.7977 220.828 40.6221 212.805 40.6221Z" fill="white"/>
<path d="M186.383 287.727C167.468 287.727 148.185 283.612 128.903 275.456C97.7705 262.303 81.0636 243.567 79.2972 241.509C65.6815 225.638 53.5377 193.822 73.1886 132.248C91.5882 74.7891 141.12 58.771 164.966 51.0559C168.572 49.8803 171.663 48.8516 173.871 47.9698C197.202 38.3443 221.122 38.7117 229.438 42.7529C237.387 46.6472 250.046 57.6689 254.756 61.8571L255.639 62.6653C289.421 92.1298 300.093 138.788 303.184 172.734C306.643 211.604 299.062 246.579 284.784 257.748C261.306 276.044 229.953 286.11 191.461 287.58C189.769 287.653 188.076 287.727 186.383 287.727ZM174.019 48.3372L174.166 48.7046C171.958 49.5863 169.014 50.615 165.187 51.7907C141.488 59.4323 92.177 75.4504 73.9245 132.542C54.3473 193.749 66.3439 225.344 79.886 241.068C81.6524 243.126 98.2857 261.789 129.197 274.795C150.099 283.612 171.001 287.653 191.388 286.918C229.659 285.449 260.938 275.456 284.269 257.233C298.4 246.212 305.834 211.531 302.448 172.881C299.43 139.082 288.759 92.5706 255.198 63.2531L254.315 62.4449C249.604 58.3302 237.019 47.3085 229.144 43.4877C220.974 39.5199 197.349 39.1526 174.239 48.7781L174.019 48.3372Z" fill="white"/>
<path d="M185.353 283.538C166.439 283.538 147.229 279.571 128.094 271.635C102.629 261.054 84.965 245.624 78.562 238.203C65.903 223.507 54.8632 193.014 74.3668 131.661C91.6625 77.0668 139.502 60.314 162.464 52.305C165.997 51.0558 169.015 50.0272 171.37 48.9985L171.517 49.3659L171.37 48.9985C195.142 38.9321 219.135 38.6382 226.569 42.312C234.149 46.0594 246.587 57.1545 251.224 61.3427C251.739 61.7835 252.107 62.1509 252.475 62.4448C285.374 91.5419 295.898 138.347 298.916 172.587C302.228 210.428 295.31 245.036 282.43 254.956C259.173 272.737 229.071 282.142 190.358 283.538C188.665 283.538 186.973 283.538 185.353 283.538ZM212.511 40.8425C201.692 40.8425 186.605 43.2672 171.591 49.6598C169.309 50.615 166.218 51.7171 162.685 52.9663C139.796 60.9753 92.2513 77.6547 75.0292 131.881C55.6728 192.941 66.4918 223.14 79.0771 237.762C85.4802 245.183 102.997 260.466 128.315 270.974C148.996 279.571 169.824 283.538 190.211 282.73C228.777 281.261 258.731 272.002 281.841 254.294C292.881 245.918 301.934 215.204 298.18 172.587C295.162 138.494 284.712 91.8358 251.96 62.9592C251.666 62.6653 251.224 62.2979 250.709 61.857C246.072 57.6688 233.708 46.6472 226.201 42.9733C223.551 41.6507 218.694 40.8425 212.511 40.8425Z" fill="white"/>
<path d="M184.25 279.424C165.335 279.424 146.199 275.529 127.211 267.814C95.0483 254.735 78.415 235.705 77.7526 234.896C70.9079 226.961 66.7128 215.939 65.2409 202.126C63.1801 183.021 66.9751 159.005 75.8069 130.937C92.1458 79.062 136.263 62.3715 160.109 53.3338C163.495 52.0847 166.365 50.9825 168.647 49.9538C192.198 39.7405 216.56 38.2709 223.551 41.7978C230.911 45.3982 243.129 56.6403 247.765 60.8285C248.354 61.3428 248.869 61.7837 249.164 62.0776C263.074 74.4953 274.04 91.3216 281.841 112.189C288.318 129.603 292.587 149.81 294.574 172.22C296.193 191.104 295.531 208.959 292.587 223.948C289.864 237.983 285.374 247.902 280.001 251.943C249.752 274.648 213.689 278.469 189.181 279.277C187.562 279.424 185.942 279.424 184.25 279.424ZM169.015 50.6886C166.66 51.7173 163.789 52.8194 160.404 54.0686C136.631 63.0328 92.7346 79.6498 76.5429 131.157C67.7111 159.152 63.9897 183.021 65.9768 202.052C67.4488 215.645 71.5703 226.52 78.3414 234.456C79.0038 235.264 95.5635 254.148 127.505 267.153C147.966 275.456 168.72 279.35 189.107 278.616C213.542 277.734 249.458 273.986 279.56 251.429C289.201 244.155 297.518 214.029 293.838 172.367C289.569 123.211 273.893 85.2965 248.722 62.7389C248.354 62.445 247.912 62.0041 247.324 61.4898C242.761 57.2281 230.543 46.0595 223.331 42.5326C216.56 39.2261 192.051 40.6957 169.015 50.6886Z" fill="white"/>
<path d="M183.219 275.309C164.231 275.309 145.169 271.561 126.475 264.067C100.568 253.706 82.831 238.35 77.0903 231.663C68.3321 221.45 56.8919 194.936 76.9843 130.569C92.2928 81.1925 135.086 63.6203 158.27 54.2887C161.287 53.0396 163.937 52.0109 166.145 50.9822C189.696 40.5484 214.572 38.2706 220.755 41.3567C227.894 44.8836 240.038 56.2726 244.601 60.5343C245.263 61.1221 245.778 61.6364 246.073 61.9303C271.17 84.6349 286.037 121.667 290.379 172.073C293.838 211.898 286.625 242.538 277.72 249.077C248.649 270.533 214.572 274.28 188.077 275.235C186.458 275.235 184.839 275.309 183.219 275.309ZM212.07 40.8423C201.84 40.8423 184.544 43.6345 166.513 51.6435C164.231 52.6722 161.655 53.7009 158.564 54.95C135.528 64.2816 92.8816 81.7068 77.6467 130.79C57.6279 194.789 68.9209 221.082 77.6055 231.149C83.3462 237.762 100.936 253.045 126.696 263.332C146.935 271.414 167.543 275.162 188.003 274.427C214.352 273.545 248.281 269.798 277.205 248.416C285.963 241.95 293.028 211.604 289.569 172C285.227 121.741 270.434 84.8553 245.484 62.2977C245.189 62.0038 244.674 61.5629 244.012 60.9016C239.449 56.64 227.379 45.3979 220.387 41.871C218.988 41.2832 216.044 40.8423 212.07 40.8423Z" fill="white"/>
<path d="M182.188 271.121C163.2 271.121 144.211 267.447 125.665 260.173C92.9869 247.387 76.5008 228.504 76.3536 228.283C72.6737 223.948 67.9634 215.572 66.7858 199.921C65.3874 181.625 69.6973 157.977 78.3819 129.688C84.6378 109.335 96.2988 92.0562 114.036 78.3894C129.05 66.8535 145.168 59.9466 156.87 54.8766C159.299 53.848 161.581 52.8927 163.568 51.9375C188.518 40.622 212.953 38.3442 217.884 40.8425C224.802 44.3694 236.872 55.8318 241.435 60.167C242.098 60.8283 242.613 61.2692 242.907 61.5631C267.636 84.1941 281.767 120.272 286.183 171.779C289.495 210.502 283.166 240.554 275.438 246.138C247.249 266.492 214.866 270.165 186.972 271.047C185.353 271.121 183.734 271.121 182.188 271.121ZM163.715 52.3049L163.862 52.6723C161.875 53.554 159.594 54.5827 157.165 55.6114C133.172 65.8983 93.4696 83.1767 79.0443 129.982C58.5839 196.258 70.5393 220.495 76.8688 227.842C77.016 228.063 93.4285 246.8 125.885 259.511C145.904 267.373 166.438 270.974 186.899 270.312C214.719 269.431 246.955 265.757 274.923 245.551C282.577 240.04 288.538 209.106 285.374 171.853C281.031 120.565 266.9 84.635 242.318 62.1509C242.024 61.9305 241.509 61.4161 240.846 60.7548C236.357 56.4197 224.287 44.9572 217.516 41.5038C212.805 39.1525 188.223 41.5772 163.862 52.5988L163.715 52.3049Z" fill="white"/>
<path d="M181.305 267.006C162.096 267.006 143.108 263.479 124.782 256.425C97.4767 245.918 79.9603 230.193 75.5444 225.05C69.8037 218.364 59.2467 195.67 79.5599 129.173C93.3964 83.8376 132.583 65.898 156.356 55.1703C157.975 54.4355 159.594 53.7007 161.066 53.0394C186.825 41.2096 211.186 38.4909 215.087 40.4748C221.858 43.9282 234.296 56.1255 238.418 60.0933C239.08 60.7546 239.522 61.1954 239.743 61.3424C263.809 83.606 277.572 119.683 281.988 171.558C285.006 207.93 279.78 238.57 273.083 243.272C245.999 262.45 215.161 265.977 185.942 266.932C184.323 267.006 182.777 267.006 181.305 267.006ZM210.671 40.5483C201.987 40.5483 181.821 44.2221 161.287 53.6272C159.815 54.2885 158.269 55.0233 156.576 55.7581C132.878 66.4123 93.9116 84.2785 80.2222 129.32C71.6112 157.609 67.4161 180.901 68.4465 198.756C69.3297 214.187 73.4836 221.523 76.0595 224.462C76.2067 224.683 92.84 243.272 125.003 255.617C144.653 263.185 165.114 266.712 185.721 266.124C214.866 265.169 245.557 261.642 272.494 242.611C278.235 238.57 284.27 209.546 281.032 171.558C276.689 119.904 262.926 83.9734 239.08 61.8567C238.86 61.6363 238.418 61.1954 237.756 60.5341C233.708 56.5663 221.27 44.4426 214.572 40.9891C213.983 40.7687 212.658 40.5483 210.671 40.5483Z" fill="white"/>
<path d="M180.275 262.891C160.992 262.891 142.078 259.437 123.972 252.604C91.3681 240.333 74.9556 221.891 74.8084 221.744C72.0117 218.437 59.8353 198.683 80.9581 128.585C94.2058 84.4988 133.246 65.8245 157.092 54.6559L158.49 53.9946C183.955 42.0913 208.905 38.2705 212.143 39.9605C218.841 43.4139 231.279 55.9051 235.327 59.9463C235.916 60.5341 236.284 60.9015 236.431 61.0485C267.563 90.219 274.849 137.906 277.572 171.265C280.59 207.783 275.364 237.027 270.581 240.333C243.055 259.438 211.775 261.936 184.618 262.744C183.219 262.817 181.747 262.891 180.275 262.891ZM158.564 54.362L158.711 54.7294L157.312 55.3907C133.614 66.4858 94.721 85.1601 81.5469 128.879C60.5713 198.536 72.5269 218.07 75.25 221.303C75.3972 221.45 91.7361 239.746 124.119 251.943C143.549 259.291 163.863 262.67 184.544 262.083C211.555 261.274 242.76 258.776 270.065 239.819C274.702 236.586 279.707 207.709 276.689 171.412C273.966 138.2 266.68 90.6599 235.768 61.6363C235.621 61.4893 235.18 61.122 234.591 60.5341C230.543 56.4929 218.178 44.0752 211.555 40.6952C208.758 39.2257 184.029 42.7526 158.49 54.7294L158.564 54.362Z" fill="white"/>
<path d="M179.171 258.703C159.815 258.703 141.047 255.396 123.089 248.783C90.7791 236.88 74.1458 218.584 73.9986 218.437C72.5266 216.674 60.7923 199.638 82.0623 128.218C94.9421 84.7192 135.821 64.5753 155.84 55.0232C182.483 42.3116 207.286 38.4908 209.273 39.5195C213.689 41.7973 221.49 48.7042 232.456 59.9462C232.898 60.3871 233.192 60.7545 233.339 60.8279C263.22 89.1902 270.433 134.673 273.451 171.118C276.321 206.166 271.905 235.19 268.372 237.541C239.522 257.086 207.212 258.041 183.66 258.703C182.115 258.703 180.643 258.703 179.171 258.703ZM155.987 55.3171L156.135 55.6845C136.189 65.1631 95.5308 85.2335 82.7247 128.438C74.3345 156.801 69.3619 179.567 69.7299 196.761C70.0243 211.971 73.7778 217.114 74.5138 217.923C74.661 218.07 91.2207 236.219 123.31 248.048C142.445 255.102 162.685 258.409 183.44 257.894C206.918 257.233 239.154 256.351 267.784 236.88C270.654 234.969 275.438 207.415 272.494 171.118C269.55 134.82 262.337 89.4841 232.604 61.3423C232.53 61.2688 232.235 60.9749 231.72 60.4605C220.828 49.2185 213.1 42.3851 208.758 40.1073C206.918 39.1521 181.968 43.2668 156.061 55.611L155.987 55.3171Z" fill="white"/>
<path d="M178.14 254.588C158.784 254.588 140.016 251.355 122.353 244.963C90.4109 233.427 73.4833 215.278 73.3361 215.131C72.1585 213.735 69.877 207.857 69.877 195.733C69.877 178.686 74.9226 155.625 83.2393 127.263C96.0454 89.2753 128.314 68.1026 153.338 55.9788C180.422 42.8998 205.298 38.4177 206.402 39.0055C210.745 41.2833 218.988 48.778 229.586 60.0201C229.88 60.314 230.027 60.4609 230.101 60.5344C258.952 88.1619 266.017 131.807 269.108 170.824C271.831 205.064 267.857 233.353 265.943 234.602C238.123 253.045 207.801 253.853 183.44 254.515H182.483C181.011 254.588 179.539 254.588 178.14 254.588ZM153.632 56.7136C128.682 68.7639 96.7814 90.01 83.9016 127.484C63.1469 198.536 73.7041 214.543 73.8513 214.69C73.9985 214.837 90.7789 232.839 122.574 244.301C141.488 251.135 161.581 254.368 182.483 253.853H183.44C207.727 253.266 237.976 252.457 265.575 234.088C267.047 232.839 271.169 205.799 268.372 170.971C265.281 132.101 258.216 88.6028 229.586 61.1222C229.512 61.0487 229.365 60.9018 229.071 60.6079C218.472 49.3658 210.303 41.9446 206.034 39.7403C204.857 39.4464 180.275 43.855 153.632 56.7136Z" fill="white"/>
<path d="M177.037 250.473C157.607 250.473 138.913 247.314 121.47 241.142C89.6018 229.826 72.6741 212.045 72.5269 211.824L72.4533 211.751C72.0853 211.089 64.9139 194.274 84.2703 126.895C97.1913 92.8865 125.665 69.278 150.762 57.0073C177.92 43.7079 203.017 38.6379 203.312 38.5645H203.459L203.606 38.6379C210.451 43.0466 226.274 59.6525 226.937 60.3872C259.435 91.4793 262.411 139.155 264.914 170.677C267.563 204.844 263.883 231.222 263.883 231.516V231.737L263.662 231.81C235.327 243.566 207.654 249.812 181.453 250.473C179.907 250.4 178.509 250.473 177.037 250.473ZM73.1157 211.383C74.0725 212.339 90.8529 229.532 121.764 240.48C140.385 247.093 160.404 250.179 181.379 249.665C207.433 249.077 234.959 242.832 263.147 231.149C263.515 228.577 266.754 203.154 264.178 170.677C261.675 139.229 258.331 92.685 226.421 60.8281C226.274 60.6812 210.156 43.7813 203.312 39.2992C201.251 39.7401 177.11 44.8835 151.13 57.6686C127.325 70.6065 97.5592 93.2539 85.0063 127.116C66.2386 192.364 72.6741 210.355 73.1157 211.383Z" fill="white"/>
</svg>
