<svg width="319" height="93" viewBox="0 0 319 93" fill="none" xmlns="http://www.w3.org/2000/svg">
<g clip-path="url(#clip0)">
<path d="M0.103516 30.1719H86.5191H139.459L147.922 34.5075H180.977" stroke="#48B864" stroke-width="4"/>
<path d="M0.214844 52.9629H55.4281L62.8779 64.077H81.3274" stroke="white" stroke-width="4" stroke-miterlimit="10"/>
<path d="M252.508 41.4025C252.508 40.5016 252.775 39.621 253.274 38.872C253.773 38.1229 254.483 37.5391 255.313 37.1944C256.144 36.8496 257.057 36.7594 257.939 36.9352C258.82 37.1109 259.63 37.5447 260.265 38.1817C260.901 38.8187 261.333 39.6303 261.509 40.5139C261.684 41.3975 261.594 42.3133 261.25 43.1456C260.906 43.9779 260.324 44.6892 259.577 45.1897C258.829 45.6902 257.951 45.9574 257.052 45.9574C255.847 45.9574 254.691 45.4775 253.839 44.6233C252.987 43.7691 252.508 42.6105 252.508 41.4025V41.4025ZM258.614 41.4025C258.614 41.0928 258.523 40.79 258.351 40.5324C258.179 40.2749 257.935 40.0741 257.65 39.9556C257.365 39.8371 257.05 39.8061 256.747 39.8665C256.444 39.9269 256.166 40.0761 255.947 40.2951C255.729 40.5141 255.58 40.7932 255.52 41.097C255.46 41.4008 255.49 41.7157 255.609 42.0018C255.727 42.288 255.927 42.5326 256.184 42.7047C256.441 42.8768 256.743 42.9686 257.052 42.9686C257.466 42.9676 257.863 42.8022 258.156 42.5087C258.448 42.2153 258.613 41.8175 258.614 41.4025V41.4025Z" fill="#D1D3D4"/>
<path d="M276.651 16.461C276.652 15.5603 276.919 14.6801 277.419 13.9316C277.919 13.1831 278.628 12.5999 279.459 12.2557C280.289 11.9116 281.203 11.822 282.084 11.9982C282.965 12.1744 283.774 12.6085 284.409 13.2457C285.044 13.8828 285.477 14.6944 285.652 15.5779C285.827 16.4613 285.736 17.3769 285.392 18.209C285.048 19.041 284.466 19.7522 283.719 20.2525C282.972 20.7528 282.093 21.0198 281.195 21.0198C279.99 21.0177 278.835 20.5366 277.983 19.682C277.131 18.8274 276.652 17.6691 276.651 16.461V16.461ZM282.757 16.461C282.758 16.1511 282.667 15.8479 282.496 15.5899C282.325 15.3318 282.081 15.1304 281.796 15.0113C281.51 14.8921 281.196 14.8606 280.893 14.9205C280.589 14.9805 280.311 15.1294 280.092 15.3482C279.873 15.5671 279.724 15.8461 279.663 16.15C279.602 16.4539 279.633 16.769 279.751 17.0554C279.869 17.3418 280.07 17.5867 280.327 17.7589C280.584 17.9312 280.886 18.0231 281.195 18.0231C281.608 18.0221 282.004 17.8573 282.297 17.5647C282.59 17.2721 282.755 16.8754 282.757 16.461V16.461Z" fill="#D1D3D4"/>
<path d="M247.42 64.01C247.42 63.1082 247.687 62.2266 248.187 61.4768C248.687 60.7271 249.398 60.1427 250.229 59.7978C251.06 59.4529 251.975 59.3628 252.857 59.5391C253.739 59.7153 254.549 60.1499 255.185 60.7878C255.821 61.4258 256.254 62.2385 256.429 63.1231C256.604 64.0076 256.513 64.9244 256.169 65.7573C255.824 66.5903 255.24 67.302 254.492 67.8025C253.743 68.3029 252.864 68.5696 251.964 68.5688C250.759 68.5667 249.604 68.0856 248.752 67.231C247.9 66.3764 247.421 65.2181 247.42 64.01V64.01ZM253.53 64.01C253.53 63.6995 253.439 63.3959 253.267 63.1377C253.094 62.8795 252.85 62.6783 252.564 62.5594C252.277 62.4406 251.962 62.4095 251.659 62.4701C251.355 62.5307 251.076 62.6802 250.857 62.8998C250.638 63.1194 250.488 63.3991 250.428 63.7037C250.368 64.0083 250.399 64.3239 250.517 64.6108C250.636 64.8977 250.836 65.143 251.094 65.3155C251.352 65.488 251.654 65.5801 251.964 65.5801C252.379 65.579 252.777 65.4133 253.071 65.1191C253.364 64.8248 253.529 64.4261 253.53 64.01Z" fill="#D1D3D4"/>
<path d="M272.107 36.1056C272.107 35.2048 272.374 34.3241 272.873 33.5751C273.372 32.8261 274.082 32.2422 274.912 31.8975C275.742 31.5528 276.656 31.4626 277.537 31.6383C278.419 31.8141 279.228 32.2479 279.864 32.8849C280.499 33.5219 280.932 34.3335 281.107 35.217C281.283 36.1006 281.193 37.0164 280.849 37.8487C280.505 38.681 279.923 39.3924 279.175 39.8928C278.428 40.3933 277.55 40.6605 276.651 40.6605C275.447 40.6584 274.292 40.1778 273.44 39.3241C272.589 38.4703 272.109 37.313 272.107 36.1056ZM278.213 36.1056C278.213 35.7959 278.122 35.4931 277.95 35.2356C277.778 34.978 277.534 34.7773 277.249 34.6587C276.963 34.5402 276.649 34.5092 276.346 34.5696C276.043 34.63 275.765 34.7792 275.546 34.9982C275.328 35.2173 275.179 35.4963 275.119 35.8001C275.058 36.1039 275.089 36.4188 275.208 36.705C275.326 36.9911 275.526 37.2357 275.783 37.4078C276.04 37.5799 276.342 37.6717 276.651 37.6717C277.065 37.6707 277.462 37.5053 277.755 37.2119C278.047 36.9184 278.212 36.5207 278.213 36.1056V36.1056Z" fill="#D1D3D4"/>
<path d="M295.367 40.6525C295.367 39.7516 295.633 38.871 296.133 38.122C296.632 37.3729 297.342 36.7891 298.172 36.4444C299.002 36.0996 299.916 36.0094 300.797 36.1852C301.679 36.3609 302.488 36.7947 303.124 37.4317C303.759 38.0687 304.192 38.8803 304.367 39.7639C304.543 40.6475 304.453 41.5633 304.109 42.3956C303.765 43.2279 303.182 43.9392 302.435 44.4397C301.688 44.9402 300.809 45.2074 299.911 45.2074C298.706 45.2052 297.552 44.7247 296.7 43.8709C295.848 43.0172 295.369 41.8599 295.367 40.6525V40.6525ZM301.473 40.6525C301.473 40.3428 301.381 40.04 301.21 39.7824C301.038 39.5249 300.794 39.3241 300.509 39.2056C300.223 39.0871 299.909 39.0561 299.606 39.1165C299.303 39.1769 299.025 39.3261 298.806 39.5451C298.588 39.7641 298.439 40.0432 298.378 40.347C298.318 40.6508 298.349 40.9657 298.467 41.2518C298.586 41.538 298.786 41.7826 299.043 41.9547C299.3 42.1268 299.602 42.2186 299.911 42.2186C300.116 42.2191 300.32 42.179 300.51 42.1005C300.7 42.0221 300.873 41.9068 301.018 41.7613C301.164 41.6158 301.279 41.443 301.358 41.2528C301.436 41.0625 301.477 40.8585 301.477 40.6525H301.473Z" fill="#D1D3D4"/>
<path d="M182.793 34.3361C182.793 33.4352 183.06 32.5546 183.559 31.8056C184.059 31.0565 184.768 30.4727 185.598 30.128C186.429 29.7832 187.342 29.693 188.224 29.8688C189.105 30.0445 189.915 30.4783 190.55 31.1153C191.186 31.7523 191.618 32.5639 191.794 33.4475C191.969 34.331 191.879 35.2469 191.535 36.0792C191.191 36.9115 190.609 37.6228 189.862 38.1233C189.114 38.6238 188.236 38.8909 187.337 38.8909C186.133 38.8888 184.978 38.4083 184.127 37.5545C183.275 36.7008 182.796 35.5435 182.793 34.3361ZM188.9 34.3361C188.9 34.0264 188.808 33.7236 188.636 33.466C188.465 33.2085 188.221 33.0077 187.935 32.8892C187.65 32.7707 187.336 32.7397 187.032 32.8001C186.729 32.8605 186.451 33.0097 186.233 33.2287C186.014 33.4477 185.865 33.7268 185.805 34.0306C185.745 34.3344 185.776 34.6492 185.894 34.9354C186.012 35.2216 186.212 35.4662 186.469 35.6383C186.726 35.8103 187.028 35.9022 187.337 35.9022C187.752 35.9022 188.149 35.7372 188.442 35.4435C188.735 35.1498 188.9 34.7515 188.9 34.3361V34.3361Z" fill="#48B864"/>
<path d="M82.4956 64.1954C82.4956 63.2954 82.7616 62.4156 83.26 61.667C83.7584 60.9184 84.4669 60.3346 85.296 59.9892C86.1251 59.6439 87.0377 59.5526 87.9186 59.7267C88.7994 59.9008 89.6091 60.3327 90.2453 60.9677C90.8816 61.6027 91.3159 62.4124 91.4934 63.2947C91.671 64.1769 91.5839 65.0921 91.243 65.9247C90.9021 66.7574 90.3228 67.4701 89.5782 67.973C88.8336 68.4759 87.9571 68.7463 87.0593 68.7503C86.4612 68.7518 85.8687 68.6352 85.3156 68.4071C84.7625 68.179 84.2596 67.8439 83.8358 67.4209C83.412 66.9979 83.0755 66.4953 82.8455 65.9419C82.6155 65.3884 82.4966 64.795 82.4956 64.1954V64.1954ZM88.6017 64.1954C88.6017 63.8848 88.5095 63.5813 88.337 63.3233C88.1644 63.0654 87.9192 62.8647 87.6326 62.7467C87.3459 62.6288 87.0308 62.599 86.7272 62.661C86.4236 62.7231 86.1453 62.8742 85.9276 63.0953C85.71 63.3163 85.5628 63.5972 85.5047 63.9023C85.4467 64.2074 85.4805 64.5229 85.6018 64.8087C85.7231 65.0945 85.9264 65.3377 86.186 65.5073C86.4455 65.677 86.7495 65.7655 87.0593 65.7615C87.4702 65.7563 87.8625 65.589 88.1512 65.2958C88.4399 65.0027 88.6017 64.6074 88.6017 64.1954V64.1954Z" fill="white"/>
<path d="M125.314 86.6916C125.314 85.7907 125.581 84.9101 126.08 84.161C126.58 83.412 127.289 82.8282 128.119 82.4834C128.95 82.1387 129.863 82.0485 130.745 82.2242C131.626 82.4 132.436 82.8338 133.071 83.4708C133.707 84.1078 134.139 84.9194 134.315 85.803C134.49 86.6865 134.4 87.6023 134.056 88.4346C133.712 89.2669 133.13 89.9783 132.383 90.4788C131.635 90.9793 130.757 91.2464 129.858 91.2464C128.654 91.2443 127.499 90.7637 126.648 89.91C125.796 89.0563 125.317 87.8989 125.314 86.6916V86.6916ZM131.421 86.6916C131.421 86.3818 131.329 86.079 131.157 85.8215C130.986 85.5639 130.742 85.3632 130.456 85.2447C130.171 85.1261 129.857 85.0951 129.553 85.1556C129.25 85.216 128.972 85.3651 128.754 85.5842C128.535 85.8032 128.386 86.0822 128.326 86.386C128.266 86.6898 128.297 87.0047 128.415 87.2909C128.533 87.5771 128.733 87.8216 128.99 87.9937C129.247 88.1658 129.549 88.2577 129.858 88.2577C130.272 88.2566 130.669 88.0913 130.962 87.7978C131.255 87.5043 131.42 87.1066 131.421 86.6916V86.6916Z" fill="#545453"/>
<path d="M197.129 32.4918V36.1062H196.445L194.644 33.9105V36.1062H193.821V32.4918H194.509L196.306 34.6875V32.4918H197.129ZM197.983 32.4918H199.621C199.98 32.4841 200.336 32.5619 200.659 32.7189C200.949 32.8554 201.192 33.0744 201.359 33.3486C201.525 33.6374 201.613 33.9652 201.613 34.299C201.613 34.6327 201.525 34.9606 201.359 35.2494C201.191 35.5249 200.948 35.7463 200.659 35.887C200.335 36.0395 199.979 36.1145 199.621 36.1062H197.972L197.983 32.4918ZM199.574 35.4208C199.889 35.4372 200.198 35.33 200.436 35.1219C200.545 35.015 200.63 34.8863 200.685 34.7441C200.741 34.6019 200.766 34.4495 200.758 34.297C200.764 34.1489 200.738 34.0014 200.682 33.864C200.627 33.7267 200.543 33.6026 200.436 33.5C200.32 33.3944 200.183 33.313 200.035 33.2603C199.887 33.2077 199.73 33.1848 199.574 33.1932H198.81V35.4367L199.574 35.4208ZM204.885 34.2253C205.077 34.2815 205.247 34.3973 205.37 34.556C205.49 34.7196 205.551 34.9189 205.545 35.1219C205.551 35.2656 205.52 35.4085 205.455 35.5369C205.39 35.6652 205.294 35.7748 205.175 35.8551C204.849 36.0426 204.476 36.1299 204.101 36.1062H202.233V32.4918H203.998C204.352 32.4691 204.705 32.5568 205.008 32.7429C205.121 32.8176 205.214 32.9202 205.276 33.0409C205.339 33.1616 205.37 33.2963 205.366 33.4323C205.368 33.5984 205.323 33.7617 205.234 33.9025C205.152 34.0389 205.033 34.1504 204.893 34.2253H204.885ZM203.064 33.1214V33.9623H203.895C204.058 33.9729 204.221 33.9355 204.364 33.8547C204.416 33.8191 204.458 33.7707 204.486 33.7142C204.513 33.6576 204.526 33.5949 204.523 33.5319C204.527 33.4699 204.514 33.4081 204.486 33.3527C204.458 33.2973 204.416 33.2505 204.364 33.2171C204.221 33.1363 204.058 33.0989 203.895 33.1095L203.064 33.1214ZM204.038 35.4766C204.21 35.4881 204.382 35.4508 204.535 35.369C204.59 35.3335 204.636 35.2838 204.666 35.2249C204.696 35.1661 204.71 35.1002 204.706 35.0342C204.706 34.7314 204.483 34.5839 204.038 34.5839H203.064V35.4766H204.038Z" fill="white"/>
<path d="M93.9526 62.2554H94.8153V65.284H96.6797V65.9893H93.9526V62.2554ZM97.1647 62.2554H98.0234V65.9893H97.1647V62.2554ZM98.7548 64.1562H100.261V64.8217H98.7548V64.1562ZM100.973 62.2554H101.836V65.9893H100.973V62.2554ZM104.523 66.0531C104.158 66.0581 103.797 65.9718 103.474 65.802C103.171 65.6385 102.919 65.396 102.743 65.1003C102.567 64.8046 102.474 64.4667 102.474 64.1224C102.474 63.7781 102.567 63.4401 102.743 63.1444C102.919 62.8487 103.171 62.6063 103.474 62.4427C103.797 62.2729 104.158 62.1866 104.523 62.1916C104.886 62.1863 105.244 62.2726 105.565 62.4427C105.868 62.6048 106.121 62.8474 106.297 63.144C106.472 63.4405 106.562 63.7797 106.558 64.1244C106.564 64.4689 106.475 64.8083 106.299 65.1046C106.123 65.4009 105.869 65.6424 105.565 65.802C105.242 65.9796 104.879 66.0716 104.511 66.069L104.523 66.0531ZM104.523 65.3159C104.731 65.3198 104.937 65.2689 105.119 65.1684C105.287 65.064 105.424 64.9169 105.517 64.742C105.622 64.5534 105.675 64.3403 105.672 64.1244C105.675 63.9071 105.622 63.6927 105.517 63.5027C105.422 63.3367 105.285 63.1991 105.119 63.1042C104.937 63.0023 104.732 62.9488 104.523 62.9488C104.314 62.9488 104.109 63.0023 103.927 63.1042C103.753 63.1965 103.607 63.3342 103.505 63.5027C103.405 63.6941 103.354 63.908 103.358 64.1244C103.354 64.3395 103.405 64.5521 103.505 64.742C103.605 64.9194 103.751 65.0666 103.927 65.1684C104.104 65.2725 104.306 65.3288 104.511 65.3318L104.523 65.3159ZM110.609 62.2554V65.9893H109.906L108.045 63.7219V65.9893H107.194V62.2554H107.91L109.759 64.5229V62.2554H110.609Z" fill="white"/>
<path d="M137.888 88.8512C137.64 88.8525 137.394 88.8189 137.156 88.7516C136.954 88.6975 136.762 88.607 136.592 88.4846L136.842 87.9267C136.99 88.0327 137.154 88.1147 137.327 88.1698C137.51 88.2289 137.7 88.2598 137.892 88.2614C138.048 88.2652 138.202 88.2296 138.341 88.1578C138.386 88.1329 138.423 88.0965 138.449 88.0524C138.474 88.0082 138.488 87.9579 138.488 87.9067C138.489 87.8704 138.481 87.8344 138.465 87.8017C138.45 87.7691 138.426 87.7409 138.397 87.7195C138.331 87.6626 138.253 87.6205 138.17 87.5959C138.083 87.568 137.955 87.5322 137.8 87.4963C137.598 87.451 137.399 87.3937 137.204 87.3249C137.05 87.2665 136.914 87.1706 136.806 87.046C136.689 86.9029 136.63 86.7209 136.639 86.5359C136.638 86.3583 136.691 86.1846 136.791 86.0378C136.901 85.8747 137.057 85.7484 137.24 85.6752C137.475 85.5815 137.726 85.5368 137.979 85.5437C138.18 85.5434 138.38 85.5675 138.575 85.6154C138.755 85.6599 138.926 85.7311 139.084 85.8266L138.858 86.3885C138.591 86.2286 138.286 86.142 137.975 86.1374C137.816 86.126 137.658 86.1606 137.518 86.237C137.474 86.265 137.437 86.3038 137.411 86.3498C137.385 86.3957 137.372 86.4474 137.371 86.5001C137.371 86.5538 137.387 86.6063 137.418 86.6505C137.448 86.6947 137.492 86.7284 137.542 86.7471C137.71 86.8156 137.884 86.8676 138.063 86.9025C138.265 86.9479 138.464 87.0051 138.659 87.0739C138.813 87.1289 138.95 87.2237 139.056 87.3489C139.174 87.489 139.233 87.6684 139.223 87.851C139.225 88.0304 139.171 88.2058 139.068 88.3531C138.955 88.5126 138.797 88.6358 138.615 88.7077C138.385 88.8039 138.137 88.8527 137.888 88.8512V88.8512ZM139.74 85.6114H140.476V88.7994H139.74V85.6114ZM141.231 85.6114H141.966V88.1977H143.557V88.7994H141.227L141.231 85.6114ZM146.796 85.6114L145.421 88.7994H144.701L143.33 85.6114H144.125L145.091 87.8868L146.073 85.6114H146.796ZM149.524 88.2056V88.7994H147.087V85.6114H149.472V86.2012H147.802V86.8946H149.277V87.4684H147.802V88.2056H149.524ZM152.135 88.7994L151.519 87.9107H150.843V88.7994H150.108V85.6114H151.483C151.734 85.6061 151.983 85.6536 152.215 85.7509C152.36 85.8188 152.489 85.917 152.594 86.0389C152.698 86.1608 152.776 86.3036 152.821 86.4578C152.866 86.612 152.878 86.774 152.855 86.9332C152.833 87.0923 152.777 87.2449 152.692 87.3807C152.575 87.559 152.408 87.6979 152.211 87.7792L152.922 88.8034L152.135 88.7994ZM152.135 86.7671C152.139 86.692 152.125 86.6172 152.095 86.5482C152.066 86.4792 152.021 86.4178 151.964 86.3686C151.818 86.263 151.639 86.2123 151.46 86.2251H150.859V87.3329H151.46C151.639 87.3457 151.818 87.295 151.964 87.1895C152.022 87.1364 152.067 87.0707 152.095 86.9974C152.123 86.9241 152.134 86.8453 152.127 86.7671H152.135ZM156.29 88.8512C155.979 88.855 155.672 88.7825 155.395 88.64C155.136 88.5025 154.919 88.2957 154.77 88.0425C154.62 87.7893 154.544 87.4996 154.548 87.2054C154.544 86.9087 154.621 86.6166 154.771 86.3606C154.923 86.1121 155.139 85.9086 155.395 85.7708C155.671 85.6252 155.978 85.5512 156.29 85.5556C156.6 85.5506 156.906 85.6247 157.18 85.7708C157.437 85.907 157.651 86.1109 157.8 86.3606C157.951 86.6163 158.031 86.9081 158.031 87.2054C158.031 87.5026 157.951 87.7945 157.8 88.0502C157.651 88.2999 157.437 88.5038 157.18 88.64C156.903 88.7843 156.594 88.8569 156.282 88.8512H156.29ZM156.29 88.2256C156.467 88.2274 156.642 88.1835 156.798 88.098C156.948 88.0115 157.071 87.8845 157.152 87.7314C157.238 87.5688 157.283 87.3875 157.283 87.2034C157.283 87.0193 157.238 86.838 157.152 86.6754C157.072 86.5237 156.949 86.399 156.798 86.3167C156.643 86.2306 156.467 86.1854 156.29 86.1854C156.112 86.1854 155.937 86.2306 155.781 86.3167C155.63 86.4 155.506 86.5244 155.423 86.6754C155.339 86.8387 155.296 87.0198 155.296 87.2034C155.296 87.3871 155.339 87.568 155.423 87.7314C155.507 87.8839 155.63 88.0106 155.781 88.098C155.934 88.1822 156.107 88.2261 156.282 88.2256H156.29ZM160.468 88.7994L159.7 87.6916L158.949 88.7994H158.102L159.295 87.1775L158.178 85.6114H159.013L159.744 86.6435L160.464 85.6114H161.259L160.15 87.1496L161.342 88.7994H160.468ZM161.605 85.6114H162.344V88.7994H161.597L161.605 85.6114ZM163.095 85.6114H164.542C164.857 85.6058 165.169 85.674 165.453 85.8106C165.709 85.932 165.925 86.126 166.073 86.3686C166.219 86.6232 166.295 86.9118 166.295 87.2054C166.295 87.499 166.219 87.7875 166.073 88.0422C165.924 88.2839 165.708 88.4776 165.453 88.6001C165.169 88.7368 164.857 88.805 164.542 88.7994H163.095V85.6114ZM164.503 88.1937C164.781 88.2089 165.054 88.1129 165.262 87.9267C165.445 87.7315 165.547 87.4735 165.547 87.2054C165.547 86.9373 165.445 86.6793 165.262 86.4841C165.054 86.2979 164.781 86.2019 164.503 86.2171H163.823V88.2096L164.503 88.1937ZM169.309 88.1937V88.7874H166.848V85.5994H169.233V86.1892H167.564V86.8826H169.038V87.4564H167.564V88.1937H169.309Z" fill="white"/>
<path d="M287.034 14.9629H318.737" stroke="#D1D3D4" stroke-width="4" stroke-miterlimit="10"/>
<path d="M260.976 37.1911L276.993 20.8008" stroke="#D1D3D4" stroke-width="4" stroke-miterlimit="10"/>
<path d="M0.178711 42.5781H109.957L133.992 53.2858H245.265L252.986 45.2999" stroke="#D1D3D4" stroke-width="4" stroke-miterlimit="10"/>
<path d="M208.208 34.2986H249.583L279.653 4.16016H318.738" stroke="#D1D3D4" stroke-width="4" stroke-miterlimit="10"/>
<path d="M280.872 32.1325L283.977 28.9844H319" stroke="#D1D3D4" stroke-width="4" stroke-miterlimit="10"/>
<path d="M254.882 58.2229L272.608 40.418" stroke="#D1D3D4" stroke-width="4" stroke-miterlimit="10"/>
<path d="M251.964 93.1952V70.0703" stroke="#D1D3D4" stroke-width="4" stroke-miterlimit="10"/>
<path d="M263.043 93.2881V64.7595L286.688 40.6543H294.377" stroke="#D1D3D4" stroke-width="4" stroke-miterlimit="10"/>
<path d="M305.595 40.6621H318.738" stroke="#D1D3D4" stroke-width="4" stroke-miterlimit="10"/>
<path d="M0.368164 75.0391H90.7924L101.712 87.0946H124.042" stroke="#545454" stroke-width="4"/>
</g>
<defs>
<clipPath id="clip0">
<rect width="319" height="93" fill="white"/>
</clipPath>
</defs>
</svg>
