<svg width="363" height="1117" viewBox="0 0 363 1117" fill="none" xmlns="http://www.w3.org/2000/svg">
<path d="M110.529 480.487H98.415V1115.74H110.529V480.487Z" fill="#48B864"/>
<path d="M150.706 1110.45H138.592V894.327L183.657 864.078V792.392H195.772V870.534L150.706 900.784V1110.45Z" fill="white"/>
<path d="M103.584 475.628C93.4083 475.628 85.1221 467.347 85.1221 457.178C85.1221 447.009 93.4083 438.728 103.584 438.728C113.76 438.728 122.047 447.009 122.047 457.178C122.047 467.347 113.777 475.628 103.584 475.628ZM103.584 450.835C100.079 450.835 97.2364 453.675 97.2364 457.178C97.2364 460.681 100.079 463.522 103.584 463.522C107.089 463.522 109.932 460.681 109.932 457.178C109.932 453.675 107.089 450.835 103.584 450.835Z" fill="#48B864"/>
<path d="M190.183 787.647C180.007 787.647 171.721 779.366 171.721 769.197C171.721 759.028 180.007 750.747 190.183 750.747C200.359 750.747 208.645 759.028 208.645 769.197C208.645 779.366 200.375 787.647 190.183 787.647ZM190.183 762.853C186.678 762.853 183.835 765.694 183.835 769.197C183.835 772.7 186.678 775.541 190.183 775.541C193.688 775.541 196.531 772.7 196.531 769.197C196.531 765.694 193.688 762.853 190.183 762.853Z" fill="white"/>
<path d="M282.704 613.785C272.528 613.785 264.242 605.504 264.242 595.335C264.242 585.165 272.528 576.885 282.704 576.885C292.88 576.885 301.167 585.165 301.167 595.335C301.167 605.504 292.88 613.785 282.704 613.785ZM282.704 588.991C279.199 588.991 276.357 591.832 276.357 595.335C276.357 598.837 279.199 601.678 282.704 601.678C286.21 601.678 289.052 598.837 289.052 595.335C289.052 591.832 286.193 588.991 282.704 588.991Z" fill="#545453"/>
<path d="M344.537 36.8999C334.361 36.8999 326.075 28.6192 326.075 18.4499C326.075 8.28068 334.361 0 344.537 0C354.713 0 363 8.28068 363 18.4499C363 28.6192 354.73 36.8999 344.537 36.8999ZM344.537 12.1063C341.032 12.1063 338.19 14.9472 338.19 18.4499C338.19 21.9527 341.032 24.7936 344.537 24.7936C348.043 24.7936 350.885 21.9527 350.885 18.4499C350.885 14.9472 348.043 12.1063 344.537 12.1063Z" fill="#FCFEFF"/>
<path d="M79.9051 1116.9H67.7907V690.619L33.6767 639.531V405.154L-0.193359 369.636L-0.192956 354.571L45.7911 399.908V635.867L79.9051 686.939V1116.9Z" fill="#FCFEFF"/>
<path d="M239.561 1113.82H227.446V751.167L276.647 706.438V618.385H288.761V711.781L239.561 756.526V1113.82Z" fill="#545454"/>
<path d="M344.537 335.452C334.361 335.452 326.075 327.171 326.075 317.002C326.075 306.833 334.361 298.552 344.537 298.552C354.713 298.552 363 306.833 363 317.002C363 327.171 354.713 335.452 344.537 335.452ZM344.537 310.659C341.032 310.659 338.19 313.499 338.19 317.002C338.19 320.505 341.032 323.346 344.537 323.346C348.043 323.346 350.885 320.505 350.885 317.002C350.885 313.499 348.043 310.659 344.537 310.659Z" fill="#FCFEFF"/>
<path d="M344.537 839.259C334.361 839.259 326.075 830.978 326.075 820.809C326.075 810.639 334.361 802.359 344.537 802.359C354.713 802.359 363 810.639 363 820.809C363 830.978 354.713 839.259 344.537 839.259ZM344.537 814.465C341.032 814.465 338.19 817.306 338.19 820.809C338.19 824.311 341.032 827.152 344.537 827.152C348.043 827.152 350.885 824.311 350.885 820.809C350.885 817.306 348.043 814.465 344.537 814.465Z" fill="#FCFEFF"/>
<path d="M344.537 554.923C334.361 554.923 326.075 546.643 326.075 536.473C326.075 526.304 334.361 518.023 344.537 518.023C354.713 518.023 363 526.304 363 536.473C363 546.643 354.713 554.923 344.537 554.923ZM344.537 530.13C341.032 530.13 338.19 532.971 338.19 536.473C338.19 539.976 341.032 542.817 344.537 542.817C348.043 542.817 350.885 539.976 350.885 536.473C350.885 532.971 348.043 530.13 344.537 530.13Z" fill="#FCFEFF"/>
<path d="M344.537 105.318C334.361 105.318 326.075 97.0374 326.075 86.8682C326.075 76.6989 334.361 68.4182 344.537 68.4182C354.713 68.4182 363 76.6989 363 86.8682C363 97.0374 354.713 105.318 344.537 105.318ZM344.537 80.5245C341.032 80.5245 338.19 83.3654 338.19 86.8682C338.19 90.3709 341.032 93.2118 344.537 93.2118C348.043 93.2118 350.885 90.3709 350.885 86.8682C350.885 83.3654 348.043 80.5245 344.537 80.5245Z" fill="#FCFEFF"/>
<path d="M350.954 107.514H338.515V293.221H350.954V107.514Z" fill="#FCFEFF"/>
<path d="M350.954 341.202H338.515V511.804H350.954V341.202Z" fill="#FCFEFF"/>
<path d="M350.954 559.785H338.515V798.805H350.954V559.785Z" fill="#FCFEFF"/>
<path d="M350.954 843.232H338.515V1114.24H350.954V843.232Z" fill="#FCFEFF"/>
<path d="M350.954 39.0962H338.515V65.7526H350.954V39.0962Z" fill="#FCFEFF"/>
<path d="M96.1055 414.193H110.772V416.969L101.872 424.282H110.772V427.623H96.1055V424.814L105.005 417.534H96.1055V414.193ZM96.1055 410.723V404.072C96.1055 402.474 96.4124 401.086 97.0262 399.859C97.6238 398.632 98.4799 397.68 99.5783 397.018C100.677 396.34 101.969 395.985 103.439 395.985C104.909 395.985 106.185 396.324 107.299 397.018C108.397 397.68 109.254 398.632 109.884 399.859C110.481 401.07 110.788 402.474 110.788 404.072V410.723H96.1055ZM107.978 404.234C107.978 402.765 107.574 401.602 106.766 400.731C105.942 399.859 104.828 399.407 103.439 399.407C102.05 399.407 100.935 399.843 100.127 400.731C99.3037 401.602 98.8837 402.765 98.8837 404.234V407.333H107.978V404.234ZM103.148 382.668C103.406 381.829 103.859 381.167 104.489 380.699C105.102 380.231 105.862 379.989 106.766 379.989C108.058 379.989 109.044 380.489 109.738 381.49C110.417 382.475 110.772 383.927 110.772 385.848V393.419H96.1055V386.252C96.1055 384.46 96.4447 383.104 97.1392 382.152C97.8176 381.183 98.7545 380.715 99.9175 380.715C100.628 380.715 101.258 380.893 101.823 381.232C102.373 381.587 102.825 382.055 103.148 382.668ZM98.6576 390.061H102.114V386.688C102.114 385.848 101.969 385.219 101.678 384.783C101.387 384.347 100.951 384.137 100.386 384.137C99.8205 384.137 99.3844 384.347 99.1098 384.783C98.8191 385.219 98.6737 385.848 98.6737 386.688V390.061H98.6576ZM108.204 386.106C108.204 385.219 108.058 384.541 107.768 384.105C107.477 383.637 107.025 383.411 106.411 383.411C105.199 383.411 104.586 384.315 104.586 386.106V390.061H108.204V386.106Z" fill="white"/>
<path d="M182.398 741.127V737.624H194.674V730.037H197.533V741.127H182.398ZM182.398 728.084V724.581H197.533V728.084H182.398ZM190.087 721.676V715.558H192.784V721.676H190.087ZM182.398 712.669V709.166H197.533V712.669H182.398ZM197.775 698.254C197.775 699.82 197.436 701.24 196.758 702.516C196.079 703.775 195.142 704.759 193.963 705.47C192.768 706.18 191.427 706.535 189.941 706.535C188.455 706.535 187.131 706.18 185.936 705.47C184.74 704.743 183.803 703.759 183.125 702.516C182.447 701.24 182.107 699.836 182.107 698.254C182.107 696.689 182.447 695.268 183.125 694.025C183.803 692.766 184.74 691.781 185.936 691.071C187.115 690.345 188.455 689.99 189.941 689.99C191.427 689.99 192.768 690.345 193.963 691.071C195.142 691.798 196.079 692.782 196.758 694.025C197.436 695.284 197.775 696.689 197.775 698.254ZM194.803 698.254C194.803 697.366 194.593 696.559 194.206 695.833C193.786 695.107 193.204 694.558 192.477 694.154C191.734 693.735 190.911 693.525 189.974 693.525C189.037 693.525 188.197 693.735 187.47 694.154C186.727 694.558 186.162 695.123 185.758 695.833C185.338 696.559 185.128 697.366 185.128 698.254C185.128 699.142 185.338 699.949 185.758 700.676C186.162 701.402 186.727 701.967 187.47 702.387C188.213 702.79 189.037 702.984 189.974 702.984C190.911 702.984 191.75 702.774 192.477 702.387C193.22 701.967 193.786 701.402 194.206 700.676C194.593 699.949 194.803 699.142 194.803 698.254ZM182.398 673.477H197.533V676.35L188.342 683.888H197.533V687.342H182.398V684.453L191.589 676.931H182.398V673.477Z" fill="white"/>
<path d="M291.459 562.729C291.459 563.746 291.329 564.746 291.055 565.699C290.764 566.651 290.409 567.41 289.973 567.991L287.727 566.974C288.131 566.425 288.454 565.763 288.713 565.005C288.955 564.246 289.084 563.487 289.084 562.713C289.084 561.857 288.955 561.244 288.713 560.824C288.454 560.42 288.115 560.211 287.695 560.211C287.388 560.211 287.13 560.34 286.936 560.582C286.726 560.808 286.564 561.115 286.435 561.502C286.306 561.873 286.177 562.374 286.031 563.019C285.805 564.004 285.563 564.811 285.337 565.44C285.111 566.07 284.723 566.603 284.206 567.071C283.689 567.507 282.995 567.733 282.139 567.733C281.396 567.733 280.717 567.523 280.103 567.119C279.49 566.716 279.005 566.102 278.65 565.295C278.294 564.472 278.117 563.471 278.117 562.293C278.117 561.47 278.214 560.663 278.407 559.872C278.601 559.081 278.892 558.403 279.264 557.806L281.541 558.726C280.863 559.92 280.523 561.115 280.523 562.309C280.523 563.148 280.653 563.762 280.927 564.165C281.202 564.553 281.557 564.763 281.993 564.763C282.429 564.763 282.769 564.537 282.995 564.085C283.205 563.616 283.415 562.906 283.625 561.97C283.851 560.985 284.093 560.178 284.319 559.549C284.545 558.919 284.917 558.387 285.434 557.951C285.935 557.499 286.629 557.273 287.485 557.273C288.228 557.273 288.907 557.483 289.52 557.902C290.118 558.306 290.603 558.919 290.958 559.742C291.265 560.55 291.459 561.55 291.459 562.729ZM278.311 555.207V552.221H291.232V555.207H278.311ZM278.311 549.154V546.167H288.793V539.695H291.232V549.154H278.311ZM278.311 526.523L291.232 532.108V535.062L278.311 540.631V537.402L287.534 533.48L278.311 529.493V526.523ZM288.826 515.45H291.232V525.441H278.311V515.692H280.717V522.471H283.528V516.483H285.854V522.471H288.842V515.45H288.826ZM291.232 504.845L287.631 507.33V507.476V510.075H291.232V513.061H278.311V507.476C278.311 506.33 278.504 505.345 278.876 504.506C279.264 503.65 279.797 503.005 280.507 502.553C281.202 502.101 282.042 501.875 282.995 501.875C283.948 501.875 284.788 502.101 285.482 502.569C286.177 503.021 286.694 503.682 287.065 504.522L291.216 501.632V504.845H291.232ZM282.995 504.909C282.268 504.909 281.719 505.135 281.331 505.603C280.943 506.071 280.733 506.749 280.733 507.653V510.091H285.24V507.653C285.24 506.749 285.046 506.071 284.642 505.603C284.271 505.135 283.705 504.909 282.995 504.909ZM291.459 488.041C291.459 489.381 291.168 490.592 290.586 491.673C290.005 492.738 289.213 493.578 288.212 494.207C287.194 494.805 286.048 495.111 284.788 495.111C283.528 495.111 282.381 494.805 281.38 494.207C280.362 493.594 279.554 492.755 278.973 491.673C278.391 490.592 278.101 489.381 278.101 488.041C278.101 486.701 278.391 485.491 278.973 484.425C279.554 483.36 280.346 482.521 281.38 481.891C282.381 481.278 283.528 480.971 284.788 480.971C286.048 480.971 287.194 481.278 288.212 481.891C289.213 482.505 290.021 483.344 290.586 484.425C291.168 485.491 291.459 486.701 291.459 488.041ZM288.907 488.041C288.907 487.283 288.729 486.588 288.39 485.975C288.034 485.362 287.534 484.877 286.92 484.538C286.29 484.183 285.579 484.006 284.772 484.006C283.964 484.006 283.253 484.183 282.623 484.538C281.993 484.877 281.509 485.362 281.17 485.975C280.814 486.588 280.637 487.283 280.637 488.041C280.637 488.8 280.814 489.494 281.17 490.107C281.509 490.721 281.993 491.205 282.623 491.56C283.253 491.899 283.964 492.077 284.772 492.077C285.579 492.077 286.29 491.899 286.92 491.56C287.55 491.205 288.034 490.721 288.39 490.107C288.729 489.494 288.907 488.8 288.907 488.041ZM291.232 471.076L286.742 474.192L291.232 477.259V480.681L284.658 475.903L278.311 480.439V477.049L282.494 474.079L278.311 471.173V467.945L284.545 472.448L291.232 467.638V471.076ZM278.311 466.46V463.474H291.232V466.46H278.311ZM278.311 460.407V454.547C278.311 453.143 278.585 451.916 279.118 450.835C279.651 449.753 280.394 448.914 281.363 448.333C282.333 447.735 283.463 447.429 284.755 447.429C286.048 447.429 287.178 447.735 288.147 448.333C289.117 448.93 289.876 449.753 290.425 450.835C290.958 451.9 291.216 453.143 291.216 454.547V460.407H278.311ZM288.777 454.693C288.777 453.401 288.422 452.368 287.711 451.609C286.984 450.835 286.015 450.447 284.772 450.447C283.528 450.447 282.575 450.835 281.864 451.609C281.137 452.368 280.782 453.401 280.782 454.693V457.42H288.793V454.693H288.777ZM288.826 435.177H291.232V445.169H278.311V435.419H280.717V442.199H283.528V436.21H285.854V442.199H288.842V435.177H288.826Z" fill="white"/>
</svg>
